<?xml version="1.0" encoding="UTF-8" standalone="no"?>
<svg
   xmlns="http://www.w3.org/2000/svg"
   width="210mm"
   height="297mm"
   viewBox="0 0 210 297"
   version="1.1"
   id="svg6774"
>
  <defs
     id="defs6768" />
  <sodipodi:namedview
     id="base"
     pagecolor="#ffffff"
     bordercolor="#666666"
     borderopacity="1.0"
     showgrid="false"
   />
  <metadata
     id="metadata6771">
    <rdf:RDF>
      <cc:Work>
        <dc:format>image/svg+xml</dc:format>
        <dc:type />
        <dc:title></dc:title>
      </cc:Work>
    </rdf:RDF>
  </metadata>
  <g
     id="layer1">
    <path
       d="m 48.471794,189.65593 c 0,0 -0.127,0.74154 -0.08784,2.25813 0.02187,0.83643 0.262466,1.86302 0.580319,2.40171 0.438503,0.74471 0.664634,0.93415 0.664634,0.93415 0,0 -0.131939,-1.76353 0.140758,-2.88043 0.272344,-1.11724 0.975078,-2.27365 0.975078,-2.27365 0,0 -0.263878,1.88454 0.0085,2.95381 0.333375,1.30845 1.023055,2.09021 1.150408,2.14277 0.141817,-1.45556 0.246592,-2.4959 0.344664,-3.18982 0.0889,-0.62935 0.579261,-1.61325 0.579261,-1.61325 0,0 -0.08819,1.29046 0.07338,2.4123 0.09278,0.64593 0.389819,1.32432 0.694619,1.74766 0.304095,0.42368 0.828323,0.81668 0.828323,0.81668 0,0 -0.09984,-0.94192 -0.05151,-1.52506 0.04833,-0.58314 0.166158,-1.45697 0.317853,-1.94098 0.15875,-0.50765 0.447322,-0.91652 0.447322,-0.91652 0,0 0.105833,1.02517 0.242006,1.73037 0.135819,0.70521 0.312913,1.45345 0.916516,2.48603 0.220839,0.37747 0.684389,0.74542 0.684389,0.74542 0,0 0.05609,-2.0066 0.202847,-2.72838 0.132645,-0.65264 0.550334,-1.48555 0.550334,-1.48555 0,0 0.384528,1.66828 0.60713,2.24296 0.412045,1.06433 0.898173,1.83762 1.094317,2.03588 0.09842,-1.08303 0.17392,-1.76495 0.226836,-2.12302 0.154164,-1.0414 0.443089,-1.32538 0.443089,-1.32538 0,0 0,0.36477 0.488245,1.59667 0.336902,0.84984 0.813153,1.67852 1.081969,2.02741 0.268817,0.3489 0.43815,0.39653 0.438856,0.37501 7.05e-4,-0.0208 -0.08819,-1.88137 -0.05539,-2.24508 0.07585,-0.84561 0.32385,-0.98602 0.32385,-0.98602 0,0 0.437444,1.34374 0.784578,1.97274 0.254,0.46002 1.158875,1.48872 1.158875,1.48872 l 0.153811,-2.25884 c -0.01658,-0.006 -1.40582,-1.29081 -2.25672,-1.62136 -0.851253,-0.33056 -2.793294,-1.08268 -4.019197,-1.35714 -1.225903,-0.27446 -4.013553,-1.2379 -4.536723,-1.29081 -0.523522,-0.0529 -2.845506,-0.52776 -3.910895,-0.56727 -0.697441,-0.0254 -1.284464,-0.0399 -1.284464,-0.0399"
       style="fill:#bbbcbd;fill-opacity:1;fill-rule:nonzero;stroke:none;stroke-width:0.0352778"
       id="path1138" />
    <path
       d="m 45.664389,193.58764 -0.04269,-0.0138 c -0.13335,0.11924 -0.638528,0.64699 -1.032934,2.07186 -0.226483,0.81774 -0.370416,2.23061 -0.311855,3.28648 0.02328,0.4191 0.140405,0.95497 0.159102,1.03752 l 0.01305,0.0166 c 0.169686,0.0896 2.361848,1.24142 3.630084,1.81927 1.320094,0.60114 2.385836,0.97614 3.735211,1.15006 1.349375,0.17427 3.843867,0.38276 5.490281,0.23177 1.646061,-0.15134 2.756959,-0.2233 4.135614,-0.70731 1.378656,-0.48402 2.082448,-1.11443 2.610556,-1.49614 0.527756,-0.38135 0.762353,-1.2319 0.762353,-1.27599 0,-0.0437 -0.731661,-0.89959 -0.870303,-1.17616 -0.132645,-0.26423 -0.269522,-0.54857 -0.328083,-0.67134 l -0.04868,0.005 c -0.05292,0.19473 -0.193322,0.79833 -0.142169,1.55857 0.04516,0.67204 0.169686,1.44639 0.206022,1.66335 l -0.04057,0.0258 c -0.111831,-0.0751 -0.406753,-0.28681 -0.854781,-0.70626 -0.624417,-0.58456 -1.380772,-2.07751 -1.51765,-2.35374 l -0.04692,0.001 c -0.04868,0.10301 -0.148166,0.4004 -0.125941,1.08232 0.02611,0.79517 0.318558,2.48144 0.383469,2.84763 l -0.04269,0.0247 c -0.221192,-0.18697 -1.043869,-0.89147 -1.349022,-1.27952 -0.353836,-0.45015 -1.0414,-1.53812 -1.20262,-1.87713 -0.129822,-0.27376 -0.325261,-0.7747 -0.396169,-0.9585 l -0.04939,0.001 c -0.07303,0.23777 -0.30092,1.02094 -0.349956,1.69615 -0.05891,0.80645 0.01446,1.54023 0.08784,2.08281 0.05962,0.44026 0.118886,0.99624 0.139347,1.19062 l -0.0441,0.0212 c -0.1524,-0.14676 -0.586317,-0.69109 -1.000831,-1.20333 -0.545394,-0.67416 -0.922866,-1.30916 -1.224491,-2.15582 -0.225073,-0.63112 -0.660753,-1.6563 -0.772584,-1.9177 l -0.04904,0.002 c -0.06279,0.19121 -0.244122,0.81174 -0.359128,1.90147 -0.09208,0.87207 -0.08784,2.04576 0,2.51531 0.05997,0.3182 0.164748,0.70344 0.226131,0.91828 l -0.04727,0.0215 c -0.222603,-0.33655 -0.778934,-1.18428 -1.073503,-1.70992 -0.347134,-0.61983 -0.897114,-1.93216 -1.197681,-2.65077 -0.17145,-0.40993 -0.396875,-1.32397 -0.458258,-1.57903 l -0.04904,-0.006 c -0.08185,0.15981 -0.295981,0.62724 -0.436034,1.37125 -0.0956,0.50623 -0.250119,1.83797 -0.26423,2.23379 -0.02364,0.65793 0.08925,1.45309 0.155222,1.85102 l -0.05045,0.0145 c -0.164042,-0.40923 -0.503767,-1.24743 -0.720725,-1.71874 -0.232834,-0.50623 -0.660753,-1.72296 -0.865364,-2.71356 -0.119592,-0.57926 -0.484717,-1.99602 -0.5588,-2.28106 l -0.04621,-0.009 c -0.109361,0.14358 -0.466725,0.65934 -0.700264,1.55716 -0.170392,0.65511 -0.319617,1.29082 -0.469195,2.19993 -0.119591,0.72672 -0.153458,1.6069 -0.162277,1.9311 l -0.05045,0.01 c -0.231069,-0.57609 -1.230489,-3.0794 -1.435805,-3.79413 -0.221897,-0.77293 -0.854075,-3.671 -0.94615,-4.08516"
       style="fill:#bbbcbd;fill-opacity:1;fill-rule:nonzero;stroke:none;stroke-width:0.0352778"
       id="path1140" />
    <path
       d="m 83.498397,190.02423 c -0.297039,-0.0434 -0.688975,-0.12665 -0.886884,-0.4572 -0.15628,-0.26106 -0.146402,-0.60572 -0.09137,-0.89465 0.05609,-0.29421 0.18415,-0.54892 0.346075,-0.80116 0.156986,-0.24412 0.690739,-0.91369 0.578908,-0.97825 l -0.188736,0.0148 c -0.333728,0.0441 -0.593372,0.0346 -0.891469,-0.0878 -0.375356,-0.15452 -0.65405,-0.50695 -0.751064,-0.89959 -0.214842,-0.87136 0.404283,-1.48449 0.740833,-2.20027 l 3.53e-4,-0.001 c 0.15875,-0.2847 0.104775,-0.32421 -0.03069,-0.32879 -0.09137,-0.004 -0.202142,0.002 -0.321028,0.007 -0.208139,0.01 -0.440972,0.019 -0.636764,-0.0187 -0.379941,-0.0727 -0.788105,-0.26353 -1.072797,-0.52987 -0.74295,-0.69568 -0.148167,-2.55729 -0.286103,-2.72592 -0.04939,-0.0603 -0.158044,-0.0106 -0.275166,0.042 -0.467078,0.21026 -1.001889,0.3235 -1.519062,0.15699 -0.494947,-0.15875 -0.868186,-0.55915 -1.062213,-1.02976 -0.18415,-0.44626 -0.448734,-1.29187 -0.588081,-1.79282 -0.04057,-0.14499 -0.15487,-0.11888 -0.355247,0.0402 -0.792692,0.62971 -1.923698,0.49918 -2.714273,-0.14605 -0.663222,-0.54081 -0.766939,-1.0989 -1.135944,-1.90324 -0.01482,-0.0279 -0.150284,-0.35524 -0.202495,-0.40745 -0.09066,-0.0903 -0.139347,0.0903 -0.282222,0.21166 -0.928158,0.78846 -2.758722,0.92569 -3.292828,-0.4198 -0.219428,-0.55316 -0.42933,-1.2954 -0.697794,-2.01154 -0.08784,-0.23425 -0.213784,-0.47484 -0.342195,-0.34184 -0.405694,0.4198 -0.956733,1.17087 -1.440744,1.49789 -0.470253,0.3175 -1.182864,0.79234 -1.783998,0.63923 -0.586669,-0.14887 -0.775758,-0.99836 -0.9017,-1.50071 -0.113241,-0.45226 -0.251178,-1.01177 -0.365478,-1.47073 -0.02117,-0.0847 -0.125941,-0.17675 -0.191558,-0.12418 -0.401108,0.32138 -0.691092,0.67768 -1.111603,0.88124 -0.629003,0.3048 -1.143705,0.0335 -1.426633,-0.58244 -0.269522,-0.58737 -0.270228,-1.25871 -0.262114,-1.893 0.0071,-0.55775 0.09701,-1.23155 -0.0056,-1.75966 -0.01376,-0.0706 -0.05221,-0.11112 -0.07832,-0.127 -0.0628,-0.0681 -0.172156,-0.0282 -0.289278,0.0332 -1.28905,0.67628 -1.884892,2.44898 -2.243667,3.76132 -0.227894,0.83432 -0.328789,1.70533 -0.379236,2.56681 -0.06315,1.08197 -0.06279,2.27189 0.276225,3.31364 0.01164,0.036 0.02963,0.0628 0.05151,0.0833 0.0028,0.0579 0.0042,0.09 0.0042,0.09 0,0 3.637492,-0.76871 6.101292,-0.80751 2.464153,-0.0395 4.302125,0.78211 5.436306,1.19274 1.134181,0.41063 3.6957,1.77941 4.888795,2.65959 1.192741,0.87983 3.187347,3.01131 4.321528,4.51697 1.13418,1.50565 2.229203,4.96711 2.788355,6.09141 0.310798,0.62477 0.94227,1.05304 1.442156,1.31057 0.124178,0.21802 0.315031,0.38418 0.588433,0.43357 0.242359,0.0437 0.373239,-0.20603 0.228248,-0.39229 -0.174625,-0.22508 -0.390173,-0.33867 -0.441678,-0.64523 -0.04198,-0.25083 0.02011,-0.51259 0.105128,-0.74895 0.162277,-0.4512 0.48013,-0.79622 0.729544,-1.19557 l 0.108656,-0.1778 c 0.07161,-0.13546 -0.04657,-0.1217 -0.1905,-0.14322"
       style="fill:#725b94;fill-opacity:1;fill-rule:nonzero;stroke:none;stroke-width:0.0352778"
       id="path1142" />
    <path
       d="m 34.032246,187.97953 c 0.282928,-1.5293 0.257175,-3.09351 0.526698,-4.62951 0.280458,-1.59667 0.8001,-3.17641 1.493661,-4.6422 1.323622,-2.79823 3.394075,-4.95229 6.159147,-6.34612 5.074709,-2.55834 13.493399,-0.81386 14.734471,5.50263 0.125941,0.64135 1.193447,0.50306 1.147586,-0.15522 -0.211314,-3.04941 -3.142545,-5.66879 -5.822245,-6.74441 -2.945342,-1.18216 -6.6294,-1.21955 -9.559573,-0.003 -3.036358,1.26047 -5.509331,3.44663 -7.055556,6.35105 -1.619603,3.04377 -2.67088,7.2263 -2.082447,10.66695 0.03916,0.2286 0.416631,0.22542 0.458258,0"
       style="fill:#725b94;fill-opacity:1;fill-rule:nonzero;stroke:none;stroke-width:0.0352778"
       id="path1144" />
    <path
       d="m 33.963102,187.71106 c -0.02752,-0.0674 -0.170392,-0.0758 -0.233186,-0.0392 l -0.08855,0.0744 c -1.104548,1.13912 -1.972028,3.7906 -0.06914,4.36598 0.8128,0.24553 1.656997,-0.55139 1.751189,-1.31798 0.137583,-1.11795 -0.957086,-2.0955 -1.360311,-3.08328"
       style="fill:#fbc53b;fill-opacity:1;fill-rule:nonzero;stroke:none;stroke-width:0.0352778"
       id="path1146" />
    <path
       d="m 36.082238,187.59782 c 0.288925,-0.387 0.545395,-0.77435 0.892175,-1.11689 0.158045,-0.15593 0.26035,-0.29881 0.431447,-0.44027 0.143934,-0.11853 0.343606,-0.22789 0.427567,-0.40146 0.07867,-0.16263 -0.0095,-0.18556 -0.07902,-0.15805 -0.225778,0.0896 -0.870303,0.57609 -1.103842,0.83115 -0.310797,0.33937 -0.682272,0.73836 -0.795514,1.1945 -0.04269,0.17287 0.130175,0.2212 0.227189,0.091"
       style="fill:#fbc53b;fill-opacity:1;fill-rule:nonzero;stroke:none;stroke-width:0.0352778"
       id="path1148" />
    <path
       d="m 36.761688,189.90393 c 0.548922,-0.0575 0.890764,-0.0811 1.330678,-0.1524 0.469547,-0.0765 0.940506,-0.0335 1.401233,-0.14923 0.130881,-0.0328 0.1143,-0.24165 0,-0.2413 -0.862894,0.001 -1.921933,0.13935 -2.731911,0.24589 -0.185914,0.0247 -0.195439,0.28293 0,0.29704"
       style="fill:#fbc53b;fill-opacity:1;fill-rule:nonzero;stroke:none;stroke-width:0.0352778"
       id="path1150" />
    <path
       d="m 39.257238,192.12043 c 0.09313,-0.0145 0.224014,-0.15451 0.05221,-0.1972 -0.306916,-0.0765 -0.587375,-0.0815 -1.04528,-0.13335 -0.448381,-0.0512 -0.94615,-0.13194 -1.309159,-0.16792 -0.18803,-0.018 -0.193675,0.20179 -0.03316,0.21942 0,0 1.612548,0.39229 2.335389,0.27905"
       style="fill:#fbc53b;fill-opacity:1;fill-rule:nonzero;stroke:none;stroke-width:0.0352778"
       id="path1152" />
    <path
       d="m 35.825063,194.04872 c 0.2413,0.42086 1.484136,1.5367 1.836209,1.85596 0.184502,0.16792 0.258938,0.0229 0.221191,-0.0596 -0.152047,-0.33408 -0.637469,-0.78564 -0.891116,-1.04951 -0.287162,-0.29881 -0.626181,-0.68369 -0.990248,-0.8816 -0.08819,-0.048 -0.208491,0.0314 -0.176036,0.13477"
       style="fill:#fbc53b;fill-opacity:1;fill-rule:nonzero;stroke:none;stroke-width:0.0352778"
       id="path1154" />
    <path
       d="m 32.557635,196.25287 v -0.0116 0.0116"
       style="fill:#fbc53b;fill-opacity:1;fill-rule:nonzero;stroke:none;stroke-width:0.0352778"
       id="path1156" />
    <path
       d="m 33.034591,194.01661 c -0.04339,0.44309 -0.178153,1.77059 -0.219075,2.16571 -0.02364,0.22754 0.255411,0.43285 0.352072,0.0395 0.144286,-0.58703 0.212372,-1.41076 0.130881,-2.27648 -0.01446,-0.15381 -0.251531,-0.054 -0.263878,0.0713"
       style="fill:#fbc53b;fill-opacity:1;fill-rule:nonzero;stroke:none;stroke-width:0.0352778"
       id="path1158" />
    <path
       d="m 31.267174,193.1957 c -0.412397,0.39194 -0.940506,0.69568 -1.389239,1.0481 -0.236008,0.18521 -0.472369,0.36195 -0.765528,0.91158 -0.03563,0.0667 0.05115,0.27199 0.218017,0.0956 0.134408,-0.14181 0.277636,-0.30444 0.423333,-0.43709 0.183445,-0.16722 0.385939,-0.31221 0.58032,-0.46637 0.397227,-0.31574 0.809272,-0.60113 1.105958,-1.01847 0.07444,-0.10478 -0.08502,-0.21625 -0.172861,-0.13335"
       style="fill:#fbc53b;fill-opacity:1;fill-rule:nonzero;stroke:none;stroke-width:0.0352778"
       id="path1160" />
    <path
       d="m 28.490107,192.21956 c 0.8128,-0.0215 1.791759,-0.0783 2.613378,-0.46637 0.06879,-0.0325 0.0508,-0.19121 -0.03669,-0.18309 -0.451908,0.0427 -1.121833,0.1972 -1.642533,0.24024 -0.350661,0.0293 -0.72637,-0.019 -1.017764,0.20743 -0.0829,0.0642 -0.01164,0.20462 0.08361,0.20179"
       style="fill:#fbc53b;fill-opacity:1;fill-rule:nonzero;stroke:none;stroke-width:0.0352778"
       id="path1162" />
    <path
       d="m 94.604195,194.15737 c -0.733425,-0.5528 -0.894998,-1.10031 -0.625828,-2.10114 0.129116,-0.47978 0.6604,-1.3014 0.828322,-1.55364 0.02469,-0.0367 0.0042,-0.0861 -0.03881,-0.0956 -0.215548,-0.0473 -0.780698,-0.17074 -1.29787,-0.28646 -0.553156,-0.12382 -1.075267,-0.41098 -1.197681,-0.88229 -0.141464,-0.5461 0.189089,-1.58186 0.283634,-1.85914 0.0127,-0.0367 -0.01058,-0.0751 -0.04868,-0.0811 -0.285044,-0.0473 -1.332089,-0.2346 -1.877483,-0.52388 -0.9906,-0.52599 -0.758472,-1.6256 -0.564797,-2.794 0.149225,-0.89958 1.050572,-2.49837 0.986719,-2.51389 -1.760008,-0.4251 -2.899833,1.36243 -3.529542,2.73614 -0.865364,1.88595 -1.075972,3.94547 -1.646061,5.92138 -0.238125,0.82585 -0.601133,1.68557 -1.215319,2.3047 -0.789517,0.79586 -1.839737,0.74013 -2.649715,0.002 -1.42628,-1.29823 -1.931105,-3.25967 -2.646891,-4.97981 -0.82162,-1.9738 -2.174875,-3.60963 -3.68547,-5.10258 -1.662289,-1.64183 -3.497439,-2.89666 -5.631745,-3.8541 -2.228144,-0.99942 -4.49192,-1.60232 -6.941256,-1.64571 -2.226028,-0.0395 -4.524728,0.23918 -6.56202,1.1811 -2.161469,0.99942 -4.213225,2.72733 -5.67055,4.59952 -1.565628,2.01189 -2.121958,4.4764 -2.462036,6.95642 -0.02293,0.16757 0.115358,0.28046 0.244475,0.28893 l 0.05433,0.0116 c 1.696508,0.0621 3.365147,0.25259 5.018616,0.64664 1.539876,0.3676 3.033184,0.8957 4.561065,1.30669 2.433461,0.6544 5.697008,1.50918 6.5913,4.19241 0.689681,2.0694 -0.117475,4.60411 -2.103967,5.63845 -1.395236,0.72637 -3.125258,1.01812 -4.671836,1.1871 -1.556809,0.17004 -3.127375,0.17674 -4.690887,0.11112 -1.852436,-0.0773 -3.463572,-0.52423 -5.154083,-1.26224 -0.593725,-0.25929 -1.176161,-0.54363 -1.766359,-0.81103 -0.649464,-0.29493 -1.334205,-0.61948 -1.77165,-1.20686 -0.09701,-0.13017 -0.28963,-0.0568 -0.289983,0.0741 -0.03175,0.0268 -0.05292,0.067 -0.05256,0.12135 0.006,0.69392 0.2286,1.3843 0.406753,2.05105 0.187325,0.69815 0.41663,1.41676 0.724605,2.07328 0.499534,1.06433 1.230137,2.08139 2.060928,2.91324 1.877131,1.87854 4.297187,2.59715 6.811081,3.20675 2.414412,0.58526 4.939242,0.80186 7.418565,0.85936 2.468033,0.0572 4.961819,-0.12558 7.35965,-0.74083 1.406172,-0.36054 2.770011,-0.92392 4.000853,-1.69369 0.878417,-0.54856 1.744134,-1.24071 2.451453,-2.02247 0.04727,-0.0515 0.06385,-0.13406 0.07867,-0.0847 0.143227,0.48472 0.607483,1.81716 1.620661,3.14114 0.938741,1.22696 2.329744,1.73037 2.717094,1.85173 0.04586,0.0145 0.09031,-0.0254 0.07973,-0.0727 -0.08467,-0.387 -0.358422,-1.77659 -0.131233,-2.71216 0.455789,-1.8796 2.285647,-2.20169 2.955219,-2.25672 0.10407,-0.008 0.161925,-0.12418 0.106539,-0.21237 -0.282222,-0.44768 -0.843844,-1.5875 -0.262114,-2.87832 0.370417,-0.82126 1.938514,-1.11865 2.276828,-1.17404 0.03493,-0.006 0.05821,-0.0385 0.05151,-0.0737 -0.0568,-0.29916 -0.256822,-1.58927 0.32773,-2.45004 0.546101,-0.80434 1.243895,-0.82056 1.476023,-0.80116 0.04092,0.004 0.07408,-0.0328 0.06668,-0.0737 -0.04127,-0.22437 -0.219781,-0.84385 -0.952147,-1.15852 -0.603603,-0.25859 -2.321278,-0.52141 -2.690637,-0.57574 -0.0388,-0.006 -0.06209,-0.0441 -0.05009,-0.0811 0.05433,-0.16721 0.233186,-0.6096 0.716844,-1.10984 0.422275,-0.43815 1.299281,-0.99165 1.86937,-1.19803 1.207205,-0.43709 2.392539,-0.39052 3.617031,-0.0381 1.208616,0.34784 2.354086,0.80892 3.629025,0.83326 0.826205,0.0162 2.115608,-0.23107 2.485319,-0.74154 0.07303,-0.10054 -0.720019,-0.29809 -0.997302,-0.50694"
       style="fill:#725b94;fill-opacity:1;fill-rule:nonzero;stroke:none;stroke-width:0.0352778"
       id="path1164" />
    <path
       d="m 28.460474,189.18814 c 0.442736,0.15311 0.8382,0.17075 1.297164,0.26247 0.37465,0.0748 0.7112,0.0956 1.226255,0.091 0.106187,-0.001 0.115359,-0.18274 0,-0.21731 -0.415219,-0.12559 -0.872066,-0.12665 -1.299633,-0.20955 -0.396522,-0.0769 -0.787753,-0.17851 -1.194153,-0.14535 -0.125236,0.0102 -0.151342,0.17674 -0.02963,0.21872"
       style="fill:#fbc53b;fill-opacity:1;fill-rule:nonzero;stroke:none;stroke-width:0.0352778"
       id="path1166" />
    <path
       d="m 29.654274,185.805 c 0.255411,0.4251 0.625828,0.79622 0.959555,1.15994 0.298098,0.32596 0.609953,0.63606 0.977195,0.90134 0.155928,0.11254 0.29845,0.0339 0.246944,-0.0317 -0.305505,-0.38664 -0.65793,-0.81138 -0.968375,-1.12536 -0.347133,-0.35066 -0.693561,-0.73942 -1.108075,-1.01141 -0.06632,-0.0437 -0.146402,0.042 -0.107244,0.10724"
       style="fill:#fbc53b;fill-opacity:1;fill-rule:nonzero;stroke:none;stroke-width:0.0352778"
       id="path1168" />
    <path
       d="m 54.853545,180.69255 c -0.456495,0 -0.446264,0.70873 0.01023,0.70873 0.456495,0 0.446264,-0.70873 -0.01023,-0.70873"
       style="fill:#e7d97e;fill-opacity:1;fill-rule:nonzero;stroke:none;stroke-width:0.0352778"
       id="path1170" />
    <path
       d="m 58.060648,179.36751 c -0.450145,0 -0.439914,0.69921 0.01023,0.69921 0.450145,0 0.440267,-0.69921 -0.01023,-0.69921"
       style="fill:#e7d97e;fill-opacity:1;fill-rule:nonzero;stroke:none;stroke-width:0.0352778"
       id="path1172" />
    <path
       d="m 62.061501,180.73065 c -0.08749,-0.10936 -0.197556,-0.17075 -0.336903,-0.18768 -0.145344,-0.0173 -0.332317,0.0222 -0.427919,0.14711 l -0.01341,0.018 c -0.08149,0.10689 -0.1524,0.21943 -0.143933,0.3616 0.0067,0.115 0.04163,0.2166 0.113947,0.30691 0.06597,0.0833 0.159808,0.15593 0.2667,0.17851 0.125589,0.0265 0.284692,0.0247 0.391583,-0.0568 l 0.01729,-0.013 c 0.0762,-0.0469 0.136525,-0.10901 0.180623,-0.18627 0.01693,-0.0409 0.03351,-0.0822 0.05009,-0.12312 0.04762,-0.15487 -0.0011,-0.32279 -0.09807,-0.4452"
       style="fill:#e7d97e;fill-opacity:1;fill-rule:nonzero;stroke:none;stroke-width:0.0352778"
       id="path1174" />
    <path
       d="m 63.457443,178.2284 c -0.507295,0 -0.496006,0.7874 0.01129,0.7874 0.506941,0 0.496005,-0.7874 -0.01129,-0.7874"
       style="fill:#e7d97e;fill-opacity:1;fill-rule:nonzero;stroke:none;stroke-width:0.0352778"
       id="path1176" />
    <path
       d="m 66.665604,179.33365 c -0.392995,0 -0.384528,0.61066 0.0088,0.61066 0.392995,0 0.384528,-0.61066 -0.0088,-0.61066"
       style="fill:#e7d97e;fill-opacity:1;fill-rule:nonzero;stroke:none;stroke-width:0.0352778"
       id="path1178" />
    <path
       d="m 66.197115,181.6708 c -0.304094,0 -0.297392,0.47272 0.0071,0.47272 0.304447,0 0.297391,-0.47272 -0.0071,-0.47272"
       style="fill:#e7d97e;fill-opacity:1;fill-rule:nonzero;stroke:none;stroke-width:0.0352778"
       id="path1180" />
    <path
       d="m 70.34049,180.01768 c -0.519641,0 -0.508352,0.80716 0.01164,0.80716 0.519642,0 0.508353,-0.80716 -0.01164,-0.80716"
       style="fill:#e7d97e;fill-opacity:1;fill-rule:nonzero;stroke:none;stroke-width:0.0352778"
       id="path1182" />
    <path
       d="m 73.078046,182.67692 c -0.519642,0 -0.508,0.80716 0.01164,0.80716 0.519994,0 0.508353,-0.80716 -0.01164,-0.80716"
       style="fill:#e7d97e;fill-opacity:1;fill-rule:nonzero;stroke:none;stroke-width:0.0352778"
       id="path1184" />
    <path
       d="m 50.191939,205.77964 c -0.02963,-0.19897 -0.212019,-0.37536 -0.423686,-0.36266 -0.194733,0.0113 -0.348545,0.13159 -0.405695,0.31821 -0.04339,0.14075 0.01023,0.30903 0.117123,0.41345 l 0.03422,0.0402 c 0.05927,0.0579 0.135114,0.0903 0.216253,0.10019 0.121708,0.0145 0.275167,-0.0374 0.348192,-0.1457 0.09137,-0.0938 0.132291,-0.23671 0.113594,-0.36371"
       style="fill:#e7d97e;fill-opacity:1;fill-rule:nonzero;stroke:none;stroke-width:0.0352778"
       id="path1186" />
    <path
       d="m 52.50722,207.91041 c -0.45967,0 -0.449439,0.71403 0.01023,0.71403 0.45967,0 0.449439,-0.71403 -0.01023,-0.71403"
       style="fill:#e7d97e;fill-opacity:1;fill-rule:nonzero;stroke:none;stroke-width:0.0352778"
       id="path1188" />
    <path
       d="m 55.558748,206.67181 c -0.138995,0 -0.270228,0.12771 -0.261761,0.26952 0.0085,0.1457 0.12065,0.26212 0.269522,0.26212 0.139347,0 0.27058,-0.12771 0.262114,-0.26953 -0.0085,-0.14569 -0.12065,-0.26211 -0.269875,-0.26211"
       style="fill:#e7d97e;fill-opacity:1;fill-rule:nonzero;stroke:none;stroke-width:0.0352778"
       id="path1190" />
    <path
       d="m 56.311223,209.3822 -0.01094,-0.0554 c -0.05151,-0.19086 -0.331259,-0.17957 -0.381353,0.006 l -0.01129,0.0557 c -0.02258,0.13229 0.06209,0.26388 0.205669,0.26176 0.05362,-7e-4 0.109714,-0.0247 0.147109,-0.0635 0.05644,-0.0582 0.06385,-0.12841 0.0508,-0.20426"
       style="fill:#e7d97e;fill-opacity:1;fill-rule:nonzero;stroke:none;stroke-width:0.0352778"
       id="path1192" />
    <path
       d="m 59.455884,208.22121 c -0.07267,10e-4 -0.148519,0.0339 -0.198967,0.0861 l -0.0134,0.018 c -0.0762,0.0681 -0.122414,0.17392 -0.08749,0.27658 0.04304,0.12665 0.157692,0.21061 0.2921,0.20461 0.130175,-0.006 0.261761,-0.0977 0.28575,-0.23072 0.03281,-0.17921 -0.08537,-0.35736 -0.277989,-0.35454"
       style="fill:#e7d97e;fill-opacity:1;fill-rule:nonzero;stroke:none;stroke-width:0.0352778"
       id="path1194" />
    <path
       d="m 61.50129,206.11336 c -0.557742,0 -0.545395,0.86643 0.01235,0.86643 0.557742,0 0.545747,-0.86643 -0.01235,-0.86643"
       style="fill:#e7d97e;fill-opacity:1;fill-rule:nonzero;stroke:none;stroke-width:0.0352778"
       id="path1196" />
    <path
       d="m 63.770004,208.73133 c -0.207434,0 -0.402872,0.1905 -0.390525,0.40216 0.01305,0.21696 0.179916,0.39053 0.402166,0.39053 0.207434,0 0.403225,-0.1905 0.390173,-0.40181 -0.0127,-0.21732 -0.179564,-0.39088 -0.401814,-0.39088"
       style="fill:#e7d97e;fill-opacity:1;fill-rule:nonzero;stroke:none;stroke-width:0.0352778"
       id="path1198" />
    <path
       d="m 67.447712,208.18946 c -0.402519,0 -0.3937,0.62512 0.0092,0.62512 0.402519,0 0.393347,-0.62512 -0.0092,-0.62512"
       style="fill:#e7d97e;fill-opacity:1;fill-rule:nonzero;stroke:none;stroke-width:0.0352778"
       id="path1200" />
    <path
       d="m 69.009812,204.51457 c -0.602191,0 -0.588786,0.93522 0.01341,0.93522 0.602192,0 0.588786,-0.93522 -0.01341,-0.93522"
       style="fill:#e7d97e;fill-opacity:1;fill-rule:nonzero;stroke:none;stroke-width:0.0352778"
       id="path1202" />
    <path
       d="m 71.406938,206.89477 -0.02364,-0.0328 c -0.0769,-0.10901 -0.203552,-0.17145 -0.338313,-0.13194 -0.12065,0.0349 -0.221898,0.16051 -0.214489,0.29034 0.0074,0.11994 0.07479,0.22401 0.187325,0.26952 0.147461,0.0593 0.282222,-0.005 0.370064,-0.12736 l 0.02258,-0.0317 c 0.0448,-0.0621 0.04022,-0.17427 -0.0035,-0.236"
       style="fill:#e7d97e;fill-opacity:1;fill-rule:nonzero;stroke:none;stroke-width:0.0352778"
       id="path1204" />
    <path
       d="m 65.101387,206.10948 c -0.361244,0 -0.35313,0.56127 0.0085,0.56127 0.361244,0 0.35313,-0.56127 -0.0085,-0.56127"
       style="fill:#e7d97e;fill-opacity:1;fill-rule:nonzero;stroke:none;stroke-width:0.0352778"
       id="path1206" />
    <path
       d="m 73.815352,202.72811 c -0.02258,-0.0765 -0.06209,-0.14217 -0.118886,-0.19826 l -0.01446,-0.0169 c -0.0695,-0.084 -0.219075,-0.12982 -0.323145,-0.12841 -0.111125,0.002 -0.243417,0.0533 -0.319264,0.13794 -0.07796,0.0878 -0.135466,0.20214 -0.128411,0.32314 0.0071,0.11466 0.04586,0.24271 0.137936,0.31927 l 0.01693,0.0141 c 0.09384,0.078 0.196497,0.12947 0.321733,0.1277 0.110772,-0.001 0.242711,-0.0526 0.317853,-0.13687 0.07796,-0.0875 0.135114,-0.20144 0.127705,-0.32174 -0.006,-0.0402 -0.01164,-0.0801 -0.01799,-0.11994"
       style="fill:#e7d97e;fill-opacity:1;fill-rule:nonzero;stroke:none;stroke-width:0.0352778"
       id="path1208" />
    <path
       d="m 73.568407,206.62877 0.0071,0.0487 c 0.04233,0.28821 0.519289,0.42756 0.572205,0.0688 l 0.0067,-0.0462 c 0.06879,-0.46602 -0.643819,-0.46425 -0.585964,-0.0713"
       style="fill:#e7d97e;fill-opacity:1;fill-rule:nonzero;stroke:none;stroke-width:0.0352778"
       id="path1210" />
    <path
       d="m 46.796805,203.35641 c -0.481894,0 -0.470958,0.74824 0.01094,0.74824 0.481541,0 0.470958,-0.74824 -0.01094,-0.74824"
       style="fill:#e7d97e;fill-opacity:1;fill-rule:nonzero;stroke:none;stroke-width:0.0352778"
       id="path1212" />
    <path
       d="m 48.281294,205.78316 c -0.04868,-0.0801 -0.137936,-0.12947 -0.231422,-0.12805 -0.09384,0.001 -0.18168,0.0533 -0.227541,0.13511 -0.03457,0.0607 -0.03775,0.12065 -0.0247,0.18062 l 0.0025,0.0317 c 0.0095,0.13194 0.115005,0.25859 0.257175,0.25012 0.147108,-0.009 0.239536,-0.11536 0.249766,-0.25717 l 7.06e-4,-0.008 c 0.01799,-0.0684 0.01376,-0.13793 -0.02646,-0.20426"
       style="fill:#e7d97e;fill-opacity:1;fill-rule:nonzero;stroke:none;stroke-width:0.0352778"
       id="path1214" />
    <path
       d="m 46.042214,201.01537 c -0.06174,-0.0279 -0.116064,-0.0384 -0.182386,-0.0413 -0.132645,-0.006 -0.257528,0.12629 -0.249767,0.25717 0.0078,0.13406 0.115006,0.25612 0.257175,0.25012 0.06668,-0.003 0.119944,-0.0176 0.180975,-0.0452 0.162278,-0.0727 0.150989,-0.34996 -0.006,-0.42087"
       style="fill:#e7d97e;fill-opacity:1;fill-rule:nonzero;stroke:none;stroke-width:0.0352778"
       id="path1216" />
    <path
       d="m 52.897039,204.93015 c -0.570794,0 -0.558094,0.88617 0.0127,0.88617 0.570442,0 0.557742,-0.88617 -0.0127,-0.88617"
       style="fill:#e7d97e;fill-opacity:1;fill-rule:nonzero;stroke:none;stroke-width:0.0352778"
       id="path1218" />
    <path
       d="m 58.374973,204.48635 -0.05856,0.008 c -0.126647,0.0162 -0.229659,0.0889 -0.245534,0.22331 -0.01376,0.11183 0.06032,0.25929 0.185209,0.27552 l 0.0568,0.007 c 0.07373,0.01 0.134761,0.007 0.200731,-0.0293 0.07126,-0.0388 0.112536,-0.11466 0.122061,-0.19227 0.01658,-0.14005 -0.1016,-0.31221 -0.260703,-0.2921"
       style="fill:#e7d97e;fill-opacity:1;fill-rule:nonzero;stroke:none;stroke-width:0.0352778"
       id="path1220" />
    <path
       d="m 76.746935,186.85769 c 0.01446,-0.12911 -0.07867,-0.2607 -0.193322,-0.30691 -0.106186,-0.043 -0.211667,-0.0219 -0.29457,0.0409 -0.04868,0.0166 -0.09349,0.0416 -0.130175,0.0825 -0.06456,0.0723 -0.10548,0.16122 -0.103363,0.26 l 3.52e-4,0.0194 c 0.0056,0.25329 0.312914,0.46002 0.539045,0.29915 l 0.01517,-0.0109 c 0.128764,-0.0914 0.195086,-0.23742 0.166864,-0.38418"
       style="fill:#e7d97e;fill-opacity:1;fill-rule:nonzero;stroke:none;stroke-width:0.0352778"
       id="path1222" />
    <path
       d="m 52.286381,184.08133 c -0.06914,-0.0617 -0.153811,-0.10019 -0.248709,-0.0988 -0.08925,0.001 -0.183091,0.0416 -0.245533,0.10619 -0.09349,0.096 -0.108303,0.21484 -0.08502,0.34149 0.0134,0.0713 0.04904,0.14958 0.108302,0.19473 0.05891,0.0455 0.112184,0.078 0.188737,0.0871 0.06632,0.008 0.1524,3.5e-4 0.207786,-0.0416 0.08714,-0.0667 0.148872,-0.1404 0.169333,-0.25047 0.02222,-0.12065 0.0018,-0.25224 -0.0949,-0.33867"
       style="fill:#e7d97e;fill-opacity:1;fill-rule:nonzero;stroke:none;stroke-width:0.0352778"
       id="path1224" />
    <path
       d="m 57.746676,181.46196 c -0.573617,0 -0.56127,0.89076 0.0127,0.89076 0.573616,0 0.560916,-0.89076 -0.0127,-0.89076"
       style="fill:#e7d97e;fill-opacity:1;fill-rule:nonzero;stroke:none;stroke-width:0.0352778"
       id="path1226" />
    <path
       d="m 64.32069,183.51936 c -0.240947,0 -0.235656,0.37394 0.0056,0.37394 0.240948,0 0.235303,-0.37394 -0.0056,-0.37394"
       style="fill:#e7d97e;fill-opacity:1;fill-rule:nonzero;stroke:none;stroke-width:0.0352778"
       id="path1228" />
    <path
       d="m 69.794037,183.04663 c -0.447322,0 -0.437444,0.69392 0.0099,0.69392 0.446617,0 0.437092,-0.69392 -0.0099,-0.69392"
       style="fill:#e7d97e;fill-opacity:1;fill-rule:nonzero;stroke:none;stroke-width:0.0352778"
       id="path1230" />
    <path
       d="m 78.255413,189.31514 -0.01729,-0.008 c -0.06809,-0.0505 -0.141817,-0.091 -0.231422,-0.0857 -0.07937,0.005 -0.149578,0.0289 -0.21202,0.0783 -0.12453,0.0995 -0.191558,0.31644 -0.08431,0.45543 l 0.04939,0.0709 c 0.104775,0.21696 0.425097,0.22402 0.578556,0.066 0.156986,-0.16157 0.132997,-0.47237 -0.0829,-0.57644"
       style="fill:#e7d97e;fill-opacity:1;fill-rule:nonzero;stroke:none;stroke-width:0.0352778"
       id="path1232" />
    <path
       d="m 83.456769,186.90673 c -7.06e-4,-0.002 -0.0021,-0.004 -0.0032,-0.006 0.0014,0.002 0.0025,0.004 0.0032,0.006 m -0.0441,-0.0113 c 0.0067,-0.002 0.01341,-0.004 0.01905,-0.004 0.0035,0 0.0071,3.6e-4 0.0099,10e-4 l -0.02893,0.002"
       style="fill:#ddd5e5;fill-opacity:1;fill-rule:nonzero;stroke:none;stroke-width:0.0352778"
       id="path1234" />
    <path
       d="m 83.221113,192.9985 c -0.421569,-0.0367 -0.840669,-0.23143 -1.210028,-0.56762 -1.42628,-1.29823 -1.931105,-3.25967 -2.646891,-4.97981 -0.82162,-1.9738 -2.174875,-3.60963 -3.68547,-5.10258 -1.662289,-1.64183 -3.497439,-2.89666 -5.631745,-3.8541 -1.878189,-0.84243 -3.781425,-1.403 -5.80002,-1.58468 0.399345,0.024 0.799748,0.0639 1.254831,0.12347 0.444147,0.0579 1.074914,0.20638 1.515181,0.29598 0.485775,-1.43404 0.513291,-3.16582 0.547511,-4.7445 0.0014,-0.0642 0.03034,-0.0984 0.05821,-0.0984 0.02505,0 0.04974,0.0268 0.05433,0.0836 0.07902,0.94897 0.02399,1.79599 -0.03916,2.65465 -0.04304,0.58773 -0.211667,1.54341 -0.359128,2.16571 0.155928,0.0346 1.474611,0.37112 2.141008,0.60607 0.496006,0.17639 1.436159,0.56233 1.916289,0.78211 0.125942,-0.42157 0.357717,-1.20121 0.452614,-1.63795 0.143228,-0.6604 0.254353,-1.31445 0.293159,-1.98932 0.0028,-0.0476 0.02117,-0.0836 0.0381,-0.0836 0.01023,0 0.01976,0.013 0.0254,0.0445 0.118886,0.66816 -0.0448,1.38077 -0.176037,2.0387 -0.07479,0.37641 -0.288219,1.23684 -0.427566,1.69862 0.704144,0.33832 1.372305,0.67028 2.023886,1.10737 0.535164,0.36301 1.046692,0.75812 1.527881,1.19063 0.21978,-0.39441 0.539397,-1.06927 0.700264,-1.48731 0.275519,-0.71614 0.431094,-1.43616 0.607483,-2.17452 0.01129,-0.0483 0.04304,-0.0758 0.06914,-0.0758 0.02222,0 0.04022,0.0197 0.0381,0.0635 -0.03175,0.70908 -0.333375,1.651 -0.505883,2.22461 -0.09913,0.3295 -0.436033,1.16135 -0.735542,1.58151 0.505884,0.4706 1.356431,1.38077 1.906412,2.1216 0.337608,-0.34149 0.862541,-0.78775 1.188155,-1.14123 0.769761,-0.83644 1.085145,-1.32292 1.58362,-2.14419 l 0.03775,0.0176 c -0.242711,0.84984 -0.905228,1.68769 -1.438981,2.30893 -0.259997,0.30233 -0.811389,0.84349 -1.199444,1.15676 0.428272,0.61913 0.844197,1.3328 1.192741,1.99461 0.733426,-0.63677 3.381728,-2.17735 3.862565,-2.17735 0.0025,0 0.0049,0 0.0074,3.6e-4 0.05362,0.002 0.04445,0.0758 -0.0053,0.0995 -0.427214,0.2032 -0.693914,0.35172 -1.024114,0.53269 -0.493183,0.27023 -0.960966,0.59267 -1.443566,0.88124 -0.103012,0.0614 -0.8763,0.56339 -1.279525,0.83467 0.08643,0.16828 0.56268,1.00613 0.821266,1.6503 0.07479,0.18591 0.48895,1.10913 0.562328,1.2954 0.240242,-0.0843 0.528108,-0.20849 0.706261,-0.28222 0.447322,-0.18556 0.75177,-0.34714 1.092553,-0.53199 0.529872,-0.28716 1.072797,-0.66746 1.554692,-0.9899 0.0071,-0.005 0.01411,-0.008 0.02081,-0.0106 l 0.02893,-0.002 c 0.0049,0.001 0.0088,0.004 0.01199,0.007 0.0011,0.002 0.0025,0.004 0.0032,0.006 0.0039,0.0113 -7.06e-4,0.0282 -0.0194,0.0494 -0.1397,0.15945 -0.339725,0.30056 -0.544336,0.4505 -0.352425,0.25858 -0.715786,0.48436 -1.089025,0.71261 -0.27305,0.16651 -0.976136,0.49036 -1.670403,0.76447 0.145697,0.37006 0.333022,0.7821 0.486481,1.14617 0.157691,0.37783 0.357716,0.79587 0.549627,1.15323 0.109362,-0.0409 0.94862,-0.33514 1.223081,-0.45649 0.389467,-0.17251 0.843492,-0.41734 1.236486,-0.63712 0.02328,-0.0131 0.04233,-0.0187 0.05574,-0.0187 0.02258,0 0.02787,0.0166 0.0056,0.0399 -0.236009,0.24835 -1.033287,0.66886 -1.376892,0.81597 -0.2032,0.0868 -0.739422,0.31644 -1.038578,0.41628 0.09525,0.16334 0.217664,0.31715 0.328436,0.47061 0.19685,0.27234 0.427567,0.5207 0.698147,0.72178 0.268464,0.20426 0.579262,0.35489 0.91052,0.44803 l 0.0088,0.0152 m -25.15094,-15.54269 c 0,-3.5e-4 -3.53e-4,-7e-4 -3.53e-4,-0.001 0.0071,-0.002 0.01411,-0.004 0.02117,-0.005 -0.0071,0.002 -0.01411,0.004 -0.02081,0.006 m 1.256242,-0.30762 c -0.286456,-1.64183 -0.576792,-3.65548 -0.404989,-5.35093 0.08008,-0.79199 0.204258,-1.51307 0.425097,-2.27789 0.122767,-0.42474 0.330553,-1.07103 0.513292,-1.39841 0.02575,-0.0459 0.04974,-0.067 0.06668,-0.067 0.02469,0 0.03457,0.0455 0.01164,0.12559 -0.12453,0.43709 -0.275872,0.89041 -0.400755,1.32997 -0.221897,0.77964 -0.350661,1.57621 -0.391231,2.38549 -0.07796,1.55751 0.439209,4.77378 0.508353,5.19288 -0.109714,0.0187 -0.219075,0.0388 -0.328083,0.0603 m 3.599392,-0.30198 c -0.07338,-7e-4 -0.146756,-0.001 -0.220487,-0.001 -3.52e-4,0 -7.05e-4,0 -0.0011,0 -0.05468,-0.7373 -0.104069,-1.74837 -0.131233,-2.50049 -0.02928,-0.81597 0.132291,-1.96532 0.293511,-2.74743 0.0053,-0.0265 0.02293,-0.0395 0.03951,-0.0395 0.01976,0 0.03845,0.0183 0.03387,0.0543 -0.122061,0.92887 -0.224014,1.82387 -0.171098,2.73156 0.0441,0.7553 0.07691,1.76283 0.156987,2.50296"
       style="fill:#574475;fill-opacity:1;fill-rule:nonzero;stroke:none;stroke-width:0.0352778"
       id="path1236" />
    <path
       d="m 57.246789,177.73451 c -0.03316,-0.0635 0.09807,-0.0963 0.215195,-0.12665 0.217664,-0.0564 0.417689,-0.10689 0.607836,-0.15311 0,3.6e-4 3.53e-4,7.1e-4 3.53e-4,0.001 -0.277989,0.0829 -0.55245,0.17533 -0.823384,0.2787"
       style="fill:#574475;fill-opacity:1;fill-rule:nonzero;stroke:none;stroke-width:0.0352778"
       id="path1238" />
    <path
       d="m 83.204886,193.01614 c -0.3429,-0.0572 -0.680156,-0.17639 -0.98425,-0.35984 -0.303389,-0.18415 -0.571853,-0.42545 -0.805039,-0.6925 -0.466373,-0.53799 -0.805039,-1.1617 -1.124303,-1.78012 -0.618773,-1.24918 -1.159228,-2.5146 -1.813278,-3.71228 -0.65405,-1.19486 -1.39312,-2.33997 -2.27577,-3.35703 -0.867833,-1.02976 -1.884186,-1.91911 -2.999669,-2.65995 -0.559506,-0.36865 -1.141942,-0.70308 -1.746956,-0.99624 -0.605014,-0.29387 -1.228372,-0.55139 -1.862314,-0.78493 -0.634647,-0.22931 -1.21285,-0.46179 -1.865136,-0.63324 -0.651228,-0.16792 -1.355725,-0.369 -2.023534,-0.46919 -1.134533,-0.16828 -2.292703,-0.28469 -3.44805,-0.28469 -0.206022,0 -0.411692,0.004 -0.617008,0.0113 -0.679803,0.0208 -2.517776,0.18098 -3.031067,0.25647 -0.315736,0.0466 -1.234723,0.18274 -1.349728,0.18274 -0.0071,0 -0.01129,-7e-4 -0.01164,-0.002 -3.53e-4,0 -3.53e-4,-3.5e-4 -3.53e-4,-3.5e-4 0.270934,-0.10337 0.545395,-0.1958 0.823384,-0.2787 0.0067,-0.002 0.01376,-0.004 0.02081,-0.006 0.4318,-0.10477 0.813858,-0.18873 1.241072,-0.26952 -0.0021,-0.0106 -0.0039,-0.0212 -0.0056,-0.0317 0.109008,-0.0215 0.218369,-0.0416 0.328083,-0.0603 0.0049,0.0296 0.0074,0.0452 0.0074,0.0455 0.696384,-0.10512 2.676173,-0.23424 3.045884,-0.24412 -0.0014,-0.0148 -0.0025,-0.0296 -0.0035,-0.0445 3.53e-4,0 7.06e-4,0 0.0011,0 0.07373,0 0.147109,7.1e-4 0.220487,10e-4 0.0014,0.0127 0.0028,0.025 0.0042,0.0377 0.108655,-10e-4 0.213783,-0.002 0.316794,-0.002 0.352073,0 0.675923,0.008 1.000125,0.0279 2.018595,0.18168 3.921831,0.74225 5.80002,1.58468 2.134306,0.95744 3.969456,2.21227 5.631745,3.8541 1.510595,1.49295 2.86385,3.12878 3.68547,5.10258 0.715786,1.72014 1.220611,3.68158 2.646891,4.97981 0.369359,0.33619 0.788459,0.53093 1.210028,0.56762 l 0.0032,0.006 -0.0194,0.012"
       style="fill:#574475;fill-opacity:1;fill-rule:nonzero;stroke:none;stroke-width:0.0352778"
       id="path1240" />
    <path
       d="m 85.064025,192.97592 c -0.05574,0 -0.06526,-0.0822 -0.02258,-0.10972 0.529872,-0.33937 1.007533,-0.84666 1.480608,-1.25941 0.549275,-0.47907 1.056923,-0.98813 1.549048,-1.52436 0.721077,-0.78493 1.594555,-1.41428 2.521655,-1.93181 0.566209,-0.31609 1.17722,-0.69003 1.812925,-0.85019 0.01023,-0.002 0.02011,-0.004 0.02928,-0.004 0.110067,0 0.145697,0.16933 0.02646,0.20673 -1.729317,0.5468 -3.266369,1.77765 -4.523317,3.03812 -0.535516,0.53658 -1.110544,1.04458 -1.6764,1.5487 -0.2921,0.2607 -0.769055,0.83714 -1.190625,0.88476 -0.0025,3.6e-4 -0.0046,7.1e-4 -0.0071,7.1e-4"
       style="fill:#544272;fill-opacity:1;fill-rule:nonzero;stroke:none;stroke-width:0.0352778"
       id="path1242" />
    <path
       d="m 85.68068,194.07976 c -0.06244,0 -0.06456,-0.0945 -0.0088,-0.11395 1.325386,-0.46037 2.677936,-0.84772 3.999794,-1.32044 1.018117,-0.36442 2.027062,-0.78282 3.007784,-1.23861 0.358775,-0.16686 0.714375,-0.34254 1.065389,-0.52599 0.288219,-0.15099 0.590903,-0.38135 0.910167,-0.45332 0.0053,-0.001 0.01058,-0.002 0.01587,-0.002 0.05609,0 0.09208,0.0681 0.04904,0.11359 -0.482248,0.50906 -1.413581,0.82938 -2.043995,1.11513 -0.952853,0.43286 -1.929342,0.83326 -2.915356,1.18534 -0.760236,0.27093 -1.533525,0.50941 -2.302933,0.75282 -0.573617,0.18204 -1.167342,0.42757 -1.770592,0.48684 -0.0021,3.5e-4 -0.0042,3.5e-4 -0.0063,3.5e-4"
       style="fill:#544272;fill-opacity:1;fill-rule:nonzero;stroke:none;stroke-width:0.0352778"
       id="path1244" />
    <path
       d="m 83.294491,196.97712 c -0.0028,-0.004 -0.0053,-0.007 -0.0074,-0.0113 0.0035,0.003 0.006,0.007 0.0074,0.0113"
       style="fill:#d9cfe1;fill-opacity:1;fill-rule:nonzero;stroke:none;stroke-width:0.0352778"
       id="path1246" />
    <path
       d="m 77.13993,197.51723 c -0.05221,0 -0.04304,-0.043 0.0014,-0.0593 1.24848,-0.45261 2.151944,-0.72707 3.119261,-0.80645 0.314325,-0.0254 0.613128,-0.0437 0.913342,-0.0437 0.640997,0 1.288344,0.0829 2.10573,0.35383 0.0028,0.001 0.0053,0.002 0.0074,0.004 0.0021,0.004 0.0046,0.008 0.0074,0.0113 0.0056,0.0183 -0.006,0.0444 -0.02646,0.0444 -0.0014,0 -0.0028,0 -0.0046,-3.5e-4 -0.889,-0.16016 -1.527175,-0.23953 -2.221795,-0.23953 -0.230717,0 -0.467783,0.009 -0.722489,0.0261 -1.086203,0.0751 -3.13055,0.70097 -3.13055,0.70097 -0.01976,0.006 -0.03598,0.008 -0.04868,0.008"
       style="fill:#544272;fill-opacity:1;fill-rule:nonzero;stroke:none;stroke-width:0.0352778"
       id="path1248" />
    <path
       d="m 83.045783,206.35713 c -0.0081,0 -0.01623,-3.5e-4 -0.02469,-3.5e-4 0.01834,-0.0187 0.03104,-0.042 0.03704,-0.067 0.0025,0.002 0.0049,0.003 0.0074,0.005 0.04233,0.0272 0.03422,0.0624 -0.01834,0.0624 -3.53e-4,0 -7.06e-4,0 -0.0014,0"
       style="fill:#d9cfe1;fill-opacity:1;fill-rule:nonzero;stroke:none;stroke-width:0.0352778"
       id="path1250" />
    <path
       d="m 83.021088,206.35678 c -0.476602,-0.0134 -1.029405,-0.40569 -1.425222,-0.62512 -0.806097,-0.44662 -1.577975,-0.97825 -2.248606,-1.61255 -0.673452,-0.63712 -1.20403,-1.39559 -1.62948,-2.21791 -0.345017,-0.66711 -0.608189,-1.4598 -0.714023,-2.21263 0,-0.036 0.01729,-0.055 0.03598,-0.055 0.01658,0 0.03422,0.0152 0.04198,0.0466 0.413456,1.69192 1.172634,3.17923 2.4892,4.35892 0.651228,0.58279 1.358195,1.10102 2.121253,1.52859 0.439914,0.24624 0.943328,0.45261 1.365956,0.72213 -0.006,0.025 -0.0187,0.0483 -0.03704,0.067"
       style="fill:#544272;fill-opacity:1;fill-rule:nonzero;stroke:none;stroke-width:0.0352778"
       id="path1252" />
    <path
       d="m 85.027336,202.1051 c -0.0099,0 -0.02117,-3.5e-4 -0.03316,-0.001 -0.652639,-0.0547 -1.196623,-0.21343 -1.724378,-0.39229 -0.566209,-0.19226 -1.1303,-0.40111 -1.683809,-0.62618 -1.199444,-0.4886 -2.280708,-1.1938 -3.271308,-2.02071 l 0.03598,-0.0469 c 1.133122,0.68792 2.253545,1.4217 3.496028,1.89936 0.523875,0.20143 1.063272,0.43497 1.596672,0.61101 0.514703,0.17039 1.064331,0.32985 1.572684,0.50623 0.09807,0.0339 0.09807,0.0709 0.01129,0.0709"
       style="fill:#544272;fill-opacity:1;fill-rule:nonzero;stroke:none;stroke-width:0.0352778"
       id="path1254" />
    <path
       d="m 75.681546,206.43227 c -7.05e-4,0 -0.0018,0 -0.0025,-3.5e-4 0.0011,-7e-4 0.0018,-0.001 0.0028,-0.001 7.06e-4,0 0.0018,3.6e-4 0.0025,7.1e-4 -0.0011,7e-4 -0.0018,7e-4 -0.0028,7e-4"
       style="fill:#d9cfe1;fill-opacity:1;fill-rule:nonzero;stroke:none;stroke-width:0.0352778"
       id="path1256" />
    <path
       d="m 75.679077,206.43192 c -0.0074,-0.003 -0.01764,-0.0159 -0.02752,-0.0346 -0.371122,-0.7299 -0.611011,-1.52647 -0.698853,-2.13854 -0.123472,-0.8636 -0.03528,-1.99954 0.147109,-2.88114 l 0.05997,0.0162 c 0.0014,1.0414 -0.112889,1.94945 0.0448,2.95028 0.104775,0.66605 0.31503,1.47638 0.472722,2.02036 0.0127,0.0427 0.0127,0.0628 0.0071,0.067 -7.05e-4,-3.5e-4 -0.0018,-7.1e-4 -0.0025,-7.1e-4 -0.0011,0 -0.0018,3.6e-4 -0.0028,0.001"
       style="fill:#544272;fill-opacity:1;fill-rule:nonzero;stroke:none;stroke-width:0.0352778"
       id="path1258" />
    <path
       d="m 65.958284,191.44592 c 0.100895,0.66005 0.614187,1.49296 1.481314,1.48943 0.960262,-0.004 1.469673,-0.79728 1.575506,-1.53564 0.0254,-0.17745 -0.292805,-0.17533 -0.318558,0 -0.08749,0.58808 -0.530931,1.30175 -1.323975,1.2513 -0.714023,-0.0455 -0.946856,-0.75142 -1.147587,-1.23649 -0.04763,-0.11571 -0.288219,-0.11006 -0.2667,0.0314"
       style="fill:#333f48;fill-opacity:1;fill-rule:nonzero;stroke:none;stroke-width:0.0352778"
       id="path1260" />
  </g>
</svg>
