<?xml version="1.0" encoding="UTF-8" standalone="no"?>
<svg
   xmlns="http://www.w3.org/2000/svg"
   width="210mm"
   height="297mm"
   viewBox="0 0 210 297"
   version="1.1"
   id="svg7318"
>
  <defs
     id="defs7312" />
  <sodipodi:namedview
     id="base"
     pagecolor="#ffffff"
     bordercolor="#666666"
     borderopacity="1.0"
     showgrid="false" />
  <metadata
     id="metadata7315">
    <rdf:RDF>
      <cc:Work>
        <dc:format>image/svg+xml</dc:format>
        <dc:type />
        <dc:title></dc:title>
      </cc:Work>
    </rdf:RDF>
  </metadata>
  <g
     id="layer1">
    <path
       d="m 97.626422,124.16168 c 0,0 -3.263194,2.02847 -4.409722,4.7625 -1.146528,2.73403 -1.5875,6.43819 -2.204861,7.14375 -0.617362,0.70556 -3.645253,0.38206 -7.173031,-0.41169 -3.527778,-0.79375 -5.703359,0.0589 -6.497109,0.2353 -0.79375,0.17639 0.08819,3.2632 1.852083,5.46806 1.763889,2.20486 6.261806,2.99861 7.143751,2.91041 0.881944,-0.0882 -2.734028,2.20486 -3.351389,4.32153 -0.617362,2.11667 -1.499306,7.58472 -0.79375,8.20209 0.705555,0.61736 6.879167,-1.85209 8.466667,-3.52778 1.5875,-1.6757 3.704167,-3.35139 4.497917,-3.52778 0.79375,-0.17639 -0.08819,3.70417 3.086805,5.64444 3.174997,1.94028 4.693007,1.3201 6.790977,2.99862 1.10243,0.88194 1.85208,-1.49931 0.79375,-5.37987 -1.05834,-3.88055 -1.5875,-5.90902 -1.14653,-6.2618 0.44097,-0.35278 4.85069,-0.44097 6.52639,-1.94028 1.67569,-1.49931 3.0868,-3.175 3.70416,-3.88056 0.61737,-0.70555 -4.49791,-3.43958 -7.23194,-2.99861 -2.73403,0.44098 -6.70278,0.70556 -7.05556,0.61736 -0.35277,-0.0882 -0.17639,-6.17361 -0.52916,-8.11389 -0.352781,-1.94027 -0.881948,-5.82083 -2.469448,-6.2618"
       style="fill:#eb2430;fill-opacity:1;fill-rule:nonzero;stroke:none;stroke-width:0.0352778"
       id="path50" />
    <path
       d="m 98.719328,139.79185 c -0.529872,-0.13935 -1.1176,-0.0998 -1.60655,0.10372 -0.652992,0.27199 -1.150056,0.8389 -1.229784,1.55399 -0.224013,2.00095 2.020006,3.46992 3.579284,1.95862 0.446969,-0.43286 0.714022,-1.04599 0.726722,-1.66829 0.008,-0.40922 -0.0931,-0.8255 -0.320675,-1.16593 -0.269522,-0.40287 -0.687211,-0.6604 -1.148997,-0.78211"
       style="fill:#ffffff;fill-opacity:1;fill-rule:nonzero;stroke:none;stroke-width:0.0352778"
       id="path52" />
    <path
       d="m 97.09655,141.30703 c 0.135114,0.70979 0.841022,1.2506 1.563511,1.23896 0.624064,-0.0106 1.252009,-0.44662 1.518709,-1.022 -0.0254,-0.33761 -0.12277,-0.66957 -0.310445,-0.95003 -0.269522,-0.40287 -0.687211,-0.6604 -1.148997,-0.78211 -0.195439,-0.0512 -0.398286,-0.0702 -0.601133,-0.0737 -0.658637,0.2353 -1.172634,0.79516 -1.021645,1.58891"
       style="fill:#333f48;fill-opacity:1;fill-rule:nonzero;stroke:none;stroke-width:0.0352778"
       id="path54" />
    <path
       d="m 97.542108,140.62547 c -0.315383,0 -0.611716,0.29174 -0.591961,0.61277 0.02081,0.33055 0.275167,0.59161 0.612775,0.59161 0.315384,0 0.611717,-0.29175 0.591961,-0.61313 -0.02081,-0.33055 -0.275166,-0.59125 -0.612775,-0.59125"
       style="fill:#ffffff;fill-opacity:1;fill-rule:nonzero;stroke:none;stroke-width:0.0352778"
       id="path56" />
    <path
       d="m 93.045603,139.76257 c -0.529873,-0.13935 -1.117953,-0.0998 -1.606903,0.10372 -0.652639,0.27199 -1.149703,0.83855 -1.229784,1.55398 -0.224014,2.00061 2.020006,3.46993 3.579637,1.95863 0.446969,-0.43286 0.713669,-1.04634 0.726722,-1.66864 0.0081,-0.40922 -0.09313,-0.8255 -0.320675,-1.16558 -0.269522,-0.40287 -0.687211,-0.66075 -1.148997,-0.78211"
       style="fill:#ffffff;fill-opacity:1;fill-rule:nonzero;stroke:none;stroke-width:0.0352778"
       id="path58" />
    <path
       d="m 91.422825,141.27775 c 0.134761,0.70979 0.841022,1.2506 1.563511,1.23861 0.624064,-0.0102 1.252008,-0.44627 1.518708,-1.022 -0.0254,-0.33726 -0.122766,-0.66922 -0.310444,-0.94968 -0.269522,-0.40287 -0.687211,-0.66075 -1.148997,-0.78211 -0.195439,-0.0512 -0.398287,-0.0705 -0.601487,-0.0741 -0.658283,0.2353 -1.17228,0.79551 -1.021291,1.58926"
       style="fill:#333f48;fill-opacity:1;fill-rule:nonzero;stroke:none;stroke-width:0.0352778"
       id="path60" />
    <path
       d="m 91.86803,140.59583 c -0.31503,0 -0.611716,0.29175 -0.591608,0.61278 0.02081,0.33055 0.275167,0.59196 0.612775,0.59196 0.315383,0 0.611717,-0.29175 0.591961,-0.61313 -0.02081,-0.33055 -0.275167,-0.59161 -0.613128,-0.59161"
       style="fill:#ffffff;fill-opacity:1;fill-rule:nonzero;stroke:none;stroke-width:0.0352778"
       id="path62" />
    <path
       d="m 78.167904,136.60062 -0.03316,0.0572 c -0.05292,0.0889 -0.03034,0.20708 0.04092,0.2787 0.02893,0.0289 0.06068,0.0522 0.102658,0.0571 0.09278,0.0113 0.216253,-0.0102 0.258586,-0.11042 l 0.0254,-0.061 c 0.110067,-0.26247 -0.242358,-0.47766 -0.394406,-0.22155"
       style="fill:#f46e6e;fill-opacity:1;fill-rule:nonzero;stroke:none;stroke-width:0.0352778"
       id="path64" />
    <path
       d="m 80.306796,136.36285 c -0.301625,0 -0.293158,0.46814 0.0085,0.46814 0.301625,0 0.293511,-0.46814 -0.0085,-0.46814"
       style="fill:#f46e6e;fill-opacity:1;fill-rule:nonzero;stroke:none;stroke-width:0.0352778"
       id="path66" />
    <path
       d="m 80.540688,137.92072 c -0.41522,0 -0.404283,0.64488 0.01129,0.64488 0.415219,0 0.40393,-0.64488 -0.01129,-0.64488"
       style="fill:#f46e6e;fill-opacity:1;fill-rule:nonzero;stroke:none;stroke-width:0.0352778"
       id="path68" />
    <path
       d="m 78.723529,137.89567 -0.05574,-0.0106 c -0.393348,-0.0748 -0.400756,0.55598 0.0085,0.47872 l 0.05539,-0.0109 c 0.229659,-0.0437 0.214842,-0.41487 -0.0081,-0.4572"
       style="fill:#f46e6e;fill-opacity:1;fill-rule:nonzero;stroke:none;stroke-width:0.0352778"
       id="path70" />
    <path
       d="m 79.424499,139.7534 c -0.32632,0 -0.3175,0.50694 0.0092,0.50694 0.32632,0 0.3175,-0.50694 -0.0092,-0.50694"
       style="fill:#f46e6e;fill-opacity:1;fill-rule:nonzero;stroke:none;stroke-width:0.0352778"
       id="path72" />
    <path
       d="m 82.566338,136.86309 -0.02893,-0.0289 c -0.09278,-0.0942 -0.252236,-0.0861 -0.3429,0.006 l -0.02999,0.0303 c -0.174272,0.17639 -0.03422,0.48507 0.20955,0.48083 0.249061,-0.004 0.363714,-0.31432 0.192264,-0.48789"
       style="fill:#f46e6e;fill-opacity:1;fill-rule:nonzero;stroke:none;stroke-width:0.0352778"
       id="path74" />
    <path
       d="m 82.128894,138.91661 c -0.343959,0 -0.334787,0.53481 0.0095,0.53481 0.344311,0 0.334786,-0.53481 -0.0095,-0.53481"
       style="fill:#f46e6e;fill-opacity:1;fill-rule:nonzero;stroke:none;stroke-width:0.0352778"
       id="path76" />
    <path
       d="m 82.250955,140.57749 7.05e-4,0.0353 -7.05e-4,-0.0353"
       style="fill:#f46e6e;fill-opacity:1;fill-rule:nonzero;stroke:none;stroke-width:0.0352778"
       id="path78" />
    <path
       d="m 84.95041,139.57242 c -0.408164,0 -0.397227,0.63395 0.01129,0.63395 0.407811,0 0.396875,-0.63395 -0.01129,-0.63395"
       style="fill:#f46e6e;fill-opacity:1;fill-rule:nonzero;stroke:none;stroke-width:0.0352778"
       id="path80" />
    <path
       d="m 84.537308,136.37943 c -0.507295,0 -0.493537,0.78776 0.01376,0.78776 0.507647,0 0.493889,-0.78776 -0.01376,-0.78776"
       style="fill:#f46e6e;fill-opacity:1;fill-rule:nonzero;stroke:none;stroke-width:0.0352778"
       id="path82" />
    <path
       d="m 80.700496,140.57996 c -0.278694,0.29668 0.257175,0.68121 0.438856,0.32667 0.138994,-0.27164 -0.216606,-0.56268 -0.438856,-0.32667"
       style="fill:#f46e6e;fill-opacity:1;fill-rule:nonzero;stroke:none;stroke-width:0.0352778"
       id="path84" />
    <path
       d="m 83.53436,140.24376 c -0.235655,-0.17886 -0.500591,-0.0579 -0.577497,0.22049 -0.04974,0.17991 0.103717,0.40111 0.301625,0.38206 0.157339,-0.0152 0.249414,-0.0713 0.334081,-0.20497 0.06985,-0.11077 0.05186,-0.31397 -0.05821,-0.39758"
       style="fill:#f46e6e;fill-opacity:1;fill-rule:nonzero;stroke:none;stroke-width:0.0352778"
       id="path86" />
    <path
       d="m 83.774249,138.03855 c -0.415219,0 -0.40393,0.64452 0.01164,0.64452 0.414867,0 0.40393,-0.64452 -0.01164,-0.64452"
       style="fill:#f46e6e;fill-opacity:1;fill-rule:nonzero;stroke:none;stroke-width:0.0352778"
       id="path88" />
    <path
       d="m 82.06751,141.76635 c -0.535869,0 -0.521405,0.8322 0.01482,0.8322 0.535869,0 0.521053,-0.8322 -0.01482,-0.8322"
       style="fill:#f46e6e;fill-opacity:1;fill-rule:nonzero;stroke:none;stroke-width:0.0352778"
       id="path90" />
    <path
       d="m 85.302835,141.8997 c -0.440266,0 -0.428272,0.68333 0.01199,0.68333 0.439914,0 0.427919,-0.68333 -0.01199,-0.68333"
       style="fill:#f46e6e;fill-opacity:1;fill-rule:nonzero;stroke:none;stroke-width:0.0352778"
       id="path92" />
    <path
       d="m 86.848355,137.41977 -0.0063,-0.0141 c -0.120297,-0.25576 -0.510822,-0.15698 -0.572558,0.085 -0.06703,0.26141 0.233539,0.49354 0.46743,0.34608 l 0.01164,-0.007 c 0.147108,-0.0931 0.169686,-0.26176 0.09984,-0.40993"
       style="fill:#f46e6e;fill-opacity:1;fill-rule:nonzero;stroke:none;stroke-width:0.0352778"
       id="path94" />
    <path
       d="m 86.59753,140.15416 c -0.340783,0 -0.331258,0.52916 0.0095,0.52916 0.340431,0 0.331258,-0.52916 -0.0095,-0.52916"
       style="fill:#f46e6e;fill-opacity:1;fill-rule:nonzero;stroke:none;stroke-width:0.0352778"
       id="path96" />
    <path
       d="m 92.123441,135.03711 c -0.418747,0 -0.407458,0.65017 0.01129,0.65017 0.418748,0 0.407459,-0.65017 -0.01129,-0.65017"
       style="fill:#f46e6e;fill-opacity:1;fill-rule:nonzero;stroke:none;stroke-width:0.0352778"
       id="path98" />
    <path
       d="m 94.240108,132.03568 c -0.422275,0 -0.410986,0.65546 0.01164,0.65546 0.421922,0 0.410633,-0.65546 -0.01164,-0.65546"
       style="fill:#f46e6e;fill-opacity:1;fill-rule:nonzero;stroke:none;stroke-width:0.0352778"
       id="path100" />
    <path
       d="m 94.476469,134.515 c -0.333727,0 -0.324555,0.51823 0.0092,0.51823 0.333375,0 0.324555,-0.51823 -0.0092,-0.51823"
       style="fill:#f46e6e;fill-opacity:1;fill-rule:nonzero;stroke:none;stroke-width:0.0352778"
       id="path102" />
    <path
       d="m 97.12195,133.84649 c -0.362303,0 -0.352425,0.56197 0.0099,0.56197 0.36195,0 0.352072,-0.56197 -0.0099,-0.56197"
       style="fill:#f46e6e;fill-opacity:1;fill-rule:nonzero;stroke:none;stroke-width:0.0352778"
       id="path104" />
    <path
       d="m 97.239072,130.88174 c -0.394053,0 -0.383469,0.61172 0.01058,0.61172 0.394052,0 0.383469,-0.61172 -0.01058,-0.61172"
       style="fill:#f46e6e;fill-opacity:1;fill-rule:nonzero;stroke:none;stroke-width:0.0352778"
       id="path106" />
    <path
       d="m 94.122633,129.51543 c -0.411691,0 -0.400403,0.63959 0.01129,0.63959 0.411692,0 0.400403,-0.63959 -0.01129,-0.63959"
       style="fill:#f46e6e;fill-opacity:1;fill-rule:nonzero;stroke:none;stroke-width:0.0352778"
       id="path108" />
    <path
       d="m 95.7694,131.59824 c -0.379942,0 -0.369711,0.58984 0.01023,0.58984 0.379588,0 0.369358,-0.58984 -0.01023,-0.58984"
       style="fill:#f46e6e;fill-opacity:1;fill-rule:nonzero;stroke:none;stroke-width:0.0352778"
       id="path110" />
    <path
       d="m 95.942614,127.18851 c -0.606778,0 -0.59055,0.94262 0.01658,0.94262 0.606778,0 0.590198,-0.94262 -0.01658,-0.94262"
       style="fill:#f46e6e;fill-opacity:1;fill-rule:nonzero;stroke:none;stroke-width:0.0352778"
       id="path112" />
    <path
       d="m 98.140067,125.65181 -0.03598,-0.018 c -0.40005,-0.20637 -0.783166,0.2219 -0.584905,0.60607 l 0.01834,0.036 c 0.134056,0.25964 0.515761,0.27481 0.705556,0.0783 0.19438,-0.20143 0.155222,-0.56903 -0.103011,-0.70238"
       style="fill:#f46e6e;fill-opacity:1;fill-rule:nonzero;stroke:none;stroke-width:0.0352778"
       id="path114" />
    <path
       d="m 98.473442,127.93076 c -0.407811,0 -0.396875,0.63394 0.01129,0.63394 0.408164,0 0.397228,-0.63394 -0.01129,-0.63394"
       style="fill:#f46e6e;fill-opacity:1;fill-rule:nonzero;stroke:none;stroke-width:0.0352778"
       id="path116" />
    <path
       d="m 97.004475,129.15066 c -0.351367,0 -0.341842,0.54575 0.0095,0.54575 0.351367,0 0.341842,-0.54575 -0.0095,-0.54575"
       style="fill:#f46e6e;fill-opacity:1;fill-rule:nonzero;stroke:none;stroke-width:0.0352778"
       id="path118" />
    <path
       d="m 98.940872,130.1649 c -0.2667,0 -0.489302,0.23883 -0.484716,0.502 0.0049,0.27164 0.234597,0.48472 0.502003,0.48472 0.2667,0 0.489302,-0.23883 0.484363,-0.502 -0.0046,-0.27094 -0.234244,-0.48472 -0.50165,-0.48472"
       style="fill:#f46e6e;fill-opacity:1;fill-rule:nonzero;stroke:none;stroke-width:0.0352778"
       id="path120" />
    <path
       d="m 99.061522,133.46337 c -0.400755,0 -0.390172,0.62265 0.01094,0.62265 0.401108,0 0.390172,-0.62265 -0.01094,-0.62265"
       style="fill:#f46e6e;fill-opacity:1;fill-rule:nonzero;stroke:none;stroke-width:0.0352778"
       id="path122" />
    <path
       d="m 96.238947,135.2583 c -0.436386,0 -0.424744,0.67804 0.01199,0.67804 0.436386,0 0.424391,-0.67804 -0.01199,-0.67804"
       style="fill:#f46e6e;fill-opacity:1;fill-rule:nonzero;stroke:none;stroke-width:0.0352778"
       id="path124" />
    <path
       d="m 99.000845,136.42141 c -0.528462,0 -0.51435,0.82127 0.01446,0.82127 0.528813,0 0.514702,-0.82127 -0.01446,-0.82127"
       style="fill:#f46e6e;fill-opacity:1;fill-rule:nonzero;stroke:none;stroke-width:0.0352778"
       id="path126" />
    <path
       d="m 93.060772,133.06932 c -0.277283,0 -0.537633,0.25612 -0.519994,0.53798 0.01799,0.29069 0.241652,0.52 0.538338,0.52 0.276931,0 0.537281,-0.25647 0.519642,-0.53834 -0.01799,-0.29069 -0.241653,-0.51964 -0.537986,-0.51964"
       style="fill:#f46e6e;fill-opacity:1;fill-rule:nonzero;stroke:none;stroke-width:0.0352778"
       id="path128" />
    <path
       d="m 103.11388,139.42814 c -0.30304,0 -0.58773,0.28046 -0.56868,0.58914 0.0198,0.3175 0.26423,0.56832 0.58879,0.56832 0.30304,0 0.58808,-0.28046 0.56868,-0.58878 -0.0198,-0.31786 -0.26423,-0.56868 -0.58879,-0.56868"
       style="fill:#f46e6e;fill-opacity:1;fill-rule:nonzero;stroke:none;stroke-width:0.0352778"
       id="path130" />
    <path
       d="m 109.63992,139.29126 c -0.31327,0 -0.60749,0.28998 -0.58738,0.60854 0.0205,0.32879 0.27305,0.58773 0.60819,0.58773 0.31327,0 0.60748,-0.28963 0.58773,-0.60889 -0.0205,-0.32809 -0.27305,-0.58738 -0.60854,-0.58738"
       style="fill:#f46e6e;fill-opacity:1;fill-rule:nonzero;stroke:none;stroke-width:0.0352778"
       id="path132" />
    <path
       d="m 108.46481,144.21286 c -0.71719,0 -0.69744,1.11337 0.0194,1.11337 0.71684,0 0.69744,-1.11337 -0.0194,-1.11337"
       style="fill:#f46e6e;fill-opacity:1;fill-rule:nonzero;stroke:none;stroke-width:0.0352778"
       id="path134" />
    <path
       d="m 99.5794,151.28571 c -0.287514,0 -0.558094,0.26634 -0.53975,0.55915 0.01905,0.30198 0.250825,0.5401 0.559153,0.5401 0.287514,0 0.557737,-0.26599 0.539747,-0.55915 -0.019,-0.30163 -0.250822,-0.5401 -0.55915,-0.5401"
       style="fill:#f46e6e;fill-opacity:1;fill-rule:nonzero;stroke:none;stroke-width:0.0352778"
       id="path136" />
    <path
       d="m 103.72524,155.92826 0.0226,0.007 c -0.15169,-0.0748 -0.33796,-0.0586 -0.45826,0.0674 l -0.0776,0.0713 c -0.22013,0.18979 -0.17392,0.56091 0.0131,0.74965 l 0.0342,0.0339 c 0.21096,0.21272 0.64417,0.17603 0.77716,-0.11395 l 0.0194,-0.042 c 0.15451,-0.33761 0.006,-0.64453 -0.33056,-0.77294"
       style="fill:#f46e6e;fill-opacity:1;fill-rule:nonzero;stroke:none;stroke-width:0.0352778"
       id="path138" />
    <path
       d="m 103.993,150.07391 -0.006,-0.0201 c -0.0649,-0.21202 -0.25365,-0.33232 -0.46743,-0.34255 l -0.0222,-0.001 c -0.4833,-0.0236 -0.65581,0.64841 -0.29139,0.91052 0.37606,0.27058 0.92922,-0.0801 0.78669,-0.54681"
       style="fill:#f46e6e;fill-opacity:1;fill-rule:nonzero;stroke:none;stroke-width:0.0352778"
       id="path140" />
    <path
       d="m 84.65196,151.84803 c -0.295627,0 -0.573616,0.27411 -0.554919,0.57503 0.0194,0.31009 0.25788,0.55457 0.574675,0.55457 0.295981,0 0.573969,-0.2734 0.555272,-0.57468 -0.0194,-0.30974 -0.25788,-0.55492 -0.575028,-0.55492"
       style="fill:#f46e6e;fill-opacity:1;fill-rule:nonzero;stroke:none;stroke-width:0.0352778"
       id="path142" />
    <path
       d="m 86.180899,146.38562 c -0.720372,0 -0.700969,1.11901 0.0194,1.11901 0.720725,0 0.70097,-1.11901 -0.0194,-1.11901"
       style="fill:#f46e6e;fill-opacity:1;fill-rule:nonzero;stroke:none;stroke-width:0.0352778"
       id="path144" />
    <path
       d="m 90.296758,148.5104 c -0.288572,0 -0.559858,0.26706 -0.541514,0.56092 0.01905,0.30268 0.251531,0.54151 0.560917,0.54151 0.288572,0 0.559858,-0.2674 0.541161,-0.56091 -0.0187,-0.30269 -0.251531,-0.54152 -0.560564,-0.54152"
       style="fill:#f46e6e;fill-opacity:1;fill-rule:nonzero;stroke:none;stroke-width:0.0352778"
       id="path146" />
    <path
       d="m 86.945369,152.03007 c -0.292806,0 -0.568325,0.27093 -0.549628,0.56903 0.01905,0.30727 0.255411,0.54998 0.569031,0.54998 0.292805,0 0.568325,-0.27129 0.549627,-0.56974 -0.01905,-0.30727 -0.255411,-0.54927 -0.56903,-0.54927"
       style="fill:#f46e6e;fill-opacity:1;fill-rule:nonzero;stroke:none;stroke-width:0.0352778"
       id="path148" />
    <path
       d="m 82.365255,155.60582 c -0.280459,0 -0.27305,0.43498 0.0074,0.43498 0.280458,0 0.272697,-0.43498 -0.0074,-0.43498"
       style="fill:#f46e6e;fill-opacity:1;fill-rule:nonzero;stroke:none;stroke-width:0.0352778"
       id="path150" />
    <path
       d="m 83.657833,150.51312 c -0.32632,0 -0.3175,0.50694 0.0092,0.50694 0.326319,0 0.3175,-0.50694 -0.0092,-0.50694"
       style="fill:#f46e6e;fill-opacity:1;fill-rule:nonzero;stroke:none;stroke-width:0.0352778"
       id="path152" />
    <path
       d="m 84.067408,154.44342 c -0.489656,0 -0.476603,0.76059 0.01341,0.76059 0.489656,0 0.47625,-0.76059 -0.01341,-0.76059"
       style="fill:#f46e6e;fill-opacity:1;fill-rule:nonzero;stroke:none;stroke-width:0.0352778"
       id="path154" />
    <path
       d="m 85.948066,149.17751 c -0.531989,0 -0.517878,0.82691 0.01446,0.82691 0.532694,0 0.51823,-0.82691 -0.01446,-0.82691"
       style="fill:#f46e6e;fill-opacity:1;fill-rule:nonzero;stroke:none;stroke-width:0.0352778"
       id="path156" />
    <path
       d="m 84.266374,147.28274 c -0.03351,-0.20144 -0.315383,-0.23672 -0.439561,-0.10795 -0.127705,0.13193 -0.0762,0.40287 0.12312,0.43532 l 0.03563,0.006 c 0.191206,0.0314 0.317853,-0.11218 0.286808,-0.29739 l -0.006,-0.036"
       style="fill:#f46e6e;fill-opacity:1;fill-rule:nonzero;stroke:none;stroke-width:0.0352778"
       id="path158" />
    <path
       d="m 89.596141,151.15447 c -0.333375,0 -0.324555,0.51788 0.0092,0.51788 0.333728,0 0.324556,-0.51788 -0.0092,-0.51788"
       style="fill:#f46e6e;fill-opacity:1;fill-rule:nonzero;stroke:none;stroke-width:0.0352778"
       id="path160" />
    <path
       d="m 85.538138,154.67202 c -0.422275,0 -0.410986,0.65581 0.01164,0.65581 0.422275,0 0.410986,-0.65581 -0.01164,-0.65581"
       style="fill:#f46e6e;fill-opacity:1;fill-rule:nonzero;stroke:none;stroke-width:0.0352778"
       id="path162" />
    <path
       d="m 88.066144,148.36717 c -0.439914,0 -0.428272,0.68334 0.01199,0.68334 0.440267,0 0.42792,-0.68334 -0.01199,-0.68334"
       style="fill:#f46e6e;fill-opacity:1;fill-rule:nonzero;stroke:none;stroke-width:0.0352778"
       id="path164" />
    <path
       d="m 92.45858,150.87543 c -0.205316,-0.33726 -0.677686,-0.15734 -0.700264,0.2032 -0.0085,0.13828 0.06244,0.26775 0.192617,0.32243 0.157339,0.066 0.329142,0.0649 0.456495,-0.067 0.116416,-0.12065 0.138288,-0.31539 0.05115,-0.45861"
       style="fill:#f46e6e;fill-opacity:1;fill-rule:nonzero;stroke:none;stroke-width:0.0352778"
       id="path166" />
    <path
       d="m 88.302152,153.2408 c -0.372533,0 -0.362655,0.57856 0.01023,0.57856 0.372533,0 0.362655,-0.57856 -0.01023,-0.57856"
       style="fill:#f46e6e;fill-opacity:1;fill-rule:nonzero;stroke:none;stroke-width:0.0352778"
       id="path168" />
    <path
       d="m 100.97181,148.90551 c -0.44732,0 -0.43497,0.69427 0.0123,0.69427 0.44697,0 0.43498,-0.69427 -0.0123,-0.69427"
       style="fill:#f46e6e;fill-opacity:1;fill-rule:nonzero;stroke:none;stroke-width:0.0352778"
       id="path170" />
    <path
       d="m 97.412992,149.85837 c -0.564092,0 -0.548923,0.8763 0.01552,0.8763 0.564444,0 0.548922,-0.8763 -0.01552,-0.8763"
       style="fill:#f46e6e;fill-opacity:1;fill-rule:nonzero;stroke:none;stroke-width:0.0352778"
       id="path172" />
    <path
       d="m 98.943695,153.67331 c -0.496712,0 -0.483306,0.77152 0.0134,0.77152 0.497064,0 0.483659,-0.77152 -0.0134,-0.77152"
       style="fill:#f46e6e;fill-opacity:1;fill-rule:nonzero;stroke:none;stroke-width:0.0352778"
       id="path174" />
    <path
       d="m 103.67586,153.89979 c -0.48966,0 -0.47661,0.76024 0.0134,0.76024 0.48966,0 0.4766,-0.76024 -0.0134,-0.76024"
       style="fill:#f46e6e;fill-opacity:1;fill-rule:nonzero;stroke:none;stroke-width:0.0352778"
       id="path176" />
    <path
       d="m 101.95959,151.56405 c -0.0353,-0.0734 -0.10301,-0.12841 -0.19261,-0.12489 l -0.13018,0.009 c -0.0395,0.0109 -0.079,0.0296 -0.11148,0.0547 -0.24165,0.18451 -0.20531,0.60255 0.14006,0.63747 0.28398,0.0286 0.54221,-0.3623 0.29421,-0.57608"
       style="fill:#f46e6e;fill-opacity:1;fill-rule:nonzero;stroke:none;stroke-width:0.0352778"
       id="path178" />
    <path
       d="m 100.17771,149.36624 0.002,3.5e-4 -0.002,-3.5e-4"
       style="fill:#f46e6e;fill-opacity:1;fill-rule:nonzero;stroke:none;stroke-width:0.0352778"
       id="path180" />
    <path
       d="m 103.69173,152.1927 c -0.39723,0 -0.38664,0.61736 0.0109,0.61736 0.39758,0 0.38664,-0.61736 -0.0109,-0.61736"
       style="fill:#f46e6e;fill-opacity:1;fill-rule:nonzero;stroke:none;stroke-width:0.0352778"
       id="path182" />
    <path
       d="m 101.48158,155.08865 c -0.036,-0.12241 -0.21414,-0.28046 -0.3549,-0.2226 -0.15663,0.0642 -0.27552,0.17074 -0.24729,0.35736 0.0282,0.18239 0.21237,0.3041 0.39193,0.25083 0.16122,-0.0473 0.25753,-0.22402 0.21026,-0.38559"
       style="fill:#f46e6e;fill-opacity:1;fill-rule:nonzero;stroke:none;stroke-width:0.0352778"
       id="path184" />
    <path
       d="m 105.21009,157.63465 0.007,0.002 -0.007,-0.002"
       style="fill:#f46e6e;fill-opacity:1;fill-rule:nonzero;stroke:none;stroke-width:0.0352778"
       id="path186" />
    <path
       d="m 105.22173,157.0448 0.006,7.1e-4 c -0.0335,-0.0572 -0.0709,-0.1076 -0.12524,-0.1464 l -0.11324,-0.0582 c -0.11677,-0.0497 -0.2921,-0.0568 -0.37853,0.0589 -0.0522,0.0699 -0.0878,0.12771 -0.11395,0.21132 -0.0384,0.12311 0.006,0.29245 0.10654,0.37606 l 0.0353,0.0296 c 0.20355,0.16863 0.51047,0.12594 0.61454,-0.13335 0.0501,-0.12524 0.0303,-0.24518 -0.0318,-0.33867"
       style="fill:#f46e6e;fill-opacity:1;fill-rule:nonzero;stroke:none;stroke-width:0.0352778"
       id="path188" />
    <path
       d="m 105.36249,154.34076 -0.0328,-0.0254 c -0.096,-0.0741 -0.25083,-0.12523 -0.36125,-0.0399 l -0.0243,0.0187 c -0.23918,0.1838 -0.20461,0.59867 0.139,0.63359 0.28927,0.0293 0.55174,-0.37712 0.2794,-0.58702"
       style="fill:#f46e6e;fill-opacity:1;fill-rule:nonzero;stroke:none;stroke-width:0.0352778"
       id="path190" />
    <path
       d="m 103.17844,147.34906 c -0.31221,0 -0.30374,0.48507 0.009,0.48507 0.31221,0 0.30339,-0.48507 -0.009,-0.48507"
       style="fill:#f46e6e;fill-opacity:1;fill-rule:nonzero;stroke:none;stroke-width:0.0352778"
       id="path192" />
    <path
       d="m 105.35085,143.88302 c -0.53587,0 -0.52141,0.8322 0.0148,0.8322 0.53587,0 0.52105,-0.8322 -0.0148,-0.8322"
       style="fill:#f46e6e;fill-opacity:1;fill-rule:nonzero;stroke:none;stroke-width:0.0352778"
       id="path194" />
    <path
       d="m 105.70433,139.09194 c -0.49707,0 -0.48331,0.77153 0.0134,0.77153 0.49707,0 0.48366,-0.77153 -0.0134,-0.77153"
       style="fill:#f46e6e;fill-opacity:1;fill-rule:nonzero;stroke:none;stroke-width:0.0352778"
       id="path196" />
    <path
       d="m 103.78804,141.95226 c -0.0942,0.002 -0.16334,0.0261 -0.24377,0.0734 -0.40958,0.24095 0.10477,0.84208 0.39264,0.49107 0.0586,-0.0713 0.10301,-0.13159 0.11959,-0.22437 0.0307,-0.17145 -0.0811,-0.3436 -0.26846,-0.34008"
       style="fill:#f46e6e;fill-opacity:1;fill-rule:nonzero;stroke:none;stroke-width:0.0352778"
       id="path198" />
    <path
       d="m 107.87003,141.32361 -0.008,-0.048 c -0.0328,-0.2092 -0.2988,-0.25471 -0.45261,-0.17498 l -0.0494,0.0261 c -0.25012,0.13018 -0.19368,0.51753 0.0519,0.61137 0.28539,0.10901 0.50023,-0.14394 0.4579,-0.41452"
       style="fill:#f46e6e;fill-opacity:1;fill-rule:nonzero;stroke:none;stroke-width:0.0352778"
       id="path200" />
    <path
       d="m 109.46071,138.42449 c -0.33832,-0.32668 -0.79234,0.29703 -0.37818,0.50905 0.31644,0.16228 0.6477,-0.24906 0.37818,-0.50905"
       style="fill:#f46e6e;fill-opacity:1;fill-rule:nonzero;stroke:none;stroke-width:0.0352778"
       id="path202" />
    <path
       d="m 112.70026,141.11406 c -0.54292,0 -0.5281,0.84314 0.0148,0.84314 0.54328,0 0.52846,-0.84314 -0.0148,-0.84314"
       style="fill:#f46e6e;fill-opacity:1;fill-rule:nonzero;stroke:none;stroke-width:0.0352778"
       id="path204" />
    <path
       d="m 109.95283,143.2011 c -0.0134,0.43709 0.67663,0.43321 0.66922,-0.002 -0.007,-0.42757 -0.65581,-0.4184 -0.66922,0.002"
       style="fill:#f46e6e;fill-opacity:1;fill-rule:nonzero;stroke:none;stroke-width:0.0352778"
       id="path206" />
    <path
       d="m 112.34749,140.06843 c -0.0374,-0.097 -0.1143,-0.16051 -0.22084,-0.16192 -0.0487,-0.001 -0.0952,0.008 -0.14252,0.0198 -0.2413,0.0589 -0.28681,0.39758 -0.0945,0.53587 0.18309,0.13194 0.51576,0.0113 0.48613,-0.248 -0.006,-0.0501 -0.01,-0.0991 -0.0282,-0.1457"
       style="fill:#f46e6e;fill-opacity:1;fill-rule:nonzero;stroke:none;stroke-width:0.0352778"
       id="path208" />
    <path
       d="m 108.52479,142.62713 c -0.63888,0 -0.6216,0.99201 0.0173,0.99201 0.63853,0 0.6216,-0.99201 -0.0173,-0.99201"
       style="fill:#f46e6e;fill-opacity:1;fill-rule:nonzero;stroke:none;stroke-width:0.0352778"
       id="path210" />
    <path
       d="m 105.58862,141.67992 c -0.34396,0 -0.33479,0.53481 0.01,0.53481 0.34431,0 0.33479,-0.53481 -0.01,-0.53481"
       style="fill:#f46e6e;fill-opacity:1;fill-rule:nonzero;stroke:none;stroke-width:0.0352778"
       id="path212" />
    <path
       d="m 110.46859,141.25482 c -0.36195,0 -0.35207,0.56198 0.01,0.56198 0.36195,0 0.35207,-0.56198 -0.01,-0.56198"
       style="fill:#f46e6e;fill-opacity:1;fill-rule:nonzero;stroke:none;stroke-width:0.0352778"
       id="path214" />
    <path
       d="m 85.326472,139.2641 c -0.46602,-0.26141 -0.954264,0.27763 -0.702381,0.72778 0.08749,0.15557 0.2159,0.23459 0.394758,0.248 l 0.06103,0.003 c 0.522817,0.004 0.690386,-0.72919 0.246592,-0.9786"
       style="fill:#f46e6e;fill-opacity:1;fill-rule:nonzero;stroke:none;stroke-width:0.0352778"
       id="path216" />
    <path
       d="m 80.769993,140.11535 c -0.343252,0 -0.666044,0.31821 -0.644525,0.66746 0.02258,0.36018 0.299509,0.64452 0.667456,0.64452 0.343253,0 0.666045,-0.31785 0.644172,-0.6671 -0.02222,-0.36054 -0.299155,-0.64488 -0.667103,-0.64488"
       style="fill:#f46e6e;fill-opacity:1;fill-rule:nonzero;stroke:none;stroke-width:0.0352778"
       id="path218" />
    <path
       d="m 90.487258,144.14019 c 0.618419,0.58279 1.356783,1.0354 2.138539,1.34726 0.785636,0.30621 1.622072,0.47272 2.464506,0.47872 0.835378,0.0141 1.671461,-0.16686 2.469092,-0.4572 0.796572,-0.28998 1.568802,-0.68545 2.27965,-1.15746 l 0.0049,-0.003 c 0.04269,-0.0282 0.100541,-0.0166 0.128763,0.0265 0.02646,0.0395 0.01834,0.0917 -0.01693,0.12171 -0.674158,0.57608 -1.439333,1.02552 -2.258131,1.36913 -0.818797,0.34325 -1.709208,0.53693 -2.613378,0.54328 -0.893938,-0.0254 -1.789641,-0.2025 -2.608086,-0.56621 -0.813153,-0.36971 -1.559983,-0.889 -2.130072,-1.57551 -0.03351,-0.0402 -0.02787,-0.10019 0.01235,-0.1337 0.0374,-0.031 0.09172,-0.0286 0.125942,0.004 l 0.0028,0.002"
       style="fill:#ffffff;fill-opacity:1;fill-rule:nonzero;stroke:none;stroke-width:0.0352778"
       id="path220" />
  </g>
</svg>
