<?xml version="1.0" encoding="UTF-8" standalone="no"?>
<svg
   xmlns="http://www.w3.org/2000/svg"
   width="210mm"
   height="297mm"
   viewBox="0 0 210 297"
   version="1.1"
   id="svg3922"
>
  <defs
     id="defs3916" />
  <sodipodi:namedview
     id="base"
     pagecolor="#ffffff"
     bordercolor="#666666"
     borderopacity="1.0"
     showgrid="false"/>
  <metadata
     id="metadata3919">
    <rdf:RDF>
      <cc:Work>
        <dc:format>image/svg+xml</dc:format>
        <dc:type />
        <dc:title></dc:title>
      </cc:Work>
    </rdf:RDF>
  </metadata>
  <g
     id="layer1">
    <path
       d="m 103.0322,92.104773 c 0,0 2.98944,-1.292225 5.93972,-1.093259 2.95063,0.198614 3.30835,1.034345 3.30835,1.034345 0,0 -1.62207,0.757767 -2.42711,1.52012 -0.80434,0.762352 -6.82096,-1.461206 -6.82096,-1.461206"
       style="fill:#a4b121;fill-opacity:1;fill-rule:nonzero;stroke:none;stroke-width:0.0352778"
       id="path992" />
    <path
       d="m 104.16955,104.40543 c 0,0 1.87749,1.25942 3.83152,1.3589 -0.22965,-0.76235 -0.0381,-1.42522 -0.0381,-1.42522 l -3.79342,0.0663"
       style="fill:#a4b121;fill-opacity:1;fill-rule:nonzero;stroke:none;stroke-width:0.0352778"
       id="path994" />
    <path
       d="m 108.37184,92.627942 c -3.93417,-1.016353 -7.61294,-1.158522 -9.350019,0.874184 -1.737078,2.032705 -2.65677,6.020153 -2.810228,6.285089 -0.153459,0.265285 1.532819,4.463695 5.569307,4.993925 4.03613,0.53022 9.20926,-0.29845 12.58146,-1.80093 3.37221,-1.50248 5.09623,-2.94993 5.05813,-3.944059 -0.0649,-1.689453 -6.28685,-5.17772 -11.04865,-6.408209"
       style="fill:#725b94;fill-opacity:1;fill-rule:nonzero;stroke:none;stroke-width:0.0352778"
       id="path996" />
    <path
       d="m 99.566862,95.214509 c 0.832558,-0.813153 2.366438,-0.34925 2.579868,0.824442 0.12135,0.668161 -0.27305,1.394883 -0.89994,1.656997 -0.74295,0.310797 -1.700389,-0.100894 -2.011186,-0.839964 -0.208844,-0.498122 -0.119239,-1.108428 0.224367,-1.525058 0.03387,-0.04127 0.06985,-0.08008 0.106891,-0.116417"
       style="fill:#ffffff;fill-opacity:1;fill-rule:nonzero;stroke:none;stroke-width:0.0352778"
       id="path998" />
    <path
       d="m 100.97092,94.97074 c 0.16721,0 0.31362,0.0321 0.43991,0.08749 -0.0815,0.0074 -0.16475,0.0314 -0.24871,0.07549 -0.13158,0.06985 -0.24059,0.222956 -0.27975,0.363714 -0.008,0.0314 -0.0138,0.06703 -0.0169,0.104069 -0.0438,0.243417 0.0974,0.512939 0.29704,0.64135 0.12911,0.08361 0.32314,0.1016 0.46884,0.06174 0.16298,-0.04516 0.26811,-0.148167 0.36406,-0.279753 l 0.003,-0.0053 c 0.007,0.536928 -0.33479,1.079147 -1.02729,1.079147 -1.369133,0 -1.371249,-2.127955 0,-2.127955"
       style="fill:#333f48;fill-opacity:1;fill-rule:nonzero;stroke:none;stroke-width:0.0352778"
       id="path1000" />
    <path
       d="m 96.211593,99.787215 c 0.01199,-0.02046 0.02752,-0.06668 0.04586,-0.130881 0.46743,0.02505 0.936625,0.04233 1.406172,0.02117 0.481542,-0.01411 0.962731,-0.05503 1.440745,-0.116064 0.95426,-0.121355 1.9043,-0.321028 2.806,-0.617008 l 0.004,-0.0011 0.0759,0.02858 -0.0321,0.06703 c -0.90699,0.327025 -1.8535,0.553509 -2.819051,0.704145 -0.482247,0.07585 -0.970139,0.130528 -1.4605,0.15875 -0.487539,0.03528 -0.977194,0.03104 -1.467203,0.01799 -0.01058,-0.06491 -0.01129,-0.11183 7.06e-4,-0.132644"
       style="fill:#a4b121;fill-opacity:1;fill-rule:nonzero;stroke:none;stroke-width:0.0352778"
       id="path1002" />
    <path
       d="m 102.62545,103.76514 c 0.14463,-0.23354 0.28575,-0.50694 0.44132,-0.80116 0.31045,-0.58879 0.60255,-1.30316 0.80222,-2.09021 0.21907,-0.78175 0.34784,-1.635477 0.39934,-2.493433 0.005,-0.214842 0.0106,-0.429683 0.0159,-0.643819 -10e-4,-0.215548 -0.002,-0.430389 -0.003,-0.643467 -0.0116,-0.42545 -0.0289,-0.844197 -0.0804,-1.244953 -0.079,-0.804686 -0.23707,-1.542697 -0.42298,-2.167467 -0.19791,-0.620183 -0.40252,-1.13665 -0.5842,-1.485194 -0.0621,-0.126295 -0.11501,-0.232834 -0.15981,-0.3175 0.0759,-0.0011 0.15134,-0.0035 0.22825,-0.0032 0.0508,0.0568 0.10759,0.121003 0.17109,0.193675 0.25683,0.319264 0.62089,0.792691 0.92287,1.426986 0.30304,0.630767 0.56409,1.408994 0.69674,2.258836 0.0705,0.424392 0.10583,0.865364 0.13476,1.312686 0.0102,0.224014 0.0141,0.448734 0.0141,0.67557 -0.0106,0.227894 -0.0212,0.456494 -0.0318,0.685447 -0.0642,0.9144 -0.26353,1.822103 -0.55774,2.639493 -0.31503,0.8128 -0.71544,1.53035 -1.11407,2.1089 -0.19156,0.29387 -0.41417,0.53622 -0.60255,0.75212 -0.19191,0.21485 -0.36936,0.393 -0.51858,0.53658 -0.17075,0.15522 -0.30233,0.26776 -0.38771,0.33867 l -0.0653,-0.007 c 0.0628,-0.0829 0.17039,-0.22966 0.30868,-0.43356 0.11607,-0.16228 0.25153,-0.36231 0.393,-0.59796"
       style="fill:#a4b121;fill-opacity:1;fill-rule:nonzero;stroke:none;stroke-width:0.0352778"
       id="path1004" />
    <path
       d="m 119.14568,98.727118 c 0,0 -0.043,-0.04198 -0.12347,-0.121003 -0.0864,-0.07444 -0.21414,-0.18415 -0.3863,-0.314678 -0.34995,-0.257175 -0.85301,-0.6223 -1.49965,-1.022703 -0.64171,-0.40393 -1.4097,-0.858308 -2.25814,-1.321505 -0.42686,-0.229659 -0.86959,-0.464256 -1.33173,-0.699206 -0.47131,-0.239536 -0.95991,-0.446264 -1.4545,-0.656872 -0.98708,-0.420864 -2.02142,-0.783872 -3.01167,-1.085145 -0.99907,-0.287161 -1.95333,-0.510116 -2.77989,-0.668514 -0.41239,-0.08255 -0.79974,-0.128411 -1.13912,-0.176036 -0.34113,-0.04269 -0.63817,-0.07585 -0.88265,-0.100541 -0.49106,-0.03986 -0.76905,-0.06667 -0.76905,-0.06667 l -0.006,0.0085 10e-4,0.0092 c 0,0 0.26987,0.06632 0.74083,0.174978 0.23601,0.05151 0.52105,0.117122 0.8449,0.196145 0.3242,0.07867 0.68298,0.182386 1.07668,0.284339 0.78564,0.209197 1.6831,0.48895 2.61267,0.832908 0.93769,0.330553 1.91382,0.718256 2.86914,1.132417 0.4692,0.214489 0.95603,0.421569 1.40159,0.636411 0.45649,0.218017 0.90523,0.441678 1.33668,0.660047 0.871,0.430036 1.68416,0.831145 2.3823,1.175809 0.69568,0.346075 1.29188,0.620183 1.68734,0.830791 0.20391,0.100189 0.35489,0.185209 0.45861,0.243417 0.0995,0.05997 0.15275,0.09207 0.15275,0.09207 l 0.0501,-0.01517 0.0279,-0.02893"
       style="fill:#a4b121;fill-opacity:1;fill-rule:nonzero;stroke:none;stroke-width:0.0352778"
       id="path1006" />
    <path
       d="m 119.12239,99.436554 c 0,0 -0.0586,0.02681 -0.16898,0.07655 -0.10971,0.04939 -0.27093,0.122061 -0.47625,0.214489 -0.4071,0.186619 -1.0033,0.435687 -1.71344,0.732367 -0.71508,0.29175 -1.54905,0.62689 -2.46521,0.95144 -0.45085,0.17216 -0.93063,0.32879 -1.41852,0.48684 -0.48507,0.16228 -0.99377,0.29845 -1.49013,0.45755 -1.01636,0.27093 -2.03941,0.53411 -3.02613,0.71014 -0.49107,0.0931 -0.96555,0.1972 -1.42593,0.24942 -0.22966,0.0318 -0.45261,0.0628 -0.66886,0.0924 -0.10795,0.0145 -0.21449,0.0314 -0.31927,0.0427 -0.10513,0.008 -0.20849,0.0166 -0.30974,0.0247 -0.40499,0.0289 -0.77717,0.0759 -1.10913,0.1069 -0.33126,0.0201 -0.62195,0.0258 -0.86148,0.0367 -0.48296,0.0258 -0.75848,0.0406 -0.75848,0.0406 l -0.005,0.009 0.002,0.009 c 0,0 0.2727,0.025 0.75001,0.0691 0.24024,0.0166 0.53234,0.0441 0.86959,0.0621 0.33726,0.001 0.72038,0.0155 1.13912,0.008 0.10478,-0.001 0.21167,-0.002 0.32068,-0.003 0.10901,-0.004 0.21907,-0.0138 0.33161,-0.0208 0.22542,-0.0152 0.45826,-0.031 0.69779,-0.0473 0.48296,-0.0212 0.98143,-0.0935 1.50284,-0.15487 1.03716,-0.14111 2.12019,-0.37465 3.17994,-0.65052 0.5207,-0.15275 1.05057,-0.29457 1.54657,-0.47202 0.49848,-0.17392 0.98743,-0.34642 1.44534,-0.5334 0.92321,-0.36477 1.73496,-0.76305 2.40629,-1.12324 0.67522,-0.35736 1.18604,-0.70062 1.54764,-0.933454 0.17392,-0.122414 0.31044,-0.218722 0.40322,-0.284339 0.0903,-0.06738 0.13829,-0.103011 0.13829,-0.103011 l -0.0226,-0.03422 -0.042,-0.01976"
       style="fill:#a4b121;fill-opacity:1;fill-rule:nonzero;stroke:none;stroke-width:0.0352778"
       id="path1008" />
    <path
       d="m 119.20177,99.029448 c 0,0 -0.0501,-0.02364 -0.14393,-0.06809 -0.0949,-0.04339 -0.23425,-0.106539 -0.4117,-0.187325 -0.35842,-0.15628 -0.8763,-0.375708 -1.52294,-0.599722 -0.64558,-0.225072 -1.41323,-0.466372 -2.25531,-0.684036 -0.42086,-0.109361 -0.85936,-0.214136 -1.30598,-0.3175 -0.44521,-0.10795 -0.90629,-0.194734 -1.36631,-0.284339 -0.92181,-0.17392 -1.85138,-0.324909 -2.7312,-0.436386 -0.88265,-0.101953 -1.70956,-0.178859 -2.42182,-0.227189 -0.3549,-0.02963 -0.68545,-0.02963 -0.97614,-0.03634 -0.29034,-0.0088 -0.54575,-7.06e-4 -0.75389,-7.06e-4 -0.20849,0.0035 -0.37359,0.02081 -0.48471,0.02575 -0.11113,0.0071 -0.17004,0.01058 -0.17004,0.01058 l -0.003,0.0095 0.003,0.0092 c 0,0 0.0586,0.0067 0.16898,0.01905 0.10971,0.01482 0.27023,0.02646 0.47307,0.05891 0.2032,0.02858 0.44909,0.05539 0.7292,0.103364 0.2794,0.04621 0.59549,0.09843 0.93839,0.155222 0.68826,0.106539 1.48625,0.251178 2.33362,0.424039 0.85337,0.153106 1.75401,0.343606 2.65853,0.5207 0.44733,0.100895 0.90065,0.18662 1.34232,0.282223 0.4438,0.09066 0.87948,0.182386 1.29787,0.279047 0.84067,0.184855 1.6256,0.357717 2.30011,0.505883 0.66887,0.157692 1.24355,0.266348 1.63231,0.367595 0.19861,0.04445 0.35419,0.07902 0.46072,0.103011 0.10725,0.02258 0.16475,0.03493 0.16475,0.03493 l 0.0339,-0.0314 0.0102,-0.03598"
       style="fill:#a4b121;fill-opacity:1;fill-rule:nonzero;stroke:none;stroke-width:0.0352778"
       id="path1010" />
    <path
       d="m 119.08641,99.154684 c 0,0 -0.0568,0.0085 -0.16404,0.02364 -0.10513,0.01588 -0.25965,0.03916 -0.45614,0.06879 -0.19721,0.02858 -0.43921,0.05715 -0.71261,0.09278 -0.27623,0.0314 -0.58844,0.06491 -0.92499,0.107244 -0.68015,0.07161 -1.46932,0.15875 -2.32022,0.239536 -0.42333,0.04657 -0.8636,0.08467 -1.31057,0.125942 -0.44697,0.04057 -0.90099,0.08184 -1.35502,0.123119 -0.90946,0.07621 -1.81927,0.155225 -2.67405,0.214845 -0.42722,0.0384 -0.84032,0.0645 -1.23331,0.0952 -0.39159,0.0226 -0.76412,0.0487 -1.10631,0.0642 -0.34149,0.0102 -0.65935,0.0434 -0.93769,0.0508 -0.27904,0.0106 -0.52458,0.025 -0.72496,0.0282 -0.40428,0.0127 -0.63535,0.0198 -0.63535,0.0198 l -0.005,0.007 7.1e-4,0.007 c 0,0 0.22436,0.0233 0.61665,0.0642 0.19826,0.018 0.44097,0.0289 0.72002,0.0473 0.2794,0.0176 0.59514,0.0314 0.94262,0.0377 0.34678,0.006 0.7232,0.004 1.12184,0.006 0.39828,-0.006 0.81985,-0.006 1.25518,-0.0169 0.87136,-0.0286 1.80093,-0.0773 2.72768,-0.14993 0.4639,-0.0339 0.9271,-0.0755 1.38148,-0.12312 0.45367,-0.0512 0.90064,-0.0984 1.33138,-0.15452 0.86148,-0.1076 1.6577,-0.243768 2.33151,-0.372885 0.3369,-0.06703 0.64241,-0.134408 0.90981,-0.198614 0.26423,-0.06844 0.4953,-0.128411 0.6851,-0.177447 0.18344,-0.05715 0.32773,-0.101953 0.4258,-0.132645 0.0967,-0.0314 0.14817,-0.04798 0.14817,-0.04798 l -0.008,-0.02787 -0.0293,-0.02117"
       style="fill:#a4b121;fill-opacity:1;fill-rule:nonzero;stroke:none;stroke-width:0.0352778"
       id="path1012" />
    <path
       d="m 118.94812,99.070371 c 0,0 0.95744,-3.77437 4.457,-4.939948 3.4992,-1.165578 0.5528,3.330222 -0.84702,4.162778 -1.40018,0.832908 -3.60998,0.77717 -3.60998,0.77717"
       style="fill:#a4b121;fill-opacity:1;fill-rule:nonzero;stroke:none;stroke-width:0.0352778"
       id="path1014" />
    <path
       d="m 118.94812,98.946546 c 0,0 0.95744,3.774374 4.457,4.939944 3.4992,1.16558 0.5528,-3.33022 -0.84702,-4.162775 -1.40018,-0.832556 -3.60998,-0.777169 -3.60998,-0.777169"
       style="fill:#a4b121;fill-opacity:1;fill-rule:nonzero;stroke:none;stroke-width:0.0352778"
       id="path1016" />
    <path
       d="m 147.24513,110.33139 c 0,0 -3.00143,-1.99566 -5.24227,-1.11195 -2.2405,0.88406 -0.0515,0.19367 1.70356,1.42381 1.75542,1.23013 3.53871,-0.31186 3.53871,-0.31186"
       style="fill:#ca314c;fill-opacity:1;fill-rule:nonzero;stroke:none;stroke-width:0.0352778"
       id="path2866" />
    <path
       d="m 148.34439,116.14729 c 0,0 -0.50871,1.49295 -2.73967,2.4324 -2.23097,0.9398 -2.99861,0.4639 -2.99861,0.4639 0,0 2.11702,-1.59138 2.11702,-2.07962 0,-0.48825 3.62126,-0.81668 3.62126,-0.81668"
       style="fill:#ca314c;fill-opacity:1;fill-rule:nonzero;stroke:none;stroke-width:0.0352778"
       id="path2868" />
    <path
       d="m 137.99883,114.74111 c 0,0 0.79975,-2.56399 3.10303,-3.88479 2.30294,-1.32115 4.70712,-1.85208 6.09777,-1.25095 1.39065,0.60149 1.91276,1.90571 2.34279,2.8956 0.43039,0.98955 0.69603,1.45733 0.69603,1.45733 0,0 -0.46601,1.95474 -1.76671,2.91677 -1.30069,0.96202 -3.69711,1.74872 -6.24416,0.83537 -2.54706,-0.91334 -4.08552,-2.14947 -4.22875,-2.96933"
       style="fill:#fbc53b;fill-opacity:1;fill-rule:nonzero;stroke:none;stroke-width:0.0352778"
       id="path2870" />
    <path
       d="m 148.67142,111.88397 c -0.0363,-0.0332 -0.0737,-0.0642 -0.1136,-0.0931 -0.93839,-0.69532 -2.33115,-0.066 -2.42782,1.09855 -0.049,0.59232 0.28399,1.19909 0.81033,1.47532 0.93663,0.49142 2.11985,-0.1457 2.22674,-1.19521 0.0483,-0.47414 -0.14429,-0.96485 -0.49565,-1.28552"
       style="fill:#ffffff;fill-opacity:1;fill-rule:nonzero;stroke:none;stroke-width:0.0352778"
       id="path2872" />
    <path
       d="m 147.53194,112.15031 c -0.14746,0.18063 -0.24341,0.46179 -0.20919,0.69603 0.0758,0.51718 0.50976,0.89359 1.04034,0.84949 0.23989,-0.0201 0.48859,-0.15875 0.64029,-0.34431 0.0716,-0.0878 0.13053,-0.19967 0.16933,-0.3182 0.002,-0.41699 -0.17356,-0.8315 -0.47343,-1.12078 -0.15486,-0.0815 -0.33443,-0.12241 -0.52705,-0.10654 -0.24024,0.0201 -0.48895,0.1591 -0.64029,0.34431"
       style="fill:#333f48;fill-opacity:1;fill-rule:nonzero;stroke:none;stroke-width:0.0352778"
       id="path2874" />
    <path
       d="m 147.53723,112.21134 c -0.26705,0.0607 -0.43603,0.35031 -0.37147,0.61278 0.0663,0.27058 0.34466,0.4318 0.61242,0.37112 0.26705,-0.0603 0.43604,-0.34995 0.37112,-0.61242 -0.066,-0.27058 -0.34431,-0.43215 -0.61207,-0.37148"
       style="fill:#ffffff;fill-opacity:1;fill-rule:nonzero;stroke:none;stroke-width:0.0352778"
       id="path2876" />
    <path
       d="m 145.81427,109.36196 c -0.14711,7e-4 -0.2981,0.007 -0.45297,0.0198 -0.78034,3.11997 -0.1524,6.01628 1.77871,8.22466 0.14287,-0.0579 0.28187,-0.11853 0.41416,-0.18273 -2.47509,-2.70863 -2.31175,-5.88081 -1.7399,-8.06168"
       style="fill:#ca314c;fill-opacity:1;fill-rule:nonzero;stroke:none;stroke-width:0.0352778"
       id="path2878" />
    <path
       d="m 144.26416,109.56339 c -0.16016,0.0381 -0.32208,0.0808 -0.48613,0.12912 -0.84172,3.16583 -0.23812,6.11223 1.70216,8.35625 0.17004,-0.0233 0.33619,-0.0536 0.49953,-0.0882 -2.63948,-2.83845 -2.34879,-6.19971 -1.71556,-8.39717"
       style="fill:#ca314c;fill-opacity:1;fill-rule:nonzero;stroke:none;stroke-width:0.0352778"
       id="path2880" />
    <path
       d="m 142.61951,110.10702 c -0.16898,0.0706 -0.33902,0.1457 -0.50941,0.22578 -0.72108,2.87302 -0.24765,5.55731 1.33738,7.68985 0.2025,0.0328 0.40358,0.0589 0.60149,0.0734 -2.28777,-2.73473 -2.02495,-5.8801 -1.42946,-7.98901"
       style="fill:#ca314c;fill-opacity:1;fill-rule:nonzero;stroke:none;stroke-width:0.0352778"
       id="path2882" />
    <path
       d="m 140.88773,110.98509 c -0.18627,0.11783 -0.3616,0.24412 -0.52776,0.37606 -0.42404,2.12302 -0.18803,4.12856 0.67592,5.86564 0.19791,0.09 0.40358,0.1785 0.61842,0.26458 -1.34373,-2.27859 -1.20897,-4.70218 -0.76658,-6.50628"
       style="fill:#ca314c;fill-opacity:1;fill-rule:nonzero;stroke:none;stroke-width:0.0352778"
       id="path2884" />
    <path
       d="m 139.02083,112.78637 c -0.19192,0.26917 -0.35349,0.53128 -0.48754,0.77188 -0.024,0.77576 0.0437,1.52859 0.20461,2.25037 0.15593,0.14005 0.3362,0.28257 0.53693,0.4258 -0.34961,-1.19803 -0.37995,-2.38301 -0.254,-3.44805"
       style="fill:#ca314c;fill-opacity:1;fill-rule:nonzero;stroke:none;stroke-width:0.0352778"
       id="path2886" />
    <path
       d="m 138.15229,114.76969 c 0,0 -1.58891,-2.9277 -3.69782,-2.01507 0.61383,2.42923 3.69782,2.01507 3.69782,2.01507"
       style="fill:#ca314c;fill-opacity:1;fill-rule:nonzero;stroke:none;stroke-width:0.0352778"
       id="path2888" />
    <path
       d="m 138.14841,114.75875 c 0,0 -3.04871,1.34232 -2.31246,3.51931 2.47156,-0.41169 2.31246,-3.51931 2.31246,-3.51931"
       style="fill:#ca314c;fill-opacity:1;fill-rule:nonzero;stroke:none;stroke-width:0.0352778"
       id="path2890" />
  </g>
</svg>
