<?xml version="1.0" encoding="UTF-8" standalone="no"?>
<svg
   xmlns:dc="http://purl.org/dc/elements/1.1/"
   xmlns:cc="http://creativecommons.org/ns#"
   xmlns:rdf="http://www.w3.org/1999/02/22-rdf-syntax-ns#"
   xmlns:svg="http://www.w3.org/2000/svg"
   xmlns="http://www.w3.org/2000/svg"
   xmlns:sodipodi="http://sodipodi.sourceforge.net/DTD/sodipodi-0.dtd"
   xmlns:inkscape="http://www.inkscape.org/namespaces/inkscape"
   width="210mm"
   height="297mm"
   viewBox="0 0 210 297"
   version="1.1"
   id="svg10945"
   inkscape:version="1.0.2 (e86c8708, 2021-01-15)"
   sodipodi:docname="ammonite.svg">
  <defs
     id="defs10939" />
  <sodipodi:namedview
     id="base"
     pagecolor="#ffffff"
     bordercolor="#666666"
     borderopacity="1.0"
     inkscape:pageopacity="0.0"
     inkscape:pageshadow="2"
     inkscape:zoom="0.35"
     inkscape:cx="400"
     inkscape:cy="560"
     inkscape:document-units="mm"
     inkscape:current-layer="layer1"
     inkscape:document-rotation="0"
     showgrid="false"
     inkscape:window-width="1252"
     inkscape:window-height="1005"
     inkscape:window-x="0"
     inkscape:window-y="23"
     inkscape:window-maximized="0" />
  <metadata
     id="metadata10942">
    <rdf:RDF>
      <cc:Work
         rdf:about="">
        <dc:format>image/svg+xml</dc:format>
        <dc:type
           rdf:resource="http://purl.org/dc/dcmitype/StillImage" />
        <dc:title></dc:title>
      </cc:Work>
    </rdf:RDF>
  </metadata>
  <g
     inkscape:label="Layer 1"
     inkscape:groupmode="layer"
     id="layer1">
    <path
       d="m 115.26394,200.1239 c 0,0 -0.50447,-0.28398 -1.14652,0.65758 -0.64559,0.94121 -1.28412,3.1817 -1.49578,4.0633 -0.21167,0.88159 -0.73025,3.19934 -0.77611,3.28894 -0.0459,0.0896 0.43039,1.42699 0.55033,2.18299 0.11994,0.756 0.16581,1.14194 0.16581,1.14194 0,0 0.58208,0.0145 0.8255,-0.32067 0.24694,-0.33479 1.26294,-2.48708 1.60161,-3.74262 0.33866,-1.25518 0.96661,-3.28013 0.96661,-4.2732 -0.004,-0.99272 0.0529,-2.09162 -0.23989,-2.49343 -0.29281,-0.40217 -0.11995,-0.48049 -0.45156,-0.50483"
       style="fill:#d2bd5d;fill-opacity:1;fill-rule:nonzero;stroke:none;stroke-width:0.0352778"
       id="path1046" />
    <path
       d="m 115.29217,199.90483 c 0,0 -1.15006,0.72601 -1.40053,1.25836 -0.254,0.53163 -1.17475,3.6396 -1.40759,4.24074 -0.23283,0.60078 -0.52563,2.63419 -0.52563,2.63419 0,0 0.31397,1.2954 0.46919,2.44016 0.15169,1.14477 0.29986,2.49591 -0.0141,3.50203 -0.31045,1.00647 -0.68086,2.33292 -1.778,3.38914 -1.09714,1.05621 -2.37772,1.99954 -3.77825,2.64936 -1.397,0.64946 -3.46075,0.87489 -5.45747,0.79798 -1.993199,-0.0769 -4.527202,-0.80998 -5.796496,-1.784 -1.268942,-0.97366 -2.164998,-1.20791 -3.648076,-4.07846 -0.751064,-1.4538 -0.993775,-4.03084 -0.849136,-5.70512 0.144992,-1.67464 1.255889,-4.23404 1.997428,-5.38233 0.741539,-1.14794 3.104445,-3.09422 4.150431,-3.8153 1.046339,-0.72107 4.163479,-1.87219 5.765099,-2.06022 1.60161,-0.18838 3.82763,-0.36653 5.35869,-0.11853 1.53106,0.248 3.88761,0.78246 4.75897,1.13806 0.87136,0.35595 2.15548,0.89394 2.15548,0.89394"
       style="fill:#e7d97e;fill-opacity:1;fill-rule:nonzero;stroke:none;stroke-width:0.0352778"
       id="path1048" />
    <path
       d="m 115.53911,200.1112 c -0.49036,-0.53869 -1.21708,-0.005 -1.54869,0.43251 -0.59973,0.7934 -0.889,1.83515 -1.17828,2.77107 -0.25047,0.80998 -0.47978,1.61784 -0.66322,2.44581 -0.18698,0.83502 -0.45862,1.75366 -0.42687,2.61796 0.0106,0.27446 0.41981,0.27552 0.42687,0 0.0459,-1.37195 0.51152,-2.87408 0.91369,-4.18112 0.25753,-0.83679 0.48683,-1.69157 0.83961,-2.49485 0.15875,-0.36477 0.34572,-0.77681 0.62795,-1.06433 0.29986,-0.30268 0.508,-0.25576 0.89252,-0.24835 0.14817,0.003 0.20814,-0.17745 0.11642,-0.2787"
       style="fill:#e7d97e;fill-opacity:1;fill-rule:nonzero;stroke:none;stroke-width:0.0352778"
       id="path1050" />
    <path
       d="m 103.7528,208.45898 c 0.24342,-0.78634 1.22767,-0.254 1.37936,0.25471 0.20109,0.66393 -0.0212,1.23578 -0.52563,1.67887 -0.81845,0.7179 -2.06728,0.72178 -2.8187,-0.0974 -0.69497,-0.75706 -0.6738,-1.99178 -0.127,-2.81305 0.55386,-0.83467 1.56986,-1.30245 2.55411,-1.31515 2.02142,-0.0265 3.57717,1.30633 3.54542,3.38807 -0.0282,1.80482 -1.28764,3.47345 -2.95275,4.12257 -1.85561,0.72354 -4.03119,0.12947 -5.365751,-1.31939 -1.498953,-1.62772 -1.72332,-4.13562 -0.67945,-6.06708 1.992491,-3.68758 7.068251,-3.84563 10.215031,-1.58891 3.04095,2.18264 4.2792,7.27463 2.70228,10.63096 -1.48519,3.15736 -5.02003,5.26909 -8.40669,5.46312 -3.54648,0.2032 -7.746652,-1.07139 -10.00196,-3.94018 -2.590448,-3.29494 -2.706159,-8.31285 -0.709437,-11.86885 2.004484,-3.56976 5.810251,-5.99229 9.374367,-6.74794 3.47133,-0.73554 7.53886,-0.49777 10.97139,0.74895 0.70555,0.25718 1.3088,0.47131 2.00378,0.76482 0.35277,0.15064 0.70202,0.28293 0.34219,0.13088 -0.86783,-0.36865 -1.72508,-0.81315 -2.61761,-1.13171 -1.34056,-0.48013 -2.76931,-0.75141 -4.17689,-0.93909 -2.32128,-0.30833 -4.6602,-0.25224 -6.92856,0.33972 -4.061527,1.0601 -7.856005,3.74721 -9.590967,7.65422 -1.914172,4.3106 -1.097491,9.82063 2.741789,12.8076 3.38067,2.62996 8.383768,3.31823 12.327818,1.64571 1.88031,-0.79622 3.57364,-2.1022 4.6602,-3.84634 1.13241,-1.81751 1.36525,-3.86785 0.99836,-5.94854 -0.39158,-2.20274 -1.42522,-4.54342 -3.23145,-5.94995 -1.66511,-1.29363 -4.07811,-1.93145 -6.16655,-1.67146 -2.14842,0.26776 -4.129266,1.67146 -5.026027,3.65513 -0.883003,1.95333 -0.634295,4.48663 0.76588,6.14575 1.362077,1.6136 3.759197,2.28917 5.755927,1.6069 1.79916,-0.61525 3.175,-2.23414 3.37255,-4.14408 0.19756,-1.9297 -0.77258,-3.69429 -2.71639,-4.15255 -1.66158,-0.39194 -3.76766,0.30551 -4.318,2.06728 -0.52317,1.68557 0.67734,3.35386 2.48003,3.1429 0.80786,-0.0945 1.63336,-0.66817 1.88031,-1.46368 0.20461,-0.65758 0.0106,-1.56951 -0.68439,-1.8415 -0.52564,-0.20496 -1.13595,-0.0508 -1.30175,0.52246 -0.0494,0.17745 0.22225,0.25153 0.27516,0.0762"
       style="fill:#d2bd5d;fill-opacity:1;fill-rule:nonzero;stroke:none;stroke-width:0.0352778"
       id="path1052" />
    <path
       d="m 114.99583,200.39025 c 1.59456,-0.58385 0.41628,4.39491 0.23636,5.11493 -0.29986,1.18992 -0.62089,2.37878 -1.06539,3.52354 -0.23636,0.61207 -0.67733,2.15477 -1.4605,2.21862 -0.14111,0.0116 -0.18697,0.17886 -0.0705,0.26035 1.52753,1.06997 3.04447,-5.74887 3.18558,-6.39198 0.26106,-1.20438 0.48684,-2.56117 0.28928,-3.79095 -0.0811,-0.52987 -0.49742,-1.86232 -1.30528,-1.29434 -0.0882,0.0614 -0.0282,0.2607 0.10231,0.25541 l 0.0882,0.10442"
       style="fill:#e7d97e;fill-opacity:1;fill-rule:nonzero;stroke:none;stroke-width:0.0352778"
       id="path1054" />
    <path
       d="m 111.95489,198.57803 c -1.02306,-0.13264 -1.78859,1.53529 -2.09197,2.26307 -0.50801,1.23049 -0.60326,2.68852 -0.4692,4.00368 0.0176,0.16968 0.25753,0.14005 0.23283,-0.0317 -0.28222,-2.03871 0.1905,-5.22288 2.34245,-6.11259 0.067,-0.0275 0.0564,-0.11324 -0.0141,-0.12241"
       style="fill:#d2bd5d;fill-opacity:1;fill-rule:nonzero;stroke:none;stroke-width:0.0352778"
       id="path1056" />
    <path
       d="m 107.6263,197.77334 c -0.86077,0.20955 -1.17827,1.48202 -1.29822,2.22533 -0.16933,1.05833 -0.20814,2.32727 0.18345,3.33904 0.0635,0.16122 0.32455,0.0903 0.26105,-0.072 -0.34925,-0.89006 -0.32455,-1.96744 -0.2293,-2.91006 0.0988,-0.99766 0.4198,-1.77447 1.15711,-2.45851 0.0564,-0.0522 -0.004,-0.14041 -0.0741,-0.12383"
       style="fill:#d2bd5d;fill-opacity:1;fill-rule:nonzero;stroke:none;stroke-width:0.0352778"
       id="path1058" />
    <path
       d="m 103.75986,197.85096 c -0.88195,0.23142 -1.16064,1.45767 -1.27,2.22814 -0.14111,1.01 -0.0317,2.23379 0.52564,3.10833 0.0882,0.13899 0.31044,0.01 0.22225,-0.12983 -0.8255,-1.28622 -0.89253,-4.18571 0.56797,-5.0994 0.0564,-0.0349 0.0212,-0.12453 -0.0459,-0.10724"
       style="fill:#d2bd5d;fill-opacity:1;fill-rule:nonzero;stroke:none;stroke-width:0.0352778"
       id="path1060" />
    <path
       d="m 99.338142,198.98725 c -0.490008,0.67769 -0.295628,1.97732 -0.110772,2.73156 0.185561,0.75424 0.5969,1.79987 1.17722,2.33116 0.13723,0.12559 0.3436,-0.0804 0.20426,-0.20461 -0.51153,-0.4565 -0.890766,-1.39277 -1.081266,-2.03659 -0.227189,-0.76588 -0.365125,-1.96885 -0.01658,-2.72062 0.05433,-0.11712 -0.09701,-0.20532 -0.172861,-0.1009"
       style="fill:#d2bd5d;fill-opacity:1;fill-rule:nonzero;stroke:none;stroke-width:0.0352778"
       id="path1062" />
    <path
       d="m 95.421603,201.35263 c -0.539044,1.94874 1.7018,3.95887 3.223331,4.7685 0.152753,0.0811 0.288925,-0.15205 0.135819,-0.23248 -0.7493,-0.393 -1.478139,-0.9899 -2.057753,-1.60444 -0.778228,-0.82444 -1.065036,-1.82245 -1.169105,-2.9143 -0.0067,-0.072 -0.11042,-0.0949 -0.132292,-0.0173"
       style="fill:#d2bd5d;fill-opacity:1;fill-rule:nonzero;stroke:none;stroke-width:0.0352778"
       id="path1064" />
    <path
       d="m 104.38428,202.95283 c -0.70556,0.31679 -0.91723,1.20509 -0.87137,1.90994 0.0141,0.25329 0.0529,1.10878 0.3422,1.2386 0.0776,0.0353 0.18344,-0.0233 0.15169,-0.11818 -0.0988,-0.30974 -0.21166,-0.66005 -0.24694,-1.00295 -0.0847,-0.80715 0.18344,-1.32715 0.70555,-1.92052 0.0529,-0.0596 -0.0106,-0.13829 -0.0811,-0.10689"
       style="fill:#d2bd5d;fill-opacity:1;fill-rule:nonzero;stroke:none;stroke-width:0.0352778"
       id="path1066" />
    <path
       d="m 107.23825,203.50775 c -0.57856,-0.13582 -0.98072,0.69568 -1.15359,1.11089 -0.19402,0.45297 -0.53975,1.34409 -0.25047,1.82246 0.067,0.11041 0.20814,0.031 0.19403,-0.0815 -0.11994,-0.84102 0.24694,-2.46203 1.21003,-2.68957 0.0811,-0.019 0.0811,-0.14323 0,-0.16228"
       style="fill:#d2bd5d;fill-opacity:1;fill-rule:nonzero;stroke:none;stroke-width:0.0352778"
       id="path1068" />
    <path
       d="m 109.89114,205.20143 c -1.24531,-0.21413 -2.10609,1.15994 -2.69523,2.02953 -0.0776,0.11572 0.10584,0.2152 0.18345,0.1076 0.32455,-0.42968 0.61383,-0.88794 1.00189,-1.26576 0.45508,-0.44486 0.91722,-0.56762 1.50989,-0.72355 0.0706,-0.0183 0.0776,-0.13441 0,-0.14782"
       style="fill:#d2bd5d;fill-opacity:1;fill-rule:nonzero;stroke:none;stroke-width:0.0352778"
       id="path1070" />
    <path
       d="m 111.71147,208.14148 c -1.17828,-0.63782 -2.97392,-0.0688 -3.7465,0.9645 -0.06,0.0801 0.0741,0.18238 0.14111,0.10689 0.90664,-1.0481 2.25425,-1.18251 3.53484,-0.91017 0.0953,0.0198 0.16227,-0.11183 0.0706,-0.16122"
       style="fill:#d2bd5d;fill-opacity:1;fill-rule:nonzero;stroke:none;stroke-width:0.0352778"
       id="path1072" />
    <path
       d="m 101.05053,203.69613 c -0.40252,0.33726 -0.31962,1.22626 -0.2593,1.67746 0.0889,0.66746 0.32632,1.32362 0.83432,1.784 0.11995,0.10689 0.29634,-0.0688 0.17639,-0.17604 -0.51858,-0.46955 -0.7373,-1.16946 -0.79234,-1.85244 -0.0392,-0.49 0.1009,-0.91687 0.14323,-1.39065 0.004,-0.0564 -0.067,-0.0723 -0.1023,-0.0423"
       style="fill:#d2bd5d;fill-opacity:1;fill-rule:nonzero;stroke:none;stroke-width:0.0352778"
       id="path1074" />
    <path
       d="m 98.273459,206.76459 c 0.37218,1.04775 1.752601,1.93287 2.844091,1.9304 0.1517,-3.5e-4 0.1517,-0.23424 0,-0.23742 -1.16875,-0.0226 -2.068333,-0.8703 -2.716386,-1.74695 -0.04269,-0.0579 -0.15628,-0.0272 -0.127705,0.054"
       style="fill:#d2bd5d;fill-opacity:1;fill-rule:nonzero;stroke:none;stroke-width:0.0352778"
       id="path1076" />
    <path
       d="m 98.049798,210.04754 c -0.05962,0.51788 0.649111,0.60502 1.021644,0.63253 0.84067,0.0621 1.575508,-0.10512 2.314218,-0.50376 0.12348,-0.0656 0.0141,-0.25153 -0.10936,-0.18592 -0.58808,0.31609 -1.14547,0.48789 -1.816802,0.48931 -0.412045,0.001 -1.154642,0.0466 -1.305631,-0.44627 -0.0187,-0.0603 -0.09737,-0.0434 -0.104069,0.0141"
       style="fill:#d2bd5d;fill-opacity:1;fill-rule:nonzero;stroke:none;stroke-width:0.0352778"
       id="path1078" />
    <path
       d="m 99.987253,213.12412 c 0.606777,0.12876 1.190277,-0.2794 1.610077,-0.68051 0.42333,-0.40428 0.66675,-1.02129 0.67381,-1.6069 0,-0.091 -0.12348,-0.097 -0.1517,-0.0201 -0.19755,0.51364 -0.21166,1.00718 -0.62441,1.42487 -0.43039,0.43286 -0.91123,0.66569 -1.507777,0.75741 -0.0635,0.0102 -0.05962,0.11254 0,0.12524"
       style="fill:#d2bd5d;fill-opacity:1;fill-rule:nonzero;stroke:none;stroke-width:0.0352778"
       id="path1080" />
    <path
       d="m 103.53408,211.05225 c 0.0494,0.49954 0.21167,0.96944 0.22225,1.47708 0.0176,0.57362 -0.10936,1.11549 -0.30692,1.65065 -0.0494,0.13547 0.16581,0.19368 0.2152,0.0596 0.37394,-1.00612 0.4833,-2.23026 -0.0212,-3.21698 -0.0247,-0.0504 -0.11641,-0.0286 -0.10936,0.0296"
       style="fill:#d2bd5d;fill-opacity:1;fill-rule:nonzero;stroke:none;stroke-width:0.0352778"
       id="path1082" />
    <path
       d="m 104.70178,210.54178 c 0.508,0.25153 0.85019,0.53975 1.09361,1.06116 0.22577,0.47519 0.23283,0.95356 0.36689,1.44674 0.0212,0.0801 0.15875,0.0914 0.17286,0 0.14816,-0.91757 -0.55739,-2.54529 -1.59456,-2.64548 -0.0741,-0.007 -0.1023,0.10619 -0.0388,0.13758"
       style="fill:#d2bd5d;fill-opacity:1;fill-rule:nonzero;stroke:none;stroke-width:0.0352778"
       id="path1084" />
    <path
       d="m 105.44261,209.36351 c 0.34219,-0.17498 0.635,-0.35737 1.02305,-0.43463 0.49742,-0.0977 0.87842,0.0501 1.3335,0.20955 0.11995,0.042 0.17287,-0.15028 0.0529,-0.1912 -0.52564,-0.18062 -0.93839,-0.3175 -1.49578,-0.18521 -0.32808,0.0787 -0.83255,0.20955 -0.97014,0.55774 -0.0141,0.0335 0.0282,0.0572 0.0564,0.0437"
       style="fill:#d2bd5d;fill-opacity:1;fill-rule:nonzero;stroke:none;stroke-width:0.0352778"
       id="path1086" />
    <path
       d="m 104.74058,208.05823 c 0.14464,-0.34325 0.22225,-0.64876 0.49742,-0.92322 0.26811,-0.26529 0.61383,-0.4378 0.98778,-0.48578 0.13052,-0.0166 0.13052,-0.22225 0,-0.20531 -0.41628,0.054 -0.79375,0.22683 -1.10067,0.51646 -0.27164,0.25788 -0.56797,0.68404 -0.5327,1.07774 0.0106,0.0882 0.11642,0.0991 0.14817,0.0201"
       style="fill:#d2bd5d;fill-opacity:1;fill-rule:nonzero;stroke:none;stroke-width:0.0352778"
       id="path1088" />
    <path
       d="m 103.80572,207.96968 c -0.43392,-0.44697 -0.67381,-1.10807 -0.35278,-1.7025 0.0494,-0.0903 -0.0988,-0.11818 -0.14464,-0.0272 -0.26458,0.55845 -0.1658,1.56034 0.37748,1.88172 0.0953,0.0543 0.19755,-0.0702 0.11994,-0.15205"
       style="fill:#d2bd5d;fill-opacity:1;fill-rule:nonzero;stroke:none;stroke-width:0.0352778"
       id="path1090" />
    <path
       d="m 103.63991,208.41101 c -0.44097,-0.24942 -1.12536,0.0772 -1.4993,0.33125 -0.38806,0.26424 -0.83608,0.6537 -0.82903,1.1617 0,0.11924 0.18697,0.11924 0.18345,0 0,-0.47025 0.49388,-0.85337 0.86077,-1.07244 0.41628,-0.24659 0.83961,-0.23425 1.28059,-0.3743 l 0.004,-0.0462"
       style="fill:#d2bd5d;fill-opacity:1;fill-rule:nonzero;stroke:none;stroke-width:0.0352778"
       id="path1092" />
    <path
       d="m 103.65755,208.40889 c -0.53975,0.77223 -0.45861,1.92511 0.28223,2.51001 0.11641,0.0917 0.28222,-0.073 0.1658,-0.16404 -0.40569,-0.31573 -0.59267,-0.6992 -0.56092,-1.21673 0.0247,-0.37712 0.20109,-0.7299 0.20462,-1.10525 0,-0.0508 -0.0635,-0.0614 -0.0917,-0.024"
       style="fill:#d2bd5d;fill-opacity:1;fill-rule:nonzero;stroke:none;stroke-width:0.0352778"
       id="path1094" />
    <path
       d="m 103.63286,208.43288 c -0.0317,0.70732 1.41111,0.94086 1.55575,0.2039 0.0176,-0.0956 -0.12347,-0.17321 -0.16933,-0.0713 -0.24342,0.55281 -1.06187,0.28893 -1.25942,-0.16757 -0.0282,-0.067 -0.127,-0.0272 -0.127,0.0349"
       style="fill:#d2bd5d;fill-opacity:1;fill-rule:nonzero;stroke:none;stroke-width:0.0352778"
       id="path1096" />
    <path
       d="m 92.442747,204.9873 c -0.04515,1.02588 1.355725,2.18581 2.144184,2.62925 0.921103,0.51788 2.345267,0.98743 3.405011,0.73448 0.149225,-0.0353 0.08502,-0.254 -0.06209,-0.22683 -1.007533,0.18732 -2.276122,-0.19227 -3.163711,-0.66499 -0.857603,-0.45649 -1.989314,-1.49825 -2.242609,-2.48285 -0.01164,-0.0462 -0.07867,-0.0346 -0.08079,0.0109"
       style="fill:#d2bd5d;fill-opacity:1;fill-rule:nonzero;stroke:none;stroke-width:0.0352778"
       id="path1098" />
    <path
       d="m 91.019642,209.65173 c 0.110772,0.37994 0.593372,0.57185 0.923925,0.70943 0.65405,0.27235 1.367014,0.40252 2.070805,0.45897 1.323975,0.10689 2.901598,-0.11078 4.053064,-0.81386 0.130175,-0.0794 0.01199,-0.28293 -0.119944,-0.20461 -1.936397,1.1504 -5.025673,1.17863 -6.82237,-0.21132 -0.04586,-0.0356 -0.124883,-0.005 -0.10548,0.0614"
       style="fill:#d2bd5d;fill-opacity:1;fill-rule:nonzero;stroke:none;stroke-width:0.0352778"
       id="path1100" />
    <path
       d="m 91.354075,213.3252 c 0.801864,0.83644 2.652183,0.92357 3.705931,0.86642 1.30563,-0.0709 3.413125,-0.72496 3.899606,-2.11137 0.03492,-0.10019 -0.107245,-0.14429 -0.161573,-0.0681 -0.95003,1.3395 -2.583744,1.99602 -4.206169,1.95792 -0.9779,-0.0226 -2.321631,-0.15699 -3.165476,-0.73907 -0.0575,-0.0392 -0.11818,0.0466 -0.07232,0.0942"
       style="fill:#d2bd5d;fill-opacity:1;fill-rule:nonzero;stroke:none;stroke-width:0.0352778"
       id="path1102" />
    <path
       d="m 93.8274,217.72363 c 1.398411,0.0854 2.827161,-0.43003 4.092928,-0.96766 1.457325,-0.61878 2.579512,-1.38148 3.137252,-2.90795 0.0564,-0.15064 -0.18521,-0.2152 -0.24024,-0.066 -0.60854,1.63971 -1.947334,2.3248 -3.486504,2.94852 -1.107722,0.44943 -2.313516,0.73554 -3.503436,0.86642 -0.08008,0.009 -0.0829,0.12135 0,0.12664"
       style="fill:#d2bd5d;fill-opacity:1;fill-rule:nonzero;stroke:none;stroke-width:0.0352778"
       id="path1104" />
    <path
       d="m 98.583903,220.43403 c 1.531057,-0.24624 2.787647,-1.06222 3.528487,-2.4444 0.56444,-1.05516 0.90664,-2.6155 0.62441,-3.81106 -0.0318,-0.12876 -0.2293,-0.0998 -0.2293,0.0314 0.007,1.26471 0.067,2.40453 -0.52564,3.58316 -0.71261,1.40512 -1.94839,2.14419 -3.427237,2.53577 -0.06915,0.018 -0.03881,0.11606 0.02928,0.10513"
       style="fill:#d2bd5d;fill-opacity:1;fill-rule:nonzero;stroke:none;stroke-width:0.0352778"
       id="path1106" />
    <path
       d="m 104.2855,220.89793 c 1.41111,-0.26388 1.80975,-2.06375 1.86619,-3.2579 0.0529,-1.16135 -0.0423,-3.01273 -0.97014,-3.87245 -0.10936,-0.10265 -0.27164,0.0579 -0.1658,0.16687 0.8008,0.81703 0.89958,2.38301 0.87841,3.45052 -0.0247,1.41993 -0.40216,2.63525 -1.66158,3.38666 -0.067,0.042 -0.0212,0.14006 0.0529,0.1263"
       style="fill:#d2bd5d;fill-opacity:1;fill-rule:nonzero;stroke:none;stroke-width:0.0352778"
       id="path1108" />
    <path
       d="m 109.57011,218.49728 c 0.40217,-1.2065 0.26458,-2.47262 -0.24695,-3.62268 -0.47272,-1.05798 -1.15711,-2.20592 -2.37066,-2.4832 -0.13406,-0.031 -0.18345,0.15593 -0.0564,0.20426 2.26484,0.87206 2.94923,3.69429 2.54706,5.86634 -0.0141,0.0836 0.1023,0.11747 0.127,0.0353"
       style="fill:#d2bd5d;fill-opacity:1;fill-rule:nonzero;stroke:none;stroke-width:0.0352778"
       id="path1110" />
    <path
       d="m 112.69219,213.16927 c -0.18344,-1.98472 -3.40078,-2.76401 -4.98475,-2.31246 -0.12347,0.036 -0.067,0.20638 0.0529,0.1898 1.79917,-0.24165 4.05342,0.33161 4.74839,2.14771 0.0353,0.0907 0.19403,0.0892 0.18344,-0.025"
       style="fill:#d2bd5d;fill-opacity:1;fill-rule:nonzero;stroke:none;stroke-width:0.0352778"
       id="path1112" />
    <path
       d="m 92.934167,209.82635 c -0.09878,0 -0.208492,-0.0564 -0.237773,-0.1531 -0.301625,-0.99731 -0.05574,-2.26343 0.328789,-3.3528 0.144287,0.17286 0.305506,0.33866 0.473075,0.49283 -0.07338,0.22718 -0.135466,0.45896 -0.185913,0.69638 -0.153459,0.72143 -0.193675,1.44956 -0.205317,2.16359 -0.0018,0.10583 -0.08255,0.1531 -0.172861,0.1531 m 0.64523,-3.24908 c -0.1651,-0.15911 -0.322086,-0.32914 -0.462844,-0.50553 0.117828,-0.30974 0.244828,-0.60184 0.371122,-0.86466 0.4572,-0.95215 1.147233,-1.8542 1.931459,-2.62396 0.06703,0.26846 0.173919,0.53304 0.31115,0.78987 -0.623712,0.60572 -1.169812,1.28658 -1.618898,2.06551 -0.211666,0.3676 -0.389466,0.74648 -0.531989,1.13877 m 2.393598,-3.43288 c -0.115711,-0.2667 -0.203553,-0.54399 -0.270228,-0.83044 0.335492,-0.30727 0.684389,-0.5902 1.036461,-0.84244 0.74295,-0.53163 1.497542,-0.97578 2.290939,-1.34373 -0.0078,0.29493 0.01799,0.59973 0.05927,0.88442 -0.551039,0.28857 -1.087967,0.61136 -1.620309,0.96802 -0.532694,0.35666 -1.033639,0.74189 -1.49613,1.16417 m 3.366205,-2.26025 c -0.03528,-0.29034 -0.04939,-0.59196 -0.0321,-0.88089 0.672041,-0.29351 1.373357,-0.5341 2.120897,-0.72813 0.43039,-0.11218 0.87841,-0.22049 1.32644,-0.31785 -0.0917,0.24518 -0.15522,0.50235 -0.20108,0.74224 -0.22931,0.0582 -0.45508,0.11995 -0.68086,0.18662 -0.89535,0.26282 -1.73002,0.59514 -2.533295,0.99801 m 3.425825,-1.23719 c 0.0564,-0.26317 0.13758,-0.51435 0.24694,-0.74401 0.47978,-0.0998 0.96308,-0.18591 1.43581,-0.25083 0.30691,-0.042 0.61737,-0.0674 0.92428,-0.0674 0.4057,0 0.80434,0.0455 1.15711,0.15699 0.0847,0.0268 0.0388,0.18203 -0.0459,0.19932 -0.72672,0.15064 -1.22061,0.16863 -2.0073,0.3302 -0.57503,0.11747 -1.14653,0.23636 -1.71097,0.37571"
       style="fill:#f3eda0;fill-opacity:1;fill-rule:nonzero;stroke:none;stroke-width:0.0352778"
       id="path1114" />
    <path
       d="m 102.55336,199.69951 c 0.0459,-0.23989 0.10936,-0.49706 0.20108,-0.74224 0.0847,-0.0187 0.16934,-0.0367 0.25753,-0.0543 -0.10936,0.22966 -0.1905,0.48084 -0.24694,0.74401 -0.0706,0.0169 -0.14112,0.0346 -0.21167,0.0526"
       style="fill:#eade7f;fill-opacity:1;fill-rule:nonzero;stroke:none;stroke-width:0.0352778"
       id="path1116" />
    <path
       d="m 99.089434,201.0122 c -0.04127,-0.28469 -0.06703,-0.58949 -0.05927,-0.88442 0.09172,-0.0427 0.183797,-0.0843 0.276931,-0.12453 -0.01729,0.28893 -0.0032,0.59055 0.0321,0.88089 -0.08361,0.042 -0.166863,0.0847 -0.249766,0.12806"
       style="fill:#eade7f;fill-opacity:1;fill-rule:nonzero;stroke:none;stroke-width:0.0352778"
       id="path1118" />
    <path
       d="m 95.730284,203.37299 c -0.137231,-0.25683 -0.244123,-0.52141 -0.31115,-0.78987 0.09313,-0.0917 0.187677,-0.18133 0.283633,-0.26917 0.06668,0.28645 0.154517,0.56374 0.270228,0.83044 -0.0822,0.0748 -0.162984,0.15099 -0.242711,0.2286"
       style="fill:#eade7f;fill-opacity:1;fill-rule:nonzero;stroke:none;stroke-width:0.0352778"
       id="path1120" />
    <path
       d="m 93.498258,206.81328 c -0.167569,-0.15417 -0.328788,-0.31997 -0.473075,-0.49283 0.02963,-0.084 0.05997,-0.16687 0.09137,-0.24871 0.140758,0.17639 0.297744,0.34642 0.462844,0.50553 -0.02858,0.0783 -0.05539,0.15663 -0.08114,0.23601"
       style="fill:#eade7f;fill-opacity:1;fill-rule:nonzero;stroke:none;stroke-width:0.0352778"
       id="path1122" />
    <path
       d="m 99.058037,209.96323 c -0.0381,0 -0.07691,-0.0378 -0.112184,-0.13794 -0.207786,-0.59196 -0.183797,-1.36525 -0.03493,-2.11596 0.127353,0.12383 0.267053,0.23954 0.414514,0.34502 -0.01975,0.13935 -0.03069,0.27975 -0.02857,0.42016 0.0042,0.33866 -0.01376,0.82655 -0.0441,1.16028 -0.0074,0.0808 -0.09772,0.32844 -0.194733,0.32844 m 0.321027,-2.20028 c -0.1397,-0.11324 -0.272344,-0.23636 -0.398639,-0.36547 0.1778,-0.72532 0.461081,-1.40124 0.748242,-1.83515 0.286456,-0.43216 0.642416,-0.7807 1.017066,-1.04634 -0.0141,0.23918 0.002,0.48471 0.0243,0.68544 -0.0917,0.0836 -0.17921,0.17357 -0.26318,0.27094 -0.47554,0.55456 -0.801156,1.14264 -1.007531,1.83621 -0.04445,0.14922 -0.08643,0.30092 -0.120298,0.45437 m 1.624549,-2.75343 c -0.006,-0.24271 0.0293,-0.47166 0.0681,-0.70097 0.19403,-0.11218 0.39159,-0.20249 0.58209,-0.27128 0.55033,-0.19721 1.26647,-0.33585 2.00025,-0.33585 0.004,0 0.004,0 0.007,0 0.0106,0 0.0212,10e-4 0.0282,0.003 -0.0423,0.10231 -0.0776,0.20955 -0.10583,0.31892 -0.52211,0.13617 -1.00189,0.25929 -1.51342,0.43991 -0.39511,0.13899 -0.75141,0.31186 -1.06644,0.54645"
       style="fill:#f3eda0;fill-opacity:1;fill-rule:nonzero;stroke:none;stroke-width:0.0352778"
       id="path1124" />
    <path
       d="m 103.58347,204.02316 c 0.0282,-0.10937 0.0635,-0.21661 0.10583,-0.31892 0.14464,0.0279 0.15875,0.25048 0.0106,0.28893 -0.0388,0.0102 -0.0776,0.0201 -0.11642,0.03"
       style="fill:#eade7f;fill-opacity:1;fill-rule:nonzero;stroke:none;stroke-width:0.0352778"
       id="path1126" />
    <path
       d="m 100.77007,205.20143 c -0.0219,-0.20073 -0.0385,-0.44626 -0.0243,-0.68544 0.10724,-0.0758 0.2159,-0.145 0.32596,-0.20744 -0.0388,0.22931 -0.0741,0.45826 -0.0681,0.70097 -0.0804,0.06 -0.1584,0.12383 -0.23354,0.19191"
       style="fill:#eade7f;fill-opacity:1;fill-rule:nonzero;stroke:none;stroke-width:0.0352778"
       id="path1128" />
    <path
       d="m 99.325442,208.05435 c -0.147461,-0.10548 -0.287161,-0.22119 -0.414514,-0.34502 0.02081,-0.10442 0.0441,-0.20849 0.0695,-0.31185 0.126295,0.12911 0.258939,0.25223 0.398639,0.36547 -0.02152,0.0967 -0.03986,0.19368 -0.05362,0.2914"
       style="fill:#eade7f;fill-opacity:1;fill-rule:nonzero;stroke:none;stroke-width:0.0352778"
       id="path1130" />
    <path
       d="m 101.75961,209.04213 c -0.0106,-0.005 -0.0141,-0.0127 -0.0212,-0.0229 -0.22578,-0.49072 0.0141,-1.3769 0.35984,-1.73461 0.36688,-0.38171 0.69497,-0.60325 1.09713,-0.67663 -0.0282,0.16369 -0.0353,0.33972 -0.0212,0.51364 -0.18345,0.0536 -0.35631,0.13053 -0.51153,0.26282 -0.20814,0.1778 -0.46919,0.56833 -0.55739,0.89324 -0.0494,0.19014 -0.0423,0.39052 -0.10936,0.5662 -0.0811,0.0607 -0.16228,0.127 -0.23636,0.19827 m 1.56633,-1.95968 c -0.0282,-0.16193 -0.0282,-0.32809 0.007,-0.49319 0.0564,-0.006 0.11641,-0.008 0.17991,-0.008 0.21167,0 0.44803,0.0339 0.71967,0.0998 0.11995,0.0296 -0.11289,0.21378 -0.22225,0.2473 -0.22225,0.0691 -0.45508,0.10125 -0.68439,0.15452"
       style="fill:#f3eda0;fill-opacity:1;fill-rule:nonzero;stroke:none;stroke-width:0.0352778"
       id="path1132" />
    <path
       d="m 103.17425,207.1216 c -0.0141,-0.17392 -0.007,-0.34995 0.0212,-0.51364 0.0459,-0.008 0.0917,-0.0145 0.13759,-0.0187 -0.0353,0.1651 -0.0353,0.33126 -0.007,0.49319 -0.0494,0.0116 -0.1023,0.0247 -0.15169,0.0392"
       style="fill:#eade7f;fill-opacity:1;fill-rule:nonzero;stroke:none;stroke-width:0.0352778"
       id="path1134" />
    <path
       d="m 101.79136,209.0513 c -0.0106,0 -0.0247,-0.003 -0.0318,-0.009 0.0741,-0.0713 0.15522,-0.13759 0.23636,-0.19827 -0.0141,0.043 -0.0353,0.0847 -0.06,0.12383 -0.0282,0.0406 -0.0953,0.0836 -0.14464,0.0836"
       style="fill:#eade7f;fill-opacity:1;fill-rule:nonzero;stroke:none;stroke-width:0.0352778"
       id="path1136" />
  </g>
</svg>
