<?xml version="1.0" encoding="UTF-8" standalone="no"?>
<svg
   xmlns:dc="http://purl.org/dc/elements/1.1/"
   xmlns:cc="http://creativecommons.org/ns#"
   xmlns:rdf="http://www.w3.org/1999/02/22-rdf-syntax-ns#"
   xmlns:svg="http://www.w3.org/2000/svg"
   xmlns="http://www.w3.org/2000/svg"
   xmlns:sodipodi="http://sodipodi.sourceforge.net/DTD/sodipodi-0.dtd"
   xmlns:inkscape="http://www.inkscape.org/namespaces/inkscape"
   width="210mm"
   height="297mm"
   viewBox="0 0 210 297"
   version="1.1"
   id="svg5801"
   inkscape:version="1.0.2 (e86c8708, 2021-01-15)"
   sodipodi:docname="baby_shark.svg">
  <defs
     id="defs5795" />
  <sodipodi:namedview
     id="base"
     pagecolor="#ffffff"
     bordercolor="#666666"
     borderopacity="1.0"
     inkscape:pageopacity="0.0"
     inkscape:pageshadow="2"
     inkscape:zoom="0.35"
     inkscape:cx="400"
     inkscape:cy="560"
     inkscape:document-units="mm"
     inkscape:current-layer="layer1"
     inkscape:document-rotation="0"
     showgrid="false"
     inkscape:window-width="1252"
     inkscape:window-height="1005"
     inkscape:window-x="0"
     inkscape:window-y="23"
     inkscape:window-maximized="0" />
  <metadata
     id="metadata5798">
    <rdf:RDF>
      <cc:Work
         rdf:about="">
        <dc:format>image/svg+xml</dc:format>
        <dc:type
           rdf:resource="http://purl.org/dc/dcmitype/StillImage" />
        <dc:title></dc:title>
      </cc:Work>
    </rdf:RDF>
  </metadata>
  <g
     inkscape:label="Layer 1"
     inkscape:groupmode="layer"
     id="layer1">
    <path
       d="m 93.483887,172.49553 c -0.03528,-0.0317 -0.09172,-0.0286 -0.123472,0.007 0,0.002 -0.02117,0.0233 -0.05644,0.061 l -9.013473,0.26423 -0.0071,-0.0201 c -0.01058,-0.0462 -0.05997,-0.0734 -0.105833,-0.0607 -0.04586,0.0123 -0.07408,0.06 -0.05997,0.10619 0.0035,0.0134 0.359833,1.36772 -0.282223,2.67864 l -0.186972,0.37959 c -0.592666,1.21214 -0.762,1.56809 -0.684389,1.72085 0.02117,0.0385 0.05644,0.0635 0.09878,0.0705 l 0.03881,0.002 c 0.370416,0 2.497666,-0.41204 5.316361,-1.56492 3.009195,-1.23331 5.051778,-3.50026 5.072945,-3.52284 0.03175,-0.0356 0.02822,-0.0903 -0.0071,-0.12206"
       style="fill:#725b94;fill-opacity:1;fill-rule:nonzero;stroke:none;stroke-width:0.0352778"
       id="path1500" />
    <path
       d="m 92.792443,158.8589 c -0.07056,-0.0501 -1.74625,-1.23295 -6.554612,-2.06304 -4.808361,-0.83009 -7.824611,-0.006 -7.856361,0.002 -0.03175,0.009 -0.05644,0.037 -0.05997,0.0705 -0.0071,0.0339 0.01058,0.0677 0.03881,0.0857 0.01058,0.006 0.448028,0.28363 0.998361,0.68262 0.642056,0.52 1.449917,1.19627 1.897945,1.65806 0.09878,0.12135 0.183444,0.23989 0.246944,0.35313 l 0.07056,0.0427 0.0035,0.009 c 0.229305,0.51717 11.204222,-0.68192 11.232445,-0.72038 0.02822,-0.0388 0.02117,-0.0928 -0.01764,-0.12065"
       style="fill:#725b94;fill-opacity:1;fill-rule:nonzero;stroke:none;stroke-width:0.0352778"
       id="path1502" />
    <path
       d="m 109.9833,164.77675 c -1.28058,-1.69862 -5.03061,-4.78472 -13.451413,-5.81907 -3.076222,-0.37818 -9.704917,0.0579 -14.449778,0.6156 -4.748389,0.55774 -9.387417,1.69157 -13.112751,2.58868 -3.725334,0.89676 -10.128603,3.20358 -10.128603,3.20358 0,0 -0.687564,0.28363 -0.724606,0.29739 -0.301978,0.11254 -0.237772,0.7246 0.0702,0.93027 0.117122,0.1016 0.649464,0.47908 0.676275,0.50165 0.957086,0.41134 4.954411,1.78612 9.245953,3.03495 3.439584,1.00013 10.290529,2.27753 12.509501,2.47333 6.663973,0.58737 12.865806,0.2928 18.277418,-0.83256 10.579804,-2.19922 12.273144,-4.50674 12.273144,-4.50674 0,0 -0.20108,-1.1811 -1.18534,-2.48708"
       style="fill:#fbc7db;fill-opacity:1;fill-rule:nonzero;stroke:none;stroke-width:0.0352778"
       id="path1504" />
    <path
       d="m 64.983322,163.33989 c -0.0011,-0.0536 0.03528,-0.10054 0.08714,-0.11536 0.737305,-0.21202 6.022622,-1.73073 9.659761,-2.4825 4.409723,-0.91299 7.28839,-1.35396 11.091334,-1.61149 1.488723,-0.10054 3.524251,-0.37818 5.453945,-0.42192 3.005667,-0.0677 5.196417,0.17851 5.256389,0.24906 -0.0071,0.13229 -1.11125,2.29553 -1.672166,5.97994 -0.275167,1.82598 -0.472723,3.32352 -0.564445,4.02978 -0.01411,0.121 -0.179916,0.14464 -0.229305,0.0321 -0.398639,-0.9525 -1.393473,-3.36656 -1.795639,-4.89373 -0.472723,-1.80446 -0.776111,-3.63256 -0.903112,-4.4831 -0.01764,-0.12453 -0.1905,-0.139 -0.229305,-0.019 -0.268111,0.82444 -0.797278,2.60949 -0.980722,4.40196 -0.197556,1.91876 -0.246945,4.50427 -0.261056,5.52697 0,0.12206 -0.162278,0.16298 -0.22225,0.0557 -0.490361,-0.88054 -1.68275,-3.14749 -2.441222,-5.55449 -0.448028,-1.42381 -0.733778,-2.93511 -0.874889,-3.80189 -0.02117,-0.13299 -0.211667,-0.1337 -0.232834,-0.001 -0.1905,1.09714 -0.557389,3.22651 -0.818444,4.89197 -0.257528,1.64289 -0.356306,3.8347 -0.384528,4.68348 -0.0035,0.11465 -0.151694,0.15769 -0.218722,0.0628 -0.532695,-0.77647 -1.957917,-2.94147 -2.44475,-4.63833 -0.440973,-1.52435 -0.871361,-3.51049 -1.0795,-4.49015 -0.0247,-0.12841 -0.208139,-0.1263 -0.232834,0.003 -0.215194,1.19662 -0.684389,3.86574 -0.786694,5.13644 -0.105834,1.30846 -0.232834,3.20217 -0.282222,3.9557 -0.0071,0.11183 -0.151695,0.15311 -0.215195,0.0617 -0.458611,-0.63853 -1.605139,-2.32904 -2.187222,-3.95252 -0.670278,-1.88207 -1.266473,-3.8661 -1.516945,-4.72052 -0.03528,-0.11783 -0.204611,-0.1136 -0.232833,0.006 -0.141111,0.61736 -0.398639,1.78293 -0.553861,2.81728 -0.232834,1.57127 -0.211667,3.90772 -0.254,5.19289 -0.0035,0.11818 -0.15875,0.15769 -0.218723,0.0571 -1.425222,-2.29517 -2.130777,-4.41784 -2.321277,-5.14103 -0.127,-0.48049 -0.299862,-1.27212 -0.412751,-1.78612 -0.02469,-0.12347 -0.201083,-0.12664 -0.229305,-0.004 -0.176389,0.69638 -0.497417,2.05564 -0.790222,3.62444 -0.148167,0.79692 -0.278695,2.165 -0.338667,2.82293 -0.0071,0.11712 -0.165806,0.14993 -0.22225,0.0473 -0.310445,-0.5588 -0.970139,-1.84926 -1.781528,-4.01179 -0.236361,-0.63959 -0.359833,-1.34726 -0.416278,-1.78999 -0.01764,-0.12171 -0.183444,-0.14288 -0.229305,-0.0293 -0.208139,0.50764 -0.550334,1.46473 -0.776111,2.74178 -0.183445,1.02235 -0.313973,2.03906 -0.384528,2.59539 -0.01411,0.121 -0.176389,0.14535 -0.225778,0.0339 -0.440972,-1.01212 -1.554692,-3.69606 -1.587147,-5.06095"
       style="fill:#725b94;fill-opacity:1;fill-rule:nonzero;stroke:none;stroke-width:0.0352778"
       id="path1506" />
    <path
       d="m 58.449524,166.1928 c 0,-0.25435 0.212372,-0.67663 0.561622,-0.88688 0,0 -1.419225,-2.08986 -3.213453,-2.74391 -1.628422,-0.59372 -3.310467,-0.57185 -3.6068,-0.56268 l -0.05115,0.036 c -0.0254,0.21661 -0.142169,1.24672 0.571853,2.6282 0.395464,0.76553 1.259417,1.39806 1.585383,1.52929 -0.325966,0.13123 -1.189919,0.76377 -1.585383,1.52929 -0.714022,1.38148 -0.597253,2.41159 -0.571853,2.6282 l 0.05115,0.036 c 0.296333,0.009 1.978378,0.031 3.6068,-0.56268 1.794228,-0.65405 3.213453,-2.6603 3.213453,-2.6603 -0.388408,-0.23001 -0.561622,-0.66498 -0.561622,-0.97049"
       style="fill:#725b94;fill-opacity:1;fill-rule:nonzero;stroke:none;stroke-width:0.0352778"
       id="path1508" />
    <path
       d="m 102.50089,165.9007 c 0,0.80645 -0.65264,1.46015 -1.45697,1.46015 -0.80787,0 -1.460505,-0.6537 -1.460505,-1.46015 0,-0.8061 0.652635,-1.45979 1.460505,-1.45979 0.80433,0 1.45697,0.65369 1.45697,1.45979"
       style="fill:#ffffff;fill-opacity:1;fill-rule:nonzero;stroke:none;stroke-width:0.0352778"
       id="path1510" />
    <path
       d="m 102.15869,165.9007 c 0,0.41522 -0.34572,0.75177 -0.76905,0.75177 -0.42334,0 -0.76553,-0.33655 -0.76553,-0.75177 0,-0.41522 0.34219,-0.75177 0.76553,-0.75177 0.42333,0 0.76905,0.33655 0.76905,0.75177"
       style="fill:#333f48;fill-opacity:1;fill-rule:nonzero;stroke:none;stroke-width:0.0352778"
       id="path1512" />
    <path
       d="m 101.31203,165.67245 c 0,0.1651 -0.11995,0.29916 -0.27517,0.29916 -0.15169,0 -0.27517,-0.13406 -0.27517,-0.29916 0,-0.1651 0.12348,-0.29915 0.27517,-0.29915 0.15522,0 0.27517,0.13405 0.27517,0.29915"
       style="fill:#ffffff;fill-opacity:1;fill-rule:nonzero;stroke:none;stroke-width:0.0352778"
       id="path1514" />
    <path
       d="m 103.00889,167.35979 c 1.12889,0.42016 2.58586,0.50553 3.77472,0.50588 1.45697,7.1e-4 2.82928,-0.0159 4.22628,-0.43462 0.0776,-0.0734 0.10936,-0.10618 0.15875,-0.16722 -1.83092,0.60184 -6.15597,0.60537 -8.11742,0.003 -0.12347,-0.0374 -0.16228,0.0476 -0.0423,0.0928"
       style="fill:#333f48;fill-opacity:1;fill-rule:nonzero;stroke:none;stroke-width:0.0352778"
       id="path1516" />
  </g>
</svg>
