<?xml version="1.0" encoding="UTF-8" standalone="no"?>
<svg
   xmlns:dc="http://purl.org/dc/elements/1.1/"
   xmlns:cc="http://creativecommons.org/ns#"
   xmlns:rdf="http://www.w3.org/1999/02/22-rdf-syntax-ns#"
   xmlns:svg="http://www.w3.org/2000/svg"
   xmlns="http://www.w3.org/2000/svg"
   xmlns:sodipodi="http://sodipodi.sourceforge.net/DTD/sodipodi-0.dtd"
   xmlns:inkscape="http://www.inkscape.org/namespaces/inkscape"
   width="210mm"
   height="297mm"
   viewBox="0 0 210 297"
   version="1.1"
   id="svg6036"
   inkscape:version="1.0.2 (e86c8708, 2021-01-15)"
   sodipodi:docname="bubble.svg">
  <defs
     id="defs6030" />
  <sodipodi:namedview
     id="base"
     pagecolor="#ffffff"
     bordercolor="#666666"
     borderopacity="1.0"
     inkscape:pageopacity="0.0"
     inkscape:pageshadow="2"
     inkscape:zoom="0.35"
     inkscape:cx="400"
     inkscape:cy="560"
     inkscape:document-units="mm"
     inkscape:current-layer="layer1"
     inkscape:document-rotation="0"
     showgrid="false"
     inkscape:window-width="1252"
     inkscape:window-height="1005"
     inkscape:window-x="0"
     inkscape:window-y="23"
     inkscape:window-maximized="0" />
  <metadata
     id="metadata6033">
    <rdf:RDF>
      <cc:Work
         rdf:about="">
        <dc:format>image/svg+xml</dc:format>
        <dc:type
           rdf:resource="http://purl.org/dc/dcmitype/StillImage" />
        <dc:title></dc:title>
      </cc:Work>
    </rdf:RDF>
  </metadata>
  <g
     inkscape:label="Layer 1"
     inkscape:groupmode="layer"
     id="layer1">
    <path
       d="m 93.185832,172.77588 c -1.663312,-0.34078 -3.528872,0.37359 -4.241201,2.17735 -0.644348,1.63195 0.05278,3.68159 1.558996,4.58152 1.494755,0.89394 3.673017,0.51894 4.800671,-0.80257 0.848431,-0.99377 1.096222,-2.46415 0.620254,-3.68123 -0.497628,-1.27283 -1.568097,-2.03518 -2.73872,-2.27507"
       style="fill:#cfecf1;fill-opacity:1;fill-rule:nonzero;stroke:none;stroke-width:0.0352778"
       id="path524" />
    <path
       d="m 91.311136,173.6483 c -0.342724,-0.03 -0.806556,0.10936 -1.020446,0.22684 -0.327695,0.17956 -0.628226,0.49918 -0.763834,0.90346 -0.156422,0.46602 -0.05278,1.07492 0.355106,1.18216 0.412327,0.1083 0.628403,-0.23424 0.856474,-0.62336 0.239501,-0.40816 0.694655,-0.51752 0.888824,-0.94897 0.23495,-0.52247 0.01654,-0.71085 -0.316124,-0.74013"
       style="fill:#ffffff;fill-opacity:1;fill-rule:nonzero;stroke:none;stroke-width:0.0352778"
       id="path526" />
    <path
       d="m 102.32909,179.07896 c -1.39054,-0.28504 -2.950491,0.31186 -3.545944,1.82034 -0.538833,1.36454 0.0441,3.07798 1.303334,3.83081 1.25004,0.74718 3.07111,0.43392 4.01409,-0.67098 0.70943,-0.8315 0.91651,-2.06058 0.51858,-3.07834 -0.41593,-1.06398 -1.31092,-1.70145 -2.29006,-1.90183"
       style="fill:#cfecf1;fill-opacity:1;fill-rule:nonzero;stroke:none;stroke-width:0.0352778"
       id="path528" />
    <path
       d="m 100.76188,179.80815 c -0.28664,-0.025 -0.67441,0.0914 -0.853303,0.18945 -0.273931,0.15063 -0.525427,0.41768 -0.638845,0.75565 -0.130492,0.38946 -0.04396,0.89852 0.29711,0.98813 0.344628,0.091 0.525428,-0.19544 0.716138,-0.52106 0.2001,-0.34149 0.58071,-0.4325 0.74306,-0.79339 0.19649,-0.43674 0.0138,-0.59443 -0.26416,-0.61878"
       style="fill:#ffffff;fill-opacity:1;fill-rule:nonzero;stroke:none;stroke-width:0.0352778"
       id="path530" />
    <path
       d="m 102.1527,165.32063 c -1.39054,-0.28505 -2.95049,0.31185 -3.545943,1.82033 -0.538833,1.36455 0.0441,3.07799 1.303337,3.83082 1.250036,0.74718 3.071246,0.43391 4.014086,-0.67099 0.70943,-0.83149 0.91651,-2.06057 0.51858,-3.07834 -0.41593,-1.06397 -1.31092,-1.70144 -2.29006,-1.90182"
       style="fill:#cfecf1;fill-opacity:1;fill-rule:nonzero;stroke:none;stroke-width:0.0352778"
       id="path532" />
    <path
       d="m 100.58549,166.04982 c -0.28663,-0.0251 -0.674408,0.0914 -0.853301,0.18944 -0.273932,0.15064 -0.525428,0.41769 -0.638846,0.75565 -0.130492,0.38947 -0.04396,0.89853 0.29711,0.98813 0.344628,0.091 0.525427,-0.19544 0.716137,-0.52105 0.2001,-0.34149 0.58071,-0.43251 0.74306,-0.7934 0.19649,-0.43674 0.0138,-0.59443 -0.26416,-0.61877"
       style="fill:#ffffff;fill-opacity:1;fill-rule:nonzero;stroke:none;stroke-width:0.0352778"
       id="path534" />
    <path
       d="m 95.097147,184.8998 c -1.390544,-0.28505 -2.950493,0.31185 -3.545946,1.82033 -0.538833,1.36454 0.0441,3.07799 1.303337,3.83081 1.250033,0.74719 3.071249,0.43392 4.013941,-0.67098 0.709578,-0.8315 0.916553,-2.06057 0.518725,-3.07834 -0.416031,-1.06398 -1.311099,-1.70145 -2.290057,-1.90182"
       style="fill:#cfecf1;fill-opacity:1;fill-rule:nonzero;stroke:none;stroke-width:0.0352778"
       id="path536" />
    <path
       d="m 93.529932,185.62899 c -0.286632,-0.025 -0.674406,0.0914 -0.853299,0.18944 -0.273932,0.15064 -0.525428,0.41769 -0.638846,0.75565 -0.130492,0.38947 -0.04396,0.89852 0.29711,0.98813 0.344628,0.091 0.525427,-0.19544 0.716139,-0.52105 0.200095,-0.34149 0.580707,-0.43251 0.743056,-0.7934 0.196497,-0.43674 0.01379,-0.59443 -0.26416,-0.61877"
       style="fill:#ffffff;fill-opacity:1;fill-rule:nonzero;stroke:none;stroke-width:0.0352778"
       id="path538" />
    <path
       d="m 96.043473,162.29415 c -0.960931,-0.1965 -2.038526,0.2159 -2.450041,1.258 -0.372181,0.94263 0.03048,2.12655 0.900571,2.64654 0.863459,0.51647 2.121746,0.29951 2.77301,-0.4639 0.490184,-0.57432 0.633236,-1.42346 0.358316,-2.12655 -0.287196,-0.73483 -0.905651,-1.17545 -1.581856,-1.31409"
       style="fill:#cfecf1;fill-opacity:1;fill-rule:nonzero;stroke:none;stroke-width:0.0352778"
       id="path540" />
    <path
       d="m 94.960445,162.79827 c -0.198014,-0.0173 -0.466019,0.0631 -0.589491,0.13088 -0.189371,0.10371 -0.363009,0.28857 -0.441255,0.52211 -0.09028,0.26917 -0.03034,0.62053 0.205317,0.68262 0.237984,0.0628 0.362832,-0.13546 0.4947,-0.35983 0.138219,-0.23601 0.401179,-0.29916 0.513327,-0.54822 0.135749,-0.30162 0.0095,-0.41063 -0.182598,-0.42756"
       style="fill:#ffffff;fill-opacity:1;fill-rule:nonzero;stroke:none;stroke-width:0.0352778"
       id="path542" />
    <path
       d="m 102.00443,189.95228 c -0.68555,-0.14076 -1.45436,0.15346 -1.74801,0.89711 -0.265716,0.67275 0.0219,1.5173 0.64244,1.88842 0.61623,0.36795 1.51391,0.21379 1.97855,-0.3309 0.34968,-0.40958 0.45198,-1.01565 0.25549,-1.5173 -0.20476,-0.52423 -0.64601,-0.83855 -1.12847,-0.93733"
       style="fill:#cfecf1;fill-opacity:1;fill-rule:nonzero;stroke:none;stroke-width:0.0352778"
       id="path544" />
    <path
       d="m 101.23164,190.31141 c -0.14126,-0.0123 -0.33225,0.0452 -0.42045,0.0935 -0.13504,0.0744 -0.25893,0.20603 -0.31488,0.37254 -0.0643,0.19226 -0.0216,0.44309 0.1465,0.48718 0.16976,0.0444 0.25894,-0.0967 0.35292,-0.25682 0.0986,-0.16863 0.28635,-0.21343 0.3664,-0.39088 0.0968,-0.21554 0.007,-0.29316 -0.13049,-0.3055"
       style="fill:#ffffff;fill-opacity:1;fill-rule:nonzero;stroke:none;stroke-width:0.0352778"
       id="path546" />
    <path
       d="m 99.882966,156.35055 c -0.786448,-0.16122 -1.668816,0.17639 -2.005754,1.02976 -0.3048,0.77152 0.02494,1.7406 0.737271,2.16676 0.706931,0.42262 1.737147,0.24518 2.270447,-0.37959 0.40128,-0.47025 0.51826,-1.16593 0.29337,-1.74131 -0.23548,-0.60184 -0.74165,-0.96238 -1.295334,-1.07562"
       style="fill:#cfecf1;fill-opacity:1;fill-rule:nonzero;stroke:none;stroke-width:0.0352778"
       id="path548" />
    <path
       d="m 98.996329,156.7633 c -0.162066,-0.0145 -0.381317,0.0512 -0.482459,0.10654 -0.15501,0.0854 -0.297391,0.23636 -0.361315,0.42756 -0.07401,0.22049 -0.0248,0.50836 0.167852,0.55916 0.19498,0.0515 0.297356,-0.11078 0.40513,-0.29493 0.113277,-0.19332 0.328542,-0.24447 0.4203,-0.44873 0.111089,-0.24694 0.0079,-0.33584 -0.149508,-0.3496"
       style="fill:#ffffff;fill-opacity:1;fill-rule:nonzero;stroke:none;stroke-width:0.0352778"
       id="path550" />
    <path
       d="m 99.111794,172.49436 c -0.724853,-0.14816 -1.537865,0.16299 -1.848344,0.94898 -0.280706,0.71155 0.02314,1.60443 0.679379,1.99672 0.65151,0.38947 1.600588,0.22613 2.091971,-0.3496 0.36989,-0.43357 0.47777,-1.07421 0.27037,-1.60444 -0.21689,-0.55456 -0.683366,-0.88688 -1.193376,-0.99166"
       style="fill:#cfecf1;fill-opacity:1;fill-rule:nonzero;stroke:none;stroke-width:0.0352778"
       id="path552" />
    <path
       d="m 98.29476,172.87501 c -0.149366,-0.0134 -0.351402,0.0473 -0.444535,0.0984 -0.142769,0.0787 -0.273967,0.21766 -0.333093,0.3937 -0.06795,0.2032 -0.02286,0.46849 0.154905,0.51541 0.179564,0.0473 0.273791,-0.10231 0.373168,-0.27164 0.104317,-0.1778 0.302754,-0.22543 0.38735,-0.41346 0.102412,-0.22789 0.0072,-0.30974 -0.137795,-0.32244"
       style="fill:#ffffff;fill-opacity:1;fill-rule:nonzero;stroke:none;stroke-width:0.0352778"
       id="path554" />
  </g>
</svg>
