<?xml version="1.0" encoding="UTF-8" standalone="no"?>
<svg
   xmlns:dc="http://purl.org/dc/elements/1.1/"
   xmlns:cc="http://creativecommons.org/ns#"
   xmlns:rdf="http://www.w3.org/1999/02/22-rdf-syntax-ns#"
   xmlns:svg="http://www.w3.org/2000/svg"
   xmlns="http://www.w3.org/2000/svg"
   xmlns:sodipodi="http://sodipodi.sourceforge.net/DTD/sodipodi-0.dtd"
   xmlns:inkscape="http://www.inkscape.org/namespaces/inkscape"
   width="210mm"
   height="297mm"
   viewBox="0 0 210 297"
   version="1.1"
   id="svg11186"
   inkscape:version="1.0.2 (e86c8708, 2021-01-15)"
   sodipodi:docname="coral_reef4.svg">
  <defs
     id="defs11180" />
  <sodipodi:namedview
     id="base"
     pagecolor="#ffffff"
     bordercolor="#666666"
     borderopacity="1.0"
     inkscape:pageopacity="0.0"
     inkscape:pageshadow="2"
     inkscape:zoom="0.35"
     inkscape:cx="400"
     inkscape:cy="560"
     inkscape:document-units="mm"
     inkscape:current-layer="layer1"
     inkscape:document-rotation="0"
     showgrid="false"
     inkscape:window-width="1252"
     inkscape:window-height="1005"
     inkscape:window-x="0"
     inkscape:window-y="23"
     inkscape:window-maximized="0" />
  <metadata
     id="metadata11183">
    <rdf:RDF>
      <cc:Work
         rdf:about="">
        <dc:format>image/svg+xml</dc:format>
        <dc:type
           rdf:resource="http://purl.org/dc/dcmitype/StillImage" />
        <dc:title></dc:title>
      </cc:Work>
    </rdf:RDF>
  </metadata>
  <g
     inkscape:label="Layer 1"
     inkscape:groupmode="layer"
     id="layer1">
    <path
       d="m 141.36878,145.46391 c 0,1.04165 1.12501,4.41745 4.25097,9.23149 1.40194,2.15896 5.87446,7.50175 8.62612,9.18944 2.75167,1.68811 3.7712,1.54203 3.7712,1.54203 l 3.35491,-3.91764 c 0,0 -6.87564,-7.12678 -8.93939,-11.56504 -2.06163,-4.43865 -2.87443,-6.93925 -3.06211,-7.06409 -0.18767,-0.12528 -1.75013,-1.56313 -4.37621,-0.75036 -2.62537,0.81251 -3.62549,2.38802 -3.62549,3.33417"
       style="fill:#dc4233;fill-opacity:1;fill-rule:nonzero;stroke:none;stroke-width:0.0352778"
       id="path300" />
    <path
       d="m 151.91401,144.00514 c 0,0 3.91583,11.87771 5.1682,14.0032 1.24883,2.12576 2.95627,3.75101 2.95627,3.75101 l 2.58587,-4.7928 c 0,0 -2.25073,-4.87606 -2.66701,-8.3771 -0.41627,-3.50093 -1.12536,-6.37646 -1.29469,-6.95967 -0.16581,-0.58374 -1.79917,-1.19687 -4.41678,-0.41684 -2.16605,0.6459 -2.45886,2.04212 -2.33186,2.7922"
       style="fill:#dc4233;fill-opacity:1;fill-rule:nonzero;stroke:none;stroke-width:0.0352778"
       id="path302" />
    <path
       d="m 158.53918,164.88528 c -0.13406,0.0646 -1.83445,-0.62547 -3.79236,-2.25072 -1.95792,-1.62553 -3.6696,-4.43467 -4.2926,-5.29304 -0.78705,-1.08342 -0.79199,-2.25034 0.91651,-3.41743 1.70745,-1.16692 4.1522,-1.43782 4.61081,-0.72909 0.45861,0.70831 1.05833,3.02119 1.93322,4.3966 0.87489,1.37516 2.667,3.66751 2.667,3.66751 0,0 -1.00189,3.12597 -2.04258,3.62617"
       style="fill:#dd6646;fill-opacity:1;fill-rule:nonzero;stroke:none;stroke-width:0.0352778"
       id="path304" />
    <path
       d="m 159.70687,139.42079 c -0.0847,0.12524 -0.87489,5.00133 -1.21003,8.12698 -0.30691,2.89623 0.16581,6.32989 1.12537,8.33508 0.68791,1.43785 2.37772,3.12554 2.37772,3.12554 0,0 3.04094,-6.58456 3.66536,-8.33508 0.62442,-1.7501 1.66864,-9.37715 1.66864,-9.50204 0,-0.12523 -0.54328,-1.83373 -3.08328,-2.54246 -2.54353,-0.70838 -4.54378,0.79198 -4.54378,0.79198"
       style="fill:#dd6646;fill-opacity:1;fill-rule:nonzero;stroke:none;stroke-width:0.0352778"
       id="path306" />
    <path
       d="m 164.16598,148.54782 c -0.0952,-0.29379 -0.13405,-0.60646 -0.13758,-0.91087 -0.52917,1.03752 -2.23308,8.41664 -3.28083,10.83 -1.08303,2.50045 -2.3742,5.58436 -3.41842,6.83464 -0.0776,0.0964 2.00025,0.54187 2.95981,-0.12484 0.95955,-0.66682 5.00239,-5.00105 6.70983,-8.00171 1.69686,-2.97713 2.68817,-4.76183 3.11856,-7.09016 -1.97909,1.55197 -5.60564,-0.45586 -5.95137,-1.53706"
       style="fill:#dd7959;fill-opacity:1;fill-rule:nonzero;stroke:none;stroke-width:0.0352778"
       id="path308" />
    <path
       d="m 167.44682,147.14871 c -1.74978,-0.53619 -3.26672,-0.10379 -3.43606,0.53453 -0.0705,0.36325 0.004,0.70516 0.15522,1.01067 0.68439,1.37446 4.52262,3.34461 5.85964,1.62003 0.0635,-0.0802 0.0917,-0.16306 0.0952,-0.21005 0.067,-0.70693 -0.92075,-2.41857 -2.67405,-2.95518"
       style="fill:#f9aa84;fill-opacity:1;fill-rule:nonzero;stroke:none;stroke-width:0.0352778"
       id="path310" />
    <path
       d="m 167.3551,147.8169 c -1.34409,-0.41134 -2.50473,-0.0798 -2.63878,0.41025 -0.0529,0.27905 0.004,0.54116 0.11994,0.77544 0.52564,1.05473 3.47134,2.56755 4.49792,1.24379 0.0494,-0.0613 0.0705,-0.12552 0.0741,-0.16108 0.0494,-0.54296 -0.70555,-1.85678 -2.05316,-2.2684"
       style="fill:#c4433e;fill-opacity:1;fill-rule:nonzero;stroke:none;stroke-width:0.0352778"
       id="path312" />
    <path
       d="m 164.25065,138.62881 c -2.36361,-0.65794 -4.37092,-0.0208 -4.55436,0.8075 -0.16228,0.81774 0.0353,1.18216 0.635,1.81826 1.3335,1.41703 4.50144,1.29176 5.49981,0.95842 0.47977,-0.15903 1.44991,-0.60427 1.50283,-1.03889 0.0705,-0.60713 -0.54328,-1.83656 -3.08328,-2.54529"
       style="fill:#f9aa84;fill-opacity:1;fill-rule:nonzero;stroke:none;stroke-width:0.0352778"
       id="path314" />
    <path
       d="m 164.23654,139.10894 c -1.70744,-0.47661 -3.10444,-0.0639 -3.30906,0.45861 -0.22225,0.57855 0.0459,0.87771 0.51506,1.30175 0.81139,0.73487 3.22086,0.90946 3.96522,0.7397 0.71261,-0.16263 1.04775,-0.38491 1.08656,-0.7524 0.0564,-0.54081 -0.41628,-1.23473 -2.25778,-1.74766"
       style="fill:#c4433e;fill-opacity:1;fill-rule:nonzero;stroke:none;stroke-width:0.0352778"
       id="path316" />
    <path
       d="m 158.60973,141.32854 c -0.52916,-1.76981 -3.937,-0.77533 -5.04472,-0.25463 -0.93839,0.44055 -2.18722,1.57441 -1.66158,2.71251 0.13758,0.30194 0.53975,0.66671 1.68628,0.74993 1.64041,0.11963 3.50308,-0.39783 4.56847,-1.70737 0.33161,-0.40612 0.59619,-0.93211 0.46566,-1.44008 l -0.0141,-0.0604"
       style="fill:#f9aa84;fill-opacity:1;fill-rule:nonzero;stroke:none;stroke-width:0.0352778"
       id="path318" />
    <path
       d="m 157.91829,141.85704 c -0.36689,-1.24174 -2.76225,-0.54391 -3.53836,-0.17886 -0.6597,0.30935 -1.53459,1.10532 -1.1677,1.90401 0.0988,0.21195 0.381,0.46772 1.18534,0.52628 1.15005,0.0836 2.45886,-0.27933 3.20675,-1.19807 0.23283,-0.2854 0.41627,-0.65469 0.32808,-1.01106 l -0.0141,-0.0423"
       style="fill:#c4433e;fill-opacity:1;fill-rule:nonzero;stroke:none;stroke-width:0.0352778"
       id="path320" />
    <path
       d="m 153.30748,152.85104 c -0.0776,0.024 -1.41464,0.40637 -2.30117,1.22947 -0.88547,0.82296 -1.17757,1.67735 -1.14617,2.04212 0.0367,0.42552 0.29351,0.73946 1.20862,0.73946 1.07456,0 3.05364,-0.67663 3.91795,-1.48982 0.87488,-0.82296 1.10419,-1.72956 0.99836,-2.09405 -0.10231,-0.36477 -0.92428,-0.94823 -2.67759,-0.42718"
       style="fill:#f9aa84;fill-opacity:1;fill-rule:nonzero;stroke:none;stroke-width:0.0352778"
       id="path322" />
    <path
       d="m 153.19459,153.4229 c -0.0529,0.0165 -0.98777,0.28402 -1.60866,0.85979 -0.61948,0.57559 -0.82339,1.17323 -0.80187,1.42832 0.0258,0.29778 0.20532,0.51746 0.8442,0.51746 0.75142,0 2.13783,-0.47378 2.74108,-1.04236 0.61031,-0.57548 0.77259,-1.20935 0.6985,-1.46445 -0.0705,-0.25506 -0.64911,-0.66325 -1.87325,-0.29876"
       style="fill:#c4433e;fill-opacity:1;fill-rule:nonzero;stroke:none;stroke-width:0.0352778"
       id="path324" />
    <path
       d="m 145.01438,141.70778 c -0.0963,0.0265 -0.18838,0.0536 -0.27587,0.0812 -1.47108,0.4625 -3.32211,1.61467 -3.40748,3.33485 -0.0134,0.27164 0.0229,0.54324 0.10019,0.80355 0.16651,0.56279 0.9271,1.80951 3.41736,1.62042 2.19322,-0.16686 3.75108,-1.28528 4.28766,-2.27651 0.51541,-0.9536 0.50518,-2.20377 0.005,-2.91222 -0.83432,-1.18177 -2.8314,-1.00333 -4.1268,-0.65126"
       style="fill:#f9aa84;fill-opacity:1;fill-rule:nonzero;stroke:none;stroke-width:0.0352778"
       id="path326" />
    <path
       d="m 145.50227,142.68512 c -0.0699,0.0116 -0.13652,0.0236 -0.20037,0.0362 -1.06645,0.21413 -2.42182,0.8001 -2.52236,1.75369 -0.0159,0.1506 0.004,0.30304 0.0533,0.45007 0.10689,0.31764 0.62441,1.03297 2.41688,1.00126 1.57868,-0.028 2.72273,-0.60329 3.13019,-1.13881 0.39194,-0.5147 0.41346,-1.21031 0.0702,-1.61889 -0.57186,-0.68189 -2.00978,-0.64135 -2.94782,-0.48355"
       style="fill:#c4433e;fill-opacity:1;fill-rule:nonzero;stroke:none;stroke-width:0.0352778"
       id="path328" />
  </g>
</svg>
