<?xml version="1.0" encoding="UTF-8" standalone="no"?>
<svg
   xmlns:dc="http://purl.org/dc/elements/1.1/"
   xmlns:cc="http://creativecommons.org/ns#"
   xmlns:rdf="http://www.w3.org/1999/02/22-rdf-syntax-ns#"
   xmlns:svg="http://www.w3.org/2000/svg"
   xmlns="http://www.w3.org/2000/svg"
   xmlns:sodipodi="http://sodipodi.sourceforge.net/DTD/sodipodi-0.dtd"
   xmlns:inkscape="http://www.inkscape.org/namespaces/inkscape"
   width="210mm"
   height="297mm"
   viewBox="0 0 210 297"
   version="1.1"
   id="svg9584"
   inkscape:version="1.0.2 (e86c8708, 2021-01-15)"
   sodipodi:docname="coral_reef.svg">
  <defs
     id="defs9578" />
  <sodipodi:namedview
     id="base"
     pagecolor="#ffffff"
     bordercolor="#666666"
     borderopacity="1.0"
     inkscape:pageopacity="0.0"
     inkscape:pageshadow="2"
     inkscape:zoom="0.35"
     inkscape:cx="400"
     inkscape:cy="560"
     inkscape:document-units="mm"
     inkscape:current-layer="layer1"
     inkscape:document-rotation="0"
     showgrid="false"
     inkscape:window-width="1252"
     inkscape:window-height="1005"
     inkscape:window-x="0"
     inkscape:window-y="23"
     inkscape:window-maximized="0" />
  <metadata
     id="metadata9581">
    <rdf:RDF>
      <cc:Work
         rdf:about="">
        <dc:format>image/svg+xml</dc:format>
        <dc:type
           rdf:resource="http://purl.org/dc/dcmitype/StillImage" />
        <dc:title></dc:title>
      </cc:Work>
    </rdf:RDF>
  </metadata>
  <g
     inkscape:label="Layer 1"
     inkscape:groupmode="layer"
     id="layer1">
    <path
       d="m 151.80067,205.47607 c -0.079,-0.22793 -0.26529,-0.41381 -0.51153,-0.51054 -0.007,-0.003 -0.41098,-0.12347 -0.83255,-0.19678 l 0.78352,-0.77474 c 0.11324,-0.11218 0.4579,-0.45296 0.27163,-0.84349 -0.1718,-0.35955 -0.64523,-0.41137 -1.03822,-0.30279 -0.8322,0.22945 -1.42946,0.77791 -2.00695,1.30821 l -0.17216,0.15695 c -1.78258,1.6189 -3.97651,2.92061 -6.36975,3.78326 0.14463,-0.81072 0.49141,-1.59135 1.01741,-2.28039 l 0.0981,-0.12732 c 0.20708,-0.26458 0.44168,-0.56444 0.51999,-0.93031 0.0579,-0.27136 -0.001,-0.57189 -0.15734,-0.80437 -0.14499,-0.21551 -0.363,-0.35913 -0.61348,-0.40389 -0.62512,-0.11123 -1.13912,0.3919 -1.37054,0.94121 l -0.048,0.11574 c -0.0776,0.18863 -0.15275,0.3718 -0.25435,0.51319 l -0.23036,-1.12007 c -0.0402,-0.19473 -0.12383,-0.60071 -0.49777,-0.78564 -0.22402,-0.11147 -0.49424,-0.10541 -0.74048,0.0163 -0.27376,0.13437 -0.47696,0.38558 -0.53093,0.65581 -0.0741,0.37084 0.0628,0.70873 0.18344,1.00679 0.0183,0.0456 0.0367,0.0907 0.0543,0.13589 0.44767,1.15987 0.26352,2.47192 -0.49318,3.51014 -0.76835,1.05336 -2.08774,1.77836 -3.52955,1.93887 -0.27093,0.0299 -0.34325,-0.0145 -0.35948,-0.0293 -0.0226,-0.0204 -0.0314,-0.0916 -0.0265,-0.21124 0.13088,-3.18492 2.41158,-6.04944 4.73568,-8.71044 1.92935,-2.2091 3.55248,-3.98921 5.10823,-5.60211 0.79198,-0.82127 1.66017,-1.63795 2.79435,-1.81046 0.0646,-0.01 0.13159,-0.0191 0.20038,-0.0286 0.60607,-0.0843 1.43686,-0.20038 1.55892,-0.87701 0.048,-0.26564 -0.0469,-0.51576 -0.26705,-0.70485 -0.35913,-0.30797 -1.01036,-0.40887 -1.51483,-0.2353 -0.27128,0.0938 -0.51082,0.22895 -0.74224,0.35983 -0.21379,0.12065 -0.41875,0.23601 -0.63289,0.30974 -0.0183,-0.13264 3.6e-4,-0.28822 0.0208,-0.45932 0.0123,-0.1023 0.0243,-0.20425 0.0296,-0.30444 0.0173,-0.33867 -0.10654,-0.68863 -0.32314,-0.91335 -0.17533,-0.18132 -0.39723,-0.27199 -0.64523,-0.27058 -0.41805,0.007 -0.92781,0.26282 -0.97967,1.44181 -0.0734,1.65488 -1.3783,3.09915 -2.82504,4.55577 -0.0674,0.0677 -0.12065,0.10301 -0.14958,0.121 l 3.5e-4,-0.0148 c 0.0124,-0.21732 0.13476,-0.44203 0.26459,-0.67981 0.0967,-0.17709 0.19614,-0.35983 0.26423,-0.56162 0.12241,-0.36371 0.0586,-0.79445 -0.16263,-1.0982 -0.1838,-0.25223 -0.45473,-0.38664 -0.76095,-0.38488 -0.64734,0.008 -1.04775,0.58491 -1.06997,1.54164 -0.0519,2.18581 -1.13418,4.3113 -2.96933,5.83216 l -0.005,0.005 -0.0145,-0.0624 c -0.0893,-0.67952 0.005,-1.3843 0.27235,-2.04012 0.0367,-0.054 0.0723,-0.10795 0.10795,-0.16227 0.12065,-0.18309 0.23424,-0.35596 0.38206,-0.49319 0.34995,-0.32349 0.59513,-0.89852 0.30762,-1.39594 -0.2286,-0.39476 -0.76447,-0.54892 -1.17052,-0.33796 -0.33831,0.17639 -0.50553,0.5775 -0.55492,0.90629 l -0.0572,0.0406 c -0.16016,0.0709 -0.35136,-0.14323 -0.45191,-0.29951 -0.0155,-0.048 -0.0317,-0.096 -0.0494,-0.14358 -0.0469,-0.47766 -0.31432,-0.82691 -0.73836,-0.96273 -0.49424,-0.15805 -1.022,0.043 -1.20121,0.45861 -0.24624,0.57044 0.2092,1.12889 0.51082,1.4986 0.036,0.0445 0.0702,0.0864 0.10125,0.12594 0.11959,0.1524 0.23425,0.34043 0.35595,0.5394 0.13335,0.21837 0.27129,0.44379 0.43251,0.65087 0.12876,0.26705 0.22613,0.508 0.29633,0.7359 0.10443,0.61207 0.0991,1.24636 -0.0152,1.88563 -0.0691,0.38559 -0.17462,0.77279 -0.32243,1.18209 l -0.0423,0.054 -0.0116,0.0152 -0.0314,-0.0269 c -0.007,-0.012 -0.0116,-0.0581 0.0194,-0.14771 l 0.0258,-0.0753 -0.0138,-0.0779 c -0.0106,-0.059 -0.0109,-0.0914 -0.0109,-0.12594 -0.001,-0.17791 -0.0448,-0.2752 -0.2039,-0.45297 -0.14676,-0.16481 -0.33408,-0.2311 -0.55633,-0.19872 -0.47378,0.071 -0.66781,0.32466 -0.74754,0.52504 -0.17039,0.42898 0.0487,0.93553 0.28787,1.23928 0.1016,0.12939 0.19579,0.22253 0.27128,0.29806 0.17922,0.17819 0.21661,0.21523 0.16405,0.56487 -0.0212,0.1404 -0.0928,0.30716 -0.16828,0.4681 -0.18485,0.30166 -0.38629,0.60924 -0.6163,0.94078 -0.18239,0.26321 -0.34714,0.44567 -0.56021,0.47985 -0.25471,0.0405 -0.53587,-0.13934 -0.77999,-0.31185 l -3.28966,-2.32407 c -1.37301,-0.96985 -2.74884,-2.14065 -2.54529,-3.46921 0.18909,-1.23617 1.74731,-2.08108 3.20781,-2.37 l 0.0952,-0.0187 c 0.35066,-0.0677 0.74789,-0.14499 1.05763,-0.38312 0.24024,-0.1852 0.38206,-0.4773 0.36971,-0.7627 -0.01,-0.23636 -0.12877,-0.44485 -0.32562,-0.57115 -0.38241,-0.24553 -0.85372,-0.10865 -1.22096,0.0385 l -1.74202,0.69709 c 0.3803,-0.8957 1.00895,-1.72367 1.81399,-2.37701 l 0.0903,-0.0727 c 0.30586,-0.24518 0.65264,-0.52281 0.77364,-0.9338 0.0829,-0.28222 -0.002,-0.61595 -0.21555,-0.8509 -0.20496,-0.22542 -0.48542,-0.32314 -0.76905,-0.2674 -0.48366,0.0942 -0.63747,0.51258 -0.75001,0.81809 -0.0307,0.084 -0.0596,0.16263 -0.0921,0.23248 -0.0117,-0.0677 -0.0279,-0.13758 -0.0554,-0.20567 -0.10971,-0.27305 -0.37641,-0.42192 -0.71508,-0.39899 -0.37677,0.0257 -0.83361,0.27799 -0.93768,0.69391 -0.0935,0.37289 0.0258,0.72037 0.13123,1.02694 0.0452,0.13194 0.0882,0.25647 0.11289,0.37606 0.0342,0.16757 -0.0166,0.37606 -0.12136,0.49706 -0.0639,0.0734 -0.13934,0.10619 -0.22966,0.1009 -0.0808,-0.005 -0.13758,-0.0318 -0.18485,-0.0868 -0.11606,-0.1344 -0.16969,-0.42686 -0.14076,-0.76341 0.0303,-0.35136 -0.0497,-0.87206 -0.37606,-1.18392 -0.1905,-0.18239 -0.43145,-0.26035 -0.69674,-0.22507 -0.46531,0.061 -0.75212,0.44697 -0.78352,1.0167 -0.3817,-0.0254 -0.77434,0.004 -1.0922,0.22225 -0.28081,0.19368 -0.40534,0.56268 -0.30233,0.89818 0.0917,0.2995 0.34043,0.48789 0.64841,0.49 0.16968,-0.006 0.31644,-0.0547 0.43392,-0.0998 0.0381,-0.0148 0.0765,-0.0296 0.11571,-0.0416 0.4519,-0.13864 0.9726,0.22613 1.10243,0.62089 0.14605,0.44203 -0.004,0.94897 -0.1838,1.4732 -0.15275,0.44379 -0.59514,1.46685 -1.41041,1.385 -0.39652,-0.0392 -0.71049,-0.33972 -1.02376,-0.67027 -0.85936,-0.9077 -1.75789,-1.96498 -1.53881,-3.02719 l 0.012,-0.0586 c 0.0755,-0.35842 0.20179,-0.9585 -0.33267,-1.22696 -0.2092,-0.10513 -0.4512,-0.10619 -0.68157,-0.005 -0.28716,0.127 -0.52634,0.40005 -0.6096,0.69639 -0.0402,0.14463 -0.0568,0.28539 -0.073,0.42121 -0.012,0.1016 -0.0229,0.19615 -0.043,0.28117 -0.13053,-0.0907 -0.25365,-0.23601 -0.3817,-0.38594 -0.27023,-0.31856 -0.6403,-0.75424 -1.20333,-0.54399 -0.21766,0.0811 -0.37465,0.24942 -0.44274,0.47343 -0.0748,0.24836 -0.0247,0.53622 0.13124,0.75142 0.19755,0.27411 0.50412,0.43568 0.7747,0.5782 l 0.11394,0.0607 c 0.6784,0.36654 1.26224,0.86783 1.68734,1.44956 0.0716,0.0977 0.15346,0.22084 0.15205,0.30833 -10e-4,0.0589 -0.0448,0.18838 -0.32703,0.39017 -1.0608,0.75671 -2.67299,0.92922 -3.92006,0.41804 l -0.11572,-0.048 c -0.31608,-0.13371 -0.67486,-0.2854 -1.07209,-0.20285 -0.39229,0.0818 -0.65793,0.36971 -0.70943,0.77011 -0.0628,0.48507 0.20073,0.97674 0.64064,1.19627 0.55069,0.27411 1.17546,0.2304 1.79352,0.10831 -0.10124,0.17349 -0.28716,0.35486 -0.46919,0.53262 -0.0759,0.0737 -0.15064,0.14676 -0.22013,0.21953 -0.33585,0.35056 -0.48543,0.89352 -0.35631,1.29082 0.0938,0.28744 0.32456,0.48355 0.63359,0.53894 0.83255,0.14855 1.2319,-0.78342 1.38254,-1.13454 0.32808,-0.7633 1.06927,-1.43439 1.98296,-1.79422 0.8696,-0.34216 1.7526,-0.35236 2.48708,-0.0289 0.56198,0.24737 1.01494,0.6653 1.45345,1.06962 l 3.69323,3.4079 0.0504,0.0491 c -0.0409,0.0116 -0.10302,0.0242 -0.19403,0.0349 -1.66864,0.19085 -3.24944,0.76796 -4.57165,1.66906 l -0.13441,0.0927 c -0.30056,0.20782 -0.58385,0.4046 -0.91263,0.47586 -0.31997,0.0699 -0.70344,-0.05 -0.75883,-0.23774 -0.0353,-0.11754 0.0356,-0.30025 0.10372,-0.47734 0.115,-0.29778 0.27234,-0.70556 -0.019,-1.06645 -0.18839,-0.23248 -0.49354,-0.32911 -0.83785,-0.26529 -0.40252,0.0755 -0.74471,0.34918 -0.85125,0.68199 -0.13653,0.42471 0.009,0.83538 0.1845,1.16872 -0.11324,-0.0287 -0.26247,-0.0918 -0.44238,-0.17141 -0.39653,-0.17615 -0.84632,-0.37511 -1.28835,-0.21707 -0.28504,0.10171 -0.47801,0.34301 -0.51611,0.64534 -0.0452,0.35623 0.12947,0.73409 0.43427,0.93969 0.44732,0.30233 1.00541,0.31404 1.58538,0.29916 l 2.42112,-0.0613 c 0.0907,-0.003 0.15134,0.003 0.18979,0.01 -0.0938,0.17434 -0.25576,0.33238 -0.42721,0.49957 -0.13723,0.1338 -0.27905,0.27241 -0.40041,0.43254 -0.22119,0.29217 -0.31714,0.6689 -0.25047,0.98351 0.0522,0.24736 0.2025,0.45049 0.42298,0.57298 0.47061,0.26073 1.0661,0.0593 1.38783,-0.26279 0.26,-0.26045 0.38629,-0.5818 0.49742,-0.8654 l 0.0508,-0.12802 c 0.58949,-1.45426 1.8295,-2.6078 3.31717,-3.08681 1.61678,-0.52077 3.54718,-0.16054 4.58999,0.85687 0.63112,0.61556 0.95567,1.44734 1.16769,2.10291 0.7433,2.29799 0.84984,4.73325 0.31256,7.07139 -1.09467,-0.75145 -2.16887,-1.71058 -1.94768,-2.78377 0.0473,-0.22821 0.15487,-0.45547 0.26881,-0.69536 0.13865,-0.2927 0.28258,-0.59616 0.33232,-0.93694 0.0607,-0.41494 -0.10901,-0.8774 -0.43286,-1.17796 -0.28116,-0.26169 -0.63112,-0.36255 -0.98495,-0.28385 -0.29916,0.0659 -0.53305,0.24017 -0.67593,0.50366 -0.23812,0.43918 -0.16651,1.01244 -0.0201,1.4023 l 0.0134,0.0359 c 0.22402,0.59521 0.36089,1.03657 0.079,1.29152 -0.27904,0.25259 -0.86818,0.14828 -1.15464,-0.11465 -0.27411,-0.25149 -0.41804,-0.62301 -0.46637,-1.204 -0.097,-1.17189 -0.6283,-1.43756 -1.05692,-1.45478 -0.27129,-0.0113 -0.52776,0.0963 -0.72179,0.30191 -0.20179,0.21346 -0.30621,0.50546 -0.27975,0.78108 0.0138,0.1414 0.0526,0.27369 0.10795,0.39868 -0.0363,0.0102 -0.072,0.0233 -0.10654,0.0387 -0.21025,0.0938 -0.36795,0.27273 -0.4325,0.49071 -0.0596,0.20218 -0.0307,0.41589 0.0801,0.58639 0.15522,0.23989 0.42862,0.36018 0.60995,0.43984 0.28293,0.12499 0.57185,0.24846 0.86289,0.37331 2.29412,0.98309 4.6662,2.00025 5.47794,3.93622 0.59655,1.42311 0.15593,3.08903 -0.19862,4.42779 l -0.0519,0.1965 0.16157,0.12347 c 0.25929,0.19791 0.57996,0.29986 0.93098,0.29986 0.14711,0 0.29986,-0.0176 0.45543,-0.0543 0.63077,-0.14757 1.20368,-0.57683 1.45874,-1.09333 0.37395,-0.75738 0.27623,-1.56351 0.18168,-2.34308 -0.0141,-0.11617 -0.0282,-0.23149 -0.0406,-0.34643 -0.16933,-1.58228 0.0268,-3.20435 0.21626,-4.77241 0.13299,-1.10176 0.28433,-2.35053 1.03928,-3.30662 0.76553,-0.96944 2.03023,-1.53416 3.48262,-2.12232 1.25695,-0.50792 2.30928,-0.89778 3.45511,-0.91475 0.69991,-0.0109 1.42839,0.12873 2.13324,0.26321 1.10173,0.21057 2.24155,0.42788 3.34645,0.10156 0.15981,-0.0468 0.34149,-0.11465 0.47555,-0.26098 0.13405,-0.14538 0.18873,-0.33585 0.15416,-0.53633 -0.0423,-0.24296 -0.21554,-0.47131 -0.45155,-0.59506 -0.33161,-0.17431 -0.72673,-0.16824 -1.01565,-0.16479 l -2.29799,0.0325 c -0.1898,0.003 -0.3168,-0.0276 -0.38136,-0.0544 0.0212,-0.0211 0.0557,-0.0518 0.11219,-0.0941 1.28305,-0.95885 2.84903,-1.61988 4.5286,-1.91205 0.37218,-0.0649 0.7419,-0.10019 1.13348,-0.13794 l 0.20708,-0.0198 c 0.26106,-0.0261 0.80433,-0.0792 0.8576,-0.65748 0.0102,-0.1083 -0.003,-0.21551 -0.0385,-0.3182"
       style="fill:#4fab62;fill-opacity:1;fill-rule:nonzero;stroke:none;stroke-width:0.0352778"
       id="path2086" />
  </g>
</svg>
