<?xml version="1.0" encoding="UTF-8" standalone="no"?>
<svg
   xmlns:dc="http://purl.org/dc/elements/1.1/"
   xmlns:cc="http://creativecommons.org/ns#"
   xmlns:rdf="http://www.w3.org/1999/02/22-rdf-syntax-ns#"
   xmlns:svg="http://www.w3.org/2000/svg"
   xmlns="http://www.w3.org/2000/svg"
   xmlns:sodipodi="http://sodipodi.sourceforge.net/DTD/sodipodi-0.dtd"
   xmlns:inkscape="http://www.inkscape.org/namespaces/inkscape"
   width="210mm"
   height="297mm"
   viewBox="0 0 210 297"
   version="1.1"
   id="svg11126"
   inkscape:version="1.0.2 (e86c8708, 2021-01-15)"
   sodipodi:docname="coral_reef3.svg">
  <defs
     id="defs11120" />
  <sodipodi:namedview
     id="base"
     pagecolor="#ffffff"
     bordercolor="#666666"
     borderopacity="1.0"
     inkscape:pageopacity="0.0"
     inkscape:pageshadow="2"
     inkscape:zoom="0.35"
     inkscape:cx="400"
     inkscape:cy="560"
     inkscape:document-units="mm"
     inkscape:current-layer="layer1"
     inkscape:document-rotation="0"
     showgrid="false"
     inkscape:window-width="1252"
     inkscape:window-height="1005"
     inkscape:window-x="0"
     inkscape:window-y="23"
     inkscape:window-maximized="0" />
  <metadata
     id="metadata11123">
    <rdf:RDF>
      <cc:Work
         rdf:about="">
        <dc:format>image/svg+xml</dc:format>
        <dc:type
           rdf:resource="http://purl.org/dc/dcmitype/StillImage" />
        <dc:title></dc:title>
      </cc:Work>
    </rdf:RDF>
  </metadata>
  <g
     inkscape:label="Layer 1"
     inkscape:groupmode="layer"
     id="layer1">
    <path
       d="m 125.70337,170.53134 0.0317,-0.0106 0.0635,-0.0321 c 0.0459,-0.007 0.0847,-0.003 0.14816,0.0448 0.18345,0.139 0.29634,0.46602 0.17992,0.67381 -0.0318,0.0536 -0.0776,0.10442 -0.127,0.14393 l -0.0635,0.0374 -0.0459,-0.0444 -0.0494,-0.0787 c 0.0106,-0.0907 -0.0212,-0.18309 -0.0847,-0.23318 -0.0423,-0.16228 -0.0564,-0.33408 -0.0529,-0.50095 z m -0.23989,-0.073 -0.0141,-0.0145 z m -13.76539,3.68124 c -0.20602,0.0127 -0.514,-0.0476 -0.44415,-0.30974 0.0409,-0.15593 0.17992,-0.27905 0.33514,-0.35913 0.1718,0.0688 0.31291,0.15698 0.35913,0.36795 0.0413,0.18556 -0.0367,0.28786 -0.25012,0.30092 z m -2.42394,-1.76848 c -0.0639,-0.13264 -0.0388,-0.27905 -0.005,-0.42686 0.024,0.10301 0.0674,0.20214 0.13335,0.29915 0.20461,0.30198 0.53093,0.46179 0.82655,0.64947 -0.363,-0.0942 -0.81668,-0.23495 -0.95532,-0.52176 z m -3.5059,-7.75899 c -0.15099,0.0748 -0.34643,0.0691 -0.49425,-0.003 0.0212,-0.0536 0.0162,-0.11677 -0.0318,-0.15452 -0.0593,-0.0462 -0.12135,-0.0864 -0.18485,-0.12453 -0.005,-0.0406 -0.004,-0.084 0.006,-0.13088 0.0494,-0.23989 0.22613,-0.44309 0.45685,-0.5147 0.06,-0.0183 0.12206,-0.0303 0.18345,-0.043 0.16016,0.12594 0.42368,0.11077 0.44414,0.35736 0.0205,0.24095 -0.17039,0.51012 -0.37923,0.61349 z m -0.12595,-1.43687 c -0.0868,-0.004 -0.17109,0.004 -0.254,0.0222 -0.012,-0.40993 0.0691,-0.81351 0.10478,-1.21109 0.14922,0.42192 0.3048,0.85302 0.14922,1.18886 z m 0.43251,0.072 c 0.0169,-0.0317 0.0307,-0.0653 0.042,-0.10019 0.0194,0.0427 0.0413,0.0864 0.066,0.13017 -0.0356,-0.0131 -0.0713,-0.0226 -0.10795,-0.03 z m 6.12563,-4.70994 c 0.0254,-0.0466 0.0314,-0.10125 0.019,-0.14993 l 0.0356,-0.0705 c 0.14041,-0.21979 0.36231,-0.35525 0.58315,-0.49284 0.2794,0.0505 0.3937,0.13477 0.39193,0.46003 -0.001,0.23459 -0.0952,0.59055 -0.3496,0.67169 -0.27799,0.0889 -0.65158,-0.14147 -0.68016,-0.4184 z m 4.61398,2.31422 c -0.0268,0.2413 -0.23847,0.47837 -0.48859,0.30375 l -0.0776,-0.0794 c 0.2166,-0.13476 0.12453,-0.48507 -0.0819,-0.56303 l 0.001,-0.0106 c 0.0508,-0.21801 0.14817,-0.27622 0.29246,-0.31256 0.23142,0.15946 0.38982,0.34184 0.35418,0.66181 z m 2.76825,6.90069 c 0.11289,-0.18838 -0.14816,-0.42757 -0.3302,-0.30515 l -0.0709,0.0512 c -0.0441,-0.0589 -0.0804,-0.12312 -0.10583,-0.18909 -0.0914,-0.23742 0.0272,-0.2988 0.15522,-0.41063 0.23531,0.0931 0.45756,0.17568 0.62689,0.39793 0.18344,0.23883 0.14464,0.42686 -0.17992,0.4572 -0.0353,0.003 -0.067,0.002 -0.0953,-0.001 z m 11.45823,0.0162 c -0.74084,-0.42334 -2.38125,-0.69639 -2.58939,0.49177 -0.0423,0.23036 0.0106,0.46637 0.0141,0.69779 0.0106,0.47767 -0.0635,0.58032 -0.51153,0.62407 -0.17286,0.0173 -0.3422,0.0593 -0.49742,0.12065 0.23284,-0.26141 0.44097,-0.53799 0.55386,-0.85055 0.0882,-0.25576 0.0847,-0.49706 0.0388,-0.76165 -0.0141,-0.0847 -0.0847,-0.21202 -0.067,-0.29315 0.0282,-0.14817 0.29634,-0.29845 0.39159,-0.41522 0.0741,-0.0847 0.0282,-0.21978 -0.0917,-0.22225 -0.54328,-0.0102 -0.78316,0.37006 -0.71614,0.86042 0.0741,0.53905 -0.0212,0.84596 -0.37747,1.2693 -0.16228,0.19438 -0.34572,0.37535 -0.50447,0.57326 0.0247,-0.10442 0.0388,-0.21378 0.0459,-0.32985 0.0176,-0.48224 -0.1905,-0.77999 0.16581,-1.1624 0.29986,-0.32385 0.50447,-0.64629 0.63147,-1.0728 0.14464,-0.49177 0.33866,-1.14653 0.28928,-1.66088 -0.0106,-0.10971 -0.13759,-0.14463 -0.20109,-0.055 -0.28575,0.39476 -0.26811,0.9585 -0.38805,1.42205 -0.14111,0.55139 -0.44098,0.88688 -0.762,1.33526 -0.39159,0.55281 0.17286,1.21109 -0.14817,1.79035 -0.0847,-0.0706 -0.17639,-0.12665 -0.27517,-0.16157 0.0423,-0.3048 0.0741,-0.60819 0.067,-0.92252 -0.007,-0.41275 -0.18344,-0.95461 -0.067,-1.3462 0.15875,-0.54398 0.88548,-0.66216 0.66675,-1.31304 -0.0529,-0.15451 -0.24341,-0.14146 -0.29986,0 -0.20108,0.50271 -0.77611,0.79728 -0.83608,1.37372 -0.0388,0.375 0.0882,0.78634 0.11289,1.15993 0.0247,0.34185 0.0564,0.67557 0.0988,1.01036 -0.11642,0.008 -0.23284,0.0515 -0.33867,0.14288 -0.0423,0.0356 -0.0635,0.0889 -0.0706,0.14393 l -0.067,0.0677 c -0.0176,0.0328 -0.0353,0.0684 -0.0494,0.10513 -0.23284,-0.12559 -0.41981,-0.23777 -0.381,-0.59408 0.0282,-0.27693 0.14464,-0.53975 0.17639,-0.81703 0.0282,-0.26988 -0.0141,-0.47625 -0.11995,-0.72355 -0.17286,-0.40781 -0.21519,-0.5588 -0.0423,-1.00118 0.0494,-0.12383 -0.10584,-0.19615 -0.20109,-0.15381 -0.33866,0.15169 -0.51152,0.45684 -0.42686,0.83149 0.0494,0.22014 0.21167,0.39829 0.2787,0.61172 0.0988,0.32667 -0.0212,0.61419 -0.0953,0.92992 -0.14817,0.63006 0.0318,1.42452 0.74083,1.3963 0.007,0.10513 0.0247,0.21202 0.0494,0.31538 -0.68439,0.4565 -0.88194,1.25836 -1.50989,1.82069 -1.00894,0.90523 -2.62114,0.87665 -3.82764,1.38006 -2.05916,0.85796 -2.72662,3.04024 -3.23673,5.06484 -0.22084,-0.7172 -0.37677,-1.44851 -0.33867,-2.22533 0.0307,-0.629 0.13335,-1.27176 0.11889,-1.90394 0.1591,-0.42862 0.34995,-0.83785 0.61453,-1.25836 0.39159,-0.62089 0.81492,-1.22802 1.06998,-1.92228 0.26846,-0.73131 0.34572,-1.51624 0.50165,-2.27507 0.13194,-0.63994 0.33373,-1.1437 0.64558,-1.65311 0.12736,0.0487 0.26141,0.073 0.40252,0.0653 l 0.0706,-0.008 0.004,0.005 c 0.254,0.27093 0.68791,0.31997 1.02305,0.45826 0.31045,0.12841 0.66675,0.24518 1.01247,0.20284 0.52564,-0.0653 0.86078,-0.56691 0.88548,-1.07103 0.007,-0.1009 -0.12348,-0.18345 -0.21167,-0.12171 -0.31397,0.22648 -0.45156,0.66005 -0.88547,0.64453 -0.2787,-0.01 -0.52564,-0.14006 -0.78317,-0.23778 -0.17639,-0.0691 -0.34572,-0.0928 -0.51506,-0.11394 0.0988,-0.09 0.16581,-0.20144 0.19756,-0.32809 0.42333,0.0875 0.89958,0.10866 1.29822,-0.0349 0.30692,-0.11042 0.39159,-0.29387 0.55386,-0.5588 0.45509,-0.75389 1.85561,-0.84773 1.905,-1.83692 0.007,-0.10865 -0.13052,-0.15063 -0.20108,-0.0843 -0.3175,0.29069 -0.59267,0.54998 -0.97719,0.75036 -0.30692,0.16087 -0.62442,0.31327 -0.86784,0.56656 -0.20461,0.20814 -0.30339,0.53199 -0.54328,0.68368 -0.30338,0.19086 -0.79727,0.10831 -1.18886,0.13441 l -0.0212,-0.0579 0.0106,-0.0914 c -0.49389,-0.83609 1.24178,-1.0287 1.69686,-1.42311 0.26458,-0.22648 0.35278,-0.6103 0.46214,-0.92428 0.0811,-0.23318 0.14817,-0.49636 0.28928,-0.70167 0.20814,-0.30092 0.40216,-0.23566 0.71966,-0.20602 0.14464,0.0134 0.19403,-0.17498 0.10937,-0.26635 -1.00189,-1.10843 -1.58045,1.52964 -2.04964,1.81328 -0.508,0.31079 -1.18886,0.40887 -1.58398,0.9024 -0.0529,0.0688 -0.0953,0.13794 -0.11994,0.20602 0.0741,-0.75459 0.23283,-1.07879 0.96661,-1.42698 0.30692,-0.14605 0.5715,-0.28364 0.73378,-0.60008 0.3563,-0.69462 -0.27517,-1.51518 0.37747,-2.06269 0.0882,-0.0734 0.0106,-0.20567 -0.0882,-0.21096 -1.0795,-0.0568 -0.51859,1.29364 -0.68439,1.87713 -0.16228,0.56974 -1.04775,0.6417 -1.42875,1.08726 -0.28575,0.3362 -0.37747,0.756 -0.35984,1.18322 -0.0388,-0.01 -0.0776,-0.0148 -0.11641,-0.018 -0.0593,-0.12559 -0.12347,-0.24942 -0.18733,-0.37677 -0.29421,-0.5909 -0.0219,-0.98742 0.42016,-1.397 0.42333,-0.39158 0.80433,-0.91687 0.80786,-1.51342 0,-0.096 -0.10936,-0.12982 -0.17639,-0.0734 -0.39158,0.3302 -0.47272,0.86995 -0.85725,1.23683 -0.25329,0.24236 -0.52352,0.43322 -0.66957,0.76765 -0.18768,0.43039 -0.0649,0.8135 0.13829,1.17581 l -0.0533,-0.0416 c -0.25259,-0.21696 -0.43815,-0.50341 -0.51047,-0.83079 -0.0653,-0.29422 -0.0413,-0.61172 0.10478,-0.87948 0.16227,-0.29739 0.49494,-0.39617 0.63429,-0.69144 0.0441,-0.0928 0.0159,-0.23636 -0.10477,-0.25788 -0.82656,-0.14711 -1.27353,1.07491 -1.19804,1.72579 0.0504,0.4325 0.43074,1.22625 0.92816,1.52647 -0.0222,0.0346 -0.0395,0.0716 -0.0543,0.10971 -0.10865,-0.127 -0.2032,-0.2473 -0.34184,-0.3489 -0.16016,-0.11747 -0.3309,-0.21872 -0.4766,-0.3556 -0.13476,-0.12664 -0.20426,-0.2674 -0.24589,-0.4452 -0.0293,-0.12524 -0.0741,-0.23848 -0.22578,-0.20461 -0.06,0.0138 -0.10442,0.0656 -0.12206,0.12206 -0.11253,0.36195 0.0646,0.67839 0.33726,0.91193 0.13335,0.11395 0.28398,0.20743 0.43356,0.2981 0.15558,0.0935 0.34572,0.14746 0.49072,0.254 0.0356,0.0261 0.0705,0.0296 0.10124,0.0197 -0.002,0.0833 0.006,0.16722 0.025,0.24695 0.0409,0.17356 0.12418,0.3369 0.23671,0.47589 -0.82303,1.02517 -0.71755,2.79894 -1.08973,3.95923 -0.2741,0.85513 -0.94826,1.6697 -1.41252,2.5273 -0.0176,-0.0586 -0.037,-0.11712 -0.0593,-0.17498 -0.17745,-0.47131 -0.50236,-0.86572 -0.68616,-1.33279 -0.21801,-0.55528 -0.17462,-1.18287 -0.22719,-1.77095 -0.0804,-0.89323 -0.15522,-1.84538 -0.70626,-2.5908 -0.14323,-0.19332 -0.3055,-0.36265 -0.48119,-0.51576 0.0691,-0.57362 -0.17321,-1.23331 -0.34078,-1.75789 -0.0938,-0.29245 -0.19932,-0.58103 -0.30727,-0.86819 0.16545,-1.00295 -0.043,-2.07751 0.55457,-2.98591 0.39476,-0.60078 1.06927,-0.81421 1.71097,-1.06292 0.079,0.15346 0.19509,0.28363 0.35489,0.36583 l 0.0843,0.0374 c -0.0589,0.20143 0.0138,0.45825 0.13688,0.64558 0.14005,0.21272 0.31714,0.40111 0.48965,0.58702 0.121,0.13088 0.27552,0.39617 0.45897,0.43074 0.0995,0.0183 0.23318,-0.0268 0.25223,-0.14358 0.079,-0.48542 -1.10878,-1.00506 -0.91546,-1.47743 0.16616,-0.0303 0.31821,-0.11571 0.43851,-0.23813 0.0377,0.0208 0.084,0.0275 0.13582,0.0109 0.4004,-0.12841 0.45226,0.61807 0.58596,0.81562 0.1076,0.1584 0.2092,0.22225 0.40181,0.27517 0.45579,0.12559 0.90241,-0.12453 1.34903,0.0314 0.33866,0.11712 0.52211,0.34254 0.89252,0.2226 0.127,-0.0416 0.17639,-0.24059 0.0388,-0.30868 -0.3175,-0.15805 -0.69497,-0.381 -1.04775,-0.44415 -0.44521,-0.0794 -0.97931,0.27552 -1.25483,-0.15769 -0.25047,-0.39405 -0.3997,-0.96591 -0.86113,-0.87912 l 0.0145,-0.0649 c 0.013,-0.0794 0.0162,-0.16616 0.0106,-0.25471 0.28575,-0.24765 0.52176,-0.29986 0.96944,-0.20461 0.34607,0.0737 0.67768,0.14887 1.03046,0.18486 0.70132,0.0705 1.56563,0.14322 2.14771,-0.31892 0.0917,-0.0727 0.007,-0.2032 -0.0882,-0.2106 -0.54328,-0.0423 -1.07597,0.1337 -1.63336,0.0938 -0.47802,-0.0339 -0.93698,-0.11888 -1.40617,-0.21272 -0.45227,-0.0903 -0.82656,-0.031 -1.12678,0.21167 -0.0268,-0.0631 -0.0589,-0.12348 -0.0956,-0.17992 0.51153,-0.62265 1.45098,-1.70921 2.32516,-1.42663 0.65969,0.21272 1.19592,0.39229 1.75683,-0.19615 0.0917,-0.0942 0.0282,-0.25858 -0.10583,-0.25894 -0.26106,-3.5e-4 -0.4057,0.11324 -0.65617,0.15875 -0.47978,0.0885 -0.51858,-0.0935 -0.87136,-0.21484 -0.31468,-0.1076 -0.5521,-0.0441 -0.86184,0.0787 -0.6671,0.26529 -1.34161,0.70803 -1.75013,1.31833 -0.003,-0.0332 -0.007,-0.066 -0.0106,-0.0988 0.0438,-0.27481 0.0614,-0.5588 0.17286,-0.81315 0.19015,-0.43568 0.59055,-0.62054 1.02553,-0.73095 0.36794,-0.0935 1.36066,-0.2346 1.22661,-0.80822 -0.0194,-0.0818 -0.1076,-0.1203 -0.18415,-0.10442 -0.15452,0.0324 -0.23425,0.14252 -0.36901,0.21872 -0.16933,0.0963 -0.36865,0.13935 -0.55527,0.18768 -0.35737,0.0928 -0.70697,0.16792 -1.01071,0.38911 -0.18909,0.13794 -0.33055,0.30163 -0.43603,0.48296 -0.009,-0.21167 -0.002,-0.43145 0.0783,-0.61278 0.17851,-0.4064 0.37994,-0.39264 0.71967,-0.496 0.69779,-0.21238 0.84349,-0.69674 1.37901,-1.12184 0.11783,-0.0935 0.0286,-0.25188 -0.0783,-0.29704 -0.38523,-0.16157 -0.61701,0.0991 -0.83644,0.39053 -0.21942,0.29175 -0.32526,0.40922 -0.68227,0.51717 -0.22119,0.067 -0.42862,0.12065 -0.61348,0.26635 -0.75812,0.59866 -0.46778,1.91417 -0.25082,2.79894 l 0.002,0.01 7e-4,0.004 -0.0395,-0.002 -0.0741,0.0148 c -0.0395,-0.007 -0.079,-0.0106 -0.11924,-0.009 -0.0459,-0.21943 -0.10548,-0.43321 -0.10266,-0.67098 0.003,-0.25541 0.0797,-0.55668 -0.15028,-0.72919 h -0.11395 c -0.25964,0.18485 -0.19791,0.64346 -0.18239,0.92322 0.012,0.21307 0.0448,0.46425 0.15911,0.65475 -0.10654,0.10654 -0.17992,0.24801 -0.22437,0.39088 -0.0328,0.10548 -0.0519,0.22013 -0.0575,0.3369 -0.7994,0.31256 -1.63583,0.62865 -2.10009,1.39312 -0.30268,0.49848 -0.50835,1.20544 -0.55598,1.9043 -0.0176,-0.0508 -0.0374,-0.10054 -0.0547,-0.15134 -0.44026,-1.28658 -0.43533,-2.97286 -0.008,-4.29578 l 0.0444,-0.006 c 0.32314,-0.0674 0.55104,-0.30374 0.68227,-0.59196 l 0.006,0.002 c 0.18697,0.0483 0.37994,0.0388 0.5528,0.12806 0.0589,0.0303 0.11677,0.067 0.17251,0.10195 0.0275,0.0173 0.14852,0.127 0.0963,0.0621 0.0607,0.0755 0.17145,0.085 0.25824,0.0684 0.38594,-0.0755 0.78105,-0.48119 0.75388,-0.89571 -0.006,-0.0893 -0.0794,-0.14499 -0.16721,-0.127 -0.26882,0.0536 -0.3803,0.33162 -0.59972,0.45826 -0.26776,-0.2032 -0.64418,-0.24835 -0.95991,-0.17497 0.0134,-0.0836 0.0205,-0.16722 0.0197,-0.24871 l -0.004,-0.072 0.0744,-0.0459 c 0.41769,-0.39582 1.03999,-0.1965 1.4605,-0.60008 0.1524,-0.14605 0.22966,-0.32878 0.30021,-0.52352 0.0378,-0.10477 0.06,-0.22683 0.11924,-0.32244 0.0649,-0.10512 0.15275,-0.15557 0.20179,-0.27058 0.0413,-0.0977 0.0152,-0.21801 -0.10089,-0.24871 -0.52423,-0.13758 -0.61807,0.60149 -0.84244,0.89465 -0.19826,0.25858 -0.56127,0.24412 -0.84913,0.33232 -0.20567,0.0635 -0.36866,0.16404 -0.49883,0.31432 -0.0268,-0.0526 -0.0579,-0.10195 -0.0924,-0.14852 0.12206,-0.5722 -0.0293,-1.10913 -0.0638,-1.6824 -0.0466,-0.77011 0.58631,-1.06397 0.72884,-1.73355 0.0275,-0.12911 -0.10866,-0.2547 -0.23213,-0.1785 -1.20262,0.74048 -0.99872,2.14841 -0.756,3.33728 -0.0473,-0.0176 -0.0981,-0.0272 -0.15029,-0.0314 -0.0427,-0.7179 -0.27834,-1.44992 -0.19367,-2.15759 0.0667,-0.55951 0.36265,-1.22379 -0.0113,-1.71873 -0.0582,-0.0773 -0.1898,-0.0797 -0.21802,0.0286 -0.0875,0.33585 -0.0346,0.67134 -0.0833,1.01812 -0.0392,0.28116 -0.10513,0.5595 -0.11042,0.84455 -0.0134,0.69532 0.33161,1.31621 0.41416,1.98896 -0.0483,0.004 -0.0974,0.012 -0.14676,0.0247 0.085,-0.44944 -0.30586,-0.7119 -0.62653,-0.99765 -0.1263,-0.11254 -0.24201,-0.21908 -0.29669,-0.38629 -0.0773,-0.23495 0.0145,-0.49636 -0.073,-0.73237 -0.10584,-0.2861 -0.40076,-0.36654 -0.55563,-0.61348 -0.0388,-0.0614 -0.12276,-0.0317 -0.12911,0.0353 -0.0243,0.24976 0.0603,0.3182 0.17991,0.50764 0.21555,0.33973 0.0963,0.70521 0.26635,1.05622 0.26035,0.53552 0.87771,0.56762 0.92216,1.23931 l 0.003,0.0162 c -0.0677,0.0377 -0.13406,0.0804 -0.19721,0.12806 -0.38382,-0.28117 -1.1557,-0.52741 -1.27917,-0.57009 -0.37359,-0.12912 -0.8135,-0.24025 -1.12183,-0.49989 -0.40111,-0.33761 -0.0123,-0.54363 -0.0268,-0.94333 -0.003,-0.0797 -0.0709,-0.12347 -0.1457,-0.11042 -0.37395,0.0656 -0.54046,0.59055 -0.45191,0.92322 0.10407,0.39229 0.50553,0.62901 0.84596,0.79199 0.45332,0.21696 0.93522,0.35666 1.40371,0.53552 0.0885,0.0335 0.25011,0.14075 0.41627,0.22965 -0.085,0.11219 -0.14993,0.2279 -0.18662,0.33867 -0.11747,0.0127 -0.23459,0.0233 -0.34819,0.0127 -0.2346,-0.0219 -0.42086,-0.1584 -0.63394,-0.23601 -0.19614,-0.0709 -0.38629,-0.0974 -0.57785,0.003 -0.24165,0.127 -0.2734,0.34466 -0.40534,0.5595 -0.2406,0.39159 -0.59902,0.18345 -0.93804,0.3997 -0.043,0.0275 -0.0617,0.0984 -0.0173,0.13582 0.36865,0.30797 1.02693,0.21872 1.29293,-0.18415 0.0656,-0.0998 0.0864,-0.28469 0.17321,-0.36724 0.27975,-0.266 0.49318,-7.1e-4 0.73942,0.0713 0.22931,0.0667 0.46249,0.0515 0.69568,0.0212 0.0938,0.38946 0.48472,0.70273 0.89394,0.79375 -0.50483,1.21708 -0.62089,2.55481 -0.36336,3.8615 0.16122,0.81703 0.5274,1.59597 0.79798,2.38055 0.13265,0.38523 0.25859,0.77258 0.35807,1.16769 0.0466,0.18486 0.0727,0.37606 0.0988,0.56691 -0.30163,-0.17039 -0.62089,-0.31432 -0.94439,-0.44273 -2.00695,-0.79728 -4.26473,-1.01918 -5.91679,-2.47827 0.0438,-0.0861 0.0773,-0.17568 0.0991,-0.26881 0.50412,-0.24554 1.03752,-0.56903 1.23861,-1.1042 0.0744,-0.20002 -0.23354,-0.38558 -0.3683,-0.21413 -0.25965,0.32773 -0.56127,0.58949 -0.86854,0.85442 -0.0226,-0.0871 -0.0575,-0.16933 -0.10689,-0.24341 l 0.0476,-0.0589 c 0.21449,-0.40745 0.3041,-0.77928 0.75565,-0.99906 0.28857,-0.14006 0.52211,-0.19368 0.7486,-0.44274 0.38135,-0.41945 0.47589,-0.96026 0.28433,-1.48449 -0.0169,-0.0462 -0.0561,-0.0836 -0.10865,-0.0825 -0.0921,-0.001 -0.1845,0.004 -0.27658,0.0152 -0.11042,0.01 -0.11218,0.1651 0,0.17322 0.0497,0.006 0.0988,0.0131 0.14852,0.0198 -0.0413,0.26 -0.096,0.53023 -0.21025,0.76341 -0.20709,0.42263 -0.53517,0.48119 -0.91652,0.67875 -0.37818,0.19614 -0.56515,0.55809 -0.70767,0.93803 -0.018,-0.58984 0.27128,-1.11548 0.60148,-1.59702 0.17921,-0.26141 0.67275,-0.7426 0.5454,-1.08797 -0.0501,-0.13547 -0.18309,-0.19297 -0.31468,-0.1277 l -0.0395,0.0194 c -0.0921,0.0455 -0.11395,0.15734 -0.0808,0.24553 -0.0395,-0.001 -0.0713,0.0413 -0.0949,0.13053 -0.0279,0.0437 -0.0557,0.0875 -0.0836,0.13123 -0.0857,0.13547 -0.17357,0.26917 -0.26,0.40393 -0.17216,0.26811 -0.34149,0.5394 -0.46143,0.83609 -0.0289,0.0716 -0.0522,0.1397 -0.072,0.20672 -0.0564,-0.2233 -0.12418,-0.43144 -0.15946,-0.58031 -0.0384,-0.16228 -0.109,-0.35031 -0.0921,-0.51859 0.0303,-0.30233 0.28469,-0.55033 0.4004,-0.82056 0.19156,-0.44697 0.0938,-0.88406 -0.0243,-1.34197 -0.0236,-0.0921 -0.14076,-0.11747 -0.20673,-0.0547 -0.34748,0.33373 -0.0748,0.69074 -0.20778,1.11443 -0.0974,0.31044 -0.31997,0.54539 -0.42228,0.84384 -0.0272,-0.06 -0.0578,-0.11959 -0.0945,-0.17886 -0.2533,-0.41451 -0.56656,-0.74683 -0.66746,-1.24389 -0.11642,-0.57326 0.17251,-0.84067 0.49107,-1.25801 0.0483,-0.0635 -0.0173,-0.15945 -0.0896,-0.15663 -0.99942,0.0346 -0.98813,1.3074 -0.70414,1.98543 0.24377,0.58173 0.79481,0.99025 0.80327,1.65735 0.007,0.59902 -0.16474,1.05587 -0.006,1.61432 -0.0864,0.0508 -0.16581,0.11324 -0.23601,0.18591 -0.72002,-0.45473 -0.762,-1.08938 -0.90488,-1.97873 -0.10618,-0.6597 -0.45367,-1.61925 -0.96485,-2.06657 -0.0691,-0.0607 -0.16651,-0.0173 -0.17391,0.072 -0.0437,0.5207 0.30797,0.96591 0.48718,1.43722 0.20214,0.53269 0.19544,1.09538 0.33585,1.64077 0.14463,0.55845 0.46072,1.07985 0.98495,1.24389 -0.0328,0.0723 -0.0586,0.14747 -0.0765,0.22367 -0.14358,-0.0653 -0.28575,-0.13265 -0.42051,-0.21696 -0.41169,-0.25753 -0.49001,-0.63465 -0.74154,-1.01353 -0.38947,-0.58597 -1.149,-0.53411 -1.22837,-1.37443 -0.008,-0.0892 -0.10443,-0.13229 -0.17392,-0.072 -0.81915,0.71437 0.54504,1.2132 0.9211,1.59949 0.31327,0.32138 0.33161,0.78387 0.70591,1.09361 0.26635,0.22049 0.61136,0.3937 0.96485,0.50201 l 0.002,0.005 c -0.85619,0.0145 -2.13007,0.48648 -2.4451,-0.32315 l 0.0808,0.0423 c 0.12771,0.0497 0.20391,-0.10795 0.15911,-0.20673 -0.0734,-0.16228 -0.23284,-0.27764 -0.36513,-0.39264 -0.11042,-0.096 -0.30057,-0.0356 -0.29951,0.12453 0.006,0.74189 0.31397,1.26153 1.07456,1.38536 0.47096,0.0769 1.08233,0.066 1.62243,-0.0286 -0.0967,0.0579 -0.19509,0.11642 -0.2988,0.17004 -0.27411,0.14146 -0.50412,0.16016 -0.80116,0.17921 -0.1584,0.01 -0.30939,0.0332 -0.43568,0.13794 -0.52353,0.43321 0.0617,1.45556 0.56832,0.97437 0.0459,-0.0437 0.0497,-0.13194 0,-0.17463 l -0.15875,-0.11183 c 0.008,-0.121 0.0176,-0.242 0.0261,-0.36336 0.0603,0.0102 0.121,0.0169 0.18203,0.0194 0.23989,-0.0448 0.4505,-0.0413 0.68651,-0.14112 0.41592,-0.17603 0.80715,-0.45473 1.19909,-0.6865 0.1464,0.0236 0.2988,0.0201 0.44767,-0.0198 0.17992,-0.0483 0.34608,-0.14605 0.48472,-0.27446 0.9786,1.23896 2.72239,1.55222 4.15713,1.98649 0.93345,0.28258 1.94169,0.61948 2.77954,1.1229 1.12783,0.67803 1.38606,1.7212 1.49401,2.94851 0.0776,0.88759 0.0444,1.7265 0.47766,2.53048 0.272,0.50518 0.54963,0.93803 0.61348,1.52047 0.0642,0.58138 -0.03,1.15817 -0.0914,1.73531 -0.0282,0.26176 -0.0413,0.51929 -0.0416,0.77506 -0.23319,-0.36019 -0.49812,-0.68792 -0.7867,-0.94827 -0.38241,-0.34466 -0.82761,-0.58984 -1.26612,-0.85372 -0.617,-0.37112 -0.96096,-0.67839 -1.21249,-1.36278 l -0.0201,-0.0353 c 0.0924,-0.14393 0.13405,-0.3235 0.10125,-0.52776 -0.036,-0.22084 -0.16475,-0.44802 -0.34432,-0.61383 0.10302,-0.36442 0.11607,-0.73872 -0.0508,-1.09502 -0.15063,-0.32174 -0.52458,-0.63924 -0.30727,-1.01036 0.10901,-0.18626 0.35807,-0.30621 0.50095,-0.46672 0.18662,-0.21061 0.31221,-0.46461 0.2353,-0.75001 -0.10865,-0.40111 -0.58314,-0.48436 -0.65228,-0.90276 -0.0427,-0.25541 -0.38594,-0.15557 -0.41311,0.0561 -0.0437,0.34149 0.13088,0.44662 0.33161,0.6791 0.16757,0.19438 0.18909,0.0314 0.18945,0.37324 0,0.28787 -0.0201,0.2099 -0.16122,0.37924 -0.11854,0.14252 -0.28752,0.23565 -0.40041,0.38664 -0.19226,0.25682 -0.21484,0.49389 -0.096,0.78952 0.0875,0.21766 0.26705,0.38312 0.37077,0.59161 0.12488,0.25082 0.15557,0.51258 0.15875,0.77964 l -0.0893,-0.0296 c -0.10865,-0.29421 -0.25682,-0.51505 -0.496,-0.77964 -0.49671,-0.55033 -0.60925,-0.99871 -0.55704,-1.72649 0.055,-0.76165 -0.13194,-1.48484 -1.05304,-1.4665 -0.19614,0.004 -0.21625,0.26317 -0.0444,0.32773 0.58385,0.21943 0.77047,0.35525 0.73801,0.99166 -0.0183,0.35701 -0.0653,0.71614 0.0131,1.06998 0.0691,0.31291 0.22684,0.5715 0.43392,0.8135 0.21484,0.25047 0.55034,0.47343 0.77858,0.74436 l -0.0296,-3.5e-4 c -0.11501,0.005 -0.1965,0.072 -0.23777,0.17462 -0.0677,0.0219 -0.13229,0.0536 -0.19297,0.0921 -0.0935,-0.48331 -0.79587,-0.74295 -1.13665,-1.04458 -0.48225,-0.42721 0.0497,-0.87876 -0.0109,-1.4164 -0.0579,-0.51294 -0.4572,-0.89358 -0.79269,-1.24777 -0.21061,-0.22296 -0.51858,0.10265 -0.33091,0.33055 0.17957,0.21872 0.4498,0.43039 0.55492,0.69638 0.17428,0.44274 -0.0109,0.60149 -0.10971,0.91017 -0.0328,-0.1016 -0.0896,-0.19262 -0.15311,-0.28116 -0.19226,-0.26812 -0.50623,-0.55316 -0.84525,-0.6022 -0.24695,-0.0356 -0.5207,0.0716 -0.46426,0.36266 0.008,0.0374 0.0416,0.0639 0.0759,0.0751 0.11254,0.0384 0.22331,0.0141 0.3362,0.0406 0.19085,0.0437 0.36865,0.18133 0.48965,0.33867 0.2727,0.35419 -0.0737,0.72143 0.085,1.11513 0.23425,0.58138 1.03611,0.77188 1.57374,0.91898 0.13476,0.0367 0.23143,-0.0448 0.26565,-0.14746 0.0635,0.0794 0.11641,0.16969 0.15663,0.27376 -0.0385,0.0677 -0.0699,0.14005 -0.091,0.21766 l -0.003,0.0166 c -0.28752,-0.20108 -0.58597,-0.33831 -0.96838,-0.32632 -0.2734,0.008 -0.54222,0.084 -0.81139,0.12065 -0.41275,0.0561 -0.4452,-0.0568 -0.66922,-0.31432 -0.72989,-0.83855 -1.78646,0.3623 -2.24049,0.91158 -0.0554,0.067 -0.0688,0.19932 0.031,0.24165 0.28963,0.12347 0.48471,0.0243 0.70061,-0.19967 0.15875,-0.1651 0.25718,-0.39441 0.46461,-0.508 0.20108,-0.11007 0.55986,-0.085 0.7359,0.0353 0.0554,0.0378 0.0864,0.1517 0.1404,0.20003 0.22084,0.19861 0.51541,0.17568 0.79058,0.14111 0.51858,-0.0646 0.91651,-0.14817 1.35255,-0.0794 -0.21731,0.0279 -0.4251,0.10195 -0.60678,0.254 -0.18345,0.15416 -0.25083,0.36089 -0.38065,0.55103 -0.242,0.35631 -0.42862,0.49495 -0.84525,0.55387 -0.30692,0.043 -0.46885,0.10865 -0.62724,0.39758 -0.0988,0.18062 -0.1076,0.36935 -0.17286,0.55527 -0.0974,0.27834 -0.0176,0.24095 -0.39617,0.23671 -0.26882,-0.003 -0.34255,0.42933 -0.0653,0.48084 0.29034,0.0543 0.68369,0.11924 0.88054,-0.16404 0.21695,-0.31327 -0.054,-0.8061 0.381,-1.00083 0.36724,-0.1644 0.71649,-0.0448 1.03117,-0.40887 0.16227,-0.18768 0.18626,-0.44838 0.33443,-0.63465 0.29598,-0.37289 0.66992,-0.39158 1.07562,-0.43568 l 0.0318,0.0342 c -0.38312,0.0773 -0.63006,0.52846 -0.74295,0.89641 -0.0928,0.30162 -0.11607,0.623 -0.22296,0.91969 -0.11148,0.31044 -0.35136,0.45543 -0.54574,0.70308 -0.12207,0.15629 -0.0127,0.37995 0.19614,0.33691 0.51329,-0.10584 0.81209,-0.51753 0.96132,-0.98954 0.09,-0.2847 0.12559,-0.5835 0.21519,-0.86748 0.10478,-0.33232 0.33444,-0.49954 0.52212,-0.76977 0.12664,0.0423 0.26281,0.0631 0.39687,0.0617 0.14499,-0.001 0.28152,-0.0332 0.40111,-0.0896 0.0293,0.88936 1.06821,1.45239 1.73955,1.86655 0.64946,0.40111 1.14158,0.87701 1.53317,1.53705 0.18556,0.31257 0.3309,0.65476 0.49318,0.98567 0.042,0.19755 0.0907,0.39546 0.14958,0.59372 0.27234,0.91546 0.67345,1.78858 0.90558,2.71639 0.28363,1.13348 0.22648,2.38231 0.12065,3.53907 -0.11324,1.24283 -0.76165,2.40594 -0.71579,3.65724 0.0159,0.43639 0.69639,0.43851 0.68016,0 -0.0409,-1.12571 0.54398,-2.19004 0.67698,-3.30517 0.12629,-1.05445 0.17992,-2.19005 0.0455,-3.24591 -0.11818,-0.92745 -0.45156,-1.79952 -0.7613,-2.67441 0.21343,-0.37394 0.3041,-0.82056 0.40817,-1.23296 0.15734,-0.62371 0.31891,-1.22414 0.57397,-1.8168 0.54821,-1.27353 1.33773,-2.12902 2.69769,-2.54635 1.07597,-0.32985 2.27542,-0.44768 3.22439,-1.10631 0.69497,-0.48401 0.90664,-1.48167 1.58044,-1.95298 0.10584,0.16439 0.24695,0.28504 0.4057,0.32314 l 0.0741,0.0681 c -0.0459,0.0811 -0.0353,0.19791 0.06,0.24977 0.29986,0.16051 0.47978,0.43991 0.74789,0.63711 0.29986,0.22049 0.63147,0.26847 0.99483,0.2667 0.31398,-0.001 1.60867,-0.16298 1.13595,-0.7754 -0.0635,-0.0811 -0.15169,-0.0967 -0.23283,-0.0303 -0.37042,0.29986 -1.03012,0.40322 -1.4852,0.18344 -0.17639,-0.0871 -0.30692,-0.21272 -0.44097,-0.32773 0.21167,0.0243 0.4198,0.0476 0.62794,0.10301 0.0741,0.0205 0.18345,0.004 0.23636,-0.0621 0.0247,-0.0346 0.0494,-0.0631 0.06,-0.10724 0.0212,-0.0797 -0.004,-0.17886 -0.067,-0.23848 0.381,0.12524 0.762,0.24695 1.22767,0.0695 0.64205,-0.24306 1.34761,-0.84067 1.58397,-1.49225 0.0317,-0.0889 -0.0706,-0.19932 -0.16228,-0.16228 -0.80786,0.32456 -1.29469,1.45733 -2.31775,1.15605 -0.41628,-0.1217 -0.80081,-0.37853 -1.16769,-0.29139 0.0282,-0.14499 0.0212,-0.29598 -0.0141,-0.4445 0.28928,-0.27129 0.59973,-0.53199 0.99131,-0.61842 0.23636,-0.0522 0.47978,-0.006 0.71614,-0.0508 0.32456,-0.0621 0.47625,-0.24271 0.54328,-0.56268 0.127,-0.58843 -0.30339,-1.2386 0.37041,-1.55504 0.65617,-0.30869 1.06539,0.32032 1.68275,0.16615 0.16228,-0.0406 0.1905,-0.2741 0.0459,-0.3563"
       style="fill:#dc4233;fill-opacity:1;fill-rule:nonzero;stroke:none;stroke-width:0.0352778"
       id="path1018" />
  </g>
</svg>
