<?xml version="1.0" encoding="UTF-8" standalone="no"?>
<svg
   xmlns:dc="http://purl.org/dc/elements/1.1/"
   xmlns:cc="http://creativecommons.org/ns#"
   xmlns:rdf="http://www.w3.org/1999/02/22-rdf-syntax-ns#"
   xmlns:svg="http://www.w3.org/2000/svg"
   xmlns="http://www.w3.org/2000/svg"
   xmlns:sodipodi="http://sodipodi.sourceforge.net/DTD/sodipodi-0.dtd"
   xmlns:inkscape="http://www.inkscape.org/namespaces/inkscape"
   width="210mm"
   height="297mm"
   viewBox="0 0 210 297"
   version="1.1"
   id="svg11570"
   inkscape:version="1.0.2 (e86c8708, 2021-01-15)"
   sodipodi:docname="coral_reef5.svg">
  <defs
     id="defs11564" />
  <sodipodi:namedview
     id="base"
     pagecolor="#ffffff"
     bordercolor="#666666"
     borderopacity="1.0"
     inkscape:pageopacity="0.0"
     inkscape:pageshadow="2"
     inkscape:zoom="0.35"
     inkscape:cx="400"
     inkscape:cy="560"
     inkscape:document-units="mm"
     inkscape:current-layer="layer1"
     inkscape:document-rotation="0"
     showgrid="false"
     inkscape:window-width="1252"
     inkscape:window-height="1005"
     inkscape:window-x="0"
     inkscape:window-y="23"
     inkscape:window-maximized="0" />
  <metadata
     id="metadata11567">
    <rdf:RDF>
      <cc:Work
         rdf:about="">
        <dc:format>image/svg+xml</dc:format>
        <dc:type
           rdf:resource="http://purl.org/dc/dcmitype/StillImage" />
        <dc:title></dc:title>
      </cc:Work>
    </rdf:RDF>
  </metadata>
  <g
     inkscape:label="Layer 1"
     inkscape:groupmode="layer"
     id="layer1">
    <path
       d="m 58.638313,124.17526 c 1.234722,-0.11257 2.638778,0.41836 3.792361,0.83358 0.560917,0.20176 0.98425,0.43917 1.231195,0.52102 -0.310445,-0.99229 -0.73025,-1.80054 -0.60325,-2.72588 0.02117,-0.15173 0.257528,-0.0278 0.34925,0.0999 0.335139,0.48147 0.709083,1.11442 0.963083,1.64634 0.366889,0.7589 0.994834,1.62278 1.566334,2.21823 0.963083,1.00514 1.474611,1.76043 2.515305,2.68263 1.001889,0.89006 2.088445,1.68134 3.033889,2.64019 0.162278,0.16468 0.656167,0.97716 0.800806,1.15312 -0.02117,-0.27477 -0.229306,-0.94752 -0.409222,-1.44074 -0.271639,-0.66312 -0.500945,-1.35749 -0.754945,-2.0235 -0.642055,-1.72505 -1.188861,-1.91519 -1.827389,-2.62008 -0.885472,-0.98033 -1.869722,-1.54298 -2.878667,-2.39321 -0.384527,-0.32357 -0.409222,-0.85799 0.151695,-0.63323 0.903111,0.36159 1.640417,0.66283 2.451806,1.33448 -0.208139,-0.38654 -0.116417,-0.29104 -0.335139,-0.67095 -0.564445,-0.98887 -0.631473,-1.61893 -1.859139,-2.85294 -0.702028,-0.57673 -1.456973,-1.03258 -2.236612,-1.45659 -0.744361,-0.40213 -1.143,-0.43247 -1.718028,-0.48715 -0.532694,-0.0508 -0.448027,-0.28928 -0.264583,-0.37782 0.663222,-0.31927 1.897945,-0.18274 2.76225,0.27199 -0.465666,-0.66146 -0.564444,-0.8629 -0.987778,-1.55258 l -0.458611,-0.53093 c -0.127,-0.0688 -0.215194,-0.133 -0.363361,-0.18415 -0.716139,-0.24871 -1.421694,-0.52246 -2.159,-0.70203 -0.416278,-0.10054 -0.486833,-0.36583 -0.239889,-0.35207 0.522111,0.0293 1.414639,-0.008 1.926167,0.13194 -0.663222,-0.8442 -1.400528,-1.97167 -1.975556,-2.88607 -0.127,-0.20215 0.211667,-0.16546 0.370417,-0.0504 0.338667,0.21943 0.585611,0.46672 0.606778,0.48295 1.386417,1.07491 2.215444,1.98226 3.411361,3.36832 -0.0035,-0.33902 0.01058,-0.68156 0.05997,-1.01247 0.02117,-0.23565 0.0635,-0.45402 0.134056,-0.64558 0.0635,-0.18944 0.296333,-0.11113 0.335139,0.0455 0.218722,0.86712 0.151694,1.7219 0.483305,2.58656 0.06703,0.17463 0.148167,0.34184 0.232834,0.50624 0.377472,0.45438 0.747889,0.90664 1.114778,1.34863 0.377472,0.45794 0.744361,0.92647 1.093611,1.40547 0.01058,-0.5486 0.04586,-1.1508 0.395111,-1.53243 0.04586,-0.0522 0.116417,-0.0628 0.169333,-0.0307 0.08114,0.0533 0.123472,0.51541 0.130528,0.59051 0.162278,1.54545 0.419806,1.95584 0.850195,3.09919 0.22225,0.60152 0.423333,1.11196 0.772583,1.69679 0.254,0.46468 0.560917,1.17369 0.765528,1.65601 0.04939,-0.39896 0.02117,-1.08454 0.0388,-1.44889 0.03881,-0.69466 -0.102305,-1.55787 -0.148166,-2.39187 -0.03528,-0.25259 -0.08114,-0.50229 -0.151695,-0.74535 -0.338667,-1.16459 -0.515055,-1.30006 -1.065389,-2.36608 -0.05997,-0.12242 -0.303389,-0.61983 -0.723194,-1.28623 -0.53975,-0.80645 -0.903111,-0.89394 -2.014362,-1.51589 -0.278694,-0.15839 -1.30175,-0.62653 -1.393472,-0.6798 -0.338667,-0.19932 -0.483305,-0.30057 -0.292805,-0.49248 0,-0.002 0.08114,-0.0903 0.359833,-0.084 0.250472,0.005 0.493889,0.11042 0.927806,0.28046 0.102305,0.0399 0.991305,0.42651 1.104194,0.46567 -0.162278,-0.17992 -0.331611,-0.35878 -0.508,-0.54011 -0.617361,-0.62406 -1.347611,-1.23331 -1.901472,-1.94168 -0.4445,-0.15417 -0.906639,-0.2794 -1.407584,-0.33761 -0.232833,-0.0268 -0.546805,-0.35948 -0.303389,-0.36971 0.201084,-0.008 0.779639,-0.10196 1.083028,-0.11325 -0.313972,-0.28857 -0.606778,-0.62159 -0.885472,-0.89958 -0.483306,-0.48366 -1.090083,-0.96202 -1.386417,-1.60126 -0.01764,-0.0367 -0.09878,-0.26176 -0.112889,-0.33478 -0.05997,-0.28399 0.151695,-0.38383 0.532695,-0.18874 0.391583,0.22401 0.786694,0.47378 1.181805,0.74224 -0.07055,-0.30409 -0.109361,-0.61595 -0.162277,-0.91828 -0.09172,-0.48295 0.172861,-0.65934 0.331611,-0.30515 0.05292,0.11783 0.22225,0.42016 0.264583,0.54857 0.201083,0.54363 0.363361,0.81456 0.546806,1.14935 0.09878,0.18133 0.229305,0.36336 0.356305,0.54857 0.529167,0.65123 0.917223,0.99307 1.397,1.38677 -0.01058,-0.0914 -0.02117,-0.18133 -0.02822,-0.26917 -0.07761,-0.83891 -0.165805,-1.92334 0.09525,-2.72415 0.04233,-0.13335 0.282222,-0.13758 0.292806,0 0.03175,0.32491 0.0388,0.51682 0.112889,0.88053 0.07408,0.33126 0.155222,0.6537 0.261055,0.98143 0.204611,0.64241 0.486834,1.25201 0.814917,1.83409 0.254,0.45015 0.53975,0.88054 0.8255,1.30951 -0.01764,-0.28963 -0.03175,-0.57714 -0.03175,-0.85619 -0.0071,-0.0917 -0.01058,-0.18415 -0.01411,-0.27658 -0.264584,-1.03116 -0.356306,-2.16605 -0.585611,-3.15736 -0.09172,-0.40357 0.01058,-0.51505 0.165805,-0.32314 0.218722,0.27128 0.497417,0.62054 0.624417,0.98742 0.03175,-0.27975 0.09525,-0.56585 0.134056,-0.84419 0.116416,-0.80046 0.296333,-1.26118 0.522111,-2.26836 0.04586,-0.23143 0.225777,-0.65652 0.345722,-0.62301 0.165805,0.0462 0.119944,0.38347 0.109361,0.57044 -0.08114,1.51906 -0.338667,2.66559 -0.377472,4.05554 -0.02469,0.96766 0.148166,1.90253 0.303389,2.83739 0.0635,-0.22825 0.127,-0.45156 0.194027,-0.66675 0.197556,-0.64523 1.245306,-2.09056 1.255889,-2.10044 0.0635,-0.0564 0.1905,-0.23425 0.282223,-0.23707 0,0 0.102305,0.0236 0.102305,0.15134 -0.0035,0.12242 -0.08114,0.24624 -0.105833,0.31009 -0.47625,1.22802 -0.747889,2.59927 -0.804333,3.9423 0.130527,0.56691 0.236361,1.14688 0.419805,1.69862 0.324556,0.95815 0.716139,1.89163 1.11125,2.81905 0.342195,0.79872 0.945445,1.72642 1.344084,2.68111 0.215194,-1.19874 0.493889,-2.42464 0.899583,-3.83798 0.109361,-0.26207 -0.0035,-0.98096 -0.09172,-1.39195 -0.102306,-0.3743 -0.162278,-0.49953 -0.246945,-0.59408 -0.208139,-0.21413 -0.4445,-0.40252 -0.719666,-0.52317 -0.479778,-0.21061 -0.543278,-0.55421 -0.04233,-0.47801 0.179917,0.0272 0.702028,0.30303 0.892528,0.387 -0.08819,-0.32033 -0.169333,-0.65723 -0.324555,-1.10314 -0.04939,-0.13476 -0.172862,-0.57573 -0.07761,-0.69638 0.1905,-0.24342 0.719667,0.70273 0.800806,0.91193 0.246944,0.66181 0.497417,1.31762 0.624417,2.02071 0.236361,-0.69639 0.532694,-1.35008 0.899583,-1.95686 l 0.01411,-0.0388 c 0.500945,-1.3529 0.500945,-3.16547 -0.239889,-4.38996 -0.208139,-0.33902 -0.08467,-0.76659 0.504473,-0.21802 0.1905,0.18062 0.356305,0.48648 0.500944,0.68686 0.06703,-0.15346 0.176389,-0.42722 0.254,-0.5274 0.02469,-0.0332 0.218722,-0.26212 0.250472,-0.30339 0.204611,-0.27482 0.486834,-0.34855 0.398639,-0.073 -0.02117,0.0702 -0.208139,0.54222 -0.211666,0.55951 -0.09525,0.39969 -0.165806,0.53869 -0.183445,1.27106 0.01058,0.54116 0.02117,0.84102 0.109361,1.3021 0.08467,-0.0801 0.169334,-0.16228 0.261056,-0.23954 0.22225,-0.18838 0.451555,-0.36936 0.680861,-0.54927 0.01058,-0.0388 0.53975,-0.50306 0.5715,-0.53446 0.553861,-0.58314 0.673806,-0.54892 1.093611,-1.276 0.405695,-0.70238 0.497417,-1.45238 0.73025,-2.20909 0.225778,-0.72355 0.560917,-0.69956 0.560917,-0.37254 l 0.03175,0.54046 c -0.0035,0.53375 -0.04939,1.14547 -0.239889,1.67569 0.119944,-0.0794 0.239889,-0.15698 0.359833,-0.23248 0.486834,-0.3757 0.737306,-0.49953 1.340556,-0.79445 0.07761,-0.0392 0.631472,-0.28364 0.673806,-0.29986 0.525638,-0.2025 0.585611,0.20778 0.303388,0.42051 -0.786694,0.58878 -1.940277,1.44004 -2.744611,1.99037 0.451556,0.15028 1.414639,0.61278 1.679223,0.93274 0.112888,0.13512 -0.09878,0.25259 -0.504473,0.16475 -0.423333,-0.0917 -0.832555,-0.22366 -1.252361,-0.27658 -0.232833,-0.0296 -0.508,-0.061 -0.744361,-0.037 -0.321028,0.0325 -0.617361,0.34537 -0.624417,0.34608 -0.176389,0.14464 -0.352778,0.29245 -0.522111,0.44661 -1.612194,1.45133 -2.31775,3.31858 -2.702278,5.45183 -0.03528,0.18729 -0.0635,0.37539 -0.09172,0.56335 0.352778,-0.45254 0.726722,-0.86042 1.040694,-1.18 0.680862,-0.6978 1.573389,-1.62208 2.614084,-2.09727 0.271639,-0.21625 0.426861,-0.41028 0.532694,-0.64981 0.155223,-0.34079 0.218723,-0.60819 0.342195,-1.08092 0.02117,-0.079 0.09525,-0.53198 0.236361,-0.50306 0.176389,0.0356 0.141111,0.46461 0.137583,0.57291 -0.01058,0.22261 -0.04233,0.49354 -0.102305,0.76977 -0.02469,0.12488 -0.05997,0.25082 -0.09878,0.38135 -0.02822,0.0825 -0.05292,0.17004 -0.08467,0.25823 l 0.03881,-0.009 c 0.652639,-0.36406 1.506361,-0.58455 2.151944,-0.58949 0.155223,-0.001 0.119945,0.18556 -0.04233,0.30092 -0.705556,0.4953 -1.573389,0.72355 -2.310694,1.18816 -0.716139,0.4512 -1.404056,0.98107 -2.01789,1.57656 0.550334,0.0113 1.379362,0.50447 1.756834,0.79897 0.201083,0.15776 0.116417,0.34121 -0.465667,0.15805 -1.224139,-0.38626 -1.506361,-0.27478 -2.268361,0.15352 -0.0071,0.004 -0.751417,0.7619 -1.040695,1.24037 -0.28575,0.47872 -0.557388,0.92604 -0.709083,2.08566 -0.04939,0.8194 -0.09172,1.25966 -0.134055,2.07987 -0.03881,0.74648 -0.03528,1.64151 -0.109362,2.52734 0.529167,-0.612 1.097139,-1.19024 1.612195,-1.74834 0.07761,-0.14111 0.155222,-0.28194 0.225778,-0.42333 0.631472,-1.27384 1.033639,-2.51174 0.85725,-3.90673 -0.08114,-0.63391 0.194028,-0.62713 0.303389,-0.42968 0.345722,0.61916 0.589139,2.00173 0.518583,2.71998 0.684389,-0.713 1.368778,-1.42628 2.021417,-2.16916 0.116417,-0.19417 0.236361,-0.38848 0.356305,-0.58113 0.289278,-0.54613 0.525639,-1.09181 0.426862,-1.50745 -0.127,-0.50931 -0.373945,-1.00464 -0.670278,-1.43609 -0.105834,-0.15381 0.04939,-0.38312 0.225778,-0.30057 0.500944,0.23389 1.005416,0.81245 1.178277,1.42798 0.165806,-0.3573 0.321028,-0.7136 0.448028,-1.06991 0.292806,-0.83008 0.53975,-1.66934 0.747889,-2.52518 0.116417,-0.4639 0.176389,-0.74895 0.504472,-1.08197 0.04586,-0.0455 0.09878,-0.0462 0.141112,-0.0226 0.0388,-0.008 0.08819,0.0123 0.09525,0.0614 0.144638,1.03928 -0.134056,2.1784 -0.440973,3.2332 0.416278,-0.3757 0.927806,-0.62935 1.499306,-0.70097 0.211667,-0.0264 0.313972,0.24801 0.151694,0.38665 -0.596194,0.51823 -1.199444,1.03717 -1.721555,1.63724 -0.06703,0.0751 -0.127,0.15201 -0.1905,0.22959 -0.391584,0.65624 -0.687917,1.37308 -0.987778,2.08072 -0.07056,0.16757 -0.144639,0.34505 -0.218722,0.52419 0.899583,-0.37137 1.816805,-0.69631 2.702278,-1.12917 0.631472,-0.31087 1.294694,-0.53728 1.957916,-0.76729 0.257528,-0.25548 0.550334,-0.4855 0.779639,-0.75915 0.490361,-0.57548 0.927806,-1.37586 1.118306,-2.11811 0.0635,-0.24906 0.405694,-0.52705 0.391583,0.0526 0,0.0466 -0.172861,1.49324 -0.486833,2.11032 l 0.01411,-0.007 c 0.860778,-0.42333 2.236611,-0.90589 2.719917,-1.01914 0.747889,-0.14816 0.575028,0.15276 0.440972,0.2473 -0.941917,0.6671 -2.441222,1.39594 -3.429,1.98893 -0.483306,0.28896 -0.963083,0.58137 -1.442861,0.87242 0.645583,0.16552 1.576916,0.87108 2.070805,1.36426 0.15875,0.15945 -0.303389,0.14358 -0.508,0.0507 -0.740833,-0.34011 -1.072444,-0.47763 -1.612194,-0.70736 -0.451556,-0.19004 -0.663222,-0.13049 -1.340556,0.1196 -0.282222,0.16552 -3.093861,1.51518 -4.176889,2.12908 -0.409222,0.23177 -0.804333,0.49142 -1.192389,0.75847 -0.423333,0.34287 -0.843139,0.68503 -1.277056,1.0057 1.093612,-0.401 1.298223,-0.47378 2.335389,-0.5799 0.204612,-0.0208 0.934862,-0.12096 1.569862,-0.20602 0.677333,-0.24377 0.874889,-0.27023 2.088444,-0.71409 0.839611,-0.28152 0.987778,-0.31708 1.386417,-0.44344 0.08819,-0.0281 0.186972,0.0537 0.144639,0.15102 -0.179917,0.41205 -0.684389,0.70489 -1.040695,0.94051 -0.07408,0.0487 -0.151694,0.10336 -0.232833,0.15875 0.105833,0.0147 0.211667,0.0301 0.313972,0.0477 0.762,0.13007 1.502834,0.14524 2.360084,0.82476 0.07055,0.0409 0.278694,0.28043 0.377472,0.42471 0.123472,0.18313 -0.186972,0.19265 -0.373944,0.11755 -1.464028,-0.58568 -2.871612,-0.68019 -4.300362,-0.52709 0.155222,0.0733 0.303389,0.15582 0.4445,0.24871 0.546806,0.36477 1.277056,0.96203 1.4605,1.6305 l 0.05292,0.2322 c 0.02822,0.0779 -0.109361,0.0233 -0.186972,-0.002 -0.691445,-0.22395 -1.093611,-0.72457 -1.753306,-1.05682 -0.183444,-0.0834 -0.92075,-0.3175 -0.98425,-0.32741 -1.869722,-0.29105 -3.302,0.23135 -4.885973,1.44212 -0.391583,0.29848 -0.691444,0.6332 -0.945444,1.00471 -0.585611,1.2682 -0.903111,2.56579 -1.04775,4.08591 -0.179917,1.88595 0.04939,3.77609 -0.112889,5.65213 0.0071,0.34936 0.03175,0.44348 0.03528,0.70669 0.0035,0.16188 0.08819,1.1232 -0.05644,1.19267 -0.680861,0.32452 -1.308805,0.68089 -2.053166,0.83647 -1.305278,0.27312 -2.744612,0.36724 -3.940528,-0.30304 -0.261056,-0.14675 -0.119945,-0.21798 -0.07761,-0.48782 0.155223,-1.00651 0.278695,-2.04156 0.141112,-3.05509 -0.119945,-0.3634 -0.102306,-0.86046 -0.204612,-1.20622 -0.268111,-0.55562 -0.416277,-1.07915 -0.783166,-1.63089 -0.345723,-0.53262 -0.807861,-0.8847 -1.393473,-1.3268 -0.490361,-0.29626 -0.899583,-0.42788 -1.164166,-0.45392 -0.66675,-0.0667 -1.118306,0.11109 -1.707445,0.47943 -0.215194,0.13367 -0.649111,0.3799 -0.5715,0.13077 0.141111,-0.4826 0.934861,-1.27317 1.397,-1.39195 -0.973667,-0.32812 -4.949472,-0.96354 -5.616222,-1.02457 -0.613834,-0.11148 -0.472723,-0.54184 -0.211667,-0.59574 0.610305,-0.12499 1.195917,-0.13875 1.813278,-0.19195 0.624416,-0.054 1.241778,-0.12005 1.866194,-0.12456 -0.335139,-0.29697 -0.642055,-0.6258 -0.917222,-0.94192 -0.179917,-0.20849 -0.3175,-0.69384 -0.119944,-0.57118 0.635,0.39906 1.30175,0.90205 1.979083,1.21324 0.342195,0.15557 0.79375,0.33125 1.474611,0.5359 0.197556,0.0448 0.391584,0.0988 0.582084,0.15946 -0.3175,-0.5055 -0.60325,-1.04363 -0.913695,-1.52785 -0.338667,-0.52461 -0.705555,-1.01395 -1.100667,-1.47958 -1.4605,-0.44059 -2.8575,-0.78109 -4.466167,-0.6809 -0.232833,0.0149 -0.292805,-0.27728 -0.102305,-0.39398 0.924278,-0.55672 2.091972,-0.66961 3.157361,-0.3955 l -0.0071,-0.007 c -0.85725,-0.79583 -1.756834,-1.65558 -2.741084,-2.27252 -1.097139,-0.68545 -2.420056,-1.09513 -3.612445,-1.57304 -0.204611,-0.0809 -0.162277,-0.42552 0.05644,-0.44524"
       style="fill:#b4e0d9;fill-opacity:1;fill-rule:nonzero;stroke:none;stroke-width:0.0352778"
       id="path1622" />
  </g>
</svg>
