<?xml version="1.0" encoding="UTF-8" standalone="no"?>
<svg
   xmlns:dc="http://purl.org/dc/elements/1.1/"
   xmlns:cc="http://creativecommons.org/ns#"
   xmlns:rdf="http://www.w3.org/1999/02/22-rdf-syntax-ns#"
   xmlns:svg="http://www.w3.org/2000/svg"
   xmlns="http://www.w3.org/2000/svg"
   xmlns:sodipodi="http://sodipodi.sourceforge.net/DTD/sodipodi-0.dtd"
   xmlns:inkscape="http://www.inkscape.org/namespaces/inkscape"
   width="210mm"
   height="297mm"
   viewBox="0 0 210 297"
   version="1.1"
   id="svg10209"
   inkscape:version="1.0.2 (e86c8708, 2021-01-15)"
   sodipodi:docname="coral_reef2.svg">
  <defs
     id="defs10203" />
  <sodipodi:namedview
     id="base"
     pagecolor="#ffffff"
     bordercolor="#666666"
     borderopacity="1.0"
     inkscape:pageopacity="0.0"
     inkscape:pageshadow="2"
     inkscape:zoom="0.35"
     inkscape:cx="400"
     inkscape:cy="560"
     inkscape:document-units="mm"
     inkscape:current-layer="layer1"
     inkscape:document-rotation="0"
     showgrid="false"
     inkscape:window-width="1252"
     inkscape:window-height="1005"
     inkscape:window-x="0"
     inkscape:window-y="23"
     inkscape:window-maximized="0" />
  <metadata
     id="metadata10206">
    <rdf:RDF>
      <cc:Work
         rdf:about="">
        <dc:format>image/svg+xml</dc:format>
        <dc:type
           rdf:resource="http://purl.org/dc/dcmitype/StillImage" />
        <dc:title></dc:title>
      </cc:Work>
    </rdf:RDF>
  </metadata>
  <g
     inkscape:label="Layer 1"
     inkscape:groupmode="layer"
     id="layer1">
    <path
       d="m 138.83747,216.86651 c -0.1718,-0.33373 -0.50588,-0.5588 -0.87242,-0.63923 -0.22719,-0.0501 -0.46743,-0.0448 -0.68933,0.0243 -0.37782,0.11783 -0.68721,0.38417 -1.02729,0.58702 -0.77434,0.46214 -1.74096,0.5902 -2.60914,0.34431 0.12735,-0.35278 0.72778,-0.387 0.78352,-0.75812 0.0427,-0.28469 -0.31891,-0.48648 -0.59831,-0.41875 -0.2794,0.0674 -0.26953,0.58738 -0.48331,0.77964 -1.10807,0.99554 -3.06987,0.91052 -4.38115,0.2032 -0.67027,-0.26775 2.92947,-3.28577 3.59516,-2.3749 0.34537,0.57574 1.40794,0.22578 1.44463,-0.4445 0.037,-0.66957 -0.77611,-1.1751 -1.41217,-0.96132 -0.44627,0.14993 -0.76377,0.53834 -1.15429,0.80046 -0.39123,0.26246 -0.99554,0.35983 -1.27812,-0.0162 -0.21096,-0.28011 -0.13158,-0.68051 0.006,-1.00295 0.28082,-0.65616 0.76977,-1.22132 1.37866,-1.5935 0.21167,-0.12911 0.44203,-0.23988 0.6029,-0.42897 0.30833,-0.36195 0.24059,-0.98037 -0.13935,-1.26683 -0.37994,-0.28681 -0.99307,-0.18238 -1.25695,0.21378 -0.14287,0.21449 -0.18344,0.47872 -0.23812,0.73061 -0.19156,0.88441 -0.63147,2.89807 -1.17017,2.42111 -0.41839,-0.45014 0.14217,-1.33738 -0.31679,-1.74625 -0.31433,-0.27975 -0.86466,-0.007 -0.9779,0.39758 -0.11289,0.40534 0.0818,0.83326 0.32949,1.17299 0.24801,0.33902 0.55669,0.64205 0.72461,1.02764 0.28399,0.6537 0.0995,1.43757 -0.30515,2.02459 -0.40393,0.58702 -0.99907,1.01212 -1.59597,1.40159 -1.24213,0.80962 -2.54988,1.51871 -3.90596,2.11737 -0.83008,0.36654 -1.75753,0.69603 -2.62713,0.43674 -0.86431,-0.25823 -1.47744,-1.0661 -1.73849,-1.92934 -0.26176,-0.8636 -0.22754,-1.78541 -0.17604,-2.68641 0.0455,-0.8001 0.16193,-1.70956 0.81809,-2.16993 0.52,-0.36407 1.28306,-0.30057 1.76636,0.11077 0.48331,0.41169 0.67134,1.12113 0.50165,1.73249 -0.17991,0.64523 -0.64911,1.47744 -0.0931,1.85173 0.40428,0.27235 0.9846,-0.12241 1.08373,-0.59972 0.0995,-0.47766 -0.1143,-0.95779 -0.31467,-1.40264 -0.20074,-0.44415 -0.39688,-0.93804 -0.26353,-1.40688 1.24531,-0.11254 2.49061,-0.22543 3.73592,-0.33796 0.34678,-0.0314 0.20673,0.41769 0.57432,0.74436 0.7807,0.6925 1.14547,-0.54152 0.95991,-0.70556 -0.30304,-0.47731 -0.91758,-0.73413 -1.47038,-0.61524 0.0325,-0.48966 0.48789,-0.82092 0.83855,-1.16417 0.35066,-0.3429 0.62124,-0.93909 0.28011,-1.29222 -0.37007,-0.38312 -1.0481,-0.0272 -1.28764,0.44908 -0.23989,0.47555 -0.27199,1.05057 -0.58879,1.4792 -0.31714,0.42827 -1.79987,0.48578 -1.28023,0 0.34855,-0.57221 1.06504,-0.56868 0.81316,-1.06433 -0.25154,-0.49601 -1.10879,-0.47766 -1.33915,0.0286 -0.17462,0.38383 -0.0226,0.9017 -0.3175,1.20333 -0.16686,0.17004 -0.42227,0.20779 -0.65864,0.23601 -0.4706,0.0564 -0.96555,0.10971 -1.40299,-0.073 -0.43674,-0.18309 -0.77647,-0.69109 -0.60325,-1.13206 0.15769,-0.40111 0.64099,-0.56233 1.07103,-0.59337 0.42968,-0.031 0.88336,0.0134 1.27071,-0.17569 0.38735,-0.18909 0.63429,-0.74753 0.33337,-1.05621 -0.33267,-0.34079 -0.90805,-0.0501 -1.24918,0.28257 -0.34079,0.33232 -0.77435,0.73731 -1.22062,0.57115 -1.04457,0.0332 1.73567,-1.97097 2.91324,-2.52448 0.61137,-0.28787 1.49366,-0.40852 1.82775,0.17851 0.10336,0.18203 0.12805,0.40252 0.242,0.57785 0.18803,0.28998 0.62301,0.38276 0.91264,0.19473 0.28998,-0.18838 0.3817,-0.62371 0.19332,-0.91299 -0.37218,-0.57079 -1.59808,-0.24412 -1.89865,-0.85619 -0.15981,-0.32597 0.17886,-0.77329 0.42086,-1.00365 0.15946,-0.1517 0.35631,-0.25295 0.54646,-0.3616 0.14852,-0.085 0.27305,-0.21167 0.42968,-0.28363 0.17286,-0.079 0.37324,-0.0656 0.55386,-0.0247 0.19262,0.0437 0.37853,0.11818 0.57397,0.14887 0.23001,0.0363 0.47272,0.009 0.68121,-0.0952 0.2085,-0.10442 0.37995,-0.28786 0.45156,-0.50976 0.0526,-0.16228 0.0363,-0.37006 -0.10654,-0.46284 -0.0586,-0.0385 -0.13017,-0.0512 -0.20002,-0.0593 -0.37889,-0.0441 -0.77082,0.0303 -1.10667,0.21061 0.12735,-0.35137 0.4004,-0.62936 0.6858,-0.87101 0.28575,-0.24165 0.59408,-0.46179 0.83044,-0.75177 0.21061,-0.25894 0.40287,-0.64453 0.32667,-0.98919 -0.0705,-0.31997 -0.36442,-0.55633 -0.66745,-0.64523 -0.31362,-0.0917 -0.68051,-0.0444 -0.91193,0.20179 -0.34784,0.36971 -0.33303,0.93627 -0.41275,1.43757 -0.21485,1.34196 -1.33491,2.49061 -2.67124,2.73791 -1.52964,0.26599 0.58103,-1.17299 0.57044,-1.85032 -0.01,-0.6029 -1.01564,-0.83468 -1.28799,-0.29669 -0.11112,0.21943 -0.0956,0.47801 -0.10513,0.7239 -0.0734,2.00272 -1.83479,3.4731 -3.44346,4.6676 -0.066,-0.38699 0.3683,-0.76411 0.2226,-1.12853 -0.0938,-0.23389 -0.39087,-0.32138 -0.64029,-0.2854 -0.52387,0.0751 -0.9398,0.60466 -0.88794,1.13171 0.0515,0.52705 0.56198,0.96591 1.09044,0.93839 -1.0347,1.33385 -1.90994,2.07151 -2.65995,4.0072 -0.56056,1.4471 -0.79728,2.49661 -0.63394,-0.90029 0.40852,-3.20922 1.79211,-4.46863 3.55918,-7.17832 1.4552,-2.23096 2.67511,-4.46158 4.79001,-6.08083 0.93592,-0.71614 2.38443,-1.6637 3.24944,-0.8636 0.37324,0.34572 0.53622,0.87454 0.91263,1.21603 0.37642,0.34184 1.16664,0.29351 1.20615,-0.21343 0.0642,-0.81351 -1.64324,-0.59338 -1.78929,-1.3963 -0.11042,-0.60819 0.75918,-0.82374 1.37513,-0.87454 1.83727,-0.15098 3.56764,-1.27105 4.457,-2.88536 0.22189,-0.40252 0.39722,-0.86396 0.3048,-1.31375 -0.0928,-0.44944 -0.54787,-0.84631 -0.99131,-0.72707 -0.47978,0.12911 -0.65193,0.72848 -0.62442,1.22449 0.0279,0.496 0.16687,1.01388 -0.0169,1.47531 -0.1845,0.46144 -0.91334,0.7112 -1.16346,0.28223 -0.067,-0.11536 -0.0829,-0.25189 -0.0882,-0.38488 -0.0293,-0.6978 0.17922,-1.42911 -0.0808,-2.07751 -0.25965,-0.64841 -1.35396,-0.94192 -1.59491,-0.28646 -0.1591,0.43215 0.18909,0.86431 0.42792,1.25801 0.48154,0.7941 1.6136,2.34456 0.18027,2.67511 -2.52377,0.21696 -4.98687,1.10455 -7.06932,2.54741 -0.89887,0.60078 -0.30268,-1.63054 0.69462,-1.75789 0.16158,-0.0205 0.33338,-0.0169 0.47414,-0.0988 0.37994,-0.22049 0.0952,-0.90029 -0.34326,-0.92392 -0.43885,-0.0236 -1.02376,1.60972 -1.12536,1.29222 -0.4826,-0.89253 0.52317,-2.67194 1.53529,-2.60421 0.20038,0.0134 0.40852,0.0363 0.5969,0.10972 0.14535,0.0568 0.29775,0.11042 0.45614,0.0868 0.133,-0.0201 0.26776,-0.0871 0.37924,-0.16051 0.21096,-0.1397 0.3877,-0.38065 0.23213,-0.62936 -0.20779,-0.33196 -0.65934,-0.0974 -1.09502,0.0512 -0.28717,0.2159 -0.61243,0.19826 -0.7613,0.1852 -0.24059,-0.0201 -0.2734,-0.36159 0.0173,-0.66357 0.29739,-0.30339 0.80116,-0.4385 1.20544,-0.64065 0.52846,-0.26387 0.9024,-1.11971 0.36548,-1.3663 -0.42122,-0.19368 -0.82903,0.26881 -1.1042,0.6424 -0.42509,0.57785 -0.95144,1.08091 -1.54799,1.47955 -0.0963,0.0642 -0.21061,0.12877 -0.32173,0.097 -0.13864,-0.0395 -0.19473,-0.20144 -0.23036,-0.34114 -0.2092,-0.82656 -0.40252,-1.73002 -0.0522,-2.50754 0.35031,-0.77753 1.49649,-1.22132 2.07963,-0.59902 0.14005,0.14887 0.23636,0.34396 0.41204,0.44803 0.30092,0.17815 0.71367,-0.006 0.89535,-0.30551 0.18204,-0.2988 0.1898,-0.66922 0.17287,-1.01882 -0.0127,-0.25153 -0.0639,-0.5461 -0.28999,-0.65617 -0.17639,-0.0861 -0.38558,-0.0201 -0.57044,0.0473 -0.63077,0.2286 -0.32385,1.0421 -1.8923,0.68685 -0.28928,-0.0751 -0.13229,-0.51893 0.0843,-0.72425 1.2245,-1.15746 2.77037,-1.97132 4.41749,-2.32516 0.54257,-0.11712 1.21285,-0.29069 1.32574,-0.83396 0.12171,-0.58279 -0.60854,-1.04811 -1.18922,-0.91511 -0.57996,0.13264 -0.99765,0.62477 -1.37089,1.08797 0.31291,-0.31786 -0.12171,-0.94862 -0.54575,-0.80892 -0.42368,0.13935 -0.46672,0.83114 -0.0864,1.06539 -1.07597,0.48436 -2.15124,0.98601 -3.22756,1.47073 -0.58738,-0.0173 0.23742,-1.52824 -0.38806,-1.64747 -0.46814,-0.0896 -0.85019,0.46848 -0.77929,0.93944 0.0706,0.47131 0.92534,0.74719 0.76165,1.17934 -0.16827,0.43462 -1.15146,2.10643 -1.1243,3.28895 -1.2767,-0.60996 -2.01895,-2.16606 -1.69051,-3.54225 0.0896,-0.375 0.24941,-0.73695 0.27552,-1.12183 0.0257,-0.38453 -0.12771,-0.82091 -0.48401,-0.96908 -0.45791,-0.19015 -0.98531,0.22225 -1.10561,0.70379 -0.12065,0.48119 0.0409,0.98319 0.20073,1.45274 0.29034,0.85478 0.58103,1.70886 0.87172,2.56364 0.0868,0.39969 -0.69039,-0.0868 -0.88019,-0.38806 -0.18979,-0.30198 -0.32702,-0.67345 -0.64734,-0.82973 -0.52599,-0.25577 -1.17122,0.50447 -0.83291,0.98107 0.12135,0.17145 0.31432,0.27411 0.49989,0.37218 0.19543,0.10337 0.39193,0.2085 0.60078,0.27976 0.30056,0.10301 0.62018,0.1344 0.92992,0.2039 1.92052,0.43215 3.29459,2.53859 2.91571,4.4704 -0.11713,0.58138 -0.81316,-0.48824 -0.92216,-0.96132 -0.10937,-0.47307 -0.14817,-1.01494 -0.51471,-1.33314 -0.36689,-0.31856 -1.14758,-0.006 -0.95744,0.44167 0.12877,0.30269 0.59937,0.42757 0.79658,0.63712 0.12523,0.10548 0.16545,0.0765 0.12558,0.28504 -0.0212,0.11042 -0.18273,0.0314 -0.35207,-0.002 -0.70308,-0.15276 -1.18498,-1.19698 -1.96744,-1.22767 -0.46214,-0.0184 -0.89288,0.4071 -0.88053,0.8696 0.012,0.46213 0.46461,0.86395 0.92533,0.82162 0.2406,-0.0222 0.46638,-0.14641 0.70838,-0.15064 0.27305,-0.004 0.52247,0.14358 0.75353,0.28998 1.05904,0.66711 2.17523,1.51589 2.38514,2.75026 0.20284,1.19486 -0.52353,2.34844 -1.34691,3.23744 -0.2219,0.24024 -0.48366,0.48577 -0.80998,0.50906 -0.66851,0.0487 -0.99201,-0.77188 -1.44004,-1.27 -0.47695,-0.52987 -1.20544,-0.73237 -1.84079,-1.05481 -0.63535,-0.32279 -1.25871,-0.92039 -1.16664,-1.62666 0.0907,-0.69426 0.84843,-1.21038 0.79869,-1.90888 -0.0324,-0.45579 -0.47378,-0.84172 -0.92957,-0.8128 -0.45579,0.0289 -0.8449,0.46708 -0.81985,0.92287 0.0201,0.36301 0.25893,0.67522 0.3503,1.02694 0.0963,0.36971 0.0247,0.76305 0.0833,1.14053 0.12841,0.82902 0.82197,1.39629 1.56774,1.83973 0.0639,0.13582 0.0279,0.30304 -0.12735,0.38206 l -0.0155,0.0116 c -0.62301,0.091 -1.24636,0.18204 -1.86902,0.27341 -0.60466,0.0885 -1.4097,0.52634 -1.12924,1.06927 0.14429,0.27869 0.52846,0.34854 0.82691,0.25329 0.2988,-0.096 0.5401,-0.31221 0.79622,-0.49354 0.65899,-0.46602 1.4986,-0.71896 2.28847,-0.55174 0.79022,0.16686 1.49578,0.80645 1.6129,1.60549 0.13829,0.94015 -0.49777,1.79529 -1.04281,2.57387 -0.32985,0.47025 -0.63571,0.95638 -0.92146,1.45485 -0.4258,0.35984 -0.72354,0.13829 -0.94685,-0.22965 -0.0363,-0.12312 -0.0699,-0.25118 -0.11536,-0.37254 -0.0847,-0.22295 -0.17498,-0.44485 -0.26917,-0.66498 -0.0208,-0.14323 -0.0325,-0.28928 -0.0268,-0.4445 0.006,-0.17075 0.0847,-0.34043 0.0385,-0.51577 -0.0441,-0.16756 -0.11394,-0.28328 -0.25188,-0.38946 -0.61913,-0.47766 -1.52859,0.14711 -1.78682,0.83855 -0.14499,0.23883 -0.21343,0.51929 -0.13441,0.78811 0.067,0.2286 0.23142,0.43321 0.48472,0.46849 0.20038,0.0279 0.24624,-0.0261 0.32244,-0.0917 0.2293,-0.0395 0.49071,-0.0511 0.66181,0.0279 0.21555,0.10054 0.40075,0.4953 0.49918,0.70379 0.16298,0.34432 0.24659,0.72955 0.32173,1.10279 0.0184,0.18591 0.024,0.37324 0.0258,0.56056 -0.0399,0.29175 -0.0755,0.5842 -0.11536,0.87595 -0.0145,0.0624 -0.0289,0.12488 -0.043,0.18768 -0.29457,0.78845 -0.53799,1.59561 -0.72778,2.41617 -0.12418,0.30022 -0.25683,0.59761 -0.41769,0.88442 -0.78423,0.40181 -0.95674,-0.33691 -0.97508,-0.83044 -0.0109,-0.30939 0.0931,-0.38277 0.19791,-0.65758 0.13758,-0.36125 0.1965,-1.39771 -0.50941,-1.24143 -0.12206,0.0272 -0.21202,0.0885 -0.28081,0.17075 -0.26353,0.16792 -0.51576,0.48295 -0.55351,0.74436 -0.0314,0.22366 0.0797,0.40499 0.20531,0.58102 0.10196,0.14323 0.20003,0.2921 0.29916,0.43957 0.0141,0.0388 0.0279,0.0772 0.0406,0.11677 0.0102,0.0515 0.0187,0.0995 0.024,0.13687 0.048,0.35208 0.11783,0.72637 0.38206,0.98813 0.17639,0.17463 0.37676,0.19791 0.59019,0.30692 l 0.009,0.005 c 0.3362,0.61701 0.39159,1.30069 0.33973,2.0253 -0.042,0.58596 -0.25718,1.13453 -0.35913,1.70004 -0.20673,0.24694 -0.47731,0.236 -0.93486,-0.0766 -1.02129,-0.95673 -2.41935,-2.42252 -2.6857,-3.71439 0.091,-0.32068 0.31574,-0.61102 0.60572,-0.99237 0.25824,-0.33867 0.48295,-0.70273 0.46496,-1.14441 -0.0226,-0.54504 -0.22084,-0.36089 0.24977,-1.08126 0.0416,-0.0639 0.12735,-0.10125 0.16475,-0.16757 0.10618,-0.18803 0.18274,-0.30692 0.16086,-0.5327 -0.0907,-0.93415 -1.54305,-0.97084 -1.96215,-0.26246 -0.31855,0.53833 0.12242,1.01423 0.37959,1.46755 0.28575,0.502 0.44909,1.13559 0.0811,1.65629 -0.26635,0.37606 -0.52952,0.42651 -0.7881,0.33408 -0.52635,-1.05762 -0.96908,-2.16288 -1.40688,-3.25543 -0.0173,-0.48295 -0.005,-0.96838 -0.005,-1.44392 -3.6e-4,-0.29669 -0.002,-0.60819 0.0945,-1.03964 0.1143,-0.26458 0.1397,-0.55985 0.31291,-0.79198 0.37148,-0.28999 1.12184,-0.2914 1.52118,-0.13335 0.26106,0.10336 0.48472,0.22331 0.78141,0.18027 0.41663,-0.0593 0.79375,-0.4572 0.58031,-0.89041 -0.2039,-0.41346 -0.79516,-0.30939 -1.13241,-0.14817 -0.19368,0.0924 -0.29669,0.22966 -0.53058,0.25682 -0.0917,0.0106 -0.18591,0 -0.27905,-0.006 -0.50906,-0.10724 0.2219,-0.57961 0.29493,-0.79022 0.14569,-0.42051 0.23248,-0.65828 0.5849,-0.96696 0.13406,-0.11712 0.3041,-0.20849 0.37112,-0.387 0.0864,-0.23036 0.0303,-0.45649 -0.16827,-0.61419 -0.51717,-0.41063 -1.37619,0.16475 -1.42981,0.73943 -0.0265,0.28398 0.0804,0.55703 0.0854,0.8389 0.005,0.26247 -0.10583,0.48084 -0.25964,0.68757 -0.0946,0.127 -0.20638,0.25259 -0.35701,0.30162 -0.139,0.0452 -0.29387,0.0169 -0.42475,-0.048 -0.13088,-0.0649 -0.2413,-0.16439 -0.34607,-0.26634 -0.38665,-0.37642 -0.68545,-0.8061 -0.97191,-1.26013 -0.28222,-0.44732 -0.54116,-0.92639 -0.52634,-1.47143 0.008,-0.38241 0.16263,-0.72778 0.25047,-1.09079 0.0797,-0.15769 0.16263,-0.31433 0.24624,-0.47061 0.0512,-0.0526 0.10336,-0.10407 0.16051,-0.15275 0.32139,-0.2734 0.61243,-0.35877 1.00719,-0.46108 0.11853,-0.031 0.23459,-0.0346 0.32314,-0.11853 0.40217,-0.381 0.0279,-1.39594 -0.44274,-1.56598 -0.23177,-0.084 -0.45437,-0.0317 -0.62335,0.15204 -0.21167,0.23072 -0.11889,0.5842 -0.13618,0.86572 -0.002,0.0385 -0.006,0.0787 -0.0272,0.11148 -0.0607,0.0945 -0.22225,0.1718 -0.30798,0.24659 -0.10795,0.0949 -0.2106,0.19897 -0.28786,0.32067 -0.067,0.10513 -0.13794,0.32209 -0.18133,0.43957 -0.22296,0.47554 -0.37924,-0.47731 -0.76059,-0.98602 -0.20814,-0.27763 -0.44203,-0.68086 -0.34361,-1.0608 0.0314,-0.12206 0.0762,-0.24871 0.14817,-0.35313 0.10513,-0.1524 0.19156,-0.0991 0.34643,-0.15487 0.0776,-0.0279 0.15452,-0.0706 0.20673,-0.13653 0.12982,-0.1651 0.048,-0.37817 -0.0568,-0.5334 -0.14288,-0.21166 -0.37747,-0.29633 -0.62512,-0.29068 -0.22507,-0.0212 -0.46073,0.0434 -0.66887,0.12841 -0.23177,0.0945 -0.49248,0.27799 -0.42157,0.56726 0.0349,0.14182 0.15628,0.22649 0.22366,0.34961 0.13935,0.2547 0.14182,0.56232 0.20708,0.83961 0.14711,0.62406 1.15041,0.94227 1.00119,1.52929 -0.0762,0.18274 -0.55775,-0.20497 -0.64488,-0.27728 -0.1591,-0.13159 -0.27552,-0.29634 -0.3616,-0.48225 -0.0751,-0.16299 -0.1778,-0.32526 -0.36512,-0.37007 -0.35349,-0.085 -0.60114,0.0349 -0.62054,0.43957 -0.0106,0.21801 0.0885,0.58596 0.29139,0.65122 0.19721,0.0635 0.33938,-0.0699 0.52847,-0.0794 0.16898,-0.008 0.74542,0.40534 0.91792,0.48895 0.0924,0.0452 0.20285,0.16863 0.25683,0.25576 0.20461,0.32879 0.1344,1.92158 -0.46461,1.23896 -0.19015,-0.26106 -0.45262,-0.36054 -0.67487,-0.63253 -0.46778,-0.57397 -0.29174,-0.47696 -0.80292,-1.01389 -0.23142,-0.24271 -0.82021,-1.05445 -1.08902,-1.25236 -0.27552,-0.24094 -0.6597,-1.06503 -0.7613,-1.49119 -0.0554,-0.23354 -0.0254,-0.3489 -0.0303,-0.59514 -0.005,-0.236 0.0603,-0.46319 -0.0215,-0.69391 -0.10336,-0.29104 -0.38876,-0.4766 -0.66639,-0.57926 -0.24554,-0.0907 -0.51682,-0.0564 -0.762,0.0219 -0.10513,0.0335 -0.20779,0.096 -0.25471,0.19544 -0.13794,0.2914 0.10513,0.7941 0.27199,0.99625 0.25965,0.31361 0.66675,-0.1577 0.89324,0.18485 0.085,0.12876 0.1905,0.22155 0.33055,0.57891 0.27834,0.7112 0.49283,0.99025 -7.1e-4,0.86113 -0.39864,-0.14711 -0.82585,-0.21872 -1.22519,-0.35419 -0.18098,-0.22472 -0.32456,-0.48789 -0.65158,-0.52387 -0.37148,-0.0409 -0.681572,0.3309 -0.772588,0.65934 -0.01834,0.066 -0.02399,0.13511 -0.01976,0.20214 -0.04551,0.23883 0.0762,0.4064 0.250472,0.47766 0.168981,0.21449 0.473428,0.0628 0.725316,-0.0635 0.0677,-0.0342 0.13617,-0.0568 0.20461,-0.0748 0.0487,-0.005 0.0952,-0.006 0.14217,-0.008 0.56127,0.16863 1.0414,0.22225 1.53952,0.64135 0.31151,0.4064 0.4572,1.00859 -0.004,1.3656 -0.17145,0.133 -0.34855,0.22789 -0.50624,0.35207 l -0.0243,0.0116 c -0.42368,0.27729 -0.76447,0.28046 -1.2453,0.34008 -0.17745,0.0222 -0.398294,0.0296 -0.553517,0.14005 -0.195439,0.1397 -0.273755,0.37007 -0.225072,0.60361 0.142875,0.68756 0.970499,0.60148 1.430519,0.32808 0.6283,-0.37253 1.0541,-1.05763 1.84785,-1.13206 0.44556,-0.042 0.76024,-0.0314 1.14229,0.14852 0.71191,0.34678 2.12337,1.39417 1.47991,1.87748 -0.25541,0.19156 -0.77294,0.29139 -1.10138,0.25153 -0.32808,-0.0392 -0.41557,-0.67522 -0.75,-0.69285 -0.48613,-0.0265 -1.0541,0.35136 -0.80257,0.89076 0.28998,0.6223 0.99907,0.65087 1.52647,0.4191 0.42157,-0.18521 0.83749,-0.32032 1.264,-0.33726 1.19874,-0.13582 1.55187,1.23896 1.71909,2.21756 0.12312,0.71932 -0.31468,2.10574 -1.27988,1.38819 -0.24906,-0.18521 -0.42827,-0.53764 -0.50694,-0.8255 -0.11536,-0.4191 -0.007,-0.62407 0.21237,-0.98002 0.17463,-0.28363 0.37606,-0.49742 0.0522,-0.78881 -0.30515,-0.27517 -0.92992,-0.24871 -1.2005,0.061 -0.24024,0.27622 -0.15769,0.57855 0.0423,0.83079 0.23672,0.2988 0.31962,0.50059 0.42298,0.86819 0.042,0.14887 0.0974,0.29315 0.16404,0.43215 -0.18203,-0.10478 -0.363,-0.20073 -0.54715,-0.27834 -0.51788,-0.26141 -1.07668,-0.4445 -1.69616,-0.61066 -0.37183,-0.0995 -0.76482,-0.28046 -1.03964,-0.56409 -0.29915,-0.30868 -0.30021,-0.66393 -0.42756,-1.03082 -0.11889,-0.34219 -0.43145,-0.51506 -0.79199,-0.4759 -0.765883,0.0836 -0.92675,1.01248 -0.26882,1.37513 0.23566,0.12982 0.49919,0.17921 0.73519,0.31574 l 0.0614,0.0409 c 0.23847,0.66992 -1.307402,0.56233 -1.777302,0.5394 -1.214966,-0.0586 -1.163461,-0.70697 -1.146175,-1.75966 0.0092,-0.56021 -0.373591,-1.37407 -1.082675,-1.25342 -0.252589,0.043 -0.432505,0.20955 -0.527403,0.41734 -0.236008,0.30938 -0.357364,0.74401 -0.08537,1.03858 0.252589,0.2741 0.66287,0.30621 0.947561,0.53869 0.142875,0.11641 0.230011,0.25329 0.300214,0.39793 0.02787,0.0716 0.05468,0.14464 0.0822,0.21731 0.0092,0.0406 0.01658,0.0819 0.02011,0.12418 0.02152,0.25612 -0.05468,0.36618 -0.282575,0.47484 -0.589845,7e-4 -1.15817,-0.0462 -1.50107,-0.64135 -0.239536,-0.41522 -0.248355,-0.98002 -0.410986,-1.43757 -0.140405,-0.39476 -0.334433,-0.768 -0.567267,-1.11584 -0.01164,-0.0434 -0.02505,-0.0868 -0.03351,-0.13053 -0.05574,-0.2794 -0.02258,-0.53234 0.04057,-0.78387 0.09948,-0.16968 0.227189,-0.32526 0.370769,-0.47131 0.314678,-0.31962 0.645937,-0.60325 1.109134,-0.65546 0.186619,-0.0208 0.286455,0.0402 0.461786,-0.0568 0.663575,-0.36583 0.166158,-1.55081 -0.385586,-1.76459 -0.231775,-0.09 -0.508706,0.0176 -0.698853,0.16086 -0.324556,0.24483 -0.268817,0.50871 -0.262467,0.87172 0.01376,0.77435 -0.554919,0.93451 -0.923925,1.41146 -0.190853,0.15029 -0.358422,0.29316 -0.694972,0.1711 -0.132644,-0.0476 -0.245181,-0.12524 -0.364067,-0.17145 -0.262466,-0.18344 -0.536222,-0.34678 -0.81668,-0.5013 -0.08431,-0.15381 -0.159809,-0.31115 -0.197203,-0.48718 -0.147814,-0.69145 0.258586,-0.86537 0.703792,-1.26154 0.27058,-0.24094 0.40005,-0.47201 0.326319,-0.84561 -0.176036,-0.89393 -1.380772,-1.45062 -2.212975,-1.17475 -0.294217,0.0977 -0.506942,0.31645 -0.472722,0.64382 0.01517,0.14323 0.08996,0.25577 0.176389,0.36654 0.06597,0.0843 0.09596,0.10442 0.175683,0.17427 0.331258,0.28999 0.441678,0.6791 0.469547,1.14159 0.02117,0.35137 -0.0508,0.61313 0.115006,0.94721 l -0.07267,-0.0402 c -0.528813,-0.29809 -1.054805,-0.64876 -1.391355,-1.16875 -0.159103,-0.24553 -0.251883,-0.49495 -0.378178,-0.72602 -0.006,-0.0494 -0.01058,-0.10019 -0.02187,-0.14746 -0.05151,-0.21696 -0.131586,-0.44344 -0.300214,-0.59901 -0.449086,-0.41381 -0.834672,-0.0363 -1.080206,0.36618 -0.245533,0.40287 -0.618772,0.86219 -0.227541,1.28729 0.480836,0.52246 1.158875,0.3376 1.761066,0.53234 l 0.01799,-3.6e-4 c 0.4572,0.47661 0.988131,0.79023 1.574447,1.10138 0.136878,0.13546 0.240242,0.29845 0.268464,0.51223 0.04904,0.36371 -0.239889,0.47801 -0.425803,0.70732 -0.124883,0.0974 -0.24518,0.20002 -0.367947,0.30162 -0.06385,0.0265 -0.123472,0.0684 -0.216253,0.14923 l -0.07655,0.0737 c -0.03246,0.0222 -0.06385,0.0455 -0.09772,0.0663 -0.789516,0.49389 -2.040467,-0.71684 -2.733675,0.15946 -0.449792,0.56832 -0.03246,1.3395 0.609953,1.49719 0.30868,0.0758 0.624064,0.0106 0.897114,-0.14817 0.16263,-0.0945 0.233539,-0.19473 0.371122,-0.31468 0.23107,-0.20073 0.5207,-0.36971 0.754592,-0.57679 0.216253,-0.13652 0.524933,-0.31997 0.687916,-0.31856 0.0254,0.29175 0.04022,0.768 0.03634,0.83221 -0.03598,0.57679 -0.205317,0.64381 -0.346781,1.04492 -0.04198,0.11959 -0.08961,0.24448 -0.06491,0.37536 0.113594,0.60607 1.019881,0.60184 1.393119,0.28363 0.210962,-0.17991 0.319617,-0.44697 0.274462,-0.72355 -0.07161,-0.43744 -0.479073,-0.43673 -0.645231,-0.79974 -0.111478,-0.24377 -0.04198,-0.87242 0.0071,-1.11654 0.09596,-0.47767 0.744361,-1.29858 1.393119,-0.97473 0.194381,0.15522 0.376414,0.32385 0.540103,0.514 0.179211,0.24447 0.337608,0.52705 0.48648,0.79833 0.25012,0.66111 0.202848,1.34797 0.430389,2.03835 l 0.02787,0.0709 c -0.01658,0.26141 -0.08855,0.52494 -0.272345,0.80504 -0.452614,0.69039 -1.12395,0.7306 -1.795639,1.0481 -0.610658,0.28822 -0.853722,1.04564 -0.458258,1.63866 0.272697,0.40922 0.913342,0.56021 1.277408,0.16933 0.115712,-0.12453 0.148167,-0.25823 0.179917,-0.42369 0.113242,-0.58737 -0.116064,-0.84419 0.399345,-1.32397 0.504825,-0.47061 1.197327,-0.82374 1.893711,-0.84314 0.431447,0.12277 0.928511,0.14323 1.434394,0.11853 0.03246,0.007 0.06562,0.0141 0.09772,0.0219 0.392641,0.0945 0.699205,0.2159 0.796572,0.6417 -0.186972,0.38241 -0.276931,0.82797 -0.331964,1.27035 -0.194733,0.393 -0.40393,0.74013 -0.847019,0.86501 -0.03316,0.006 -0.06562,0.0131 -0.09842,0.0205 -0.06809,0.0134 -0.136173,0.0268 -0.215195,0.03 -0.5715,0.0226 -0.443794,-0.24306 -0.775758,-0.51118 -0.451556,-0.36477 -0.904875,0.018 -0.870656,0.52847 0.03493,0.52422 0.422628,1.23154 1.032581,1.14194 0.344664,-0.0504 0.560564,-0.32032 0.788458,-0.55104 0.175331,-0.28928 0.428978,-0.33091 0.761295,-0.12559 0.05362,0.17251 0.06844,0.34854 0.0448,0.52811 -0.0063,0.10477 -0.02293,0.20778 -0.03951,0.31044 -0.224719,0.94263 -0.875947,1.57022 -1.557514,2.20557 -0.5588,-0.0794 -1.14935,0.45367 -1.179689,1.022 -0.01587,0.29421 0.140759,0.45191 0.33267,0.65017 0.200378,0.20743 0.452967,0.5916 0.759178,0.6484 0.564797,0.10513 0.93345,-0.70696 0.992716,-1.14794 0.02505,-0.18909 -0.04339,-0.38417 -0.02258,-0.56444 0.02787,-0.24095 -0.106892,-0.49742 0.02858,-0.68227 0.174272,-0.23742 0.351366,-0.37183 0.691797,-0.6664 0.250825,-0.33831 0.451908,-0.71261 0.565855,-1.15394 0.276931,-1.07209 0.152753,-2.09903 0.400051,-3.07481 0.132997,-0.3242 0.356658,-0.89147 0.583141,-0.82762 0.04127,0.012 0.284689,0.38347 0.322439,0.43604 0.13581,0.18944 0.24482,0.3055 0.27975,0.58102 0.0381,0.30621 0.0921,0.99589 0.6029,0.91017 0.23212,-0.0392 0.44379,-0.41769 0.55527,-0.5842 0.11994,-0.17956 0.25223,-0.36759 0.19226,-0.59796 -0.0554,-0.21025 -0.23671,-0.31715 -0.42474,-0.39582 -0.13159,-0.0554 -0.27411,-0.0797 -0.40499,-0.13864 -0.27446,-0.12241 -0.50977,-0.38382 -0.54469,-0.64629 0.73907,-1.20579 3.99203,1.07245 5.48852,2.33433 0.52281,0.44098 0.97895,0.88548 1.37019,1.39065 0.0924,0.27376 0.22789,0.54081 0.25646,0.82621 0.0434,0.43356 -0.25752,0.46743 -0.55738,0.53411 -0.41664,-0.007 -0.8502,0.0487 -1.22626,0.23706 -0.37536,0.18733 -0.65123,0.50448 -0.77541,0.90594 -0.0797,0.25894 -0.0508,0.53022 -0.11571,0.79445 -0.0367,0.15099 -0.0903,0.29669 -0.15557,0.43745 -0.64876,0.63253 -1.95545,1.03963 -1.91453,-0.33938 0.0106,-0.3683 0.18839,-0.35136 -0.0314,-0.65546 -0.44274,-0.61242 -1.28623,-0.3877 -1.69157,0.11113 -0.40252,0.49636 -0.13935,1.08938 0.45579,1.30351 0.16227,0.0586 0.30162,0.0233 0.4572,0.0639 0.75529,0.1958 0.44555,0.29881 0.83608,0.46144 0.242,0.10089 0.36195,0.0815 0.47837,0.34995 0.0406,0.0938 0.037,0.25259 0.0183,0.42616 -0.15064,0.2607 -0.23671,0.51682 -0.27905,0.77364 -0.35736,0.33585 -0.70767,0.67028 -1.08867,0.98496 -0.27764,0.2293 -0.58208,0.49953 -0.68721,0.8583 -0.0462,0.1584 0.0261,0.33902 -0.0123,0.47061 -0.0603,0.20391 -0.24059,0.29633 -0.43603,0.4438 -0.23636,0.17815 -0.63394,0.40844 -0.5909,0.76658 0.0773,0.63595 1.00047,0.39508 1.30598,0.11356 0.2286,-0.20987 0.3436,-0.49389 0.32138,-0.8019 -0.0233,-0.32554 -0.21131,-0.55908 -0.085,-0.92597 0.19226,-0.55633 0.8449,-1.01529 1.39136,-0.73907 0.0758,0.2219 0.1778,0.44909 0.30233,0.68439 0.17709,0.33479 0.37324,0.66887 0.50376,1.02588 0.15099,0.41381 0.0748,0.76905 0.0303,1.19447 -0.0536,0.51399 -0.004,1.00997 -0.0998,1.52149 -0.073,0.39166 0.0808,0.51788 0.48154,0.5158 0.60678,-0.003 1.71203,-0.72387 1.73284,-1.41856 0.0208,-0.71077 -0.59372,-0.48574 -1.01388,-0.78422 -0.40887,-0.29065 -0.4639,-1.09679 -0.63042,-1.53451 -0.10442,-0.27446 -0.22048,-0.55245 -0.35912,-0.81633 -0.18944,-0.514 -0.47837,-1.08338 -0.37148,-1.64359 0.0903,-0.47378 0.50977,-1.28976 1.09608,-1.23437 0.44521,0.0416 0.57362,0.62336 0.75883,0.94368 0.13758,0.23777 0.29245,0.46461 0.4318,0.70097 0.10301,0.17498 0.32314,0.47237 0.2928,0.68403 -0.006,0.0413 -0.0212,0.0808 -0.0363,0.1196 -0.15946,0.41592 -0.41734,0.9465 0.0882,1.23472 0.43357,0.24765 1.08162,0.0434 1.45309,-0.23777 0.57574,-0.43569 -0.16862,-1.00154 -0.52246,-1.22273 -0.0384,-0.0236 -0.0765,-0.0476 -0.11077,-0.0773 -0.24483,-0.21308 -0.4318,-0.63006 -0.60255,-0.90488 -0.20849,-0.33655 -0.40322,-0.68192 -0.5588,-1.04669 -0.19755,-0.46319 -0.4004,-0.96343 -0.4191,-1.47284 -0.0141,-0.38242 0.0811,-0.7426 0.28646,-1.06504 0.1203,-0.18909 0.2734,-0.42545 0.46884,-0.5715 0.65052,0 1.23119,-0.0116 1.8221,0.43356 0.26282,0.19826 0.46002,0.46708 0.629,0.76271 0.06,0.16333 0.11959,0.32667 0.18027,0.48965 0.64241,1.71838 1.39771,2.41089 2.94111,3.45617 0.35807,0.24306 0.91158,0.18344 1.35114,1.49401 0.85125,1.96632 1.12783,3.6974 0.13123,5.8251 -0.53411,1.14018 -1.93075,2.33536 -1.76389,3.68089 0.0254,0.20627 0.27305,0.38488 0.47625,0.2782 1.39877,-0.73614 2.42747,-0.24543 3.76837,0.2329 0.81527,0.29076 1.54976,-0.036 2.38549,0.18094 0.66569,0.17255 1.15534,0.56237 1.86478,0.60759 0.84314,0.0536 1.6958,0.0563 2.54776,0.10926 0.15487,0.01 0.32174,-0.10788 0.28999,-0.2829 -0.29316,-1.61851 -1.53706,-2.73431 -1.77024,-4.39843 -0.12489,-0.88829 -0.19015,-1.55924 0.0815,-2.43484 0.0579,-0.18482 0.121,-0.36727 0.18521,-0.54931 0.96061,-1.40793 2.23273,-2.6042 3.71792,-3.44201 0.22507,-0.127 0.48013,-0.25012 0.73237,-0.19227 0.47096,0.10725 0.58455,0.77005 0.36759,1.20192 -0.2166,0.43144 -0.63076,0.72637 -0.92286,1.11125 -0.2921,0.38488 -0.43498,0.9828 -0.0896,1.32111 0.40746,0.40005 1.13841,0.0758 1.41887,-0.42125 0.28081,-0.49706 0.29845,-1.09844 0.49777,-1.63396 0.29563,-0.99522 2.05423,1.02224 2.66171,1.97446 0.24871,0.38901 0.52599,0.87203 0.98743,0.8847 0.33513,0.009 0.61595,-0.2497 0.80997,-0.52282 0.30339,-0.42718 0.46955,-1.06715 0.10196,-1.44004 -0.24413,-0.24765 -0.62618,-0.27576 -0.97261,-0.31076 -1.38465,-0.14002 -2.92277,-0.84458 -3.21769,-2.20518 -0.0416,-0.19261 -0.0536,-0.40252 0.0346,-0.57891 0.14711,-0.29421 0.50977,-0.39511 0.83115,-0.46531 1.65629,-0.36124 3.6128,-0.64699 4.84963,0.51223 0.42651,0.40393 -0.43991,1.24877 0.0667,1.60264 0.50659,0.35457 1.3208,0.0952 1.52894,-0.4868 0.30762,-0.86148 -0.58561,-1.64395 -1.36243,-2.12549 -1.00154,-0.87771 2.64866,0.0924 3.97334,0.139 0.29809,0.0102 0.60713,0.0187 0.88159,-0.097 0.55986,-0.23671 0.79869,-0.998 0.5207,-1.53846"
       style="fill:#e13956;fill-opacity:1;fill-rule:nonzero;stroke:none;stroke-width:0.0352778"
       id="path1614" />
    <path
       d="m 114.09222,229.85783 c -0.11818,-0.1549 -0.2547,-0.29351 -0.38664,-0.40597 -0.53517,-0.45681 -1.23543,-0.63472 -1.92546,-0.50627 -0.5073,0.0949 -1.00859,0.35344 -1.39383,0.69356 -0.3944,0.34752 -0.8135,0.9084 -0.95638,1.41742 -0.22119,0.78673 0.37853,0.65652 0.8569,0.87288 0.57467,0.26032 1.11584,0.26458 1.67957,-0.0181 0.42545,-0.12143 0.90029,-0.2752 1.2827,-0.51111 0.0437,-0.002 0.0857,-0.01 0.13088,-0.007 0.36337,0.0158 0.68369,0.0907 0.9144,-0.29104 0.25189,-0.41769 0.078,-0.8763 -0.20214,-1.24397"
       style="fill:#7e462d;fill-opacity:1;fill-rule:nonzero;stroke:none;stroke-width:0.0352778"
       id="path1616" />
    <path
       d="m 125.38182,231.26799 c -0.0878,-0.45699 -0.29951,-0.89436 -0.63959,-1.21641 -0.32244,-0.30522 -0.88476,-0.58318 -1.33068,-0.61627 -0.35136,-0.0262 -0.57643,-0.0974 -0.88582,-0.27587 -0.29775,-0.17156 -0.58561,-0.36834 -0.91899,-0.46468 -0.51717,-0.14922 -1.10031,-0.14428 -1.63089,-0.0952 -0.69038,0.0635 -1.23613,0.25121 -1.7593,0.70901 -0.2473,0.21661 -0.47096,0.55809 -0.4124,0.90385 0.0515,0.3066 0.32173,0.53054 0.44979,0.80395 0.22472,0.47843 0.254,0.85975 0.71473,1.20826 0.0571,0.0434 0.11889,0.0759 0.17886,0.11148 1.55928,1.2277 4.3882,0.3175 5.97676,-0.40171 0.24941,-0.11257 0.30268,-0.43254 0.25753,-0.6664"
       style="fill:#7e462d;fill-opacity:1;fill-rule:nonzero;stroke:none;stroke-width:0.0352778"
       id="path1618" />
    <path
       d="m 120.15683,231.38649 c -0.11783,-0.1549 -0.25506,-0.29351 -0.387,-0.40612 -0.53481,-0.45681 -1.23508,-0.635 -1.92546,-0.50613 -0.50659,0.0945 -1.00789,0.35345 -1.39347,0.69314 -0.19932,0.17572 -0.32562,0.40503 -0.48613,0.61214 -0.23566,0.30466 -0.5969,0.76479 -0.51188,1.18029 0.19755,0.96559 1.95015,0.65871 2.5781,0.47981 0.5274,-0.15035 1.08902,-0.53481 1.63653,-0.50973 0.94333,0.0427 0.93628,-0.95747 0.48931,-1.5434"
       style="fill:#905034;fill-opacity:1;fill-rule:nonzero;stroke:none;stroke-width:0.0352778"
       id="path1620" />
    <path
       d="m 81.996146,234.69488 -0.02328,0.008 c -0.251178,0.0879 -0.251531,0.42376 0,0.51196 l 0.02328,0.008 c 0.170039,0.0597 0.346428,-0.0952 0.346428,-0.26388 0,-0.16856 -0.176742,-0.32343 -0.346428,-0.26377"
       style="fill:#dcba99;fill-opacity:1;fill-rule:nonzero;stroke:none;stroke-width:0.0352778"
       id="path2184" />
    <path
       d="m 83.490513,235.06984 c -0.183797,0 -0.18415,0.2854 0,0.2854 0.183797,0 0.18415,-0.2854 0,-0.2854"
       style="fill:#dcba99;fill-opacity:1;fill-rule:nonzero;stroke:none;stroke-width:0.0352778"
       id="path2186" />
  </g>
</svg>
