<?xml version="1.0" encoding="UTF-8" standalone="no"?>
<svg
   xmlns="http://www.w3.org/2000/svg"
   width="210mm"
   height="297mm"
   viewBox="0 0 210 297"
   version="1.1"
   id="svg6262"
>
  <defs
     id="defs6256" />
  <sodipodi:namedview
     id="base"
     pagecolor="#ffffff"
     bordercolor="#666666"
     borderopacity="1.0"
     showgrid="false"
   />
  <metadata
     id="metadata6259">
    <rdf:RDF>
      <cc:Work
        >
        <dc:format>image/svg+xml</dc:format>
        <dc:type
          />
        <dc:title></dc:title>
      </cc:Work>
    </rdf:RDF>
  </metadata>
  <g
     id="layer1">
    <path
       d="m 96.797522,178.32857 c -0.101952,-0.5782 -0.163336,-1.17828 -0.305858,-1.74766 -0.01411,-0.0579 -0.105481,-0.0459 -0.104069,0.0141 l 0.0014,0.0289 c -0.136173,0.0501 -0.525639,0.18803 -0.946503,0.29245 -0.417336,0.10372 -0.79622,0.11677 -0.932745,0.11783 l -0.0035,-0.0145 c -0.01552,-0.0564 -0.107598,-0.0469 -0.104423,0.0145 0.03034,0.58632 0.224367,1.19627 0.339373,1.77059 0.116769,0.58314 0.245533,1.16417 0.360538,1.74802 0.01199,0.0624 0.101953,0.0377 0.09772,-0.0219 0.06703,-0.036 0.356306,-0.18344 0.745772,-0.27446 0.381,-0.0889 0.902053,-0.1845 1.045634,-0.21025 0.02681,0.0339 0.09596,0.006 0.08819,-0.0487 -0.07937,-0.5588 -0.183797,-1.11372 -0.281517,-1.66899"
       style="fill:#ca314c;fill-opacity:1;fill-rule:nonzero;stroke:none;stroke-width:0.0352778"
       id="path1638" />
    <path
       d="m 104.98056,177.01095 c -0.14323,0.003 -0.59408,0.004 -0.97543,-0.10055 -0.35984,-0.0988 -0.75601,-0.2353 -0.91158,-0.29068 l 0.001,-0.0247 c 0.001,-0.0596 -0.0893,-0.0723 -0.10443,-0.0141 -0.1397,0.54963 -0.1972,1.13242 -0.29562,1.69086 -0.0945,0.53623 -0.19544,1.0728 -0.27164,1.6122 -0.005,0.0367 0.0247,0.061 0.0533,0.0632 l -0.005,0.025 c 0,0 0.85513,0.20991 1.14653,0.29704 0.23248,0.0698 0.55068,0.18274 0.67063,0.22578 v 0.001 c -0.0109,0.0632 0.085,0.0914 0.0977,0.0268 0.1143,-0.57891 0.24165,-1.155 0.35736,-1.7332 0.11395,-0.56903 0.30692,-1.1751 0.33655,-1.75542 0.003,-0.0568 -0.0769,-0.0688 -0.0998,-0.0233"
       style="fill:#ca314c;fill-opacity:1;fill-rule:nonzero;stroke:none;stroke-width:0.0352778"
       id="path1640" />
    <path
       d="m 92.41955,182.16926 c -1.100667,-0.78951 -2.209095,-1.56704 -3.286125,-2.38866 -0.520348,-0.39722 -1.091495,-0.78986 -1.541639,-1.26964 -0.321734,-0.3429 -0.455789,-0.8763 -0.597959,-1.31304 -0.214489,-0.65723 -0.371475,-1.33103 -0.591255,-1.98649 -0.02328,-0.0702 -0.128411,-0.0459 -0.119592,0.0212 -0.141464,0.0109 -0.506236,0.0395 -0.795161,0.0621 -0.308328,0.0247 -0.98037,0.0222 -1.184981,0.0205 l -0.006,-0.0159 c -0.02646,-0.0688 -0.131233,-0.0434 -0.112889,0.031 0.202142,0.80963 0.466372,1.61114 0.732367,2.40171 0.255411,0.75777 0.509411,1.62596 1.005769,2.26872 0.432859,0.55986 1.143706,0.97402 1.706387,1.39171 0.481188,0.35701 0.960966,0.71684 1.444272,1.07174 0.642055,0.47201 1.281289,0.99271 1.975556,1.38712 0.08255,0.0469 0.157338,-0.0808 0.07408,-0.12735 0.07444,-0.12454 0.252236,-0.40711 0.456142,-0.63254 0.220133,-0.24271 0.617361,-0.66428 0.756002,-0.81138 l 0.01482,0.01 c 0.07761,0.0473 0.141817,-0.0691 0.0702,-0.1203"
       style="fill:#ca314c;fill-opacity:1;fill-rule:nonzero;stroke:none;stroke-width:0.0352778"
       id="path1642" />
    <path
       d="m 115.32647,175.27669 c -0.16898,3.5e-4 -0.81809,0.004 -1.09361,0.0325 -0.25929,0.0268 -0.74048,-0.0444 -0.90805,-0.0716 0.0152,-0.0705 -0.0949,-0.0984 -0.11889,-0.0261 -0.21978,0.65546 -0.37712,1.32926 -0.59125,1.98649 -0.14217,0.43603 -0.27587,0.97084 -0.59796,1.31268 -0.45085,0.47802 -1.02376,0.8689 -1.54517,1.26365 -1.0795,0.81739 -2.19181,1.58715 -3.29247,2.37561 -0.0695,0.0497 -0.0106,0.16051 0.0646,0.12241 0.0815,0.0924 0.25258,0.28575 0.49812,0.55457 0.34925,0.38241 0.71931,1.00542 0.71931,1.00542 l 0.005,-0.003 c 0.0198,0.0279 0.0557,0.0441 0.0938,0.0222 1.12325,-0.63818 2.13889,-1.50989 3.17571,-2.27824 0.61277,-0.45403 1.30916,-0.88794 1.83938,-1.4411 0.50518,-0.52634 0.74719,-1.35008 0.98566,-2.02071 0.32315,-0.91017 0.62936,-1.84291 0.86325,-2.78095 0.0159,-0.0642 -0.0596,-0.0917 -0.0977,-0.0536"
       style="fill:#ca314c;fill-opacity:1;fill-rule:nonzero;stroke:none;stroke-width:0.0352778"
       id="path1644" />
    <path
       d="m 114.1369,190.02421 c 0.005,-0.77364 -0.10054,-1.58291 -0.26423,-2.34809 -0.0945,-0.44097 -0.3369,-0.89076 -0.57926,-1.01458 -0.57538,-0.29316 -1.42804,-0.14676 -2.05563,-0.0875 -0.42651,0.0402 -1.84574,0.24729 -2.09374,0.31503 -0.0353,0.01 -0.0367,0.0635 -0.0198,0.0931 -0.0109,0.0963 -0.0536,0.45685 -0.11288,0.8449 -0.054,0.35278 -0.15699,0.73061 -0.20038,0.88195 l -0.0212,0.003 c -0.0684,0.0102 -0.0744,0.15028 -0.008,0.14041 0.64946,-0.0991 1.20156,-0.12771 1.85491,-0.19897 0.38558,-0.0416 0.77893,-0.0744 1.16698,-0.0533 0.2854,0.0155 0.49919,0.0102 0.57785,0.29739 0.16087,0.58738 0.23354,1.19592 0.40394,1.78012 0.13335,0.45755 0.38276,1.12218 0.89993,1.0922 0.51788,-0.03 0.44944,-1.50284 0.4512,-1.74555"
       style="fill:#ca314c;fill-opacity:1;fill-rule:nonzero;stroke:none;stroke-width:0.0352778"
       id="path1646" />
    <path
       d="m 112.33456,190.69696 c -0.37288,-0.35419 -1.28905,-0.63147 -1.9311,-0.79798 -0.41452,-0.1076 -1.64783,-0.41064 -1.9043,-0.4184 -0.0522,-0.002 -0.10618,0.11501 -0.0635,0.12065 l 0.0138,0.002 c -0.073,0.13159 -0.26211,0.46779 -0.39899,0.6791 -0.13794,0.21378 -0.47272,0.60572 -0.60113,0.75459 l -0.0448,-0.0169 c -0.0649,-0.0254 -0.15099,0.0914 -0.0885,0.11747 0.43779,0.17886 2.67546,0.9144 3.04023,1.04775 0.26847,0.0984 0.47767,0.13935 0.46885,0.43745 -0.0176,0.60854 -0.12524,1.21144 -0.13265,1.82033 -0.006,0.47625 0.0384,1.18498 0.54222,1.30704 0.50377,0.12206 0.86819,-1.30633 0.94051,-1.53776 0.23107,-0.73871 0.36583,-1.54375 0.43215,-2.32339 0.0381,-0.44944 -0.0751,-1.00506 -0.2727,-1.19239"
       style="fill:#ca314c;fill-opacity:1;fill-rule:nonzero;stroke:none;stroke-width:0.0352778"
       id="path1648" />
    <path
       d="m 109.62241,193.10079 c -0.26423,-0.39194 -1.09996,-0.75106 -1.65735,-0.98496 -0.36407,-0.1524 -0.91335,-0.40428 -1.16664,-0.51646 -0.0437,-0.0194 -0.10301,0.084 -0.0688,0.10477 l 0.0169,0.01 c -0.13829,0.10724 -0.51999,0.39934 -0.8061,0.58067 -0.28116,0.1778 -0.57502,0.34607 -0.6865,0.40922 l -0.0445,-0.0226 c -0.0571,-0.0296 -0.1718,0.0833 -0.11677,0.11254 0.38488,0.20461 2.06199,1.11301 2.37419,1.28799 0.30269,0.16933 0.60572,0.3108 0.5708,0.5835 -0.0723,0.55703 -0.21167,1.11477 -0.27446,1.67252 -0.049,0.43638 -0.073,1.09114 0.37782,1.24918 0.45121,0.1584 0.91652,-1.11901 1.00401,-1.32503 0.27975,-0.65652 0.46461,-1.38995 0.56726,-2.10467 0.0582,-0.40323 0.0501,-0.84808 -0.09,-1.05622"
       style="fill:#ca314c;fill-opacity:1;fill-rule:nonzero;stroke:none;stroke-width:0.0352778"
       id="path1650" />
    <path
       d="m 105.84169,194.52495 c -0.0416,-0.36689 -1.23367,-1.19344 -1.58644,-1.3977 l -0.0702,0.0353 c -0.10266,0.0356 -0.53022,0.1852 -0.78387,0.26811 -0.24624,0.0801 -0.75353,0.2166 -0.90099,0.25611 l -0.0363,-0.0183 c -0.0448,-0.0205 -0.1517,0.0607 -0.10971,0.0885 0.45931,0.30197 1.58503,0.95391 1.76424,1.31974 0.0702,0.14323 -0.0318,0.87348 -0.0998,1.23931 -0.0624,0.33443 -0.12806,0.66851 -0.17357,1.00577 -0.0512,0.37888 -0.17533,1.17333 0.22825,1.35678 0.0589,0.0265 0.17251,0.037 0.18486,0.037 0.63994,0 1.06468,-1.3716 1.17581,-1.76565 0.1658,-0.58702 0.30868,-1.20686 0.3817,-1.81293 0.0194,-0.16086 0.0497,-0.40499 0.0261,-0.61207"
       style="fill:#ca314c;fill-opacity:1;fill-rule:nonzero;stroke:none;stroke-width:0.0352778"
       id="path1652" />
    <path
       d="m 84.452063,167.18679 c 0,0 -0.358775,0.53128 -0.643114,1.30069 -0.284691,0.7687 -0.434975,1.38536 -0.410633,1.87502 0.02364,0.4893 0.105481,1.25624 0.354894,1.61642 0.249414,0.36019 0.880887,0.7232 1.484137,0.76271 0.603602,0.0392 1.087614,-10e-4 1.453444,-0.14499 0.365478,-0.14394 0.63747,-0.51012 0.713317,-0.73237 0.07585,-0.22225 0.238478,-0.5147 0.173567,-1.05445 -0.06491,-0.53975 -0.30092,-1.45486 -0.372181,-1.68945 -0.07126,-0.2339 -0.20955,-0.75319 -0.227189,-0.89218 -0.01764,-0.13829 -0.0021,-0.31468 -0.0021,-0.31468 0,0 0.335845,0.39194 0.516114,0.52635 0.180975,0.13476 0.916517,0.97931 1.06045,1.13629 0.144287,0.15734 0.5969,0.66182 0.913342,1.2626 0.316089,0.60042 0.416631,1.10983 0.379942,1.41922 -0.03669,0.30939 -0.112536,0.68333 -0.300214,0.97437 -0.187678,0.29069 -0.327378,0.61454 -0.789517,0.97014 -0.462491,0.3556 -0.964847,0.66252 -1.60655,0.84808 -0.64135,0.18486 -1.513064,0.23671 -1.977672,0.26423 -0.464256,0.0279 -1.53917,-0.11007 -1.890889,-0.19226 -0.352073,-0.0819 -0.923573,-0.2032 -1.304573,-0.39794 -0.381352,-0.19473 -0.811389,-0.496 -1.07068,-0.85866 -0.258939,-0.36195 -0.430036,-0.85266 -0.492125,-1.08479 -0.05433,-0.2032 -0.230717,-1.41781 -0.258234,-1.74025 -0.0187,-0.22084 -0.06244,-0.65088 0.114653,-0.90452 0.177447,-0.2533 0.644172,-0.81104 1.122539,-1.20157 0.47872,-0.39017 1.544814,-1.0615 1.917348,-1.2513 0.458611,-0.2346 1.07315,-0.61454 1.141941,-0.49671"
       style="fill:#e13956;fill-opacity:1;fill-rule:nonzero;stroke:none;stroke-width:0.0352778"
       id="path1654" />
    <path
       d="m 115.16208,167.18679 c 0,0 0.35877,0.53128 0.64311,1.30069 0.28469,0.7687 0.43498,1.38536 0.41063,1.87502 -0.024,0.4893 -0.10548,1.25624 -0.35524,1.61642 -0.24906,0.36019 -0.88054,0.7232 -1.48414,0.76271 -0.60325,0.0392 -1.08761,-10e-4 -1.45309,-0.14499 -0.36548,-0.14394 -0.63747,-0.51012 -0.71332,-0.73237 -0.0759,-0.22225 -0.16968,-0.51082 -0.17357,-1.05445 -0.006,-0.75001 0.30092,-1.45486 0.37219,-1.68945 0.0709,-0.2339 0.20955,-0.75319 0.22718,-0.89218 0.0176,-0.13829 0.002,-0.31468 0.002,-0.31468 0,0 -0.30057,0.29492 -0.51647,0.52635 -0.15345,0.16474 -0.5408,0.53269 -1.06045,1.13629 -0.13864,0.16193 -0.59654,0.66182 -0.91298,1.2626 -0.31645,0.60042 -0.41699,1.10983 -0.37995,1.41922 0.0363,0.30939 0.11219,0.68333 0.30022,0.97437 0.18768,0.29069 0.32738,0.61454 0.78951,0.97014 0.4625,0.3556 0.96485,0.66252 1.60655,0.84808 0.64135,0.18486 1.51307,0.23671 1.97768,0.26423 0.46425,0.0279 1.53881,-0.11007 1.89089,-0.19226 0.35207,-0.0819 0.92357,-0.2032 1.30457,-0.39794 0.381,-0.19473 0.81103,-0.496 1.07033,-0.85866 0.25929,-0.36195 0.43038,-0.85266 0.49247,-1.08479 0.054,-0.2032 0.23072,-1.41781 0.25788,-1.74025 0.0187,-0.22084 0.0628,-0.65088 -0.1143,-0.90452 -0.17744,-0.2533 -0.64417,-0.81104 -1.12289,-1.20157 -0.47836,-0.39017 -1.54481,-1.0615 -1.91699,-1.2513 -0.45897,-0.2346 -1.07315,-0.61454 -1.14194,-0.49671"
       style="fill:#e13956;fill-opacity:1;fill-rule:nonzero;stroke:none;stroke-width:0.0352778"
       id="path1656" />
    <path
       d="m 97.752845,179.89737 c 0,0 -1.153584,0.12736 -2.080684,0.44592 -0.960614,0.3302 -1.383947,0.54257 -1.903942,0.87206 -0.515055,0.32667 -1.177572,0.8121 -1.437216,1.06151 -0.259998,0.24941 -0.697442,0.71085 -0.887589,0.99836 -0.190148,0.28716 -0.48895,0.78352 -0.612775,1.1176 -0.123825,0.33479 -0.32632,0.90629 -0.375356,1.42417 -0.04939,0.51752 -0.09031,0.89958 -0.04974,1.30598 0.06174,0.61842 0.154164,1.15535 0.313973,1.64535 0.159808,0.48966 0.7112,1.43193 0.874889,1.64254 0.162983,0.21061 0.693208,0.8322 1.049514,1.12501 0.356658,0.2928 1.1557,0.85548 1.623483,1.11372 0.800453,0.44167 1.917347,0.80609 2.454628,0.96202 0.536575,0.15628 1.8542,0.36266 2.737203,0.40111 0.882997,0.0381 1.909227,-0.0963 2.572097,-0.20602 0.66252,-0.10972 1.52753,-0.34608 2.40066,-0.71156 0.87312,-0.36512 1.82915,-0.99906 2.10643,-1.22696 0.27729,-0.22824 0.75706,-0.66181 0.94721,-0.88229 0.19015,-0.22014 0.79093,-1.07104 1.00507,-1.47497 0.21413,-0.40358 0.47342,-1.25024 0.52669,-1.57868 0.0533,-0.32879 0.13759,-0.99201 0.10972,-1.44745 -0.0282,-0.45578 -0.06,-0.89393 -0.20814,-1.50847 -0.14782,-0.61454 -0.45015,-1.1804 -0.70379,-1.53 -0.25365,-0.3496 -0.73413,-1.01424 -1.14935,-1.31269 -0.41487,-0.29845 -0.91582,-0.77787 -1.53318,-1.08267 -0.61736,-0.3048 -1.33173,-0.62654 -1.91452,-0.78176 -0.58244,-0.15487 -1.05445,-0.33161 -1.85103,-0.38876 -0.79692,-0.0568 -1.50565,-0.1524 -2.256009,-0.11536 -0.750358,0.037 -1.338439,0.0557 -1.758244,0.13229"
       style="fill:#e13956;fill-opacity:1;fill-rule:nonzero;stroke:none;stroke-width:0.0352778"
       id="path1658" />
    <path
       d="m 93.731531,171.03595 c 0.283633,-0.0695 0.732013,-0.15311 1.158875,-0.14817 0.709789,0.009 1.16593,0.18697 1.580797,0.40076 0.415219,0.21308 1.030464,0.80327 1.236133,1.3529 0.20567,0.54963 0.36195,1.18463 0.254,1.84961 -0.117122,0.71932 -0.491419,1.38219 -0.962378,1.72509 -0.470605,0.3429 -0.885825,0.60713 -1.784702,0.75071 -0.898878,0.14393 -1.779412,-0.11042 -2.153356,-0.25506 -0.373945,-0.14429 -0.934861,-0.6985 -1.213908,-1.14688 -0.197556,-0.3175 -0.393701,-0.86431 -0.420159,-1.40758 -0.02681,-0.54293 -0.0053,-0.90735 0.242006,-1.46333 0.24765,-0.55527 0.609247,-0.85125 0.910519,-1.07244 0.30092,-0.22154 0.644525,-0.46108 1.152173,-0.58561"
       style="fill:#e13956;fill-opacity:1;fill-rule:nonzero;stroke:none;stroke-width:0.0352778"
       id="path1660" />
    <path
       d="m 97.245197,173.68249 c 0,1.264 -0.957086,2.28882 -2.138186,2.28882 -1.180394,0 -2.137833,-1.02482 -2.137833,-2.28882 0,-1.26436 0.957439,-2.28918 2.137833,-2.28918 1.1811,0 2.138186,1.02482 2.138186,2.28918"
       style="fill:#ffffff;fill-opacity:1;fill-rule:nonzero;stroke:none;stroke-width:0.0352778"
       id="path1662" />
    <path
       d="m 103.74442,170.9982 c 0,0 0.48507,-0.16863 1.1931,-0.11042 0.70767,0.0586 1.10066,0.22684 1.51553,0.43992 0.41487,0.21378 1.1169,0.74295 1.32256,1.29222 0.20567,0.54963 0.40605,1.18957 0.23989,1.84291 -0.16615,0.65299 -0.44944,1.41852 -0.92039,1.76142 -0.47061,0.3429 -0.78105,0.62054 -1.67958,0.76412 -0.89888,0.14358 -1.90782,-0.20955 -2.28177,-0.35419 -0.37394,-0.14429 -1.03363,-0.75741 -1.23966,-1.06927 -0.20602,-0.31221 -0.3937,-0.86431 -0.42016,-1.40758 -0.0268,-0.54293 0.002,-0.85831 0.24977,-1.41358 0.24765,-0.55528 0.514,-0.91405 0.81527,-1.13524 0.30092,-0.22155 0.70238,-0.46884 1.20544,-0.61031"
       style="fill:#e13956;fill-opacity:1;fill-rule:nonzero;stroke:none;stroke-width:0.0352778"
       id="path1664" />
    <path
       d="m 107.09511,173.5636 c 0,1.26436 -0.95709,2.28918 -2.13784,2.28918 -1.18074,0 -2.13783,-1.02482 -2.13783,-2.28918 0,-1.264 0.95709,-2.28882 2.13783,-2.28882 1.18075,0 2.13784,1.02482 2.13784,2.28882"
       style="fill:#ffffff;fill-opacity:1;fill-rule:nonzero;stroke:none;stroke-width:0.0352778"
       id="path1666" />
    <path
       d="m 96.478258,176.50683 c -1.435805,0.55739 -3.019778,0.66075 -4.18853,-0.48895 -0.678392,-0.66711 -0.906639,-1.78682 -0.725312,-2.70369 0.16757,-0.84984 0.838906,-1.54658 1.588206,-1.94522 1.20015,-0.63853 2.917825,-0.53164 3.903134,0.46214 0.621241,0.62653 0.920044,1.54587 0.854075,2.42006 -0.07691,1.02164 -0.668867,1.75401 -1.514475,2.27647 -0.09772,0.0603 -0.01129,0.20814 0.09031,0.15416 1.377244,-0.73377 1.918053,-2.26624 1.43898,-3.73873 -0.358775,-1.10279 -1.266472,-1.8595 -2.389011,-2.0881 -1.441097,-0.29315 -3.045883,0.32456 -3.836811,1.58891 -0.753886,1.20509 -0.361597,3.03989 0.712964,3.91372 1.195564,0.97226 2.773186,0.89429 4.117975,0.27129 0.06773,-0.0314 0.01905,-0.14958 -0.05151,-0.12206"
       style="fill:#e13956;fill-opacity:1;fill-rule:nonzero;stroke:none;stroke-width:0.0352778"
       id="path1668" />
    <path
       d="m 95.107364,171.49632 c -1.122186,0 -2.034822,0.98073 -2.034822,2.18617 0,1.20509 0.912636,2.18581 2.034822,2.18581 1.122186,0 2.034822,-0.98072 2.034822,-2.18581 0,-1.20544 -0.912636,-2.18617 -2.034822,-2.18617 z m 0,4.578 c -1.235781,0 -2.241197,-1.07315 -2.241197,-2.39183 0,-1.31904 1.005416,-2.39219 2.241197,-2.39219 1.235428,0 2.240845,1.07315 2.240845,2.39219 0,1.31868 -1.005417,2.39183 -2.240845,2.39183"
       style="fill:#e13956;fill-opacity:1;fill-rule:nonzero;stroke:none;stroke-width:0.0352778"
       id="path1670" />
    <path
       d="m 90.704697,188.74328 -0.04657,-0.007 c -0.03704,-0.12735 -0.150636,-0.53304 -0.208139,-0.9091 -0.05574,-0.36725 -0.09737,-0.71085 -0.111125,-0.82797 l 0.03563,0.006 c 0.04304,0.006 0.07091,-0.12559 0.02081,-0.13899 -0.248003,-0.0674 -1.73355,-0.27799 -2.159706,-0.31821 -0.627944,-0.0593 -1.490133,-0.17956 -2.065514,0.1136 -0.242711,0.12382 -0.485069,0.57361 -0.579261,1.01458 -0.164394,0.76518 -0.269875,1.57445 -0.264583,2.34809 0.0018,0.24271 -0.06632,1.71556 0.451555,1.74555 0.51682,0.03 0.766586,-0.63465 0.899936,-1.0922 0.170392,-0.5842 0.243064,-1.19274 0.403578,-1.78012 0.07902,-0.28716 0.292806,-0.28187 0.578203,-0.29739 0.387703,-0.0212 0.78105,0.0116 1.166636,0.0533 0.653345,0.0713 1.236839,0.13159 1.886303,0.23036 0.06668,0.01 0.06103,-0.12982 -0.0078,-0.1404"
       style="fill:#ca314c;fill-opacity:1;fill-rule:nonzero;stroke:none;stroke-width:0.0352778"
       id="path1672" />
    <path
       d="m 92.066419,191.00035 0.04939,-0.0198 c 0,0 -0.480836,-0.54715 -0.653344,-0.81421 -0.172509,-0.2674 -0.430389,-0.73519 -0.430389,-0.73519 l -0.08079,0.0247 -0.03281,-0.0134 c -0.256822,0.007 -1.633008,0.3489 -2.047522,0.4565 -0.642056,0.16651 -1.55822,0.44379 -1.931458,0.79798 -0.197203,0.18733 -0.310445,0.74295 -0.272345,1.19239 0.06632,0.77964 0.201083,1.58468 0.432153,2.32339 0.07232,0.23143 0.436386,1.65982 0.940858,1.53776 0.503414,-0.12206 0.547864,-0.83114 0.541867,-1.30704 -0.0074,-0.60889 -0.115006,-1.21179 -0.132644,-1.82033 -0.0088,-0.2981 0.200377,-0.33902 0.468841,-0.43745 0.364772,-0.13335 2.728736,-0.90628 3.166181,-1.08585 0.03986,-0.0166 0.01905,-0.0695 -0.01799,-0.0995"
       style="fill:#ca314c;fill-opacity:1;fill-rule:nonzero;stroke:none;stroke-width:0.0352778"
       id="path1674" />
    <path
       d="m 94.128053,192.6009 c 0.04833,-0.0293 0.07796,-0.0473 0.07796,-0.0473 0,0 -0.377825,-0.21061 -0.733425,-0.43568 -0.355953,-0.22542 -0.85972,-0.62195 -0.85972,-0.62195 l -0.01411,0.007 -0.0321,-0.005 c -0.253294,0.11219 -1.038578,0.46496 -1.402292,0.61736 -0.557388,0.2339 -1.393472,0.59302 -1.65735,0.98496 -0.140405,0.20814 -0.148166,0.65299 -0.09031,1.05622 0.103011,0.71472 0.287867,1.44815 0.567267,2.10467 0.08749,0.20602 0.553156,1.48308 1.004358,1.32503 0.450498,-0.15804 0.426509,-0.8128 0.377473,-1.24918 -0.06244,-0.55775 -0.202142,-1.11549 -0.273756,-1.67252 -0.03563,-0.2727 0.267758,-0.41417 0.570089,-0.5835 0.312561,-0.17498 2.202039,-1.18851 2.587272,-1.39312 0.04269,-0.0226 -0.05115,-0.0783 -0.121355,-0.0875"
       style="fill:#ca314c;fill-opacity:1;fill-rule:nonzero;stroke:none;stroke-width:0.0352778"
       id="path1676" />
    <path
       d="m 96.975322,193.71427 c 0.04198,-0.0275 -0.0956,-0.0942 -0.140405,-0.0734 l -0.05962,0.0303 c -0.2159,-0.0632 -0.706261,-0.20673 -0.928864,-0.2794 -0.28963,-0.0942 -0.66675,-0.31503 -0.66675,-0.31503 l -0.03175,0.0279 -0.05644,-0.012 c -0.352778,0.20461 -1.737078,1.15358 -1.778706,1.52047 -0.02364,0.20673 0.0071,0.45085 0.02646,0.61242 0.07303,0.60537 0.215547,1.22555 0.381705,1.81257 0.111125,0.3937 0.535517,1.76565 1.175456,1.76565 0.0127,0 0.125941,-0.0106 0.184855,-0.0374 0.403578,-0.18309 0.279753,-0.97755 0.2286,-1.35678 -0.04551,-0.33691 -0.111125,-0.67099 -0.173566,-1.00542 -0.06809,-0.36583 -0.170039,-1.09643 -0.09984,-1.23931 0.179563,-0.36583 1.47955,-1.14829 1.938866,-1.45062"
       style="fill:#ca314c;fill-opacity:1;fill-rule:nonzero;stroke:none;stroke-width:0.0352778"
       id="path1678" />
    <path
       d="m 102.95244,176.62889 c 1.12747,0.52211 2.48108,0.70026 3.60644,0.0758 1.32363,-0.73414 1.9618,-2.42041 1.42064,-3.85798 -0.94791,-2.51884 -4.98122,-2.78906 -6.21524,-0.40393 -0.79869,1.5441 -0.31503,3.41453 1.23225,4.23897 0.10125,0.054 0.18839,-0.0938 0.09,-0.15416 -0.84525,-0.52246 -1.43721,-1.25483 -1.51412,-2.27647 -0.066,-0.87348 0.23354,-1.79388 0.85407,-2.42006 0.98531,-0.99413 2.70299,-1.10067 3.90279,-0.46214 0.75,0.39864 1.42063,1.09467 1.58855,1.94522 0.18133,0.91687 -0.0469,2.03658 -0.72531,2.70369 -1.1684,1.14935 -2.75343,1.04634 -4.18853,0.48895 -0.0699,-0.0272 -0.11994,0.0903 -0.0515,0.12206"
       style="fill:#e13956;fill-opacity:1;fill-rule:nonzero;stroke:none;stroke-width:0.0352778"
       id="path1680" />
    <path
       d="m 104.95727,171.37779 c -1.12218,0 -2.03482,0.98072 -2.03482,2.18581 0,1.20544 0.91264,2.18581 2.03482,2.18581 1.12219,0 2.03483,-0.98037 2.03483,-2.18581 0,-1.20509 -0.91264,-2.18581 -2.03483,-2.18581 m 0,4.57835 c -1.23578,0 -2.24084,-1.0735 -2.24084,-2.39254 0,-1.31903 1.00506,-2.39183 2.24084,-2.39183 1.23578,0 2.2412,1.0728 2.2412,2.39183 0,1.31904 -1.00542,2.39254 -2.2412,2.39254"
       style="fill:#e13956;fill-opacity:1;fill-rule:nonzero;stroke:none;stroke-width:0.0352778"
       id="path1682" />
    <path
       d="m 106.71905,173.0743 c 0,0.6791 -0.42052,1.22978 -0.93945,1.22978 -0.51859,0 -0.93945,-0.55068 -0.93945,-1.22978 0,-0.6791 0.42086,-1.22978 0.93945,-1.22978 0.51893,0 0.93945,0.55068 0.93945,1.22978"
       style="fill:#333f48;fill-opacity:1;fill-rule:nonzero;stroke:none;stroke-width:0.0352778"
       id="path1684" />
    <path
       d="m 105.7796,172.78114 c 0,0.24518 -0.17075,0.44379 -0.38135,0.44379 -0.21061,0 -0.38171,-0.19861 -0.38171,-0.44379 0,-0.24483 0.1711,-0.44344 0.38171,-0.44344 0.2106,0 0.38135,0.19861 0.38135,0.44344"
       style="fill:#ffffff;fill-opacity:1;fill-rule:nonzero;stroke:none;stroke-width:0.0352778"
       id="path1686" />
    <path
       d="m 96.598908,173.0743 c 0,0.6791 -0.420511,1.22978 -0.939447,1.22978 -0.518936,0 -0.939447,-0.55068 -0.939447,-1.22978 0,-0.6791 0.420511,-1.22978 0.939447,-1.22978 0.518936,0 0.939447,0.55068 0.939447,1.22978"
       style="fill:#333f48;fill-opacity:1;fill-rule:nonzero;stroke:none;stroke-width:0.0352778"
       id="path1688" />
    <path
       d="m 95.659461,172.78114 c 0,0.24518 -0.170744,0.44379 -0.381705,0.44379 -0.210609,0 -0.381353,-0.19861 -0.381353,-0.44379 0,-0.24483 0.170744,-0.44344 0.381353,-0.44344 0.210961,0 0.381705,0.19861 0.381705,0.44344"
       style="fill:#ffffff;fill-opacity:1;fill-rule:nonzero;stroke:none;stroke-width:0.0352778"
       id="path1690" />
    <path
       d="m 92.568422,182.20525 c -1.495778,1.27141 -2.187222,2.95733 -2.054225,5.01191 0.270933,4.18924 4.912431,6.6922 9.243131,6.6922 3.179942,0 6.077652,-1.161 7.751582,-3.10586 1.23508,-1.4351 1.73038,-3.23815 1.43299,-5.21476 -0.18556,-1.23049 -0.75424,-2.24332 -1.84468,-3.28472 -1.62172,-1.54798 -4.21075,-2.43593 -7.104236,-2.43593 -3.231798,0 -5.521326,0.72073 -7.424562,2.33716 z m 7.188906,11.91048 c -4.425597,0 -9.170106,-2.57563 -9.449153,-6.88516 -0.137231,-2.12302 0.578555,-3.8668 2.126897,-5.18231 1.942747,-1.65029 4.273903,-2.38654 7.557912,-2.38654 2.946046,0 5.587296,0.90911 7.246406,2.49308 1.12572,1.07527 1.7138,2.12478 1.90606,3.40325 0.30727,2.03799 -0.20461,3.89784 -1.48025,5.37986 -1.71239,1.98967 -4.66867,3.17782 -7.907872,3.17782"
       style="fill:#e13956;fill-opacity:1;fill-rule:nonzero;stroke:none;stroke-width:0.0352778"
       id="path1692" />
    <path
       d="m 112.62031,167.89623 c -0.16933,0.77329 -0.42368,1.53105 -0.58067,2.30575 -0.11712,0.57785 -0.13899,1.19627 0.10971,1.74484 0.47731,1.05198 1.91135,1.06186 2.85292,0.73413 2.25072,-0.78352 1.16663,-4.16348 0.21061,-5.56013 -0.0596,-0.0871 -0.19685,-0.0106 -0.14323,0.0836 0.58067,1.02376 1.08232,2.10785 1.05092,3.30729 -0.0233,0.88759 -0.22013,1.65876 -1.1056,1.99284 -1.08232,0.40852 -2.56082,0.26106 -2.84621,-1.04881 -0.1524,-0.70132 0.0166,-1.41675 0.21978,-2.0895 0.14146,-0.46813 0.36724,-0.96202 0.30797,-1.45979 -0.005,-0.0395 -0.066,-0.0568 -0.0762,-0.0102"
       style="fill:#e13956;fill-opacity:1;fill-rule:nonzero;stroke:none;stroke-width:0.0352778"
       id="path1694" />
    <path
       d="m 112.57939,167.86024 c -0.55527,0.51153 -1.04704,1.10596 -1.55857,1.66088 -0.64417,0.69956 -1.22661,1.53705 -1.31974,2.51425 -0.0893,0.93839 0.58702,1.84961 1.29046,2.40559 0.72284,0.57079 1.65946,0.80998 2.5594,0.91087 0.80186,0.09 1.61572,0.0713 2.41088,-0.0674 0.96979,-0.16898 2.10185,-0.4385 2.73403,-1.25765 0.6417,-0.83115 0.78811,-2.01472 0.84561,-3.0286 0.0286,-0.50447 0.0138,-0.7433 -0.28116,-1.13453 -0.55069,-0.73096 -1.36737,-1.35114 -2.13502,-1.83409 -0.3683,-0.23178 -0.762,-0.42828 -1.15358,-0.61595 -0.24977,-0.11995 -0.54927,-0.30022 -0.83044,-0.33585 -0.0938,-0.0116 -0.11712,0.15311 -0.0226,0.16616 0.52705,0.0734 1.13101,0.49989 1.58892,0.75389 0.7112,0.39475 1.37653,0.91228 1.95827,1.4799 0.24765,0.242 0.58384,0.54927 0.69073,0.89359 0.0963,0.31044 0.0109,0.76693 -0.0194,1.08161 -0.0561,0.57715 -0.19015,1.16558 -0.38805,1.71133 -0.64735,1.78788 -2.90866,2.09126 -4.58435,2.05669 -0.84208,-0.0169 -1.70533,-0.13793 -2.48391,-0.47237 -0.93133,-0.4004 -1.92969,-1.32538 -2.03165,-2.38336 -0.10689,-1.10949 0.65617,-2.1008 1.36384,-2.86668 0.48048,-0.52034 0.96344,-1.03928 1.47179,-1.53246 0.0699,-0.067 -0.0349,-0.1711 -0.10548,-0.10584"
       style="fill:#e13956;fill-opacity:1;fill-rule:nonzero;stroke:none;stroke-width:0.0352778"
       id="path1696" />
    <path
       d="m 86.911983,167.90646 c -0.05962,0.49812 0.166511,0.9913 0.307622,1.45979 0.188736,0.62512 0.34537,1.27706 0.244122,1.93146 -0.102658,0.66569 -0.451555,1.16311 -1.130653,1.34867 -0.532694,0.14534 -1.229077,0.0508 -1.739547,-0.14182 -0.855133,-0.32279 -1.062567,-1.04281 -1.103489,-1.90288 -0.05821,-1.23225 0.452967,-2.34738 1.048809,-3.39725 0.05327,-0.0942 -0.08326,-0.17145 -0.143228,-0.0836 -0.956381,1.397 -2.040114,4.77661 0.210608,5.56013 0.938036,0.32667 2.379839,0.31927 2.852914,-0.73413 0.246945,-0.55069 0.226484,-1.16522 0.109714,-1.74484 -0.15628,-0.77505 -0.411339,-1.53246 -0.581025,-2.30575 -0.0099,-0.0462 -0.07091,-0.0296 -0.07585,0.0102"
       style="fill:#e13956;fill-opacity:1;fill-rule:nonzero;stroke:none;stroke-width:0.0352778"
       id="path1698" />
    <path
       d="m 86.923272,167.96608 c 1.008591,0.97754 2.286353,2.09867 2.711803,3.47204 0.378178,1.22025 -0.316795,2.32551 -1.325386,3.00072 -0.729545,0.48931 -1.648531,0.68228 -2.511073,0.75389 -0.703792,0.0586 -1.407936,0.0328 -2.104319,-0.0825 -0.946151,-0.15699 -2.03447,-0.39652 -2.643365,-1.20297 -0.65405,-0.86537 -0.771877,-2.12337 -0.818797,-3.16618 -0.01905,-0.41663 0.145697,-0.64629 0.416984,-0.95638 0.567619,-0.64876 1.298575,-1.2252 2.036233,-1.66441 0.320675,-0.1905 0.655814,-0.35948 0.989895,-0.52564 0.248002,-0.12277 0.536222,-0.31221 0.814563,-0.35066 0.09313,-0.0131 0.07197,-0.17815 -0.02258,-0.16616 -0.587728,0.0741 -1.246717,0.52846 -1.749073,0.81386 -0.765175,0.43462 -1.513064,1.022 -2.112433,1.66793 -0.207786,0.22366 -0.467078,0.50553 -0.543631,0.81316 -0.10795,0.43074 0.01834,1.02517 0.07761,1.45591 0.07761,0.56727 0.219075,1.15499 0.461434,1.67746 0.439561,0.94791 1.28658,1.3395 2.247194,1.59844 0.842787,0.22789 1.702859,0.32878 2.574926,0.29492 1.776236,-0.0692 3.991328,-0.78564 4.446411,-2.76684 0.239536,-1.0421 -0.437797,-2.18405 -1.109486,-2.92453 -0.563034,-0.61983 -1.114778,-1.28023 -1.731081,-1.84785 -0.07055,-0.0653 -0.17533,0.0388 -0.105833,0.10584"
       style="fill:#e13956;fill-opacity:1;fill-rule:nonzero;stroke:none;stroke-width:0.0352778"
       id="path1700" />
    <path
       d="m 100.31225,189.04561 c 0.50906,-0.0445 1.00859,-0.17357 1.46226,-0.36195 0.45579,-0.18768 0.87277,-0.46108 1.24072,-0.77435 0.17921,-0.16016 0.34043,-0.33655 0.48084,-0.53022 0.13793,-0.19474 0.25435,-0.40711 0.35383,-0.63253 0.20144,-0.45191 0.29422,-0.96238 0.44662,-1.49049 0.0159,-0.0554 0.0737,-0.0871 0.12876,-0.0713 0.0438,0.0127 0.0727,0.0512 0.0751,0.0942 l 3.5e-4,0.005 c 0.0279,0.52705 0.0324,1.09043 -0.12877,1.6457 -0.15063,0.55563 -0.4773,1.08127 -0.91122,1.4732 -0.42933,0.39265 -0.94298,0.67769 -1.49719,0.83362 -0.55351,0.14958 -1.13453,0.18203 -1.68557,0.013 -0.0547,-0.0169 -0.0854,-0.0748 -0.0684,-0.12947 0.0127,-0.0416 0.049,-0.0691 0.09,-0.0727 l 0.0127,-0.001"
       style="fill:#442439;fill-opacity:1;fill-rule:nonzero;stroke:none;stroke-width:0.0352778"
       id="path1702" />
    <path
       d="m 108.13545,188.11427 c -0.16016,-0.14675 -0.35666,-0.23918 -0.57856,-0.23918 -0.20955,0 -0.43003,0.091 -0.5782,0.23918 -0.14217,0.14217 -0.24871,0.37501 -0.23989,0.57856 0.01,0.21167 0.079,0.43109 0.23989,0.57856 0.15981,0.1471 0.35666,0.23953 0.5782,0.23953 0.20991,0 0.43039,-0.0914 0.57856,-0.23953 0.14181,-0.14182 0.24871,-0.37465 0.23953,-0.57856 -0.01,-0.21167 -0.0787,-0.43109 -0.23953,-0.57856"
       style="fill:#442439;fill-opacity:1;fill-rule:nonzero;stroke:none;stroke-width:0.0352778"
       id="path1704" />
    <path
       d="m 105.48291,189.34794 c -0.52035,0 -0.52105,0.80892 0,0.80892 0.52035,0 0.52141,-0.80892 0,-0.80892"
       style="fill:#442439;fill-opacity:1;fill-rule:nonzero;stroke:none;stroke-width:0.0352778"
       id="path1706" />
    <path
       d="m 105.06734,191.03916 c -0.31468,0 -0.6163,0.27693 -0.60184,0.60219 0.0145,0.32596 0.26458,0.60184 0.60184,0.60184 0.31503,0 0.61666,-0.27693 0.60219,-0.60184 -0.0145,-0.32597 -0.26458,-0.60219 -0.60219,-0.60219"
       style="fill:#442439;fill-opacity:1;fill-rule:nonzero;stroke:none;stroke-width:0.0352778"
       id="path1708" />
    <path
       d="m 102.91434,190.68744 c -0.22225,0 -0.43533,0.19543 -0.4251,0.42474 0.0102,0.23072 0.18662,0.4251 0.4251,0.4251 0.22225,0 0.43532,-0.19509 0.42474,-0.4251 -0.0102,-0.23001 -0.18662,-0.42474 -0.42474,-0.42474"
       style="fill:#442439;fill-opacity:1;fill-rule:nonzero;stroke:none;stroke-width:0.0352778"
       id="path1710" />
    <path
       d="m 101.87541,192.47531 c -0.20603,0 -0.40358,0.18098 -0.39406,0.3937 0.01,0.21343 0.17322,0.39406 0.39406,0.39406 0.20602,0 0.40357,-0.18133 0.39405,-0.39406 -0.01,-0.21343 -0.17322,-0.3937 -0.39405,-0.3937"
       style="fill:#442439;fill-opacity:1;fill-rule:nonzero;stroke:none;stroke-width:0.0352778"
       id="path1712" />
    <path
       d="m 100.25721,191.74436 -0.0215,-0.0145 c -0.22295,-0.14569 -0.513992,0.145 -0.367942,0.3683 l 0.01411,0.0219 c 0.09631,0.14675 0.301982,0.18415 0.431092,0.0554 0.12841,-0.12841 0.0914,-0.33478 -0.0557,-0.43109"
       style="fill:#442439;fill-opacity:1;fill-rule:nonzero;stroke:none;stroke-width:0.0352778"
       id="path1714" />
    <path
       d="m 98.154659,190.99541 c -0.539398,0 -0.540456,0.8382 0,0.8382 0.539044,0 0.540102,-0.8382 0,-0.8382"
       style="fill:#442439;fill-opacity:1;fill-rule:nonzero;stroke:none;stroke-width:0.0352778"
       id="path1716" />
    <path
       d="m 97.927822,192.26224 c -0.160513,0 -0.328788,0.0699 -0.442383,0.18344 -0.108655,0.1083 -0.190147,0.28646 -0.183092,0.44238 0.01517,0.33867 0.274814,0.62548 0.625475,0.62548 0.160514,0 0.329142,-0.0695 0.442384,-0.18345 0.108655,-0.1083 0.190147,-0.28645 0.183091,-0.44203 -0.01517,-0.33902 -0.274813,-0.62582 -0.625475,-0.62582"
       style="fill:#442439;fill-opacity:1;fill-rule:nonzero;stroke:none;stroke-width:0.0352778"
       id="path1718" />
    <path
       d="m 95.850314,191.25999 c -0.539397,0 -0.540456,0.8382 0,0.8382 0.539397,0 0.540103,-0.8382 0,-0.8382"
       style="fill:#442439;fill-opacity:1;fill-rule:nonzero;stroke:none;stroke-width:0.0352778"
       id="path1720" />
    <path
       d="m 94.188025,189.95189 c -0.161925,0 -0.331964,0.0706 -0.446617,0.18521 -0.109361,0.10936 -0.192264,0.28928 -0.184855,0.44627 0.01517,0.34254 0.277283,0.63182 0.631472,0.63182 0.161925,0 0.331964,-0.0705 0.446617,-0.18485 0.109714,-0.10972 0.191911,-0.28928 0.184855,-0.44697 -0.01517,-0.34185 -0.277283,-0.63148 -0.631472,-0.63148"
       style="fill:#442439;fill-opacity:1;fill-rule:nonzero;stroke:none;stroke-width:0.0352778"
       id="path1722" />
    <path
       d="m 92.250569,189.89263 -0.01764,0.005 c -0.304094,0.0818 -0.304447,0.53445 0,0.61665 l 0.01764,0.005 c 0.203906,0.055 0.410986,-0.10195 0.410986,-0.31292 0,-0.21025 -0.20708,-0.36794 -0.410986,-0.31326"
       style="fill:#442439;fill-opacity:1;fill-rule:nonzero;stroke:none;stroke-width:0.0352778"
       id="path1724" />
    <path
       d="m 91.921428,188.02255 c -0.816328,0 -0.818092,1.26894 0,1.26894 0.81668,0 0.817739,-1.26894 0,-1.26894"
       style="fill:#442439;fill-opacity:1;fill-rule:nonzero;stroke:none;stroke-width:0.0352778"
       id="path1726" />
    <path
       d="m 91.430361,186.59063 c -0.277283,0 -0.277636,0.43074 0,0.43074 0.277283,0 0.277636,-0.43074 0,-0.43074"
       style="fill:#442439;fill-opacity:1;fill-rule:nonzero;stroke:none;stroke-width:0.0352778"
       id="path1728" />
    <path
       d="m 93.840539,188.61981 -0.01729,0.006 c -0.122767,0.0462 -0.23107,0.1531 -0.22472,0.29527 0.0067,0.14429 0.09313,0.24553 0.22472,0.29492 l 0.01729,0.007 c 0.193675,0.0734 0.395817,-0.11254 0.395817,-0.30163 0,-0.18944 -0.202848,-0.37465 -0.395817,-0.30162"
       style="fill:#442439;fill-opacity:1;fill-rule:nonzero;stroke:none;stroke-width:0.0352778"
       id="path1730" />
    <path
       d="m 108.08959,185.71539 c -0.16334,0 -0.33514,0.0709 -0.45085,0.18662 -0.11042,0.11041 -0.19368,0.29174 -0.18662,0.45049 0.0155,0.34572 0.2801,0.63782 0.63747,0.63782 0.16369,0 0.33514,-0.0713 0.45085,-0.18697 0.11042,-0.11042 0.19367,-0.2921 0.18662,-0.45085 -0.0155,-0.34501 -0.28011,-0.63711 -0.63747,-0.63711"
       style="fill:#442439;fill-opacity:1;fill-rule:nonzero;stroke:none;stroke-width:0.0352778"
       id="path1732" />
    <path
       d="m 86.821672,186.69082 c -0.11677,0 -0.2159,0.0991 -0.2159,0.2159 0,0.11712 0.09878,0.21625 0.2159,0.21625 0.116769,0 0.2159,-0.0998 0.2159,-0.21625 0,-0.11748 -0.09878,-0.2159 -0.2159,-0.2159"
       style="fill:#442439;fill-opacity:1;fill-rule:nonzero;stroke:none;stroke-width:0.0352778"
       id="path1734" />
    <path
       d="m 88.055688,186.71516 c -0.440619,0 -0.441325,0.68509 0,0.68509 0.44062,0 0.441326,-0.68509 0,-0.68509"
       style="fill:#442439;fill-opacity:1;fill-rule:nonzero;stroke:none;stroke-width:0.0352778"
       id="path1736" />
    <path
       d="m 89.541589,187.49092 c -0.28575,0 -0.286103,0.44379 0,0.44379 0.28575,0 0.286102,-0.44379 0,-0.44379"
       style="fill:#442439;fill-opacity:1;fill-rule:nonzero;stroke:none;stroke-width:0.0352778"
       id="path1738" />
    <path
       d="m 90.498675,189.77198 c -0.16122,0 -0.315736,0.14146 -0.308328,0.30797 0.0074,0.16687 0.135467,0.30833 0.308328,0.30833 0.160866,0 0.315383,-0.14217 0.307975,-0.30833 -0.0074,-0.16686 -0.135467,-0.30797 -0.307975,-0.30797"
       style="fill:#442439;fill-opacity:1;fill-rule:nonzero;stroke:none;stroke-width:0.0352778"
       id="path1740" />
    <path
       d="m 88.055688,190.46483 c -0.314677,0 -0.31503,0.48895 0,0.48895 0.314678,0 0.315031,-0.48895 0,-0.48895"
       style="fill:#442439;fill-opacity:1;fill-rule:nonzero;stroke:none;stroke-width:0.0352778"
       id="path1742" />
    <path
       d="m 89.163764,190.79997 c -0.175331,0 -0.175684,0.27235 0,0.27235 0.17533,0 0.175683,-0.27235 0,-0.27235"
       style="fill:#442439;fill-opacity:1;fill-rule:nonzero;stroke:none;stroke-width:0.0352778"
       id="path1744" />
    <path
       d="m 89.314752,189.95048 c -0.29598,0 -0.296686,0.46038 0,0.46038 0.296334,0 0.297039,-0.46038 0,-0.46038"
       style="fill:#442439;fill-opacity:1;fill-rule:nonzero;stroke:none;stroke-width:0.0352778"
       id="path1746" />
    <path
       d="m 89.868966,186.85345 c -0.198261,0 -0.198614,0.30797 0,0.30797 0.198262,0 0.198614,-0.30797 0,-0.30797"
       style="fill:#442439;fill-opacity:1;fill-rule:nonzero;stroke:none;stroke-width:0.0352778"
       id="path1748" />
    <path
       d="m 92.513389,191.84843 c -0.128764,0 -0.252236,0.11359 -0.246239,0.24624 0.006,0.13299 0.108303,0.24624 0.246239,0.24624 0.128764,0 0.251883,-0.1136 0.246239,-0.24624 -0.006,-0.13335 -0.108303,-0.24624 -0.246239,-0.24624"
       style="fill:#442439;fill-opacity:1;fill-rule:nonzero;stroke:none;stroke-width:0.0352778"
       id="path1750" />
    <path
       d="m 91.228925,192.87325 c -0.262114,0 -0.262467,0.4071 0,0.4071 0.262114,0 0.262466,-0.4071 0,-0.4071"
       style="fill:#442439;fill-opacity:1;fill-rule:nonzero;stroke:none;stroke-width:0.0352778"
       id="path1752" />
    <path
       d="m 89.982208,192.80128 c -0.114653,0 -0.212372,0.0977 -0.212372,0.21273 0,0.115 0.09737,0.21237 0.212372,0.21237 0.115006,0 0.212725,-0.0977 0.212725,-0.21237 0,-0.11536 -0.09737,-0.21273 -0.212725,-0.21273"
       style="fill:#442439;fill-opacity:1;fill-rule:nonzero;stroke:none;stroke-width:0.0352778"
       id="path1754" />
    <path
       d="m 91.631797,192.15464 c -0.214136,0 -0.214489,0.33337 0,0.33337 0.214136,0 0.214489,-0.33337 0,-0.33337"
       style="fill:#442439;fill-opacity:1;fill-rule:nonzero;stroke:none;stroke-width:0.0352778"
       id="path1756" />
    <path
       d="m 95.207906,193.23273 c -0.155575,0 -0.3048,0.13688 -0.297392,0.29739 0.0071,0.16122 0.130528,0.29774 0.297392,0.29774 0.155575,0 0.3048,-0.13723 0.297391,-0.29774 -0.0071,-0.16122 -0.130527,-0.29739 -0.297391,-0.29739"
       style="fill:#442439;fill-opacity:1;fill-rule:nonzero;stroke:none;stroke-width:0.0352778"
       id="path1758" />
    <path
       d="m 94.024336,194.13196 c -0.230011,0 -0.230364,0.35772 0,0.35772 0.230011,0 0.230364,-0.35772 0,-0.35772"
       style="fill:#442439;fill-opacity:1;fill-rule:nonzero;stroke:none;stroke-width:0.0352778"
       id="path1760" />
    <path
       d="m 94.603597,194.16406 c -0.189089,0 -0.189441,0.29387 0,0.29387 0.189089,0 0.189442,-0.29387 0,-0.29387"
       style="fill:#442439;fill-opacity:1;fill-rule:nonzero;stroke:none;stroke-width:0.0352778"
       id="path1762" />
    <path
       d="m 104.07603,193.76048 c -0.0176,-0.12241 -0.17462,-0.18097 -0.26599,-0.0899 -0.0907,0.0907 -0.0321,0.248 0.09,0.26564 0.10865,0.037 0.21272,-0.067 0.17603,-0.17569"
       style="fill:#442439;fill-opacity:1;fill-rule:nonzero;stroke:none;stroke-width:0.0352778"
       id="path1764" />
    <path
       d="m 104.80311,193.94957 c -0.13617,0 -0.2667,0.11995 -0.26035,0.26071 0.006,0.14075 0.1143,0.25999 0.26035,0.25999 0.13617,0 0.2667,-0.11959 0.26035,-0.25999 -0.006,-0.14112 -0.1143,-0.26071 -0.26035,-0.26071"
       style="fill:#442439;fill-opacity:1;fill-rule:nonzero;stroke:none;stroke-width:0.0352778"
       id="path1766" />
    <path
       d="m 104.29934,193.40241 c -0.13194,0 -0.13229,0.20532 0,0.20532 0.13229,0 0.13265,-0.20532 0,-0.20532"
       style="fill:#442439;fill-opacity:1;fill-rule:nonzero;stroke:none;stroke-width:0.0352778"
       id="path1768" />
    <path
       d="m 105.28148,194.49497 c -0.14076,0 -0.27552,0.12382 -0.26917,0.26917 0.007,0.14569 0.11818,0.26881 0.26917,0.26881 0.14111,0 0.27587,-0.12347 0.26917,-0.26881 -0.006,-0.1457 -0.11819,-0.26917 -0.26917,-0.26917"
       style="fill:#442439;fill-opacity:1;fill-rule:nonzero;stroke:none;stroke-width:0.0352778"
       id="path1770" />
    <path
       d="m 106.76738,191.92816 c -0.34396,0 -0.34467,0.53445 0,0.53445 0.34431,0 0.34466,-0.53445 0,-0.53445"
       style="fill:#442439;fill-opacity:1;fill-rule:nonzero;stroke:none;stroke-width:0.0352778"
       id="path1772" />
    <path
       d="m 107.85323,193.17875 c -0.0205,-0.10618 -0.13053,-0.1718 -0.23213,-0.15804 -0.12453,0.0169 -0.2092,0.14076 -0.17533,0.26352 0.03,0.10936 0.14887,0.17745 0.25929,0.14711 0.11218,-0.031 0.16969,-0.14323 0.14817,-0.25259"
       style="fill:#442439;fill-opacity:1;fill-rule:nonzero;stroke:none;stroke-width:0.0352778"
       id="path1774" />
    <path
       d="m 107.49763,192.13488 c -0.20708,0 -0.20744,0.32244 0,0.32244 0.20743,0 0.20778,-0.32244 0,-0.32244"
       style="fill:#442439;fill-opacity:1;fill-rule:nonzero;stroke:none;stroke-width:0.0352778"
       id="path1776" />
    <path
       d="m 108.90803,192.59808 c -0.1711,0 -0.33549,0.15064 -0.32773,0.32773 0.008,0.17745 0.14429,0.32738 0.32773,0.32738 0.17145,0 0.33549,-0.15064 0.32773,-0.32738 -0.008,-0.17745 -0.14428,-0.32773 -0.32773,-0.32773"
       style="fill:#442439;fill-opacity:1;fill-rule:nonzero;stroke:none;stroke-width:0.0352778"
       id="path1778" />
    <path
       d="m 108.95848,193.60456 c -0.19615,0 -0.1965,0.30444 0,0.30444 0.19614,0 0.1965,-0.30444 0,-0.30444"
       style="fill:#442439;fill-opacity:1;fill-rule:nonzero;stroke:none;stroke-width:0.0352778"
       id="path1780" />
    <path
       d="m 108.58065,190.16144 c -0.34889,0 -0.34889,0.54187 0,0.54187 0.3489,0 0.34925,-0.54187 0,-0.54187"
       style="fill:#442439;fill-opacity:1;fill-rule:nonzero;stroke:none;stroke-width:0.0352778"
       id="path1782" />
    <path
       d="m 109.51234,189.88698 c -0.24836,0 -0.24871,0.38594 0,0.38594 0.24836,0 0.24906,-0.38594 0,-0.38594"
       style="fill:#442439;fill-opacity:1;fill-rule:nonzero;stroke:none;stroke-width:0.0352778"
       id="path1784" />
    <path
       d="m 110.29339,190.607 c -0.42404,0 -0.42474,0.65864 0,0.65864 0.42369,0 0.42439,-0.65864 0,-0.65864"
       style="fill:#442439;fill-opacity:1;fill-rule:nonzero;stroke:none;stroke-width:0.0352778"
       id="path1786" />
    <path
       d="m 111.27552,190.49588 c -0.13829,0 -0.27058,0.12135 -0.26387,0.26388 0.006,0.14287 0.11571,0.26387 0.26387,0.26387 0.13794,0 0.27023,-0.12135 0.26353,-0.26387 -0.006,-0.14288 -0.11571,-0.26388 -0.26353,-0.26388"
       style="fill:#442439;fill-opacity:1;fill-rule:nonzero;stroke:none;stroke-width:0.0352778"
       id="path1788" />
    <path
       d="m 111.95533,191.31291 c -0.1958,0 -0.19615,0.30445 0,0.30445 0.19614,0 0.19614,-0.30445 0,-0.30445"
       style="fill:#442439;fill-opacity:1;fill-rule:nonzero;stroke:none;stroke-width:0.0352778"
       id="path1790" />
    <path
       d="m 109.46225,187.0249 c -0.26882,0 -0.26953,0.41804 0,0.41804 0.26881,0 0.26916,-0.41804 0,-0.41804"
       style="fill:#442439;fill-opacity:1;fill-rule:nonzero;stroke:none;stroke-width:0.0352778"
       id="path1792" />
    <path
       d="m 110.36888,186.83863 c -0.31467,0 -0.31503,0.48895 0,0.48895 0.31433,0 0.31503,-0.48895 0,-0.48895"
       style="fill:#442439;fill-opacity:1;fill-rule:nonzero;stroke:none;stroke-width:0.0352778"
       id="path1794" />
    <path
       d="m 111.07409,187.2415 c -0.18063,0 -0.35384,0.15875 -0.34537,0.34502 0.008,0.18697 0.15169,0.34572 0.34537,0.34572 0.18027,0 0.35348,-0.1591 0.34501,-0.34572 -0.008,-0.18697 -0.15169,-0.34502 -0.34501,-0.34502"
       style="fill:#442439;fill-opacity:1;fill-rule:nonzero;stroke:none;stroke-width:0.0352778"
       id="path1796" />
    <path
       d="m 112.3081,186.76596 c -0.24623,0 -0.24659,0.38241 0,0.38241 0.24589,0 0.24624,-0.38241 0,-0.38241"
       style="fill:#442439;fill-opacity:1;fill-rule:nonzero;stroke:none;stroke-width:0.0352778"
       id="path1798" />
    <path
       d="m 113.0634,187.29089 c -0.38065,0 -0.381,0.59161 0,0.59161 0.38065,0 0.38135,-0.59161 0,-0.59161"
       style="fill:#442439;fill-opacity:1;fill-rule:nonzero;stroke:none;stroke-width:0.0352778"
       id="path1800" />
    <path
       d="m 81.149357,169.66223 c -0.248002,0 -0.248355,0.38559 0,0.38559 0.248356,0 0.248709,-0.38559 0,-0.38559"
       style="fill:#442439;fill-opacity:1;fill-rule:nonzero;stroke:none;stroke-width:0.0352778"
       id="path1802" />
    <path
       d="m 80.677341,170.27218 -0.01235,-0.013 h -0.07726 l -0.01235,0.013 c -0.04163,0.0452 -0.01305,0.12277 0.05115,0.12277 0.06385,0 0.09278,-0.0776 0.0508,-0.12277"
       style="fill:#442439;fill-opacity:1;fill-rule:nonzero;stroke:none;stroke-width:0.0352778"
       id="path1804" />
    <path
       d="m 80.994488,170.5985 c -0.110419,0 -0.216253,0.097 -0.210961,0.21132 0.0049,0.11465 0.09278,0.21131 0.210961,0.21131 0.110772,0 0.216606,-0.097 0.211667,-0.21131 -0.0053,-0.11465 -0.09313,-0.21132 -0.211667,-0.21132"
       style="fill:#442439;fill-opacity:1;fill-rule:nonzero;stroke:none;stroke-width:0.0352778"
       id="path1806" />
    <path
       d="m 80.458619,171.40637 0.0046,0.0109 c 0.03457,0.0857 0.140758,0.0861 0.17533,0 l 0.0046,-0.0109 c 0.06138,-0.15311 -0.246239,-0.15417 -0.184502,0"
       style="fill:#442439;fill-opacity:1;fill-rule:nonzero;stroke:none;stroke-width:0.0352778"
       id="path1808" />
    <path
       d="m 80.791288,171.93306 c -0.113242,-0.0131 -0.212019,0.0804 -0.226483,0.18733 -0.01764,0.12876 0.08255,0.24694 0.213783,0.24694 0.117828,0 0.218017,-0.0998 0.218017,-0.21801 0,-0.12101 -0.09172,-0.2032 -0.205317,-0.21626"
       style="fill:#442439;fill-opacity:1;fill-rule:nonzero;stroke:none;stroke-width:0.0352778"
       id="path1810" />
    <path
       d="m 81.004013,172.9286 c -0.130528,0 -0.130528,0.20355 0,0.20355 0.130881,0 0.130881,-0.20355 0,-0.20355"
       style="fill:#442439;fill-opacity:1;fill-rule:nonzero;stroke:none;stroke-width:0.0352778"
       id="path1812" />
    <path
       d="m 81.193102,171.48468 c -0.158045,0 -0.158397,0.24554 0,0.24554 0.158044,0 0.158397,-0.24554 0,-0.24554"
       style="fill:#442439;fill-opacity:1;fill-rule:nonzero;stroke:none;stroke-width:0.0352778"
       id="path1814" />
    <path
       d="m 81.363846,173.48387 v 0.0123 c 0,0.13653 0.212373,0.13688 0.212373,0 v -0.0123 c 0,-0.13687 -0.212373,-0.13723 -0.212373,0"
       style="fill:#442439;fill-opacity:1;fill-rule:nonzero;stroke:none;stroke-width:0.0352778"
       id="path1816" />
    <path
       d="m 118.2891,169.31616 c -0.16863,0 -0.16863,0.26176 0,0.26176 0.16863,0 0.16898,-0.26176 0,-0.26176"
       style="fill:#442439;fill-opacity:1;fill-rule:nonzero;stroke:none;stroke-width:0.0352778"
       id="path1818" />
    <path
       d="m 119.00418,170.20763 -0.0251,0.002 c -0.21801,0.0222 -0.21872,0.3175 0,0.33937 l 0.0251,0.003 c 0.0928,0.009 0.17215,-0.0861 0.17215,-0.17251 0,-0.0857 -0.079,-0.18168 -0.17215,-0.17215"
       style="fill:#442439;fill-opacity:1;fill-rule:nonzero;stroke:none;stroke-width:0.0352778"
       id="path1820" />
    <path
       d="m 118.99607,171.16683 c -0.46038,0 -0.46109,0.71543 0,0.71543 0.46002,0 0.46108,-0.71543 0,-0.71543"
       style="fill:#442439;fill-opacity:1;fill-rule:nonzero;stroke:none;stroke-width:0.0352778"
       id="path1822" />
    <path
       d="m 118.78017,172.4961 c -0.17534,0 -0.17569,0.27269 0,0.27269 0.17533,0 0.17568,-0.27269 0,-0.27269"
       style="fill:#442439;fill-opacity:1;fill-rule:nonzero;stroke:none;stroke-width:0.0352778"
       id="path1824" />
    <path
       d="m 118.1748,173.28208 c -0.3623,0 -0.36301,0.56304 0,0.56304 0.3623,0 0.36301,-0.56304 0,-0.56304"
       style="fill:#442439;fill-opacity:1;fill-rule:nonzero;stroke:none;stroke-width:0.0352778"
       id="path1826" />
    <path
       d="m 118.16245,171.84452 c -0.27093,0 -0.27164,0.42156 0,0.42156 0.27129,0 0.27164,-0.42156 0,-0.42156"
       style="fill:#442439;fill-opacity:1;fill-rule:nonzero;stroke:none;stroke-width:0.0352778"
       id="path1828" />
    <path
       d="m 118.2891,170.553 c -0.13829,0 -0.13829,0.21448 0,0.21448 0.13829,0 0.13864,-0.21448 0,-0.21448"
       style="fill:#442439;fill-opacity:1;fill-rule:nonzero;stroke:none;stroke-width:0.0352778"
       id="path1830" />
    <path
       d="m 114.91443,175.65769 c -0.1838,0 -0.18415,0.28575 0,0.28575 0.18379,0 0.18415,-0.28575 0,-0.28575"
       style="fill:#442439;fill-opacity:1;fill-rule:nonzero;stroke:none;stroke-width:0.0352778"
       id="path1832" />
    <path
       d="m 114.44982,176.71426 c -0.11712,0 -0.21696,0.0995 -0.21696,0.21661 0,0.11747 0.0995,0.2166 0.21696,0.2166 0.11712,0 0.21696,-0.0995 0.21696,-0.2166 0,-0.11748 -0.0995,-0.21661 -0.21696,-0.21661"
       style="fill:#442439;fill-opacity:1;fill-rule:nonzero;stroke:none;stroke-width:0.0352778"
       id="path1834" />
    <path
       d="m 114.24697,177.73802 c -0.14817,0 -0.14817,0.23037 0,0.23037 0.14817,0 0.14852,-0.23037 0,-0.23037"
       style="fill:#442439;fill-opacity:1;fill-rule:nonzero;stroke:none;stroke-width:0.0352778"
       id="path1836" />
    <path
       d="m 114.03319,178.34621 c -0.15946,0 -0.15981,0.24765 0,0.24765 0.15945,0 0.15945,-0.24765 0,-0.24765"
       style="fill:#442439;fill-opacity:1;fill-rule:nonzero;stroke:none;stroke-width:0.0352778"
       id="path1838" />
    <path
       d="m 113.45393,178.94593 c -0.23037,0 -0.23072,0.35772 0,0.35772 0.23001,0 0.23036,-0.35772 0,-0.35772"
       style="fill:#442439;fill-opacity:1;fill-rule:nonzero;stroke:none;stroke-width:0.0352778"
       id="path1840" />
    <path
       d="m 114.87668,176.27435 c -0.10336,0 -0.10336,0.16051 0,0.16051 0.10336,0 0.10336,-0.16051 0,-0.16051"
       style="fill:#442439;fill-opacity:1;fill-rule:nonzero;stroke:none;stroke-width:0.0352778"
       id="path1842" />
    <path
       d="m 84.731463,175.67145 c -0.117475,0 -0.217311,0.0998 -0.217311,0.21731 0,0.11783 0.09948,0.21696 0.217311,0.21696 0.117123,0 0.216959,-0.0998 0.216959,-0.21696 0,-0.11783 -0.09913,-0.21731 -0.216959,-0.21731"
       style="fill:#442439;fill-opacity:1;fill-rule:nonzero;stroke:none;stroke-width:0.0352778"
       id="path1844" />
    <path
       d="m 85.172083,176.52764 c -0.150284,0 -0.150636,0.23354 0,0.23354 0.150636,0 0.150636,-0.23354 0,-0.23354"
       style="fill:#442439;fill-opacity:1;fill-rule:nonzero;stroke:none;stroke-width:0.0352778"
       id="path1846" />
    <path
       d="m 85.121636,177.34997 c -0.129117,0 -0.129117,0.20037 0,0.20037 0.129116,0 0.129469,-0.20037 0,-0.20037"
       style="fill:#442439;fill-opacity:1;fill-rule:nonzero;stroke:none;stroke-width:0.0352778"
       id="path1848" />
    <path
       d="m 85.625402,177.51119 c -0.229305,0 -0.229658,0.3563 0,0.3563 0.229306,0 0.229659,-0.3563 0,-0.3563"
       style="fill:#442439;fill-opacity:1;fill-rule:nonzero;stroke:none;stroke-width:0.0352778"
       id="path1850" />
    <path
       d="m 85.562608,178.49685 c -0.176389,0 -0.176742,0.27375 0,0.27375 0.176036,0 0.176389,-0.27375 0,-0.27375"
       style="fill:#442439;fill-opacity:1;fill-rule:nonzero;stroke:none;stroke-width:0.0352778"
       id="path1852" />
    <path
       d="m 81.335624,169.8552 c 0,-0.0621 -0.0254,-0.12382 -0.0769,-0.16016 -0.0049,-0.28787 0.259291,-0.55174 0.455436,-0.72707 0.270933,-0.24342 0.61348,-0.40535 0.977194,-0.47978 0.0053,-0.001 0.01094,-0.002 0.01623,-0.002 0.07056,0 0.151342,0.085 0.08996,0.1397 -0.243064,0.21626 -0.479072,0.25824 -0.828675,0.60608 -0.188736,0.18803 -0.377119,0.39687 -0.633236,0.623"
       style="fill:#e95d7b;fill-opacity:1;fill-rule:nonzero;stroke:none;stroke-width:0.0352778"
       id="path1854" />
    <path
       d="m 81.320102,169.86226 c -0.02822,0 -0.0508,-0.0684 -0.0568,-0.11042 -0.0028,-0.019 -0.0042,-0.0381 -0.0046,-0.0568 0.05151,0.0363 0.0769,0.0981 0.0769,0.16016 0,0 0,0 0,3.5e-4 -0.0053,0.005 -0.01058,0.007 -0.01552,0.007"
       style="fill:#765068;fill-opacity:1;fill-rule:nonzero;stroke:none;stroke-width:0.0352778"
       id="path1856" />
    <path
       d="m 86.004991,187.99468 c -0.136172,0 -0.267405,-0.12171 -0.231775,-0.29174 0.07161,-0.34255 0.452261,-0.62865 0.842081,-0.73343 0.02752,0.0878 0.110772,0.15346 0.206375,0.15346 0.107597,0 0.200378,-0.0847 0.214136,-0.18874 0.05927,0.008 0.116064,0.0215 0.168275,0.0427 0.08749,0.0346 0.151342,0.1591 0.06174,0.23354 -0.173214,0.14393 -0.391583,0.1718 -0.597253,0.25047 -0.229658,0.0878 -0.338314,0.22401 -0.468136,0.42228 -0.0508,0.078 -0.123825,0.11147 -0.195439,0.11147"
       style="fill:#d85574;fill-opacity:1;fill-rule:nonzero;stroke:none;stroke-width:0.0352778"
       id="path1858" />
    <path
       d="m 86.821672,187.12297 c -0.0956,0 -0.178859,-0.0656 -0.206375,-0.15346 0.103011,-0.0275 0.206728,-0.0427 0.305505,-0.0427 0.03951,0 0.07761,0.002 0.115006,0.007 -0.01376,0.10407 -0.106539,0.18874 -0.214136,0.18874"
       style="fill:#765068;fill-opacity:1;fill-rule:nonzero;stroke:none;stroke-width:0.0352778"
       id="path1860" />
    <path
       d="m 87.242888,192.09467 c -0.06385,0 -0.132291,-0.0441 -0.155575,-0.10584 -0.09772,-0.25611 0.105834,-0.56197 0.275873,-0.74259 0.153458,-0.16263 0.331611,-0.27094 0.523169,-0.36019 0.03916,0.0409 0.0956,0.0677 0.169333,0.0677 0.106187,0 0.176389,-0.0554 0.210962,-0.12911 0.01517,0.0423 0.0063,0.097 -0.03528,0.12594 -0.201084,0.13935 -0.433917,0.28504 -0.59937,0.46602 -0.17145,0.18662 -0.178152,0.39335 -0.2794,0.60678 -0.02399,0.0504 -0.06597,0.0713 -0.109714,0.0713"
       style="fill:#d85574;fill-opacity:1;fill-rule:nonzero;stroke:none;stroke-width:0.0352778"
       id="path1862" />
    <path
       d="m 88.055688,190.95378 c -0.07373,0 -0.130175,-0.0268 -0.169333,-0.0677 0.08749,-0.0406 0.1778,-0.0773 0.269875,-0.11324 0.01235,-0.005 0.02434,-0.007 0.03528,-0.007 0.03669,0 0.0635,0.0258 0.07514,0.0589 -0.03457,0.0737 -0.104775,0.12911 -0.210962,0.12911"
       style="fill:#765068;fill-opacity:1;fill-rule:nonzero;stroke:none;stroke-width:0.0352778"
       id="path1864" />
    <path
       d="m 89.920825,194.2392 c -0.05327,0 -0.104423,-0.025 -0.132645,-0.0847 -0.129116,-0.27023 -0.02505,-0.60043 0.115711,-0.84843 0.01517,-0.0265 0.03175,-0.054 0.04939,-0.0815 0.0095,0.001 0.01905,0.002 0.02893,0.002 0.115006,0 0.212725,-0.0977 0.212725,-0.21237 0,-0.0208 -0.0032,-0.0409 -0.0092,-0.06 0.08925,-0.0723 0.191205,-0.12065 0.303036,-0.12065 0.01834,0 0.03704,0.001 0.05609,0.004 0.07197,0.0102 0.119591,0.1069 0.09772,0.17181 -0.06491,0.19261 -0.265994,0.29986 -0.367594,0.47625 -0.115711,0.20143 -0.09984,0.41733 -0.172861,0.62829 -0.02575,0.0752 -0.105834,0.12559 -0.181328,0.12559"
       style="fill:#d85574;fill-opacity:1;fill-rule:nonzero;stroke:none;stroke-width:0.0352778"
       id="path1866" />
    <path
       d="m 89.982208,193.22638 c -0.0099,0 -0.0194,-7.1e-4 -0.02893,-0.002 0.06244,-0.0974 0.140759,-0.19649 0.232481,-0.27058 0.006,0.0191 0.0092,0.0392 0.0092,0.06 0,0.11465 -0.09772,0.21237 -0.212725,0.21237"
       style="fill:#765068;fill-opacity:1;fill-rule:nonzero;stroke:none;stroke-width:0.0352778"
       id="path1868" />
    <path
       d="m 93.923794,195.40866 c -0.0762,0 -0.144991,-0.0434 -0.161572,-0.14781 -0.04127,-0.25541 0.01976,-0.55633 0.160161,-0.80187 0.02646,0.019 0.06033,0.0307 0.101953,0.0307 0.177447,0 0.21837,-0.21238 0.122414,-0.30974 0.06738,-0.0593 0.142169,-0.1076 0.224014,-0.14147 0.01834,-0.008 0.03704,-0.0113 0.05503,-0.0113 0.07585,0 0.143228,0.0632 0.167922,0.13688 -0.134761,0.008 -0.166511,0.16969 -0.0949,0.24977 -0.07691,0.0942 -0.15875,0.18309 -0.214841,0.29421 -0.08079,0.15946 -0.09807,0.32421 -0.120298,0.49848 -0.01552,0.11924 -0.134761,0.20214 -0.239889,0.20214"
       style="fill:#d85574;fill-opacity:1;fill-rule:nonzero;stroke:none;stroke-width:0.0352778"
       id="path1870" />
    <path
       d="m 94.024336,194.48968 c -0.04163,0 -0.07549,-0.0117 -0.101953,-0.0307 0.06033,-0.10618 0.13582,-0.20179 0.224367,-0.27904 0.09596,0.0974 0.05503,0.30974 -0.122414,0.30974"
       style="fill:#765068;fill-opacity:1;fill-rule:nonzero;stroke:none;stroke-width:0.0352778"
       id="path1872" />
    <path
       d="m 94.498822,194.41383 c -0.07161,-0.0801 -0.03986,-0.24201 0.0949,-0.24977 0.01658,0.0487 0.01446,0.10195 -0.01517,0.14499 -0.02505,0.0363 -0.05186,0.0709 -0.07973,0.10478"
       style="fill:#765068;fill-opacity:1;fill-rule:nonzero;stroke:none;stroke-width:0.0352778"
       id="path1874" />
    <path
       d="m 105.31711,195.26826 c -0.0984,0 -0.19368,-0.0709 -0.19791,-0.19262 -0.001,-0.0321 3.5e-4,-0.0642 0.003,-0.0963 0.0437,0.0335 0.0984,0.0536 0.15946,0.0536 0.14111,0 0.27587,-0.12347 0.26917,-0.26881 -0.006,-0.1457 -0.11819,-0.26917 -0.26917,-0.26917 -0.0727,0 -0.14394,0.0332 -0.19474,0.0854 -0.0212,-0.0596 -0.0452,-0.11853 -0.0617,-0.17886 -0.005,-0.0159 -0.006,-0.0314 -0.006,-0.0466 0.0226,-0.0324 0.0381,-0.0695 0.0427,-0.109 0.0335,-0.0402 0.0825,-0.0674 0.1337,-0.0674 0.0282,0 0.0571,0.008 0.084,0.0268 0.27587,0.18803 0.39758,0.68227 0.20744,0.96978 -0.0423,0.0639 -0.1069,0.0931 -0.17004,0.0931"
       style="fill:#d85574;fill-opacity:1;fill-rule:nonzero;stroke:none;stroke-width:0.0352778"
       id="path1876" />
    <path
       d="m 105.01936,194.35491 c 10e-4,-0.0402 0.0173,-0.0783 0.0427,-0.109 -0.005,0.0395 -0.0201,0.0765 -0.0427,0.109"
       style="fill:#765068;fill-opacity:1;fill-rule:nonzero;stroke:none;stroke-width:0.0352778"
       id="path1878" />
    <path
       d="m 105.28148,195.03295 c -0.061,0 -0.11572,-0.0201 -0.15946,-0.0536 0.006,-0.0832 0.0176,-0.16616 0.005,-0.25012 -0.008,-0.0512 -0.0229,-0.10019 -0.0402,-0.14887 0.0508,-0.0522 0.12206,-0.0854 0.19474,-0.0854 0.15098,0 0.26282,0.12347 0.26917,0.26917 0.007,0.14534 -0.12806,0.26881 -0.26917,0.26881"
       style="fill:#765068;fill-opacity:1;fill-rule:nonzero;stroke:none;stroke-width:0.0352778"
       id="path1880" />
    <path
       d="m 109.20789,193.38936 c -0.0296,0 -0.06,-0.007 -0.0861,-0.0198 -0.0631,-0.0303 -0.0967,-0.078 -0.13193,-0.12736 0.13793,-0.0381 0.25258,-0.16827 0.24588,-0.31644 -0.001,-0.03 -0.006,-0.0589 -0.0145,-0.0868 0.15275,0.13935 0.25188,0.32455 0.0935,0.50553 -0.0279,0.0317 -0.067,0.0448 -0.10689,0.0448 m -0.623,-0.42086 c -0.23107,-0.10019 -0.49777,-0.14887 -0.70591,-0.28469 -0.0769,-0.0501 -0.0776,-0.15734 0,-0.20744 0.0893,-0.0579 0.18909,-0.0808 0.29316,-0.0808 0.22577,0 0.47166,0.10865 0.67416,0.20884 -0.14676,0.0307 -0.2727,0.16581 -0.266,0.32138 7.1e-4,0.0145 0.002,0.0289 0.005,0.0427"
       style="fill:#d85574;fill-opacity:1;fill-rule:nonzero;stroke:none;stroke-width:0.0352778"
       id="path1882" />
    <path
       d="m 108.98988,193.24225 c -0.019,-0.0261 -0.0385,-0.0529 -0.0631,-0.0776 -0.0762,-0.0762 -0.18944,-0.12312 -0.28505,-0.17004 -0.0187,-0.009 -0.0377,-0.0176 -0.0568,-0.0261 -0.002,-0.0138 -0.004,-0.0282 -0.005,-0.0427 -0.007,-0.15557 0.11924,-0.29069 0.266,-0.32138 0.0416,0.0208 0.0815,0.0413 0.11923,0.0603 0.0804,0.0406 0.17533,0.10124 0.25577,0.17427 0.008,0.0279 0.0131,0.0568 0.0145,0.0868 0.007,0.14817 -0.10795,0.27834 -0.24588,0.31644"
       style="fill:#765068;fill-opacity:1;fill-rule:nonzero;stroke:none;stroke-width:0.0352778"
       id="path1884" />
    <path
       d="m 111.64276,191.29316 c -0.0123,0 -0.0243,-0.002 -0.0356,-0.006 -0.12911,-0.0445 -0.18097,-0.12912 -0.28822,-0.20849 -0.0293,-0.0219 -0.0596,-0.0413 -0.0914,-0.0593 0.0155,0.003 0.0314,0.004 0.048,0.004 0.13794,0 0.27023,-0.12135 0.26353,-0.26387 0,-0.005 -3.5e-4,-0.0109 -10e-4,-0.0166 0.15593,0.10513 0.27799,0.24942 0.2413,0.44662 -0.0109,0.0589 -0.0762,0.10337 -0.13653,0.10337 m -0.54045,-0.3362 c -0.0483,-0.0215 -0.0974,-0.0413 -0.1457,-0.0614 -0.1337,-0.0554 -0.27128,-0.10336 -0.40463,-0.15945 -0.0519,-0.0762 -0.13829,-0.12912 -0.25859,-0.12912 -7.1e-4,0 -0.001,0 -0.002,0 -0.0547,-0.0328 -0.10725,-0.0688 -0.15699,-0.11006 -0.0804,-0.066 -0.0141,-0.2025 0.0808,-0.2025 10e-4,0 0.002,0 0.003,0 0.30162,0.008 0.62336,0.12418 0.91193,0.24695 -0.0723,0.048 -0.12277,0.12911 -0.11853,0.21837 0.004,0.0772 0.037,0.14851 0.0907,0.1972"
       style="fill:#d85574;fill-opacity:1;fill-rule:nonzero;stroke:none;stroke-width:0.0352778"
       id="path1886" />
    <path
       d="m 110.55198,190.73612 c -0.0896,-0.0377 -0.1771,-0.0794 -0.26035,-0.12912 3.5e-4,0 0.001,0 0.002,0 0.1203,0 0.20673,0.0529 0.25859,0.12912"
       style="fill:#765068;fill-opacity:1;fill-rule:nonzero;stroke:none;stroke-width:0.0352778"
       id="path1888" />
    <path
       d="m 111.27552,191.02363 c -0.0166,0 -0.0324,-0.001 -0.048,-0.004 -0.0406,-0.0229 -0.0825,-0.0434 -0.12524,-0.0624 -0.0536,-0.0487 -0.0871,-0.11995 -0.0907,-0.1972 -0.004,-0.0893 0.0462,-0.1704 0.11853,-0.21837 0.0568,0.024 0.11183,0.0483 0.1658,0.072 0.0787,0.0349 0.1644,0.0776 0.24201,0.12982 7.1e-4,0.006 0.001,0.0113 0.001,0.0166 0.007,0.14252 -0.12559,0.26387 -0.26353,0.26387"
       style="fill:#765068;fill-opacity:1;fill-rule:nonzero;stroke:none;stroke-width:0.0352778"
       id="path1890" />
    <path
       d="m 112.80799,187.44788 c -0.23389,-0.10478 -0.45685,-0.21343 -0.71402,-0.25929 -0.10407,-0.0183 -0.20708,-0.0243 -0.31009,-0.0243 -0.17428,0 -0.3482,0.0173 -0.52564,0.0194 -3.6e-4,0 -7.1e-4,0 -0.001,0 -0.1263,0 -0.18451,-0.18733 -0.0653,-0.24765 0.20673,-0.10443 0.4505,-0.1524 0.70027,-0.1524 0.0991,0 0.19896,0.007 0.29809,0.0222 -0.11853,0.0977 -0.0794,0.34255 0.11818,0.34255 0.16263,0 0.21802,-0.16722 0.16546,-0.28046 0.23742,0.0695 0.45755,0.17992 0.63076,0.3235 0.0434,0.0363 0.0624,0.0769 0.0635,0.11677 -0.031,-0.0109 -0.0656,-0.0173 -0.10442,-0.0173 -0.12841,0 -0.21378,0.0677 -0.25541,0.15699"
       style="fill:#d85574;fill-opacity:1;fill-rule:nonzero;stroke:none;stroke-width:0.0352778"
       id="path1892" />
    <path
       d="m 112.3081,187.14837 c -0.19755,0 -0.23671,-0.24483 -0.11818,-0.34255 0.096,0.0141 0.19121,0.0349 0.28364,0.0621 0.0526,0.11324 -0.003,0.28046 -0.16546,0.28046"
       style="fill:#765068;fill-opacity:1;fill-rule:nonzero;stroke:none;stroke-width:0.0352778"
       id="path1894" />
    <path
       d="m 112.95616,187.49621 c -0.0254,0 -0.0508,-0.005 -0.0751,-0.0159 -0.0247,-0.0106 -0.049,-0.0215 -0.073,-0.0325 0.0416,-0.0893 0.127,-0.15699 0.25541,-0.15699 0.0388,0 0.0734,0.006 0.10442,0.0173 0.002,0.0974 -0.1023,0.18803 -0.21166,0.18803"
       style="fill:#765068;fill-opacity:1;fill-rule:nonzero;stroke:none;stroke-width:0.0352778"
       id="path1896" />
    <path
       d="m 102.08707,173.0115 c -0.0829,0 -0.11536,-0.1143 -0.11253,-0.18873 0.005,-0.11677 0.0384,-0.24942 0.0889,-0.35525 0.2233,-0.46637 0.68262,-1.03117 1.24954,-1.03117 0.006,0 0.0127,0 0.0191,3.5e-4 0.0501,0.001 0.0377,0.14464 -0.004,0.17357 -0.44627,0.31186 -0.82974,0.63994 -1.04705,1.1557 -0.0303,0.072 -0.0829,0.22296 -0.17251,0.24306 -0.008,0.002 -0.0152,0.002 -0.0219,0.002"
       style="fill:#e95d7b;fill-opacity:1;fill-rule:nonzero;stroke:none;stroke-width:0.0352778"
       id="path1898" />
    <path
       d="m 91.736925,173.31066 c -0.01905,0 -0.03845,-0.0106 -0.05715,-0.0353 -0.06068,-0.0797 -0.05115,-0.20108 -0.0078,-0.33196 0.03528,-0.0914 0.0762,-0.18062 0.122414,-0.26705 0.08608,-0.15346 0.185208,-0.28999 0.236008,-0.3556 0.200731,-0.25894 0.488597,-0.59867 0.840317,-0.59867 0.0056,0 0.01094,0 0.01658,3.5e-4 0.06562,0.001 0.114653,0.078 0.07197,0.12489 -0.143581,0.15875 -0.320675,0.2293 -0.469547,0.37712 -0.149578,0.14781 -0.354895,0.43039 -0.462845,0.61066 -0.06068,0.10089 -0.176389,0.47589 -0.289983,0.47554"
       style="fill:#e95d7b;fill-opacity:1;fill-rule:nonzero;stroke:none;stroke-width:0.0352778"
       id="path1900" />
    <path
       d="m 91.672014,172.94342 c 0.02893,-0.0878 0.07373,-0.18027 0.122414,-0.26705 -0.04621,0.0864 -0.08714,0.17568 -0.122414,0.26705"
       style="fill:#e95d7b;fill-opacity:1;fill-rule:nonzero;stroke:none;stroke-width:0.0352778"
       id="path1902" />
    <path
       d="m 110.3703,172.45129 c -0.0543,0 -0.11113,-0.0247 -0.12736,-0.0677 -0.20143,-0.52987 -0.17109,-0.98072 -0.008,-1.39488 0.20778,-0.52846 0.52917,-1.09291 1.04105,-1.36067 0.049,-0.0257 0.0871,-0.0363 0.11571,-0.0363 0.0977,0 0.0885,0.12135 0.037,0.18909 -0.32491,0.42615 -0.59725,0.78881 -0.77823,1.25059 -0.097,0.24871 -0.13935,0.57468 -0.15734,0.84349 -0.0116,0.17886 0.0212,0.32491 -0.0102,0.5013 -0.009,0.0519 -0.0596,0.0751 -0.11253,0.0751"
       style="fill:#e95d7b;fill-opacity:1;fill-rule:nonzero;stroke:none;stroke-width:0.0352778"
       id="path1904" />
    <path
       d="m 109.4633,181.18607 c -0.0691,0 -0.12559,-0.0363 0.0198,-0.18344 0.40675,-0.41134 0.80574,-0.78176 1.21461,-1.10526 0.46003,-0.36406 0.99096,-0.74753 1.49225,-1.05445 0.0413,-0.0254 0.0843,-0.0363 0.12136,-0.0363 0.0995,0 0.15663,0.079 0.0296,0.1718 -0.53234,0.38841 -1.00083,0.81668 -1.50142,1.20438 -0.39299,0.30339 -0.78881,0.64206 -1.28164,0.98249 -0.0141,0.01 -0.0561,0.0208 -0.0945,0.0208"
       style="fill:#d85574;fill-opacity:1;fill-rule:nonzero;stroke:none;stroke-width:0.0352778"
       id="path1906" />
    <path
       d="m 115.6281,172.94695 c -0.008,0 -0.0155,-3.6e-4 -0.0236,-7.1e-4 -0.0564,-0.004 -0.091,-0.0504 -0.0801,-0.10548 0.0349,-0.17639 0.14217,-0.25012 0.26458,-0.381 0.13864,-0.14781 0.31221,-0.40358 0.41628,-0.5775 0.20214,-0.33796 0.30868,-0.60536 0.39299,-0.98072 0.0117,-0.0508 0.0332,-0.0695 0.0561,-0.0695 0.0377,0 0.0797,0.0494 0.0896,0.0885 0.11254,0.43039 -0.0596,0.86642 -0.27093,1.24143 -0.16016,0.28469 -0.47731,0.78493 -0.8449,0.78493"
       style="fill:#e95d7b;fill-opacity:1;fill-rule:nonzero;stroke:none;stroke-width:0.0352778"
       id="path1908" />
  </g>
</svg>
