<?xml version="1.0" encoding="UTF-8" standalone="no"?>
<svg
   xmlns:dc="http://purl.org/dc/elements/1.1/"
   xmlns:cc="http://creativecommons.org/ns#"
   xmlns:rdf="http://www.w3.org/1999/02/22-rdf-syntax-ns#"
   xmlns:svg="http://www.w3.org/2000/svg"
   xmlns="http://www.w3.org/2000/svg"
   xmlns:sodipodi="http://sodipodi.sourceforge.net/DTD/sodipodi-0.dtd"
   xmlns:inkscape="http://www.inkscape.org/namespaces/inkscape"
   width="210mm"
   height="297mm"
   viewBox="0 0 210 297"
   version="1.1"
   id="svg8094"
   inkscape:version="1.0.2 (e86c8708, 2021-01-15)"
   sodipodi:docname="crab2.svg">
  <defs
     id="defs8088" />
  <sodipodi:namedview
     id="base"
     pagecolor="#ffffff"
     bordercolor="#666666"
     borderopacity="1.0"
     inkscape:pageopacity="0.0"
     inkscape:pageshadow="2"
     inkscape:zoom="0.35"
     inkscape:cx="400"
     inkscape:cy="560"
     inkscape:document-units="mm"
     inkscape:current-layer="layer1"
     inkscape:document-rotation="0"
     showgrid="false"
     inkscape:window-width="1252"
     inkscape:window-height="1005"
     inkscape:window-x="0"
     inkscape:window-y="23"
     inkscape:window-maximized="0" />
  <metadata
     id="metadata8091">
    <rdf:RDF>
      <cc:Work
         rdf:about="">
        <dc:format>image/svg+xml</dc:format>
        <dc:type
           rdf:resource="http://purl.org/dc/dcmitype/StillImage" />
        <dc:title></dc:title>
      </cc:Work>
    </rdf:RDF>
  </metadata>
  <g
     inkscape:label="Layer 1"
     inkscape:groupmode="layer"
     id="layer1">
    <path
       d="m 112.43584,190.38912 1.27318,-0.39829 -0.52,-1.65311 c 0,0 0.68016,-0.49389 0.97543,-0.98778 0.29492,-0.49389 0.66252,-1.22802 0.6216,-1.81751 -0.0409,-0.58985 -0.27976,-1.5741 -0.69004,-1.99143 -0.40992,-0.41699 -1.23719,-1.10384 -1.97696,-1.19839 -0.73978,-0.0949 -1.46932,-0.17639 -2.09303,0.0967 -0.62336,0.27376 -1.24319,0.68545 -1.49261,1.09855 -0.24976,0.41275 -0.65264,1.42911 -0.629,1.89089 0.0233,0.46144 0.23248,1.30281 0.4512,1.78435 0.21873,0.48119 0.9966,1.08762 1.42911,1.31516 0.4325,0.22754 1.09749,0.39723 1.4993,0.33408 0.40182,-0.0632 0.63782,-0.078 0.63782,-0.078 l 0.514,1.60479"
       style="fill:#f46b76;fill-opacity:1;fill-rule:nonzero;stroke:none;stroke-width:0.0352778"
       id="path2628" />
    <path
       d="m 124.83457,189.80351 0.52846,-1.51518 c 0,0 -0.97719,-0.77788 -1.21355,-1.28799 -0.23637,-0.51012 -0.59655,-1.72544 -0.41628,-2.31846 0.17991,-0.59337 0.93768,-1.66264 1.71168,-1.97767 0.7747,-0.31538 1.79599,-0.75318 2.78835,-0.33902 0.99236,0.41381 1.78435,0.89429 2.04893,1.6764 0.26423,0.78211 0.53023,1.52224 0.13406,2.6162 -0.39652,1.09467 -0.76059,1.4164 -1.38183,1.71062 -0.62124,0.29457 -1.25483,0.38523 -1.61784,0.47343 -0.19438,0.0469 -0.40816,-0.002 -0.56832,-0.0508 -0.139,-0.0423 -0.23813,-0.085 -0.24942,-0.0646 -0.0251,0.0434 -0.51047,1.51095 -0.51047,1.51095 0,0 -0.96767,-0.44203 -1.25377,-0.43392"
       style="fill:#f46b76;fill-opacity:1;fill-rule:nonzero;stroke:none;stroke-width:0.0352778"
       id="path2630" />
    <path
       d="m 127.1749,183.16705 c -0.0194,-7e-4 -0.63112,-0.006 -1.08656,0.19615 -0.45473,0.20179 -0.72601,0.47307 -0.9585,0.83185 -0.23283,0.35842 -0.32596,0.91052 -0.3182,1.33738 0.008,0.42686 0.26952,1.1049 0.4826,1.4732 0.21343,0.36865 1.07738,0.78563 1.30457,0.8389 0.22719,0.0533 1.08021,0.11148 1.63266,-0.16016 0.55245,-0.27128 1.09537,-0.72672 1.26012,-1.24072 0.16475,-0.51364 0.19403,-1.29928 0,-1.71591 -0.19403,-0.41628 -0.63006,-1.04634 -1.13418,-1.24989 -0.50412,-0.20391 -0.79481,-0.30233 -1.18251,-0.3108"
       style="fill:#ffffff;fill-opacity:1;fill-rule:nonzero;stroke:none;stroke-width:0.0352778"
       id="path2632" />
    <path
       d="m 110.63879,183.28841 c 0,0 -1.04669,0.48013 -1.29364,0.84349 -0.24765,0.36336 -0.51152,1.06151 -0.47378,1.51201 0.0374,0.4512 0.35702,1.32327 0.72073,1.65735 0.36336,0.33478 1.54834,0.79551 2.32974,0.54327 0.78176,-0.25223 1.5173,-0.90946 1.63654,-1.44568 0.11924,-0.53693 0.25859,-1.34585 0,-1.87889 -0.25894,-0.5334 -0.53269,-0.94827 -1.12254,-1.15535 -0.5902,-0.20673 -1.25906,-0.23601 -1.79705,-0.0762"
       style="fill:#ffffff;fill-opacity:1;fill-rule:nonzero;stroke:none;stroke-width:0.0352778"
       id="path2634" />
    <path
       d="m 133.39719,201.00103 c -0.67028,-0.3676 -1.43228,-0.62795 -2.15194,-0.87665 -0.68227,-0.23566 -1.39277,-0.44133 -2.09974,-0.61031 -0.13687,-0.0328 -0.23036,-0.0385 -0.23036,-0.0385 0,0 -0.70026,0.9786 -0.89147,1.18463 -0.24412,0.26317 -0.37535,0.41275 -0.37535,0.41275 0,0 0.0522,0.0571 0.0847,0.0688 0.40993,0.14746 0.89606,0.16968 1.32257,0.26635 0.69532,0.15769 1.385,0.34254 2.08033,0.50306 -0.0501,1.07103 0.0614,2.16923 0.0681,3.24344 0.006,0.9592 0.0272,1.9184 0.0307,2.87796 0,0.1143 0.127,0.1464 0.19756,0.097 0.0282,-0.0113 0.0529,-0.0325 0.067,-0.0663 0.40922,-0.97261 0.70908,-2.00025 1.01247,-3.00955 0.16581,-0.55351 0.32103,-1.10984 0.45508,-1.67111 0.17286,-0.69991 0.39159,-1.52929 0.4692,-2.23202 0.007,-0.049 0.0141,-0.12101 -0.0388,-0.14958"
       style="fill:#f46b76;fill-opacity:1;fill-rule:nonzero;stroke:none;stroke-width:0.0352778"
       id="path2636" />
    <path
       d="m 129.86059,202.90956 c -1.00682,-0.47802 -2.13536,-0.83009 -3.25225,-0.89006 l -0.0621,0.0279 -0.0205,-0.005 c 0,0 -1.51871,1.24954 -1.46262,1.26329 0.43039,0.10513 1.2065,0.2286 1.67887,0.31503 0.46461,0.0854 0.92287,0.20673 1.38853,0.28434 0.008,0.87736 0.12912,1.7713 0.1905,2.64795 0.0557,0.78176 0.12312,1.56351 0.17639,2.34598 0.007,0.10795 0.12488,0.14252 0.19544,0.10336 0.0321,-0.01 0.0603,-0.0332 0.0741,-0.073 0.28611,-0.83043 0.4752,-1.70144 0.66922,-2.55728 0.10901,-0.4826 0.20814,-0.96697 0.29704,-1.45345 0.10584,-0.57714 0.28999,-1.25306 0.2473,-1.83867 -0.008,-0.10301 -0.066,-0.14429 -0.11995,-0.17004"
       style="fill:#f46b76;fill-opacity:1;fill-rule:nonzero;stroke:none;stroke-width:0.0352778"
       id="path2638" />
    <path
       d="m 126.53566,204.84525 c -0.65299,-0.49812 -1.5434,-0.91581 -2.34032,-1.11513 -0.0716,-0.018 -1.05058,0.50518 -1.10067,0.50659 -0.0702,0.002 -0.097,0.096 -0.036,0.13264 0.33584,0.20285 0.75106,0.35772 1.11125,0.51682 0.30444,0.13476 0.60289,0.28857 0.91157,0.41381 -0.254,1.15852 -0.32949,2.38654 -0.48859,3.56059 -0.0166,0.12135 0.12417,0.18873 0.19791,0.13828 l 0.0533,-0.0473 c 0.33832,-0.57114 0.62442,-1.17686 0.9017,-1.7787 0.14041,-0.30657 0.27164,-0.61666 0.39794,-0.92887 0.16863,-0.41804 0.4572,-1.15005 0.43885,-1.32679 l -0.0469,-0.072"
       style="fill:#f46b76;fill-opacity:1;fill-rule:nonzero;stroke:none;stroke-width:0.0352778"
       id="path2640" />
    <path
       d="m 110.74074,201.48398 c -0.0162,-0.002 -0.93027,-1.54658 -1.01917,-1.53599 -0.81527,0.10054 -1.62842,0.36759 -2.40277,0.63464 -0.74471,0.25647 -1.47144,0.48895 -2.16359,0.86819 -0.0519,0.0286 -0.0716,0.0833 -0.0751,0.16263 -0.0208,0.72849 0.27376,1.55117 0.4445,2.25143 0.13688,0.56127 0.29034,1.11725 0.45614,1.67076 0.30339,1.00929 0.60255,2.03693 1.01177,3.00919 0.0145,0.0339 0.0388,0.0554 0.067,0.0667 0.072,0.0494 0.19932,0.0176 0.19932,-0.097 0.002,-0.9592 0.0236,-1.91876 0.0296,-2.87796 0.007,-1.07421 0.11853,-2.17276 0.0688,-3.24344 0.69462,-0.16051 1.38289,-0.31574 2.07822,-0.47343 0.4265,-0.0963 0.8583,-0.24518 1.32397,-0.29598 0.0833,-0.009 0.0603,-0.13017 -0.0187,-0.1397"
       style="fill:#f46b76;fill-opacity:1;fill-rule:nonzero;stroke:none;stroke-width:0.0352778"
       id="path2642" />
    <path
       d="m 114.9134,185.04242 c -0.1584,-1.20509 -1.02941,-2.1844 -2.13078,-2.64689 -1.22308,-0.51365 -2.8889,-0.41663 -3.90278,0.50553 -1.10031,1.00083 -1.40405,2.69099 -0.83009,4.04001 0.60255,1.4164 2.2352,2.37243 3.76097,2.00731 0.17074,0.49353 0.2988,0.96661 0.50588,1.41605 0.0677,0.14605 0.28752,0.0399 0.25224,-0.10654 -0.12418,-0.51682 -0.33126,-0.97826 -0.51365,-1.50213 -0.0459,-0.13123 -0.0631,-0.18591 -0.17568,-0.15593 -1.72332,0.46002 -3.44876,-0.81562 -3.77014,-2.50648 -0.17709,-0.93416 0.0773,-1.89689 0.67346,-2.63631 0.53975,-0.66958 1.36701,-0.98284 2.20909,-1.04352 1.36948,-0.0991 2.80917,0.58702 3.39443,1.87113 0.31432,0.6911 0.31679,1.47744 0.066,2.18899 -0.25753,0.72919 -0.66075,1.25589 -1.31339,1.72649 -0.0723,0.0494 -0.12841,0.09 -0.096,0.1778 0.20532,0.55704 0.31997,1.06504 0.54716,1.5621 0.067,0.14676 0.28646,0.0399 0.25224,-0.10653 -0.1203,-0.50765 -0.3429,-0.9966 -0.49495,-1.49719 1.08691,-0.67522 1.73249,-2.02742 1.56598,-3.29389"
       style="fill:#f46b76;fill-opacity:1;fill-rule:nonzero;stroke:none;stroke-width:0.0352778"
       id="path2644" />
    <path
       d="m 113.44549,203.74564 c 0,0 -1.54622,-1.22872 -1.63407,-1.22379 -1.09502,0.0582 -2.24825,0.42651 -3.23497,0.89571 -0.054,0.0254 -0.0737,0.0681 -0.0741,0.1397 -0.002,0.57714 0.14217,1.20791 0.2413,1.75789 0.0931,0.51505 0.19755,1.02764 0.31327,1.53811 0.19402,0.85584 0.38276,1.7272 0.66921,2.55764 0.0138,0.0402 0.042,0.0632 0.0737,0.073 0.0709,0.0395 0.18838,0.005 0.19579,-0.10371 0.0533,-0.78211 0.12065,-1.56351 0.17568,-2.34597 0.0617,-0.87595 0.18239,-1.77024 0.19085,-2.6476 0.46567,-0.0776 1.00401,-0.21343 1.46826,-0.2988 0.46955,-0.0864 1.54411,-0.30939 1.54764,-0.33056 l 0.0674,-0.0116"
       style="fill:#f46b76;fill-opacity:1;fill-rule:nonzero;stroke:none;stroke-width:0.0352778"
       id="path2646" />
    <path
       d="m 130.02675,183.33427 c -1.64394,-2.16641 -5.49663,-1.35467 -6.30343,1.17863 -0.45367,1.42452 0.2219,3.00038 1.46121,3.78742 -0.14464,0.49072 -0.36901,0.96908 -0.48296,1.46685 -0.0332,0.14464 0.18274,0.25436 0.25224,0.10584 0.22048,-0.47378 0.38417,-0.99166 0.52423,-1.49508 0.0134,-0.049 0.0335,-0.10195 0.0113,-0.13335 l -0.17463,-0.14993 c -0.56127,-0.42897 -1.03329,-0.94685 -1.28729,-1.74942 -0.22683,-0.71473 -0.18027,-1.49966 0.16122,-2.171 0.63148,-1.24142 2.09656,-1.92369 3.44911,-1.80163 0.92569,0.0832 1.73461,0.52387 2.26484,1.3081 0.47907,0.70838 0.66851,1.57127 0.5087,2.41265 -0.32138,1.69156 -2.04611,2.96686 -3.77014,2.50648 -0.10689,-0.0286 -0.17956,0.0455 -0.19367,0.12912 -0.14252,0.47307 -0.38735,0.93063 -0.49213,1.41111 -0.0314,0.14464 0.18063,0.25435 0.25224,0.10619 0.19932,-0.41099 0.36195,-0.85902 0.49213,-1.3007 1.3088,0.31645 2.76225,-0.35242 3.48791,-1.46614 0.82021,-1.2573 0.7426,-2.95381 -0.16087,-4.14514"
       style="fill:#f46b76;fill-opacity:1;fill-rule:nonzero;stroke:none;stroke-width:0.0352778"
       id="path2648" />
    <path
       d="m 127.06377,187.82725 c -1.48766,-0.1016 -2.35408,-1.33774 -2.14912,-2.79471 0.16651,-1.1811 1.01212,-1.68345 2.0066,-1.77376 1.37478,-0.12489 2.58339,0.80292 2.65113,2.22885 0.0688,1.44039 -1.12642,2.43346 -2.50861,2.33962 m 2.60809,-2.73579 c -0.19615,-0.98672 -0.88865,-1.71415 -1.83198,-1.92476 l -0.15698,-0.042 c -0.9204,-0.20355 -2.05705,0.14182 -2.58481,0.95991 -0.62018,0.96132 -0.45755,2.55975 0.42087,3.32034 0.73378,0.63571 1.89653,0.77153 2.78518,0.41275 1.06645,-0.43039 1.58503,-1.63018 1.36772,-2.72626"
       style="fill:#f46b76;fill-opacity:1;fill-rule:nonzero;stroke:none;stroke-width:0.0352778"
       id="path2650" />
    <path
       d="m 142.3648,186.03443 c -0.11288,-0.40675 -0.20813,-0.8188 -0.34572,-1.21814 -0.0705,-0.21096 -0.15169,-0.41945 -0.25753,-0.61595 -0.0529,-0.0974 -0.11288,-0.19226 -0.17991,-0.28081 -0.0459,-0.0646 -0.10231,-0.11536 -0.1905,-0.0924 -0.0459,0.012 -0.0811,0.0462 -0.0988,0.091 -0.41275,1.12571 -0.70556,2.21756 -1.44639,3.18734 -0.635,0.82833 -1.53811,1.57692 -2.63525,1.58609 -0.51506,0.004 -1.01247,-0.18168 -1.27706,-0.65122 -0.36336,-0.65123 -0.0811,-1.34867 0.2787,-1.92688 0.55033,-0.88018 1.36525,-1.46155 2.25072,-1.97732 0.11995,-0.0699 0.067,-0.15204 -0.007,-0.18697 -0.70203,-0.3369 -1.76742,-0.28998 -2.49767,-0.0388 -0.6985,0.23989 -1.36172,0.73272 -1.78858,1.33385 -0.83962,1.17687 -1.23825,3.06634 -0.63148,4.42842 -1.143,0.82656 -2.286,1.80163 -3.39442,2.67582 -0.0752,0.0593 0.001,0.14534 0.0892,0.15452 l 0.76129,0.79339 -0.002,0.001 c -0.10937,0.0776 0.0264,0.23036 0.13652,0.17674 0.68439,-0.33267 1.30881,-0.87665 1.9297,-1.31268 0.51505,-0.36301 1.02658,-0.75989 1.56633,-1.08938 0.51505,0.94826 1.83444,1.73602 2.98097,1.91347 1.16064,0.17921 2.46945,-0.0131 3.429,-0.73343 1.09714,-0.82585 1.53811,-2.31458 1.63689,-3.62797 0.067,-0.88653 -0.0705,-1.73707 -0.30692,-2.58974"
       style="fill:#f46b76;fill-opacity:1;fill-rule:nonzero;stroke:none;stroke-width:0.0352778"
       id="path2652" />
    <path
       d="m 108.6777,192.29553 c -1.10702,-0.87453 -2.19181,-1.79634 -3.33516,-2.6229 0.60713,-1.36208 0.20708,-3.2512 -0.63112,-4.42842 -0.41557,-0.5842 -1.04775,-1.05481 -1.71803,-1.30669 -0.7433,-0.2794 -1.87078,-0.32314 -2.59539,0.0229 -0.073,0.0349 -0.0515,0.15734 0.0198,0.17568 0.86924,0.48296 1.6577,1.06045 2.20416,1.90571 0.36089,0.55845 0.65793,1.20191 0.38135,1.86055 -0.23389,0.55704 -0.75495,0.7941 -1.33562,0.78916 -1.04775,-0.009 -1.927224,-0.69991 -2.55411,-1.48307 -0.793397,-0.99272 -1.095728,-2.12196 -1.526117,-3.29036 -0.04692,-0.12877 -0.215547,-0.11783 -0.266347,-0.0289 l -0.0081,0.008 c -0.355247,0.65546 -0.604661,1.44357 -0.79763,2.13713 -0.23742,0.85267 -0.372534,1.70321 -0.306211,2.58974 0.09772,1.3141 0.539397,2.80212 1.637594,3.62797 0.957086,0.72037 2.265181,0.91264 3.427941,0.73343 1.14758,-0.17745 2.45427,-0.81457 2.98097,-1.91347 0.53904,0.32949 1.04987,0.72637 1.56598,1.08938 0.62054,0.43603 1.24566,0.98001 1.92969,1.31268 0.10901,0.0533 0.23566,-0.0847 0.13653,-0.17674 l -0.0275,-0.024 0.73696,-0.78669 c 0.0878,-0.003 0.16368,-0.12559 0.0804,-0.19121"
       style="fill:#f46b76;fill-opacity:1;fill-rule:nonzero;stroke:none;stroke-width:0.0352778"
       id="path2654" />
    <path
       d="m 115.6948,204.57432 c -0.0219,0.004 -0.32244,-0.10055 -0.629,-0.20567 -0.31327,-0.1069 -0.63218,-0.21414 -0.6664,-0.20532 -0.83255,0.21449 -1.75577,0.64735 -2.44193,1.16346 l -0.025,0.0275 -0.0219,0.0448 c 0.0226,0.42439 0.25012,0.85619 0.40711,1.24848 0.13617,0.33867 0.27693,0.67522 0.42968,1.00683 0.27658,0.60219 0.56339,1.20826 0.90135,1.77906 l 0.0536,0.0473 c 0.0734,0.0505 0.21414,-0.0166 0.19756,-0.13829 -0.15946,-1.1744 -0.23495,-2.40206 -0.4886,-3.56094 0.29669,-0.12171 0.58173,-0.26987 0.8763,-0.39687 0.48119,-0.20638 1.02024,-0.40005 1.46227,-0.68016 0.0702,-0.0441 0.0233,-0.14464 -0.055,-0.13017"
       style="fill:#f46b76;fill-opacity:1;fill-rule:nonzero;stroke:none;stroke-width:0.0352778"
       id="path2656" />
    <path
       d="m 131.12671,193.24944 c -0.16721,-0.20955 -0.4258,-0.45579 -0.62477,-0.61877 -0.2988,-0.24518 -0.61136,-0.47413 -0.9278,-0.69638 -1.49472,-1.04846 -3.01237,-1.77871 -4.80201,-2.16147 -0.0318,-0.006 -0.13935,-0.0395 -0.31433,-0.0769 -0.56726,-0.13758 -1.16557,-0.19579 -1.73637,-0.25435 -1.09326,-0.11183 -2.19251,-0.14958 -3.29106,-0.15628 -1.08762,-0.007 -2.17135,0.0296 -3.25261,0.14887 -0.62513,0.0692 -1.24425,0.14393 -1.95263,0.30586 -0.64876,0.14746 -1.37901,0.3623 -1.92581,0.56585 -0.53834,0.20038 -1.06257,0.43674 -1.57163,0.70309 -1.13947,0.59725 -2.22673,1.24072 -3.03706,2.25848 l -0.0268,0.0575 -0.005,0.0325 c -0.0183,0.72743 0.11748,1.47744 0.27235,2.18334 0.4064,1.85632 1.17298,3.64314 2.17382,5.25498 1.65735,2.67018 4.44641,4.03014 7.52016,4.25838 1.21073,0.09 2.42641,0.0198 3.62938,-0.12735 1.48907,-0.18168 2.84621,-0.88089 4.07035,-1.7212 1.40617,-0.9645 2.7245,-2.16571 3.65619,-3.60433 0.99942,-1.54376 1.57056,-3.44311 1.98367,-5.22147 0.0688,-0.29739 0.22824,-1.04775 0.16227,-1.1303"
       style="fill:#f68a94;fill-opacity:1;fill-rule:nonzero;stroke:none;stroke-width:0.0352778"
       id="path2658" />
    <path
       d="m 113.07119,187.12275 c -0.40393,0.44697 -1.02552,0.66393 -1.61431,0.7045 -1.34937,0.0917 -2.53682,-0.85267 -2.50966,-2.26378 0.0279,-1.46826 1.26365,-2.39077 2.64901,-2.32374 0.92357,0.11782 1.76354,0.55527 1.9872,1.63018 0.15416,0.74119 0.008,1.6764 -0.51224,2.25284 z m 0.52212,-2.70404 c -0.42934,-1.04493 -1.48202,-1.4792 -2.68041,-1.2954 -0.0113,0.002 -0.0487,0.007 -0.13511,0.0254 -0.76977,0.1711 -1.45274,0.69462 -1.7713,1.43616 -0.45544,1.05939 -0.14499,2.40735 0.84808,3.04729 0.83361,0.53693 2.04822,0.49142 2.8776,-0.0289 1.01177,-0.63464 1.29858,-2.1216 0.86114,-3.18452"
       style="fill:#f46b76;fill-opacity:1;fill-rule:nonzero;stroke:none;stroke-width:0.0352778"
       id="path2660" />
    <path
       d="m 127.34317,185.65555 c 0,0.61948 -0.38629,1.12113 -0.86254,1.12113 -0.47695,0 -0.86325,-0.50165 -0.86325,-1.12113 0,-0.61877 0.3863,-1.12042 0.86325,-1.12042 0.47625,0 0.86254,0.50165 0.86254,1.12042"
       style="fill:#333f48;fill-opacity:1;fill-rule:nonzero;stroke:none;stroke-width:0.0352778"
       id="path2662" />
    <path
       d="m 126.48063,185.28196 c 0,0.24659 -0.15416,0.44591 -0.3436,0.44591 -0.1898,0 -0.34361,-0.19932 -0.34361,-0.44591 0,-0.24624 0.15381,-0.44627 0.34361,-0.44627 0.18944,0 0.3436,0.20003 0.3436,0.44627"
       style="fill:#ffffff;fill-opacity:1;fill-rule:nonzero;stroke:none;stroke-width:0.0352778"
       id="path2664" />
    <path
       d="m 113.01193,185.65555 c 0,0.61948 -0.38629,1.12113 -0.86254,1.12113 -0.47696,0 -0.86325,-0.50165 -0.86325,-1.12113 0,-0.61877 0.38629,-1.12042 0.86325,-1.12042 0.47625,0 0.86254,0.50165 0.86254,1.12042"
       style="fill:#333f48;fill-opacity:1;fill-rule:nonzero;stroke:none;stroke-width:0.0352778"
       id="path2666" />
    <path
       d="m 112.14939,185.28196 c 0,0.24659 -0.15417,0.44591 -0.34361,0.44591 -0.18979,0 -0.34361,-0.19932 -0.34361,-0.44591 0,-0.24624 0.15382,-0.44627 0.34361,-0.44627 0.18944,0 0.34361,0.20003 0.34361,0.44627"
       style="fill:#ffffff;fill-opacity:1;fill-rule:nonzero;stroke:none;stroke-width:0.0352778"
       id="path2668" />
    <path
       d="m 119.15132,196.0505 c 0.4766,0.45155 1.29752,0.6103 1.92581,0.66604 0.73978,0.0656 1.52506,-0.0656 2.19499,-0.39017 1.21779,-0.58984 1.99354,-2.1149 1.84361,-3.45616 -0.0258,-0.23072 -0.33937,-0.23425 -0.36159,0 -0.1203,1.26576 -0.4371,2.52201 -1.67605,3.1242 -0.61525,0.29951 -1.31763,0.44979 -2.00096,0.41169 -0.6731,-0.0378 -1.2192,-0.26988 -1.83021,-0.51929 -0.0931,-0.0381 -0.16228,0.10054 -0.0956,0.16369"
       style="fill:#944f55;fill-opacity:1;fill-rule:nonzero;stroke:none;stroke-width:0.0352778"
       id="path2670" />
    <path
       d="m 110.78025,198.04863 c -0.18767,0 -0.36794,0.1651 -0.35912,0.35913 0.009,0.19438 0.15804,0.35877 0.35912,0.35877 0.18768,0 0.3676,-0.16474 0.35843,-0.35877 -0.008,-0.19473 -0.15734,-0.35913 -0.35843,-0.35913"
       style="fill:#f46b76;fill-opacity:1;fill-rule:nonzero;stroke:none;stroke-width:0.0352778"
       id="path2672" />
    <path
       d="m 111.94336,199.90036 c -0.47378,0 -0.47448,0.73625 0,0.73625 0.47343,0 0.47414,-0.73625 0,-0.73625"
       style="fill:#f46b76;fill-opacity:1;fill-rule:nonzero;stroke:none;stroke-width:0.0352778"
       id="path2674" />
    <path
       d="m 112.84436,198.48749 c -0.11007,0 -0.21555,0.097 -0.21061,0.21096 0.005,0.11395 0.0924,0.21096 0.21061,0.21096 0.11077,0 0.21625,-0.0974 0.21096,-0.21096 -0.005,-0.1143 -0.0928,-0.21096 -0.21096,-0.21096"
       style="fill:#f46b76;fill-opacity:1;fill-rule:nonzero;stroke:none;stroke-width:0.0352778"
       id="path2676" />
    <path
       d="m 114.26923,201.60604 c -0.33655,0 -0.33726,0.52388 0,0.52388 0.33725,0 0.33761,-0.52388 0,-0.52388"
       style="fill:#f46b76;fill-opacity:1;fill-rule:nonzero;stroke:none;stroke-width:0.0352778"
       id="path2678" />
    <path
       d="m 114.53134,199.31828 c -0.28787,0 -0.28857,0.44697 0,0.44697 0.28752,0 0.28787,-0.44697 0,-0.44697"
       style="fill:#f46b76;fill-opacity:1;fill-rule:nonzero;stroke:none;stroke-width:0.0352778"
       id="path2680" />
    <path
       d="m 116.56652,202.57124 c -0.47908,0 -0.48013,0.74507 0,0.74507 0.47977,0 0.48048,-0.74507 0,-0.74507"
       style="fill:#f46b76;fill-opacity:1;fill-rule:nonzero;stroke:none;stroke-width:0.0352778"
       id="path2682" />
    <path
       d="m 116.39224,200.96293 c -0.34148,0 -0.34219,0.53058 0,0.53058 0.34149,0 0.3422,-0.53058 0,-0.53058"
       style="fill:#f46b76;fill-opacity:1;fill-rule:nonzero;stroke:none;stroke-width:0.0352778"
       id="path2684" />
    <path
       d="m 114.34684,203.00128 -0.0131,-0.005 c -0.11572,-0.0445 -0.23672,0.0677 -0.23672,0.17992 0,0.11324 0.12136,0.22472 0.23672,0.18062 l 0.0131,-0.005 c 0.1718,-0.066 0.17215,-0.28469 0,-0.35066"
       style="fill:#f46b76;fill-opacity:1;fill-rule:nonzero;stroke:none;stroke-width:0.0352778"
       id="path2686" />
    <path
       d="m 118.89309,203.67473 c -0.18098,0 -0.35384,0.15875 -0.34573,0.34502 0.009,0.18697 0.15205,0.34537 0.34573,0.34537 0.18062,0 0.35348,-0.1591 0.34501,-0.34537 -0.008,-0.18697 -0.15134,-0.34502 -0.34501,-0.34502"
       style="fill:#f46b76;fill-opacity:1;fill-rule:nonzero;stroke:none;stroke-width:0.0352778"
       id="path2688" />
    <path
       d="m 119.06736,202.44213 c -0.27094,0 -0.27164,0.42192 0,0.42192 0.27164,0 0.27199,-0.42192 0,-0.42192"
       style="fill:#f46b76;fill-opacity:1;fill-rule:nonzero;stroke:none;stroke-width:0.0352778"
       id="path2690" />
    <path
       d="m 121.50999,203.16179 c -0.12912,0 -0.25294,0.11395 -0.24694,0.2473 0.006,0.13406 0.1083,0.2473 0.24694,0.2473 0.12912,0 0.2533,-0.1136 0.2473,-0.2473 -0.006,-0.1337 -0.10866,-0.2473 -0.2473,-0.2473"
       style="fill:#f46b76;fill-opacity:1;fill-rule:nonzero;stroke:none;stroke-width:0.0352778"
       id="path2692" />
    <path
       d="m 123.38536,201.68965 c -0.18415,0 -0.36089,0.16228 -0.35278,0.35278 0.009,0.19121 0.15522,0.35313 0.35278,0.35313 0.18485,0 0.3616,-0.16263 0.35313,-0.35313 -0.008,-0.19085 -0.15487,-0.35278 -0.35313,-0.35278"
       style="fill:#f46b76;fill-opacity:1;fill-rule:nonzero;stroke:none;stroke-width:0.0352778"
       id="path2694" />
    <path
       d="m 125.29036,201.17001 c -0.15205,0 -0.2981,0.1337 -0.29069,0.29069 0.007,0.15769 0.12771,0.29069 0.29069,0.29069 0.15169,0 0.29739,-0.1337 0.29069,-0.29069 -0.007,-0.15734 -0.12771,-0.29069 -0.29069,-0.29069"
       style="fill:#f46b76;fill-opacity:1;fill-rule:nonzero;stroke:none;stroke-width:0.0352778"
       id="path2696" />
    <path
       d="m 125.40678,198.83991 c -0.18486,0 -0.3616,0.16228 -0.35278,0.35278 0.008,0.19085 0.15487,0.35243 0.35278,0.35243 0.18415,0 0.36089,-0.16193 0.35242,-0.35243 -0.009,-0.19121 -0.15522,-0.35278 -0.35242,-0.35278"
       style="fill:#f46b76;fill-opacity:1;fill-rule:nonzero;stroke:none;stroke-width:0.0352778"
       id="path2698" />
    <path
       d="m 127.32553,199.68517 c -0.33902,0 -0.33972,0.52705 0,0.52705 0.33938,0 0.33973,-0.52705 0,-0.52705"
       style="fill:#f46b76;fill-opacity:1;fill-rule:nonzero;stroke:none;stroke-width:0.0352778"
       id="path2700" />
    <path
       d="m 128.28544,197.44997 c -0.13617,0 -0.26635,0.11959 -0.26,0.25964 0.006,0.14111 0.1143,0.26035 0.26,0.26035 0.13582,0 0.266,-0.11994 0.25965,-0.26035 -0.006,-0.14076 -0.11395,-0.25964 -0.25965,-0.25964"
       style="fill:#f46b76;fill-opacity:1;fill-rule:nonzero;stroke:none;stroke-width:0.0352778"
       id="path2702" />
    <path
       d="m 126.77344,197.53322 c -0.15346,0 -0.29986,0.13476 -0.29281,0.29281 0.007,0.15875 0.12876,0.2928 0.29281,0.2928 0.15275,0 0.2995,-0.13476 0.29245,-0.2928 -0.007,-0.15875 -0.12841,-0.29281 -0.29245,-0.29281"
       style="fill:#f46b76;fill-opacity:1;fill-rule:nonzero;stroke:none;stroke-width:0.0352778"
       id="path2704" />
    <path
       d="m 129.51276,195.47723 c -0.18557,0 -0.36372,0.16334 -0.3549,0.35525 0.008,0.19262 0.15593,0.3556 0.3549,0.3556 0.18626,0 0.36442,-0.16369 0.3556,-0.3556 -0.008,-0.19261 -0.15593,-0.35525 -0.3556,-0.35525"
       style="fill:#f46b76;fill-opacity:1;fill-rule:nonzero;stroke:none;stroke-width:0.0352778"
       id="path2706" />
    <path
       d="m 129.73924,193.86398 c -0.12524,0 -0.24553,0.11042 -0.23989,0.24024 0.006,0.12983 0.10548,0.23954 0.23989,0.23954 0.12559,0 0.24553,-0.11007 0.23989,-0.23954 -0.006,-0.13017 -0.10548,-0.24024 -0.23989,-0.24024"
       style="fill:#f46b76;fill-opacity:1;fill-rule:nonzero;stroke:none;stroke-width:0.0352778"
       id="path2708" />
    <path
       d="m 128.02368,194.85493 c -0.10936,0 -0.21414,0.096 -0.2092,0.2085 0.005,0.11359 0.0921,0.20919 0.2092,0.20919 0.10901,0 0.21378,-0.0959 0.2092,-0.20919 -0.005,-0.11289 -0.0921,-0.2085 -0.2092,-0.2085"
       style="fill:#f46b76;fill-opacity:1;fill-rule:nonzero;stroke:none;stroke-width:0.0352778"
       id="path2710" />
    <path
       d="m 128.6488,192.53789 c -0.15769,0 -0.30868,0.13864 -0.30127,0.30127 0.007,0.16334 0.13265,0.30127 0.30127,0.30127 0.15769,0 0.30868,-0.13828 0.30163,-0.30127 -0.008,-0.16333 -0.13265,-0.30127 -0.30163,-0.30127"
       style="fill:#f46b76;fill-opacity:1;fill-rule:nonzero;stroke:none;stroke-width:0.0352778"
       id="path2712" />
    <path
       d="m 96.845532,187.58912 c -0.03069,0 -0.05891,-0.0159 -0.07585,-0.0519 -0.178858,-0.3817 -0.137936,-0.93203 -0.09631,-1.30104 0.04586,-0.41169 0.09596,-0.79763 0.373945,-1.10525 0.04516,-0.0501 0.108302,-0.0783 0.163689,-0.0783 0.07549,0 0.136877,0.0522 0.12065,0.17251 -0.04762,0.34854 -0.130175,0.7687 -0.200025,1.15782 -0.06562,0.36688 0.0088,0.80398 -0.173214,1.12959 -0.02681,0.048 -0.07197,0.0765 -0.112889,0.0765"
       style="fill:#f6878f;fill-opacity:1;fill-rule:nonzero;stroke:none;stroke-width:0.0352778"
       id="path2714" />
    <path
       d="m 134.14861,186.28455 c -0.0564,0 -0.10936,-0.0441 -0.0988,-0.1076 0.0529,-0.41839 0.35278,-0.89217 0.58561,-1.1818 0.26106,-0.32244 0.53975,-0.58914 0.93839,-0.69956 0.0212,-0.006 0.0423,-0.008 0.06,-0.008 0.13053,0 0.22578,0.11535 0.0811,0.22824 -0.28575,0.22402 -0.51505,0.50589 -0.74789,0.76659 -0.24694,0.27799 -0.53622,0.79798 -0.74436,0.97508 -0.0247,0.0187 -0.0494,0.0272 -0.0741,0.0272"
       style="fill:#f6878f;fill-opacity:1;fill-rule:nonzero;stroke:none;stroke-width:0.0352778"
       id="path2716" />
    <path
       d="m 108.40747,184.48574 c -0.0409,0 -0.0864,-0.0254 -0.09,-0.0607 -0.006,-0.0688 -0.003,-0.1397 0.006,-0.21061 0.11713,-0.26952 0.27129,-0.52458 0.45897,-0.75741 0.24624,-0.30551 0.5528,-0.53693 0.89288,-0.70415 0.0667,-0.0173 0.13194,-0.0282 0.19438,-0.0303 0.001,0 0.002,0 0.003,0 0.0617,0 0.0494,0.0716 -0.008,0.10619 -0.1397,0.084 -0.72002,0.53869 -0.85796,0.68827 -0.40675,0.44097 -0.46002,0.78952 -0.54257,0.9398 -0.0109,0.0201 -0.0332,0.0289 -0.0571,0.0289"
       style="fill:#f6878f;fill-opacity:1;fill-rule:nonzero;stroke:none;stroke-width:0.0352778"
       id="path2718" />
    <path
       d="m 108.32386,184.21445 c 0.0487,-0.35489 0.27446,-0.72037 0.47731,-0.93345 0.17392,-0.18309 0.53975,-0.44027 0.87454,-0.52811 -0.34008,0.16722 -0.64664,0.39864 -0.89288,0.70415 -0.18768,0.23283 -0.34184,0.48789 -0.45897,0.75741"
       style="fill:#f6878f;fill-opacity:1;fill-rule:nonzero;stroke:none;stroke-width:0.0352778"
       id="path2720" />
    <path
       d="m 124.34668,184.59086 c -0.0409,0 -0.0864,-0.0254 -0.0896,-0.0603 -0.0272,-0.30798 0.11959,-0.65017 0.29669,-0.91052 0.1658,-0.20003 0.3563,-0.37853 0.5648,-0.53411 0.21625,-0.13652 0.47166,-0.25012 0.69073,-0.25788 0.001,0 0.002,-3.5e-4 0.003,-3.5e-4 0.0621,0 0.0494,0.0716 -0.008,0.10619 -0.14006,0.0843 -0.71967,0.53904 -0.85761,0.68827 -0.40675,0.44132 -0.46037,0.78951 -0.54257,0.9398 -0.0113,0.0201 -0.0335,0.0289 -0.0575,0.0289"
       style="fill:#f6878f;fill-opacity:1;fill-rule:nonzero;stroke:none;stroke-width:0.0352778"
       id="path2722" />
    <path
       d="m 124.55376,183.62002 c 0.0603,-0.0889 0.12453,-0.16863 0.18662,-0.23389 0.0871,-0.0917 0.2226,-0.20179 0.37818,-0.30022 -0.2085,0.15558 -0.399,0.33408 -0.5648,0.53411"
       style="fill:#f6878f;fill-opacity:1;fill-rule:nonzero;stroke:none;stroke-width:0.0352778"
       id="path2724" />
    <path
       d="m 105.7567,202.61322 c -0.0942,0 -0.1898,-0.0554 -0.22401,-0.16192 -0.0893,-0.27623 -0.008,-0.63676 0.18168,-0.85408 0.19261,-0.22119 0.53833,-0.42051 0.83396,-0.42051 0.004,0 0.008,0 0.012,0 0.12135,0.002 0.20672,0.13759 0.14076,0.24554 -0.13371,0.22048 -0.34502,0.2734 -0.5327,0.43144 -0.1912,0.16052 -0.13617,0.38277 -0.19755,0.59761 -0.0314,0.10901 -0.12207,0.16192 -0.21414,0.16192"
       style="fill:#f6878f;fill-opacity:1;fill-rule:nonzero;stroke:none;stroke-width:0.0352778"
       id="path2726" />
    <path
       d="m 109.02589,204.70484 c -0.085,0 -0.16863,-0.0494 -0.20144,-0.15204 -0.09,-0.28117 -0.096,-0.67381 0.0967,-0.91617 0.14252,-0.1785 0.4011,-0.31256 0.63817,-0.31256 0.0452,0 0.0896,0.005 0.13229,0.0152 0.0459,0.0113 0.0871,0.0713 0.0674,0.11853 -0.0935,0.22402 -0.26776,0.25012 -0.42651,0.40676 -0.16439,0.16192 -0.0226,0.48119 -0.0959,0.68827 -0.0353,0.10019 -0.12347,0.15204 -0.21061,0.15204"
       style="fill:#f6878f;fill-opacity:1;fill-rule:nonzero;stroke:none;stroke-width:0.0352778"
       id="path2728" />
    <path
       d="m 112.5826,206.23237 c -0.0773,0 -0.15628,-0.0335 -0.20144,-0.1023 -0.26987,-0.41064 -0.0444,-1.09538 0.49601,-1.09538 0.0109,0 0.0222,0 0.0335,7.1e-4 0.0907,0.005 0.16122,0.0716 0.16369,0.16369 0.002,0.0808 -0.0275,0.14922 -0.0833,0.20813 -0.0543,0.0565 -0.13123,0.0695 -0.18767,0.11818 -0.13194,0.11395 -0.0162,0.34643 -0.006,0.49178 0.0106,0.14111 -0.10019,0.21519 -0.21484,0.21519"
       style="fill:#f6878f;fill-opacity:1;fill-rule:nonzero;stroke:none;stroke-width:0.0352778"
       id="path2730" />
    <path
       d="m 125.78989,205.01987 c -0.15416,0 -0.30162,-0.14428 -0.42721,-0.21942 -0.13794,-0.0826 -0.30692,-0.10795 -0.40323,-0.24342 -0.0349,-0.0494 -0.0222,-0.13794 0.0229,-0.17674 0.066,-0.0565 0.13935,-0.0776 0.2152,-0.0776 0.11395,0 0.23283,0.048 0.33972,0.0959 0.16016,0.0723 0.42228,0.20991 0.44874,0.40217 0.0169,0.12065 -0.0444,0.20108 -0.1651,0.21696 -0.0106,0.001 -0.0208,0.002 -0.031,0.002"
       style="fill:#f6878f;fill-opacity:1;fill-rule:nonzero;stroke:none;stroke-width:0.0352778"
       id="path2732" />
    <path
       d="m 129.45173,203.37311 c -0.0296,0 -0.0589,-0.006 -0.0864,-0.0208 -0.15028,-0.078 -0.2794,-0.16157 -0.44591,-0.20778 -0.15839,-0.0437 -0.31997,-0.049 -0.46743,-0.12524 -0.13229,-0.0684 -0.0935,-0.27023 0.0402,-0.30833 0.0706,-0.0201 0.14852,-0.0296 0.23072,-0.0296 0.33549,0 0.73342,0.15946 0.9084,0.40464 0.10019,0.14075 -0.0388,0.28716 -0.17956,0.28716"
       style="fill:#f6878f;fill-opacity:1;fill-rule:nonzero;stroke:none;stroke-width:0.0352778"
       id="path2734" />
    <path
       d="m 132.3318,201.15802 c -0.0176,0 -0.0353,-0.002 -0.0529,-0.007 -0.26106,-0.0766 -0.52564,-0.18521 -0.77611,-0.2921 -0.1517,-0.0632 -0.39512,-0.0956 -0.4886,-0.24201 l 0.002,-0.091 c 0.0183,-0.0473 0.0529,-0.0995 0.1083,-0.10865 0.0406,-0.006 0.0815,-0.009 0.12383,-0.009 0.30691,0 0.62088,0.16263 0.90311,0.26317 0.15875,0.0564 0.55033,0.20814 0.32102,0.42827 -0.0353,0.037 -0.0882,0.0589 -0.14111,0.0589"
       style="fill:#f6878f;fill-opacity:1;fill-rule:nonzero;stroke:none;stroke-width:0.0352778"
       id="path2736" />
    <path
       d="m 139.02753,188.73459 c -0.004,0 -0.0106,-3.5e-4 -0.0141,-3.5e-4 -0.0705,-0.002 -0.11994,-0.0811 -0.0741,-0.12347 0.25047,-0.2219 0.6985,-0.64523 0.83961,-0.83609 0.12347,-0.16757 0.54328,-0.7747 0.69498,-0.95567 0.0247,-0.031 0.0494,-0.0423 0.0741,-0.0423 0.0388,0 0.0705,0.0353 0.0741,0.0617 0.0459,0.28857 -0.27516,0.84984 -0.47978,1.10384 -0.23636,0.29351 -0.69497,0.79234 -1.11477,0.79234"
       style="fill:#f6878f;fill-opacity:1;fill-rule:nonzero;stroke:none;stroke-width:0.0352778"
       id="path2738" />
    <path
       d="m 102.77643,188.86159 c -0.0448,0 -0.0811,-0.072 -0.0632,-0.11641 0.0801,-0.1965 0.381,-0.53305 0.49813,-0.78105 0.17286,-0.36548 0.18062,-0.58985 0.20249,-0.83573 l 0.0727,-0.009 c 0.16546,0.21167 0.11571,0.7493 -0.0116,1.01812 -0.12594,0.26529 -0.46778,0.60925 -0.67733,0.71896 -0.007,0.004 -0.0141,0.005 -0.0212,0.005"
       style="fill:#f6878f;fill-opacity:1;fill-rule:nonzero;stroke:none;stroke-width:0.0352778"
       id="path2740" />
  </g>
</svg>
