<?xml version="1.0" encoding="UTF-8" standalone="no"?>
<svg
   xmlns:dc="http://purl.org/dc/elements/1.1/"
   xmlns:cc="http://creativecommons.org/ns#"
   xmlns:rdf="http://www.w3.org/1999/02/22-rdf-syntax-ns#"
   xmlns:svg="http://www.w3.org/2000/svg"
   xmlns="http://www.w3.org/2000/svg"
   xmlns:sodipodi="http://sodipodi.sourceforge.net/DTD/sodipodi-0.dtd"
   xmlns:inkscape="http://www.inkscape.org/namespaces/inkscape"
   width="210mm"
   height="297mm"
   viewBox="0 0 210 297"
   version="1.1"
   id="svg5335"
   inkscape:version="1.0.2 (e86c8708, 2021-01-15)"
   sodipodi:docname="dolphin.svg">
  <defs
     id="defs5329" />
  <sodipodi:namedview
     id="base"
     pagecolor="#ffffff"
     bordercolor="#666666"
     borderopacity="1.0"
     inkscape:pageopacity="0.0"
     inkscape:pageshadow="2"
     inkscape:zoom="0.35"
     inkscape:cx="400"
     inkscape:cy="560"
     inkscape:document-units="mm"
     inkscape:current-layer="layer1"
     inkscape:document-rotation="0"
     showgrid="false"
     inkscape:window-width="1252"
     inkscape:window-height="1005"
     inkscape:window-x="0"
     inkscape:window-y="23"
     inkscape:window-maximized="0" />
  <metadata
     id="metadata5332">
    <rdf:RDF>
      <cc:Work
         rdf:about="">
        <dc:format>image/svg+xml</dc:format>
        <dc:type
           rdf:resource="http://purl.org/dc/dcmitype/StillImage" />
        <dc:title></dc:title>
      </cc:Work>
    </rdf:RDF>
  </metadata>
  <g
     inkscape:label="Layer 1"
     inkscape:groupmode="layer"
     id="layer1">
    <path
       d="m 71.012372,139.03859 c -1.665111,-0.34079 -3.527778,0.37359 -4.240389,2.17734 -0.645583,1.63195 0.05292,3.68159 1.559278,4.58188 1.49225,0.89359 3.672417,0.51858 4.797778,-0.80292 0.850194,-0.99413 1.097139,-2.46416 0.620889,-3.68159 -0.497417,-1.27247 -1.566334,-2.03482 -2.737556,-2.27471"
       style="fill:#cfecf1;fill-opacity:1;fill-rule:nonzero;stroke:none;stroke-width:0.0352778"
       id="path460" />
    <path
       d="m 69.135594,139.91101 c -0.342194,-0.03 -0.804333,0.109 -1.019527,0.22648 -0.328084,0.17992 -0.627945,0.49953 -0.762,0.90382 -0.15875,0.46602 -0.05292,1.07491 0.352777,1.18215 0.41275,0.10866 0.631473,-0.23459 0.85725,-0.62335 0.239889,-0.40852 0.694973,-0.51753 0.889,-0.94898 0.236362,-0.52246 0.01764,-0.71084 -0.3175,-0.74012"
       style="fill:#ffffff;fill-opacity:1;fill-rule:nonzero;stroke:none;stroke-width:0.0352778"
       id="path462" />
    <path
       d="m 80.156373,145.34131 c -1.393473,-0.28469 -2.952751,0.31221 -3.545417,1.82069 -0.53975,1.36455 0.04233,3.07799 1.30175,3.83082 1.248833,0.74718 3.072695,0.43356 4.014611,-0.67099 0.709084,-0.8315 0.917223,-2.06057 0.518584,-3.07869 -0.416278,-1.06363 -1.312334,-1.70109 -2.289528,-1.90183"
       style="fill:#cfecf1;fill-opacity:1;fill-rule:nonzero;stroke:none;stroke-width:0.0352778"
       id="path464" />
    <path
       d="m 78.586511,146.07086 c -0.28575,-0.025 -0.673805,0.0914 -0.850194,0.18944 -0.275167,0.15064 -0.525639,0.41734 -0.638528,0.75565 -0.134055,0.38947 -0.04586,0.89853 0.296334,0.98848 0.342194,0.0907 0.525638,-0.19614 0.716138,-0.5214 0.197556,-0.34149 0.578556,-0.43251 0.740834,-0.7934 0.197555,-0.43674 0.01411,-0.59408 -0.264584,-0.61877"
       style="fill:#ffffff;fill-opacity:1;fill-rule:nonzero;stroke:none;stroke-width:0.0352778"
       id="path466" />
    <path
       d="m 79.979984,131.58298 c -1.393473,-0.28469 -2.95275,0.31221 -3.545417,1.82069 -0.53975,1.36454 0.04233,3.07798 1.30175,3.83081 1.248833,0.74718 3.072695,0.43356 4.014611,-0.67098 0.709084,-0.8315 0.917223,-2.06058 0.518584,-3.07869 -0.416278,-1.06363 -1.312334,-1.7011 -2.289528,-1.90183"
       style="fill:#cfecf1;fill-opacity:1;fill-rule:nonzero;stroke:none;stroke-width:0.0352778"
       id="path468" />
    <path
       d="m 78.410123,132.31253 c -0.28575,-0.0251 -0.673806,0.0914 -0.850195,0.18944 -0.275167,0.15063 -0.525639,0.41733 -0.638528,0.75565 -0.134055,0.38946 -0.04586,0.89852 0.296334,0.98848 0.342194,0.0907 0.525639,-0.19614 0.716139,-0.52141 0.197555,-0.34148 0.578555,-0.4325 0.740833,-0.79339 0.197555,-0.43674 0.01411,-0.59408 -0.264583,-0.61877"
       style="fill:#ffffff;fill-opacity:1;fill-rule:nonzero;stroke:none;stroke-width:0.0352778"
       id="path470" />
    <path
       d="m 72.924428,151.16215 c -1.393472,-0.28469 -2.95275,0.31221 -3.545417,1.82068 -0.53975,1.36455 0.04233,3.07799 1.30175,3.83082 1.248834,0.74718 3.072695,0.43356 4.014611,-0.67098 0.709084,-0.8315 0.917223,-2.06058 0.518584,-3.0787 -0.416278,-1.06362 -1.312334,-1.70109 -2.289528,-1.90182"
       style="fill:#cfecf1;fill-opacity:1;fill-rule:nonzero;stroke:none;stroke-width:0.0352778"
       id="path472" />
    <path
       d="m 71.354567,151.89169 c -0.28575,-0.025 -0.673806,0.0914 -0.850195,0.18944 -0.275166,0.15064 -0.525639,0.41734 -0.638527,0.75565 -0.134056,0.38947 -0.04586,0.89853 0.296333,0.98849 0.342194,0.0907 0.525639,-0.19615 0.716139,-0.52141 0.197555,-0.34149 0.578555,-0.4325 0.740833,-0.79339 0.197556,-0.43674 0.01411,-0.59408 -0.264583,-0.61878"
       style="fill:#ffffff;fill-opacity:1;fill-rule:nonzero;stroke:none;stroke-width:0.0352778"
       id="path474" />
    <path
       d="m 73.869872,128.55721 c -0.959555,-0.19685 -2.039055,0.21554 -2.451805,1.25765 -0.370417,0.94262 0.03175,2.12654 0.903111,2.64654 0.860778,0.51611 2.120194,0.29951 2.772833,-0.46355 0.490361,-0.57432 0.631473,-1.42381 0.356306,-2.1269 -0.28575,-0.73519 -0.903111,-1.17546 -1.580445,-1.31374"
       style="fill:#cfecf1;fill-opacity:1;fill-rule:nonzero;stroke:none;stroke-width:0.0352778"
       id="path476" />
    <path
       d="m 72.786844,129.06097 c -0.197555,-0.0173 -0.465666,0.0631 -0.589138,0.13088 -0.1905,0.10372 -0.363361,0.28857 -0.440972,0.52211 -0.09172,0.26917 -0.03175,0.62089 0.204611,0.68298 0.236361,0.0624 0.363361,-0.13547 0.493888,-0.36018 0.137584,-0.23601 0.402167,-0.29916 0.515056,-0.54822 0.134055,-0.30198 0.0071,-0.41063 -0.183445,-0.42757"
       style="fill:#ffffff;fill-opacity:1;fill-rule:nonzero;stroke:none;stroke-width:0.0352778"
       id="path478" />
    <path
       d="m 79.831817,156.21498 c -0.687917,-0.1404 -1.456972,0.15382 -1.749778,0.89712 -0.264583,0.67275 0.02117,1.5173 0.642056,1.88842 0.617361,0.3683 1.513417,0.21378 1.979083,-0.33091 0.34925,-0.40992 0.451556,-1.01564 0.257528,-1.51729 -0.208139,-0.52423 -0.649111,-0.83856 -1.128889,-0.93734"
       style="fill:#cfecf1;fill-opacity:1;fill-rule:nonzero;stroke:none;stroke-width:0.0352778"
       id="path480" />
    <path
       d="m 79.059234,156.57447 c -0.141111,-0.0123 -0.335139,0.0448 -0.423334,0.0931 -0.134055,0.0741 -0.257527,0.20602 -0.313972,0.37253 -0.0635,0.19191 -0.02117,0.44309 0.148167,0.48719 0.169333,0.0448 0.257528,-0.0967 0.352778,-0.25682 0.09878,-0.16828 0.28575,-0.21343 0.366889,-0.39123 0.09525,-0.2152 0.0035,-0.29281 -0.130528,-0.3048"
       style="fill:#ffffff;fill-opacity:1;fill-rule:nonzero;stroke:none;stroke-width:0.0352778"
       id="path482" />
    <path
       d="m 77.708095,122.61325 c -0.786695,-0.16122 -1.668639,0.17639 -2.003778,1.02976 -0.306917,0.77188 0.02469,1.74096 0.737305,2.16676 0.705556,0.42228 1.735667,0.24518 2.268362,-0.37994 0.402166,-0.4699 0.518583,-1.16522 0.292805,-1.74096 -0.232833,-0.60184 -0.740833,-0.96238 -1.294694,-1.07562"
       style="fill:#cfecf1;fill-opacity:1;fill-rule:nonzero;stroke:none;stroke-width:0.0352778"
       id="path484" />
    <path
       d="m 76.822622,123.02565 c -0.162277,-0.0141 -0.381,0.0519 -0.483305,0.10724 -0.155222,0.085 -0.296333,0.23601 -0.359833,0.42722 -0.07408,0.22048 -0.02469,0.50835 0.165805,0.55915 0.197556,0.0515 0.299861,-0.11077 0.405695,-0.29492 0.112888,-0.19297 0.328083,-0.24448 0.419805,-0.44873 0.112889,-0.24695 0.01058,-0.3362 -0.148167,-0.34996"
       style="fill:#ffffff;fill-opacity:1;fill-rule:nonzero;stroke:none;stroke-width:0.0352778"
       id="path486" />
    <path
       d="m 76.939039,138.75742 c -0.726722,-0.14852 -1.538111,0.16263 -1.848556,0.94862 -0.282222,0.7112 0.02117,1.60444 0.677334,1.99672 0.652639,0.38947 1.601611,0.22614 2.091972,-0.3496 0.370417,-0.43356 0.479778,-1.07421 0.271639,-1.60443 -0.215194,-0.55457 -0.684389,-0.88689 -1.192389,-0.99131"
       style="fill:#cfecf1;fill-opacity:1;fill-rule:nonzero;stroke:none;stroke-width:0.0352778"
       id="path488" />
    <path
       d="m 76.120595,139.13736 c -0.148167,-0.013 -0.352778,0.0476 -0.4445,0.0988 -0.141111,0.0783 -0.275167,0.21767 -0.331612,0.3937 -0.07056,0.2032 -0.02469,0.46884 0.155223,0.51541 0.176389,0.0473 0.271639,-0.1023 0.370416,-0.27164 0.105834,-0.17815 0.303389,-0.22542 0.388056,-0.41381 0.102306,-0.22754 0.0071,-0.30938 -0.137583,-0.32244"
       style="fill:#ffffff;fill-opacity:1;fill-rule:nonzero;stroke:none;stroke-width:0.0352778"
       id="path490" />
    <path
       d="m 46.15459,113.78675 c 0.117122,-1.34973 0.847725,-3.08433 2.029531,-5.03555 1.181805,-1.95121 4.663722,-5.65714 4.663722,-5.65714 0,0 -0.04586,-0.0889 -0.127,-0.2466 -2.497667,-3.451221 -4.053417,-7.585777 -4.212167,-11.861091 -0.169333,-4.661606 1.42875,-9.204679 4.250973,-12.892971 3.316111,-4.332464 8.053917,-7.445728 12.886973,-9.854495 4.187473,-2.085975 8.703028,-3.512255 13.366751,-3.977922 2.3495,-0.235303 4.695472,-0.227895 7.023806,-0.02152 0.79375,-0.699911 3.273778,-2.681464 7.52475,-4.248855 8.695971,-3.204987 12.961061,-2.506487 18.217451,-0.913342 3.27025,0.991658 6.3253,3.494264 7.24958,4.351161 0.58914,0.547159 1.16417,1.479903 1.50283,2.082095 0.14817,0.260703 -0.0353,0.583142 -0.33161,0.591608 -1.57339,0.04551 -5.59858,0.54222 -7.67644,0.968728 -2.3107,0.475545 -7.56003,1.916642 -8.71362,2.2352 1.78153,0.819503 3.52778,1.703564 5.22464,2.629606 3.12562,1.702153 6.14539,3.633611 8.84767,5.958064 2.80811,2.418292 5.38692,5.138209 7.72936,8.005587 4.16278,5.08882 7.56356,10.799939 9.70139,17.031407 2.08139,6.06566 3.0092,12.6365 2.25425,19.0239 -0.37041,3.14184 -1.10066,6.2297 -2.01789,9.25406 -0.98072,3.22369 -2.10255,6.42091 -3.51014,9.48408 -0.73025,1.58856 -1.53811,3.14008 -2.40594,4.65632 1.85561,0.86959 3.54542,2.47403 4.88244,3.96134 1.43934,1.59702 2.48709,3.37079 3.16089,5.41161 1.26295,3.81388 0.42334,7.53357 -0.71261,11.26666 -0.8255,2.7231 -2.26836,5.18443 -3.92994,7.47819 -0.17639,0.24341 -0.53975,0.0808 -0.5327,-0.15064 -0.51152,-0.40499 -0.95602,-0.90452 -1.42875,-1.34761 -0.59972,-0.56092 -1.21708,-1.10419 -1.83091,-1.64994 -1.27353,-1.13207 -2.54,-2.28283 -3.67242,-3.556 -2.34245,-2.62467 -3.85939,-5.76651 -3.74297,-9.34332 0.0706,-2.12619 0.1023,-4.31095 0.55033,-6.40292 -1.89794,0.91793 -3.94406,1.54658 -5.96547,2.12161 -1.72156,0.48965 -3.50309,0.63464 -5.27403,0.34678 -3.27025,-0.53129 -6.10658,-2.39219 -8.77006,-4.26121 -0.75494,-0.53128 -1.50283,-1.07562 -2.26483,-1.59808 -0.613834,-0.42051 -1.287639,-0.78846 -1.869723,-1.25589 -0.22225,0.0663 -0.462139,-0.26246 -0.264583,-0.49036 3.122086,-3.56905 7.034386,-6.40644 11.528776,-8.00453 3.58423,-1.27564 7.57061,-0.90381 10.95375,0.78881 1.15711,0.57821 2.26131,1.27177 3.28789,2.05599 0.86078,0.65652 1.778,1.37513 2.46239,2.23062 2.35656,-2.99932 2.73403,-7.3018 2.70581,-10.98198 -0.0282,-3.34504 -0.61384,-6.68161 -1.68275,-9.8492 -2.13078,-6.29461 -6.223,-11.96199 -11.75809,-15.68485 -1.57339,-1.05834 -3.25614,-1.96039 -5.0165,-2.667 -1.65805,-0.66605 -3.36197,-1.09185 -5.09058,-1.4986 0.21872,0.5147 0.45508,1.02235 0.72319,1.51941 0.53975,1.00436 1.15711,1.96779 2.032,2.71321 0.83961,0.71544 1.8027,1.27812 2.67053,1.95651 0.62089,0.48436 1.22767,1.00506 1.80622,1.53776 0.51506,0.47343 0.84667,0.77047 1.2312,1.50142 0.0529,0.10372 0.18344,0.48895 0.17286,0.58244 -0.0176,0.20108 -0.0953,0.37782 -0.35278,0.42474 -1.96497,0.35807 -3.97228,0.008 -5.94783,-0.10089 -1.84503,-0.10231 -3.59834,-0.47061 -5.28461,-1.24425 -3.545421,-1.62631 -6.752171,-4.55154 -8.89706,-7.7784 -0.225778,-0.33937 -0.440972,-0.68333 -0.652639,-1.03152 -0.02822,0.0173 -0.05997,0.0318 -0.102305,0.0402 -3.058584,0.6544 -6.103056,1.40017 -9.175751,1.9872 -3.104445,0.59196 -6.187722,1.30351 -9.211028,2.21756 -3.019778,0.91298 -5.704417,2.33503 -8.441973,3.87843 -1.3335,0.75248 -2.645833,1.50742 -3.915833,2.36679 -1.30175,0.88053 -2.585862,1.79246 -3.961695,2.55552 -1.273528,0.70768 -2.659945,1.3776 -4.085167,1.72191 -0.582083,0.14005 -0.945444,0.1838 -1.520472,-0.0222 -0.22225,-0.0797 -0.589139,-0.31539 -0.776112,-0.46144 -0.345722,-0.27587 -0.687916,-0.58914 -1.075972,-0.80821 -0.07408,-0.043 -0.151694,-0.09 -0.194028,-0.16157 -0.4445,0.32596 -1.770944,0.67451 -2.54,0.51188 -0.864306,-0.18239 -1.823156,-1.02623 -1.704975,-2.38831"
       style="fill:#95b1c2;fill-opacity:1;fill-rule:nonzero;stroke:none;stroke-width:0.0352778"
       id="path1020" />
    <path
       d="m 98.730124,71.521501 c -0.596195,0 -1.2065,-0.462492 -1.707445,-0.7112 -2.437694,-1.211792 -4.850694,-2.247195 -7.503584,-2.903714 -1.439333,-0.356306 -2.906889,-0.61595 -4.385028,-0.751064 -0.776111,-0.07161 -1.559277,-0.102306 -2.342444,-0.117122 -0.769056,-0.01482 -1.386417,-0.06985 -1.93675,-0.629003 -0.123473,-0.12312 -0.127,-0.296686 -0.02117,-0.430742 0.508,-0.630767 1.308806,-0.770819 2.12725,-0.770819 0.511528,0 1.023056,0.05433 1.478139,0.07832 1.389945,0.07444 2.779889,0.235656 4.152195,0.489303 2.659944,0.493183 5.256389,1.367014 7.694084,2.544586 0.610305,0.294217 1.210028,0.602545 1.781528,0.966611 0.508,0.324203 1.273527,0.67945 1.42875,1.313392 0.112889,0.458964 -0.05997,0.786695 -0.525639,0.894645 -0.08114,0.0187 -0.15875,0.02681 -0.239889,0.02681"
       style="fill:#a8c7d1;fill-opacity:1;fill-rule:nonzero;stroke:none;stroke-width:0.0352778"
       id="path1022" />
    <path
       d="m 131.11513,100.73362 c -0.381,0 -0.85725,-0.61419 -1.09714,-1.028701 -0.23636,-0.404283 -1.84503,-3.628319 -2.38125,-4.589286 -0.76906,-1.382184 -1.6122,-2.73297 -2.51884,-4.029781 -1.18886,-1.704975 -2.50472,-3.323872 -3.92994,-4.838347 -0.72672,-0.772231 -1.48167,-1.517298 -2.26483,-2.233084 -0.67381,-0.615597 -1.68628,-1.242131 -1.96145,-2.161822 -0.0988,-0.317148 0.1517,-0.847725 0.51858,-0.847725 0.0423,0 0.0847,0.0063 0.127,0.02046 1.01953,0.330553 2.74462,1.732139 3.75003,2.732264 1.23472,1.231194 2.40242,2.531533 3.4925,3.892903 2.51884,3.142192 4.58259,6.608939 6.29003,10.252075 0.27164,0.583848 0.58914,1.434748 0.47625,2.087034 -0.0988,0.54575 -0.28575,0.74401 -0.50094,0.74401"
       style="fill:#a8c7d1;fill-opacity:1;fill-rule:nonzero;stroke:none;stroke-width:0.0352778"
       id="path1024" />
    <path
       d="m 124.21126,143.60635 c -0.06,0 -0.12347,-0.0123 -0.18697,-0.0388 -0.72672,-0.31609 -1.34055,-1.04352 -2.00025,-1.51659 -0.69497,-0.50165 -1.4358,-0.94157 -2.20133,-1.29223 -1.59103,-0.72707 -3.25614,-1.0982 -4.89656,-1.12712 -0.0953,-0.002 -0.1905,-0.002 -0.28927,-0.002 -1.61573,0 -3.1997,0.24447 -4.65314,0.76552 -0.76553,0.27517 -1.50284,0.6096 -2.20487,1.00084 -0.69497,0.38629 -1.32291,1.03293 -2.12372,1.20755 -0.0388,0.008 -0.0741,0.012 -0.10936,0.012 -0.4445,0 -0.77258,-0.58103 -0.58914,-0.94968 0.381,-0.76306 1.43581,-1.21814 2.16606,-1.60196 0.76905,-0.40323 1.57691,-0.74013 2.41653,-1.00718 1.64747,-0.52494 3.39019,-0.88724 5.19994,-0.88724 0.0741,0 0.14464,7e-4 0.21872,0.002 1.78859,0.0286 3.62303,0.49036 5.33753,1.33668 0.81845,0.40322 1.60867,0.8703 2.35303,1.4231 0.73025,0.54258 1.651,1.19733 2.01083,2.04753 0.14111,0.33055 -0.13758,0.62829 -0.44803,0.62829"
       style="fill:#a8c7d1;fill-opacity:1;fill-rule:nonzero;stroke:none;stroke-width:0.0352778"
       id="path1026" />
    <path
       d="m 69.230844,95.260272 c 0.864306,0.928158 2.074334,1.204736 2.705806,0.618066 0.627944,-0.586316 0.437444,-1.814336 -0.426861,-2.742494 -0.864306,-0.927806 -2.074333,-1.204736 -2.705806,-0.618067 -0.627944,0.58667 -0.437444,1.814689 0.426861,2.742495"
       style="fill:#ffffff;fill-opacity:1;fill-rule:nonzero;stroke:none;stroke-width:0.0352778"
       id="path1028" />
    <path
       d="m 68.938039,93.806827 c 0.232833,-0.276578 0.635,-0.191205 0.910167,-0.03528 0.469194,0.263173 0.818444,0.726017 0.945444,1.247423 0.119945,0.494241 -0.169333,0.878416 -0.687917,0.747889 -0.455083,-0.114653 -0.896055,-0.458611 -1.150055,-0.851959 -0.208139,-0.323497 -0.246945,-0.836789 -0.01764,-1.108075"
       style="fill:#333f48;fill-opacity:1;fill-rule:nonzero;stroke:none;stroke-width:0.0352778"
       id="path1030" />
    <path
       d="m 69.202622,93.760261 c 0.08819,-0.104423 0.239889,-0.07197 0.345722,-0.01341 0.176389,0.09913 0.306917,0.273756 0.352778,0.470253 0.04586,0.186266 -0.0635,0.330905 -0.257528,0.281869 -0.172861,-0.04339 -0.338666,-0.172857 -0.433916,-0.321024 -0.07761,-0.122061 -0.09172,-0.315383 -0.0071,-0.417688"
       style="fill:#ffffff;fill-opacity:1;fill-rule:nonzero;stroke:none;stroke-width:0.0352778"
       id="path1032" />
    <path
       d="m 89.949484,95.864933 2.910417,6.484057 c 0,0 -8.54075,1.8161 -11.246556,2.42076 -2.709334,0.60466 -6.946195,1.46897 -9.535584,2.63278 -2.589389,1.16417 -7.542389,3.78566 -9.013472,4.75298 -1.467556,0.96696 -4.314473,3.08151 -6.247695,3.88831 -1.93675,0.80716 -3.238501,1.37513 -3.989917,1.19592 -0.751417,-0.17921 -2.233084,-1.41499 -2.233084,-1.41499 0,0 3.979334,-3.6128 5.57389,-4.73252 1.379361,-0.97225 5.757333,-3.44593 7.186083,-4.62456 1.42875,-1.17863 3.305528,-2.62643 3.989917,-3.75003 0.395111,-0.65193 8.540751,-4.063999 12.01914,-5.041193 3.478389,-0.977547 10.586861,-1.811514 10.586861,-1.811514"
       style="fill:#c5e5e6;fill-opacity:1;fill-rule:nonzero;stroke:none;stroke-width:0.0352778"
       id="path1034" />
    <path
       d="m 102.88585,95.385861 2.49766,6.861179 c 0,0 3.50661,0.8329 5.06589,1.52012 1.56281,0.68685 4.39914,1.96003 7.18256,4.28378 0,0 3.00919,2.55376 4.49439,4.61504 1.48519,2.06128 3.63361,5.74886 4.10633,6.88939 0.4692,1.14053 2.19428,0.8763 1.7145,-0.80468 -0.47978,-1.68099 -3.25967,-9.62202 -7.90222,-14.69955 -4.70958,-5.145968 -7.75406,-6.291438 -11.19717,-7.655982 -3.44311,-1.364545 -5.96194,-1.009297 -5.96194,-1.009297"
       style="fill:#c5e5e6;fill-opacity:1;fill-rule:nonzero;stroke:none;stroke-width:0.0352778"
       id="path1036" />
    <path
       d="m 50.42426,115.69881 c -0.01058,-0.0102 -0.02117,-0.0205 -0.03175,-0.0307 0,-0.002 0.0035,-0.004 0.0071,-0.005 0.0071,0.0127 0.01411,0.0243 0.0247,0.0356"
       style="fill:#aebdc7;fill-opacity:1;fill-rule:nonzero;stroke:none;stroke-width:0.0352778"
       id="path1038" />
    <path
       d="m 50.593593,115.82475 v 0 0 c -0.04939,-0.0392 -0.116417,-0.0804 -0.169333,-0.12594 -0.01058,-0.0113 -0.01764,-0.0229 -0.0247,-0.0356 -0.0035,10e-4 -0.0071,0.003 -0.0071,0.005 -0.07408,-0.0773 -0.102306,-0.16687 0.02822,-0.2794 1.308806,-1.14653 2.6035,-2.30541 3.937,-3.42407 1.259417,-1.05657 2.575278,-1.8489 4.000501,-2.66594 1.986139,-1.137 3.898194,-2.37066 5.6515,-3.8421 0.814917,-0.68121 1.626306,-1.38853 2.363611,-2.15406 0.465667,-0.48578 0.804334,-0.95991 1.030111,-1.59491 0.123473,-0.34784 0.215195,-0.70556 0.398639,-1.02553 -0.123472,-0.0381 -0.250472,-0.0621 -0.381,-0.0621 -0.0635,0 -0.123472,0.005 -0.186972,0.0166 -0.0247,0.004 -0.04586,0.006 -0.06703,0.006 -0.352778,0 -0.462139,-0.55562 -0.07408,-0.63217 0.109361,-0.02187 0.225778,-0.0321 0.338667,-0.0321 0.613833,0 1.252361,0.286104 1.756833,0.584904 0.303389,0.1778 0.109361,0.57609 -0.186972,0.57609 -0.02117,0 -0.04586,-0.002 -0.06703,-0.007 -0.292806,-0.0593 -0.560917,-0.21096 -0.832556,-0.33373 -0.165805,0.66852 -0.391583,1.3275 -0.751416,1.90959 -0.0035,0.003 -0.0035,0.007 -0.0071,0.01 -0.0035,0.007 -0.01058,0.0152 -0.01411,0.0229 -0.09878,0.15593 -0.208139,0.30586 -0.328084,0.44908 -0.303389,0.36442 -0.642055,0.70768 -0.991305,1.03788 -0.818445,0.75953 -1.816806,1.54622 -2.656417,2.24014 v 0 c -0.486834,0.36618 -0.980723,0.71508 -1.485195,1.0534 -1.901472,1.24318 -4.656667,2.83633 -5.700889,3.57116 -0.01764,0.0102 -0.03175,0.0205 -0.04586,0.031 -0.458611,0.31574 -0.910167,0.65123 -1.344083,1.02059 -0.363362,0.30832 -0.730251,0.63006 -1.097139,0.95779 -1.545167,1.32574 -3.086806,2.72309 -3.086806,2.72309"
       style="fill:#62819a;fill-opacity:1;fill-rule:nonzero;stroke:none;stroke-width:0.0352778"
       id="path1040" />
    <path
       d="m 50.593593,115.82475 v 0 0 c 0,0 1.541639,-1.39735 3.086806,-2.72309 -1.026583,0.91263 -2.067278,1.87289 -3.086806,2.72309 m 5.528028,-4.70147 c 0.01411,-0.0106 0.02822,-0.0208 0.04586,-0.031 1.044223,-0.73483 3.799417,-2.32798 5.70089,-3.57116 -0.839611,0.56338 -1.696862,1.09784 -2.57175,1.63441 -1.075973,0.66217 -2.151945,1.26612 -3.175001,1.9678 m 7.231945,-4.65561 v 0 c 0.839611,-0.69391 1.837973,-1.48061 2.656417,-2.24014 -0.4445,0.41452 -0.906639,0.80857 -1.358194,1.19698 -0.423334,0.36512 -0.857251,0.7112 -1.298223,1.04316 m 3.975806,-3.7271 c 0.0035,-0.008 0.01058,-0.0155 0.01411,-0.0229 0.0035,-0.003 0.0035,-0.007 0.0071,-0.01 -0.0071,0.0109 -0.01411,0.0219 -0.02117,0.0328"
       style="fill:#81a5b3;fill-opacity:1;fill-rule:nonzero;stroke:none;stroke-width:0.0352778"
       id="path1042" />
    <path
       d="m 53.087732,103.20765 c -0.0882,0 -0.169333,-0.10231 -0.109361,-0.1845 0.645584,-0.89676 1.950861,-1.25554 2.938639,-1.62525 1.125361,-0.42157 2.314223,-0.67522 3.460751,-1.0287 0.01764,-0.005 0.03528,-0.008 0.04939,-0.008 0.183444,0 0.278694,0.30656 0.08467,0.37818 -1.033639,0.38241 -2.116667,0.5976 -3.16089,0.94826 -0.592666,0.19862 -1.185333,0.42863 -1.756833,0.67699 -0.522111,0.22683 -0.959556,0.5588 -1.456972,0.82973 -0.01411,0.009 -0.03528,0.0134 -0.04939,0.0134"
       style="fill:#62819a;fill-opacity:1;fill-rule:nonzero;stroke:none;stroke-width:0.0352778"
       id="path1044" />
  </g>
</svg>
