<?xml version="1.0" encoding="UTF-8" standalone="no"?>
<svg
   xmlns:dc="http://purl.org/dc/elements/1.1/"
   xmlns:cc="http://creativecommons.org/ns#"
   xmlns:rdf="http://www.w3.org/1999/02/22-rdf-syntax-ns#"
   xmlns:svg="http://www.w3.org/2000/svg"
   xmlns="http://www.w3.org/2000/svg"
   xmlns:sodipodi="http://sodipodi.sourceforge.net/DTD/sodipodi-0.dtd"
   xmlns:inkscape="http://www.inkscape.org/namespaces/inkscape"
   width="210mm"
   height="297mm"
   viewBox="0 0 210 297"
   version="1.1"
   id="svg7049"
   inkscape:version="1.0.2 (e86c8708, 2021-01-15)"
   sodipodi:docname="ill.svg">
  <defs
     id="defs7043" />
  <sodipodi:namedview
     id="base"
     pagecolor="#ffffff"
     bordercolor="#666666"
     borderopacity="1.0"
     inkscape:pageopacity="0.0"
     inkscape:pageshadow="2"
     inkscape:zoom="0.35"
     inkscape:cx="400"
     inkscape:cy="560"
     inkscape:document-units="mm"
     inkscape:current-layer="layer1"
     inkscape:document-rotation="0"
     showgrid="false"
     inkscape:window-width="1252"
     inkscape:window-height="1005"
     inkscape:window-x="0"
     inkscape:window-y="23"
     inkscape:window-maximized="0" />
  <metadata
     id="metadata7046">
    <rdf:RDF>
      <cc:Work
         rdf:about="">
        <dc:format>image/svg+xml</dc:format>
        <dc:type
           rdf:resource="http://purl.org/dc/dcmitype/StillImage" />
        <dc:title></dc:title>
      </cc:Work>
    </rdf:RDF>
  </metadata>
  <g
     inkscape:label="Layer 1"
     inkscape:groupmode="layer"
     id="layer1">
    <path
       d="m 66.348085,148.54422 c -0.238478,0.0797 -1.719439,0.62265 -2.966862,1.62278 -1.047397,0.83996 -1.883833,1.77235 -2.316339,2.534 -0.60325,1.06363 -0.832203,2.26413 -0.910167,2.63631 -0.136172,0.65123 -0.05115,0.80962 0.0053,0.85937 0.04057,0.036 0.198261,0.061 0.198261,0.061 0,0 0.110773,0.61277 0.340078,1.05092 0.298803,0.57115 1.024467,1.3589 1.828095,1.67711 1.094316,0.43286 2.345972,0.74118 4.009672,0.85972 2.069395,0.14781 3.730978,0.0631 5.653617,-0.23848 1.979789,-0.31009 3.236031,-0.54081 4.461228,-0.8121 1.225198,-0.27128 3.192287,-0.99553 3.7338,-1.17122 0.541162,-0.17568 2.000956,-0.63535 2.882901,-1.15323 0.881591,-0.51788 1.576916,-1.14617 1.838678,-1.45591 0.574675,-0.68051 0.842433,-1.22873 0.98178,-1.81928 0.139347,-0.59055 0.357717,-2.16288 0.179211,-2.75413 -0.178153,-0.59091 -0.454378,-1.87537 -0.651228,-2.18052 -0.196497,-0.3048 -0.906286,-1.10067 -0.906286,-1.10067 0,0 2.309989,0.74189 2.978856,1.04211 0.668514,0.30021 1.873956,0.60572 2.177697,0.58173 0.304095,-0.024 0.802217,-0.15523 1.109134,-0.52494 0.306564,-0.36936 0.629003,-0.78951 0.640997,-1.35749 0.01235,-0.56797 -0.04551,-2.31351 -0.149225,-2.91324 -0.103364,-0.59972 -0.769761,-2.57421 -1.019175,-3.05999 -0.249414,-0.48577 -0.793397,-1.38606 -0.886883,-1.76706 -0.09384,-0.3803 -0.262467,-1.12431 0.115358,-1.48626 0.377472,-0.3623 0.920397,-0.70414 2.099028,-1.04669 1.178278,-0.34255 2.122311,-0.69815 2.899481,-1.02517 0.486833,-0.20496 1.315155,-0.64488 1.636889,-0.91722 0.156986,-0.133 1.120069,-1.55787 0.767644,-1.3589 -0.806803,0.53481 -1.595967,1.08761 -2.268361,1.22343 -0.672395,0.13547 -1.806575,0.24765 -3.625145,0.2861 -1.818569,0.0381 -2.652536,0.0663 -3.736975,0.30374 -1.085145,0.23707 -1.901472,0.47308 -2.265186,0.83503 -0.363714,0.3623 -0.636764,0.90699 -0.487539,1.46332 0.149225,0.55563 0.30233,1.12219 0.912283,1.55611 0.610306,0.43356 2.0701,1.17827 2.395361,1.52153 0.325614,0.3436 0.874889,0.75177 0.777523,1.47037 -0.09737,0.71861 -0.433212,0.87807 -1.129948,0.94298 -0.696383,0.0653 -4.782608,-0.8883 -5.595408,-0.97896 -0.812448,-0.0907 -3.015192,-0.37465 -3.940881,-0.41592 -0.925689,-0.0413 -2.350206,-0.12312 -3.402895,0.29703 -1.053042,0.41981 -2.063397,1.17687 -2.293408,1.44322 -0.230364,0.26635 -0.476956,0.79375 -0.476956,0.79375 l -0.283986,-0.47449 0.02187,1.46403 -0.05256,1.85667 1.787878,0.0416 c 0,0 1.152525,0.61066 1.789995,0.65087 0.637116,0.0409 1.843969,0.0409 2.440517,0.17639 0.596547,0.13582 1.111955,0.67804 1.50495,0.63712 0.393347,-0.0406 1.532114,-0.51506 1.993194,-0.36619 0.461081,0.14923 0.664281,0.35278 1.138767,0.16299 0.474839,-0.1898 0.919339,-0.3937 0.919339,-0.3937 0,0 0.136525,-0.0617 0.472369,-0.44556 0.291042,-0.33232 -0.02046,1.30175 -0.698147,1.7085 -0.678039,0.40676 -2.523772,1.15112 -4.408311,1.05587 -1.884892,-0.0945 -3.525309,-0.92181 -4.894792,-1.19275 -1.369484,-0.27128 -2.448984,-0.6297 -3.61562,-0.70837 -1.166636,-0.0787 -2.305756,-0.0205 -2.76225,0.0924 -0.456495,0.1136 -0.947208,0.21026 -0.947208,0.21026"
       style="fill:#2e6f8d;fill-opacity:1;fill-rule:nonzero;stroke:none;stroke-width:0.0352778"
       id="path2892" />
    <path
       d="m 70.35811,159.83311 c 0.0508,0.13547 3.297767,0.16827 3.798006,0.16863 1.437216,10e-4 2.652889,-0.56974 3.131961,-0.65088 0.479425,-0.0815 2.5908,-0.65828 3.148895,-0.60078 0.558094,0.0572 1.149702,-0.0222 1.488016,-0.21096 0.338667,-0.18874 1.234723,-0.80751 1.713795,-1.0167 0.479072,-0.20885 1.520119,-0.40076 1.954389,-0.64982 0.434269,-0.24977 0.923572,-0.83326 1.274586,-1.36772 0.350661,-0.53516 1.030817,-1.8736 1.006475,-2.28424 -0.02434,-0.41028 -0.0053,-0.7306 -0.282928,-1.23013 -0.277989,-0.49954 -0.420511,-1.26648 -0.889352,-1.88772 -0.280812,-0.37183 -0.785989,-0.68721 -0.71367,-0.70979 0.07232,-0.0226 1.321506,0.44345 1.960739,0.83397 0.638881,0.39053 1.168047,0.26247 1.58115,0.096 0.413456,-0.16652 0.394406,-0.52952 0.784225,-0.4572 0.389467,0.072 0.779639,0.22718 1.173339,0.0603 0.3937,-0.16722 0.813506,-0.37324 0.870303,-0.69674 0.0568,-0.32349 -0.04798,-0.99836 0.0074,-1.3783 0.05539,-0.38029 0.449439,-1.13594 0.449439,-1.84361 0,-0.93416 -0.557741,-2.18758 -0.731308,-2.74779 -0.17392,-0.56057 -0.635706,-1.09538 -0.653345,-1.46756 -0.02716,-0.56938 0.04057,-1.41005 -0.393347,-1.55927 -0.698147,-0.23989 -1.475669,-1.07174 -1.475669,-1.07174 0,0 1.424516,3.20534 1.652058,4.03965 0.252942,0.92781 0.343958,1.96604 0.384528,2.50861 0.04057,0.54222 0.08149,1.3014 -0.2032,1.88454 -0.285045,0.58314 -0.87242,1.02129 -1.394884,1.04563 -0.522816,0.024 -2.411941,-0.55033 -2.828925,-0.75247 -0.41663,-0.2025 -2.980619,-0.96203 -2.980619,-0.96203 0,0 0.890411,0.79269 1.39453,1.4986 0.385586,0.5401 0.667456,1.90888 0.682625,2.76331 0.01552,0.85407 -0.201436,2.08809 -0.540455,2.83386 -0.33902,0.74578 -0.989542,1.31516 -1.532114,1.77624 -0.54222,0.46073 -1.410053,0.895 -2.020359,1.16593 -0.609953,0.27129 -3.036006,1.06856 -3.825169,1.29258 -3.759201,1.06821 -7.991123,1.57762 -7.991123,1.57762"
       style="fill:#a4b121;fill-opacity:1;fill-rule:nonzero;stroke:none;stroke-width:0.0352778"
       id="path2894" />
    <path
       d="m 65.330673,148.96826 c 0.06773,-0.0949 1.580445,-1.10102 1.979084,-1.35361 0.398286,-0.25224 1.379008,-0.71649 2.027061,-1.00577 0.648406,-0.28963 0.966964,-0.42933 1.176867,-0.27375 0.209903,0.15557 0.809625,0.48154 1.425575,0.53481 0.61595,0.0533 1.394883,-0.0219 1.760714,0.15416 0.366183,0.17639 1.286581,0.57856 1.938867,0.6036 0.651933,0.0254 1.695097,0.0268 2.142419,0.17921 0.447675,0.15311 1.165931,0.57045 1.505303,0.55986 0.33902,-0.0109 1.309511,-0.42474 1.71697,-0.38523 0.407105,0.0399 1.09608,0.29386 1.382889,0.13582 0.286455,-0.15805 1.417108,-0.8315 1.417108,-0.8315 0,0 0.06385,0.58738 0,0.83679 -0.23248,0.9084 -0.581025,1.04422 -1.330678,1.32856 -0.750005,0.28505 -2.223558,0.77188 -3.144308,0.76094 -0.920398,-0.0109 -1.918406,-0.12241 -3.260726,-0.47519 -1.342319,-0.35242 -3.194755,-0.84137 -3.8862,-1.01776 -0.691444,-0.17639 -1.898297,-0.39335 -2.738967,-0.42016 -0.840669,-0.0272 -1.895827,0.0554 -2.50825,0.18979 -0.656166,0.14358 -1.603728,0.47943 -1.603728,0.47943"
       style="fill:#a4b121;fill-opacity:1;fill-rule:nonzero;stroke:none;stroke-width:0.0352778"
       id="path2896" />
    <path
       d="m 71.942082,144.06853 c 0,0 -0.489303,-0.31715 -0.436739,-0.75107 0.05256,-0.43391 0.533753,-1.06468 0.855839,-1.47214 0.322086,-0.4071 0.630414,-0.623 1.176514,-0.68968 0.5461,-0.067 0.931686,-0.27305 1.455561,-0.44944 0.523875,-0.17674 0.818092,-0.46954 1.315509,-0.46849 0.497416,7.1e-4 2.455333,0.27835 3.027186,0.23107 0.572558,-0.0473 1.264356,-0.16016 1.645003,0.008 0.380647,0.16757 0.956381,0.46285 1.401586,0.48225 0.444853,0.0198 1.667581,0.16334 2.240492,0.28963 0.572911,0.12665 1.312333,0.46955 1.644297,0.40358 0.332317,-0.066 0.778934,-0.31644 0.603956,-0.43991 -0.174978,-0.12383 -1.151467,-0.83891 -1.604081,-1.04811 -0.452614,-0.20919 -1.086555,-0.58067 -1.194505,-0.88194 -0.107598,-0.30057 -0.346781,-0.61136 -0.382764,-1.08585 -0.03563,-0.47484 -0.1778,-1.32468 -0.221898,-1.67852 -0.0441,-0.35419 -0.06068,-0.94721 0.156987,-1.16346 0.217663,-0.2159 0.696383,-0.20461 1.228725,-0.45155 0.531989,-0.24695 1.383594,-0.89006 1.840089,-1.04846 0.456847,-0.1584 2.413705,0.012 2.964744,-0.048 0.550686,-0.0596 1.169106,-0.15134 1.418167,0.0392 0.249061,0.1905 0.717197,0.71155 0.995186,0.68298 0.278342,-0.0289 1.143353,-0.33655 1.698625,-0.38277 0.555273,-0.0466 2.221795,-0.15628 2.268714,-0.16016 0.04657,-0.005 -0.197908,0.37183 -1.566686,0.68686 -0.487539,0.11183 -2.481439,0.31186 -3.186642,0.27093 -0.705203,-0.0406 -2.833864,0.0134 -3.484386,0.13582 -0.650875,0.12207 -1.559278,0.2981 -1.993195,0.61031 -0.433916,0.3115 -1.13665,0.67663 -1.114778,1.24636 0.02152,0.57009 0.261056,1.55646 0.929217,1.96392 0.668161,0.40746 2.29482,1.35396 2.607381,1.61643 0.313267,0.26246 0.900289,0.99942 0.595136,1.65241 -0.305153,0.65228 -0.915458,0.95073 -1.647825,0.84243 -0.732014,-0.1083 -4.0132,-0.85407 -4.948767,-0.92216 -0.935567,-0.0677 -4.271081,-0.56938 -5.057423,-0.50165 -0.786341,0.0681 -1.789994,-0.0134 -2.359377,0.23072 -0.569384,0.24377 -1.201914,0.5655 -2.004837,1.17439 -0.404989,0.30692 -0.865011,1.07633 -0.865011,1.07633"
       style="fill:#a4b121;fill-opacity:1;fill-rule:nonzero;stroke:none;stroke-width:0.0352778"
       id="path2898" />
    <path
       d="m 72.195024,144.12286 c 0.360891,-0.0303 1.609019,-0.32562 1.970617,-0.34361 0.361597,-0.0183 1.744839,0.28928 2.164997,0.38418 0.420158,0.0949 1.301397,-0.0272 1.871133,0 0.569384,0.0272 1.233664,0.35242 1.54552,0.40675 0.311856,0.0543 0.772936,0.2981 1.193447,0.17603 0.420159,-0.1217 0.379589,-0.23847 0.772584,-0.0649 0.393347,0.17357 0.989894,0.59655 1.288344,0.86501 1.355725,1.22026 0.665692,2.28001 0.564445,2.17135 -0.400756,-0.42862 -0.551039,-1.18145 -2.449337,-1.52047 -0.526697,-0.0942 -3.335514,-0.43392 -4.121855,-0.48789 -0.786342,-0.0543 -2.372784,-0.0953 -2.969331,-0.14923 -0.596547,-0.0543 -1.681339,-0.37959 -1.979789,-0.54257 -0.298097,-0.16263 -0.396522,-0.28504 -0.423686,-0.56303 -0.02716,-0.27799 -0.117123,-1.02024 -0.117123,-1.02024 0,0 0.397934,0.71297 0.690034,0.68863"
       style="fill:#a4b121;fill-opacity:1;fill-rule:nonzero;stroke:none;stroke-width:0.0352778"
       id="path2900" />
    <path
       d="m 81.585969,151.79225 c -0.0081,-0.13724 -0.08502,-0.23989 -0.198614,-0.28681 -0.09419,-0.0631 -0.238125,-0.0483 -0.330553,0.007 -0.09984,0.0603 -0.161925,0.1718 -0.160161,0.28892 0.0035,0.23319 0.282222,0.42051 0.491067,0.28716 0.116769,-0.0505 0.206375,-0.16157 0.198261,-0.29668"
       style="fill:#a4b121;fill-opacity:1;fill-rule:nonzero;stroke:none;stroke-width:0.0352778"
       id="path2902" />
    <path
       d="m 75.013366,151.44546 c -0.351014,0 -0.343253,0.54505 0.0078,0.54505 0.350661,0 0.343253,-0.54505 -0.0078,-0.54505"
       style="fill:#a4b121;fill-opacity:1;fill-rule:nonzero;stroke:none;stroke-width:0.0352778"
       id="path2904" />
    <path
       d="m 68.718751,148.90335 c -0.339372,0 -0.331964,0.5267 0.0078,0.5267 0.339373,0 0.331612,-0.5267 -0.0078,-0.5267"
       style="fill:#a4b121;fill-opacity:1;fill-rule:nonzero;stroke:none;stroke-width:0.0352778"
       id="path2906" />
    <path
       d="m 70.31119,150.12325 c -0.343252,0 -0.335844,0.5327 0.0074,0.5327 0.343605,0 0.335844,-0.5327 -0.0074,-0.5327"
       style="fill:#a4b121;fill-opacity:1;fill-rule:nonzero;stroke:none;stroke-width:0.0352778"
       id="path2908" />
    <path
       d="m 77.626038,151.19499 c -0.346781,0 -0.339019,0.53834 0.0078,0.53834 0.346781,0 0.33902,-0.53834 -0.0078,-0.53834"
       style="fill:#a4b121;fill-opacity:1;fill-rule:nonzero;stroke:none;stroke-width:0.0352778"
       id="path2910" />
    <path
       d="m 64.092423,150.78824 c -0.330552,0 -0.323497,0.51329 0.0074,0.51329 0.3302,0 0.323144,-0.51329 -0.0074,-0.51329"
       style="fill:#a4b121;fill-opacity:1;fill-rule:nonzero;stroke:none;stroke-width:0.0352778"
       id="path2912" />
    <path
       d="m 72.364357,149.54152 -0.06244,-0.005 c -0.129469,0.005 -0.125236,0.19474 0.0032,0.20038 l 0.06209,-0.006 c 0.0949,-0.0145 0.08996,-0.17533 -0.0028,-0.18944"
       style="fill:#a4b121;fill-opacity:1;fill-rule:nonzero;stroke:none;stroke-width:0.0352778"
       id="path2914" />
    <path
       d="m 74.035818,149.80928 c -0.14605,0 -0.142875,0.22719 0.0032,0.22719 0.146403,0 0.143228,-0.22719 -0.0032,-0.22719"
       style="fill:#a4b121;fill-opacity:1;fill-rule:nonzero;stroke:none;stroke-width:0.0352778"
       id="path2916" />
    <path
       d="m 77.367452,150.75614 c -0.0042,-0.14288 -0.216606,-0.13864 -0.220839,0.003 l -0.0021,0.0363 c -0.0067,0.0607 0.05856,0.11183 0.1143,0.11112 0.05644,-7.1e-4 0.117828,-0.0533 0.111125,-0.1143 l -0.0025,-0.036"
       style="fill:#a4b121;fill-opacity:1;fill-rule:nonzero;stroke:none;stroke-width:0.0352778"
       id="path2918" />
    <path
       d="m 73.060388,150.77131 c -0.214842,0 -0.210256,0.33408 0.0049,0.33408 0.215194,0 0.210255,-0.33408 -0.0049,-0.33408"
       style="fill:#a4b121;fill-opacity:1;fill-rule:nonzero;stroke:none;stroke-width:0.0352778"
       id="path2920" />
    <path
       d="m 75.999027,150.48732 -0.01834,-0.0251 c -0.07479,-0.10089 -0.19685,-0.0945 -0.269522,0.004 l -0.01905,0.0258 c -0.0829,0.11218 0.03493,0.2667 0.157339,0.26529 0.125236,-0.002 0.232481,-0.15875 0.149578,-0.26988"
       style="fill:#a4b121;fill-opacity:1;fill-rule:nonzero;stroke:none;stroke-width:0.0352778"
       id="path2922" />
    <path
       d="m 67.673824,149.64418 c -0.05327,-0.1457 -0.240242,-0.13652 -0.291748,0.004 l -0.01164,0.0769 c -0.0014,0.085 0.0769,0.15663 0.160514,0.15522 0.08537,-0.001 0.156986,-0.0744 0.155575,-0.16016 l -0.0127,-0.0762"
       style="fill:#a4b121;fill-opacity:1;fill-rule:nonzero;stroke:none;stroke-width:0.0352778"
       id="path2924" />
    <path
       d="m 66.318098,149.43498 c -0.05398,-0.10054 -0.210255,-0.0935 -0.262466,0.004 -0.01976,0.0374 -0.02893,0.0709 -0.02752,0.1136 0.0028,0.0861 0.07444,0.15875 0.162278,0.15734 0.08996,-0.001 0.154517,-0.0755 0.157692,-0.16228 0.0011,-0.0423 -0.01023,-0.0755 -0.02999,-0.11254"
       style="fill:#a4b121;fill-opacity:1;fill-rule:nonzero;stroke:none;stroke-width:0.0352778"
       id="path2926" />
    <path
       d="m 79.649572,151.16324 c -0.03775,-0.0762 -0.159809,-0.1016 -0.228953,-0.0519 -0.05927,0.01 -0.115006,0.0565 -0.135114,0.10831 -0.03246,0.0836 0.0011,0.16333 0.07303,0.21307 l 0.04127,0.0198 0.04445,0.0113 c 0.0321,0.004 0.03104,0.004 -0.0028,0 0.08784,0.0289 0.212372,-0.0374 0.225777,-0.13265 0.0099,-0.0667 0.01446,-0.10336 -0.01764,-0.16792"
       style="fill:#a4b121;fill-opacity:1;fill-rule:nonzero;stroke:none;stroke-width:0.0352778"
       id="path2928" />
    <path
       d="m 82.181105,150.35785 c -0.07303,0.024 -0.118886,0.0903 -0.116064,0.1651 -0.01129,0.0688 0.01235,0.14005 0.07973,0.17604 0.117475,0.0639 0.268817,3.5e-4 0.285044,-0.13759 0.01623,-0.13617 -0.117475,-0.24694 -0.248708,-0.20355"
       style="fill:#a4b121;fill-opacity:1;fill-rule:nonzero;stroke:none;stroke-width:0.0352778"
       id="path2930" />
    <path
       d="m 70.77721,149.11678 c -0.06773,-0.0519 -0.152047,-0.0667 -0.223309,-0.01 -0.05997,0.048 -0.09243,0.1524 -0.04057,0.22013 0.04657,0.0607 0.09913,0.11466 0.183797,0.10654 0.09278,-0.01 0.147461,-0.0691 0.156281,-0.16051 0.0056,-0.061 -0.02893,-0.11959 -0.0762,-0.15628"
       style="fill:#a4b121;fill-opacity:1;fill-rule:nonzero;stroke:none;stroke-width:0.0352778"
       id="path2932" />
    <path
       d="m 65.852785,150.77483 c -0.08996,-0.0515 -0.228953,-0.0325 -0.26917,0.0748 -0.02469,0.0649 -3.53e-4,0.14358 0.05433,0.18662 0.106892,0.0829 0.298803,0.0138 0.294569,-0.13229 -0.0018,-0.0593 -0.03457,-0.10301 -0.07973,-0.12912"
       style="fill:#a4b121;fill-opacity:1;fill-rule:nonzero;stroke:none;stroke-width:0.0352778"
       id="path2934" />
    <path
       d="m 73.439977,145.95589 c -0.223309,0 -0.21837,0.34713 0.0053,0.34713 0.223309,0 0.218017,-0.34713 -0.0053,-0.34713"
       style="fill:#a4b121;fill-opacity:1;fill-rule:nonzero;stroke:none;stroke-width:0.0352778"
       id="path2936" />
    <path
       d="m 75.771838,145.99716 c -0.08502,0.005 -0.1524,0.0579 -0.177447,0.1397 -0.01411,0.0452 -0.0049,0.0942 0.01799,0.13547 0.0187,0.0748 0.08255,0.13794 0.164748,0.13335 0.07832,-0.005 0.131938,-0.0529 0.153811,-0.11994 0.0695,-0.1136 -0.0035,-0.29775 -0.159103,-0.28858"
       style="fill:#a4b121;fill-opacity:1;fill-rule:nonzero;stroke:none;stroke-width:0.0352778"
       id="path2938" />
    <path
       d="m 78.386274,146.3824 c -0.01693,-0.0759 -0.0949,-0.13759 -0.165805,-0.15628 -0.08149,-0.0212 -0.170392,0.004 -0.228953,0.0639 -0.112183,0.11571 -0.07126,0.34502 0.09384,0.38806 0.08431,0.061 0.210961,0.0628 0.283986,-0.0194 0.07303,-0.0818 0.07655,-0.19085 0.01693,-0.27622"
       style="fill:#a4b121;fill-opacity:1;fill-rule:nonzero;stroke:none;stroke-width:0.0352778"
       id="path2940" />
    <path
       d="m 81.249066,146.71507 c -0.293511,0 -0.287161,0.45614 0.0067,0.45614 0.293511,0 0.287161,-0.45614 -0.0067,-0.45614"
       style="fill:#a4b121;fill-opacity:1;fill-rule:nonzero;stroke:none;stroke-width:0.0352778"
       id="path2942" />
    <path
       d="m 79.879583,147.17262 c -0.0889,-0.079 -0.209198,-0.0744 -0.295628,0.004 -0.0085,0.008 -0.04904,0.0325 -0.01658,0.0141 -0.122766,0.0688 -0.136525,0.2466 -0.0388,0.34149 0.09913,0.0963 0.271639,0.0734 0.340078,-0.049 -0.01905,0.0346 0.0088,-0.008 0.01517,-0.0152 0.07338,-0.0808 0.08184,-0.21872 -0.0042,-0.29563"
       style="fill:#a4b121;fill-opacity:1;fill-rule:nonzero;stroke:none;stroke-width:0.0352778"
       id="path2944" />
    <path
       d="m 72.200315,145.53961 c -0.06244,-0.13017 -0.277988,-0.121 -0.339019,0.005 -0.02469,0.0519 -0.03316,0.0981 -0.03281,0.15416 7.05e-4,0.10654 0.09772,0.20744 0.20708,0.20074 0.111831,-0.007 0.200025,-0.0924 0.200731,-0.20673 3.53e-4,-0.0568 -0.01129,-0.10196 -0.03598,-0.15311"
       style="fill:#a4b121;fill-opacity:1;fill-rule:nonzero;stroke:none;stroke-width:0.0352778"
       id="path2946" />
    <path
       d="m 74.764657,142.70328 c -0.02081,-0.0737 -0.07055,-0.13476 -0.144991,-0.1651 -0.08855,-0.036 -0.204611,-0.0191 -0.270934,0.0554 -0.05821,0.0653 -0.08537,0.15664 -0.06032,0.24272 0.0254,0.0868 0.09172,0.14322 0.171803,0.16651 0.08502,0.0547 0.208492,0.0497 0.278695,-0.0289 0.06985,-0.0787 0.07867,-0.18556 0.02575,-0.27058"
       style="fill:#a4b121;fill-opacity:1;fill-rule:nonzero;stroke:none;stroke-width:0.0352778"
       id="path2948" />
    <path
       d="m 77.127563,142.00337 c -0.146403,0.002 -0.2286,0.13123 -0.209903,0.25823 l 3.53e-4,0.0201 c 0.0011,0.11148 0.1016,0.2159 0.215547,0.20955 0.115711,-0.007 0.20567,-0.0945 0.209197,-0.21132 0.03175,-0.13511 -0.0635,-0.27904 -0.215194,-0.27657"
       style="fill:#a4b121;fill-opacity:1;fill-rule:nonzero;stroke:none;stroke-width:0.0352778"
       id="path2950" />
    <path
       d="m 78.86323,142.72938 c -0.257881,0 -0.252236,0.40041 0.0056,0.40041 0.257881,0 0.252236,-0.40041 -0.0056,-0.40041"
       style="fill:#a4b121;fill-opacity:1;fill-rule:nonzero;stroke:none;stroke-width:0.0352778"
       id="path2952" />
    <path
       d="m 76.260082,142.84263 c -0.251883,0 -0.246239,0.39087 0.0056,0.39087 0.25153,0 0.246239,-0.39087 -0.0056,-0.39087"
       style="fill:#a4b121;fill-opacity:1;fill-rule:nonzero;stroke:none;stroke-width:0.0352778"
       id="path2954" />
    <path
       d="m 82.550816,142.96716 c -0.300567,0 -0.293864,0.46707 0.0067,0.46707 0.300567,0 0.293864,-0.46707 -0.0067,-0.46707"
       style="fill:#a4b121;fill-opacity:1;fill-rule:nonzero;stroke:none;stroke-width:0.0352778"
       id="path2956" />
    <path
       d="m 86.075066,144.20223 -0.05045,-0.0152 c -0.132644,-0.0501 -0.269169,0.0822 -0.267405,0.2099 0.0018,0.13053 0.141816,0.25189 0.273755,0.20215 l 0.04974,-0.0152 c 0.191205,-0.0448 0.179916,-0.33796 -0.0056,-0.38171"
       style="fill:#a4b121;fill-opacity:1;fill-rule:nonzero;stroke:none;stroke-width:0.0352778"
       id="path2958" />
    <path
       d="m 87.579311,143.90237 c -0.05151,-0.19967 -0.348192,-0.18768 -0.397933,0.006 -0.0095,0.0363 -0.01094,0.0723 -0.01023,0.10937 0.0014,0.11006 0.09948,0.21378 0.213078,0.20708 0.116416,-0.007 0.204964,-0.0956 0.206728,-0.21343 7.05e-4,-0.037 -0.0021,-0.0723 -0.01164,-0.10866"
       style="fill:#a4b121;fill-opacity:1;fill-rule:nonzero;stroke:none;stroke-width:0.0352778"
       id="path2960" />
    <path
       d="m 84.774727,143.1566 c -0.03704,-7.1e-4 -0.07197,0.002 -0.10795,0.0116 -0.19685,0.0469 -0.185561,0.34643 0.0056,0.39194 0.03598,0.009 0.07161,0.0106 0.108303,0.01 0.108302,-0.002 0.210608,-0.0974 0.203905,-0.20955 -0.0067,-0.11536 -0.09384,-0.20179 -0.209903,-0.2039"
       style="fill:#a4b121;fill-opacity:1;fill-rule:nonzero;stroke:none;stroke-width:0.0352778"
       id="path2962" />
    <path
       d="m 80.218955,142.72656 c -0.261056,0 -0.255411,0.4057 0.006,0.4057 0.261408,0 0.255411,-0.4057 -0.006,-0.4057"
       style="fill:#a4b121;fill-opacity:1;fill-rule:nonzero;stroke:none;stroke-width:0.0352778"
       id="path2964" />
    <path
       d="m 85.696889,136.86093 c -0.271992,0 -0.265995,0.42227 0.006,0.42227 0.271639,0 0.265994,-0.42227 -0.006,-0.42227"
       style="fill:#a4b121;fill-opacity:1;fill-rule:nonzero;stroke:none;stroke-width:0.0352778"
       id="path2966" />
    <path
       d="m 87.594833,135.60292 c -0.285397,0 -0.279047,0.44344 0.0064,0.44344 0.285397,0 0.2794,-0.44344 -0.0064,-0.44344"
       style="fill:#a4b121;fill-opacity:1;fill-rule:nonzero;stroke:none;stroke-width:0.0352778"
       id="path2968" />
    <path
       d="m 86.944311,136.75827 c -0.107245,0.006 -0.208845,0.0935 -0.202495,0.20849 0.0021,0.0356 0.0074,0.0716 0.01552,0.10618 0.04515,0.19121 0.337608,0.18027 0.381352,-0.005 0.0081,-0.0353 0.01164,-0.0709 0.01376,-0.10689 0.0063,-0.1076 -0.103011,-0.20884 -0.208139,-0.20249"
       style="fill:#a4b121;fill-opacity:1;fill-rule:nonzero;stroke:none;stroke-width:0.0352778"
       id="path2970" />
    <path
       d="m 86.727353,138.37787 c -0.274462,0 -0.268464,0.4258 0.006,0.4258 0.274461,0 0.268111,-0.4258 -0.006,-0.4258"
       style="fill:#a4b121;fill-opacity:1;fill-rule:nonzero;stroke:none;stroke-width:0.0352778"
       id="path2972" />
    <path
       d="m 88.507469,144.19341 -0.04127,0.0215 c -0.138641,0.0674 -0.129116,0.29563 0.0053,0.36089 l 0.04198,0.0222 c 0.153105,0.0924 0.351719,-0.0339 0.34925,-0.20744 -0.0025,-0.17744 -0.2032,-0.28927 -0.355248,-0.1972"
       style="fill:#a4b121;fill-opacity:1;fill-rule:nonzero;stroke:none;stroke-width:0.0352778"
       id="path2974" />
    <path
       d="m 84.557769,144.56312 -0.0049,-3.5e-4 c -0.04762,-0.009 -0.08855,-0.002 -0.122414,0.0169 -0.07479,0.0342 -0.107244,0.11395 -0.104775,0.19438 -0.0021,0.0699 0.02328,0.13829 0.08079,0.17745 l 0.0078,0.005 0.01623,0.01 c 0.03316,0.0187 0.07303,0.0265 0.120297,0.018 l 0.01305,-3.5e-4 c 0.271992,-0.008 0.264231,-0.41311 -0.006,-0.42087"
       style="fill:#a4b121;fill-opacity:1;fill-rule:nonzero;stroke:none;stroke-width:0.0352778"
       id="path2976" />
    <path
       d="m 89.276525,142.72515 c -0.263525,0 -0.257528,0.40887 0.0056,0.40887 0.263525,0 0.257528,-0.40887 -0.0056,-0.40887"
       style="fill:#a4b121;fill-opacity:1;fill-rule:nonzero;stroke:none;stroke-width:0.0352778"
       id="path2978" />
    <path
       d="m 88.300389,139.6514 -0.05433,-0.002 c -0.09842,-0.001 -0.191558,0.0917 -0.185561,0.19121 0.006,0.1016 0.08572,0.18697 0.191205,0.18556 l 0.05397,-0.001 c 0.09772,-0.006 0.190148,-0.0857 0.18415,-0.18944 -0.0063,-0.10725 -0.08467,-0.17816 -0.189441,-0.18415"
       style="fill:#a4b121;fill-opacity:1;fill-rule:nonzero;stroke:none;stroke-width:0.0352778"
       id="path2980" />
    <path
       d="m 73.070618,155.03357 c -0.113594,-0.14076 -0.180622,-0.31891 -0.30868,-0.45226 -0.05786,-0.0603 -0.125942,-0.0328 -0.129822,0.0448 -0.0081,0.15699 0.09384,0.31644 0.188736,0.44697 -0.239536,0.3369 -1.731787,0.65899 -2.062339,0.72143 -1.429103,0.26811 -2.876198,0.45932 -4.32929,0.52493 -0.960614,0.0434 -1.926166,0.0303 -2.887486,0.006 -1.134886,-0.0293 -2.251428,-0.14746 -3.446286,-0.25965 0.0028,0.0141 0.01623,0.0914 0.06456,0.13124 0.03986,0.0332 0.198261,0.061 0.198261,0.061 0.842081,0.17145 2.233437,0.29351 3.41242,0.32173 1.228019,0.0293 2.457097,0.0325 3.681942,-0.0677 1.281289,-0.10478 2.384425,-0.266 3.636786,-0.55916 0.505178,-0.11853 1.295753,-0.30127 1.829153,-0.74859 0.0822,0.10619 0.203553,0.23248 0.330553,0.14464 0.08537,-0.0593 -0.106892,-0.22648 -0.178506,-0.31503"
       style="fill:#333f48;fill-opacity:1;fill-rule:nonzero;stroke:none;stroke-width:0.0352778"
       id="path2982" />
    <path
       d="m 68.602687,154.26839 c 0.4191,-0.28151 0.697089,-0.8576 1.253067,-0.90311 0.554214,-0.0448 0.651228,0.50024 0.924984,0.8322 0.09066,0.10972 0.195439,0.0427 0.16898,-0.0766 -0.105128,-0.47343 -0.458611,-1.06539 -0.999067,-1.07562 -0.584905,-0.0116 -1.325739,0.59655 -1.415344,1.17122 -0.0056,0.0356 0.03069,0.0762 0.06738,0.0519"
       style="fill:#333f48;fill-opacity:1;fill-rule:nonzero;stroke:none;stroke-width:0.0352778"
       id="path2984" />
  </g>
</svg>
