<?xml version="1.0" encoding="UTF-8" standalone="no"?>
<svg
   xmlns:dc="http://purl.org/dc/elements/1.1/"
   xmlns:cc="http://creativecommons.org/ns#"
   xmlns:rdf="http://www.w3.org/1999/02/22-rdf-syntax-ns#"
   xmlns:svg="http://www.w3.org/2000/svg"
   xmlns="http://www.w3.org/2000/svg"
   xmlns:sodipodi="http://sodipodi.sourceforge.net/DTD/sodipodi-0.dtd"
   xmlns:inkscape="http://www.inkscape.org/namespaces/inkscape"
   width="210mm"
   height="297mm"
   viewBox="0 0 210 297"
   version="1.1"
   id="svg3405"
   inkscape:version="1.0.2 (e86c8708, 2021-01-15)"
   sodipodi:docname="fish2.svg">
  <defs
     id="defs3399" />
  <sodipodi:namedview
     id="base"
     pagecolor="#ffffff"
     bordercolor="#666666"
     borderopacity="1.0"
     inkscape:pageopacity="0.0"
     inkscape:pageshadow="2"
     inkscape:zoom="0.35"
     inkscape:cx="400"
     inkscape:cy="560"
     inkscape:document-units="mm"
     inkscape:current-layer="layer1"
     inkscape:document-rotation="0"
     showgrid="false"
     inkscape:window-width="1252"
     inkscape:window-height="1005"
     inkscape:window-x="0"
     inkscape:window-y="23"
     inkscape:window-maximized="0" />
  <metadata
     id="metadata3402">
    <rdf:RDF>
      <cc:Work
         rdf:about="">
        <dc:format>image/svg+xml</dc:format>
        <dc:type
           rdf:resource="http://purl.org/dc/dcmitype/StillImage" />
        <dc:title></dc:title>
      </cc:Work>
    </rdf:RDF>
  </metadata>
  <g
     inkscape:label="Layer 1"
     inkscape:groupmode="layer"
     id="layer1">
    <path
       d="m 124.64344,155.70913 c 0,-0.49919 0.0473,-2.69629 1.43087,-4.082 0.2092,-0.20955 1.71626,0.81351 3.44346,1.76178 1.80975,0.99342 4.0319,0.9592 4.0319,0.9592 l 0.0864,1.518 0.0109,0.002 -0.005,0.0952 0.005,0.0956 -0.0109,0.002 -0.0864,1.518 c 0,0 -2.22215,-0.0483 -4.0319,0.95921 -1.72014,0.95779 -2.6797,2.02177 -3.16124,1.60725 -1.36066,-1.17087 -1.71309,-3.62761 -1.71309,-4.43582"
       style="fill:#fbc53b;fill-opacity:1;fill-rule:nonzero;stroke:none;stroke-width:0.0352778"
       id="path1592" />
    <path
       d="m 150.52322,155.47382 c 0,-0.23036 -3.35209,-5.6836 -10.56604,-9.10837 -7.21396,-3.42476 -12.16872,-3.86186 -12.67884,-3.20604 -0.51012,0.65546 3.7719,6.49076 3.49744,12.97023 -0.36442,8.5986 -5.24616,12.60616 -5.24616,13.55337 0,0.9472 9.90988,0.14605 15.66651,-2.69593 5.75663,-2.84198 9.32709,-9.69151 9.32709,-11.51326"
       style="fill:#e13956;fill-opacity:1;fill-rule:nonzero;stroke:none;stroke-width:0.0352778"
       id="path1594" />
    <path
       d="m 129.86702,143.01583 c 0.41417,0.0508 0.8562,0.13299 1.34479,0.23883 1.0975,2.86596 2.67441,8.01264 2.40454,13.3738 -0.28187,5.60458 -1.97838,10.21892 -3.65125,13.27715 -0.49707,0.0543 -0.96732,0.0889 -1.40582,0.11747 1.71626,-2.89524 3.59798,-7.59213 3.8929,-13.45318 0.28116,-5.59399 -1.56916,-11.03242 -2.58516,-13.55407"
       style="fill:#fbc53b;fill-opacity:1;fill-rule:nonzero;stroke:none;stroke-width:0.0352778"
       id="path1596" />
    <path
       d="m 133.33942,143.79582 c 0.44908,0.13335 0.91828,0.27552 1.40723,0.44168 1.05551,2.97321 2.31951,7.65104 2.07609,12.48833 -0.26317,5.22676 -1.76494,9.6132 -3.31999,12.65273 -0.49212,0.096 -0.98284,0.17745 -1.45803,0.254 1.63019,-2.91677 3.33516,-7.43303 3.61351,-12.96564 0.25752,-5.11987 -1.27741,-10.12508 -2.31881,-12.8711"
       style="fill:#fbc53b;fill-opacity:1;fill-rule:nonzero;stroke:none;stroke-width:0.0352778"
       id="path1598" />
    <path
       d="m 136.96985,145.05912 c 0.46391,0.18626 0.94086,0.38205 1.42946,0.5969 0.93098,2.94252 1.83903,7.00017 1.62948,11.16718 -0.23566,4.67995 -1.47532,8.71855 -2.84268,11.67624 -0.49037,0.14569 -0.99343,0.27552 -1.49225,0.40111 1.47672,-2.90195 2.91782,-7.11412 3.17076,-12.13627 0.22402,-4.45417 -0.91016,-8.83496 -1.89477,-11.70516"
       style="fill:#fbc53b;fill-opacity:1;fill-rule:nonzero;stroke:none;stroke-width:0.0352778"
       id="path1600" />
    <path
       d="m 140.68178,146.72282 c 0.50059,0.25929 0.98002,0.51717 1.44039,0.79198 0.71649,2.69593 1.2827,6.02756 1.11266,9.40506 -0.19579,3.89396 -1.0742,7.38822 -2.14841,10.12049 -0.007,0.004 -0.97614,0.46214 -1.57657,0.68051 1.23261,-2.78413 2.34386,-6.5465 2.56082,-10.85956 0.18626,-3.69958 -0.5648,-7.36565 -1.38889,-10.13848"
       style="fill:#fbc53b;fill-opacity:1;fill-rule:nonzero;stroke:none;stroke-width:0.0352778"
       id="path1602" />
    <path
       d="m 144.31539,148.95308 c 0.52,0.3817 1.01177,0.75918 1.46332,1.14053 0.44944,2.21544 0.7165,4.74274 0.5895,7.26369 -0.11748,2.33786 -0.46849,4.64468 -0.97085,6.58601 -0.508,0.50483 -1.11231,1.01459 -1.68698,1.4665 0.7366,-2.28318 1.34373,-5.12868 1.49366,-8.11107 0.14781,-2.9397 -0.28646,-5.88539 -0.88865,-8.34566"
       style="fill:#fbc53b;fill-opacity:1;fill-rule:nonzero;stroke:none;stroke-width:0.0352778"
       id="path1604" />
    <path
       d="m 141.97895,154.83212 c 0.89323,-3.13725 6.20536,-3.41348 6.98535,0.27305 0.32279,1.52471 -0.47484,3.21698 -1.85632,3.93806 -2.18193,1.13947 -4.96676,-0.39688 -5.23205,-2.82999 -0.055,-0.508 -0.0141,-0.96943 0.10302,-1.38112"
       style="fill:#fbc53b;fill-opacity:1;fill-rule:nonzero;stroke:none;stroke-width:0.0352778"
       id="path1606" />
    <path
       d="m 142.47107,154.98628 c 0.76623,-2.69169 5.32412,-2.92876 5.99334,0.2346 0.27693,1.3081 -0.40746,2.75978 -1.59244,3.37891 -1.87219,0.97754 -4.26191,-0.34079 -4.48909,-2.42853 -0.0476,-0.43568 -0.0123,-0.83149 0.0882,-1.18498"
       style="fill:#ffffff;fill-opacity:1;fill-rule:nonzero;stroke:none;stroke-width:0.0352778"
       id="path1608" />
    <path
       d="m 144.93311,155.90104 c 0,0.84067 0.58561,1.52223 1.3081,1.52223 0.72249,0 1.30845,-0.68156 1.30845,-1.52223 0,-0.84067 -0.58596,-1.52224 -1.30845,-1.52224 -0.72249,0 -1.3081,0.68157 -1.3081,1.52224"
       style="fill:#333f48;fill-opacity:1;fill-rule:nonzero;stroke:none;stroke-width:0.0352778"
       id="path1610" />
    <path
       d="m 145.33739,155.35423 c 0,0.34149 0.23777,0.61842 0.53128,0.61842 0.29316,0 0.53129,-0.27693 0.53129,-0.61842 0,-0.34114 -0.23813,-0.61807 -0.53129,-0.61807 -0.29351,0 -0.53128,0.27693 -0.53128,0.61807"
       style="fill:#f4f6f5;fill-opacity:1;fill-rule:nonzero;stroke:none;stroke-width:0.0352778"
       id="path1612" />
  </g>
</svg>
