<?xml version="1.0" encoding="UTF-8" standalone="no"?>
<svg
   xmlns:dc="http://purl.org/dc/elements/1.1/"
   xmlns:cc="http://creativecommons.org/ns#"
   xmlns:rdf="http://www.w3.org/1999/02/22-rdf-syntax-ns#"
   xmlns:svg="http://www.w3.org/2000/svg"
   xmlns="http://www.w3.org/2000/svg"
   xmlns:sodipodi="http://sodipodi.sourceforge.net/DTD/sodipodi-0.dtd"
   xmlns:inkscape="http://www.inkscape.org/namespaces/inkscape"
   width="210mm"
   height="297mm"
   viewBox="0 0 210 297"
   version="1.1"
   id="svg5159"
   inkscape:version="1.0.2 (e86c8708, 2021-01-15)"
   sodipodi:docname="fish3.svg">
  <defs
     id="defs5153" />
  <sodipodi:namedview
     id="base"
     pagecolor="#ffffff"
     bordercolor="#666666"
     borderopacity="1.0"
     inkscape:pageopacity="0.0"
     inkscape:pageshadow="2"
     inkscape:zoom="0.35"
     inkscape:cx="400"
     inkscape:cy="560"
     inkscape:document-units="mm"
     inkscape:current-layer="layer1"
     inkscape:document-rotation="0"
     showgrid="false"
     inkscape:window-width="1252"
     inkscape:window-height="1005"
     inkscape:window-x="0"
     inkscape:window-y="23"
     inkscape:window-maximized="0" />
  <metadata
     id="metadata5156">
    <rdf:RDF>
      <cc:Work
         rdf:about="">
        <dc:format>image/svg+xml</dc:format>
        <dc:type
           rdf:resource="http://purl.org/dc/dcmitype/StillImage" />
        <dc:title></dc:title>
      </cc:Work>
    </rdf:RDF>
  </metadata>
  <g
     inkscape:label="Layer 1"
     inkscape:groupmode="layer"
     id="layer1">
    <path
       d="m 67.427337,100.11974 c -0.154869,-0.490709 -0.377119,-1.021993 -0.807155,-1.334907 -0.432506,-0.314325 -0.995187,-0.361244 -1.511653,-0.394405 -1.543403,-0.09772 -3.153834,-0.0092 -4.697237,0.0769 -1.566333,0.08714 -3.251905,0.224367 -4.753328,0.70485 -0.09031,0.02893 -0.05115,0.151342 0.03881,0.138995 0.326319,-0.04657 0.651228,-0.09772 0.97543,-0.149931 -0.131938,0.03281 -0.205669,0.05256 -0.205669,0.05256 0,0 1.476022,-0.07091 2.81552,0.204964 1.339497,0.275872 2.934758,1.280584 3.919361,1.733554 0.984956,0.45296 3.900311,2.97426 3.900311,2.97426 l 0.0099,-0.0261 c 0.05856,0.0303 0.14852,0.0191 0.182033,-0.061 0.522464,-1.26224 0.543984,-2.61938 0.133703,-3.91972"
       style="fill:#725b94;fill-opacity:1;fill-rule:nonzero;stroke:none;stroke-width:0.0352778"
       id="path1960" />
    <path
       d="m 68.082093,112.64336 c -0.04904,-0.12418 -0.234597,-0.0893 -0.235656,0.0194 -0.395464,0.37465 -2.281061,2.15724 -2.764719,2.53929 -0.540809,0.42722 -2.274006,1.6129 -3.436056,1.90465 -1.162403,0.2921 -2.449336,0.38277 -2.449336,0.38277 l 0.0025,0.002 c -0.333375,-0.0194 -0.666397,-0.0356 -1.000125,-0.042 -0.03634,-7e-4 -0.04163,0.0515 -0.0085,0.0617 1.248834,0.38982 2.750256,0.35313 4.043892,0.3309 1.168753,-0.0201 2.367845,-0.16792 3.513314,-0.40887 0.601134,-0.12664 1.287992,-0.30197 1.837973,-0.64734 0.265289,-0.16405 0.548569,-0.46602 0.583847,-0.508 0.759531,-0.89606 0.313267,-2.62679 -0.08714,-3.63467"
       style="fill:#725b94;fill-opacity:1;fill-rule:nonzero;stroke:none;stroke-width:0.0352778"
       id="path1962" />
    <path
       d="m 78.163071,103.31556 c -0.05327,-0.0593 -0.1143,-0.002 -0.145697,0.0459 -0.112889,0.17604 -0.243417,0.3429 -0.385939,0.50236 -0.250825,0.25047 -0.579261,0.55456 -0.936978,0.82408 -0.53728,0.38347 -1.132416,0.6978 -1.692275,0.94898 -1.119011,0.50235 -2.357614,0.61771 -3.569758,0.48013 -0.889706,-0.10054 -1.689101,-0.40852 -2.435931,-0.82938 -0.600781,-0.41805 -1.387122,-0.98743 -1.980847,-1.41782 -0.09102,-0.066 -0.176389,-0.1277 -0.256117,-0.18556 -0.612422,-0.50235 -1.214261,-1.01635 -1.833034,-1.47355 -1.885244,-1.39277 -4.188883,-2.73156 -6.538736,-3.109738 -2.113492,-0.34043 -4.56812,0.37712 -6.358467,1.482018 -2.085975,1.28764 -3.955698,3.28472 -4.260498,5.82824 -0.0088,0.0766 0.09455,0.0699 0.09455,0.0699 0,0 0.126647,0.68792 0.294922,1.6256 0.294217,1.4852 0.835378,2.8889 1.605139,4.14373 0.161219,0.28787 0.362303,0.58209 0.59055,0.87524 1.055864,1.41923 2.43452,2.59856 4.102453,3.42054 2.32022,1.1437 5.291314,1.45485 7.727951,0.50764 2.48285,-0.96449 4.607983,-2.94745 6.442781,-4.80836 1.434041,-1.4545 2.836333,-2.85679 4.2545,-4.33881 0.210255,0.13088 0.436739,0.28892 0.644878,0.42933 0.4318,0.29139 0.86748,0.58773 1.261886,0.92957 0.796219,0.68968 1.649236,1.5882 2.075392,2.56152 0.02117,0.049 0.0695,0.11747 0.112888,0.0833 0,0 2.182284,-1.63618 2.252487,-4.44253 0.0642,-2.55552 -0.896409,-3.9631 -1.066095,-4.15219"
       style="fill:#f36220;fill-opacity:1;fill-rule:nonzero;stroke:none;stroke-width:0.0352778"
       id="path1964" />
    <path
       d="m 61.470684,108.0322 c 0,0.85407 -0.73025,1.54658 -1.631597,1.54658 -0.901348,0 -1.63195,-0.69251 -1.63195,-1.54658 0,-0.85443 0.730602,-1.54729 1.63195,-1.54729 0.901347,0 1.631597,0.69286 1.631597,1.54729"
       style="fill:#ffffff;fill-opacity:1;fill-rule:nonzero;stroke:none;stroke-width:0.0352778"
       id="path1966" />
    <path
       d="m 49.140747,107.58099 c 0.832556,0.44839 1.595614,0.75213 2.398536,1.01742 1.919112,0.63394 3.641373,0.71402 5.672667,0.16227 0.147814,-0.0402 0.118534,-0.18062 -0.02963,-0.14005 -1.818922,0.49777 -3.523545,0.37677 -5.323417,-0.14958 -0.813858,-0.23777 -3.141133,-1.06927 -4.040364,-2.39395 -0.01235,0.0575 -0.07408,0.33056 -0.04127,0.37359 0.212725,0.28082 0.879828,0.86995 1.363486,1.1303"
       style="fill:#333f48;fill-opacity:1;fill-rule:nonzero;stroke:none;stroke-width:0.0352778"
       id="path1968" />
    <path
       d="m 59.985137,108.0322 c 0,0.53551 -0.343959,0.96978 -0.768703,0.96978 -0.424392,0 -0.76835,-0.43427 -0.76835,-0.96978 0,-0.53622 0.343958,-0.97014 0.76835,-0.97014 0.424744,0 0.768703,0.43392 0.768703,0.97014"
       style="fill:#333f48;fill-opacity:1;fill-rule:nonzero;stroke:none;stroke-width:0.0352778"
       id="path1970" />
    <path
       d="m 59.216434,107.67554 c 0,0.19685 -0.132997,0.35666 -0.296686,0.35666 -0.164042,0 -0.297039,-0.15981 -0.297039,-0.35666 0,-0.19685 0.132997,-0.35631 0.297039,-0.35631 0.163689,0 0.296686,0.15946 0.296686,0.35631"
       style="fill:#ffffff;fill-opacity:1;fill-rule:nonzero;stroke:none;stroke-width:0.0352778"
       id="path1972" />
    <path
       d="m 57.706192,116.04801 c -0.180622,0 -0.350661,0.16546 -0.339725,0.34961 0.01129,0.18873 0.156633,0.33972 0.349603,0.33972 0.180269,0 0.350661,-0.16545 0.339372,-0.3496 -0.01094,-0.18874 -0.155928,-0.33973 -0.34925,-0.33973"
       style="fill:#fbc53b;fill-opacity:1;fill-rule:nonzero;stroke:none;stroke-width:0.0352778"
       id="path1974" />
    <path
       d="m 59.435862,114.7318 c -0.127,0 -0.246945,0.11642 -0.239184,0.24624 0.0078,0.13335 0.110067,0.23954 0.246239,0.23954 0.127,0 0.247298,-0.11642 0.239536,-0.24624 -0.0081,-0.13335 -0.110419,-0.23954 -0.246591,-0.23954"
       style="fill:#fbc53b;fill-opacity:1;fill-rule:nonzero;stroke:none;stroke-width:0.0352778"
       id="path1976" />
    <path
       d="m 62.571704,114.93147 c -0.06385,-0.0624 -0.179564,-0.049 -0.222956,0.0321 l -0.006,0.012 c -0.06667,0.12524 0.07055,0.25047 0.191911,0.18627 l 0.01164,-0.007 c 0.08149,-0.0434 0.08855,-0.16263 0.0254,-0.22366"
       style="fill:#fbc53b;fill-opacity:1;fill-rule:nonzero;stroke:none;stroke-width:0.0352778"
       id="path1978" />
    <path
       d="m 54.295889,114.70922 c -0.09596,0 -0.186619,0.0878 -0.180975,0.18592 0.0063,0.10054 0.08361,0.18062 0.186267,0.18062 0.09596,0 0.186619,-0.0878 0.180975,-0.18591 -0.006,-0.10055 -0.08326,-0.18063 -0.186267,-0.18063"
       style="fill:#fbc53b;fill-opacity:1;fill-rule:nonzero;stroke:none;stroke-width:0.0352778"
       id="path1980" />
    <path
       d="m 55.369039,115.94218 c -0.136172,0 -0.13335,0.21167 0.0032,0.21167 0.136525,0 0.13335,-0.21167 -0.0032,-0.21167"
       style="fill:#fbc53b;fill-opacity:1;fill-rule:nonzero;stroke:none;stroke-width:0.0352778"
       id="path1982" />
    <path
       d="m 56.404442,114.39701 c -0.162983,0 -0.3175,0.14958 -0.307269,0.31645 0.01023,0.17074 0.141464,0.30727 0.316441,0.30727 0.162984,0 0.3175,-0.14958 0.30727,-0.31645 -0.01023,-0.17074 -0.141464,-0.30727 -0.316442,-0.30727"
       style="fill:#fbc53b;fill-opacity:1;fill-rule:nonzero;stroke:none;stroke-width:0.0352778"
       id="path1984" />
    <path
       d="m 57.029212,99.466753 c -0.163337,0 -0.317148,0.14993 -0.307623,0.316441 0.01023,0.171098 0.141817,0.307266 0.316795,0.307266 0.162983,0 0.317147,-0.149574 0.307269,-0.316438 -0.01023,-0.170744 -0.141816,-0.307269 -0.316441,-0.307269"
       style="fill:#fbc53b;fill-opacity:1;fill-rule:nonzero;stroke:none;stroke-width:0.0352778"
       id="path1986" />
    <path
       d="m 58.84637,113.22509 c -0.204258,0 -0.200025,0.3175 0.0046,0.3175 0.204258,0 0.200025,-0.3175 -0.0046,-0.3175"
       style="fill:#fbc53b;fill-opacity:1;fill-rule:nonzero;stroke:none;stroke-width:0.0352778"
       id="path1988" />
    <path
       d="m 60.933403,116.16302 c -0.29598,0 -0.28963,0.45932 0.0064,0.45932 0.295981,0 0.289278,-0.45932 -0.0064,-0.45932"
       style="fill:#fbc53b;fill-opacity:1;fill-rule:nonzero;stroke:none;stroke-width:0.0352778"
       id="path1990" />
    <path
       d="m 62.707876,112.48214 c -0.121356,0 -0.118886,0.18838 0.0028,0.18838 0.121003,0 0.118533,-0.18838 -0.0028,-0.18838"
       style="fill:#fbc53b;fill-opacity:1;fill-rule:nonzero;stroke:none;stroke-width:0.0352778"
       id="path1992" />
    <path
       d="m 65.048909,112.55975 c -0.376766,0 -0.3683,0.5849 0.0085,0.5849 0.376414,0 0.3683,-0.5849 -0.0085,-0.5849"
       style="fill:#fbc53b;fill-opacity:1;fill-rule:nonzero;stroke:none;stroke-width:0.0352778"
       id="path1994" />
    <path
       d="m 59.852845,100.35963 c -0.376414,0 -0.3683,0.58491 0.0088,0.58491 0.376413,0 0.367947,-0.58491 -0.0088,-0.58491"
       style="fill:#fbc53b;fill-opacity:1;fill-rule:nonzero;stroke:none;stroke-width:0.0352778"
       id="path1996" />
    <path
       d="m 64.459418,114.20651 c -0.105481,0 -0.204964,0.097 -0.198967,0.20462 0.0067,0.11042 0.09172,0.19861 0.204611,0.19861 0.105481,0 0.204964,-0.0967 0.198967,-0.20426 -0.0067,-0.11077 -0.09172,-0.19897 -0.204611,-0.19897"
       style="fill:#fbc53b;fill-opacity:1;fill-rule:nonzero;stroke:none;stroke-width:0.0352778"
       id="path1998" />
    <path
       d="m 61.155654,113.61949 c -0.227542,0 -0.222251,0.35384 0.0053,0.35384 0.227895,0 0.222603,-0.35384 -0.0053,-0.35384"
       style="fill:#fbc53b;fill-opacity:1;fill-rule:nonzero;stroke:none;stroke-width:0.0352778"
       id="path2000" />
    <path
       d="m 64.00504,111.21037 c -0.38982,0 -0.381,0.60466 0.0085,0.60466 0.38982,0 0.381,-0.60466 -0.0085,-0.60466"
       style="fill:#fbc53b;fill-opacity:1;fill-rule:nonzero;stroke:none;stroke-width:0.0352778"
       id="path2002" />
    <path
       d="m 67.355018,111.13065 c -0.238478,0 -0.232834,0.37041 0.0053,0.37041 0.238478,0 0.233187,-0.37041 -0.0053,-0.37041"
       style="fill:#fbc53b;fill-opacity:1;fill-rule:nonzero;stroke:none;stroke-width:0.0352778"
       id="path2004" />
    <path
       d="m 66.330904,112.24542 c -0.223309,0 -0.218722,0.34714 0.0049,0.34714 0.223661,0 0.218722,-0.34714 -0.0049,-0.34714"
       style="fill:#fbc53b;fill-opacity:1;fill-rule:nonzero;stroke:none;stroke-width:0.0352778"
       id="path2006" />
    <path
       d="m 55.470286,99.91725 c -0.223661,0 -0.218369,0.34678 0.0053,0.34678 0.223308,0 0.21837,-0.34678 -0.0053,-0.34678"
       style="fill:#fbc53b;fill-opacity:1;fill-rule:nonzero;stroke:none;stroke-width:0.0352778"
       id="path2008" />
    <path
       d="m 51.656406,112.71426 c -0.251178,0 -0.245886,0.39018 0.0056,0.39018 0.251178,0 0.245886,-0.39018 -0.0056,-0.39018"
       style="fill:#fbc53b;fill-opacity:1;fill-rule:nonzero;stroke:none;stroke-width:0.0352778"
       id="path2010" />
    <path
       d="m 53.812584,112.8522 c -0.153459,0 -0.150637,0.23848 0.0035,0.23848 0.153459,0 0.150284,-0.23848 -0.0035,-0.23848"
       style="fill:#fbc53b;fill-opacity:1;fill-rule:nonzero;stroke:none;stroke-width:0.0352778"
       id="path2012" />
    <path
       d="m 51.087375,111.29786 c -0.276578,0 -0.270228,0.42969 0.0063,0.42969 0.276578,0 0.270933,-0.42969 -0.0063,-0.42969"
       style="fill:#fbc53b;fill-opacity:1;fill-rule:nonzero;stroke:none;stroke-width:0.0352778"
       id="path2014" />
    <path
       d="m 52.786706,113.61949 c -0.398992,0 -0.390172,0.61948 0.0088,0.61948 0.398992,0 0.390172,-0.61948 -0.0088,-0.61948"
       style="fill:#fbc53b;fill-opacity:1;fill-rule:nonzero;stroke:none;stroke-width:0.0352778"
       id="path2016" />
    <path
       d="m 78.761735,107.92213 c 0.170039,-1.85914 -0.53093,-3.85551 -0.799042,-4.4831 -0.05292,0.0776 -0.108302,0.15381 -0.167216,0.22754 0.272344,0.68616 0.891116,2.48109 0.730955,4.23404 -0.148166,1.6196 -1.223433,2.90548 -1.859491,3.53448 0.04022,0.072 0.07937,0.14464 0.115358,0.21767 0.650522,-0.63183 1.820686,-1.99249 1.979436,-3.73063"
       style="fill:#fbc53b;fill-opacity:1;fill-rule:nonzero;stroke:none;stroke-width:0.0352778"
       id="path2018" />
    <path
       d="m 77.126963,104.33544 c -0.06456,0.0561 -0.130175,0.11183 -0.197909,0.16722 0.269876,0.87594 0.552098,2.14806 0.437798,3.39795 -0.103011,1.12889 -0.657225,2.09585 -1.198739,2.79118 0.05009,0.0646 0.09878,0.12947 0.146403,0.19544 0.575027,-0.72602 1.176866,-1.75366 1.287639,-2.9651 0.119238,-1.30034 -0.188384,-2.66735 -0.475192,-3.58669"
       style="fill:#fbc53b;fill-opacity:1;fill-rule:nonzero;stroke:none;stroke-width:0.0352778"
       id="path2020" />
    <path
       d="m 76.162821,105.03253 c -0.07055,0.0423 -0.141111,0.084 -0.212019,0.12418 0.19685,0.79904 0.344664,1.778 0.256469,2.7439 -0.0702,0.76906 -0.349955,1.46262 -0.69215,2.04682 0.05715,0.0582 0.113595,0.11747 0.169333,0.17745 0.372887,-0.6216 0.682273,-1.36878 0.75812,-2.20275 0.09172,-1.00189 -0.0695,-2.04364 -0.279753,-2.8896"
       style="fill:#fbc53b;fill-opacity:1;fill-rule:nonzero;stroke:none;stroke-width:0.0352778"
       id="path2022" />
    <path
       d="m 75.125302,105.57898 c -0.04092,0.0187 -0.08255,0.0399 -0.12312,0.0579 -0.03175,0.0145 -0.06385,0.0272 -0.09596,0.0409 0.13335,0.68545 0.211666,1.45838 0.141816,2.22285 -0.04304,0.46673 -0.162983,0.90594 -0.326672,1.30951 l 0.06703,0.0554 c 0.04022,0.0346 0.08079,0.0705 0.121003,0.10654 0.187677,-0.44344 0.326319,-0.92957 0.373944,-1.44992 0.07267,-0.79516 -0.01411,-1.61537 -0.158044,-2.34315"
       style="fill:#fbc53b;fill-opacity:1;fill-rule:nonzero;stroke:none;stroke-width:0.0352778"
       id="path2024" />
    <path
       d="m 74.035571,105.97021 c -0.07585,0.0191 -0.151694,0.0367 -0.228247,0.0529 0.09419,0.59443 0.1397,1.2386 0.08114,1.87748 -0.01905,0.2099 -0.05433,0.41381 -0.101953,0.61172 0.0695,0.0476 0.138642,0.0963 0.207433,0.14464 0.06174,-0.23636 0.106892,-0.48154 0.129822,-0.73484 0.05997,-0.65546 0.01129,-1.32821 -0.08819,-1.95192"
       style="fill:#fbc53b;fill-opacity:1;fill-rule:nonzero;stroke:none;stroke-width:0.0352778"
       id="path2026" />
    <path
       d="m 72.903507,106.15013 c -0.07796,0.006 -0.156281,0.0102 -0.234597,0.0134 0.07973,0.55492 0.113947,1.1483 0.06033,1.73708 -0.0056,0.0628 -0.01341,0.12524 -0.02152,0.18697 0.05786,-0.0603 0.116064,-0.12029 0.17392,-0.18097 l 0.07867,0.0504 0.0042,-0.0349 c 0.05397,-0.59302 0.01975,-1.1998 -0.06103,-1.772"
       style="fill:#fbc53b;fill-opacity:1;fill-rule:nonzero;stroke:none;stroke-width:0.0352778"
       id="path2028" />
  </g>
</svg>
