<?xml version="1.0" encoding="UTF-8" standalone="no"?>
<svg
   xmlns="http://www.w3.org/2000/svg"
   width="210mm"
   height="297mm"
   viewBox="0 0 210 297"
   version="1.1"
   id="svg5472"
   >
  <defs
     id="defs5466" />
  <sodipodi:namedview
     id="base"
     pagecolor="#ffffff"
     bordercolor="#666666"
     borderopacity="1.0"
     showgrid="false"/>
  <metadata
     id="metadata5469">
    <rdf:RDF>
      <cc:Work
      >
        <dc:format>image/svg+xml</dc:format>
        <dc:type
       />
        <dc:title></dc:title>
      </cc:Work>
    </rdf:RDF>
  </metadata>
  <g
     id="layer1">
    <path
       d="m 142.97067,137.95137 c 7e-4,-1.1042 -0.16052,-2.20698 -0.48155,-3.25826 -0.15451,-0.50553 -0.34184,-1.08796 -0.68474,-1.48625 -0.35172,-0.40781 -0.62794,1.72297 -2.21968,2.94181 -0.51928,0.39723 -2.36043,1.11372 -2.4645,1.1557 -0.0314,0.44203 -0.0314,0.85267 0,1.29399 0.10407,0.042 1.94522,0.75812 2.4645,1.1557 1.59174,1.21885 1.86796,3.34928 2.21968,2.94182 0.29387,-0.34079 0.46496,-0.82162 0.6096,-1.25166 0.23495,-0.69956 0.39053,-1.43439 0.47837,-2.17205 0.0522,-0.43815 0.078,-0.87948 0.0783,-1.3208"
       style="fill:#27418e;fill-opacity:1;fill-rule:nonzero;stroke:none;stroke-width:0.0352778"
       id="path556" />
    <path
       d="m 142.26123,124.57827 c -0.23248,-0.0229 -7.79745,-1.20862 -11.69635,1.05269 -3.8989,2.2613 -5.80566,8.31603 -7.35577,10.25384 -1.66335,2.07962 -2.70298,3.0801 -2.70298,3.6262 0,0.54575 1.48131,5.45818 4.7565,7.79745 3.27484,2.33962 10.05911,2.88537 13.56783,3.35315 3.50909,0.46778 5.61446,0.15593 5.61446,0.15593 0,0 -3.53518,-2.41724 -4.86057,-4.91243 -1.32574,-2.49555 -2.84374,-7.96043 -1.61149,-11.48856 1.14336,-3.27519 1.55928,-4.65279 7.33002,-5.8226 5.77003,-1.16946 9.27911,-1.44251 9.35708,-2.14419 0.078,-0.70167 -7.64188,-1.4037 -12.39873,-1.87148"
       style="fill:#f78f11;fill-opacity:1;fill-rule:nonzero;stroke:none;stroke-width:0.0352778"
       id="path558" />
    <path
       d="m 129.26525,126.59263 c 0.0335,4.41149 1.37125,16.47754 2.54705,23.07484 0.99448,0.19474 1.73532,0.38982 3.0219,0.46779 -1.7332,-7.33672 -3.44523,-19.94112 -4.00932,-24.66023 -0.52,0.32491 -1.02976,0.53093 -1.55963,1.1176"
       style="fill:#27418e;fill-opacity:1;fill-rule:nonzero;stroke:none;stroke-width:0.0352778"
       id="path560" />
    <path
       d="m 133.48235,124.60473 c 0.0723,5.72241 0.64347,18.68452 3.38138,25.81204 0.72319,0.0889 1.38994,0.16792 1.96673,0.24483 3.50909,0.46778 5.61446,0.15593 5.61446,0.15593 0,0 -3.53518,-2.41724 -4.86057,-4.91243 -0.66851,-1.25871 -1.385,-3.27272 -1.77412,-5.41267 -1.63795,-4.5459 -2.51989,-11.84381 -2.91077,-16.10501 -0.47766,0.0533 -0.9532,0.12488 -1.41711,0.21731"
       style="fill:#27418e;fill-opacity:1;fill-rule:nonzero;stroke:none;stroke-width:0.0352778"
       id="path562" />
    <path
       d="m 128.83733,133.61361 c -1.42381,-1.27776 -4.28625,-0.44203 -4.21076,1.87572 0.0702,2.16041 2.83246,3.17641 4.30354,1.61184 0.55033,-0.58561 0.7881,-1.44921 0.61454,-2.23378 -0.11959,-0.5394 -0.3743,-0.95462 -0.70732,-1.25378"
       style="fill:#ffffff;fill-opacity:1;fill-rule:nonzero;stroke:none;stroke-width:0.0352778"
       id="path564" />
    <path
       d="m 127.98466,133.58645 c -0.37077,0 -0.76976,0.18097 -1.02552,0.44591 -0.24941,0.25788 -0.43251,0.67698 -0.41028,1.04069 0.0504,0.80257 0.66745,1.43546 1.48696,1.43546 0.37077,0 0.76976,-0.18098 1.02552,-0.44627 0.24942,-0.25752 0.43251,-0.67698 0.41028,-1.04034 -0.0504,-0.80257 -0.66745,-1.43545 -1.48696,-1.43545"
       style="fill:#333f48;fill-opacity:1;fill-rule:nonzero;stroke:none;stroke-width:0.0352778"
       id="path566" />
    <path
       d="m 127.26535,133.96039 c -0.26811,0 -0.52035,0.30375 -0.50306,0.63783 0.0176,0.34431 0.23389,0.61595 0.5207,0.61595 0.26811,0 0.52035,-0.30375 0.50341,-0.63818 -0.0176,-0.34396 -0.23389,-0.6156 -0.52105,-0.6156"
       style="fill:#ffffff;fill-opacity:1;fill-rule:nonzero;stroke:none;stroke-width:0.0352778"
       id="path568" />
    <path
       d="m 124.28932,140.11566 c 0.69003,-0.005 1.37936,-0.0832 2.05669,-0.21131 0.68086,-0.11924 1.33773,-0.34608 1.97767,-0.60008 0.0769,-0.0307 0.11713,-0.11712 0.0896,-0.19579 -0.0282,-0.0815 -0.11712,-0.12418 -0.19861,-0.096 l -0.009,0.003 c -0.62865,0.21872 -1.26718,0.41063 -1.92758,0.49812 -0.65723,0.0956 -1.32257,0.14429 -1.9879,0.121 -0.66464,-0.0169 -1.32786,-0.0811 -1.98297,-0.19261 -0.55351,-0.0956 -1.11231,-0.22472 -1.64042,-0.38665 -0.10407,0.17992 -0.16086,0.33056 -0.16086,0.45544 0,0.0363 0.007,0.0931 0.0198,0.16616 0.56692,0.1464 1.12642,0.24871 1.69792,0.3242 0.6851,0.0875 1.37584,0.12559 2.06552,0.1143"
       style="fill:#27418e;fill-opacity:1;fill-rule:nonzero;stroke:none;stroke-width:0.0352778"
       id="path570" />
  </g>
</svg>
