<?xml version="1.0" encoding="UTF-8" standalone="no"?>
<svg
   xmlns:dc="http://purl.org/dc/elements/1.1/"
   xmlns:cc="http://creativecommons.org/ns#"
   xmlns:rdf="http://www.w3.org/1999/02/22-rdf-syntax-ns#"
   xmlns:svg="http://www.w3.org/2000/svg"
   xmlns="http://www.w3.org/2000/svg"
   xmlns:sodipodi="http://sodipodi.sourceforge.net/DTD/sodipodi-0.dtd"
   xmlns:inkscape="http://www.inkscape.org/namespaces/inkscape"
   width="210mm"
   height="297mm"
   viewBox="0 0 210 297"
   version="1.1"
   id="svg3876"
   inkscape:version="1.0.2 (e86c8708, 2021-01-15)"
   sodipodi:docname="fish_cluster.svg">
  <defs
     id="defs3870" />
  <sodipodi:namedview
     id="base"
     pagecolor="#ffffff"
     bordercolor="#666666"
     borderopacity="1.0"
     inkscape:pageopacity="0.0"
     inkscape:pageshadow="2"
     inkscape:zoom="1.7103444"
     inkscape:cx="384.71867"
     inkscape:cy="379.64262"
     inkscape:document-units="mm"
     inkscape:current-layer="layer1"
     inkscape:document-rotation="0"
     showgrid="false"
     inkscape:window-width="1252"
     inkscape:window-height="1174"
     inkscape:window-x="759"
     inkscape:window-y="58"
     inkscape:window-maximized="0" />
  <metadata
     id="metadata3873">
    <rdf:RDF>
      <cc:Work
         rdf:about="">
        <dc:format>image/svg+xml</dc:format>
        <dc:type
           rdf:resource="http://purl.org/dc/dcmitype/StillImage" />
        <dc:title />
      </cc:Work>
    </rdf:RDF>
  </metadata>
  <g
     inkscape:label="Layer 1"
     inkscape:groupmode="layer"
     id="layer1">
    <path
       d="m 86.208214,126.45536 0.02293,-0.0406 -0.04516,0.002 c -0.183797,-0.32209 -0.908755,-1.55399 -1.506008,-2.0313 -0.688975,-0.55174 -2.016125,-0.3489 -2.2225,-0.3362 0,0 0.03845,0.98214 0.982133,1.72297 0.565856,0.44485 1.597378,0.61701 2.235553,0.68333 -0.638175,0.0663 -1.669697,0.23848 -2.235553,0.68333 -0.943681,0.74083 -0.982133,1.72297 -0.982133,1.72297 0.206375,0.013 1.533525,0.21555 2.2225,-0.33585 0.597253,-0.47766 1.322211,-1.70956 1.506008,-2.03164 l 0.04516,0.002 -0.02293,-0.0406"
       style="fill:#f78f11;fill-opacity:1;fill-rule:nonzero;stroke:none;stroke-width:0.0352778"
       id="path710" />
    <path
       d="m 85.66917,126.43843 c -0.3429,-0.36195 4.246033,-2.61409 4.61645,-2.77037 1.737431,-0.73236 3.576814,-1.44497 5.466292,-1.53246 1.534936,-0.0709 2.788708,0.51152 3.887964,1.54587 0.742594,0.69885 1.459444,1.84009 1.605844,2.86385 0.0857,0.59972 -0.74224,1.3462 -1.12465,1.68522 -0.957797,0.84843 -2.114202,1.30422 -3.352805,1.5628 -2.63772,0.55104 -4.876448,-0.14322 -7.807326,-1.38782 -1.22308,-0.51929 -2.376664,-1.00154 -3.291769,-1.96709"
       style="fill:#f78f11;fill-opacity:1;fill-rule:nonzero;stroke:none;stroke-width:0.0352778"
       id="path712" />
    <path
       d="m 98.317665,123.76861 c -1.172634,-1.08268 -3.405011,-0.43427 -3.534481,1.34584 -0.08678,1.1938 0.945092,2.24649 2.123722,2.24649 1.497189,-3.5e-4 2.511073,-1.69651 1.838678,-3.02154 -0.114652,-0.22648 -0.260702,-0.41628 -0.427919,-0.57079"
       style="fill:#ffffff;fill-opacity:1;fill-rule:nonzero;stroke:none;stroke-width:0.0352778"
       id="path714" />
    <path
       d="m 96.087404,123.94923 c -0.343253,0 -0.600075,0.12876 -0.776817,0.32138 0.356658,0.0353 0.619831,0.32173 0.642408,0.68333 0.02328,0.3743 -0.322439,0.71473 -0.690033,0.71473 l -0.08572,-0.008 c 0.173214,0.30939 0.489655,0.53658 0.949678,0.53658 1.447447,0 1.407936,-2.2479 -0.03951,-2.2479"
       style="fill:#333f48;fill-opacity:1;fill-rule:nonzero;stroke:none;stroke-width:0.0352778"
       id="path716" />
    <path
       d="m 92.71767,148.27043 0.01799,-0.0321 -0.03563,0.001 c -0.14605,-0.25576 -0.722136,-1.23472 -1.196622,-1.61396 -0.547511,-0.43815 -1.601964,-0.27728 -1.766359,-0.26705 0,0 0.03105,0.78034 0.780698,1.36913 0.449791,0.35348 1.269294,0.49036 1.776236,0.54292 -0.506942,0.0529 -1.326445,0.18945 -1.776236,0.54258 -0.749653,0.58878 -0.780698,1.36948 -0.780698,1.36948 0.164395,0.0106 1.218848,0.17145 1.766359,-0.26705 0.474486,-0.37924 1.050572,-1.3582 1.196622,-1.61396 l 0.03563,0.001 -0.01799,-0.0325"
       style="fill:#f78f11;fill-opacity:1;fill-rule:nonzero;stroke:none;stroke-width:0.0352778"
       id="path718" />
    <path
       d="m 92.289045,148.25668 c -0.271992,-0.28716 3.37432,-2.07681 3.668889,-2.20098 1.38042,-0.58174 2.841978,-1.1483 4.343396,-1.21779 1.21956,-0.0564 2.21615,0.4064 3.08928,1.22837 0.58984,0.55562 1.15993,1.46226 1.276,2.27577 0.0681,0.4766 -0.58949,1.06962 -0.89359,1.33879 -0.76094,0.67451 -1.67993,1.03681 -2.66418,1.24213 -2.09585,0.4378 -3.874909,-0.11395 -6.203595,-1.10278 -0.971903,-0.41275 -1.888772,-0.79587 -2.6162,-1.56351"
       style="fill:#f78f11;fill-opacity:1;fill-rule:nonzero;stroke:none;stroke-width:0.0352778"
       id="path720" />
    <path
       d="m 102.34004,146.13578 c -0.93204,-0.86078 -2.705808,-0.34537 -2.808819,1.06927 -0.06879,0.94862 0.751059,1.7847 1.688039,1.7847 1.18957,0 1.99496,-1.34761 1.46086,-2.4003 -0.0914,-0.18027 -0.20709,-0.33126 -0.34008,-0.45367"
       style="fill:#ffffff;fill-opacity:1;fill-rule:nonzero;stroke:none;stroke-width:0.0352778"
       id="path722" />
    <path
       d="m 101.63836,145.95798 c -0.27269,0 -0.4766,0.1023 -0.61736,0.25541 0.28363,0.0279 0.49283,0.25576 0.51047,0.54257 0.0187,0.29774 -0.25612,0.56832 -0.54822,0.56832 l -0.0681,-0.007 c 0.13758,0.24589 0.38911,0.42651 0.75424,0.42651 1.15041,0 1.11901,-1.78611 -0.031,-1.78611"
       style="fill:#333f48;fill-opacity:1;fill-rule:nonzero;stroke:none;stroke-width:0.0352778"
       id="path724" />
    <path
       d="m 69.011355,151.64546 0.01446,-0.0254 -0.02858,7.1e-4 c -0.116417,-0.20426 -0.576087,-0.98496 -0.954264,-1.28729 -0.437092,-0.34925 -1.277762,-0.22119 -1.408995,-0.21273 0,0 0.0247,0.6223 0.622653,1.09185 0.358775,0.28187 1.012119,0.39123 1.416756,0.43286 -0.404637,0.042 -1.057981,0.15099 -1.416756,0.43286 -0.597958,0.46955 -0.622653,1.0922 -0.622653,1.0922 0.131233,0.008 0.971903,0.13652 1.408995,-0.21308 0.378177,-0.30268 0.837847,-1.08338 0.954264,-1.28729 l 0.02858,0.001 -0.01446,-0.0257"
       style="fill:#859e26;fill-opacity:1;fill-rule:nonzero;stroke:none;stroke-width:0.0352778"
       id="path726" />
    <path
       d="m 68.669513,151.63452 c -0.217311,-0.2293 2.690989,-1.65664 2.925939,-1.75542 1.10102,-0.4639 2.266597,-0.91581 3.464278,-0.9712 0.972961,-0.0452 1.76777,0.32421 2.464153,0.97932 0.470606,0.44308 0.924983,1.16663 1.017764,1.81539 0.05433,0.37994 -0.470606,0.85302 -0.712964,1.06786 -0.606778,0.53798 -1.33985,0.82656 -2.124781,0.9906 -1.671814,0.34925 -3.090686,-0.091 -4.948061,-0.87948 -0.775053,-0.32949 -1.506361,-0.63464 -2.086328,-1.24707"
       style="fill:#859e26;fill-opacity:1;fill-rule:nonzero;stroke:none;stroke-width:0.0352778"
       id="path728" />
    <path
       d="m 76.685683,149.94295 c -0.74295,-0.6865 -2.157942,-0.27552 -2.239786,0.85302 -0.05503,0.75636 0.599016,1.42346 1.345847,1.42346 0.948972,0 1.591381,-1.07491 1.165578,-1.91488 -0.07303,-0.14358 -0.165453,-0.26388 -0.271639,-0.3616"
       style="fill:#ffffff;fill-opacity:1;fill-rule:nonzero;stroke:none;stroke-width:0.0352778"
       id="path730" />
    <path
       d="m 76.315972,149.89674 c -0.217311,0 -0.379942,0.0815 -0.492125,0.20355 0.22613,0.0222 0.392994,0.20391 0.407105,0.43286 0.01482,0.23742 -0.204258,0.45332 -0.437444,0.45332 l -0.05398,-0.005 c 0.109714,0.19614 0.310092,0.34008 0.601486,0.34008 0.917575,0 0.892528,-1.42452 -0.02505,-1.42452"
       style="fill:#333f48;fill-opacity:1;fill-rule:nonzero;stroke:none;stroke-width:0.0352778"
       id="path732" />
    <path
       d="m 81.714178,115.55559 0.0127,-0.0226 -0.02505,7e-4 c -0.102659,-0.17956 -0.507648,-0.86712 -0.84067,-1.13382 -0.384881,-0.30763 -1.125361,-0.19474 -1.24072,-0.18768 0,0 0.02152,0.54857 0.548217,0.96202 0.315736,0.24836 0.89147,0.34467 1.247775,0.38136 -0.356305,0.037 -0.932039,0.13299 -1.247775,0.38135 -0.526697,0.41345 -0.548217,0.96202 -0.548217,0.96202 0.115359,0.007 0.855839,0.11995 1.24072,-0.18767 0.333022,-0.26635 0.738011,-0.95427 0.84067,-1.13383 l 0.02505,7e-4 -0.0127,-0.0226"
       style="fill:#859e26;fill-opacity:1;fill-rule:nonzero;stroke:none;stroke-width:0.0352778"
       id="path734" />
    <path
       d="m 81.413258,115.54606 c -0.191558,-0.20214 2.369962,-1.45909 2.577042,-1.54658 0.969786,-0.40851 1.99637,-0.80645 3.051175,-0.85513 0.856898,-0.0399 1.556809,0.2854 2.170642,0.86289 0.414161,0.38982 0.814564,1.02694 0.896408,1.59844 0.04762,0.33479 -0.414513,0.75142 -0.627944,0.94086 -0.534458,0.47343 -1.180042,0.72813 -1.871486,0.87242 -1.472495,0.30762 -2.722387,-0.0801 -4.358217,-0.77506 -0.682978,-0.28963 -1.326797,-0.5588 -1.83762,-1.09784"
       style="fill:#859e26;fill-opacity:1;fill-rule:nonzero;stroke:none;stroke-width:0.0352778"
       id="path736" />
    <path
       d="m 88.473753,114.05593 c -0.654403,-0.60466 -1.900767,-0.24236 -1.973086,0.75106 -0.04833,0.66675 0.527756,1.25413 1.185686,1.25413 0.835731,0 1.401586,-0.94686 1.026231,-1.68663 -0.06385,-0.12665 -0.145345,-0.23249 -0.238831,-0.31856"
       style="fill:#ffffff;fill-opacity:1;fill-rule:nonzero;stroke:none;stroke-width:0.0352778"
       id="path738" />
    <path
       d="m 88.031723,114.55793 c -0.191559,0 -0.334787,0.072 -0.433564,0.17956 0.199319,0.0198 0.346075,0.17957 0.358422,0.38136 0.01341,0.20919 -0.179917,0.39899 -0.384881,0.39899 l -0.04798,-0.005 c 0.09666,0.17286 0.273402,0.29986 0.530225,0.29986 0.807861,0 0.785989,-1.25518 -0.02223,-1.25518"
       style="fill:#333f48;fill-opacity:1;fill-rule:nonzero;stroke:none;stroke-width:0.0352778"
       id="path740" />
    <path
       d="m 115.28381,126.01157 0.0222,-0.0395 -0.0437,0.002 c -0.17921,-0.31362 -0.88547,-1.51342 -1.46685,-1.97873 -0.67134,-0.53693 -1.96356,-0.33973 -2.16535,-0.32703 0,0 0.0381,0.95674 0.95673,1.67817 0.55175,0.43321 1.5561,0.60113 2.1777,0.66534 -0.6216,0.0645 -1.62595,0.23248 -2.1777,0.66534 -0.91863,0.72178 -0.95673,1.67851 -0.95673,1.67851 0.20179,0.0127 1.49401,0.2099 2.16535,-0.32738 0.58138,-0.46496 1.28764,-1.66475 1.46685,-1.97837 l 0.0437,0.001 -0.0222,-0.0395"
       style="fill:#859e26;fill-opacity:1;fill-rule:nonzero;stroke:none;stroke-width:0.0352778"
       id="path742" />
    <path
       d="m 114.75887,125.99499 c -0.33408,-0.35243 4.13562,-2.546 4.49686,-2.69805 1.69193,-0.71332 3.48368,-1.40758 5.32377,-1.49295 1.49543,-0.0691 2.71674,0.49847 3.78743,1.50565 0.72319,0.68086 1.42169,1.79282 1.56421,2.78977 0.0833,0.5842 -0.72284,1.31127 -1.09573,1.64147 -0.93274,0.82621 -2.05916,1.27036 -3.26566,1.52224 -2.56928,0.53657 -4.7498,-0.1397 -7.60448,-1.3522 -1.19133,-0.50588 -2.31528,-0.97508 -3.2064,-1.91593"
       style="fill:#859e26;fill-opacity:1;fill-rule:nonzero;stroke:none;stroke-width:0.0352778"
       id="path744" />
    <path
       d="m 127.07893,123.39466 c -1.14229,-1.0548 -3.31681,-0.42298 -3.44276,1.31092 -0.0847,1.16311 0.92075,2.18828 2.06869,2.18828 1.45839,-3.5e-4 2.44581,-1.65241 1.79106,-2.94322 -0.11219,-0.22084 -0.254,-0.4057 -0.41699,-0.55598"
       style="fill:#ffffff;fill-opacity:1;fill-rule:nonzero;stroke:none;stroke-width:0.0352778"
       id="path746" />
    <path
       d="m 126.27142,124.29354 c -0.33408,0 -0.5842,0.12523 -0.7567,0.31291 0.34784,0.0342 0.60395,0.31327 0.62582,0.66534 0.0229,0.36477 -0.31397,0.69638 -0.67204,0.69638 l -0.0833,-0.008 c 0.16862,0.30127 0.47695,0.52282 0.92463,0.52282 1.4097,0 1.3716,-2.18934 -0.0385,-2.18934"
       style="fill:#333f48;fill-opacity:1;fill-rule:nonzero;stroke:none;stroke-width:0.0352778"
       id="path748" />
    <path
       d="m 129.33318,141.20253 0.0127,-0.0222 -0.025,0.001 c -0.1016,-0.17815 -0.50201,-0.85866 -0.83185,-1.12253 -0.381,-0.30445 -1.11408,-0.19297 -1.22838,-0.18557 0,0 0.0215,0.54258 0.54293,0.95215 0.31256,0.24554 0.88265,0.34079 1.23507,0.37712 -0.35242,0.0367 -0.92251,0.13194 -1.23507,0.37783 -0.52141,0.40922 -0.54293,0.95179 -0.54293,0.95179 0.1143,0.007 0.84738,0.11924 1.22838,-0.18556 0.32984,-0.26388 0.73025,-0.94439 0.83185,-1.12219 l 0.025,7.1e-4 -0.0127,-0.0226"
       style="fill:#859e26;fill-opacity:1;fill-rule:nonzero;stroke:none;stroke-width:0.0352778"
       id="path750" />
    <path
       d="m 129.03509,141.19336 c -0.18909,-0.20038 2.34597,-1.44427 2.55093,-1.5307 0.95991,-0.40464 1.97626,-0.79869 3.02013,-0.84667 0.84808,-0.0395 1.54094,0.28222 2.14842,0.85372 0.41028,0.38629 0.80645,1.01706 0.88724,1.58256 0.0473,0.33126 -0.41028,0.74366 -0.62125,0.93098 -0.52916,0.4692 -1.1684,0.72073 -1.85243,0.86396 -1.45768,0.30444 -2.69487,-0.0794 -4.31412,-0.76694 -0.67557,-0.28716 -1.31339,-0.55316 -1.81892,-1.08691"
       style="fill:#859e26;fill-opacity:1;fill-rule:nonzero;stroke:none;stroke-width:0.0352778"
       id="path752" />
    <path
       d="m 136.02361,139.71804 c -0.6477,-0.59796 -1.88136,-0.23953 -1.95262,0.74401 -0.048,0.6597 0.52246,1.24072 1.17334,1.24072 0.82726,0 1.38747,-0.93698 1.016,-1.66899 -0.0632,-0.12559 -0.14393,-0.23037 -0.23672,-0.31574"
       style="fill:#ffffff;fill-opacity:1;fill-rule:nonzero;stroke:none;stroke-width:0.0352778"
       id="path754" />
    <path
       d="m 134.79136,139.81788 c -0.18944,0 -0.33126,0.0713 -0.42933,0.17745 0.19756,0.0198 0.3429,0.1778 0.35525,0.37782 0.0127,0.20708 -0.17815,0.39476 -0.38135,0.39476 l -0.0473,-0.005 c 0.096,0.17075 0.27058,0.29669 0.52494,0.29669 0.79939,0 0.77787,-1.24213 -0.0222,-1.24213"
       style="fill:#333f48;fill-opacity:1;fill-rule:nonzero;stroke:none;stroke-width:0.0352778"
       id="path756" />
    <path
       d="m 78.99285,138.54894 0.01799,-0.0321 -0.03563,0.001 c -0.144992,-0.25436 -0.716845,-1.22591 -1.187803,-1.60267 -0.543631,-0.43498 -1.590675,-0.27517 -1.753306,-0.26494 0,0 0.03034,0.7747 0.774348,1.35925 0.446616,0.35102 1.260475,0.48648 1.763536,0.53905 -0.503061,0.0519 -1.31692,0.18803 -1.763536,0.53869 -0.744009,0.5842 -0.774348,1.35925 -0.774348,1.35925 0.162631,0.0102 1.209675,0.17004 1.753306,-0.26493 0.470958,-0.37677 1.042811,-1.34867 1.187803,-1.60232 l 0.03563,0.001 -0.01799,-0.0321"
       style="fill:#dc1e52;fill-opacity:1;fill-rule:nonzero;stroke:none;stroke-width:0.0352778"
       id="path758" />
    <path
       d="m 78.5674,138.53518 c -0.270228,-0.2854 3.349272,-2.06199 3.641725,-2.18511 1.370542,-0.57749 2.821164,-1.13982 4.31165,-1.20897 1.211086,-0.0561 2.200275,0.40358 3.06705,1.21956 0.585964,0.55139 1.151467,1.45168 1.266826,2.25883 0.06773,0.47343 -0.585259,1.06222 -0.887237,1.32927 -0.755297,0.66957 -1.66758,1.02905 -2.644775,1.23331 -2.080683,0.43462 -3.846689,-0.11359 -6.158442,-1.09502 -0.964847,-0.40993 -1.875014,-0.78987 -2.596797,-1.55187"
       style="fill:#dc1e52;fill-opacity:1;fill-rule:nonzero;stroke:none;stroke-width:0.0352778"
       id="path760" />
    <path
       d="m 88.545014,136.42909 c -0.925336,-0.85372 -2.68605,-0.34219 -2.788003,1.06187 -0.06879,0.94191 0.74542,1.772 1.675342,1.772 1.180747,0 1.980142,-1.33809 1.45027,-2.38337 -0.09066,-0.17886 -0.20567,-0.32843 -0.337609,-0.4505"
       style="fill:#ffffff;fill-opacity:1;fill-rule:nonzero;stroke:none;stroke-width:0.0352778"
       id="path762" />
    <path
       d="m 87.829228,137.13394 c -0.27058,0 -0.473075,0.1016 -0.612775,0.25365 0.28187,0.0275 0.48895,0.25365 0.506942,0.53869 0.01834,0.29563 -0.254353,0.5641 -0.544336,0.5641 l -0.06738,-0.007 c 0.136525,0.24413 0.386292,0.42334 0.748595,0.42334 1.141941,0 1.110897,-1.77307 -0.03105,-1.77307"
       style="fill:#333f48;fill-opacity:1;fill-rule:nonzero;stroke:none;stroke-width:0.0352778"
       id="path764" />
    <path
       d="m 115.99289,151.09442 0.0155,-0.0279 -0.031,0.001 c -0.12735,-0.22296 -0.629,-1.07527 -1.04211,-1.40547 -0.47731,-0.3817 -1.39559,-0.24165 -1.53846,-0.23248 0,0 0.0268,0.67945 0.6798,1.19204 0.39159,0.30762 1.10561,0.42686 1.54729,0.47272 -0.44168,0.0459 -1.1557,0.1651 -1.54729,0.47308 -0.65299,0.51258 -0.6798,1.19238 -0.6798,1.19238 0.14287,0.009 1.06115,0.14923 1.53846,-0.23248 0.41311,-0.33055 0.91476,-1.18286 1.04211,-1.40582 l 0.031,0.001 -0.0155,-0.0282"
       style="fill:#dc1e52;fill-opacity:1;fill-rule:nonzero;stroke:none;stroke-width:0.0352778"
       id="path766" />
    <path
       d="m 115.6193,151.08278 c -0.23671,-0.25047 2.93899,-1.80905 3.19546,-1.91735 1.20227,-0.50659 2.47509,-0.99977 3.78284,-1.0601 1.06221,-0.0494 1.93004,0.35384 2.69099,1.06963 0.51364,0.48366 1.01,1.27352 1.11125,1.9819 0.0596,0.41522 -0.51365,0.93169 -0.77823,1.16629 -0.66287,0.58737 -1.46332,0.90275 -2.32057,1.08161 -1.82528,0.38136 -3.37503,-0.0991 -5.40315,-0.96061 -0.84631,-0.35913 -1.645,-0.69286 -2.27859,-1.36137"
       style="fill:#dc1e52;fill-opacity:1;fill-rule:nonzero;stroke:none;stroke-width:0.0352778"
       id="path768" />
    <path
       d="m 124.37348,149.23528 c -0.81174,-0.7493 -2.35656,-0.30056 -2.44616,0.93134 -0.0603,0.8262 0.65405,1.55504 1.46967,1.55504 1.03611,-3.5e-4 1.73778,-1.1744 1.27282,-2.09127 -0.0797,-0.15698 -0.18062,-0.28857 -0.29633,-0.39511"
       style="fill:#ffffff;fill-opacity:1;fill-rule:nonzero;stroke:none;stroke-width:0.0352778"
       id="path770" />
    <path
       d="m 122.82972,149.36017 c -0.23741,0 -0.41521,0.0892 -0.53763,0.2226 0.2473,0.024 0.42933,0.2226 0.44485,0.47272 0.0162,0.25894 -0.2233,0.49459 -0.47766,0.49459 l -0.0593,-0.006 c 0.11994,0.21414 0.33902,0.37148 0.65722,0.37148 1.00154,0 0.97437,-1.55575 -0.0275,-1.55575"
       style="fill:#333f48;fill-opacity:1;fill-rule:nonzero;stroke:none;stroke-width:0.0352778"
       id="path772" />
    <path
       d="m 50.581184,138.34821 0.01517,-0.0268 -0.02999,0.001 c -0.122061,-0.21343 -0.60325,-1.03117 -0.999066,-1.34796 -0.457553,-0.36583 -1.338086,-0.23142 -1.475317,-0.22296 0,0 0.02575,0.65194 0.651933,1.14336 0.375709,0.29527 1.059745,0.40922 1.483431,0.45332 -0.423686,0.0441 -1.107722,0.15839 -1.483431,0.45367 -0.62618,0.49142 -0.651933,1.14335 -0.651933,1.14335 0.137231,0.008 1.017764,0.14288 1.475317,-0.22295 0.395816,-0.31715 0.877005,-1.13454 0.999066,-1.34797 l 0.02999,0.001 -0.01517,-0.0272"
       style="fill:#dc1e52;fill-opacity:1;fill-rule:nonzero;stroke:none;stroke-width:0.0352778"
       id="path774" />
    <path
       d="m 50.223115,138.33692 c -0.227189,-0.24024 2.817636,-1.73461 3.063875,-1.83833 1.152878,-0.48577 2.373489,-0.95885 3.627261,-1.01706 1.01847,-0.0469 1.850673,0.33973 2.580217,1.02623 0.492478,0.46355 0.968375,1.22097 1.065389,1.90007 0.0568,0.39828 -0.492478,0.89358 -0.746125,1.1183 -0.635706,0.56339 -1.40335,0.86572 -2.22497,1.03752 -1.750483,0.36548 -3.23603,-0.0956 -5.180894,-0.92145 -0.811742,-0.34432 -1.57727,-0.66393 -2.184753,-1.30528"
       style="fill:#dc1e52;fill-opacity:1;fill-rule:nonzero;stroke:none;stroke-width:0.0352778"
       id="path776" />
    <path
       d="m 58.616757,136.56527 c -0.778228,-0.71826 -2.259542,-0.28822 -2.345267,0.89323 -0.05786,0.79234 0.627239,1.49084 1.409347,1.49084 0.993423,0 1.66617,-1.12571 1.220259,-2.00519 -0.07655,-0.15028 -0.173214,-0.27622 -0.284339,-0.37888"
       style="fill:#ffffff;fill-opacity:1;fill-rule:nonzero;stroke:none;stroke-width:0.0352778"
       id="path778" />
    <path
       d="m 58.10029,136.44426 c -0.227542,0 -0.397933,0.0857 -0.515408,0.21343 0.237066,0.0233 0.411339,0.21344 0.426508,0.45332 0.01552,0.24871 -0.214136,0.47449 -0.458258,0.47449 l -0.05644,-0.006 c 0.114653,0.20531 0.324909,0.35595 0.629709,0.35595 0.960614,0 0.934508,-1.49155 -0.02611,-1.49155"
       style="fill:#333f48;fill-opacity:1;fill-rule:nonzero;stroke:none;stroke-width:0.0352778"
       id="path780" />
    <path
       d="m 105.73482,111.07531 0.0208,-0.0363 -0.0406,10e-4 c -0.1651,-0.28892 -0.81527,-1.39382 -1.35078,-1.82245 -0.61842,-0.49459 -1.80905,-0.31291 -1.99461,-0.30127 0,0 0.0349,0.88124 0.88124,1.54587 0.508,0.39899 1.43334,0.55351 2.00589,0.61278 -0.57255,0.0596 -1.49789,0.21413 -2.00589,0.61313 -0.84631,0.66463 -0.88124,1.54551 -0.88124,1.54551 0.18556,0.012 1.37619,0.19333 1.99461,-0.30127 0.53551,-0.42827 1.18568,-1.53352 1.35078,-1.82245 l 0.0406,0.002 -0.0208,-0.0367"
       style="fill:#dc1e52;fill-opacity:1;fill-rule:nonzero;stroke:none;stroke-width:0.0352778"
       id="path782" />
    <path
       d="m 105.25116,111.06014 c -0.30727,-0.32491 3.80929,-2.34527 4.14196,-2.48532 1.55893,-0.65687 3.20887,-1.29646 4.90362,-1.37513 1.37724,-0.0635 2.50225,0.45932 3.48826,1.38712 0.66605,0.62689 1.30951,1.651 1.44075,2.56928 0.0769,0.53799 -0.66569,1.20756 -1.00895,1.51166 -0.85936,0.76129 -1.89688,1.17016 -3.00813,1.40264 -2.36608,0.49389 -4.3748,-0.12912 -7.00405,-1.24566 -1.09714,-0.46602 -2.13255,-0.89817 -2.95346,-1.76459"
       style="fill:#dc1e52;fill-opacity:1;fill-rule:nonzero;stroke:none;stroke-width:0.0352778"
       id="path784" />
    <path
       d="m 116.59896,108.66478 c -1.05233,-0.9712 -3.05505,-0.38947 -3.17112,1.20755 -0.078,1.07139 0.84808,2.01542 1.90536,2.01542 1.34337,0 2.25284,-1.52188 1.64994,-2.71074 -0.10337,-0.2032 -0.23389,-0.37359 -0.38418,-0.51223"
       style="fill:#ffffff;fill-opacity:1;fill-rule:nonzero;stroke:none;stroke-width:0.0352778"
       id="path786" />
    <path
       d="m 115.72196,108.50603 c -0.30798,0 -0.53799,0.11535 -0.69709,0.28822 0.32032,0.0314 0.55633,0.28857 0.57679,0.61277 0.0208,0.33585 -0.28963,0.64135 -0.61912,0.64135 l -0.0769,-0.007 c 0.15522,0.27764 0.43921,0.48154 0.85196,0.48154 1.29857,0 1.2633,-2.01647 -0.0356,-2.01647"
       style="fill:#333f48;fill-opacity:1;fill-rule:nonzero;stroke:none;stroke-width:0.0352778"
       id="path788" />
    <path
       d="m 51.262045,126.78486 0.02716,-0.0483 -0.05327,0.002 c -0.218723,-0.38276 -1.0795,-1.84573 -1.788584,-2.41265 -0.818797,-0.6551 -2.394655,-0.41451 -2.640189,-0.39899 0,0 0.04621,1.16664 1.166636,2.04647 0.672395,0.5281 1.897239,0.73236 2.655006,0.81139 -0.757767,0.0787 -1.982611,0.28292 -2.655006,0.81103 -1.120422,0.88018 -1.166636,2.04647 -1.166636,2.04647 0.245534,0.0155 1.821392,0.25576 2.640189,-0.399 0.709084,-0.56726 1.569861,-2.02988 1.788584,-2.41264 l 0.05327,0.002 -0.02716,-0.048"
       style="fill:#6583ae;fill-opacity:1;fill-rule:nonzero;stroke:none;stroke-width:0.0352778"
       id="path790" />
    <path
       d="m 50.621754,126.76404 c -0.407106,-0.42933 5.042605,-3.10409 5.482872,-3.28965 2.063397,-0.8696 4.247798,-1.71627 6.491817,-1.81998 1.823156,-0.0843 3.312231,0.60748 4.617862,1.83585 0.881591,0.83009 1.73355,2.18581 1.907116,3.40113 0.1016,0.71226 -0.881591,1.59915 -1.335969,2.00167 -1.137356,1.00753 -2.51072,1.54904 -3.981803,1.85596 -3.132667,0.6544 -5.791553,-0.17039 -9.272412,-1.64818 -1.452386,-0.61701 -2.822575,-1.18921 -3.909483,-2.3368"
       style="fill:#6583ae;fill-opacity:1;fill-rule:nonzero;stroke:none;stroke-width:0.0352778"
       id="path792" />
    <path
       d="m 65.643738,123.59363 c -1.392767,-1.28588 -4.043892,-0.51576 -4.197703,1.59843 -0.103011,1.41817 1.122539,2.66806 2.522361,2.66806 1.778,-3.5e-4 2.982031,-2.01471 2.183695,-3.5881 -0.136525,-0.26952 -0.309739,-0.49495 -0.508353,-0.67839"
       style="fill:#ffffff;fill-opacity:1;fill-rule:nonzero;stroke:none;stroke-width:0.0352778"
       id="path794" />
    <path
       d="m 62.995082,123.80847 c -0.407811,0 -0.712611,0.15275 -0.922867,0.3817 0.424039,0.0416 0.736248,0.38206 0.763059,0.81104 0.02787,0.44485 -0.382764,0.84914 -0.819503,0.84914 -0.03493,0 -0.06809,-0.006 -0.1016,-0.01 0.205669,0.36759 0.581731,0.63747 1.127478,0.63747 1.719086,0 1.672519,-2.66947 -0.04657,-2.66947"
       style="fill:#333f48;fill-opacity:1;fill-rule:nonzero;stroke:none;stroke-width:0.0352778"
       id="path796" />
    <path
       d="m 106.52539,137.99261 0.0258,-0.0462 -0.0512,0.002 c -0.20884,-0.36618 -1.03258,-1.76601 -1.71097,-2.30858 -0.78352,-0.62653 -2.29129,-0.39652 -2.52624,-0.3817 0,0 0.0441,1.11583 1.11619,1.95791 0.64311,0.50553 1.81539,0.70132 2.54035,0.77647 -0.72496,0.0751 -1.89724,0.27093 -2.54035,0.77611 -1.07209,0.84208 -1.11619,1.95827 -1.11619,1.95827 0.23495,0.0148 1.74272,0.24482 2.52624,-0.38171 0.67839,-0.54292 1.50213,-1.94239 1.71097,-2.30858 l 0.0512,0.002 -0.0258,-0.0459"
       style="fill:#6583ae;fill-opacity:1;fill-rule:nonzero;stroke:none;stroke-width:0.0352778"
       id="path798" />
    <path
       d="m 105.91262,137.97285 c -0.38947,-0.41099 4.82494,-2.97039 5.24616,-3.14784 1.97449,-0.8322 4.06435,-1.64218 6.21171,-1.74131 1.74413,-0.0808 3.16935,0.58138 4.41819,1.75684 0.84384,0.7941 1.65876,2.09091 1.82492,3.25402 0.0974,0.68157 -0.84349,1.53 -1.27812,1.91488 -1.08832,0.96449 -2.40241,1.48272 -3.81,1.77659 -2.9972,0.62582 -5.54178,-0.16334 -8.87201,-1.57763 -1.38994,-0.59019 -2.70086,-1.1377 -3.74085,-2.23555"
       style="fill:#6583ae;fill-opacity:1;fill-rule:nonzero;stroke:none;stroke-width:0.0352778"
       id="path800" />
    <path
       d="m 120.2862,134.93931 c -1.33244,-1.23048 -3.86962,-0.49353 -4.01638,1.5293 -0.0988,1.35678 1.07386,2.55305 2.41371,2.55305 1.70109,0 2.85291,-1.92793 2.08915,-3.43359 -0.13053,-0.25753 -0.29634,-0.47343 -0.48648,-0.64876"
       style="fill:#ffffff;fill-opacity:1;fill-rule:nonzero;stroke:none;stroke-width:0.0352778"
       id="path802" />
    <path
       d="m 118.28701,134.60947 c -0.38982,0 -0.68192,0.14605 -0.88301,0.36512 0.4057,0.0399 0.70485,0.36548 0.73025,0.77647 0.0268,0.42545 -0.36618,0.81209 -0.78422,0.81209 -0.0335,0 -0.0649,-0.006 -0.097,-0.01 0.1965,0.35171 0.55633,0.60995 1.0788,0.60995 1.645,0 1.6002,-2.55411 -0.0448,-2.55411"
       style="fill:#333f48;fill-opacity:1;fill-rule:nonzero;stroke:none;stroke-width:0.0352778"
       id="path804" />
  </g>
</svg>
