<?xml version="1.0" encoding="UTF-8" standalone="no"?>
<svg
   xmlns:dc="http://purl.org/dc/elements/1.1/"
   xmlns:cc="http://creativecommons.org/ns#"
   xmlns:rdf="http://www.w3.org/1999/02/22-rdf-syntax-ns#"
   xmlns:svg="http://www.w3.org/2000/svg"
   xmlns="http://www.w3.org/2000/svg"
   xmlns:sodipodi="http://sodipodi.sourceforge.net/DTD/sodipodi-0.dtd"
   xmlns:inkscape="http://www.inkscape.org/namespaces/inkscape"
   width="210mm"
   height="297mm"
   viewBox="0 0 210 297"
   version="1.1"
   id="svg3260"
   inkscape:version="1.0.2 (e86c8708, 2021-01-15)"
   sodipodi:docname="fish1.svg">
  <defs
     id="defs3254" />
  <sodipodi:namedview
     id="base"
     pagecolor="#ffffff"
     bordercolor="#666666"
     borderopacity="1.0"
     inkscape:pageopacity="0.0"
     inkscape:pageshadow="2"
     inkscape:zoom="0.35"
     inkscape:cx="400"
     inkscape:cy="560"
     inkscape:document-units="mm"
     inkscape:current-layer="layer1"
     inkscape:document-rotation="0"
     showgrid="false"
     inkscape:window-width="1252"
     inkscape:window-height="1005"
     inkscape:window-x="0"
     inkscape:window-y="23"
     inkscape:window-maximized="0" />
  <metadata
     id="metadata3257">
    <rdf:RDF>
      <cc:Work
         rdf:about="">
        <dc:format>image/svg+xml</dc:format>
        <dc:type
           rdf:resource="http://purl.org/dc/dcmitype/StillImage" />
        <dc:title></dc:title>
      </cc:Work>
    </rdf:RDF>
  </metadata>
  <g
     inkscape:label="Layer 1"
     inkscape:groupmode="layer"
     id="layer1">
    <path
       d="m 158.80748,115.81364 -0.006,-0.0713 0.006,-0.0713 c -0.0829,-1.24954 0.91652,-4.41396 0.33302,-4.45559 -0.58279,-0.0416 -1.24918,0.91617 -2.66453,1.95686 -1.41605,1.0414 -3.45616,0.95779 -3.45616,0.95779 l -0.0741,1.51518 -0.01,0.002 0.005,0.0952 -0.005,0.0953 0.01,0.002 0.0741,1.51483 c 0,0 2.04011,-0.0833 3.45616,0.95779 1.41535,1.04105 2.08174,1.99884 2.66453,1.95721 0.5835,-0.042 -0.41592,-3.2064 -0.33302,-4.45558"
       style="fill:#facd2c;fill-opacity:1;fill-rule:nonzero;stroke:none;stroke-width:0.0352778"
       id="path1572" />
    <path
       d="m 137.00899,114.79658 c 0,-0.19756 2.87302,-4.87186 9.05686,-7.80733 6.18349,-2.93581 10.43058,-3.31082 10.86768,-2.74849 0.43779,0.56198 -3.23321,5.56401 -2.99791,11.11779 0.31221,7.37059 4.49721,10.80594 4.49721,11.61768 0,0.8121 -8.49454,0.12489 -13.42884,-2.31104 -4.9343,-2.43594 -7.995,-8.30722 -7.995,-9.86861"
       style="fill:#2e6f8d;fill-opacity:1;fill-rule:nonzero;stroke:none;stroke-width:0.0352778"
       id="path1574" />
    <path
       d="m 144.33266,114.2466 c -0.76553,-2.68923 -5.31884,-2.92629 -5.9877,0.23424 -0.27658,1.30634 0.4071,2.75731 1.59138,3.37538 1.87007,0.97684 4.25732,-0.34043 4.48451,-2.42605 0.0473,-0.43533 0.0123,-0.83079 -0.0882,-1.18357"
       style="fill:#facd2c;fill-opacity:1;fill-rule:nonzero;stroke:none;stroke-width:0.0352778"
       id="path1576" />
    <path
       d="m 143.91073,114.37854 c -0.65652,-2.30717 -4.56353,-2.51037 -5.13715,0.20108 -0.23742,1.12148 0.34925,2.36573 1.36525,2.89631 1.60479,0.83784 3.65266,-0.2921 3.84775,-2.08175 0.0406,-0.37359 0.0106,-0.71261 -0.0759,-1.01564"
       style="fill:#ffffff;fill-opacity:1;fill-rule:nonzero;stroke:none;stroke-width:0.0352778"
       id="path1578" />
    <path
       d="m 141.80042,115.16276 c 0,0.72073 -0.50165,1.30493 -1.12113,1.30493 -0.61948,0 -1.12148,-0.5842 -1.12148,-1.30493 0,-0.72072 0.502,-1.30492 1.12148,-1.30492 0.61948,0 1.12113,0.5842 1.12113,1.30492"
       style="fill:#333f48;fill-opacity:1;fill-rule:nonzero;stroke:none;stroke-width:0.0352778"
       id="path1580" />
    <path
       d="m 140.67929,114.72179 c 0,0.30798 -0.21449,0.55774 -0.47907,0.55774 -0.26459,0 -0.47943,-0.24976 -0.47943,-0.55774 0,-0.30798 0.21484,-0.55739 0.47943,-0.55739 0.26458,0 0.47907,0.24941 0.47907,0.55739"
       style="fill:#f4f6f5;fill-opacity:1;fill-rule:nonzero;stroke:none;stroke-width:0.0352778"
       id="path1582" />
    <path
       d="m 147.03599,106.54299 c -0.3182,0.14217 -0.641,0.28963 -0.97014,0.44626 l -0.0935,0.0459 c -0.59373,4.61928 -1.20968,12.07382 -0.0868,18.03083 0.35137,0.14817 0.71438,0.28928 1.08762,0.42228 -1.29646,-6.12493 -0.55351,-14.29915 0.0628,-18.94523"
       style="fill:#facd2c;fill-opacity:1;fill-rule:nonzero;stroke:none;stroke-width:0.0352778"
       id="path1584" />
    <path
       d="m 149.39925,105.57073 c -0.34255,0.12841 -0.69462,0.26565 -1.05551,0.41275 -0.65899,4.85423 -1.45697,13.55902 0.0974,19.97711 0.35912,0.10477 0.72213,0.2032 1.0862,0.29527 -1.7332,-6.47171 -0.79375,-15.89617 -0.12806,-20.68513"
       style="fill:#facd2c;fill-opacity:1;fill-rule:nonzero;stroke:none;stroke-width:0.0352778"
       id="path1586" />
    <path
       d="m 151.73923,104.78651 c -0.33444,0.0981 -0.68334,0.20708 -1.04458,0.32632 -0.70309,4.98228 -1.67499,14.77998 0.29845,21.48099 0.36689,0.0762 0.7306,0.14676 1.08938,0.21026 -2.15689,-6.64669 -1.0407,-17.15418 -0.34325,-22.01757"
       style="fill:#facd2c;fill-opacity:1;fill-rule:nonzero;stroke:none;stroke-width:0.0352778"
       id="path1588" />
    <path
       d="m 154.04851,104.22665 c -0.32032,0.0589 -0.66428,0.13194 -1.02976,0.21908 -0.73378,5.08105 -1.8415,15.76387 0.51823,22.58871 0.37571,0.0515 0.73942,0.0956 1.08867,0.13194 -2.53294,-6.66186 -1.29822,-17.98355 -0.57714,-22.93973"
       style="fill:#facd2c;fill-opacity:1;fill-rule:nonzero;stroke:none;stroke-width:0.0352778"
       id="path1590" />
  </g>
</svg>
