<?xml version="1.0" encoding="UTF-8" standalone="no"?>
<svg
   xmlns:dc="http://purl.org/dc/elements/1.1/"
   xmlns:cc="http://creativecommons.org/ns#"
   xmlns:rdf="http://www.w3.org/1999/02/22-rdf-syntax-ns#"
   xmlns:svg="http://www.w3.org/2000/svg"
   xmlns="http://www.w3.org/2000/svg"
   viewBox="0 0 400.62399 400.62399"
   height="400.62399"
   width="400.62399"
   xml:space="preserve"
   id="svg2"
   version="1.1">
   <metadata
     id="metadata8">
     <rdf:RDF>
     <cc:Work
         rdf:about="">
         <dc:format>image/svg+xml</dc:format>
         <dc:type
           rdf:resource="http://purl.org/dc/dcmitype/StillImage" />
    </cc:Work></rdf:RDF></metadata><defs
     id="defs6">
     <clipPath
       id="clipPath18"
       clipPathUnits="userSpaceOnUse">
       <path
         id="path16"
         d="M 0,300.468 H 300.468 V 0 H 0 Z" />
      </clipPath>
      </defs>
      <g
     transform="matrix(1.3333333,0,0,-1.3333333,0,400.624)"
     id="g10"><g
       id="g12"><g
         clip-path="url(#clipPath18)"
         id="g14"><g
           transform="translate(210.3496,104.96)"
           id="g20">
           <path
             id="path22"
             style="fill:#cf4261;fill-opacity:1;fill-rule:nonzero;stroke:none"
             d="m 0,0 c -2.044,0.711 -3.661,2.413 -5.683,4.132 -0.166,0.189 -0.32,0.378 -0.463,0.567 -0.574,0.757 -0.97,1.521 -1.206,2.315 -0.07,0.238 -0.127,0.479 -0.169,0.723 -0.016,1.978 -0.068,3.955 -0.169,5.93 -0.164,3.171 2.311,3.205 4.084,5.112 1.415,1.524 1.722,4.385 4.432,3.78 0.216,0.027 0.437,0.05 0.66,0.076 3.176,0.347 5.645,2.061 8.984,1.898 0.243,0.041 0.485,0.078 0.728,0.106 0.636,0.074 1.272,0.098 1.913,0.05 0.214,-0.016 0.428,-0.041 0.645,-0.071 1.506,0.187 2.82,-0.502 3.843,-1.615 0.145,-0.158 0.285,-0.325 0.421,-0.5 0.489,-2.061 2.375,-3.534 3.436,-5.153 0.151,-0.233 0.285,-0.467 0.398,-0.716 0.332,-3.406 0.932,-6.182 -0.765,-8.699 C 20.979,7.702 20.872,7.477 20.763,7.254 20.221,6.142 14.66,1.869 12.64,-0.749 12.435,-0.849 12.229,-0.937 12.021,-1.021 11.194,-1.358 10.366,-1.644 9.534,-1.839 9.015,-1.962 8.526,-2.051 8.055,-2.104 7.818,-2.133 7.586,-2.152 7.352,-2.166 5.581,-1.839 3.769,-1.703 2.165,-1.068 1.936,-0.979 1.711,-0.878 1.483,-0.766 1.129,-0.486 0.604,-0.471 0,0" /></g><g
           transform="translate(258.5322,114.999)"
           id="g24"><path
             id="path26"
             style="fill:#cf4261;fill-opacity:1;fill-rule:nonzero;stroke:none"
             d="M 0,0 C -0.306,0.868 -0.749,1.694 -1.453,2.466 -2.446,3.553 -3.86,3.914 -4.836,4.923 -5.99,6.117 -5.89,6.491 -7.659,6.714 c -2.656,0.336 -5.528,1.12 -8.111,0.065 -2.184,-0.892 -4.813,-3.242 -5.939,-5.344 -0.835,-1.559 -2.038,-2.692 -2.634,-4.466 -0.722,-2.158 -0.613,-4.431 -0.088,-6.616 0.049,-0.207 0.102,-0.411 0.167,-0.616 2.172,-2.251 5.388,-8.036 6.358,-8.697 0.194,-0.133 0.389,-0.264 0.593,-0.398 2.126,-1.936 4.831,-1.76 8.091,-1.924 0.251,0.071 0.493,0.164 0.734,0.272 1.681,0.768 3.347,2.323 5.36,2.494 0.185,0.102 0.364,0.208 0.535,0.323 1.043,0.696 1.817,1.644 2.028,2.823 1.244,1.449 2.167,2.86 2.264,4.688 0.049,0.231 0.094,0.454 0.138,0.677 C 2.141,-8.469 1.28,-6.353 0.983,-4.862 0.644,-3.162 0.533,-1.518 0,0" /></g><g
           transform="translate(211.1582,86.1787)"
           id="g28"><path
             id="path30"
             style="fill:#cf4261;fill-opacity:1;fill-rule:nonzero;stroke:none"
             d="M 0,0 C -0.069,0.184 -0.156,0.366 -0.253,0.551 -0.287,0.728 -0.341,0.904 -0.408,1.079 -0.414,1.093 -0.422,1.106 -0.426,1.12 -0.087,2.878 0.3,4.694 0.754,5.866 0.736,6.068 0.709,6.267 0.678,6.463 0.558,7.247 0.395,8.011 0.165,8.734 c -0.143,0.454 -0.297,0.869 -0.47,1.255 -0.087,0.194 -0.177,0.38 -0.273,0.567 -1.047,1.214 -1.97,2.545 -3.173,3.495 -0.171,0.136 -0.349,0.263 -0.535,0.389 -0.371,0.149 -0.62,0.543 -1.248,0.798 -1.459,1.254 -3.469,1.74 -5.674,2.529 -0.218,0.043 -0.431,0.078 -0.637,0.104 -0.828,0.104 -1.581,0.067 -2.284,-0.103 -0.211,-0.052 -0.417,-0.116 -0.619,-0.192 -0.02,-0.011 -0.037,-0.02 -0.055,-0.031 -0.086,-0.017 -0.172,-0.029 -0.259,-0.05 -1.415,-1.129 -3.55,-1.097 -5.158,-1.612 -0.228,-0.075 -0.448,-0.16 -0.659,-0.268 -1.991,-2.13 -3.855,-3.684 -3.907,-6.324 -0.039,-0.218 -0.076,-0.429 -0.111,-0.639 -0.175,-1.052 1.695,-6.999 1.827,-9.882 0.098,-0.18 0.203,-0.354 0.311,-0.524 1.343,-2.128 2.773,-3.337 4.962,-4.482 0.004,-0.005 0.008,-0.01 0.012,-0.016 0.541,-1.238 1.654,-1.942 2.953,-2.232 0.185,-0.042 0.374,-0.076 0.566,-0.1 1.768,0.539 3.729,-0.255 5.425,-0.352 0.243,-0.013 0.479,-0.011 0.718,0.012 2.707,1.258 5.062,2.028 6.185,4.45 0.125,0.187 0.245,0.37 0.362,0.552 0.09,0.139 0.181,0.398 0.276,0.746 0.437,0.524 0.897,1.064 1.399,1.642 0.092,0.268 0.11,0.53 0.086,0.787 C 0.159,-0.492 0.095,-0.245 0,0" /></g><g
           transform="translate(253.8662,67.7412)"
           id="g32"><path
             id="path34"
             style="fill:#cf4261;fill-opacity:1;fill-rule:nonzero;stroke:none"
             d="m 0,0 c 0.376,0.608 0.659,1.3 1.242,1.812 0.841,0.739 2.481,1.243 3.147,2.09 0.125,0.159 0.241,0.322 0.353,0.485 0.453,0.651 0.862,1.311 1.199,1.986 0.213,0.422 0.391,0.822 0.537,1.214 0.074,0.195 0.139,0.39 0.201,0.586 0.12,1.543 0.403,3.096 0.24,4.542 -0.023,0.206 -0.057,0.41 -0.098,0.62 -0.146,0.34 -0.047,0.785 -0.296,1.363 -0.129,1.829 -1.153,3.441 -2.101,5.395 -0.117,0.167 -0.237,0.326 -0.359,0.474 -0.921,1.121 -1.862,1.372 -3.122,1.82 -1.39,0.494 -2.525,1.361 -3.867,1.944 -0.205,0.089 -0.41,0.163 -0.625,0.216 -2.789,-0.32 -5.098,-0.297 -6.928,-2.2 -0.175,-0.136 -0.344,-0.269 -0.509,-0.401 -0.834,-0.663 -3.617,-6.19 -5.488,-8.388 -0.055,-0.193 -0.103,-0.386 -0.145,-0.579 -0.175,-0.77 -0.304,-1.532 -0.362,-2.279 -0.038,-0.467 -0.051,-0.902 -0.039,-1.316 0.006,-0.208 0.019,-0.411 0.036,-0.615 0.234,-0.72 0.433,-1.458 0.658,-2.172 0,-0.007 -0.002,-0.013 -0.003,-0.019 -0.477,-1.247 -0.207,-2.456 0.47,-3.479 0.096,-0.147 0.201,-0.289 0.313,-0.428 1.558,-0.707 2.338,-2.512 3.414,-3.641 0.154,-0.161 0.315,-0.308 0.491,-0.44 2.674,-0.765 4.783,-1.667 7.18,-0.597 1.107,0.494 2.873,0.453 3.779,1.192 C -0.397,-0.585 -0.188,-0.303 0,0" /></g><g
           transform="translate(229.9023,86.6504)"
           id="g36"><path
             id="path38"
             style="fill:#cf4261;fill-opacity:1;fill-rule:nonzero;stroke:none"
             d="M 0,0 C 1.226,0.666 2.32,1.458 2.875,2.175 2.952,2.273 3.023,2.376 3.094,2.479 3.371,2.888 3.62,3.304 3.823,3.729 3.949,3.997 4.055,4.251 4.141,4.5 4.184,4.625 4.221,4.748 4.257,4.873 4.296,5.866 4.441,6.86 4.3,7.797 4.28,7.931 4.254,8.063 4.223,8.199 4.119,8.422 4.172,8.705 3.998,9.083 c -1.087,2.355 -1.198,4.093 -3.811,5.1 -0.916,0.352 -1.672,0.939 -2.558,1.349 -0.135,0.062 -0.27,0.115 -0.411,0.155 -1.801,-0.138 -3.3,-0.067 -4.441,-1.249 -0.109,-0.084 -0.216,-0.165 -0.321,-0.247 -4.882,-3.795 -5.021,-15.563 2.932,-15.709 C -3.466,-1.539 -1.618,-0.879 0,0" /></g><g
           transform="translate(208.4756,74.5547)"
           id="g40"><path
             id="path42"
             style="fill:#cf4261;fill-opacity:1;fill-rule:nonzero;stroke:none"
             d="m 0,0 c -0.025,-0.663 0.021,-1.343 -0.146,-1.981 -0.315,-1.208 -1.008,-2.535 -1.666,-3.593 -0.085,-1.331 -0.113,-3.61 0.682,-4.783 2.853,-4.213 5.575,-6.456 10.105,-8.792 0.223,-0.079 0.441,-0.148 0.655,-0.208 0.858,-0.24 1.658,-0.331 2.427,-0.282 0.23,0.014 0.458,0.042 0.682,0.081 0.022,0.008 0.042,0.015 0.063,0.022 0.094,0.003 0.186,0 0.281,0.006 1.667,0.862 3.915,0.471 5.692,0.705 0.253,0.034 0.497,0.08 0.737,0.149 2.428,1.739 4.636,2.937 5.098,5.494 0.077,0.205 0.147,0.405 0.216,0.604 0.348,0.994 -0.709,7.088 -0.403,9.915 -0.511,1.299 -1.238,2.643 -2.185,3.681 -0.684,0.752 -2.1,1.267 -2.606,2.07 -0.004,0.006 -0.007,0.011 -0.01,0.016 C 19.241,4.4 18.177,5.27 16.851,5.771 16.661,5.842 16.467,5.905 16.268,5.963 14.319,5.734 12.372,6.834 10.597,7.213 10.343,7.266 10.094,7.305 9.838,7.321 7.371,7.48 4.358,6.067 2.708,4.269 1.912,3.4 0.879,2.564 0.329,1.507 0.083,1.034 0.02,0.522 0,0" /></g><g
           transform="translate(72.0376,228.4341)"
           id="g44"><path
             id="path46"
             style="fill:#604ba9;fill-opacity:1;fill-rule:nonzero;stroke:none"
             d="m 0,0 c -1.15,0.849 -2.228,2.407 -3.515,4.036 -0.113,0.172 -0.22,0.341 -0.321,0.509 -0.406,0.672 -0.721,1.323 -0.959,1.976 -0.071,0.195 -0.136,0.391 -0.193,0.587 -0.302,1.539 -0.619,3.083 -0.963,4.633 -1.032,4.659 4.308,5.917 7.674,5.834 C 1.84,17.572 1.959,17.564 2.079,17.551 2.394,17.516 2.715,17.444 3.05,17.314 3.162,17.271 3.275,17.221 3.39,17.165 4.131,17.093 4.905,16.367 5.593,15.353 5.691,15.209 5.787,15.059 5.882,14.903 6.437,13.229 7.618,11.809 8.401,10.396 8.512,10.194 8.616,9.993 8.71,9.781 9.384,7.084 10.101,4.837 9.605,3.124 9.584,2.959 9.563,2.799 9.54,2.642 9.427,1.854 7.217,-0.666 6.572,-2.411 6.482,-2.458 6.39,-2.497 6.296,-2.533 5.923,-2.676 5.542,-2.777 5.145,-2.809 4.898,-2.83 4.662,-2.828 4.428,-2.802 4.312,-2.79 4.196,-2.771 4.078,-2.748 3.125,-2.238 2.178,-1.871 1.265,-1.145 1.134,-1.041 1.004,-0.93 0.872,-0.81 0.648,-0.541 0.379,-0.454 0,0" /></g><g
           transform="translate(85.2437,178.3716)"
           id="g48"><path
             id="path50"
             style="fill:#604ba9;fill-opacity:1;fill-rule:nonzero;stroke:none"
             d="m 0,0 c -0.658,-1.359 -1.65,-2.043 -2.72,-3.04 -0.108,-0.064 -0.214,-0.122 -0.317,-0.169 -0.416,-0.19 -0.802,-0.239 -1.173,-0.152 -0.112,0.027 -0.221,0.066 -0.33,0.115 -0.821,0.663 -1.649,1.301 -2.484,1.898 -1.342,0.958 -0.917,2.908 -1.391,4.952 -0.378,1.629 -1.509,2.851 -0.776,4.768 0.026,0.179 0.056,0.359 0.086,0.544 0.419,2.607 0.149,5.129 0.81,7.692 0.025,0.204 0.054,0.406 0.086,0.606 0.082,0.524 0.185,1.031 0.319,1.517 0.044,0.162 0.092,0.322 0.144,0.481 0.19,1.244 0.709,2.038 1.352,2.458 0.091,0.061 0.185,0.113 0.281,0.159 0.94,-0.322 1.885,0.652 2.744,0.929 0.123,0.039 0.244,0.064 0.369,0.068 1.468,-0.907 2.724,-1.386 3.464,-3.58 C 0.541,19.082 0.615,18.92 0.688,18.759 1.052,17.953 1.833,12.131 2.557,9.652 2.562,9.457 2.562,9.265 2.56,9.074 2.553,8.309 2.523,7.562 2.456,6.844 2.415,6.394 2.364,5.982 2.303,5.592 2.272,5.397 2.24,5.209 2.203,5.021 1.753,3.745 1.376,2.37 0.828,1.332 0.75,1.182 0.667,1.041 0.581,0.9 0.402,0.717 0.302,0.312 0,0" /></g><g
           transform="translate(91.7227,247.7759)"
           id="g52"><path
             id="path54"
             style="fill:#604ba9;fill-opacity:1;fill-rule:nonzero;stroke:none"
             d="m 0,0 c -0.446,-0.161 -0.905,-0.443 -1.403,-0.958 -0.701,-0.723 -1.187,-1.894 -1.851,-2.613 -0.785,-0.85 -0.921,-0.719 -1.432,-2.211 -0.766,-2.239 -1.776,-4.611 -1.925,-6.949 -0.127,-1.979 0.27,-4.512 0.912,-5.725 0.477,-0.9 0.684,-2.065 1.309,-2.784 0.761,-0.875 1.765,-1.048 2.831,-0.853 0.1,0.017 0.201,0.039 0.305,0.069 1.478,1.601 4.724,3.678 5.235,4.433 0.103,0.151 0.205,0.303 0.311,0.462 1.332,1.596 1.889,3.937 2.723,6.715 0.028,0.225 0.044,0.442 0.054,0.661 0.063,1.533 -0.217,3.146 0.179,4.893 0,0.17 -0.004,0.336 -0.014,0.496 C 7.179,-3.387 6.952,-2.613 6.492,-2.293 6.158,-1.057 5.768,-0.098 5.001,0.202 4.913,0.27 4.828,0.336 4.742,0.399 4.151,0.841 3.038,0.351 2.324,0.271 1.514,0.18 0.78,0.279 0,0" /></g><g
           transform="translate(73.502,221.353)"
           id="g56"><path
             id="path58"
             style="fill:#f68712;fill-opacity:1;fill-rule:nonzero;stroke:none"
             d="m 0,0 c -0.915,-0.229 -1.338,-1.43 -0.266,-2.102 1.363,-0.852 2.753,1.484 1.294,1.958 -0.02,0.01 -0.04,0.019 -0.06,0.029 C 0.618,0.047 0.286,0.071 0,0" /></g><g
           transform="translate(77.0889,211.6016)"
           id="g60"><path
             id="path62"
             style="fill:#f68712;fill-opacity:1;fill-rule:nonzero;stroke:none"
             d="M 0,0 C -1.056,-0.323 -1.892,-1.321 -0.344,-2.29 0.43,-2.775 1.599,-2.267 1.807,-1.315 2.102,0.031 0.96,0.293 0,0" /></g><g
           transform="translate(81.6313,215.1216)"
           id="g64"><path
             id="path66"
             style="fill:#f68712;fill-opacity:1;fill-rule:nonzero;stroke:none"
             d="M 0,0 C 0.117,-0.188 0.292,-0.354 0.518,-0.462 2.043,-1.19 2.554,1.047 0.846,1.243 -0.163,1.358 -0.36,0.578 0,0" /></g><g
           transform="translate(81.1709,224.2378)"
           id="g68"><path
             id="path70"
             style="fill:#f68712;fill-opacity:1;fill-rule:nonzero;stroke:none"
             d="M 0,0 C -0.191,-0.063 -0.365,-0.176 -0.483,-0.335 -1.281,-1.417 0.894,-2.14 1.179,-0.84 1.346,-0.072 0.588,0.195 0,0" /></g><g
           transform="translate(88.5762,215.7056)"
           id="g72"><path
             id="path74"
             style="fill:#f68712;fill-opacity:1;fill-rule:nonzero;stroke:none"
             d="M 0,0 C -0.191,-0.064 -0.364,-0.176 -0.482,-0.336 -1.281,-1.417 0.894,-2.141 1.179,-0.84 1.347,-0.072 0.588,0.195 0,0" /></g><g
           transform="translate(79.6284,220.5166)"
           id="g76"><path
             id="path78"
             style="fill:#f68712;fill-opacity:1;fill-rule:nonzero;stroke:none"
             d="M 0,0 C -0.192,0.06 -0.398,0.069 -0.587,0.008 -1.866,-0.406 -0.519,-2.261 0.47,-1.369 1.053,-0.842 0.592,-0.184 0,0" /></g><g
           transform="translate(92.4424,215.6909)"
           id="g80"><path
             id="path82"
             style="fill:#f68712;fill-opacity:1;fill-rule:nonzero;stroke:none"
             d="M 0,0 C -0.175,0.1 -0.374,0.154 -0.572,0.136 -1.909,0.009 -0.997,-2.094 0.162,-1.438 0.845,-1.051 0.539,-0.308 0,0" /></g><g
           transform="translate(77.1831,205.1313)"
           id="g84"><path
             id="path86"
             style="fill:#f68712;fill-opacity:1;fill-rule:nonzero;stroke:none"
             d="M 0,0 C -0.191,-0.063 -0.364,-0.176 -0.482,-0.335 -1.281,-1.417 0.894,-2.14 1.179,-0.84 1.346,-0.072 0.589,0.195 0,0" /></g><g
           transform="translate(74.7373,215.2456)"
           id="g88"><path
             id="path90"
             style="fill:#f68712;fill-opacity:1;fill-rule:nonzero;stroke:none"
             d="M 0,0 C -0.252,-0.084 -0.481,-0.232 -0.638,-0.443 -1.692,-1.871 1.18,-2.827 1.557,-1.109 1.778,-0.095 0.777,0.258 0,0" /></g><g
           transform="translate(72.9331,211.4863)"
           id="g92"><path
             id="path94"
             style="fill:#f68712;fill-opacity:1;fill-rule:nonzero;stroke:none"
             d="M 0,0 C -0.291,-0.097 -0.555,-0.268 -0.735,-0.512 -1.952,-2.159 1.363,-3.263 1.797,-1.28 2.053,-0.11 0.898,0.298 0,0" /></g><g
           transform="translate(81.2505,219.2793)"
           id="g96"><path
             id="path98"
             style="fill:#f68712;fill-opacity:1;fill-rule:nonzero;stroke:none"
             d="M 0,0 C -0.291,-0.097 -0.555,-0.268 -0.735,-0.512 -1.952,-2.159 1.364,-3.263 1.797,-1.28 2.053,-0.11 0.897,0.298 0,0" /></g><g
           transform="translate(78.5361,214.6401)"
           id="g100"><path
             id="path102"
             style="fill:#f68712;fill-opacity:1;fill-rule:nonzero;stroke:none"
             d="M 0,0 C -1.432,-0.485 -0.359,-2.603 0.965,-1.881 2.204,-1.206 1.281,0.433 0,0" /></g><g
           transform="translate(73.04,217.5937)"
           id="g104"><path
             id="path106"
             style="fill:#f68712;fill-opacity:1;fill-rule:nonzero;stroke:none"
             d="M 0,0 C -0.99,-0.994 0.22,-2.015 1.326,-1.745 3.251,-1.275 1.401,1.406 0,0" /></g><g
           transform="translate(78.6069,208.0103)"
           id="g108"><path
             id="path110"
             style="fill:#f68712;fill-opacity:1;fill-rule:nonzero;stroke:none"
             d="M 0,0 C -1.594,-0.539 -0.84,-2.282 0.492,-2.583 2.811,-3.106 2.256,0.762 0,0" /></g><g
           transform="translate(86.627,222.8232)"
           id="g112"><path
             id="path114"
             style="fill:#f68712;fill-opacity:1;fill-rule:nonzero;stroke:none"
             d="M 0,0 C -0.073,-0.027 -0.146,-0.061 -0.217,-0.103 -1.834,-1.058 0.161,-3.508 1.57,-2.454 2.843,-1.501 1.327,0.482 0,0" /></g><g
           transform="translate(90.4463,219.7515)"
           id="g116"><path
             id="path118"
             style="fill:#f68712;fill-opacity:1;fill-rule:nonzero;stroke:none"
             d="M 0,0 C -0.073,-0.026 -0.146,-0.061 -0.217,-0.103 -1.835,-1.057 0.161,-3.507 1.57,-2.453 2.842,-1.5 1.327,0.483 0,0" /></g><g
           transform="translate(87.7739,218.9321)"
           id="g120"><path
             id="path122"
             style="fill:#f68712;fill-opacity:1;fill-rule:nonzero;stroke:none"
             d="M 0,0 C -0.055,-0.021 -0.111,-0.046 -0.165,-0.078 -1.389,-0.801 0.122,-2.656 1.188,-1.858 2.152,-1.137 1.004,0.365 0,0" /></g><g
           transform="translate(76.5244,223.6709)"
           id="g124"><path
             id="path126"
             style="fill:#f68712;fill-opacity:1;fill-rule:nonzero;stroke:none"
             d="M 0,0 C -0.048,-0.051 -0.093,-0.106 -0.133,-0.169 -1.047,-1.575 1.522,-2.741 2.23,-1.338 2.869,-0.07 0.87,0.914 0,0" /></g><g
           transform="translate(78.0386,217.2744)"
           id="g128"><path
             id="path130"
             style="fill:#f68712;fill-opacity:1;fill-rule:nonzero;stroke:none"
             d="M 0,0 C -0.056,-0.02 -0.11,-0.045 -0.164,-0.078 -1.389,-0.8 0.122,-2.656 1.188,-1.857 2.152,-1.136 1.005,0.366 0,0" /></g><g
           transform="translate(76.1523,220.0645)"
           id="g132"><path
             id="path134"
             style="fill:#f68712;fill-opacity:1;fill-rule:nonzero;stroke:none"
             d="M 0,0 C -0.055,-0.021 -0.11,-0.046 -0.165,-0.078 -1.389,-0.8 0.122,-2.656 1.188,-1.857 2.152,-1.136 1.005,0.366 0,0" /></g><g
           transform="translate(82.0688,213.561)"
           id="g136"><path
             id="path138"
             style="fill:#f68712;fill-opacity:1;fill-rule:nonzero;stroke:none"
             d="M 0,0 C -0.27,-0.099 -0.512,-0.266 -0.674,-0.499 -1.766,-2.075 1.367,-3.015 1.718,-1.147 1.924,-0.045 0.832,0.304 0,0" /></g><g
           transform="translate(89.5654,209.8716)"
           id="g140"><path
             id="path142"
             style="fill:#f68712;fill-opacity:1;fill-rule:nonzero;stroke:none"
             d="M 0,0 C -0.272,-0.09 -0.52,-0.25 -0.689,-0.479 -1.828,-2.021 1.275,-3.054 1.683,-1.198 1.921,-0.103 0.84,0.279 0,0" /></g><g
           transform="translate(89.312,213.666)"
           id="g144"><path
             id="path146"
             style="fill:#f68712;fill-opacity:1;fill-rule:nonzero;stroke:none"
             d="M 0,0 C -0.261,-0.037 -0.511,-0.142 -0.701,-0.321 -1.983,-1.532 0.658,-2.972 1.329,-1.358 1.724,-0.405 0.807,0.116 0,0" /></g><g
           transform="translate(80.3838,210.8364)"
           id="g148"><path
             id="path150"
             style="fill:#f68712;fill-opacity:1;fill-rule:nonzero;stroke:none"
             d="M 0,0 C -0.251,-0.083 -0.479,-0.23 -0.633,-0.44 -1.681,-1.859 1.174,-2.809 1.547,-1.102 1.768,-0.094 0.773,0.257 0,0" /></g><g
           transform="translate(80.7954,204.8911)"
           id="g152"><path
             id="path154"
             style="fill:#f68712;fill-opacity:1;fill-rule:nonzero;stroke:none"
             d="M 0,0 C -0.25,-0.083 -0.478,-0.23 -0.633,-0.44 -1.681,-1.858 1.174,-2.81 1.547,-1.102 1.768,-0.094 0.773,0.257 0,0" /></g><g
           transform="translate(75.4526,209.084)"
           id="g156"><path
             id="path158"
             style="fill:#f68712;fill-opacity:1;fill-rule:nonzero;stroke:none"
             d="M 0,0 C -0.25,-0.083 -0.478,-0.23 -0.633,-0.44 -1.681,-1.859 1.174,-2.809 1.547,-1.102 1.768,-0.095 0.773,0.257 0,0" /></g><g
           transform="translate(84.6987,220.3477)"
           id="g160"><path
             id="path162"
             style="fill:#f68712;fill-opacity:1;fill-rule:nonzero;stroke:none"
             d="M 0,0 C -0.272,-0.091 -0.52,-0.25 -0.689,-0.479 -1.828,-2.021 1.275,-3.054 1.682,-1.198 1.921,-0.103 0.84,0.279 0,0" /></g><g
           transform="translate(81.437,222.0542)"
           id="g164"><path
             id="path166"
             style="fill:#f68712;fill-opacity:1;fill-rule:nonzero;stroke:none"
             d="M 0,0 C -0.251,-0.083 -0.479,-0.231 -0.633,-0.44 -1.681,-1.859 1.174,-2.81 1.547,-1.102 1.768,-0.094 0.773,0.257 0,0" /></g><g
           transform="translate(84.2632,224.647)"
           id="g168"><path
             id="path170"
             style="fill:#f68712;fill-opacity:1;fill-rule:nonzero;stroke:none"
             d="M 0,0 C -0.251,-0.083 -0.479,-0.23 -0.633,-0.44 -1.681,-1.859 1.174,-2.81 1.547,-1.102 1.768,-0.094 0.773,0.257 0,0" /></g><g
           transform="translate(83.396,210.0513)"
           id="g172"><path
             id="path174"
             style="fill:#f68712;fill-opacity:1;fill-rule:nonzero;stroke:none"
             d="M 0,0 C -0.238,-0.099 -0.448,-0.258 -0.583,-0.474 -1.499,-1.928 1.344,-2.645 1.583,-0.958 1.724,0.037 0.732,0.306 0,0" /></g><g
           transform="translate(84.8057,212.4927)"
           id="g176"><path
             id="path178"
             style="fill:#f68712;fill-opacity:1;fill-rule:nonzero;stroke:none"
             d="M 0,0 C -0.208,-0.152 -0.375,-0.356 -0.456,-0.598 -1.003,-2.227 1.929,-2.254 1.765,-0.559 1.667,0.441 0.64,0.47 0,0" /></g><g
           transform="translate(82.105,207.4517)"
           id="g180"><path
             id="path182"
             style="fill:#f68712;fill-opacity:1;fill-rule:nonzero;stroke:none"
             d="M 0,0 C -0.27,-0.089 -0.514,-0.248 -0.68,-0.473 -1.805,-1.996 1.26,-3.016 1.661,-1.184 1.897,-0.102 0.83,0.275 0,0" /></g><g
           transform="translate(85.9648,208.5244)"
           id="g184"><path
             id="path186"
             style="fill:#f68712;fill-opacity:1;fill-rule:nonzero;stroke:none"
             d="M 0,0 C -0.049,-0.018 -0.097,-0.041 -0.145,-0.068 -1.218,-0.703 0.107,-2.329 1.042,-1.629 1.887,-0.997 0.88,0.32 0,0" /></g><g
           transform="translate(74.4761,206.5107)"
           id="g188"><path
             id="path190"
             style="fill:#f68712;fill-opacity:1;fill-rule:nonzero;stroke:none"
             d="M 0,0 C -0.049,-0.017 -0.097,-0.04 -0.145,-0.068 -1.218,-0.702 0.107,-2.328 1.042,-1.628 1.887,-0.996 0.881,0.321 0,0" /></g><g
           transform="translate(84.8784,205.1338)"
           id="g192"><path
             id="path194"
             style="fill:#f68712;fill-opacity:1;fill-rule:nonzero;stroke:none"
             d="M 0,0 C -0.048,-0.018 -0.097,-0.04 -0.145,-0.069 -1.218,-0.702 0.107,-2.329 1.042,-1.629 1.887,-0.997 0.881,0.32 0,0" /></g><g
           transform="translate(87.4424,211.4731)"
           id="g196"><path
             id="path198"
             style="fill:#f68712;fill-opacity:1;fill-rule:nonzero;stroke:none"
             d="M 0,0 C -0.049,-0.018 -0.097,-0.04 -0.145,-0.068 -1.218,-0.702 0.106,-2.328 1.042,-1.628 1.887,-0.996 0.881,0.321 0,0" /></g><g
           transform="translate(70.8887,214.8442)"
           id="g200"><path
             id="path202"
             style="fill:#f68712;fill-opacity:1;fill-rule:nonzero;stroke:none"
             d="M 0,0 C -0.048,-0.018 -0.096,-0.041 -0.144,-0.068 -1.218,-0.702 0.106,-2.329 1.042,-1.629 1.887,-0.997 0.881,0.32 0,0" /></g><g
           transform="translate(91.6211,212.2563)"
           id="g204"><path
             id="path206"
             style="fill:#f68712;fill-opacity:1;fill-rule:nonzero;stroke:none"
             d="M 0,0 C -0.048,-0.018 -0.097,-0.041 -0.145,-0.068 -1.218,-0.702 0.107,-2.329 1.042,-1.628 1.887,-0.996 0.881,0.32 0,0" /></g><g
           transform="translate(88.6777,206.1611)"
           id="g208"><path
             id="path210"
             style="fill:#f68712;fill-opacity:1;fill-rule:nonzero;stroke:none"
             d="M 0,0 C -0.049,-0.018 -0.097,-0.041 -0.145,-0.068 -1.218,-0.702 0.106,-2.329 1.042,-1.629 1.887,-0.996 0.88,0.32 0,0" /></g><g
           transform="translate(85.0132,216.3823)"
           id="g212"><path
             id="path214"
             style="fill:#f68712;fill-opacity:1;fill-rule:nonzero;stroke:none"
             d="M 0,0 C -0.059,-0.033 -0.119,-0.074 -0.177,-0.123 -1.507,-1.233 -0.141,-3.618 1.035,-2.42 2.097,-1.338 1.069,0.6 0,0" /></g><g
           transform="translate(95.4214,226.6987)"
           id="g216"><path
             id="path218"
             style="fill:#604ba9;fill-opacity:1;fill-rule:nonzero;stroke:none"
             d="m 0,0 c -0.475,-0.453 -0.894,-0.938 -1.22,-1.493 -0.461,-0.782 -0.37,-1.423 -0.785,-2.168 -0.491,-0.882 -0.747,-0.996 -0.493,-1.707 0.384,-1.066 0.534,-2.388 1.772,-2.876 1.048,-0.412 3.108,-0.401 4.677,0.041 1.165,0.328 2.144,0.357 3.389,0.855 1.515,0.605 2.915,1.549 4.168,2.605 0.117,0.099 0.235,0.2 0.348,0.304 0.925,1.66 3.834,5.096 4.031,5.699 0.039,0.122 0.078,0.243 0.119,0.369 0.737,1.518 0.023,2.399 -0.603,3.61 -0.101,0.06 -0.213,0.108 -0.335,0.149 -0.856,0.287 -2.204,0.252 -2.761,0.89 -0.106,0.025 -0.212,0.046 -0.322,0.06 C 11.316,6.428 10.549,6.322 9.762,5.926 8.576,5.786 7.486,5.548 6.317,4.854 6.162,4.779 6.011,4.706 5.862,4.633 4.831,4.128 3.698,2.981 2.829,2.283 1.839,1.486 0.833,0.793 0,0" /></g><g
           transform="translate(73.7607,202.5781)"
           id="g220"><path
             id="path222"
             style="fill:#604ba9;fill-opacity:1;fill-rule:nonzero;stroke:none"
             d="m 0,0 c -0.109,-0.005 -0.229,-0.022 -0.355,-0.047 -0.084,0.022 -0.18,0.029 -0.285,0.025 -0.009,0 -0.019,-0.003 -0.026,-0.003 C -1.051,0.744 -1.425,1.567 -1.533,2.263 -1.615,2.307 -1.701,2.34 -1.789,2.372 -2.14,2.497 -2.51,2.582 -2.911,2.603 -3.161,2.617 -3.406,2.611 -3.653,2.582 -3.777,2.567 -3.9,2.547 -4.028,2.523 -5.134,2.028 -6.199,1.666 -7.316,0.97 -7.475,0.872 -7.636,0.766 -7.802,0.651 -8.096,0.397 -8.396,0.309 -8.896,-0.122 c -1.39,-0.814 -2.876,-2.287 -4.595,-3.83 -0.157,-0.163 -0.309,-0.322 -0.453,-0.481 -0.579,-0.633 -1.06,-1.247 -1.462,-1.859 -0.121,-0.183 -0.234,-0.366 -0.341,-0.549 -0.008,-0.018 -0.016,-0.035 -0.024,-0.054 -0.051,-0.073 -0.103,-0.146 -0.152,-0.22 -0.538,-1.454 -1.949,-3.155 -2.825,-4.589 -0.125,-0.205 -0.238,-0.404 -0.34,-0.605 -0.57,-2.196 -1.255,-4.13 -0.376,-4.919 0.049,-0.093 0.098,-0.182 0.148,-0.27 0.249,-0.437 3.531,-0.622 4.615,-1.332 0.126,0.028 0.255,0.063 0.386,0.102 1.614,0.473 2.97,1.276 4.802,2.706 0.004,0.002 0.009,0.003 0.013,0.005 0.783,0.083 1.755,0.775 2.707,1.732 0.137,0.138 0.272,0.28 0.407,0.427 0.973,1.568 2.532,2.915 3.678,4.246 0.165,0.191 0.319,0.382 0.467,0.579 1.34,2.524 2.619,4.63 2.517,6.213 0.017,0.153 0.033,0.301 0.048,0.448 0.01,0.11 -0.019,0.257 -0.078,0.432 0.106,0.498 0.22,1.018 0.35,1.584 C 0.563,-0.206 0.485,-0.117 0.38,-0.064 0.275,-0.012 0.147,0.006 0,0" /></g><g
           transform="translate(61.4756,215.6299)"
           id="g224"><path
             id="path226"
             style="fill:#604ba9;fill-opacity:1;fill-rule:nonzero;stroke:none"
             d="M 0,0 C -3.11,0.525 -6.973,0.89 -8.768,0.641 -8.942,0.616 -9.111,0.59 -9.281,0.561 c -8.174,-1.393 -6.914,-5.588 -5.435,-8.353 0.058,-0.107 0.125,-0.211 0.213,-0.313 1.81,-1.043 3.117,-1.987 5.45,-2.204 0.191,-0.034 0.376,-0.065 0.561,-0.096 0.925,-0.155 6.254,0.241 8.81,0.089 0.162,0.03 0.32,0.065 0.475,0.101 1.931,0.44 3.054,0.988 4.162,1.883 0.481,0.388 1.7,0.6 2.01,1.072 0.551,0.838 0.525,1.83 0.696,2.713 0.021,0.107 0.026,0.212 0.015,0.321 C 6.872,-3.195 6.474,-1.917 3.969,-0.933 3.181,-0.625 1.704,-0.288 0,0" /></g><g
           transform="translate(51.8877,230.3569)"
           id="g228"><path
             id="path230"
             style="fill:#604ba9;fill-opacity:1;fill-rule:nonzero;stroke:none"
             d="M 0,0 C -1.38,-0.936 -2.03,-2.417 -0.996,-4.687 -0.36,-5.494 0.162,-6.315 0.962,-7.055 1.077,-7.16 1.197,-7.265 1.324,-7.371 1.593,-7.538 1.728,-7.774 2.182,-8.06 3.137,-9 4.641,-9.774 6.253,-10.731 c 0.163,-0.08 0.324,-0.155 0.483,-0.224 1.202,-0.527 2.005,-0.602 3.137,-0.759 1.247,-0.174 2.482,-0.557 3.738,-0.78 0.191,-0.033 0.376,-0.06 0.558,-0.074 1.886,0.33 3.584,0.454 4.026,1.548 0.065,0.081 0.125,0.159 0.184,0.238 0.298,0.393 -0.268,3.42 0.066,4.67 -0.049,0.104 -0.106,0.206 -0.166,0.308 -0.234,0.409 -0.498,0.812 -0.805,1.203 -0.193,0.244 -0.388,0.47 -0.592,0.684 -0.102,0.107 -0.206,0.212 -0.314,0.316 -0.509,0.36 -1.001,0.73 -1.508,1.097 -0.237,0.674 -1.004,1.286 -1.979,1.775 -0.14,0.071 -0.282,0.138 -0.43,0.204 C 11.182,-0.25 9.763,0.638 8.447,1.16 8.257,1.234 8.072,1.301 7.879,1.359 5.74,1.58 2.058,1.396 0,0" /></g><g
           transform="translate(110.1182,214.8452)"
           id="g232"><path
             id="path234"
             style="fill:#604ba9;fill-opacity:1;fill-rule:nonzero;stroke:none"
             d="m 0,0 c -0.482,0.14 -0.979,0.25 -1.439,0.45 -0.868,0.378 -1.807,0.949 -2.552,1.454 -0.968,0.297 -2.628,0.75 -3.515,0.616 -3.187,-0.484 -4.933,-1.29 -6.819,-2.899 -0.067,-0.086 -0.126,-0.173 -0.178,-0.259 -0.209,-0.344 -0.309,-0.69 -0.304,-1.05 0.001,-0.107 0.013,-0.217 0.032,-0.326 0.005,-0.011 0.009,-0.022 0.013,-0.033 -0.002,-0.043 -0.008,-0.084 -0.008,-0.129 0.562,-0.926 0.187,-1.873 0.285,-2.728 0.014,-0.121 0.038,-0.242 0.078,-0.364 1.17,-1.442 1.955,-2.679 3.801,-3.384 0.147,-0.075 0.289,-0.146 0.432,-0.216 0.71,-0.351 5.196,-1.049 7.245,-1.735 0.967,-0.019 1.978,0.052 2.772,0.282 0.575,0.166 1.009,0.711 1.614,0.787 0.005,0 0.009,0 0.013,0 0.96,-0.076 1.638,0.239 2.056,0.746 0.06,0.072 0.114,0.148 0.163,0.228 -0.087,0.931 0.794,1.604 1.141,2.34 0.05,0.105 0.087,0.211 0.11,0.324 0.216,1.092 -0.692,2.737 -1.938,3.838 -0.6,0.53 -1.168,1.162 -1.917,1.616 C 0.75,-0.239 0.38,-0.11 0,0" /></g><g
           transform="translate(92.6587,203.3027)"
           id="g236"><path
             id="path238"
             style="fill:#604ba9;fill-opacity:1;fill-rule:nonzero;stroke:none"
             d="m 0,0 c -0.89,-0.298 -1.748,-0.671 -2.739,-0.696 -0.444,-0.457 -1.136,-1.31 -1.06,-2.227 0.275,-3.29 1.067,-5.75 2.799,-9.312 0.097,-0.162 0.194,-0.318 0.291,-0.466 0.389,-0.598 0.79,-1.105 1.217,-1.539 0.127,-0.13 0.258,-0.254 0.39,-0.37 0.014,-0.011 0.027,-0.019 0.04,-0.03 0.05,-0.054 0.1,-0.109 0.152,-0.163 1.151,-0.654 2.241,-2.128 3.263,-3.087 0.146,-0.136 0.291,-0.262 0.44,-0.378 1.82,-0.768 3.361,-1.612 4.37,-0.908 0.102,0.034 0.199,0.068 0.295,0.104 0.483,0.174 1.732,3.123 2.739,4.021 0.113,0.797 0.123,1.74 -0.075,2.693 -0.144,0.69 -0.748,1.721 -0.782,2.339 0.181,0.719 -0.129,1.678 -0.692,2.651 -0.08,0.139 -0.165,0.278 -0.254,0.416 -1.114,1.063 -1.83,2.63 -2.669,3.821 C 7.604,-2.961 7.482,-2.799 7.35,-2.642 6.125,-1.187 4.479,0.012 2.565,0.318 1.607,0.471 0.791,0.266 0,0" /></g><g
           transform="translate(50.0688,128.5557)"
           id="g240"><path
             id="path242"
             style="fill:#f68712;fill-opacity:1;fill-rule:nonzero;stroke:none"
             d="m 0,0 c -1.071,1.181 -2.221,3.154 -3.548,5.248 -0.122,0.216 -0.239,0.428 -0.351,0.637 -0.448,0.841 -0.821,1.639 -1.134,2.427 -0.092,0.233 -0.18,0.468 -0.263,0.702 -0.529,1.804 -1.074,3.618 -1.639,5.443 -1.698,5.485 2.296,5.903 4.978,5.174 0.095,-0.026 0.19,-0.057 0.287,-0.094 0.256,-0.1 0.525,-0.242 0.815,-0.453 0.096,-0.07 0.195,-0.149 0.297,-0.234 C 0.043,18.629 0.794,17.657 1.531,16.375 1.635,16.194 1.739,16.006 1.844,15.811 2.6,13.805 3.805,11.97 4.691,10.218 4.817,9.968 4.937,9.719 5.053,9.461 6.096,6.27 7.089,3.584 7.021,1.731 7.035,1.549 7.048,1.37 7.06,1.197 7.119,0.325 5.844,-2.12 5.663,-3.979 5.601,-4.018 5.535,-4.043 5.467,-4.065 5.199,-4.158 4.916,-4.201 4.608,-4.163 4.416,-4.139 4.229,-4.093 4.039,-4.019 3.943,-3.982 3.849,-3.939 3.75,-3.892 2.898,-3.132 2.079,-2.535 1.218,-1.539 1.095,-1.396 0.972,-1.246 0.844,-1.084 0.616,-0.737 0.386,-0.587 0,0" /></g><g
           transform="translate(64.2568,113.5557)"
           id="g244"><path
             id="path246"
             style="fill:#f68712;fill-opacity:1;fill-rule:nonzero;stroke:none"
             d="m 0,0 c -1.201,1.087 -1.595,2.118 -2.289,3.345 -0.032,0.108 -0.059,0.211 -0.075,0.308 -0.065,0.388 0.007,0.693 0.215,0.927 0.063,0.069 0.138,0.132 0.224,0.19 0.948,0.305 1.871,0.629 2.755,0.975 1.419,0.558 3.307,-0.623 5.575,-1.185 1.81,-0.448 3.434,-0.163 5.189,-1.552 0.177,-0.1 0.357,-0.201 0.538,-0.305 2.57,-1.469 5.27,-2.392 7.718,-4.015 0.203,-0.111 0.404,-0.222 0.601,-0.334 0.518,-0.294 1.01,-0.594 1.471,-0.91 0.155,-0.103 0.304,-0.211 0.453,-0.319 1.23,-0.692 1.889,-1.427 2.121,-2.083 0.034,-0.095 0.057,-0.187 0.075,-0.276 -0.632,-0.546 0.077,-1.673 0.093,-2.425 0.002,-0.108 -0.011,-0.207 -0.047,-0.299 -1.406,-0.673 -2.301,-1.38 -4.81,-0.945 -0.196,0.016 -0.387,0.034 -0.577,0.051 -0.951,0.093 -7.234,2.112 -10.035,2.684 -0.202,0.083 -0.402,0.169 -0.599,0.256 -0.791,0.346 -1.555,0.699 -2.281,1.067 -0.452,0.232 -0.863,0.451 -1.248,0.67 C 4.875,-4.066 4.69,-3.957 4.506,-3.848 3.327,-2.95 2.021,-2.062 1.118,-1.199 0.988,-1.074 0.866,-0.951 0.749,-0.825 0.616,-0.613 0.228,-0.36 0,0" /></g><g
           transform="translate(70.4912,94.502)"
           id="g248"><path
             id="path250"
             style="fill:#f68712;fill-opacity:1;fill-rule:nonzero;stroke:none"
             d="m 0,0 c -0.021,-1.454 -0.526,-2.367 -0.982,-3.596 -0.059,-0.091 -0.117,-0.175 -0.178,-0.247 -0.245,-0.292 -0.517,-0.444 -0.826,-0.466 -0.093,-0.005 -0.188,0.001 -0.286,0.017 -0.846,0.395 -1.687,0.762 -2.52,1.09 -1.338,0.526 -1.698,2.47 -2.763,4.253 -0.849,1.421 -2.12,2.252 -2.238,4.25 -0.041,0.174 -0.082,0.352 -0.124,0.532 -0.591,2.557 -1.669,4.844 -2.066,7.425 -0.051,0.199 -0.099,0.396 -0.146,0.592 -0.12,0.513 -0.218,1.016 -0.287,1.508 -0.024,0.164 -0.044,0.326 -0.059,0.491 -0.29,1.215 -0.178,2.103 0.158,2.673 0.046,0.082 0.1,0.158 0.154,0.226 0.816,-0.041 1.188,1.133 1.734,1.629 0.078,0.07 0.159,0.127 0.252,0.164 1.415,-0.443 2.522,-0.544 3.838,-2.395 0.115,-0.131 0.227,-0.264 0.338,-0.393 0.553,-0.654 3.158,-5.89 4.563,-8.011 C -1.367,9.563 -1.3,9.382 -1.235,9.203 -0.975,8.484 -0.739,7.777 -0.538,7.086 -0.415,6.652 -0.307,6.254 -0.219,5.872 -0.174,5.681 -0.133,5.496 -0.095,5.309 0.012,3.99 0.207,2.6 0.158,1.476 0.15,1.313 0.138,1.158 0.123,1.003 0.052,0.782 0.117,0.376 0,0" /></g><g
           transform="translate(60.749,91.3682)"
           id="g252"><path
             id="path254"
             style="fill:#f68712;fill-opacity:1;fill-rule:nonzero;stroke:none"
             d="m 0,0 c -0.496,-1.317 -1.243,-1.979 -2.05,-2.943 -0.082,-0.063 -0.161,-0.119 -0.239,-0.164 -0.314,-0.184 -0.605,-0.231 -0.885,-0.146 -0.085,0.026 -0.167,0.064 -0.249,0.112 -0.621,0.644 -1.246,1.262 -1.877,1.841 -1.014,0.93 -0.695,2.82 -1.055,4.801 -0.287,1.579 -1.141,2.763 -0.59,4.621 0.02,0.173 0.042,0.349 0.064,0.526 0.315,2.527 0.108,4.971 0.604,7.455 0.019,0.197 0.041,0.393 0.065,0.586 0.061,0.508 0.138,0.999 0.239,1.47 0.033,0.157 0.069,0.313 0.108,0.467 0.142,1.204 0.533,1.975 1.018,2.381 0.068,0.057 0.14,0.108 0.212,0.153 0.71,-0.312 1.423,0.63 2.07,0.898 0.093,0.038 0.184,0.061 0.278,0.065 1.109,-0.88 2.058,-1.346 2.618,-3.473 C 0.39,18.491 0.445,18.334 0.501,18.179 0.776,17.396 1.371,11.754 1.92,9.351 1.924,9.162 1.924,8.976 1.923,8.791 1.919,8.05 1.897,7.325 1.847,6.63 1.815,6.194 1.779,5.795 1.732,5.417 1.71,5.229 1.685,5.046 1.658,4.862 1.32,3.628 1.036,2.295 0.624,1.289 0.565,1.145 0.503,1.008 0.437,0.872 0.303,0.695 0.228,0.302 0,0" /></g><g
           transform="translate(68.8955,148.5791)"
           id="g256"><path
             id="path258"
             style="fill:#f68712;fill-opacity:1;fill-rule:nonzero;stroke:none"
             d="m 0,0 c -0.393,-0.146 -0.828,-0.419 -1.351,-0.932 -0.736,-0.718 -1.417,-1.915 -2.124,-2.631 -0.835,-0.849 -0.91,-0.707 -1.691,-2.234 -1.172,-2.294 -2.57,-4.714 -3.281,-7.138 -0.6,-2.053 -0.927,-4.703 -0.727,-5.993 0.15,-0.958 0.019,-2.178 0.331,-2.954 0.38,-0.944 1.13,-1.17 2.021,-1.016 0.084,0.014 0.169,0.031 0.259,0.058 1.573,1.598 4.664,3.61 5.259,4.371 0.119,0.152 0.239,0.306 0.363,0.466 1.455,1.599 2.488,4.008 3.85,6.858 0.079,0.232 0.147,0.457 0.21,0.685 0.439,1.59 0.624,3.279 1.38,5.078 0.042,0.178 0.082,0.351 0.115,0.517 0.202,1.018 0.219,1.834 -0.063,2.187 0.048,1.301 -0.017,2.315 -0.547,2.66 C 3.953,0.058 3.901,0.131 3.849,0.201 3.494,0.687 2.491,0.228 1.906,0.176 1.242,0.119 0.688,0.255 0,0" /></g><g
           transform="translate(61.3188,128.2158)"
           id="g260"><path
             id="path262"
             style="fill:#f68712;fill-opacity:1;fill-rule:nonzero;stroke:none"
             d="m 0,0 c 0.283,0.31 0.545,0.752 0.775,1.447 0.326,0.977 0.384,2.352 0.684,3.313 0.355,1.136 0.486,1.045 0.482,2.76 -0.008,2.575 0.127,5.367 -0.35,7.847 -0.405,2.1 -1.329,4.606 -2.097,5.662 -0.571,0.783 -1.014,1.928 -1.645,2.474 -0.77,0.666 -1.54,0.523 -2.263,-0.021 -0.068,-0.051 -0.136,-0.105 -0.202,-0.17 -0.669,-2.14 -2.496,-5.344 -2.677,-6.293 -0.036,-0.191 -0.072,-0.382 -0.108,-0.582 -0.563,-2.087 -0.38,-4.701 -0.286,-7.859 0.036,-0.242 0.079,-0.474 0.127,-0.705 0.338,-1.615 0.947,-3.201 1.097,-5.146 0.044,-0.177 0.088,-0.348 0.135,-0.512 0.286,-0.998 0.644,-1.731 1.057,-1.916 0.552,-1.179 1.075,-2.05 1.704,-2.115 0.08,-0.043 0.159,-0.084 0.237,-0.123 0.538,-0.27 1.221,0.597 1.717,0.911 C -1.049,-0.673 -0.494,-0.541 0,0" /></g><g
           transform="translate(66.1533,132.4854)"
           id="g264"><path
             id="path266"
             style="fill:#f68712;fill-opacity:1;fill-rule:nonzero;stroke:none"
             d="m 0,0 c -0.61,-0.521 -1.161,-1.068 -1.616,-1.67 -0.642,-0.848 -0.637,-1.471 -1.223,-2.276 -0.692,-0.951 -1,-1.104 -0.82,-1.772 0.274,-1.002 0.243,-2.294 1.578,-2.591 1.128,-0.25 3.473,0.076 5.325,0.753 1.375,0.504 2.492,0.681 3.984,1.367 1.815,0.833 3.55,1.984 5.137,3.225 0.149,0.116 0.297,0.235 0.443,0.356 1.303,1.792 5.134,5.651 5.45,6.282 0.065,0.127 0.127,0.253 0.192,0.385 1.07,1.621 0.391,2.388 -0.136,3.497 C 18.209,7.601 18.088,7.63 17.956,7.653 17.026,7.809 15.488,7.568 14.951,8.118 14.835,8.126 14.717,8.131 14.595,8.128 13.847,8.117 12.959,7.895 12.003,7.38 10.634,7.06 9.358,6.658 7.923,5.789 7.735,5.692 7.552,5.596 7.372,5.501 6.122,4.841 4.659,3.528 3.563,2.701 2.317,1.759 1.068,0.916 0,0" /></g><g
           transform="translate(56.1172,115.7754)"
           id="g268"><path
             id="path270"
             style="fill:#f68712;fill-opacity:1;fill-rule:nonzero;stroke:none"
             d="M 0,0 C -0.106,-0.014 -0.224,-0.042 -0.348,-0.078 -0.427,-0.062 -0.52,-0.063 -0.622,-0.077 -0.631,-0.079 -0.641,-0.083 -0.647,-0.083 -0.954,0.656 -1.245,1.45 -1.288,2.14 -1.364,2.177 -1.443,2.203 -1.526,2.227 -1.855,2.322 -2.207,2.375 -2.593,2.361 -2.835,2.353 -3.072,2.325 -3.314,2.275 -3.436,2.249 -3.558,2.218 -3.684,2.184 -4.798,1.59 -5.863,1.132 -7.006,0.335 -7.168,0.223 -7.333,0.104 -7.505,-0.027 c -0.307,-0.282 -0.606,-0.396 -1.128,-0.872 -1.418,-0.939 -2.988,-2.55 -4.788,-4.248 -0.167,-0.178 -0.328,-0.352 -0.481,-0.524 -0.617,-0.686 -1.137,-1.345 -1.58,-1.994 -0.133,-0.194 -0.258,-0.388 -0.377,-0.582 -0.011,-0.019 -0.02,-0.037 -0.029,-0.055 -0.055,-0.079 -0.113,-0.156 -0.167,-0.236 -0.649,-1.507 -2.165,-3.339 -3.139,-4.857 -0.139,-0.215 -0.266,-0.426 -0.382,-0.636 -0.744,-2.256 -1.577,-4.258 -0.795,-4.974 0.04,-0.089 0.08,-0.174 0.121,-0.258 0.203,-0.418 3.367,-0.316 4.355,-0.935 0.125,0.039 0.253,0.087 0.384,0.136 1.606,0.616 2.99,1.541 4.89,3.138 0.005,0.001 0.009,0.004 0.014,0.006 0.766,0.151 1.769,0.932 2.775,1.978 0.144,0.148 0.288,0.303 0.432,0.462 1.08,1.661 2.709,3.151 3.936,4.587 0.175,0.206 0.341,0.411 0.503,0.623 1.52,2.653 2.943,4.879 2.982,6.46 0.03,0.156 0.059,0.306 0.086,0.454 0.018,0.112 0.004,0.256 -0.038,0.426 0.146,0.511 0.302,1.044 0.477,1.623 C 0.528,-0.156 0.459,-0.074 0.363,-0.031 0.266,0.012 0.143,0.02 0,0" /></g><g
           transform="translate(47.0137,92.708)"
           id="g272"><path
             id="path274"
             style="fill:#f68712;fill-opacity:1;fill-rule:nonzero;stroke:none"
             d="m 0,0 c 0.068,0.048 0.14,0.11 0.215,0.181 0.058,0.016 0.12,0.05 0.187,0.096 0.005,0.005 0.011,0.011 0.015,0.014 0.407,-0.439 0.817,-0.924 1.032,-1.419 0.062,0 0.123,0.009 0.185,0.021 0.25,0.046 0.503,0.131 0.762,0.279 0.162,0.091 0.316,0.195 0.467,0.319 0.075,0.062 0.15,0.128 0.226,0.198 0.599,0.835 1.199,1.551 1.762,2.546 0.081,0.141 0.161,0.288 0.242,0.446 0.134,0.317 0.306,0.508 0.533,1.045 0.712,1.198 1.346,2.947 2.114,4.842 0.066,0.192 0.129,0.376 0.187,0.559 0.235,0.727 0.411,1.398 0.539,2.036 0.036,0.191 0.071,0.38 0.099,0.566 0.003,0.017 0.004,0.034 0.006,0.05 0.015,0.077 0.034,0.157 0.05,0.234 0.036,1.345 0.575,3.239 0.831,4.708 0.035,0.21 0.066,0.411 0.089,0.607 C 9.44,19.262 9.469,21.04 8.746,21.291 8.694,21.343 8.644,21.393 8.595,21.44 8.344,21.678 6.221,20.48 5.383,20.588 5.309,20.515 5.234,20.435 5.159,20.351 4.232,19.325 3.54,18.149 2.677,16.294 2.675,16.291 2.672,16.288 2.669,16.285 2.189,15.899 1.717,14.967 1.314,13.837 1.256,13.675 1.2,13.51 1.145,13.341 0.856,11.729 0.148,10.049 -0.3,8.55 -0.364,8.335 -0.422,8.124 -0.475,7.91 -0.796,5.408 -1.166,3.255 -0.768,2.07 -0.746,1.945 -0.726,1.822 -0.705,1.704 -0.688,1.615 -0.639,1.513 -0.564,1.401 -0.527,0.973 -0.49,0.522 -0.453,0.031 -0.401,-0.071 -0.333,-0.108 -0.255,-0.106 -0.178,-0.104 -0.093,-0.065 0,0" /></g><g
           transform="translate(45.1172,125.4951)"
           id="g276"><path
             id="path278"
             style="fill:#f68712;fill-opacity:1;fill-rule:nonzero;stroke:none"
             d="m 0,0 c -3.486,1.11 -5.417,1.373 -7.287,1.906 -1.87,0.533 -4.206,0.691 -5.549,0.916 -1.343,0.228 -2.584,-0.86 -4.61,-1.062 -2.027,-0.203 -1.882,-3.806 -0.868,-4.686 1.013,-0.879 1.123,-1.967 2.188,-2.644 1.065,-0.678 2.948,-1.345 4.533,-1.751 0.214,-0.07 0.422,-0.136 0.63,-0.201 1.035,-0.33 7.17,-1.077 10.069,-1.74 0.189,-0.006 0.373,-0.009 0.556,-0.009 2.258,-0.004 3.607,0.251 4.981,0.821 0.596,0.247 2.015,0.183 2.425,0.541 0.732,0.634 0.823,1.523 1.126,2.274 C 8.23,-5.543 8.25,-5.45 8.249,-5.351 7.458,-4.266 7.158,-3.044 4.418,-1.65 3.557,-1.213 1.911,-0.607 0,0" /></g><g
           transform="translate(38.6157,107.4277)"
           id="g280"><path
             id="path282"
             style="fill:#f68712;fill-opacity:1;fill-rule:nonzero;stroke:none"
             d="m 0,0 c 3.463,1.177 7.645,2.866 9.406,3.982 0.171,0.109 0.336,0.216 0.499,0.327 7.911,5.283 4.79,7.952 2.058,9.378 -0.107,0.054 -0.221,0.102 -0.357,0.138 C 9.272,13.723 7.504,13.799 4.981,12.774 4.768,12.703 4.561,12.634 4.354,12.563 3.326,12.212 -2.054,9.171 -4.781,7.982 -4.936,7.876 -5.085,7.769 -5.232,7.661 -7.053,6.323 -7.985,5.316 -8.753,4.042 -9.087,3.49 -10.266,2.698 -10.384,2.167 c -0.211,-0.944 0.242,-1.715 0.446,-2.499 0.023,-0.096 0.063,-0.181 0.123,-0.261 1.281,-0.402 2.248,-1.209 5.279,-0.702 C -3.583,-1.137 -1.899,-0.646 0,0" /></g><g
           transform="translate(34.9185,137.542)"
           id="g284"><path
             id="path286"
             style="fill:#f68712;fill-opacity:1;fill-rule:nonzero;stroke:none"
             d="m 0,0 c -1.66,-0.451 -2.491,-1.646 -1.392,-4.11 0.706,-0.96 1.276,-1.898 2.176,-2.845 0.129,-0.135 0.264,-0.272 0.408,-0.411 0.307,-0.241 0.453,-0.507 0.97,-0.918 1.072,-1.186 2.793,-2.386 4.632,-3.793 0.188,-0.126 0.373,-0.247 0.556,-0.362 1.379,-0.874 2.315,-1.194 3.632,-1.698 1.45,-0.553 2.876,-1.301 4.335,-1.904 0.221,-0.092 0.436,-0.173 0.648,-0.244 2.222,-0.278 4.215,-0.693 4.785,0.202 0.079,0.056 0.153,0.11 0.226,0.167 0.367,0.276 -0.147,3.31 0.303,4.384 -0.052,0.112 -0.114,0.227 -0.179,0.343 -0.254,0.459 -0.544,0.921 -0.885,1.385 -0.214,0.291 -0.429,0.565 -0.659,0.83 -0.114,0.133 -0.23,0.265 -0.351,0.398 -0.579,0.498 -1.136,1.001 -1.712,1.506 -0.243,0.709 -1.112,1.526 -2.228,2.292 -0.16,0.11 -0.324,0.218 -0.493,0.327 -1.706,0.718 -3.322,2 -4.837,2.904 -0.218,0.129 -0.432,0.25 -0.654,0.365 C 6.791,-0.305 2.474,0.673 0,0" /></g><g
           transform="translate(81.6987,129.6475)"
           id="g288"><path
             id="path290"
             style="fill:#f68712;fill-opacity:1;fill-rule:nonzero;stroke:none"
             d="m 0,0 c -0.646,-0.135 -1.296,-0.294 -1.951,-0.384 -1.237,-0.171 -2.664,-0.261 -3.827,-0.303 -1.31,-0.26 -3.524,-0.742 -4.496,-1.215 -3.493,-1.705 -5.104,-2.952 -6.43,-4.725 -0.029,-0.08 -0.051,-0.156 -0.064,-0.229 -0.056,-0.292 0.021,-0.538 0.228,-0.744 0.062,-0.06 0.136,-0.119 0.221,-0.173 0.012,-0.003 0.023,-0.008 0.035,-0.013 0.02,-0.026 0.037,-0.053 0.063,-0.079 1.18,-0.283 1.268,-0.997 1.862,-1.448 0.086,-0.064 0.18,-0.123 0.297,-0.174 2.188,-0.312 3.808,-0.675 6.384,-0.256 0.214,0.022 0.424,0.046 0.629,0.069 1.036,0.115 6.725,1.718 9.528,2.237 1.153,0.422 2.307,0.916 3.116,1.403 0.587,0.354 0.792,0.863 1.466,1.177 0.005,0.003 0.009,0.004 0.014,0.006 1.177,0.385 1.801,0.871 2.011,1.351 0.031,0.068 0.051,0.137 0.064,0.205 -0.625,0.498 0.039,1.281 0.038,1.861 0,0.083 -0.015,0.162 -0.052,0.237 C 8.779,-0.47 6.787,0.074 4.699,0.153 3.693,0.191 2.668,0.302 1.531,0.23 1.02,0.197 0.511,0.105 0,0" /></g><g
           transform="translate(82.6045,122.1523)"
           id="g292"><path
             id="path294"
             style="fill:#f68712;fill-opacity:1;fill-rule:nonzero;stroke:none"
             d="m 0,0 c -0.658,0.07 -1.325,0.117 -1.976,0.23 -1.23,0.216 -2.616,0.568 -3.736,0.883 -1.327,0.151 -3.582,0.37 -4.653,0.215 -3.847,-0.557 -5.761,-1.252 -7.566,-2.535 -0.051,-0.066 -0.095,-0.133 -0.131,-0.197 -0.142,-0.262 -0.143,-0.519 -0.009,-0.778 0.041,-0.078 0.093,-0.156 0.157,-0.234 0.01,-0.007 0.018,-0.015 0.028,-0.022 0.012,-0.032 0.021,-0.062 0.037,-0.094 1.037,-0.631 0.903,-1.338 1.33,-1.948 0.063,-0.087 0.135,-0.171 0.23,-0.257 1.988,-0.965 3.42,-1.805 6.001,-2.194 0.211,-0.044 0.417,-0.086 0.62,-0.127 1.022,-0.207 6.928,-0.418 9.755,-0.78 1.227,0.05 2.477,0.167 3.397,0.384 0.667,0.158 1.018,0.58 1.755,0.674 0.006,0.001 0.01,0.001 0.015,0.001 1.239,0.007 1.981,0.279 2.329,0.672 0.049,0.056 0.089,0.115 0.123,0.175 -0.443,0.665 0.428,1.208 0.604,1.762 0.025,0.078 0.035,0.157 0.023,0.241 C 8.216,-3.128 6.484,-2.001 4.52,-1.289 3.574,-0.945 2.631,-0.525 1.528,-0.247 1.031,-0.122 0.518,-0.054 0,0" /></g><g
           transform="translate(61.479,113.4766)"
           id="g296"><path
             id="path298"
             style="fill:#f68712;fill-opacity:1;fill-rule:nonzero;stroke:none"
             d="m 0,0 c -0.649,-0.323 -1.234,-0.712 -2.104,-0.8 -0.177,-0.433 -0.387,-1.233 0.116,-2.038 1.809,-2.884 3.684,-5.002 6.919,-8.027 0.162,-0.137 0.323,-0.267 0.479,-0.392 0.63,-0.501 1.228,-0.921 1.814,-1.275 0.175,-0.107 0.35,-0.206 0.524,-0.3 0.016,-0.009 0.032,-0.016 0.049,-0.023 0.071,-0.044 0.14,-0.091 0.213,-0.135 1.335,-0.499 3.004,-1.725 4.369,-2.502 0.196,-0.111 0.384,-0.212 0.571,-0.304 1.984,-0.554 3.756,-1.195 4.319,-0.505 0.074,0.037 0.144,0.073 0.213,0.112 0.347,0.186 0.055,2.873 0.522,3.734 -0.278,0.712 -0.717,1.544 -1.347,2.372 -0.456,0.6 -1.484,1.469 -1.808,2.012 -0.18,0.645 -0.912,1.471 -1.875,2.293 -0.139,0.116 -0.28,0.233 -0.425,0.348 -1.495,0.862 -2.878,2.197 -4.19,3.191 C 8.17,-2.098 7.985,-1.963 7.792,-1.832 6.011,-0.631 3.978,0.315 2.13,0.455 1.206,0.524 0.578,0.288 0,0" /></g><g
           transform="translate(143.4375,154.043)"
           id="g300"><path
             id="path302"
             style="fill:#3871c1;fill-opacity:1;fill-rule:nonzero;stroke:none"
             d="M 0,0 C -0.208,0.166 -0.417,0.318 -0.634,0.466 -2.153,1.502 -4.028,2.35 -5.5,3.757 -5.674,3.868 -5.848,3.972 -6.019,4.069 -7.219,4.75 -8.328,5.101 -9.025,4.811 -9.158,4.811 -9.288,4.806 -9.411,4.794 -9.783,4.761 -10.109,4.677 -10.406,4.559 -10.52,4.514 -10.629,4.463 -10.735,4.408 -12.618,4.175 -12.934,2.702 -14.431,2.125 -14.536,2.084 -14.64,2.044 -14.74,2.002 c -1.806,0.145 -0.291,-1.914 -0.155,-3.14 0.17,-1.536 -1.135,-1.819 0.814,-4.048 1.214,-1.388 2.402,-2.783 3.572,-4.183 0.166,-0.168 0.338,-0.333 0.516,-0.494 0.592,-0.538 1.252,-1.038 2.004,-1.515 0.187,-0.119 0.381,-0.236 0.582,-0.353 2.091,-1.006 3.956,-2.043 5.468,-2.333 0.6,-0.271 0.889,-0.228 1.244,-0.388 0.188,-0.056 0.367,-0.104 0.542,-0.143 1.232,-0.283 2.282,-0.189 3.422,-0.236 0.11,0.033 0.214,0.067 0.317,0.108 -0.258,0.19 -0.518,0.398 -0.763,0.619 -0.912,0.824 -1.267,1.545 -1.832,1.964 -0.565,0.418 -1.922,1.42 -2.325,1.787 -0.404,0.369 -1.128,0.919 -1.449,1.183 -0.319,0.264 -1.335,1.259 -1.335,1.259 0,0 4.18,-1.856 4.516,-2.244 0.336,-0.39 1.905,-1.868 2.127,-2.09 0.221,-0.222 0.676,-0.072 0.676,-0.072 0,0 -0.388,1.585 -0.68,1.909 -0.29,0.323 -1.173,1.409 -1.69,1.86 -0.518,0.45 -1.362,1.482 -1.445,1.907 -0.083,0.427 -0.524,1.493 -0.406,1.412 0.12,-0.079 2.002,-1.607 2.002,-1.607 0.733,-0.866 1.046,-1.02 1.598,-1.826 0.551,-0.806 0.739,-1.08 1.151,-1.683 0.413,-0.602 0.443,-1.179 0.9,-1.315 0.131,-0.038 0.293,-0.087 0.459,-0.135 -0.112,1.99 0.117,4.371 -0.169,5.038 -0.072,0.168 -0.146,0.34 -0.224,0.515 C 4.127,-4.28 2.177,-2.377 0,0" /></g><g
           transform="translate(186.6465,144.5557)"
           id="g304"><path
             id="path306"
             style="fill:#3871c1;fill-opacity:1;fill-rule:nonzero;stroke:none"
             d="m 0,0 c 0.004,0.129 0.007,0.253 0.009,0.376 0.011,0.85 -1.134,1.611 -1.662,2.248 -0.6,0.724 -0.984,1.495 -1.728,2.069 -0.427,0.328 -0.97,0.592 -1.741,0.745 -1.087,0.217 -2.431,-0.058 -3.488,0.126 -1.253,0.217 -1.224,0.432 -2.867,-0.022 -2.462,-0.683 -5.199,-1.215 -7.356,-2.554 -1.824,-1.134 -3.802,-3.125 -4.458,-4.512 -0.488,-1.032 -1.383,-1.97 -1.614,-3.029 -10e-4,-0.006 -0.002,-0.01 -0.003,-0.014 0.267,0.324 0.515,0.573 0.671,0.609 0.499,0.116 1.44,0.9 2.435,1.202 0.994,0.302 2.45,1.334 2.875,1.463 0.428,0.129 0.74,0.777 0.896,0.502 0.154,-0.276 0.36,-0.648 -0.593,-1.496 -0.953,-0.849 -1.724,-1.021 -2.272,-1.483 -0.551,-0.461 -0.956,-0.459 -1.569,-0.894 -0.612,-0.435 -0.873,-0.783 -0.902,-0.952 -0.029,-0.17 -0.656,-1.477 -0.656,-1.477 0,0 3.782,0.848 4.059,0.897 0.277,0.048 2.357,1.176 2.652,1.328 0.295,0.151 0.084,-0.689 -0.167,-0.983 -0.252,-0.294 -1.685,-0.79 -2.123,-0.986 -0.436,-0.194 -1.322,-0.648 -1.868,-0.691 -0.546,-0.042 -1.551,-0.005 -2.075,-0.321 -0.056,-0.032 -0.116,-0.064 -0.177,-0.094 0.045,-0.043 0.085,-0.087 0.134,-0.129 2.357,-0.41 6.266,-2.22 7.259,-2.235 0.198,-0.003 0.398,-0.005 0.605,-0.006 2.26,-0.271 4.679,0.677 7.661,1.636 0.215,0.115 0.417,0.238 0.618,0.367 1.391,0.913 2.632,2.206 4.424,2.932 0.151,0.108 0.294,0.219 0.43,0.329 0.823,0.674 1.361,1.384 1.348,2.029 C -0.366,-1.912 0.227,-0.927 0,0" /></g><g
           transform="translate(179.9395,114.334)"
           id="g308"><path
             id="path310"
             style="fill:#3871c1;fill-opacity:1;fill-rule:nonzero;stroke:none"
             d="m 0,0 c 0.008,0.112 0.007,0.227 0.003,0.343 -0.362,1.041 -0.579,2.032 -1.167,3.095 -0.084,0.153 -0.175,0.305 -0.273,0.464 -0.238,0.287 -0.282,0.564 -0.682,1.049 -0.673,1.32 -2.079,2.778 -3.523,4.45 -0.155,0.156 -0.309,0.304 -0.463,0.447 -1.168,1.084 -2.086,1.563 -3.351,2.285 -1.397,0.796 -2.676,1.768 -4.056,2.613 -0.209,0.127 -0.417,0.246 -0.625,0.353 -0.179,0.05 -0.357,0.101 -0.533,0.153 l -0.473,-0.375 -0.83,-0.775 c 0,0 -0.702,0.252 -0.811,0.695 -0.111,0.443 -1.004,0.275 -1.004,0.275 l -0.34,-0.673 0.691,-1.132 c 0.216,-0.06 0.436,-0.946 0.436,-0.946 -0.046,-0.164 -0.99,-1.357 -0.99,-1.357 -0.281,0.1 -0.346,0.426 -0.21,0.64 0.136,0.214 -0.356,0.671 -0.439,0.931 -0.084,0.259 -0.684,0.6 -0.684,0.6 0,0 -0.151,-0.548 -0.196,-0.713 -0.044,-0.163 -0.116,-0.424 -0.116,-0.424 0,0 0.132,-0.642 0.203,-0.955 0.071,-0.314 0.365,-0.631 0.463,-0.836 0.098,-0.203 0.208,-0.645 0.208,-0.645 l -0.353,-1.289 -0.739,1.234 -1.032,2.996 -0.634,0.37 c -0.265,-0.516 -0.549,-0.979 -0.853,-1.259 0.009,-0.116 0.025,-0.236 0.046,-0.356 0.078,-0.482 0.193,-0.972 0.368,-1.474 0.107,-0.314 0.229,-0.614 0.366,-0.908 0.07,-0.147 0.142,-0.293 0.218,-0.44 0.43,-0.58 0.831,-1.159 1.251,-1.731 10e-4,-0.004 0.002,-0.009 0.003,-0.013 -0.049,-0.714 0.561,-1.648 1.478,-2.582 0.131,-0.133 0.268,-0.266 0.411,-0.4 1.61,-0.999 2.857,-2.513 4.164,-3.65 0.188,-0.164 0.376,-0.318 0.575,-0.467 2.628,-1.402 4.789,-2.717 6.611,-2.745 0.843,-0.015 2.437,-0.617 3.024,-0.395 0.184,0.069 0.286,0.198 0.362,0.349 0.153,0.303 0.196,0.693 0.562,0.862 0.529,0.243 1.845,0.064 2.183,0.44 0.064,0.071 0.118,0.146 0.17,0.223 0.206,0.309 0.372,0.638 0.471,0.998 C -0.049,-0.448 -0.012,-0.227 0,0" /></g><g
           transform="translate(156.6592,128.9756)"
           id="g312"><path
             id="path314"
             style="fill:#3871c1;fill-opacity:1;fill-rule:nonzero;stroke:none"
             d="M 0,0 C 0.91,0.494 1.723,1.083 2.137,1.615 2.192,1.688 2.246,1.766 2.298,1.841 2.504,2.145 2.689,2.454 2.839,2.77 2.934,2.969 3.013,3.157 3.076,3.343 3.107,3.436 3.137,3.526 3.162,3.619 3.191,4.355 3.3,5.095 3.194,5.791 3.179,5.891 3.16,5.989 3.137,6.089 3.06,6.255 3.099,6.466 2.97,6.746 2.163,8.495 2.079,9.787 0.139,10.534 c -0.68,0.262 -1.243,0.698 -1.9,1.002 -0.099,0.046 -0.2,0.086 -0.304,0.114 C -3.403,11.549 -4.517,11.603 -5.362,10.723 -5.445,10.661 -5.524,10.602 -5.603,10.54 -9.229,7.722 -9.333,-1.019 -3.426,-1.128 -2.573,-1.144 -1.202,-0.653 0,0" /></g><g
           transform="translate(156.5029,119.7471)"
           id="g316"><path
             id="path318"
             style="fill:#3871c1;fill-opacity:1;fill-rule:nonzero;stroke:none"
             d="M 0,0 C -0.181,0.664 -0.74,1.154 -0.829,1.855 -0.831,1.861 -0.831,1.865 -0.832,1.87 -0.781,2.89 -1.056,3.623 -1.498,4.104 -1.5,4.097 -1.749,3.403 -2.093,3.371 -2.438,3.338 -2.669,2.607 -2.669,2.607 L -2.957,2.01 c 0,0 -0.345,-1.196 -0.518,-1.461 -0.172,-0.266 -0.685,-1.262 -0.685,-1.262 0.122,0.465 -0.006,0.332 0,0.766 0.007,0.433 -0.006,1.557 0,2.155 0.007,0.599 0.109,0.93 0.34,1.396 0.23,0.463 0,0 -0.34,0.332 -0.339,0.331 -0.696,0.131 -0.696,0.131 0,0 -0.403,-0.53 -0.634,-0.638 -0.23,-0.107 -0.461,-0.822 -0.512,-1.021 -0.052,-0.2 -1.146,-0.531 -1.146,-0.531 0,0 0.218,0.398 0.564,1.129 0.345,0.73 0.403,0.996 0.356,1.393 -0.039,0.33 0.291,0.954 0.537,1.273 C -6.619,5.331 -7.647,4.484 -8.403,3.45 -8.923,2.737 -9.547,2.061 -9.988,1.177 c -0.198,-0.395 -0.318,-0.828 -0.42,-1.274 -0.13,-0.563 -0.23,-1.144 -0.42,-1.683 -0.36,-1.021 -0.915,-2.126 -1.406,-3.008 -0.277,-1.133 -0.695,-3.074 -0.538,-4.103 0.562,-3.692 1.415,-5.7 3.082,-7.849 0.088,-0.074 0.176,-0.142 0.264,-0.199 0.352,-0.235 0.704,-0.341 1.066,-0.326 0.108,0.004 0.218,0.021 0.328,0.046 0.011,0.005 0.022,0.012 0.033,0.016 0.043,-0.001 0.085,-0.006 0.13,-0.004 0.92,0.676 1.885,0.267 2.743,0.403 0.123,0.02 0.243,0.051 0.365,0.102 1.428,1.398 2.657,2.344 3.324,4.509 0.071,0.172 0.139,0.339 0.208,0.507 0.336,0.836 0.935,6.07 1.579,8.471 C 0.346,-2.09 0.251,-0.918 0,0" /></g><g
           transform="translate(151.7656,147.4922)"
           id="g320"><path
             id="path322"
             style="fill:#3871c1;fill-opacity:1;fill-rule:nonzero;stroke:none"
             d="m 0,0 c 0.336,-0.687 1.038,-1.104 1.286,-1.852 0.002,-0.005 0.003,-0.009 0.004,-0.015 0.169,-1.124 0.62,-1.868 1.195,-2.299 0.001,0.007 0.116,0.817 0.474,0.926 0.36,0.109 0.445,0.956 0.445,0.956 l 0.178,0.715 c 0,0 0.106,1.38 0.232,1.706 C 3.94,0.463 4.269,1.66 4.269,1.66 4.241,1.127 4.348,1.299 4.435,0.823 4.523,0.349 4.78,-0.878 4.904,-1.532 5.027,-2.188 4.99,-2.572 4.847,-3.129 c -0.144,-0.557 0,0 0.432,-0.29 0.434,-0.291 0.771,0.002 0.771,0.002 0,0 0.312,0.666 0.535,0.831 0.222,0.167 0.311,0.996 0.321,1.226 0.013,0.228 1.105,0.822 1.105,0.822 0,0 -0.148,-0.482 -0.356,-1.353 C 7.447,-2.762 7.443,-3.063 7.58,-3.49 7.693,-3.84 7.479,-4.591 7.285,-4.993 c 0.913,0.568 1.822,1.711 2.402,3.002 0.398,0.888 0.914,1.761 1.191,2.819 0.124,0.473 0.158,0.973 0.17,1.481 0.014,0.643 -0.006,1.299 0.08,1.929 0.161,1.191 0.51,2.517 0.841,3.584 0.048,1.297 0.069,3.506 -0.321,4.598 -1.4,3.916 -2.744,5.93 -4.983,7.925 C 6.554,20.408 6.446,20.462 6.339,20.507 5.914,20.689 5.518,20.731 5.137,20.638 5.021,20.61 4.907,20.57 4.797,20.518 4.786,20.509 4.775,20.501 4.765,20.493 4.72,20.485 4.672,20.482 4.625,20.471 3.794,19.537 2.68,19.781 1.797,19.449 1.67,19.401 1.549,19.342 1.43,19.261 0.217,17.432 -0.884,16.137 -1.124,13.63 -1.162,13.426 -1.198,13.229 -1.233,13.032 -1.409,12.047 -0.908,6.2 -1.071,3.44 -0.822,2.211 -0.466,0.949 0,0" /></g><g
           transform="translate(146.9453,130.5215)"
           id="g324"><path
             id="path326"
             style="fill:#3871c1;fill-opacity:1;fill-rule:nonzero;stroke:none"
             d="m 0,0 -1.354,0.105 c -0.19,-0.06 -0.468,-0.285 -0.678,-0.281 -0.21,0.004 -0.642,-0.618 -1.105,-0.692 -0.464,-0.075 -1.57,-0.768 -2.096,-0.653 -0.527,0.114 -1.479,0.48 -1.479,0.48 0,0 0.43,0.444 1.044,0.914 0.614,0.47 0.356,-0.236 0.693,-0.201 0.337,0.035 1.049,-0.022 2.092,0.652 1.042,0.672 1.355,0.562 1.466,0.874 0.112,0.313 0.143,0.879 0.05,1.198 -0.092,0.319 -0.129,0.415 -0.129,0.415 0,0 -0.513,0.29 -1.238,0.829 -0.226,0.168 -0.543,0.177 -0.986,0.04 -0.445,-0.139 -1.081,0.567 -1.081,0.567 0.614,0.261 1.458,0.454 1.902,0.592 0.443,0.14 0.958,-0.396 1.461,-0.448 0.462,-0.048 0.864,-0.463 1.323,-0.732 0.013,0.065 0.026,0.131 0.042,0.191 C -0.129,3.94 -0.192,4.026 -0.259,4.109 -0.522,4.441 -0.821,4.75 -1.172,5.014 -1.393,5.179 -1.616,5.321 -1.851,5.443 -1.968,5.505 -2.088,5.562 -2.213,5.615 -3.416,5.812 -4.527,6.11 -5.823,6.121 -6.007,6.124 -6.195,6.119 -6.394,6.11 -6.765,6.043 -7.071,6.142 -7.702,6.031 -9.292,6.094 -11.245,5.581 -13.436,5.143 -13.646,5.082 -13.848,5.021 -14.044,4.956 -14.83,4.698 -15.519,4.402 -16.136,4.059 -16.32,3.955 -16.499,3.848 -16.671,3.735 L -16.715,3.7 c -0.077,-0.04 -0.154,-0.078 -0.229,-0.12 -1.09,-1.07 -3.069,-1.848 -4.457,-2.694 -0.197,-0.12 -0.382,-0.243 -0.557,-0.373 -1.428,-1.767 -2.85,-3.208 -2.386,-4.5 0.005,-0.12 0.012,-0.235 0.021,-0.35 0.042,-0.572 2.922,-2.743 3.603,-4.084 0.126,-0.051 0.256,-0.096 0.39,-0.137 1.653,-0.527 3.208,-0.579 5.455,-0.318 0.004,0 0.008,-0.002 0.014,-0.003 0.739,-0.395 1.903,-0.321 3.16,0.021 0.18,0.047 0.361,0.102 0.544,0.162 1.53,0.916 3.495,1.262 5.083,1.845 0.226,0.085 0.445,0.173 0.661,0.273 2.258,1.612 4.287,2.859 4.854,4.443 0.08,0.137 0.155,0.269 0.229,0.402 0.055,0.098 0.09,0.257 0.11,0.461 0.303,0.415 0.622,0.845 0.975,1.311 C 0.789,0.203 0.754,0.336 0.682,0.45 Z" /></g><g
           transform="translate(228.6523,236.0371)"
           id="g328"><path
             id="path330"
             style="fill:#fabdbd;fill-opacity:1;fill-rule:nonzero;stroke:none"
             d="m 0,0 1.867,-1.245 v -1.369 l 1.493,1.306 c 0,0 -0.746,0.436 0,0.809 l 0.747,0.374 1.744,0.623 c 0,0 2.365,-2.117 2.863,-2.241 0.498,-0.125 1.867,-1.618 2.489,-1.867 0.623,-0.249 1.992,-1.245 1.992,-1.245 1.369,-1.619 0.746,-0.623 1.369,-1.619 0.623,-0.996 1.495,-3.111 1.619,-3.609 0.125,-0.498 0.622,-1.474 0.622,-1.868 0,-3.112 0.029,-3.487 0,-3.859 -0.124,-1.618 0.648,-1.867 0.012,-3.112 -0.634,-1.245 -0.883,-2.614 -1.007,-2.988 -0.125,-0.373 -0.125,-0.995 -0.623,-1.867 -0.498,-0.871 -0.498,-2.241 -0.996,-2.739 -0.499,-0.498 -1.37,-1.618 -1.868,-2.365 -0.497,-0.746 -1.369,-1.494 -1.742,-1.867 -0.374,-0.374 -1.352,-0.747 -2.046,-1.121 -0.692,-0.373 -2.435,-0.622 -2.684,-0.746 -0.249,-0.125 -1.121,-0.373 -1.992,0 -0.872,0.373 -5.228,1.369 -5.727,1.991 -0.498,0.623 -2.239,2.615 -2.489,3.237 -0.249,0.622 -0.872,1.494 -1.121,2.49 -0.248,0.996 -0.996,2.987 -0.996,2.987 0,0 0.498,1.121 0,2.241 -0.497,1.12 -0.996,2.915 -1.12,3.511 -0.124,0.597 -0.623,1.842 -0.747,2.838 -0.125,0.996 -0.125,1.494 0,2.365 0.124,0.872 -0.061,2.365 -0.094,2.988 -0.031,0.622 -0.466,1.245 0,2.115 0.468,0.873 0.468,2.491 0.965,2.989 0.499,0.497 0.872,1.369 0.872,1.369 0,0 1.369,1.618 1.743,1.992 0.374,0.373 2.987,0.871 2.987,0.871 l 1.868,0 z" /></g><g
           transform="translate(230.7598,208.1758)"
           id="g332"><path
             id="path334"
             style="fill:#fabdbd;fill-opacity:1;fill-rule:nonzero;stroke:none"
             d="M 0,0 C 0.22,0.334 -0.031,0.902 0.408,1.886 0.85,2.869 0.974,2.782 1.286,3.542 1.6,4.302 0.452,3.787 1.537,4.698 2.62,5.609 2.872,5.745 2.912,5.928 2.951,6.11 2.758,6.917 3.163,7.083 3.568,7.25 4.305,7.918 4.429,8.146 c 0.123,0.228 1.207,1.139 1.445,1.215 0.237,0.076 0.863,0.577 1.354,0.789 0.489,0.212 2.3,1.411 2.3,1.411 0,0 0.348,0.243 0.53,0.394 0.179,0.152 1.83,1.002 1.724,0.864 -0.104,-0.138 0.684,0.269 0.684,0.269 0,0 0.677,0.49 1.029,0.413 0.353,-0.076 2.558,0.21 3.263,0.056 0.705,-0.153 1.552,-0.337 1.975,-0.429 0.423,-0.091 1.662,-0.17 1.975,-0.429 0.313,-0.259 1.992,-0.688 2.632,-1.144 0.639,-0.458 1.742,-0.825 2.142,-1.358 0.402,-0.533 1.897,-0.794 2.158,-1.296 0.259,-0.503 0.392,-0.913 0.838,-1.583 0.445,-0.671 0.903,-1.279 1.164,-1.782 0.259,-0.502 1.424,-2.284 1.424,-2.284 L 30.22,2.077 28.413,0.899 c 0,0 2.063,-0.703 2.318,-0.886 0.256,-0.183 1.073,-0.169 1.283,-0.215 0.213,-0.046 0.702,-0.854 0.706,-1.173 0.005,-0.319 -0.454,-0.729 -0.29,-1.338 0.163,-0.609 -0.223,-0.779 -0.334,-1.583 -0.111,-0.804 0.036,-1.919 -0.37,-2.213 -0.407,-0.294 -1.936,-1.554 -1.936,-1.554 l -5.184,-1.422 c 0,0 -2.35,-0.954 -2.798,-0.984 -0.452,-0.03 -1.456,-0.575 -1.791,-0.758 -0.335,-0.182 -2.906,-0.452 -3.606,-0.618 -0.701,-0.166 -1.701,-0.522 -2.499,-0.54 -0.799,-0.017 -0.975,0.531 -1.323,0.287 -0.349,-0.242 -2.05,-0.255 -2.755,-0.102 -0.706,0.153 -1.327,0.352 -1.835,0.399 -0.506,0.046 -0.829,-0.075 -1.34,0.291 -0.512,0.365 -0.587,0.7 -1.08,0.808 -0.494,0.107 -0.512,0.366 -1.111,1.005 -0.599,0.64 -0.631,0.838 -1.332,1.691 -0.701,0.853 -0.648,1.096 -1.164,1.781 -0.516,0.686 -0.944,1.097 -1.465,2.102 -0.52,1.005 -0.713,1.485 -0.983,2.28 C -0.745,-1.048 0,0 0,0" /></g><g
           transform="translate(229.71,213.5674)"
           id="g336"><path
             id="path338"
             style="fill:#fabdbd;fill-opacity:1;fill-rule:nonzero;stroke:none"
             d="m 0,0 c -0.311,0.374 -2.054,1.494 -4.792,3.361 -2.739,1.867 -5.976,2.241 -6.909,2.676 -0.934,0.437 -2.055,0.81 -5.602,1.059 -3.548,0.248 -4.855,-0.187 -6.038,-0.312 -1.182,-0.124 -1.93,0.487 -2.801,-0.409 -0.871,-0.897 -1.057,-0.96 -1.307,-1.458 -0.248,-0.498 -0.497,-1.044 -0.746,-1.331 -0.249,-0.287 -0.81,-0.847 -0.81,-0.847 0,0 -0.684,-1.121 -0.311,-1.307 0.374,-0.187 0.996,-0.498 1.183,-0.872 L -27.946,0.187 -29.428,0 c 0,0 -1.942,0 -2.066,-0.747 -0.125,-0.747 -0.56,-2.552 -0.498,-3.112 0.061,-0.56 -0.323,-1.992 -0.007,-2.428 0.318,-0.435 0.567,-1.804 1.064,-2.427 0.499,-0.622 0.561,-1.017 1.744,-2.002 1.182,-0.986 1.494,-0.737 3.236,-2.48 1.743,-1.742 2.054,-2.054 2.553,-2.241 0.497,-0.186 -0.249,-0.248 1.618,-0.56 1.866,-0.31 2.738,0 3.485,-0.373 0.746,-0.373 1.618,0.249 2.489,0 0.872,-0.249 0.997,-0.996 2.74,-0.498 1.742,0.498 2.994,0.187 5.106,0.871 2.113,0.685 1.927,1.488 3.794,1.647 1.867,0.159 6.286,1.777 7.096,6.134 C 3.734,-3.859 0,0 0,0" /></g><g
           transform="translate(224.4941,205.9116)"
           id="g340"><path
             id="path342"
             style="fill:#fabdbd;fill-opacity:1;fill-rule:nonzero;stroke:none"
             d="m 0,0 c -2.427,-0.809 -6.659,-4.481 -7.281,-4.855 -0.623,-0.374 -2.241,-0.872 -3.238,-1.681 -0.995,-0.809 -1.991,-1.493 -2.8,-2.302 -0.81,-0.809 -0.871,-0.809 -1.432,-1.432 -0.561,-0.622 -0.622,-0.685 -1.058,-1.37 -0.436,-0.684 -1.868,-6.784 -1.868,-7.78 0,-0.996 -0.808,-2.987 -0.871,-3.796 -0.062,-0.809 -0.56,-1.557 -0.497,-2.055 0.062,-0.498 0.435,-0.871 0.622,-1.307 0.187,-0.436 0.373,-0.933 0.622,-0.996 0.249,-0.062 0.436,-0.249 0.685,-0.311 0.249,-0.062 0.435,-0.747 0.933,0 0.498,0.747 1.308,0.747 1.308,0.747 l 1.244,0.685 c 0,0 -0.062,-1.44 -0.124,-1.778 -0.062,-0.338 -0.374,0.035 -0.062,-0.338 0.311,-0.374 0.249,-0.747 0.872,-0.934 0.622,-0.186 1.804,0.249 2.177,0 0.374,-0.249 2.179,-0.345 2.864,-0.048 0.684,0.297 1.431,0.671 2.241,0.733 0.809,0.062 1.493,0.498 2.427,0.498 0.933,0 3.298,1.867 4.171,3.174 0.87,1.307 0.996,1.743 1.493,2.303 0.498,0.56 0.871,0.871 1.431,2.24 0.561,1.37 1.183,1.868 1.619,3.424 0.436,1.556 1.245,3.299 1.494,4.73 0.249,1.432 0.518,2.303 0.913,3.673 0.394,1.369 1.638,-0.311 0.892,2.427 C 8.03,-3.61 8.652,-3.485 7.346,-1.805 6.038,-0.125 0,0 0,0" /></g><g
           transform="translate(228.2783,199.0649)"
           id="g344"><path
             id="path346"
             style="fill:#fabdbd;fill-opacity:1;fill-rule:nonzero;stroke:none"
             d="m 0,0 c -0.187,-0.249 -1.929,-3.61 -2.115,-4.17 -0.188,-0.56 -0.188,-0.685 -0.561,-1.992 -0.374,-1.307 -0.311,-2.054 -0.374,-3.05 -0.062,-0.996 0.063,-0.685 0,-2.365 -0.062,-1.681 -0.346,-1.245 -0.017,-2.739 0.329,-1.494 2.57,-4.979 2.694,-5.29 0.124,-0.312 1.163,-1.557 1.732,-1.743 0.571,-0.187 1.691,-0.872 2.251,-1.12 0.561,-0.25 3.486,-1.121 3.673,-1.121 h 2.738 c 0.312,0 0.748,1.245 0.748,1.618 v 1.2 c 0,0 1.057,0.328 1.182,0 0.124,-0.328 0.373,-0.764 0.56,-1.2 0.186,-0.436 0.218,-0.809 0.684,-0.996 0.934,-0.373 2.712,0.249 2.881,0.436 0.169,0.187 0.979,1.528 1.289,1.76 0.312,0.232 0.623,0.543 0.872,1.414 0.249,0.872 0.623,0.996 0.934,2.117 0.311,1.12 -0.124,-0.872 0.747,1.992 0.871,2.863 1.432,3.734 1.245,3.983 -0.187,0.249 0.32,0.685 0.035,0.933 -0.285,0.25 -0.222,1.432 -0.471,1.619 -0.248,0.187 0,0.809 -0.312,1.183 -0.311,0.373 0.374,0.079 -0.497,1.626 -0.871,1.548 -0.312,1.299 -1.681,3.166 -1.369,1.867 -0.898,2.801 -2.161,3.548 C 14.814,1.556 11.64,3.298 10.581,3.548 9.523,3.797 5.199,3.61 4.218,3.548 3.236,3.485 0,0 0,0" /></g><g
           transform="translate(221.7998,210.2095)"
           id="g348"><path
             id="path350"
             style="fill:#f68712;fill-opacity:1;fill-rule:nonzero;stroke:none"
             d="M 0,0 C -0.134,-0.044 -0.255,-0.123 -0.337,-0.234 -0.896,-0.989 0.624,-1.495 0.822,-0.587 0.94,-0.05 0.411,0.137 0,0" /></g><g
           transform="translate(229.6748,204.2383)"
           id="g352"><path
             id="path354"
             style="fill:#f68712;fill-opacity:1;fill-rule:nonzero;stroke:none"
             d="M 0,0 C -0.122,0.07 -0.261,0.108 -0.4,0.095 -1.334,0.006 -0.697,-1.463 0.112,-1.004 0.59,-0.734 0.376,-0.215 0,0" /></g><g
           transform="translate(219.875,205.5854)"
           id="g356"><path
             id="path358"
             style="fill:#f68712;fill-opacity:1;fill-rule:nonzero;stroke:none"
             d="M 0,0 C -0.204,-0.068 -0.389,-0.187 -0.515,-0.357 -1.364,-1.508 0.952,-2.279 1.255,-0.894 1.434,-0.077 0.626,0.208 0,0" /></g><g
           transform="translate(226.3691,211.1738)"
           id="g360"><path
             id="path362"
             style="fill:#f68712;fill-opacity:1;fill-rule:nonzero;stroke:none"
             d="M 0,0 C -0.051,-0.019 -0.102,-0.042 -0.151,-0.072 -1.281,-0.739 0.113,-2.45 1.098,-1.714 1.986,-1.049 0.928,0.337 0,0" /></g><g
           transform="translate(228.2803,207.0757)"
           id="g364"><path
             id="path366"
             style="fill:#f68712;fill-opacity:1;fill-rule:nonzero;stroke:none"
             d="M 0,0 C -0.051,-0.019 -0.103,-0.042 -0.152,-0.072 -1.282,-0.739 0.112,-2.451 1.097,-1.714 1.985,-1.049 0.927,0.337 0,0" /></g><g
           transform="translate(226.4131,206.5029)"
           id="g368"><path
             id="path370"
             style="fill:#f68712;fill-opacity:1;fill-rule:nonzero;stroke:none"
             d="M 0,0 C -0.039,-0.015 -0.077,-0.032 -0.116,-0.055 -0.971,-0.56 0.084,-1.856 0.829,-1.298 1.503,-0.794 0.7,0.255 0,0" /></g><g
           transform="translate(222.4268,202.75)"
           id="g372"><path
             id="path374"
             style="fill:#f68712;fill-opacity:1;fill-rule:nonzero;stroke:none"
             d="M 0,0 C -0.188,-0.069 -0.357,-0.186 -0.471,-0.349 -1.233,-1.449 0.955,-2.106 1.2,-0.801 1.345,-0.031 0.581,0.212 0,0" /></g><g
           transform="translate(227.4873,202.8237)"
           id="g376"><path
             id="path378"
             style="fill:#f68712;fill-opacity:1;fill-rule:nonzero;stroke:none"
             d="M 0,0 C -0.183,-0.026 -0.356,-0.099 -0.489,-0.225 -1.385,-1.07 0.46,-2.077 0.928,-0.949 1.204,-0.284 0.563,0.081 0,0" /></g><g
           transform="translate(222.8379,207.2187)"
           id="g380"><path
             id="path382"
             style="fill:#f68712;fill-opacity:1;fill-rule:nonzero;stroke:none"
             d="M 0,0 C -0.176,-0.059 -0.334,-0.162 -0.442,-0.308 -1.175,-1.299 0.821,-1.963 1.082,-0.77 1.235,-0.066 0.54,0.179 0,0" /></g><g
           transform="translate(223.96,210.4956)"
           id="g384"><path
             id="path386"
             style="fill:#f68712;fill-opacity:1;fill-rule:nonzero;stroke:none"
             d="M 0,0 C -0.175,-0.059 -0.335,-0.161 -0.443,-0.308 -1.175,-1.299 0.819,-1.963 1.08,-0.77 1.234,-0.066 0.541,0.179 0,0" /></g><g
           transform="translate(226.1807,201.2915)"
           id="g388"><path
             id="path390"
             style="fill:#f68712;fill-opacity:1;fill-rule:nonzero;stroke:none"
             d="m 0,0 c -0.034,-0.012 -0.067,-0.028 -0.101,-0.048 -0.75,-0.443 0.175,-1.579 0.83,-1.09 C 1.318,-0.696 0.615,0.224 0,0" /></g><g
           transform="translate(229.1016,201.8389)"
           id="g392"><path
             id="path394"
             style="fill:#f68712;fill-opacity:1;fill-rule:nonzero;stroke:none"
             d="M 0,0 C -0.034,-0.013 -0.068,-0.028 -0.102,-0.048 -0.852,-0.491 0.073,-1.627 0.727,-1.138 1.317,-0.696 0.614,0.224 0,0" /></g><g
           transform="translate(224.4844,204.7212)"
           id="g396"><path
             id="path398"
             style="fill:#f68712;fill-opacity:1;fill-rule:nonzero;stroke:none"
             d="M 0,0 C -0.041,-0.023 -0.083,-0.052 -0.124,-0.086 -1.053,-0.861 -0.099,-2.527 0.723,-1.69 1.465,-0.935 0.746,0.419 0,0" /></g><g
           transform="translate(153.3564,209.1646)"
           id="g400"><path
             id="path402"
             style="fill:#fabdbd;fill-opacity:1;fill-rule:nonzero;stroke:none"
             d="m 0,0 c -0.291,-0.107 -0.583,-0.32 -0.874,-0.676 -0.291,-0.356 -0.34,-0.463 -0.582,-0.712 -0.243,-0.249 -1.844,-2.42 -1.99,-2.67 -0.146,-0.249 -0.777,-1.317 -1.262,-2.206 -0.485,-0.89 -0.582,-1.282 -0.825,-1.566 -0.242,-0.285 -1.95,-3.52 -1.95,-3.52 0,0 0.106,-2.353 0.203,-2.46 0.097,-0.107 0.534,-0.854 0.777,-1.21 0.242,-0.356 0.291,-0.997 0.728,-1.317 0.436,-0.32 0.63,-0.747 1.358,-1.21 0.729,-0.463 1.262,-1.388 1.602,-1.388 0.34,0 1.213,-0.285 1.408,-0.178 0.193,0.107 0.387,1.139 0.678,1.53 C -0.437,-17.191 0,-16.8 0,-16.8 c 0,0 0.242,-1.103 0.34,-1.281 0.097,-0.178 0.048,-0.795 0,-1.056 -0.049,-0.261 -0.131,-0.581 0.056,-0.617 0.186,-0.036 0.284,0.143 0.866,0.32 0.582,0.179 1.018,0.553 1.358,0.74 0.34,0.186 0.194,0.328 0.825,0.72 0.631,0.391 1.214,0.498 1.602,0.712 0.389,0.213 0.776,0.747 0.825,0.889 0.049,0.143 0.34,0.712 0.485,0.961 0.146,0.25 0.582,0.89 0.582,0.89 0,0 -0.193,0.712 0,0.855 0.195,0.142 0.292,0.64 0.292,0.64 0,0 0.859,0.777 0.695,1.019 -0.164,0.244 0.397,0.334 0.021,0.939 -0.377,0.605 -0.134,0.565 -0.425,1.19 -0.291,0.625 0,0.732 -0.291,1.266 -0.292,0.533 0.146,0.32 -0.339,1.245 -0.486,0.926 0.291,0.214 -0.631,1.211 C 5.338,-5.161 5.546,-5.408 4.77,-4.375 3.993,-3.344 3.793,-2.795 3.445,-2.313 1.668,0.156 1.358,-0.498 1.116,-0.356 0.873,-0.213 0,0 0,0" /></g><g
           transform="translate(156.3301,210.1782)"
           id="g404"><path
             id="path406"
             style="fill:#fabdbd;fill-opacity:1;fill-rule:nonzero;stroke:none"
             d="M 0,0 C 0,0 1.424,-1.855 1.848,-2.302 2.271,-2.75 2.917,-3.326 3.513,-3.7 4.105,-4.072 4.529,-4.52 5.045,-4.882 5.559,-5.245 5.619,-4.861 6.304,-5.735 6.985,-6.61 6.762,-6.482 7.647,-7.089 8.531,-7.698 7.73,-7.538 9.283,-8.091 c 1.553,-0.554 1.64,-0.623 2.107,-0.996 0.467,-0.371 0.43,-0.343 0.731,-0.581 0.299,-0.239 0.217,-0.25 0.958,-0.128 0.74,0.122 3.789,1.87 4.066,2.127 0.275,0.257 1.851,1.221 2.206,1.468 0.355,0.247 1.04,2.604 1.04,2.604 l -1.277,1.052 -1.096,0.83 2.213,-0.294 0.532,1.201 c -0.645,0.968 -1.174,1.822 -1.174,1.822 0,0 -0.819,0.501 -0.86,0.799 -0.04,0.3 -0.767,0.886 -0.966,1.206 -0.199,0.32 -3.534,3.14 -3.878,2.991 C 13.542,5.861 13.191,6.152 12.238,6.241 11.285,6.331 11.44,6.897 9.639,6.06 7.838,5.222 6.472,4.622 6.104,4.279 5.736,3.937 4.895,3.657 3.948,3.195 3,2.733 2.726,2.478 1.937,1.994 1.148,1.511 0.117,1.354 0.128,0.962 0.139,0.569 0,0 0,0" /></g><g
           transform="translate(156.3223,213.4404)"
           id="g408"><path
             id="path410"
             style="fill:#fabdbd;fill-opacity:1;fill-rule:nonzero;stroke:none"
             d="m 0,0 c 0,0 2.237,0.836 2.805,1.117 0.567,0.28 1.328,0.742 1.881,1.216 0.551,0.471 1.119,0.752 1.632,1.15 0.516,0.396 0.172,0.574 1.231,0.981 1.058,0.406 0.861,0.224 1.733,0.911 0.872,0.686 0.455,-0.055 1.495,1.31 1.041,1.363 1.136,1.427 1.646,1.774 0.508,0.349 0.471,0.321 0.795,0.543 0.327,0.223 0.31,0.138 0.439,0.908 0.129,0.769 -0.527,4.319 -0.68,4.67 -0.155,0.352 -0.551,2.206 -0.669,2.632 -0.119,0.427 -2.135,1.828 -2.135,1.828 L 8.748,18.102 7.594,17.274 8.607,19.37 7.638,20.265 c -1.134,-0.34 -2.123,-0.6 -2.123,-0.6 0,0 -0.747,-0.656 -1.046,-0.602 C 4.171,19.114 3.372,18.576 3,18.479 2.63,18.38 -1.158,15.952 -1.13,15.566 -1.103,15.181 -1.495,14.926 -1.894,14.01 -2.296,13.096 -3.627,12.745 -3.426,10.708 -3.226,8.67 -3.506,7.457 -3.303,6.988 -3.097,6.52 -2.982,4.524 -2.856,3.447 -2.729,2.37 -2.264,2.358 -2.065,1.43 -1.866,0.503 -1.251,0.533 -0.873,0.422 -0.495,0.312 0,0 0,0" /></g><g
           transform="translate(152.7461,213.0107)"
           id="g412"><path
             id="path414"
             style="fill:#fabdbd;fill-opacity:1;fill-rule:nonzero;stroke:none"
             d="M 0,0 C 0.143,0.284 0.211,0.658 0.18,1.152 0.149,1.647 0.112,1.769 0.119,2.14 c 0.007,0.372 -0.306,3.271 -0.372,3.578 -0.063,0.308 -0.335,1.628 -0.59,2.702 -0.256,1.074 -0.453,1.47 -0.471,1.872 -0.018,0.401 -0.988,4.27 -0.988,4.27 0,0 -1.704,1.915 -1.85,1.939 -0.145,0.027 -0.985,0.368 -1.41,0.506 -0.425,0.14 -0.905,0.648 -1.449,0.627 -0.544,-0.019 -0.983,0.212 -1.842,0.119 -0.857,-0.094 -1.891,0.333 -2.143,0.106 -0.251,-0.225 -1.094,-0.566 -1.165,-0.785 -0.069,-0.22 0.501,-1.22 0.555,-1.744 0.056,-0.524 0.002,-1.145 0.002,-1.145 0,0 -0.941,0.769 -1.136,0.856 -0.195,0.084 -0.586,0.638 -0.729,0.891 -0.145,0.252 -0.305,0.578 -0.468,0.484 -0.163,-0.094 -0.111,-0.31 -0.419,-0.847 -0.309,-0.538 -0.373,-1.145 -0.496,-1.528 -0.122,-0.383 0.084,-0.407 -0.112,-1.156 -0.197,-0.751 -0.555,-1.229 -0.694,-1.667 -0.14,-0.439 -0.059,-1.148 0.004,-1.3 0.063,-0.152 0.241,-0.827 0.305,-1.135 0.065,-0.306 0.183,-1.138 0.183,-1.138 0,0 0.637,-0.472 0.591,-0.722 -0.046,-0.248 0.227,-0.734 0.227,-0.734 0,0 -0.099,-1.226 0.19,-1.323 0.289,-0.095 -0.064,-0.545 0.633,-0.805 0.696,-0.261 0.489,-0.389 1.136,-0.723 0.647,-0.335 0.506,-0.618 1.09,-0.875 0.584,-0.257 0.113,-0.368 1.111,-0.825 0.999,-0.459 -0.068,-0.374 1.303,-0.603 1.371,-0.228 1.31,-0.23 2.597,-0.586 C -5,0.094 -7.223,-0.234 -4.146,-0.339 -1.07,-0.442 -1.349,-0.483 -1.07,-0.442 -0.793,-0.4 0,0 0,0" /></g><g
           transform="translate(150.7026,209.7725)"
           id="g416"><path
             id="path418"
             style="fill:#fabdbd;fill-opacity:1;fill-rule:nonzero;stroke:none"
             d="m 0,0 c 0,0 -1.765,1.058 -2.257,1.281 -0.492,0.224 -1.21,0.47 -1.822,0.558 -0.61,0.088 -1.102,0.313 -1.644,0.424 C -6.264,2.375 -6.195,2.013 -7.038,2.507 -7.88,3 -7.652,2.979 -8.579,3.156 c -0.925,0.179 -0.21,0.361 -1.674,0.222 -1.465,-0.137 -1.56,-0.111 -2.064,0.029 -0.506,0.138 -0.466,0.128 -0.789,0.217 -0.325,0.089 -0.259,0.131 -0.838,-0.272 -0.577,-0.406 -2.567,-3.17 -2.716,-3.507 -0.148,-0.337 -1.158,-1.819 -1.376,-2.18 -0.218,-0.358 -0.05,-2.706 -0.05,-2.706 l 1.392,-0.41 1.171,-0.29 -1.933,-0.632 -0.066,-1.27 c 0.839,-0.592 1.546,-1.129 1.546,-1.129 0,0 0.839,-0.111 0.965,-0.357 0.127,-0.248 0.915,-0.471 1.181,-0.672 0.266,-0.201 3.922,-1.339 4.161,-1.07 0.239,0.269 0.621,0.155 1.443,0.46 0.821,0.305 0.868,-0.256 2.104,1.204 1.237,1.462 2.186,2.54 2.385,2.989 0.198,0.449 0.81,1.033 1.454,1.82 0.642,0.788 0.791,1.124 1.296,1.866 0.505,0.74 1.313,1.294 1.181,1.635 C 0.063,-0.556 0,0 0,0" /></g><g
           transform="translate(156.6426,212.4648)"
           id="g420"><path
             id="path422"
             style="fill:#f68712;fill-opacity:1;fill-rule:nonzero;stroke:none"
             d="M 0,0 C -0.123,0.07 -0.261,0.108 -0.4,0.095 -1.334,0.006 -0.697,-1.463 0.112,-1.005 0.59,-0.734 0.376,-0.215 0,0" /></g><g
           transform="translate(153.1846,212.3052)"
           id="g424"><path
             id="path426"
             style="fill:#f68712;fill-opacity:1;fill-rule:nonzero;stroke:none"
             d="M 0,0 C -0.122,0.07 -0.262,0.108 -0.4,0.095 -1.334,0.006 -0.697,-1.463 0.112,-1.005 0.59,-0.734 0.376,-0.215 0,0" /></g><g
           transform="translate(155.2471,215.3022)"
           id="g428"><path
             id="path430"
             style="fill:#f68712;fill-opacity:1;fill-rule:nonzero;stroke:none"
             d="M 0,0 C -0.05,-0.019 -0.102,-0.042 -0.151,-0.072 -1.281,-0.739 0.112,-2.451 1.097,-1.715 1.985,-1.049 0.927,0.337 0,0" /></g><g
           transform="translate(153.3809,214.729)"
           id="g432"><path
             id="path434"
             style="fill:#f68712;fill-opacity:1;fill-rule:nonzero;stroke:none"
             d="M 0,0 C -0.04,-0.014 -0.078,-0.032 -0.115,-0.054 -0.971,-0.56 0.085,-1.855 0.829,-1.298 1.503,-0.794 0.7,0.255 0,0" /></g><g
           transform="translate(150.6523,211.0552)"
           id="g436"><path
             id="path438"
             style="fill:#f68712;fill-opacity:1;fill-rule:nonzero;stroke:none"
             d="M 0,0 C -0.188,-0.069 -0.357,-0.186 -0.47,-0.349 -1.233,-1.45 0.955,-2.106 1.201,-0.801 1.345,-0.031 0.582,0.212 0,0" /></g><g
           transform="translate(154.4561,211.0503)"
           id="g440"><path
             id="path442"
             style="fill:#f68712;fill-opacity:1;fill-rule:nonzero;stroke:none"
             d="M 0,0 C -0.184,-0.026 -0.358,-0.099 -0.49,-0.225 -1.387,-1.07 0.459,-2.077 0.927,-0.949 1.204,-0.284 0.562,0.081 0,0" /></g><g
           transform="translate(153.1484,209.5181)"
           id="g444"><path
             id="path446"
             style="fill:#f68712;fill-opacity:1;fill-rule:nonzero;stroke:none"
             d="M 0,0 C -0.033,-0.012 -0.066,-0.028 -0.1,-0.048 -0.851,-0.491 0.074,-1.627 0.728,-1.138 1.318,-0.696 0.616,0.224 0,0" /></g><g
           transform="translate(156.0693,210.0654)"
           id="g448"><path
             id="path450"
             style="fill:#f68712;fill-opacity:1;fill-rule:nonzero;stroke:none"
             d="M 0,0 C -0.035,-0.013 -0.068,-0.028 -0.102,-0.048 -0.853,-0.491 0.073,-1.627 0.727,-1.138 1.318,-0.696 0.614,0.224 0,0" /></g><g
           transform="translate(150.6812,214.6899)"
           id="g452"><path
             id="path454"
             style="fill:#f68712;fill-opacity:1;fill-rule:nonzero;stroke:none"
             d="M 0,0 C -0.041,-0.023 -0.083,-0.052 -0.124,-0.086 -1.052,-0.862 -0.098,-2.528 0.723,-1.69 1.464,-0.935 0.746,0.419 0,0" /></g><g
           transform="translate(126.1152,65.8047)"
           id="g456"><path
             id="path458"
             style="fill:#fddc36;fill-opacity:1;fill-rule:nonzero;stroke:none"
             d="m 0,0 c -0.472,-0.065 -0.934,0.801 -1.264,1.356 -0.33,0.557 -0.791,1.348 -0.989,1.942 -0.198,0.594 -0.396,0.242 -0.66,1.572 -0.263,1.33 -2.565,4.695 -2.371,5.255 0.195,0.56 -0.194,2.133 0,3.127 0.195,0.994 0.063,1.511 0.459,2.012 0.396,0.5 0.857,1.701 1.121,1.792 0.264,0.092 2.137,0.668 2.137,0.668 0,0 0.897,-1.367 1.029,-1.828 0.131,-0.462 1.253,0.197 1.121,0.461 -0.132,0.264 -0.44,0.885 0.011,1.367 0.45,0.479 1.184,0.608 1.378,0.774 0.194,0.167 1.084,0 1.084,0 0,0 0.693,-0.596 0.89,-0.774 0.199,-0.179 0.628,-0.839 1.105,-1.566 0.478,-0.724 0.598,-1.4 0.637,-1.986 C 5.728,13.586 5.85,12.637 5.755,11.924 5.662,11.213 5.483,11.017 5.54,10.125 5.595,9.233 5.616,8.573 5.54,7.98 5.463,7.387 5.68,6.276 5.374,5.94 5.068,5.606 5.299,4.824 5.051,4.522 4.804,4.221 4.936,3.693 4.606,2.902 4.276,2.11 4.54,1.988 4.079,1.356 3.617,0.726 3.683,0.652 3.056,-0.004 2.43,-0.659 2.372,-1.161 1.972,-1.01 1.572,-0.856 0,0 0,0" /></g><g
           transform="translate(131.6914,64.7432)"
           id="g460"><path
             id="path462"
             style="fill:#fddc36;fill-opacity:1;fill-rule:nonzero;stroke:none"
             d="m 0,0 c -0.307,0.365 0.182,1.217 0.477,1.791 0.295,0.575 0.72,1.388 1.117,1.87 0.398,0.485 -0.005,0.465 0.981,1.396 0.986,0.93 2.612,4.67 3.189,4.802 0.577,0.133 1.702,1.299 2.648,1.662 0.945,0.366 1.313,0.752 1.947,0.683 0.633,-0.069 1.897,0.18 2.115,0.005 0.218,-0.175 1.701,-1.456 1.701,-1.456 0,0 -0.68,-1.485 -1.001,-1.843 -0.321,-0.357 0.834,-0.956 0.987,-0.704 0.153,0.252 0.516,0.844 1.163,0.718 0.646,-0.127 1.145,-0.68 1.389,-0.755 0.245,-0.075 0.577,-0.918 0.577,-0.918 0,0 -0.136,-0.903 -0.183,-1.166 C 17.061,5.821 16.73,5.106 16.37,4.316 16.01,3.526 15.501,3.065 15.026,2.721 14.551,2.377 13.812,1.767 13.159,1.469 12.506,1.17 12.246,1.216 11.521,0.694 10.795,0.173 10.248,-0.195 9.705,-0.446 9.162,-0.697 8.335,-1.473 7.889,-1.391 7.443,-1.311 6.904,-1.921 6.517,-1.872 6.13,-1.823 5.753,-2.216 4.907,-2.356 4.062,-2.499 4.098,-2.787 3.318,-2.732 2.538,-2.677 2.511,-2.772 1.623,-2.59 0.733,-2.408 0.278,-2.627 0.194,-2.206 0.11,-1.788 0,0 0,0" /></g><g
           transform="translate(125.3516,59.5117)"
           id="g464">
           <path
             id="path466"
             style="fill:#fddc36;fill-opacity:1;fill-rule:nonzero;stroke:none"
             d="m 0,0 c 0.113,-0.463 -0.703,-1.009 -1.222,-1.394 -0.52,-0.384 -1.261,-0.922 -1.831,-1.179 -0.571,-0.258 -0.202,-0.419 -1.498,-0.816 -1.296,-0.395 -4.413,-3.025 -4.99,-2.889 -0.576,0.138 -2.101,-0.408 -3.11,-0.315 -1.009,0.094 -1.511,-0.09 -2.048,0.253 -0.537,0.343 -1.78,0.682 -1.897,0.935 -0.117,0.253 -0.879,2.058 -0.879,2.058 0,0 1.269,1.031 1.716,1.208 0.446,0.179 -0.324,1.228 -0.573,1.069 -0.249,-0.158 -0.837,-0.526 -1.36,-0.126 -0.524,0.4 -0.725,1.117 -0.911,1.293 -0.185,0.175 -0.109,1.078 -0.109,1.078 0,0 0.523,0.749 0.682,0.965 0.158,0.214 0.771,0.708 1.444,1.256 0.674,0.548 1.334,0.736 1.913,0.834 0.578,0.098 1.511,0.315 2.229,0.293 0.718,-0.021 0.931,-0.178 1.812,-0.033 0.882,0.146 1.535,0.232 2.133,0.217 0.599,-0.016 1.683,0.313 2.046,0.041 0.365,-0.27 1.118,0.038 1.444,-0.178 0.325,-0.216 0.837,-0.032 1.657,-0.28 0.821,-0.247 0.916,0.027 1.591,-0.369 0.674,-0.396 0.74,-0.322 1.456,-0.879 C 0.411,2.484 0.917,2.478 0.806,2.064 0.694,1.651 0,0 0,0" /></g><g
           transform="translate(131.7397,60.457)"
           id="g468">
           <path
             id="path470"
             style="fill:#fddc36;fill-opacity:1;fill-rule:nonzero;stroke:none"
             d="m 0,0 c 0.429,0.207 1.133,-0.479 1.616,-0.908 0.483,-0.429 1.163,-1.043 1.532,-1.549 0.369,-0.505 0.451,-0.11 1.106,-1.296 0.656,-1.187 3.872,-3.694 3.857,-4.286 -0.016,-0.593 0.832,-1.974 0.95,-2.979 0.117,-1.006 0.4,-1.459 0.175,-2.056 -0.224,-0.596 -0.299,-1.882 -0.523,-2.049 -0.224,-0.167 -1.833,-1.285 -1.833,-1.285 0,0 -1.27,1.028 -1.536,1.429 -0.266,0.4 -1.134,-0.569 -0.928,-0.782 0.207,-0.21 0.689,-0.709 0.405,-1.303 -0.283,-0.595 -0.943,-0.941 -1.077,-1.158 -0.134,-0.218 -1.033,-0.331 -1.033,-0.331 0,0 -0.84,0.359 -1.084,0.469 -0.243,0.111 -0.852,0.608 -1.528,1.154 -0.676,0.546 -0.995,1.153 -1.21,1.699 -0.216,0.547 -0.621,1.415 -0.748,2.122 -0.126,0.707 -0.016,0.946 -0.341,1.779 -0.324,0.832 -0.544,1.454 -0.652,2.044 -0.108,0.589 -0.652,1.581 -0.462,1.993 0.189,0.411 -0.268,1.086 -0.124,1.448 0.144,0.363 -0.142,0.826 -0.069,1.681 0.074,0.853 -0.214,0.89 0.034,1.632 0.247,0.741 0.162,0.792 0.56,1.605 0.397,0.817 0.299,1.313 0.726,1.29 C -1.759,0.339 0,0 0,0" /></g></g></g></g></svg>