<?xml version="1.0" encoding="UTF-8" standalone="no"?>
<svg
   xmlns="http://www.w3.org/2000/svg"
   width="210mm"
   height="297mm"
   viewBox="0 0 210 297"
   version="1.1"
   id="svg7884"
>
  <defs
     id="defs7878" />
  <sodipodi:namedview
     id="base"
     pagecolor="#ffffff"
     bordercolor="#666666"
     borderopacity="1.0"
     showgrid="false" />
  <metadata
     id="metadata7881">
    <rdf:RDF>
      <cc:Work>
        <dc:format>image/svg+xml</dc:format>
        <dc:type />
        <dc:title></dc:title>
      </cc:Work>
    </rdf:RDF>
  </metadata>
  <g
     id="layer1">
    <path
       d="m 112.04525,125.48277 c 0.30939,-0.14111 3.50838,-1.57868 4.26509,-1.98225 1.20756,0.57785 1.6189,5.42854 -0.17251,6.34823 -2.80776,-1.30775 -4.08728,-2.83704 -4.08728,-2.83704 l -0.005,-1.52894"
       style="fill:#f36220;fill-opacity:1;fill-rule:nonzero;stroke:none;stroke-width:0.0352778"
       id="path2370" />
    <path
       d="m 112.43684,127.21068 c 0.5909,0.23213 1.17828,0.44168 1.74554,0.73519 0.36336,0.18768 0.71826,0.39229 1.06222,0.61383 0.37747,0.24236 0.72672,0.57503 1.12959,0.76906 l 0.0388,-0.0392 c -0.2473,-0.33514 -0.64559,-0.56833 -0.98884,-0.79446 -0.37571,-0.24729 -0.76553,-0.47413 -1.16487,-0.68121 -0.54187,-0.28081 -1.17722,-0.63394 -1.79105,-0.71755 -0.0751,-0.0102 -0.10372,0.0861 -0.0314,0.1143"
       style="fill:#e3561d;fill-opacity:1;fill-rule:nonzero;stroke:none;stroke-width:0.0352778"
       id="path2372" />
    <path
       d="m 112.45271,125.91281 c 0.59338,-0.0381 1.21074,-0.32173 1.75013,-0.55069 0.40923,-0.17356 0.81033,-0.36724 1.20015,-0.58173 0.38735,-0.21343 0.84773,-0.43391 1.13736,-0.77611 l -0.0275,-0.0476 c -0.38311,0.15346 -0.72037,0.43074 -1.07985,0.63323 -0.37536,0.21132 -0.762,0.40288 -1.15641,0.57574 -0.60148,0.26317 -1.21673,0.43462 -1.83938,0.63112 -0.061,0.0194 -0.0536,0.12065 0.0155,0.11606"
       style="fill:#e3561d;fill-opacity:1;fill-rule:nonzero;stroke:none;stroke-width:0.0352778"
       id="path2374" />
    <path
       d="m 112.47811,126.70868 c 0.21308,0.11641 0.47661,0.15981 0.70944,0.22048 0.46637,0.12065 0.93592,0.2279 1.40476,0.33691 0.48895,0.11324 0.97861,0.22472 1.46861,0.33443 0.30974,0.0695 0.7105,0.2286 1.03188,0.19438 0.0318,-0.004 0.0483,-0.0452 0.0169,-0.0639 -0.26881,-0.15734 -0.67698,-0.18098 -0.97684,-0.24801 -0.48895,-0.10795 -0.97719,-0.21801 -1.46473,-0.32984 -0.72179,-0.16546 -1.44004,-0.34502 -2.16006,-0.51612 -0.042,-0.0102 -0.0706,0.0494 -0.03,0.0716"
       style="fill:#e3561d;fill-opacity:1;fill-rule:nonzero;stroke:none;stroke-width:0.0352778"
       id="path2376" />
    <path
       d="m 112.52433,126.35978 c 0.27552,0.0247 0.56691,-0.0205 0.84208,-0.0353 0.41874,-0.0226 0.83749,-0.0466 1.25624,-0.0713 0.45614,-0.0268 0.91193,-0.0547 1.36737,-0.0871 0.33902,-0.0247 0.77293,0.004 1.08973,-0.13405 l -0.006,-0.0511 c -0.36195,-0.0748 -0.8121,0.0317 -1.17758,0.0568 -0.45684,0.0303 -0.91369,0.0572 -1.37089,0.0825 -0.41169,0.0229 -0.82374,0.0444 -1.23543,0.0699 -0.25188,0.0159 -0.53305,0.004 -0.77787,0.0759 -0.0536,0.0159 -0.0395,0.0889 0.0127,0.0938"
       style="fill:#e3561d;fill-opacity:1;fill-rule:nonzero;stroke:none;stroke-width:0.0352778"
       id="path2378" />
    <path
       d="m 112.59629,127.96562 c 0.69815,-2.01083 0.43145,-4.25132 -0.33443,-6.22053 0.4953,-0.60148 1.0855,-1.35784 0.98672,-1.43298 -0.0589,-0.0448 -0.74189,0.21449 -1.40406,0.48225 l -0.043,-0.0903 c -0.26388,-0.52388 -0.56339,-1.02941 -0.89324,-1.51448 -0.2219,-0.32561 -0.45755,-0.64452 -0.70308,-0.95638 0.49988,-0.59443 1.4351,-1.73955 1.31127,-1.83444 -0.085,-0.0649 -1.44357,0.48577 -2.19675,0.79939 -0.55668,-0.60078 -1.15781,-1.16276 -1.79564,-1.67569 0.30163,-0.75001 0.7493,-1.92688 0.60572,-1.98332 -0.0949,-0.0378 -1.02658,0.67275 -1.68345,1.18851 -0.32456,-0.21873 -0.65582,-0.42686 -0.99448,-0.61948 -0.6597,-0.37536 -1.33033,-0.7299 -2.01295,-1.05375 0.20708,-0.75671 0.56973,-2.16182 0.41451,-2.19957 -0.1083,-0.0265 -1.14935,1.04352 -1.71062,1.63195 -1.18886,-0.47484 -2.416879,-0.83679 -3.696404,-1.02517 -0.05786,-0.80186 -0.173919,-2.09021 -0.322086,-2.07469 -0.101953,0.0109 -0.644525,1.18463 -0.986367,1.94593 -1.213555,-0.0656 -2.46133,0.0152 -3.683353,0.2293 -0.382764,-0.6163 -1.202266,-1.91488 -1.2954,-1.88418 -0.11183,0.037 -0.07902,1.32962 -0.04516,2.17663 -0.725312,0.18909 -1.433689,0.42334 -2.109259,0.70344 -0.866775,0.35878 -2.408414,1.24531 -4.459111,2.59221 -0.573617,0.37712 -1.078089,0.2727 -1.201561,0.51859 -0.259645,0.51964 -0.481189,1.58609 -0.533753,2.45427 -0.201084,3.302 -0.05327,6.62764 0.954264,9.78147 0.373239,1.16876 0.912989,2.2987 1.609372,3.31788 -0.168628,0.30938 -1.282347,2.3689 -1.089025,2.47403 0.108656,0.0593 1.449564,-0.73766 2.139597,-1.15676 0.315736,0.34008 0.652639,0.66075 1.01212,0.95568 0.797983,0.65475 1.698625,1.18074 2.652536,1.59949 -0.07232,0.8061 -0.1524,1.99002 -0.0014,2.00378 0.09913,0.009 0.745067,-0.86148 1.227314,-1.53282 0.961672,0.32067 1.954036,0.54786 2.934406,0.69391 0.478014,0.0716 0.95885,0.12348 1.441803,0.15734 0.195438,0.74754 0.596194,2.19393 0.748241,2.14736 0.09737,-0.03 0.405695,-1.29222 0.594784,-2.10432 0.06244,-3.5e-4 0.124883,0.002 0.186972,0.001 1.293636,-0.0166 2.59433,-0.18168 3.86574,-0.48366 0.47237,0.6537 1.24143,1.67675 1.36278,1.58574 0.0759,-0.0572 -0.0296,-1.11055 -0.12347,-1.92617 1.3074,-0.40887 2.56752,-0.96626 3.74227,-1.65559 0.62618,0.50836 1.51765,1.19874 1.61078,1.08444 0.0596,-0.073 -0.26635,-1.004 -0.5461,-1.76212 1.22167,-0.84561 2.43664,-1.94769 3.34187,-3.2191 0.69708,0.38171 1.60513,0.84702 1.67745,0.72143 0.055,-0.0945 -0.54116,-1.17687 -0.95638,-1.90853 0.15381,-0.30409 0.28999,-0.61454 0.40005,-0.93204"
       style="fill:#f78f11;fill-opacity:1;fill-rule:nonzero;stroke:none;stroke-width:0.0352778"
       id="path2380" />
    <path
       d="m 94.912954,114.81019 c -0.528109,-0.34114 -1.166284,-0.50236 -1.809045,-0.37994 -1.1557,0.22013 -1.913467,1.31762 -2.011892,2.44404 -0.08996,1.03364 0.391584,2.03059 1.326798,2.51284 1.651353,0.8509 3.703108,-0.39688 3.770136,-2.24402 0.03422,-0.9458 -0.502003,-1.83268 -1.275997,-2.33292"
       style="fill:#ffffff;fill-opacity:1;fill-rule:nonzero;stroke:none;stroke-width:0.0352778"
       id="path2382" />
    <path
       d="m 95.096751,116.16697 c -0.30727,-0.19897 -0.679097,-0.29281 -1.053042,-0.22154 -0.6731,0.12841 -1.114425,0.76693 -1.171575,1.42275 -0.05256,0.60184 0.227895,1.18251 0.772584,1.46332 0.961319,0.4953 2.155825,-0.23142 2.19463,-1.30669 0.02046,-0.55068 -0.2921,-1.0668 -0.742597,-1.35784"
       style="fill:#333f48;fill-opacity:1;fill-rule:nonzero;stroke:none;stroke-width:0.0352778"
       id="path2384" />
    <path
       d="m 93.899423,116.38322 c -0.08925,-0.0677 -0.196497,-0.10019 -0.3048,-0.0758 -0.194733,0.0441 -0.322439,0.26352 -0.339019,0.48789 -0.01517,0.20637 0.06597,0.40569 0.223661,0.502 0.277989,0.17004 0.624064,-0.079 0.635353,-0.44803 0.0053,-0.18909 -0.08467,-0.36583 -0.215195,-0.46602"
       style="fill:#ffffff;fill-opacity:1;fill-rule:nonzero;stroke:none;stroke-width:0.0352778"
       id="path2386" />
    <path
       d="m 89.666442,133.31585 c -0.11183,0 -0.307622,-0.1016 -0.618066,-1.86972 -0.01235,-0.0695 0.03422,-0.13547 0.103363,-0.14746 0.06985,-0.0127 0.135467,0.0339 0.147462,0.10336 0.111477,0.63394 0.279047,1.36102 0.388055,1.60302 0.158045,-0.21625 0.510822,-0.8509 0.80892,-1.43263 0.0321,-0.0628 0.108655,-0.0875 0.171097,-0.0554 0.06279,0.0321 0.08749,0.10865 0.05574,0.17145 -0.8255,1.61255 -0.956381,1.62136 -1.034345,1.6263 l -0.02222,10e-4"
       style="fill:#e3561d;fill-opacity:1;fill-rule:nonzero;stroke:none;stroke-width:0.0352778"
       id="path2388" />
    <path
       d="m 93.914593,134.8335 c -0.136878,0 -0.460728,-0.20108 -1.461206,-1.4164 -0.04445,-0.0543 -0.03704,-0.13441 0.01764,-0.17921 0.05433,-0.0448 0.134408,-0.037 0.179211,0.0173 0.433211,0.52635 0.964142,1.10914 1.188508,1.27741 0.02999,-0.29069 0.0187,-1.10066 -0.01376,-1.83197 -0.0028,-0.0702 0.05186,-0.12982 0.121708,-0.13265 0.0695,-0.005 0.129823,0.0512 0.132998,0.12171 0.08855,1.99461 -0.01835,2.06869 -0.08185,2.11314 -0.02011,0.0141 -0.04374,0.0307 -0.08326,0.0307"
       style="fill:#e3561d;fill-opacity:1;fill-rule:nonzero;stroke:none;stroke-width:0.0352778"
       id="path2390" />
    <path
       d="m 97.908743,131.06195 z m 0.08502,0.21026 c -0.135819,0 -0.449086,-0.18133 -1.379361,-1.24707 -0.04621,-0.0529 -0.04092,-0.1337 0.01199,-0.17992 0.05292,-0.0459 0.133703,-0.0409 0.179917,0.0123 0.40887,0.46849 0.913342,0.98566 1.121481,1.12395 0.04127,-0.25858 0.06138,-1.00471 0.05715,-1.67675 0,-0.0702 0.05644,-0.12771 0.127,-0.12806 h 7.05e-4 c 0.06985,0 0.126648,0.0564 0.127353,0.12629 0.01094,1.82492 -0.100189,1.89901 -0.159808,1.93887 -0.02081,0.0141 -0.04551,0.0303 -0.08643,0.0303"
       style="fill:#e3561d;fill-opacity:1;fill-rule:nonzero;stroke:none;stroke-width:0.0352778"
       id="path2392" />
    <path
       d="m 94.611681,129.82476 z m 0.08537,0.21026 c -0.13582,0 -0.449086,-0.18168 -1.379714,-1.24742 -0.04621,-0.0529 -0.04057,-0.13335 0.01235,-0.17957 0.05292,-0.0462 0.13335,-0.0409 0.179564,0.0123 0.408869,0.46814 0.913694,0.98566 1.121833,1.1236 0.04092,-0.25859 0.06103,-1.00471 0.05715,-1.67676 -3.53e-4,-0.0702 0.05645,-0.1277 0.126647,-0.12805 0.06915,-0.001 0.127706,0.0561 0.128059,0.12664 0.01164,1.82457 -0.09984,1.89865 -0.159809,1.93887 -0.02046,0.0138 -0.04551,0.0303 -0.08608,0.0303"
       style="fill:#e3561d;fill-opacity:1;fill-rule:nonzero;stroke:none;stroke-width:0.0352778"
       id="path2394" />
    <path
       d="m 97.345004,134.64124 z m 0.06526,0.22825 c -0.121003,0 -0.369711,-0.1778 -1.084086,-1.53706 -0.0321,-0.0624 -0.0085,-0.13934 0.05397,-0.17215 0.06209,-0.0325 0.138994,-0.008 0.171802,0.0536 0.289278,0.55069 0.660048,1.17087 0.830439,1.35361 0.100189,-0.24201 0.293159,-0.96344 0.4445,-1.61784 0.01587,-0.0684 0.08431,-0.11113 0.153106,-0.0952 0.06844,0.0159 0.111125,0.0843 0.09525,0.15275 -0.412397,1.77765 -0.537633,1.82386 -0.605014,1.84926 l -0.05997,0.0131"
       style="fill:#e3561d;fill-opacity:1;fill-rule:nonzero;stroke:none;stroke-width:0.0352778"
       id="path2396" />
    <path
       d="m 101.88314,130.68237 z m 0.0928,0.20425 c -0.12947,0 -0.42369,-0.18309 -1.30881,-1.23825 -0.0455,-0.054 -0.0381,-0.1344 0.0155,-0.17991 0.054,-0.0452 0.13441,-0.0377 0.17957,0.0159 0.3743,0.44627 0.83361,0.94086 1.03928,1.09749 0.0279,-0.26811 0.0268,-0.96449 0.007,-1.59173 -0.002,-0.0705 0.0526,-0.12947 0.12312,-0.13159 0.0691,-0.002 0.12877,0.0529 0.13124,0.12312 0.0571,1.76425 -0.0388,1.83022 -0.10266,1.87431 -0.0208,0.0141 -0.0452,0.0307 -0.084,0.0307"
       style="fill:#e3561d;fill-opacity:1;fill-rule:nonzero;stroke:none;stroke-width:0.0352778"
       id="path2398" />
    <path
       d="m 98.137343,126.79581 z m 0.09631,0.18027 c -0.166864,0 -0.577144,-0.17991 -1.750483,-1.03893 -0.0568,-0.0413 -0.0695,-0.121 -0.02787,-0.17815 0.04163,-0.0564 0.121003,-0.0688 0.1778,-0.0275 0.560917,0.41028 1.231195,0.85126 1.495425,0.96309 -0.04868,-0.29457 -0.274108,-1.08656 -0.499533,-1.79705 -0.02152,-0.0667 0.01587,-0.13829 0.08255,-0.15981 0.06738,-0.0215 0.138994,0.0159 0.160161,0.0825 0.615597,1.93816 0.531636,2.03799 0.481189,2.09726 -0.02223,0.0265 -0.04904,0.0586 -0.119239,0.0586"
       style="fill:#e3561d;fill-opacity:1;fill-rule:nonzero;stroke:none;stroke-width:0.0352778"
       id="path2400" />
    <path
       d="m 101.59315,124.72853 h 7.1e-4 z m 0.0134,0.15946 c -0.23777,0 -0.74048,-0.10231 -1.83762,-0.46849 -0.06668,-0.0226 -0.102658,-0.0945 -0.08043,-0.16122 0.02222,-0.067 0.09454,-0.10266 0.161219,-0.0808 0.654051,0.21837 1.422041,0.43321 1.704971,0.4579 -0.133,-0.26423 -0.58279,-0.94827 -1.00824,-1.55398 -0.0402,-0.0575 -0.0265,-0.13688 0.0311,-0.17745 0.0579,-0.0406 0.13723,-0.0265 0.1778,0.0314 1.16028,1.65276 1.11019,1.7727 1.0802,1.84432 -0.0198,0.0473 -0.0451,0.1083 -0.22895,0.1083"
       style="fill:#e3561d;fill-opacity:1;fill-rule:nonzero;stroke:none;stroke-width:0.0352778"
       id="path2402" />
    <path
       d="m 109.26784,119.13418 z m -1.24355,1.16946 c -0.0409,0 -0.0811,-0.0198 -0.10548,-0.0564 -0.0395,-0.0582 -0.0243,-0.13723 0.0339,-0.1771 0.51012,-0.34431 1.0795,-0.77752 1.23966,-0.9652 -0.248,-0.0741 -0.97825,-0.1912 -1.6383,-0.2741 -0.0702,-0.009 -0.11924,-0.0727 -0.11077,-0.14253 0.009,-0.0699 0.0723,-0.11924 0.14217,-0.11042 1.79211,0.22578 1.85138,0.34537 1.88313,0.40958 0.0476,0.096 0.13546,0.27411 -1.37266,1.29399 l -0.0716,0.0222"
       style="fill:#e3561d;fill-opacity:1;fill-rule:nonzero;stroke:none;stroke-width:0.0352778"
       id="path2404" />
    <path
       d="m 111.26914,123.20877 h 7.1e-4 z m -1.51976,0.69638 c -0.0564,0 -0.10831,-0.0381 -0.12277,-0.0953 -0.018,-0.0681 0.0229,-0.13793 0.0907,-0.15557 0.59549,-0.15558 1.27635,-0.3743 1.49014,-0.49813 -0.2092,-0.1524 -0.85902,-0.50588 -1.4538,-0.80398 -0.0631,-0.0314 -0.0882,-0.10795 -0.0568,-0.17074 0.0318,-0.0631 0.10795,-0.0885 0.17075,-0.0568 1.61501,0.80892 1.63124,0.94157 1.63971,1.01283 0.0127,0.10583 0.0363,0.30339 -1.72544,0.76341 l -0.0324,0.004"
       style="fill:#e3561d;fill-opacity:1;fill-rule:nonzero;stroke:none;stroke-width:0.0352778"
       id="path2406" />
    <path
       d="m 110.69553,127.94728 h 7e-4 z m 0.0275,0.17427 c -0.21272,0 -0.65969,-0.10019 -1.64041,-0.47378 -0.0656,-0.025 -0.0988,-0.0984 -0.0737,-0.16439 0.025,-0.0656 0.0984,-0.0984 0.16439,-0.0737 0.57503,0.21872 1.2566,0.43603 1.50248,0.45896 -0.0815,-0.24518 -0.40605,-0.91052 -0.71755,-1.49825 -0.0328,-0.0624 -0.009,-0.13934 0.0529,-0.17215 0.0621,-0.0332 0.13935,-0.01 0.17251,0.0529 0.8456,1.59597 0.7814,1.71309 0.74718,1.77624 -0.0219,0.0395 -0.0515,0.0942 -0.20779,0.0942"
       style="fill:#e3561d;fill-opacity:1;fill-rule:nonzero;stroke:none;stroke-width:0.0352778"
       id="path2408" />
    <path
       d="m 104.68913,115.61593 z m -1.24354,1.16911 c -0.0406,0 -0.0808,-0.0198 -0.10548,-0.0561 -0.0395,-0.0582 -0.024,-0.13759 0.0342,-0.17675 0.50941,-0.34501 1.07879,-0.77787 1.23931,-0.96555 -0.24801,-0.0741 -0.97861,-0.1912 -1.63866,-0.27446 -0.0695,-0.009 -0.11923,-0.0727 -0.11006,-0.14217 0.008,-0.0698 0.072,-0.11959 0.14217,-0.11077 1.79211,0.22578 1.85102,0.34572 1.88313,0.40993 0.0473,0.0956 0.13546,0.2741 -1.37337,1.29363 l -0.0713,0.0222"
       style="fill:#e3561d;fill-opacity:1;fill-rule:nonzero;stroke:none;stroke-width:0.0352778"
       id="path2410" />
    <path
       d="m 105.50722,127.64072 z m -0.11853,0.1598 c -0.28963,0 -0.8188,-0.0646 -1.79493,-0.26564 -0.0688,-0.0141 -0.11324,-0.0815 -0.0991,-0.15028 0.0141,-0.0692 0.0815,-0.1136 0.15028,-0.0991 0.6985,0.14358 1.50989,0.26846 1.80728,0.26388 -0.17674,-0.25153 -0.73554,-0.88336 -1.25836,-1.4404 -0.0483,-0.0515 -0.0455,-0.13193 0.006,-0.17991 0.0511,-0.0483 0.13194,-0.0459 0.17956,0.006 1.42805,1.52153 1.39489,1.64747 1.37478,1.72262 -0.0162,0.0607 -0.0381,0.14322 -0.36548,0.14322"
       style="fill:#e3561d;fill-opacity:1;fill-rule:nonzero;stroke:none;stroke-width:0.0352778"
       id="path2412" />
    <path
       d="m 108.10226,125.14446 z m -0.79728,0.22754 c -0.24271,0 -0.54293,-0.008 -0.91334,-0.0282 -0.0706,-0.004 -0.12453,-0.0639 -0.12065,-0.13406 0.004,-0.0699 0.0639,-0.12382 0.13405,-0.12029 0.64347,0.0342 1.39101,0.0342 1.64748,-0.018 -0.17145,-0.21307 -0.72426,-0.75 -1.23825,-1.21708 -0.0526,-0.0473 -0.0561,-0.1277 -0.009,-0.17992 0.0473,-0.0519 0.12805,-0.0561 0.17991,-0.008 1.39877,1.27106 1.37689,1.4037 1.36525,1.47496 -0.0141,0.0857 -0.0381,0.23107 -1.04563,0.23107"
       style="fill:#e3561d;fill-opacity:1;fill-rule:nonzero;stroke:none;stroke-width:0.0352778"
       id="path2414" />
    <path
       d="m 101.2873,134.69169 z m 0.0935,0.2039 c -0.13405,0 -0.43921,-0.20673 -1.397704,-1.40476 -0.04374,-0.055 -0.03528,-0.13476 0.01975,-0.17886 0.0547,-0.0437 0.13512,-0.0353 0.17921,0.0198 0.4064,0.508 0.90311,1.07138 1.12289,1.25095 0.0254,-0.28858 0.0152,-1.03682 -0.0141,-1.71309 -0.003,-0.0702 0.0512,-0.12947 0.12171,-0.13265 0.0699,-0.002 0.12947,0.0512 0.13265,0.12171 0.0822,1.88948 -0.0183,1.96109 -0.0783,2.00343 -0.0222,0.0159 -0.0469,0.0335 -0.0861,0.0335"
       style="fill:#e3561d;fill-opacity:1;fill-rule:nonzero;stroke:none;stroke-width:0.0352778"
       id="path2416" />
    <path
       d="m 108.69916,131.05525 h 7e-4 z m 0.0811,0.16369 c -0.19333,0 -0.65194,-0.14323 -1.82492,-0.72355 -0.0628,-0.031 -0.0889,-0.10724 -0.0579,-0.17039 0.0314,-0.0631 0.1076,-0.0892 0.1711,-0.0579 0.60854,0.30092 1.32715,0.61595 1.60549,0.68544 -0.0861,-0.26881 -0.381,-0.94403 -0.66499,-1.54622 -0.03,-0.0632 -0.003,-0.13935 0.0603,-0.16933 0.0639,-0.03 0.1397,-0.003 0.17004,0.061 0.7874,1.66793 0.72954,1.77376 0.69532,1.83726 -0.0212,0.0381 -0.0455,0.0836 -0.15451,0.0836"
       style="fill:#e3561d;fill-opacity:1;fill-rule:nonzero;stroke:none;stroke-width:0.0352778"
       id="path2418" />
    <path
       d="m 105.23558,133.24036 z m 0.10302,0.18697 c -0.15311,0 -0.53058,-0.19332 -1.66123,-1.14864 -0.0536,-0.0455 -0.0607,-0.12595 -0.0152,-0.17957 0.0455,-0.0536 0.12594,-0.0607 0.17956,-0.0152 0.51929,0.4385 1.14124,0.91652 1.39453,1.05093 -0.019,-0.28187 -0.14323,-1.00789 -0.27481,-1.66053 -0.0138,-0.0691 0.0307,-0.13617 0.0995,-0.14993 0.0688,-0.0145 0.13652,0.0307 0.15028,0.0995 0.36407,1.80834 0.28293,1.89724 0.23425,1.95051 -0.0229,0.0247 -0.0487,0.0529 -0.10689,0.0529"
       style="fill:#e3561d;fill-opacity:1;fill-rule:nonzero;stroke:none;stroke-width:0.0352778"
       id="path2420" />
    <path
       d="m 90.52334,129.23386 -0.0127,-3.5e-4 c -0.110067,-0.006 -0.293864,-0.0145 -0.426862,-1.8729 -0.0049,-0.0706 0.04798,-0.13159 0.118181,-0.13617 0.0695,-0.005 0.130881,0.0476 0.136172,0.11783 0.0441,0.61595 0.130881,1.32644 0.208845,1.57903 0.192616,-0.20743 0.651933,-0.82409 1.050219,-1.39312 0.04022,-0.0575 0.119592,-0.0716 0.177447,-0.0314 0.0575,0.0406 0.07161,0.11995 0.0314,0.17745 -1.0414,1.48907 -1.201562,1.55963 -1.2827,1.55963"
       style="fill:#e3561d;fill-opacity:1;fill-rule:nonzero;stroke:none;stroke-width:0.0352778"
       id="path2422" />
    <path
       d="m 97.649451,122.26791 h 0.0011 z m 0.05468,0.15169 c -0.213431,0 -0.691092,-0.11853 -1.815748,-0.56338 -0.06526,-0.0257 -0.09737,-0.0998 -0.07161,-0.16545 0.02575,-0.0653 0.09984,-0.0974 0.165453,-0.0716 0.613834,0.24307 1.334206,0.48966 1.622425,0.5401 -0.134055,-0.26599 -0.538691,-0.90275 -0.921808,-1.46896 -0.03916,-0.0582 -0.02399,-0.13723 0.03422,-0.1771 0.05821,-0.0392 0.137231,-0.024 0.177095,0.0342 1.078089,1.5935 1.029405,1.70251 0.996597,1.77447 -0.02011,0.0445 -0.04374,0.0977 -0.186619,0.0977"
       style="fill:#e3561d;fill-opacity:1;fill-rule:nonzero;stroke:none;stroke-width:0.0352778"
       id="path2424" />
    <path
       d="m 93.072159,124.87917 z m 0.102306,0.19015 c -0.143228,0 -0.487892,-0.20214 -1.551164,-1.27247 -0.04939,-0.0501 -0.04904,-0.13088 3.52e-4,-0.18062 0.05009,-0.049 0.130528,-0.049 0.180623,7e-4 0.464961,0.46849 1.02623,0.98319 1.270353,1.14512 -0.01623,-0.29704 -0.131587,-1.04317 -0.256117,-1.71521 -0.0127,-0.0691 0.03316,-0.13582 0.101953,-0.14852 0.06914,-0.0127 0.135819,0.0332 0.148519,0.10231 0.349603,1.89159 0.261056,1.97203 0.202142,2.02494 -0.02258,0.0208 -0.04833,0.0438 -0.09666,0.0438"
       style="fill:#e3561d;fill-opacity:1;fill-rule:nonzero;stroke:none;stroke-width:0.0352778"
       id="path2426" />
    <path
       d="m 87.050242,127.91624 c -0.120297,0 -0.295628,-0.0593 -0.42298,-1.9992 -0.0049,-0.0702 0.04868,-0.13088 0.118533,-0.13582 0.06985,-0.006 0.131233,0.0487 0.135819,0.11889 0.04304,0.65546 0.127706,1.40794 0.205317,1.68839 0.182739,-0.23248 0.585964,-0.86642 0.933803,-1.45062 0.03598,-0.0607 0.1143,-0.0804 0.174625,-0.0444 0.06033,0.036 0.08043,0.1143 0.0441,0.17463 -0.978606,1.64465 -1.09855,1.64641 -1.177219,1.64782 l -0.01199,3.6e-4"
       style="fill:#e3561d;fill-opacity:1;fill-rule:nonzero;stroke:none;stroke-width:0.0352778"
       id="path2428" />
    <path
       d="m 99.977785,113.41354 h 0.0011 z m -1.273176,1.26436 c -0.03881,0 -0.07691,-0.0173 -0.101952,-0.0504 -0.04233,-0.0561 -0.03069,-0.13617 0.0254,-0.17851 0.506236,-0.381 1.069622,-0.84913 1.248128,-1.05763 -0.274814,-0.0399 -0.994128,-0.0681 -1.643945,-0.073 -0.07056,-3.5e-4 -0.127,-0.0579 -0.126294,-0.12806 3.52e-4,-0.0705 0.05715,-0.12665 0.127352,-0.12665 h 0.0011 c 1.816452,0.0145 1.883122,0.11748 1.923342,0.17922 0.061,0.0942 0.16298,0.25188 -1.37689,1.4097 l -0.0762,0.0254"
       style="fill:#e3561d;fill-opacity:1;fill-rule:nonzero;stroke:none;stroke-width:0.0352778"
       id="path2430" />
    <path
       d="m 100.67382,117.87124 h 7e-4 z m -1.616433,0.67769 c -0.0575,0 -0.109008,-0.0388 -0.123472,-0.0967 -0.01729,-0.0684 0.02434,-0.13759 0.09278,-0.15452 0.614891,-0.15311 1.316565,-0.36442 1.561745,-0.48719 -0.23706,-0.14358 -0.888645,-0.44979 -1.48484,-0.70838 -0.06456,-0.0279 -0.09419,-0.10301 -0.06632,-0.16721 0.02787,-0.0646 0.103011,-0.0946 0.167569,-0.0667 1.666871,0.72249 1.688391,0.84349 1.701091,0.91581 0.019,0.11042 0.0515,0.29528 -1.81786,0.76095 l -0.03069,0.004"
       style="fill:#e3561d;fill-opacity:1;fill-rule:nonzero;stroke:none;stroke-width:0.0352778"
       id="path2432" />
    <path
       d="m 100.65759,119.19768 c 0,0 2.04717,0.0529 2.77848,-0.10301 1.76706,-0.37676 3.20463,-1.04104 3.22262,-1.05057 -0.19967,0.4826 -0.39229,1.50354 0,1.67358 -1.14441,0.80363 -0.85796,1.20121 -0.66675,1.79705 -0.59161,0.0183 -1.01388,0.756 -0.94615,1.76565 -0.8068,-0.3369 -1.61854,0.25471 -1.90077,0.80081 -0.34149,-1.00789 -1.35854,-2.68111 -2.61443,-3.99204 -0.782817,-0.81738 0.127,-0.89147 0.127,-0.89147"
       style="fill:#f36220;fill-opacity:1;fill-rule:nonzero;stroke:none;stroke-width:0.0352778"
       id="path2434" />
    <path
       d="m 84.351139,115.71083 c 0.138995,0.1203 0.321381,0.18238 0.480484,0.27375 0.220838,0.12736 0.430741,0.27305 0.631472,0.43039 0.367947,0.28893 0.707319,0.61313 1.023408,0.9585 0.6223,0.68016 1.06292,1.44992 1.593145,2.19357 0.03598,0.0501 0.129822,0.0222 0.107244,-0.0452 -0.279753,-0.8442 -0.968022,-1.64465 -1.559278,-2.28988 -0.333728,-0.36407 -0.693208,-0.70732 -1.087614,-1.00577 -0.304094,-0.23001 -0.750005,-0.59302 -1.14688,-0.61666 -0.04974,-0.003 -0.08008,0.0677 -0.04198,0.10125"
       style="fill:#e3561d;fill-opacity:1;fill-rule:nonzero;stroke:none;stroke-width:0.0352778"
       id="path2436" />
    <path
       d="m 101.01918,119.55717 c 0.93734,0.22965 1.93852,0.33337 2.90266,0.34819 0.79446,0.0123 1.71485,0.0529 2.48849,-0.16616 l -0.006,-0.0434 c -0.30374,-0.0254 -0.62018,0.0409 -0.92251,0.0646 -0.51894,0.0395 -1.03999,0.0561 -1.56034,0.0452 -0.9779,-0.0205 -1.9244,-0.22507 -2.89454,-0.30868 -0.0346,-0.002 -0.0416,0.0526 -0.008,0.0603"
       style="fill:#e3561d;fill-opacity:1;fill-rule:nonzero;stroke:none;stroke-width:0.0352778"
       id="path2438" />
    <path
       d="m 101.00296,119.7706 c 0.60677,0.4893 1.36983,0.79798 2.0828,1.09713 0.4385,0.18451 0.88018,0.33197 1.34267,0.44204 0.42898,0.1023 0.92322,0.2293 1.36631,0.1718 l 0.007,-0.048 c -0.4318,-0.0691 -0.86395,-0.0963 -1.29152,-0.19403 -0.47695,-0.10936 -0.93557,-0.27305 -1.38324,-0.46849 -0.69391,-0.30303 -1.46473,-0.6103 -2.08245,-1.0541 l -0.0413,0.0536"
       style="fill:#e3561d;fill-opacity:1;fill-rule:nonzero;stroke:none;stroke-width:0.0352778"
       id="path2440" />
    <path
       d="m 101.03894,120.21086 c 0.32738,0.48225 0.81598,0.87383 1.26189,1.24072 0.37359,0.30727 0.76059,0.60184 1.16381,0.86995 0.45332,0.30163 0.92604,0.6477 1.4411,0.83397 l 0.0183,-0.0448 c -0.44062,-0.29951 -0.92604,-0.52741 -1.3649,-0.83362 -0.42015,-0.2928 -0.82691,-0.60572 -1.21743,-0.93768 -0.41522,-0.35278 -0.90982,-0.72743 -1.2439,-1.16311 -0.0261,-0.0339 -0.0843,-0.003 -0.0589,0.0346"
       style="fill:#e3561d;fill-opacity:1;fill-rule:nonzero;stroke:none;stroke-width:0.0352778"
       id="path2442" />
  </g>
</svg>
