<?xml version="1.0" encoding="UTF-8" standalone="no"?>
<svg
   xmlns:dc="http://purl.org/dc/elements/1.1/"
   xmlns:cc="http://creativecommons.org/ns#"
   xmlns:rdf="http://www.w3.org/1999/02/22-rdf-syntax-ns#"
   xmlns:svg="http://www.w3.org/2000/svg"
   xmlns="http://www.w3.org/2000/svg"
   xmlns:sodipodi="http://sodipodi.sourceforge.net/DTD/sodipodi-0.dtd"
   xmlns:inkscape="http://www.inkscape.org/namespaces/inkscape"
   width="210mm"
   height="297mm"
   viewBox="0 0 210 297"
   version="1.1"
   id="svg5897"
   inkscape:version="1.0.2 (e86c8708, 2021-01-15)"
   sodipodi:docname="jellyfish.svg">
  <defs
     id="defs5891" />
  <sodipodi:namedview
     id="base"
     pagecolor="#ffffff"
     bordercolor="#666666"
     borderopacity="1.0"
     inkscape:pageopacity="0.0"
     inkscape:pageshadow="2"
     inkscape:zoom="0.35"
     inkscape:cx="400"
     inkscape:cy="560"
     inkscape:document-units="mm"
     inkscape:current-layer="layer1"
     inkscape:document-rotation="0"
     showgrid="false"
     inkscape:window-width="1252"
     inkscape:window-height="1005"
     inkscape:window-x="0"
     inkscape:window-y="23"
     inkscape:window-maximized="0" />
  <metadata
     id="metadata5894">
    <rdf:RDF>
      <cc:Work
         rdf:about="">
        <dc:format>image/svg+xml</dc:format>
        <dc:type
           rdf:resource="http://purl.org/dc/dcmitype/StillImage" />
        <dc:title></dc:title>
      </cc:Work>
    </rdf:RDF>
  </metadata>
  <g
     inkscape:label="Layer 1"
     inkscape:groupmode="layer"
     id="layer1">
    <path
       d="m 81.054533,105.2626 0.03739,-0.0176 0.03563,-3.5e-4 -0.07302,0.018 m -1.272117,0.24695 -0.01658,-0.007 0.0099,-0.002 0.0067,0.009 m 7.200195,0.41486 h 3.53e-4 l -7.05e-4,-3.5e-4 -0.04939,-0.0593 -0.0081,-0.0102 c -0.0056,-0.036 -0.02399,-0.072 -0.05891,-0.10371 -0.03986,-0.0367 -0.07761,-0.0762 -0.115359,-0.11607 -0.128763,-0.16792 -0.295627,-0.39758 -0.460727,-0.65722 -0.423686,-0.78458 -0.657578,-1.79458 -0.889353,-2.56576 -0.378884,-1.26153 -0.676981,-2.548464 -0.966259,-3.836455 -0.561269,-2.496962 -1.100666,-5.019323 -2.109611,-7.36212 -1.735314,-4.030487 -5.409142,-7.174795 -9.532762,-7.884584 -2.269807,-0.390525 -4.640333,-0.45332 -6.926615,-0.05997 -0.464115,0.07479 -0.940506,0.172861 -1.409312,0.302683 l -0.08326,0.02399 c -0.526803,0.141111 -1.046762,0.309386 -1.557443,0.506236 -1.190766,0.448028 -2.139703,0.963789 -2.944037,1.540581 -0.902758,0.606777 -1.765829,1.309158 -2.530792,2.112786 -0.236044,0.234597 -0.459141,0.484717 -0.669714,0.760942 -0.360645,0.445911 -0.691092,0.918986 -0.98171,1.420636 -0.76895,1.326444 -1.181382,2.797528 -1.454538,4.320117 -0.442489,2.465564 -0.718891,4.857397 -0.729121,7.376228 -0.0037,0.95179 0.0266,1.90782 -0.06047,2.85679 -0.05817,0.63289 -0.151589,1.46403 -0.495688,2.05882 -0.215653,0.27516 -0.509059,0.51611 -0.621489,0.6036 l -0.04575,0.0356 -0.0011,7e-4 h 6.7e-4 c -0.05083,0.0713 -0.02328,0.20144 0.08488,0.19897 1.011061,-0.025 1.898544,-0.36371 2.710215,-0.97437 -0.01891,0.41592 0.173214,1.01988 0.471417,1.05763 0.573546,0.073 0.652075,-0.87278 0.925618,-1.26824 0.47431,-0.68545 0.64576,0.19121 0.880005,0.44944 0.139065,0.15275 0.226695,0.1651 0.439208,0.1457 0.317747,-0.0296 0.520876,-0.24765 0.77336,-0.4251 0.377154,-0.26564 0.751275,-0.3616 1.171045,-0.11395 0.395076,0.23354 0.363785,0.42334 0.06368,0.67981 -0.08544,0.0727 -0.0083,0.20778 0.08227,0.21343 0.853687,0.0504 1.265449,-0.12489 1.936679,-0.65158 0.656626,-0.51541 0.494595,0.19473 1.071986,0.28116 0.23107,0.0346 0.470465,-0.0667 0.678251,-0.1584 0.123754,-0.0547 0.521194,-0.36124 0.651686,-0.34325 0.201048,0.0282 0.309104,0.40075 0.487821,0.51505 0.132574,0.0847 0.267618,0.1069 0.418783,0.0935 0.719067,-0.0642 1.213626,-0.96344 1.93354,-0.26846 0.305364,0.29457 0.487115,0.63006 0.93539,0.38029 0.446511,-0.24871 0.573969,-0.80045 1.156617,-0.51823 0.220063,0.10654 0.564021,0.35525 0.814141,0.33937 0.27753,-0.018 0.456812,-0.27693 0.667632,-0.44697 0.782461,-0.63253 1.526081,-0.2988 1.739865,0.7486 0.01658,0.0801 0.111125,0.11571 0.173919,0.0755 0.200731,-0.1277 0.762353,-0.54645 0.932745,-0.10971 0.0388,0.0991 0.132291,0.12841 0.212372,0.06 0.373239,-0.32103 0.167569,-0.92463 0.270228,-1.35255 0.04057,-0.16792 7.05e-4,-0.19156 0.145344,-0.30868 0.123825,-0.10054 0.443795,-0.11395 0.574675,0.0205 0.08185,0.0843 0.100542,0.25541 0.145345,0.36407 0.06773,0.16475 0.125236,0.31609 0.249414,0.44132 0.47378,0.47908 1.331736,0.75636 1.233311,-0.17956 -0.01411,-0.13617 -0.127706,-0.44626 -0.04551,-0.56691 0.234245,-0.34396 0.484364,0.54574 0.601487,0.72848 0.19438,0.30374 0.811741,0.75847 1.172986,0.50977 0.243769,-0.16757 0.248355,-0.94016 0.249766,-0.98567 0.01023,-0.37147 0.21837,-0.19297 0.251531,-0.15098 0.200025,0.25188 0.138642,0.51293 0.163336,0.62582 0.02893,0.13441 0.04233,0.33691 0.154517,0.43145 0.329494,0.27834 0.603955,-0.0452 0.693208,-0.33831 0.0508,-0.16757 -0.01341,-0.34925 0.05927,-0.54893 0.09419,-0.25823 0.297744,-3.5e-4 0.523522,0.1136 0.200025,0.10054 0.353836,0.16863 0.732014,0.1457 0.06526,-0.004 0.121708,-0.0561 0.121356,-0.12983 -0.0014,-0.32349 0.0896,-0.48577 0.270227,-0.4826 0.396523,0.007 1.114425,0.61207 1.446742,0.62583 0.07161,0.003 0.135114,-0.0684 0.134056,-0.14358 -0.0028,-0.22754 -0.02752,-0.48648 0.01799,-0.72037 0.385939,0.58984 1.263298,0.88335 1.499659,0.12911 0.287866,0.21097 0.591961,0.44168 0.910167,0.57045 0.4953,0.20073 1.04775,0.0272 1.547636,0.19508 0.132997,0.0448 0.208844,-0.11042 0.165805,-0.21731"
       style="fill:#ddddf2;fill-opacity:1;fill-rule:nonzero;stroke:none;stroke-width:0.0352778"
       id="path1518" />
    <path
       d="m 65.747187,103.7954 c -0.68901,0.64805 -0.871044,1.72755 -0.987072,2.62255 -0.142487,1.0982 -0.122802,2.17875 0.06477,3.2699 0.562927,3.27589 1.802306,6.40432 2.337153,9.68657 0.255622,1.56915 0.500627,3.27413 0.427178,4.86657 -0.07567,1.64006 -0.976877,3.02189 -1.909269,4.31588 -0.74937,1.03964 -1.682185,1.98014 -2.170959,3.18453 -0.548746,1.35184 -0.361879,2.90971 -0.06724,4.29965 0.364596,1.71909 0.891011,3.39866 1.195034,5.13221 0.167005,0.95215 0.268711,1.92088 0.253824,2.88855 -0.01517,0.98284 -0.230822,1.91205 -0.458752,2.86208 -0.03528,0.14782 0.187819,0.2593 0.256857,0.10866 1.255537,-2.73861 0.479708,-6.13092 -0.208774,-8.91364 -0.374403,-1.51341 -0.839082,-3.04553 -0.772089,-4.62209 0.06904,-1.62172 0.982239,-2.75273 1.942888,-3.97722 0.829557,-1.05727 1.647155,-2.19322 2.130567,-3.45616 0.542254,-1.4164 0.380894,-2.92912 0.215935,-4.40161 -0.172932,-1.54411 -0.366959,-3.05682 -0.737517,-4.56883 -0.399063,-1.62807 -0.863741,-3.24061 -1.280619,-4.86445 -0.385692,-1.50142 -0.800488,-3.01237 -0.788106,-4.57482 0.009,-1.11619 0.04978,-2.68711 0.852876,-3.56129 0.182739,-0.19897 -0.0992,-0.4826 -0.296686,-0.29704"
       style="fill:#beaddc;fill-opacity:1;fill-rule:nonzero;stroke:none;stroke-width:0.0352778"
       id="path1520" />
    <path
       d="m 60.311939,104.25613 c -0.146755,0.69215 -0.127882,1.41075 -0.213466,2.11243 -0.114511,0.93945 -0.376343,1.83233 -0.421675,2.78659 -0.102658,2.16112 0.182457,4.45805 -0.358422,6.57507 -0.200519,0.78493 -0.592984,1.64501 -1.351033,2.03059 -0.847372,0.4318 -1.596884,0.11395 -1.973086,-0.73589 -0.156951,-0.35454 -0.597924,-2.08986 0.281269,-1.73884 0.721819,0.28786 0.698395,1.16452 0.511105,1.76741 -0.07151,0.23107 0.244757,0.33549 0.370275,0.15628 0.572735,-0.81738 -0.0084,-2.56645 -1.181946,-2.42993 -1.333783,0.15487 -0.574922,2.58833 -0.07687,3.19123 1.108217,1.34267 2.9476,0.28257 3.591984,-0.95991 0.416031,-0.80151 0.546805,-1.67993 0.624664,-2.56893 0.109819,-1.25412 0.115605,-2.5146 0.111195,-3.7726 -0.0022,-0.67981 -0.01446,-1.36032 0.03983,-2.03871 0.04907,-0.61348 0.206022,-1.19415 0.306775,-1.79705 0.132821,-0.79339 0.287444,-1.79916 0.03126,-2.57774 -0.04353,-0.133 -0.259185,-0.15487 -0.291853,0"
       style="fill:#beaddc;fill-opacity:1;fill-rule:nonzero;stroke:none;stroke-width:0.0352778"
       id="path1522" />
    <path
       d="m 79.713977,102.8115 c 0.09102,1.50918 0.292453,3.0159 0.430037,4.52508 0.195439,2.14277 0.134055,4.2792 0.263172,6.42514 0.107597,1.784 0.361244,5.06201 2.649008,5.4356 0.860073,0.14006 1.796345,-0.21166 2.331509,-0.90205 0.506942,-0.6544 0.783167,-1.86549 0.24765,-2.58127 -0.94862,-1.26859 -3.143603,-0.13477 -2.243667,1.36666 0.117475,0.19544 0.430742,0.0677 0.370064,-0.15628 -0.170744,-0.63289 -0.1016,-1.28059 0.699206,-1.29928 0.807508,-0.0191 1.071739,0.70273 0.929922,1.397 -0.194381,0.94932 -1.003653,1.61148 -1.978378,1.58608 -0.935567,-0.0247 -1.504597,-0.84737 -1.827036,-1.63583 -0.402873,-0.98425 -0.500945,-2.04999 -0.574323,-3.10021 -0.08749,-1.25483 -0.110772,-2.51319 -0.117475,-3.77049 -0.0063,-1.22696 -0.16263,-2.4578 -0.291394,-3.67629 -0.08467,-0.79975 -0.169686,-1.6002 -0.281517,-2.39642 -0.06068,-0.43075 -0.101247,-0.91088 -0.324908,-1.29364 -0.07267,-0.12488 -0.291395,-0.0776 -0.28187,0.0762"
       style="fill:#beaddc;fill-opacity:1;fill-rule:nonzero;stroke:none;stroke-width:0.0352778"
       id="path1524" />
    <path
       d="m 59.558547,103.4592 c -0.326707,1.44357 -0.669854,2.88784 -0.912107,4.34834 -0.276296,1.66511 -0.235797,3.32564 0.06241,4.98687 0.681179,3.79589 2.389929,7.31273 4.214743,10.6747 0.958144,1.7653 2.017465,3.47839 2.921176,5.27332 0.883991,1.75578 0.908932,3.69853 1.468438,5.54708 0.495123,1.63583 1.700071,2.94323 2.166973,4.58823 0.524863,1.84961 0.255869,3.81952 0.335386,5.71429 0.0375,0.89676 0.138782,1.79741 0.386291,2.66242 0.257281,0.89852 0.721925,1.66405 1.114249,2.50225 0.860072,1.83797 1.012119,3.93806 0.69215,5.92243 -0.03281,0.20144 0.240947,0.28364 0.309739,0.085 0.523169,-1.5187 0.400403,-3.25472 -0.01658,-4.78613 -0.441395,-1.62313 -1.465827,-2.97357 -1.778211,-4.64468 -0.339408,-1.81468 -0.110243,-3.66641 -0.209057,-5.49698 -0.04851,-0.90382 -0.177905,-1.81398 -0.504084,-2.66277 -0.287302,-0.74753 -0.699346,-1.43263 -1.09541,-2.12583 -0.431588,-0.7546 -0.808637,-1.51977 -1.007075,-2.37138 -0.216888,-0.93168 -0.346992,-1.88101 -0.560282,-2.8134 -0.431905,-1.88842 -1.440356,-3.52178 -2.399312,-5.18231 -1.963561,-3.40042 -3.926734,-6.87952 -5.033434,-10.66941 -0.611857,-2.09479 -1.004182,-4.31271 -0.715186,-6.49534 0.220627,-1.66794 0.680755,-3.29142 0.942834,-4.95089 0.03902,-0.24694 -0.325896,-0.36018 -0.383646,-0.10583"
       style="fill:#beaddc;fill-opacity:1;fill-rule:nonzero;stroke:none;stroke-width:0.0352778"
       id="path1526" />
    <path
       d="m 61.7185,104.28294 c -0.02205,0.47166 -0.365055,0.85195 -0.449228,1.31162 -0.119344,0.65123 -0.06202,1.41253 0.02794,2.06446 0.161396,1.17087 0.642867,2.28388 1.167483,3.33375 1.17094,2.3428 2.493434,4.58964 3.361726,7.0732 0.46482,1.32891 0.84462,2.69169 0.943151,4.1021 0.100577,1.44003 -0.04741,2.88925 -0.363114,4.29507 -0.253577,1.12924 -0.64135,2.14418 -1.417884,3.02224 -0.70859,0.80116 -1.746109,1.50883 -2.86879,1.31198 -0.952641,-0.16651 -2.235729,-1.5501 -1.625388,-2.55658 0.621912,-1.02552 2.099169,0.32244 1.395942,1.1938 -0.173355,0.21484 0.103893,0.51188 0.309633,0.30974 1.351033,-1.32997 -1.289826,-3.49426 -2.218902,-1.64818 -0.469794,0.93381 0.176812,2.09409 0.885931,2.70722 0.830827,0.71861 1.990302,0.73272 2.959065,0.29351 2.700408,-1.22484 3.406387,-4.51238 3.564714,-7.17444 0.198437,-3.34081 -1.013143,-6.47277 -2.472197,-9.41599 -0.831109,-1.6757 -1.846156,-3.27943 -2.553652,-5.01298 -0.381177,-0.9338 -0.611435,-1.8803 -0.626851,-2.89207 -0.0084,-0.53587 0.01115,-0.97155 0.224613,-1.46791 0.123755,-0.28786 0.223379,-0.53057 0.204753,-0.85054 -0.01693,-0.28752 -0.435434,-0.28963 -0.448945,0"
       style="fill:#beaddc;fill-opacity:1;fill-rule:nonzero;stroke:none;stroke-width:0.0352778"
       id="path1528" />
    <path
       d="m 69.081219,104.09032 c -1.543261,1.10067 -1.404761,3.55988 -1.155065,5.20912 0.359375,2.37631 1.440992,4.5727 1.733974,6.96171 0.184785,1.50707 -0.0532,2.93617 -0.291324,4.42137 -0.235091,1.46685 -0.42732,2.94252 -0.516326,4.42595 -0.08283,1.38077 -0.09222,2.72909 0.254106,4.07635 0.357046,1.38994 0.959803,2.69839 1.496554,4.02343 0.62477,1.54269 1.074985,3.10621 1.218459,4.77061 0.137795,1.5995 -0.03859,3.22968 0.157022,4.81965 0.02928,0.23636 0.339019,0.23636 0.368652,0 0.172156,-1.37372 0.116064,-2.82822 0.02611,-4.20793 -0.08819,-1.34797 -0.29845,-2.69346 -0.716456,-3.98075 -0.855099,-2.63454 -2.370526,-5.06483 -2.354545,-7.91421 0.0083,-1.49296 0.144145,-2.9845 0.344523,-4.46335 0.188947,-1.39524 0.532623,-2.78835 0.584552,-4.19805 0.09207,-2.4952 -0.852699,-4.73605 -1.480961,-7.09931 -0.589245,-2.21615 -0.919162,-4.68947 0.547899,-6.62728 0.09507,-0.12559 -0.09162,-0.30692 -0.21717,-0.21731"
       style="fill:#beaddc;fill-opacity:1;fill-rule:nonzero;stroke:none;stroke-width:0.0352778"
       id="path1530" />
    <path
       d="m 70.363602,104.31398 c 0.838976,1.01247 1.096257,2.3876 1.204136,3.66183 0.114794,1.35961 0.188101,2.77319 0.07027,4.13244 -0.141923,1.6376 -0.590762,3.22087 -1.206183,4.73957 -0.577109,1.42452 -1.134251,2.8702 -1.354737,4.3995 -0.173779,1.20579 -0.247791,2.60985 0.269134,3.74861 0.376484,0.83009 1.345495,1.61961 2.315916,1.39171 0.908438,-0.21272 1.187132,-1.38077 1.288732,-2.17205 0.104423,-0.81315 0.0081,-1.90042 -0.926747,-2.17241 -1.783151,-0.51788 -2.37931,2.82399 -0.951089,2.84057 0.24832,0.003 0.311009,-0.38594 0.05966,-0.44097 -0.567196,-0.12453 -0.314466,-1.24531 -0.118922,-1.56916 0.190853,-0.31715 0.514139,-0.48895 0.884026,-0.37289 0.49463,0.15523 0.596583,0.69074 0.601874,1.14301 0.0081,0.66322 -0.178152,2.10396 -0.966223,2.27788 -0.496922,0.10972 -1.104512,-0.23354 -1.421588,-0.59161 -0.354154,-0.39934 -0.516643,-0.94826 -0.602227,-1.46438 -0.41201,-2.48567 0.599052,-4.83341 1.502092,-7.07954 0.932357,-2.31952 1.249821,-4.62809 1.139755,-7.11412 -0.08008,-1.80693 -0.01129,-4.36174 -1.639711,-5.5499 -0.11991,-0.0875 -0.230153,0.0928 -0.148167,0.19191"
       style="fill:#beaddc;fill-opacity:1;fill-rule:nonzero;stroke:none;stroke-width:0.0352778"
       id="path1532" />
    <path
       d="m 80.123905,102.6524 c 2.597856,4.52367 0.187325,10.09015 -1.383241,14.53938 -0.97402,2.75908 -1.604434,5.48464 -1.150762,8.42469 0.238478,1.54869 0.703087,3.10727 1.30175,4.55401 0.605367,1.46332 1.539523,2.77213 2.017537,4.29083 0.563386,1.79141 0.482952,3.84493 0.277636,5.69101 -0.08502,0.76483 -0.311503,1.52577 -0.333022,2.29694 -0.01976,0.72249 0.195438,1.34197 0.548922,1.96603 0.07726,0.13653 0.263525,0.0166 0.204611,-0.11994 -0.620183,-1.44216 -0.07303,-2.89102 0.06879,-4.36951 0.159102,-1.65805 0.231775,-3.38067 -0.117123,-5.02108 -0.305858,-1.43652 -1.096433,-2.69417 -1.759655,-3.98322 -0.760942,-1.47955 -1.275645,-3.15242 -1.604434,-4.78155 -0.352072,-1.7466 -0.388761,-3.57329 -0.05009,-5.32483 0.241653,-1.24883 0.673805,-2.44616 1.097139,-3.64278 0.853722,-2.41406 1.712736,-4.8634 2.142067,-7.39563 0.412044,-2.42747 0.471311,-5.2003 -1.119717,-7.23266 -0.06385,-0.0815 -0.189795,0.0226 -0.140406,0.10831"
       style="fill:#beaddc;fill-opacity:1;fill-rule:nonzero;stroke:none;stroke-width:0.0352778"
       id="path1534" />
    <path
       d="m 61.544721,145.46093 c 2.598174,-4.52367 0.187572,-10.09051 -1.382994,-14.53974 -0.973985,-2.75908 -1.604434,-5.48464 -1.151079,-8.42469 0.23883,-1.54834 0.703368,-3.10691 1.302103,-4.55401 0.605119,-1.46261 1.539698,-2.77177 2.017324,-4.29083 0.563739,-1.79141 0.483129,-3.84458 0.277813,-5.69101 -0.08502,-0.76447 -0.311574,-1.52577 -0.332811,-2.29694 -0.01997,-0.72249 0.195122,-1.34197 0.548605,-1.96568 0.07719,-0.13688 0.26349,-0.0169 0.204929,0.11959 -0.620395,1.44216 -0.07345,2.89102 0.06847,4.36951 0.159173,1.65805 0.231775,3.38067 -0.117122,5.02108 -0.305788,1.43652 -1.096363,2.69417 -1.759621,3.98322 -0.761083,1.47955 -1.275644,3.15242 -1.604186,4.7819 -0.352214,1.74625 -0.388867,3.57294 -0.05031,5.32483 0.241441,1.24883 0.674017,2.44616 1.096927,3.64243 0.853828,2.41406 1.712912,4.86375 2.142561,7.39599 0.411621,2.42711 0.471028,5.19994 -1.120176,7.23265 -0.06382,0.0811 -0.189618,-0.0229 -0.140441,-0.1083"
       style="fill:#beaddc;fill-opacity:1;fill-rule:nonzero;stroke:none;stroke-width:0.0352778"
       id="path1536" />
    <path
       d="m 78.086966,103.55727 c 0.707673,1.17158 0.735542,2.75273 0.739423,4.08129 0.0053,1.64359 -0.180975,3.31011 -0.407106,4.93571 -0.524228,3.76414 -2.377017,7.18009 -3.026834,10.91777 -0.306211,1.76213 -0.315383,3.52672 0.0011,5.28743 0.326672,1.81857 0.942975,3.56941 1.501775,5.32519 0.586317,1.84255 1.126419,3.68335 1.084439,5.63386 -0.02046,0.93697 -0.161925,1.87289 -0.13582,2.81093 0.0254,0.90981 0.231775,1.7974 0.367242,2.69346 0.120297,0.79833 0.148167,1.55293 -0.08502,2.33221 -0.150989,0.50412 -0.481542,1.38077 -1.11125,1.43616 -0.867834,0.0762 -1.490487,-1.17792 -1.421342,-1.89971 0.03104,-0.32244 0.163689,-0.72707 0.474133,-0.88547 0.423686,-0.2159 0.854781,0.21802 1.125009,0.4953 0.122413,0.12559 0.326672,-0.0349 0.240947,-0.18556 -0.278342,-0.48825 -0.744361,-0.95744 -1.362075,-0.79904 -0.515761,0.13229 -0.820561,0.66322 -0.91052,1.15464 -0.194733,1.0668 0.710495,2.77389 1.977673,2.56681 1.109839,-0.18168 1.524,-1.75966 1.621719,-2.68605 0.09313,-0.883 -0.121003,-1.78364 -0.268464,-2.64936 -0.200025,-1.17616 -0.172861,-2.28706 -0.08255,-3.47133 0.07973,-1.04282 0.130528,-2.06129 -0.0448,-3.09845 -0.183444,-1.08515 -0.486127,-2.15159 -0.803627,-3.20393 -0.621242,-2.05811 -1.357489,-4.0961 -1.684162,-6.22864 -0.6985,-4.55754 1.353609,-8.68081 2.549878,-12.95365 0.604661,-2.159 0.845256,-4.51909 0.903111,-6.75817 0.04233,-1.63054 0.04269,-3.64878 -0.839611,-5.08741 -0.156633,-0.25576 -0.559153,-0.0226 -0.403225,0.23601"
       style="fill:#beaddc;fill-opacity:1;fill-rule:nonzero;stroke:none;stroke-width:0.0352778"
       id="path1538" />
    <path
       d="m 76.13928,104.38806 c 0.119944,1.07421 0.514703,2.0955 0.70732,3.15737 0.245886,1.35819 0.121355,2.7947 -0.0088,4.15925 -0.129469,1.36278 -0.358069,2.79894 -0.797278,4.09998 -0.434269,1.28587 -1.216025,2.42358 -1.725083,3.67912 -1.00577,2.48144 -1.227667,5.18442 -0.984603,7.83272 0.121708,1.32469 0.345722,2.63843 0.620183,3.93912 0.277989,1.32045 0.697795,2.62784 0.906639,3.96029 0.24377,1.55222 -0.179916,2.92593 -0.484011,4.42771 -0.230364,1.13841 -0.285397,2.46133 0.363009,3.47662 0.100894,0.15805 0.397933,0.0579 0.319969,-0.13511 -0.964847,-2.38442 0.538692,-4.71981 0.371828,-7.14798 -0.09066,-1.31692 -0.518936,-2.59892 -0.807509,-3.88091 -0.306564,-1.35925 -0.572911,-2.73085 -0.727427,-4.11621 -0.30092,-2.70193 -0.161925,-5.46241 0.829733,-8.01829 0.481189,-1.24001 1.225197,-2.35585 1.699683,-3.59798 0.452262,-1.18286 0.671337,-2.50896 0.833262,-3.76132 0.194733,-1.50213 0.328788,-3.08504 0.122413,-4.59281 -0.163688,-1.19451 -0.549275,-2.37525 -0.887941,-3.52919 -0.05433,-0.18486 -0.37465,-0.15981 -0.351367,0.0476"
       style="fill:#beaddc;fill-opacity:1;fill-rule:nonzero;stroke:none;stroke-width:0.0352778"
       id="path1540" />
    <path
       d="m 74.503802,103.64758 c 0.434975,0.36407 0.04128,1.49931 -0.07197,1.93711 -0.153811,0.59654 -0.369005,1.17933 -0.498827,1.78188 -0.268464,1.24883 -0.406753,2.52483 -0.665692,3.77613 -0.221897,1.07209 -0.477308,2.14066 -0.420158,3.2445 0.112889,2.17875 1.237544,4.07176 2.599972,5.70759 1.522236,1.82704 3.123142,3.78495 3.986389,6.03074 0.74542,1.93922 1.066095,4.07317 1.99002,5.94219 0.716844,1.44956 2.063044,2.28247 3.685117,2.21756 1.4224,-0.0568 2.822222,-0.82127 3.141839,-2.29553 0.256116,-1.18216 0.03669,-2.78306 -0.855839,-3.66995 -1.000125,-0.99306 -2.577395,-0.3496 -2.814109,0.96838 -0.208139,1.15958 0.361245,2.91465 1.813278,2.68076 0.268817,-0.0434 0.190853,-0.45085 -0.06209,-0.45897 -1.189919,-0.0388 -1.488722,-1.77341 -1.036461,-2.63525 0.273756,-0.5214 0.975783,-0.72707 1.492956,-0.43391 0.521405,0.29527 0.786341,0.94791 0.928158,1.49824 0.33902,1.31516 0.141817,2.84727 -1.188508,3.50909 -1.267884,0.63076 -3.004256,0.42756 -3.990976,-0.61631 -1.147939,-1.21461 -1.44145,-3.21521 -1.884539,-4.76779 -0.261055,-0.91475 -0.531636,-1.82986 -0.917222,-2.70192 -0.396522,-0.89677 -0.9398,-1.73285 -1.480255,-2.54777 -1.098903,-1.6584 -2.551642,-3.05329 -3.606095,-4.73322 -1.104195,-1.76 -1.474964,-3.68229 -1.091495,-5.71923 0.365125,-1.93922 0.623711,-3.92818 1.145117,-5.83106 0.205317,-0.74719 0.918281,-2.62502 0.03387,-3.18418 -0.180623,-0.11394 -0.401461,0.15981 -0.232481,0.30092"
       style="fill:#beaddc;fill-opacity:1;fill-rule:nonzero;stroke:none;stroke-width:0.0352778"
       id="path1542" />
    <path
       d="m 84.047147,103.383 c -0.08079,-0.0272 -0.15628,-0.0737 -0.22613,-0.13229 -0.03881,-0.0378 -0.08008,-0.079 -0.122767,-0.12242 -0.263525,-0.30762 -0.424392,-0.79833 -0.445911,-1.12395 -0.0042,-0.0628 -0.0635,-0.0882 -0.11042,-0.0765 l -0.0032,-0.006 c 0,0 -1.099608,-0.19614 -1.245658,-0.47836 -0.14605,-0.28187 -0.144286,0.22895 -0.320322,0.2801 -0.176036,0.0508 -0.438856,0.0706 -0.633236,-0.0854 -0.194734,-0.15558 -0.400756,-0.41381 -0.400756,-0.41381 0,0 0.109008,0.72002 -0.0762,0.75671 -0.184856,0.0367 -0.824089,-0.42016 -1.080206,-0.43039 -0.256116,-0.0106 -0.414161,0.375 -0.440619,0.43074 -0.02646,0.0557 -0.524933,0.0942 -0.714728,-0.0748 -0.189794,-0.16898 -0.304447,-0.18097 -0.352778,-0.13229 -0.04868,0.049 -0.02963,0.61595 -0.195086,0.71191 -0.1651,0.096 -0.3175,0.03 -0.397228,-0.0928 -0.07937,-0.12277 -0.03281,-0.74613 -0.299155,-0.77012 -0.2667,-0.024 -0.305506,0.71579 -0.364067,0.7934 -0.05821,0.0776 -0.282222,0.30162 -0.437797,0.19473 -0.155928,-0.10724 -0.464961,-0.37147 -0.52952,-0.53093 -0.06421,-0.15981 -0.357364,-0.56338 -0.508352,-0.51682 -0.150989,0.0469 -0.03281,0.55139 -0.06174,0.70697 -0.02928,0.15593 -0.165805,0.25294 -0.301977,0.22366 -0.136173,-0.0289 -0.563739,-0.20955 -0.632531,-0.34043 -0.06844,-0.13053 -0.155575,-0.64206 -0.4572,-0.71049 -0.301625,-0.0677 -0.506236,0.01 -0.545042,0.22401 -0.0388,0.21414 -0.07796,1.09008 -0.14605,1.12889 -0.06773,0.0388 -0.197908,-0.23284 -0.408516,-0.20461 -0.210962,0.0279 -0.58032,0.25506 -0.58032,0.25506 0,0 -0.254494,-0.66746 -0.470041,-0.76624 -0.215653,-0.0991 -0.545677,-0.18944 -0.964071,0.11219 -0.418359,0.30162 -0.445523,0.39123 -0.699629,0.34642 -0.254247,-0.0448 -0.75184,-0.36971 -0.945727,-0.28504 -0.194028,0.085 -0.631825,0.46425 -0.836189,0.47413 -0.204258,0.01 -0.486869,-0.4452 -0.788247,-0.50623 -0.301237,-0.0607 -0.924383,0.21413 -1.216413,0.32138 -0.291994,0.10689 -0.546382,-0.0826 -0.643396,-0.20532 -0.09716,-0.12277 -0.188101,-0.17427 -0.339549,-0.14534 -0.151165,0.0293 -0.808778,0.39687 -1.090295,0.31044 -0.281693,-0.0864 -0.388902,-0.50483 -0.456812,-0.46602 -0.06823,0.0388 -0.597817,0.51999 -0.807826,0.6036 -0.209867,0.0833 -1.070469,0.15558 -1.070469,0.15558 0,0 0.337644,-0.17392 0.140865,-0.40922 -0.196674,-0.23531 -0.589951,-0.44168 -0.792798,-0.40817 -0.202847,0.0335 -0.778439,0.4378 -1.031452,0.47696 -0.253153,0.0384 -0.476955,-0.0392 -0.623041,-0.2727 -0.145767,-0.23354 -0.350273,-0.58385 -0.554496,-0.25294 -0.204364,0.3309 -0.412185,0.80645 -0.574251,0.91475 -0.206693,0.13794 -0.428132,0.0194 -0.467149,-0.078 -0.03884,-0.097 -0.08721,-0.63465 -0.08721,-0.63465 0,0 -0.758896,0.60572 -1.56711,0.78493 -0.0081,-0.0617 -0.105304,-0.0931 -0.139594,-0.0275 -0.451309,0.8629 -1.067717,1.55082 -1.748473,2.23803 -0.0744,0.0755 -0.06269,0.22789 0.04618,0.18873 0.214136,-0.0765 0.638563,-0.15416 0.930592,-0.21237 0.228318,-0.0459 0.0937,0.37148 0.06488,0.59972 -0.01926,0.15381 -0.07645,0.38665 0.08354,0.48578 0.529696,0.32773 0.821443,-0.85902 1.069905,-1.01671 0.463303,-0.29421 0.638986,0.52282 0.863317,0.73484 0.163583,0.15522 0.345617,0.2219 0.559647,0.1718 0.357858,-0.084 0.547758,-0.38876 0.717656,-0.69003 0.263913,-0.46814 0.512939,-0.85902 0.933238,-1.17546 0.02713,0.47096 0.114794,0.98249 0.663364,1.08656 0.277953,0.0526 0.483976,-0.0441 0.704885,-0.19897 0.165629,-0.11642 0.406083,-0.369 0.515655,-0.2667 0.07691,0.072 0.258939,0.27764 0.362409,0.35207 0.216782,0.15699 0.493748,0.27446 0.767151,0.24342 0.135607,-0.0155 0.195827,-0.0296 0.307057,-0.10054 0.335668,-0.21379 0.213995,-0.38629 0.784367,-0.27235 0.413808,0.0825 0.743302,0.2339 1.046903,-0.18379 0.126506,-0.17428 0.179952,-0.39935 0.27559,-0.58985 0.06297,-0.12629 0.09592,-0.26635 0.249308,-0.30727 0.278906,-0.0741 0.339937,0.38382 0.443159,0.58949 0.115747,0.23072 0.235233,0.61313 0.486058,0.72849 0.241688,0.11113 0.408834,-0.0741 0.611681,-0.22013 0.406541,-0.29316 0.484823,0.1277 0.84074,0.24906 0.145662,0.0497 0.282787,0.0342 0.407494,-0.0586 0.223379,-0.16581 0.381847,-0.86643 0.704744,-0.37113 0.117405,0.17992 0.07179,0.37818 0.281517,0.50307 0.199425,0.11888 0.340783,0.0716 0.51883,-0.0222 0.03281,-0.0173 0.119063,-0.10477 0.149401,-0.12453 0.210679,-0.13758 0.324521,-0.11783 0.576545,-0.0892 0.173108,0.0194 0.306635,0.0843 0.486057,0.054 0.505037,-0.0857 0.66668,-0.58102 1.244918,-0.39934 0.372216,0.11677 0.520383,0.30656 0.97088,0.0437 l 0.0028,-0.002 c 0.295628,-0.14993 0.480836,-0.32596 0.782814,-0.59619 0.10795,-0.0963 0.134761,-0.16404 0.311503,0.005 0.08467,0.0815 0.167569,0.22366 0.275166,0.27763 0.181328,0.091 0.279048,0.11854 0.462139,0.0378 0.0635,-0.0282 0.289631,-0.23107 0.357364,-0.28469 0.138642,-0.10936 0.180623,0.0406 0.392642,0.22789 0.350308,0.30974 0.617361,0.72814 1.147233,0.46285 0.455437,-0.2279 0.345017,-0.86889 0.745067,-1.08762 0.542572,-0.29598 1.213909,0.907 1.720145,0.24307 0.161925,-0.21202 0.03281,-0.49918 0.37465,-0.387 0.219427,0.072 0.406047,0.23319 0.661458,0.17216 0.490361,-0.11783 0.598311,-1.02941 1.196622,-0.76835 0.352425,0.15381 0.610659,0.46108 0.987778,0.60289 0.284692,0.1069 0.623359,0.17498 0.926747,0.1898 0.397228,0.0191 0.85337,0.018 0.885473,-0.45544 0.0035,-0.0533 -0.03951,-0.0977 -0.08643,-0.11324"
       style="fill:#725b94;fill-opacity:1;fill-rule:nonzero;stroke:none;stroke-width:0.0352778"
       id="path1544" />
    <path
       d="m 79.080741,101.45119 0.03104,-0.0134 0.02928,-3.5e-4 -0.06032,0.0138 m -1.052336,0.1905 -0.01376,-0.005 0.0081,-0.002 0.0056,0.007 m 5.956301,0.32067 h 3.52e-4 l -3.52e-4,-3.5e-4 -0.04092,-0.0459 -0.0067,-0.008 -0.04868,-0.0801 c -0.03316,-0.0282 -0.06421,-0.0589 -0.09525,-0.09 -0.106891,-0.12947 -0.244828,-0.30656 -0.381353,-0.50694 -0.350661,-0.60607 -0.543983,-1.385713 -0.735894,-1.980849 -0.31362,-0.974019 -0.559858,-1.967794 -0.799395,-2.961922 -0.463902,-1.927578 -0.910519,-3.874911 -1.744839,-5.683603 -1.435805,-3.1115 -4.475339,-5.538965 -7.8867,-6.087181 -1.877625,-0.301625 -3.838999,-0.349956 -5.730346,-0.04621 -0.383928,0.0575 -0.778193,0.13335 -1.166107,0.233186 l -0.06862,0.01905 c -0.435998,0.108656 -0.866104,0.238831 -1.28845,0.390525 -0.985167,0.346075 -1.770239,0.744008 -2.435543,1.189567 -0.747042,0.468136 -1.460888,1.010708 -2.093948,1.631244 -0.195121,0.180975 -0.3798,0.373945 -0.553825,0.587023 -0.298486,0.344664 -0.571606,0.709789 -0.812095,1.096786 -0.636235,1.024467 -0.977441,2.159705 -1.203431,3.335514 -0.366007,1.903589 -0.594748,3.750028 -0.603179,5.694539 -0.0033,0.734836 0.02205,1.472841 -0.05016,2.205211 -0.04808,0.48895 -0.125236,1.1303 -0.409963,1.58962 -0.178435,0.21272 -0.421111,0.39828 -0.514139,0.46637 l -0.03789,0.0272 -8.11e-4,3.5e-4 h 3.88e-4 c -0.04202,0.055 -0.0193,0.15593 0.07027,0.15382 0.836471,-0.0194 1.570567,-0.28082 2.242079,-0.75248 -0.0157,0.32173 0.143334,0.78775 0.390137,0.81703 0.474451,0.0561 0.539362,-0.67415 0.765775,-0.97931 0.392324,-0.52916 0.534106,0.14746 0.727886,0.34678 0.115041,0.11818 0.187678,0.12771 0.363503,0.11254 0.262784,-0.0226 0.431059,-0.19121 0.639551,-0.32844 0.312137,-0.20461 0.621629,-0.27869 0.968904,-0.0875 0.327025,0.18027 0.300955,0.32668 0.05263,0.52459 -0.0707,0.0564 -0.0067,0.16051 0.06823,0.16474 0.706085,0.0388 1.046904,-0.0963 1.602106,-0.50306 0.543207,-0.39758 0.409257,0.15064 0.886883,0.21731 0.191276,0.0268 0.389043,-0.0515 0.560881,-0.12241 0.102518,-0.042 0.431307,-0.27905 0.53908,-0.26494 0.166617,0.0219 0.255905,0.30939 0.404037,0.39758 0.109431,0.0653 0.221191,0.0825 0.346322,0.072 0.594889,-0.049 1.003899,-0.74366 1.5996,-0.20708 0.252483,0.22754 0.402943,0.48648 0.773783,0.29351 0.369323,-0.19191 0.474733,-0.61771 0.956909,-0.40005 0.181893,0.0822 0.46662,0.27446 0.673453,0.26211 0.229588,-0.0138 0.378002,-0.21343 0.552168,-0.34537 0.647559,-0.48789 1.262698,-0.23036 1.439651,0.57821 0.01351,0.0617 0.09169,0.0893 0.143898,0.0586 0.165806,-0.0988 0.630414,-0.42228 0.771525,-0.085 0.0321,0.0765 0.109361,0.0991 0.175331,0.0462 0.309033,-0.24765 0.138994,-0.71367 0.224014,-1.04387 0.03351,-0.12982 3.52e-4,-0.14781 0.119944,-0.23883 0.102658,-0.0773 0.367595,-0.0875 0.475545,0.0162 0.06773,0.0653 0.08326,0.19685 0.120297,0.28116 0.05609,0.127 0.103716,0.24377 0.206375,0.34079 0.391936,0.36971 1.101725,0.58349 1.020586,-0.139 -0.01199,-0.10512 -0.105833,-0.34431 -0.0381,-0.43744 0.194028,-0.26564 0.400756,0.42122 0.497769,0.56233 0.160867,0.23459 0.671337,0.58526 0.970492,0.3937 0.201436,-0.12983 0.20567,-0.72602 0.206728,-0.7613 0.0085,-0.28681 0.180622,-0.14887 0.207786,-0.11641 0.165806,0.19438 0.115006,0.39617 0.135114,0.48295 0.02399,0.10372 0.03528,0.26035 0.127706,0.33302 0.27305,0.2152 0.500238,-0.0346 0.573616,-0.26105 0.04198,-0.12912 -0.01094,-0.26953 0.04939,-0.42369 0.07796,-0.19932 0.246239,-3.5e-4 0.432859,0.0878 0.165452,0.0776 0.292452,0.12982 0.605366,0.11254 0.05433,-0.003 0.100895,-0.0438 0.100542,-0.10054 -0.0011,-0.24942 0.07444,-0.37465 0.223661,-0.37219 0.328083,0.006 0.921808,0.47202 1.196975,0.48296 0.05927,0.002 0.111478,-0.0529 0.110772,-0.11077 -0.0025,-0.17569 -0.02258,-0.37571 0.01482,-0.55634 0.319264,0.45544 1.045281,0.68228 1.241072,0.0995 0.237773,0.16298 0.489303,0.34149 0.752475,0.44062 0.409928,0.15487 0.866775,0.0212 1.280231,0.15063 0.110067,0.0346 0.173214,-0.0854 0.137231,-0.16757"
       style="fill:#c8b4e0;fill-opacity:1;fill-rule:nonzero;stroke:none;stroke-width:0.0352778"
       id="path1546" />
    <path
       d="m 67.106475,90.68053 c -0.01707,0 -0.03277,-0.0092 -0.03542,-0.03104 -0.114512,-0.931334 0.0058,-2.011892 0.130246,-2.956984 0.110525,-0.840669 0.29531,-1.798814 0.616514,-2.564694 l 0.05168,0.02187 c -0.176671,0.802922 -0.363925,1.597378 -0.481189,2.412647 -0.147743,1.026231 -0.2274,2.112081 -0.233186,3.07587 0,0.02575 -0.02561,0.04233 -0.04865,0.04233"
       style="fill:#977ec4;fill-opacity:1;fill-rule:nonzero;stroke:none;stroke-width:0.0352778"
       id="path1548" />
    <path
       d="m 71.717951,90.19793 c -0.0248,0 -0.05443,-0.01905 -0.05704,-0.04621 -0.09507,-0.963436 -0.203941,-1.891594 -0.495829,-2.819753 -0.235091,-0.747889 -0.550792,-1.668991 -1.114143,-2.242961 l 0.03485,-0.03492 c 0.646854,0.531989 0.955817,1.381831 1.209111,2.156531 0.297392,0.909461 0.489903,2.016125 0.457518,2.953455 -9.88e-4,0.02364 -0.01641,0.03387 -0.03447,0.03387"
       style="fill:#977ec4;fill-opacity:1;fill-rule:nonzero;stroke:none;stroke-width:0.0352778"
       id="path1550" />
    <path
       d="m 76.7958,91.306358 c -0.0187,0 -0.0374,-0.01023 -0.04657,-0.03281 -0.489303,-1.228725 -1.017059,-2.407356 -1.740253,-3.519664 -0.537281,-0.827264 -1.376892,-2.048228 -2.256014,-2.405945 l -0.109714,-0.03104 c -0.03951,-0.01411 -0.09031,-0.08079 -0.01623,-0.08079 0.0039,0 0.0081,3.53e-4 0.0127,7.06e-4 0.363009,0.02928 0.758825,0.352778 1.027642,0.601486 0.459669,0.425097 0.863247,0.917928 1.228372,1.425575 0.839964,1.166636 1.646767,2.563989 1.945217,3.984625 0.0074,0.03634 -0.01834,0.05786 -0.04515,0.05786"
       style="fill:#977ec4;fill-opacity:1;fill-rule:nonzero;stroke:none;stroke-width:0.0352778"
       id="path1552" />
    <path
       d="m 61.624096,91.42348 c -0.02702,0 -0.05348,-0.02187 -0.0459,-0.05821 0.277812,-1.347964 1.014377,-2.698398 1.823297,-3.798359 0.546664,-0.743303 1.365497,-1.702505 2.201404,-2.05493 0.0039,-0.0018 0.0077,-0.0025 0.01157,-0.0025 0.03267,0 0.05884,0.05186 0.02826,0.07126 -0.705414,0.449086 -1.590675,1.359606 -2.198229,2.239787 -0.76715,1.111602 -1.222339,2.072569 -1.774931,3.569758 -0.0084,0.02293 -0.02699,0.03316 -0.04547,0.03316"
       style="fill:#977ec4;fill-opacity:1;fill-rule:nonzero;stroke:none;stroke-width:0.0352778"
       id="path1554" />
    <path
       d="m 79.141066,97.759017 c 0,0.858661 -0.632177,1.554692 -1.412169,1.554692 -0.779639,0 -1.411817,-0.696031 -1.411817,-1.554692 0,-0.858661 0.632178,-1.554692 1.411817,-1.554692 0.779992,0 1.412169,0.696031 1.412169,1.554692"
       style="fill:#ffffff;fill-opacity:1;fill-rule:nonzero;stroke:none;stroke-width:0.0352778"
       id="path1556" />
    <path
       d="m 77.893644,97.824281 c 0,0.474486 -0.300567,0.859366 -0.671336,0.859366 -0.37077,0 -0.671689,-0.38488 -0.671689,-0.859366 0,-0.474839 0.300919,-0.85972 0.671689,-0.85972 0.370769,0 0.671336,0.384881 0.671336,0.85972"
       style="fill:#333f48;fill-opacity:1;fill-rule:nonzero;stroke:none;stroke-width:0.0352778"
       id="path1558" />
    <path
       d="m 77.318616,97.601325 c 0,0.230011 -0.147814,0.416631 -0.330905,0.416631 -0.182386,0 -0.330553,-0.18662 -0.330553,-0.416631 0,-0.230011 0.148167,-0.416631 0.330553,-0.416631 0.183091,0 0.330905,0.18662 0.330905,0.416631"
       style="fill:#ffffff;fill-opacity:1;fill-rule:nonzero;stroke:none;stroke-width:0.0352778"
       id="path1560" />
    <path
       d="m 62.497221,97.759017 c 0,0.858661 -0.632248,1.554692 -1.412063,1.554692 -0.779992,0 -1.412205,-0.696031 -1.412205,-1.554692 0,-0.858661 0.632213,-1.554692 1.412205,-1.554692 0.779815,0 1.412063,0.696031 1.412063,1.554692"
       style="fill:#ffffff;fill-opacity:1;fill-rule:nonzero;stroke:none;stroke-width:0.0352778"
       id="path1562" />
    <path
       d="m 62.293951,97.824281 c 0,0.474486 -0.300532,0.859366 -0.671372,0.859366 -0.37084,0 -0.671653,-0.38488 -0.671653,-0.859366 0,-0.474839 0.300813,-0.85972 0.671653,-0.85972 0.37084,0 0.671372,0.384881 0.671372,0.85972"
       style="fill:#333f48;fill-opacity:1;fill-rule:nonzero;stroke:none;stroke-width:0.0352778"
       id="path1564" />
    <path
       d="m 61.719064,97.601325 c 0,0.230011 -0.148167,0.416631 -0.33087,0.416631 -0.182598,0 -0.330729,-0.18662 -0.330729,-0.416631 0,-0.230011 0.148131,-0.416631 0.330729,-0.416631 0.182703,0 0.33087,0.18662 0.33087,0.416631"
       style="fill:#ffffff;fill-opacity:1;fill-rule:nonzero;stroke:none;stroke-width:0.0352778"
       id="path1566" />
    <path
       d="m 62.40116,86.705077 c -1.024431,0.472722 -1.933505,1.430161 -2.619093,2.302934 -0.345757,0.439914 -0.669854,0.897466 -0.946714,1.3843 -0.242394,0.426155 -0.5588,0.903816 -0.473746,1.408994 0.02258,0.132997 0.202424,0.192264 0.308399,0.125589 0.381846,-0.240594 0.534952,-0.703439 0.751028,-1.084086 0.276578,-0.486833 0.571888,-0.964847 0.90357,-1.416403 0.312667,-0.42545 0.66615,-0.815269 0.998114,-1.225197 0.376908,-0.46602 0.853017,-0.833261 1.238603,-1.288345 0.09906,-0.116769 -0.02233,-0.271639 -0.160161,-0.207786"
       style="fill:#dad2ec;fill-opacity:1;fill-rule:nonzero;stroke:none;stroke-width:0.0352778"
       id="path1568" />
    <path
       d="m 63.286138,99.446706 c 0.48895,0.122766 0.989154,0.2159 1.489393,0.2921 0.500662,0.07832 1.003229,0.141464 1.507455,0.1905 1.008697,0.09207 2.021029,0.148164 3.034136,0.145694 l 0.759742,-0.005 c 0.253118,-0.005 0.506272,-0.0134 0.759284,-0.0212 0.505742,-0.024 1.011343,-0.05574 1.515004,-0.104422 0.50412,-0.04586 1.007181,-0.105128 1.506714,-0.187325 0.499181,-0.07867 0.999067,-0.174978 1.483431,-0.310444 l 0.0032,-7.06e-4 0.05398,0.03034 -0.02787,0.05327 c -0.971903,0.333728 -1.984022,0.502357 -2.9972,0.626177 -1.014942,0.11501 -2.036339,0.16581 -3.057208,0.16087 -1.020445,-0.0113 -2.04156,-0.0617 -3.055232,-0.1845 -1.012719,-0.12842 -2.022016,-0.297747 -3.000692,-0.602194 l -0.02879,-0.05503 0.05235,-0.02928 0.0023,7.06e-4"
       style="fill:#333f48;fill-opacity:1;fill-rule:nonzero;stroke:none;stroke-width:0.0352778"
       id="path1570" />
  </g>
</svg>
