<?xml version="1.0" encoding="UTF-8" standalone="no"?>
<svg
   xmlns="http://www.w3.org/2000/svg"
   width="210mm"
   height="297mm"
   viewBox="0 0 210 297"
   version="1.1"
   id="svg7673">
  <defs
     id="defs7667" />
  <sodipodi:namedview
     id="base"
     pagecolor="#ffffff"
     bordercolor="#666666"
     borderopacity="1.0"
     showgrid="false"/>
  <metadata
     id="metadata7670">
    <rdf:RDF>
      <cc:Work>
        <dc:format>image/svg+xml</dc:format>
        <dc:type />
        <dc:title></dc:title>
      </cc:Work>
    </rdf:RDF>
  </metadata>
  <g
     id="layer1">
    <path
       d="m 104.52101,224.15283 c -0.10724,-0.15981 -0.32349,-0.20249 -0.48365,-0.0952 l -0.097,0.0649 -0.0554,0.0395 -0.10513,0.0755 -0.20038,0.1524 -0.39441,0.30762 c -0.25823,0.20955 -0.51364,0.42333 -0.76305,0.64523 -0.25118,0.22119 -0.49601,0.44803 -0.73801,0.68651 -0.12207,0.11677 -0.2406,0.24094 -0.35843,0.36935 -0.11888,0.13018 -0.23459,0.25894 -0.35807,0.42687 l -0.0949,0.1397 -0.03,0.054 -0.0325,0.0727 c -0.0205,0.049 -0.037,0.0998 -0.0508,0.14958 -0.0134,0.0861 -0.012,0.16863 -0.01,0.24765 l 0.0208,0.15416 c 0.0321,0.19438 0.0744,0.35878 0.11748,0.52635 0.0924,0.32949 0.19261,0.64805 0.30233,0.96379 0.21625,0.63112 0.46672,1.24601 0.74647,1.85243 0.0339,0.073 0.11254,0.11783 0.19615,0.10513 0.10089,-0.0155 0.17004,-0.10971 0.15487,-0.21061 l -3.5e-4,-0.001 c -0.0998,-0.65476 -0.21202,-1.30564 -0.33373,-1.94769 -0.0572,-0.32103 -0.11818,-0.641 -0.16581,-0.95497 -0.0243,-0.15416 -0.048,-0.31291 -0.0557,-0.44521 l -0.002,-0.0455 0.042,-0.0512 c 0.16298,-0.19403 0.41839,-0.41874 0.64593,-0.63147 0.2346,-0.2159 0.4819,-0.42686 0.72355,-0.64241 l 0.73448,-0.64276 0.36478,-0.32385 0.18238,-0.15981 0.0875,-0.0787 0.0416,-0.0377 0.002,-0.008 0.0258,-0.54645 c 0.004,-0.072 -0.0155,-0.14605 -0.0589,-0.21061"
       style="fill:#e13956;fill-opacity:1;fill-rule:nonzero;stroke:none;stroke-width:0.0352778"
       id="path2540" />
    <path
       d="m 107.35206,224.71798 -0.25683,-0.61489 c -0.0159,-0.0378 -0.0406,-0.0723 -0.0737,-0.10125 -0.11571,-0.10019 -0.29069,-0.0875 -0.39052,0.0282 l -0.078,0.09 -0.0427,0.0515 -0.0815,0.10019 -0.1524,0.20037 -0.29845,0.40005 c -0.19333,0.26988 -0.38206,0.54364 -0.56374,0.82304 -0.18239,0.2794 -0.35807,0.56268 -0.52741,0.85725 -0.0854,0.14675 -0.16756,0.29492 -0.24623,0.45296 -0.0797,0.16087 -0.15558,0.30868 -0.22966,0.52141 l -0.0268,0.0804 -0.0131,0.0406 -0.0141,0.072 c -0.0141,0.0998 -0.0279,0.22895 -0.002,0.29704 0.0427,0.18803 0.0861,0.24412 0.12735,0.34572 0.0833,0.1658 0.16933,0.31609 0.25612,0.46355 0.1785,0.28998 0.36195,0.56797 0.5528,0.84067 0.37888,0.5468 0.78634,1.06927 1.21955,1.5755 0.0519,0.061 0.14005,0.0829 0.21696,0.0483 0.0931,-0.042 0.13441,-0.15204 0.0921,-0.24518 l -3.5e-4,-7e-4 c -0.2734,-0.60184 -0.55739,-1.19627 -0.84843,-1.77941 -0.14252,-0.29316 -0.28857,-0.58385 -0.42086,-0.87278 -0.0663,-0.14322 -0.12983,-0.28539 -0.18168,-0.4191 l -0.0229,-0.0709 0.0152,-0.0335 c 0.0402,-0.0956 0.11923,-0.23883 0.19543,-0.36689 0.0769,-0.13088 0.16228,-0.26564 0.24518,-0.4004 0.16793,-0.26952 0.34925,-0.53799 0.52423,-0.80892 l 0.53622,-0.81245 0.26529,-0.40781 0.133,-0.20143 0.0632,-0.0991 0.0303,-0.0473 -10e-4,-0.007"
       style="fill:#e13956;fill-opacity:1;fill-rule:nonzero;stroke:none;stroke-width:0.0352778"
       id="path2542" />
    <path
       d="m 103.06193,223.20598 c -0.0921,-0.23848 -0.36019,-0.35666 -0.59867,-0.26459 l -0.10195,0.0395 -0.0646,0.0265 -0.1203,0.0504 -0.23283,0.10513 -0.45967,0.21272 c -0.30339,0.14782 -0.60537,0.2981 -0.90276,0.45897 -0.599368,0.32173 -1.177923,0.64805 -1.768121,1.07032 -0.07408,0.055 -0.148519,0.10725 -0.233891,0.18662 -0.04586,0.0445 -0.06738,0.0505 -0.143934,0.14499 -0.06209,0.0776 -0.12453,0.16475 -0.142169,0.2413 -0.01341,0.0395 -0.02611,0.0801 -0.03669,0.11995 -0.0092,0.0374 -0.0095,0.0557 -0.01446,0.0843 -0.0074,0.0519 -0.01658,0.10725 -0.02081,0.15558 -0.006,0.0914 -0.01552,0.18803 -0.01729,0.27516 -0.0088,0.3556 0.0011,0.69427 0.02117,1.034 0.03669,0.67768 0.1143,1.34761 0.224014,2.01718 0.01305,0.0797 0.07761,0.14464 0.161219,0.15416 0.1016,0.0117 0.193322,-0.0614 0.204964,-0.16263 l 3.53e-4,-0.002 c 0.07655,-0.6664 0.141817,-1.33456 0.198967,-1.99355 0.0314,-0.32879 0.06103,-0.65828 0.106186,-0.96943 0.0092,-0.0797 0.02434,-0.14887 0.03563,-0.22366 l 0.02152,-0.0914 0.0021,-0.009 c 0.0035,0.0183 0.101953,-0.0741 0.208845,-0.133 0.521053,-0.32173 1.124657,-0.62724 1.702857,-0.93662 l 0.87771,-0.46532 0.43639,-0.23636 0.21766,-0.11606 0.10513,-0.0582 0.049,-0.0272 0.0127,-0.0109 0.18132,-0.19791 c 0.11501,-0.12559 0.15593,-0.31009 0.0903,-0.47942"
       style="fill:#e13956;fill-opacity:1;fill-rule:nonzero;stroke:none;stroke-width:0.0352778"
       id="path2544" />
    <path
       d="m 100.00828,219.99887 c -0.04515,-0.25188 -0.285397,-0.4198 -0.537633,-0.37535 l -0.173214,0.031 -0.126294,0.0247 -0.245181,0.0547 -0.486127,0.11394 c -0.322087,0.0822 -0.643467,0.16687 -0.962731,0.26247 -0.642408,0.19085 -1.265767,0.38982 -1.919464,0.67698 l -0.124883,0.0568 c -0.04445,0.0222 -0.09278,0.049 -0.138289,0.0744 -0.05398,0.024 -0.288573,0.17816 -0.347839,0.30022 l -0.06209,0.0984 -0.03246,0.0702 c -0.02081,0.0455 -0.04551,0.0953 -0.06174,0.13793 -0.0314,0.084 -0.06773,0.1711 -0.09419,0.25259 -0.110067,0.33126 -0.200025,0.65299 -0.279753,0.97825 -0.164042,0.64841 -0.287161,1.3014 -0.381353,1.96356 -0.01094,0.0794 0.03069,0.16052 0.107597,0.19509 0.09349,0.0416 0.202847,0 0.244828,-0.0935 l 3.53e-4,-0.001 c 0.27058,-0.60431 0.529519,-1.21321 0.778228,-1.8161 0.126294,-0.30022 0.250825,-0.6022 0.383822,-0.88301 0.03175,-0.073 0.06632,-0.13476 0.09878,-0.20284 0.01658,-0.0325 0.03245,-0.055 0.04763,-0.0833 l 0.02575,-0.0254 0.04127,-0.0169 0.08255,-0.0363 0.103011,-0.0388 c 0.569384,-0.20426 1.212851,-0.37818 1.833387,-0.56092 l 0.9398,-0.27376 0.468489,-0.14181 0.233186,-0.0692 0.113241,-0.0353 0.05327,-0.0166 0.01482,-0.009 0.2159,-0.1531 c 0.141111,-0.1009 0.219789,-0.27693 0.187329,-0.45932"
       style="fill:#e13956;fill-opacity:1;fill-rule:nonzero;stroke:none;stroke-width:0.0352778"
       id="path2546" />
    <path
       d="m 89.031599,207.96668 c 0,0 2.121253,3.03883 2.54882,3.51261 0.427567,0.47378 -1.914878,2.788 -2.728031,2.78412 -0.8128,-0.004 -3.592336,-3.0286 -3.910542,-3.50449 -0.317852,-0.47661 4.089753,-2.79224 4.089753,-2.79224"
       style="fill:#e13956;fill-opacity:1;fill-rule:nonzero;stroke:none;stroke-width:0.0352778"
       id="path2548" />
    <path
       d="m 91.455536,211.0175 c 0.170039,-0.0349 3.707342,2.53506 3.707342,2.53506 0,0 0.923572,2.01895 1.002241,2.86879 0.109714,1.18992 -3.757789,0.86678 -6.024386,-0.51682 -1.278467,-0.78105 -2.100792,-1.89477 -2.235906,-2.06763 -0.135819,-0.17251 0.676628,0.24836 2.569281,-1.48202 0.913694,-0.83537 0.86113,-1.31268 0.981428,-1.33738"
       style="fill:#ca314c;fill-opacity:1;fill-rule:nonzero;stroke:none;stroke-width:0.0352778"
       id="path2550" />
    <path
       d="m 86.158224,204.30308 c -0.05045,0.091 1.607256,4.57377 2.557639,4.35751 0.950384,-0.21625 2.1971,-2.68146 2.297995,-5.21617 0.100542,-2.53471 -0.959203,-5.53297 -2.9083,-7.06367 -1.685925,-1.32397 -3.573992,-1.53882 -4.441473,-1.47179 -0.120297,0.009 -0.180622,0.1517 -0.102305,0.24342 0.52705,0.62054 1.550105,1.21355 2.058458,1.88701 0.7493,0.99377 2.246136,4.16771 0.537986,7.26369"
       style="fill:#e13956;fill-opacity:1;fill-rule:nonzero;stroke:none;stroke-width:0.0352778"
       id="path2552" />
    <path
       d="m 89.227038,208.34027 c 0.13582,-0.30797 -1.694039,-3.6008 -2.471914,-4.11374 -0.778228,-0.51294 -2.935111,-1.44604 -4.070703,-2.57457 -1.194505,-1.18675 -2.049286,-2.98309 -2.179108,-4.60411 -0.129822,-1.62066 -0.268464,-1.71485 -0.598311,-1.84996 -0.329495,-0.13547 -2.039056,1.59173 -2.528712,3.87561 -0.538691,2.51319 -0.747183,4.43019 0.186973,6.49994 1.059039,2.34667 2.084211,3.46039 3.872441,4.33599 1.788231,0.87594 3.454753,1.19062 4.543779,0.85337 1.089377,-0.33761 2.506486,-0.75177 3.245555,-2.42253"
       style="fill:#ca314c;fill-opacity:1;fill-rule:nonzero;stroke:none;stroke-width:0.0352778"
       id="path2554" />
    <path
       d="m 110.04763,204.2297 c 0,0 -1.00048,3.68018 -1.2506,4.28767 -0.25012,0.60783 2.82293,2.03694 3.60892,1.75118 0.78599,-0.2861 2.42958,-4.18112 2.57281,-4.75262 0.14287,-0.57185 -4.93113,-1.28623 -4.93113,-1.28623"
       style="fill:#e13956;fill-opacity:1;fill-rule:nonzero;stroke:none;stroke-width:0.0352778"
       id="path2556" />
    <path
       d="m 112.22745,200.04893 c 0.0769,0.0748 -0.21414,4.98476 -1.21532,5.05602 -1.00048,0.0716 -2.96545,-1.98297 -3.82306,-4.44853 -0.8576,-2.46592 -0.7112,-5.73511 0.75071,-7.82567 1.28447,-1.83762 3.1175,-2.6095 3.97475,-2.78695 0.10407,-0.0219 0.1898,0.0787 0.15275,0.17851 -0.29174,0.77823 -0.97331,1.6891 -1.27705,2.51777 -0.44062,1.20298 -1.17158,4.77203 1.43722,7.30885"
       style="fill:#e13956;fill-opacity:1;fill-rule:nonzero;stroke:none;stroke-width:0.0352778"
       id="path2558" />
    <path
       d="m 109.97637,204.72994 c -0.24377,-0.26352 1.32186,-4.10951 1.92934,-4.89549 0.60784,-0.78599 2.64442,-2.39395 3.21592,-4.00192 0.57186,-1.60831 1.03611,-3.71616 0.60713,-5.39573 -0.42827,-1.67958 -0.32102,-1.82245 -0.0353,-2.07257 0.28575,-0.25012 2.23167,0.78493 3.77648,3.04729 1.74414,2.55411 2.45075,4.73428 2.30505,6.6033 -0.19861,2.55376 -1.01176,4.41748 -2.51283,5.9182 -1.50072,1.50072 -3.33234,2.08386 -4.31906,2.22603 -1.12148,0.16227 -3.6449,0 -4.96676,-1.42911"
       style="fill:#ca314c;fill-opacity:1;fill-rule:nonzero;stroke:none;stroke-width:0.0352778"
       id="path2560" />
    <path
       d="m 108.78257,208.0524 c -0.17709,0.025 -2.7372,3.71687 -2.7372,3.71687 0,0 0.5782,2.76472 1.00682,3.08645 0.42898,0.32139 3.60292,-1.44286 4.67502,-2.55058 1.07174,-1.10772 1.43157,-2.49943 1.50283,-2.71357 0.0716,-0.21413 -0.34537,0.49989 -3.05717,-0.6096 -1.17934,-0.48224 -1.26506,-0.94756 -1.3903,-0.92957"
       style="fill:#ca314c;fill-opacity:1;fill-rule:nonzero;stroke:none;stroke-width:0.0352778"
       id="path2562" />
    <path
       d="m 97.939944,205.94703 c 0.399345,0.0737 1.484842,0.40252 2.398536,-0.0543 0.9137,-0.45685 1.93111,-1.16311 3.63396,-0.45685 1.99602,0.82762 2.84092,8.02676 3.38491,9.84286 0.61242,2.0454 0.91369,4.52684 3.86221,3.94546 2.94887,-0.58173 6.02227,-2.20133 6.47912,-2.9905 0.45684,-0.78881 -0.0833,-4.19452 0.33196,-4.7759 0.41557,-0.58173 2.32586,-0.58173 3.90419,0.74754 1.57798,1.32891 2.57457,3.19793 2.11773,3.7793 -0.45685,0.58138 -2.5333,0.20779 -4.44359,1.95192 -1.91029,1.74449 -2.78271,3.77931 -6.31296,5.77286 -3.53025,1.99355 -7.56885,2.58551 -10.79782,1.74449 -2.498729,-0.65088 -4.942421,-2.90725 -6.312962,-5.27439 -1.370542,-2.36749 -2.512484,-6.66608 -2.304698,-9.07485 0.207434,-2.40877 0.526345,-4.20017 1.806223,-4.83835 0.843844,-0.42051 1.758597,-0.41099 2.253191,-0.31926"
       style="fill:#e13956;fill-opacity:1;fill-rule:nonzero;stroke:none;stroke-width:0.0352778"
       id="path2564" />
    <path
       d="m 104.21868,206.60037 0.0314,0.0293 c -0.0455,-0.0487 -0.0497,-0.0519 -0.0314,-0.0293"
       style="fill:#e13956;fill-opacity:1;fill-rule:nonzero;stroke:none;stroke-width:0.0352778"
       id="path2566" />
    <path
       d="m 104.74115,207.52535 c -0.22084,-0.88617 -1.09749,-1.55328 -2.01436,-1.52964 -1.02059,0.0261 -1.9177,0.84737 -1.95122,1.88278 -0.0279,0.87171 0.58702,1.72014 1.41923,1.9819 1.35925,0.42721 2.80458,-0.75741 2.57739,-2.18264 -0.008,-0.0515 -0.0187,-0.1023 -0.031,-0.1524"
       style="fill:#ffffff;fill-opacity:1;fill-rule:nonzero;stroke:none;stroke-width:0.0352778"
       id="path2568" />
    <path
       d="m 103.09121,207.23396 c -0.0335,-0.0448 -0.0692,-0.0861 -0.10654,-0.12382 -0.47555,-0.48331 -1.21179,-0.41311 -1.66829,-0.0233 0.266,-0.007 0.49142,0.23954 0.49142,0.49812 v 0.0155 c 0,0.27904 -0.2286,0.48612 -0.49847,0.49847 -0.16052,0.007 -0.30586,-0.0797 -0.39759,-0.20532 -0.005,0.0882 -0.003,0.17851 0.0141,0.27376 0.19579,1.10808 1.74977,1.34091 2.27047,0.34713 0.20955,-0.4004 0.16722,-0.91934 -0.10512,-1.28058"
       style="fill:#333f48;fill-opacity:1;fill-rule:nonzero;stroke:none;stroke-width:0.0352778"
       id="path2570" />
    <path
       d="m 98.985578,207.22338 0.03175,0.0289 c -0.04551,-0.0487 -0.0501,-0.0511 -0.03175,-0.0289"
       style="fill:#e13956;fill-opacity:1;fill-rule:nonzero;stroke:none;stroke-width:0.0352778"
       id="path2572" />
    <path
       d="m 99.508042,208.14836 c -0.220839,-0.88653 -1.097139,-1.55328 -2.014009,-1.53 -1.020939,0.0261 -1.918053,0.84773 -1.951214,1.88278 -0.02787,0.87206 0.58667,1.7205 1.418873,1.9819 1.359252,0.42722 2.804583,-0.75706 2.577747,-2.18228 -0.0081,-0.0519 -0.0187,-0.10231 -0.0314,-0.1524"
       style="fill:#ffffff;fill-opacity:1;fill-rule:nonzero;stroke:none;stroke-width:0.0352778"
       id="path2574" />
    <path
       d="m 99.062836,207.64953 c -0.03351,-0.0448 -0.0695,-0.0861 -0.106539,-0.12382 -0.475544,-0.48366 -1.211792,-0.41311 -1.668639,-0.0233 0.265995,-0.007 0.49142,0.23954 0.49142,0.49777 v 0.0155 c 0,0.2794 -0.2286,0.48612 -0.498123,0.49847 -0.160513,0.007 -0.305858,-0.0797 -0.39758,-0.20567 -0.0046,0.0886 -0.0028,0.17886 0.01376,0.27411 0.196145,1.10772 1.750131,1.34056 2.270478,0.34713 0.209903,-0.40005 0.167217,-0.91934 -0.104775,-1.28023"
       style="fill:#333f48;fill-opacity:1;fill-rule:nonzero;stroke:none;stroke-width:0.0352778"
       id="path2576" />
    <path
       d="m 103.70257,210.83441 c 0,0 1.66123,-0.83044 2.07645,-2.78201 0.41522,-1.95191 -0.12453,-4.52719 -0.62301,-6.47911 -0.49812,-1.95192 -0.98636,-3.03177 -0.87206,-3.11503 0.17286,-0.12524 0.94509,2.30434 1.41181,4.19488 0.44768,1.81081 0.66781,4.09116 0.37395,5.39926 -0.38947,1.73391 -1.5106,2.62114 -2.04012,2.99509 -0.42545,0.30021 -0.70096,0.11959 -0.32702,-0.21308"
       style="fill:#cc2731;fill-opacity:1;fill-rule:nonzero;stroke:none;stroke-width:0.0352778"
       id="path2578" />
    <path
       d="m 96.059991,210.83441 c 0,0 -1.66123,-0.83044 -2.07645,-2.78201 -0.415572,-1.95191 0.124531,-4.52719 0.623006,-6.47911 0.498475,-1.95192 0.986367,-3.03177 0.872067,-3.11503 -0.172509,-0.12524 -0.944739,2.30434 -1.41217,4.19488 -0.447322,1.81081 -0.667455,4.09116 -0.373592,5.39926 0.389114,1.73391 1.510595,2.62114 2.040114,2.99509 0.425098,0.30021 0.700617,0.11959 0.327025,-0.21308"
       style="fill:#cc2731;fill-opacity:1;fill-rule:nonzero;stroke:none;stroke-width:0.0352778"
       id="path2580" />
    <path
       d="m 100.0679,213.17862 c 0.63676,-0.0995 1.27282,-0.21167 1.76248,-0.54928 0.24271,-0.16615 0.44168,-0.38417 0.5902,-0.64452 0.14534,-0.26176 0.25047,-0.55739 0.33443,-0.86819 0.0106,-0.0409 0.0522,-0.0653 0.0931,-0.055 0.0339,0.008 0.0564,0.0395 0.0575,0.0727 0.007,0.33302 -0.042,0.67875 -0.18591,1.00048 -0.14287,0.32067 -0.38417,0.60784 -0.68227,0.80186 -0.29669,0.1965 -0.63394,0.30868 -0.96873,0.35984 -0.33514,0.0536 -0.67134,0.0497 -0.99977,0.0116 -0.0356,-0.004 -0.0614,-0.036 -0.0572,-0.072 l 0.0547,-0.0572 0.001,-3.5e-4"
       style="fill:#ffffff;fill-opacity:1;fill-rule:nonzero;stroke:none;stroke-width:0.0352778"
       id="path2582" />
    <path
       d="m 109.74989,219.28979 c 0,0 0.0473,0.0832 0.10442,0.23918 0.0512,0.15699 0.12241,0.38382 0.16722,0.66181 0.0437,0.27764 0.097,0.6029 0.11218,0.95356 0.0173,0.35031 0.0226,0.72567 0.0106,1.10032 -0.0268,0.37429 -0.0677,0.74612 -0.11818,1.09361 -0.0494,0.34748 -0.13405,0.66569 -0.20496,0.93803 -0.072,0.27199 -0.16651,0.49107 -0.23601,0.641 -0.073,0.15028 -0.14393,0.22013 -0.14393,0.22013 l -0.0102,-0.006 -0.008,-0.009 c 0,0 0.0459,-0.078 0.0766,-0.23671 0.0413,-0.15382 0.0684,-0.38277 0.10759,-0.65405 0.0413,-0.272 0.061,-0.59302 0.0963,-0.93381 0.0339,-0.34113 0.0579,-0.70661 0.0674,-1.07209 0.0258,-0.36371 0.0349,-0.72954 0.0314,-1.07244 -0.004,-0.34255 0.006,-0.66428 -0.01,-0.93839 -0.0148,-0.27376 -0.019,-0.50377 -0.0423,-0.66217 -0.0155,-0.1598 -0.0388,-0.24835 -0.0388,-0.24835 l 0.0187,-0.0109 0.0198,-0.004"
       style="fill:#cc2731;fill-opacity:1;fill-rule:nonzero;stroke:none;stroke-width:0.0352778"
       id="path2584" />
    <path
       d="m 112.41018,219.15044 c 0,0 0.0536,0.049 0.14641,0.13547 0.085,0.0938 0.21237,0.22825 0.32667,0.41522 0.11254,0.18697 0.24518,0.40816 0.33831,0.66498 0.0998,0.25436 0.17816,0.53482 0.24801,0.81668 0.0501,0.28681 0.084,0.57574 0.0974,0.84808 0.0134,0.27235 -0.0148,0.52741 -0.0437,0.74295 -0.0268,0.21661 -0.0882,0.39123 -0.12559,0.51118 -0.0473,0.11712 -0.0744,0.1845 -0.0744,0.1845 l -0.0116,-0.001 -0.0106,-0.005 c 0,0 0.003,-0.0713 0.008,-0.19544 0.01,-0.12312 0.002,-0.29915 -0.003,-0.50658 -3.5e-4,-0.20814 -0.037,-0.44874 -0.0624,-0.70556 -0.0279,-0.25682 -0.0762,-0.52881 -0.13934,-0.79657 -0.0526,-0.26952 -0.11289,-0.53975 -0.19509,-0.78387 -0.0776,-0.24589 -0.1464,-0.47802 -0.22966,-0.66781 -0.0818,-0.18944 -0.14817,-0.35208 -0.20884,-0.45861 -0.0582,-0.10937 -0.0914,-0.17181 -0.0914,-0.17181 l 0.0145,-0.0159 0.0169,-0.0109"
       style="fill:#cc2731;fill-opacity:1;fill-rule:nonzero;stroke:none;stroke-width:0.0352778"
       id="path2586" />
    <path
       d="m 113.74368,218.77085 c 0,0 0.0614,0.0176 0.16793,0.0572 0.1023,0.0459 0.25576,0.11148 0.41063,0.23672 0.15311,0.12347 0.32844,0.28575 0.45967,0.50129 0.13264,0.21238 0.23777,0.46673 0.30162,0.72496 0.0476,0.25859 0.0709,0.514 0.085,0.75248 0.0145,0.23812 -0.007,0.46073 -0.0141,0.64981 -0.01,0.18945 -0.0409,0.34678 -0.0543,0.4565 -0.0205,0.10936 -0.0321,0.17215 -0.0321,0.17215 l -0.0123,0.001 -0.0113,-0.001 c 0,0 -0.0127,-0.0624 -0.0342,-0.17109 -0.0148,-0.10936 -0.0515,-0.26423 -0.0737,-0.44979 -0.0212,-0.18557 -0.0646,-0.40005 -0.0917,-0.62865 -0.0282,-0.22825 -0.0677,-0.47026 -0.12594,-0.69992 -0.0434,-0.23036 -0.11924,-0.44802 -0.22366,-0.64029 -0.10372,-0.19014 -0.2099,-0.369 -0.33126,-0.50024 -0.11853,-0.13194 -0.22331,-0.24553 -0.30797,-0.31291 -0.0808,-0.0723 -0.13124,-0.11148 -0.13124,-0.11148 l 0.008,-0.0201 0.0113,-0.0166"
       style="fill:#cc2731;fill-opacity:1;fill-rule:nonzero;stroke:none;stroke-width:0.0352778"
       id="path2588" />
    <path
       d="m 115.15374,218.14644 c 0,0 0.0522,0.007 0.14322,0.0314 0.0882,0.0296 0.21943,0.0751 0.35137,0.16934 0.13018,0.0945 0.28258,0.21202 0.40675,0.37147 0.1263,0.15805 0.24236,0.34043 0.33691,0.53869 0.0808,0.20955 0.12065,0.4251 0.14569,0.61913 0.0265,0.19614 0.0117,0.38029 0.008,0.53552 -0.005,0.15522 -0.0353,0.28469 -0.0483,0.37359 -0.0212,0.0892 -0.0332,0.1404 -0.0332,0.1404 l -0.012,10e-4 -0.0116,-10e-4 c 0,0 -0.012,-0.0505 -0.0335,-0.13864 -0.0148,-0.0882 -0.0522,-0.21202 -0.0787,-0.35984 -0.0247,-0.14816 -0.0741,-0.31785 -0.11148,-0.496 -0.0378,-0.17992 -0.0893,-0.36301 -0.16898,-0.52635 -0.0674,-0.17286 -0.1584,-0.34219 -0.25929,-0.48895 -0.10125,-0.1464 -0.19156,-0.29068 -0.29175,-0.39475 -0.0977,-0.10407 -0.17992,-0.19827 -0.25012,-0.24907 -0.0653,-0.0586 -0.1083,-0.0871 -0.1083,-0.0871 l 0.006,-0.0201 0.01,-0.0183"
       style="fill:#cc2731;fill-opacity:1;fill-rule:nonzero;stroke:none;stroke-width:0.0352778"
       id="path2590" />
    <path
       d="m 116.38599,217.40772 c 0,0 0.0473,-0.004 0.13017,0.009 0.0797,0.0183 0.19897,0.0452 0.32068,0.11395 0.1203,0.0695 0.26494,0.14957 0.39123,0.27305 0.0635,0.0607 0.1263,0.12841 0.18662,0.20567 0.0639,0.084 0.10724,0.15945 0.15452,0.23706 0.0801,0.16369 0.15099,0.33373 0.20496,0.49812 0.0557,0.1651 0.0681,0.33197 0.0765,0.4699 0.009,0.14006 -0.019,0.25647 -0.0324,0.33444 -0.0201,0.0783 -0.0353,0.12135 -0.0353,0.12135 l -0.012,3.6e-4 -0.0117,-0.002 c 0,0 -0.009,-0.0444 -0.0314,-0.11888 -0.0148,-0.0752 -0.0547,-0.17816 -0.0917,-0.2974 -0.0353,-0.12065 -0.10477,-0.25082 -0.16615,-0.39334 -0.0621,-0.14217 -0.14076,-0.28999 -0.2286,-0.43392 -0.0381,-0.0751 -0.0769,-0.15452 -0.1136,-0.21096 -0.0406,-0.0621 -0.0885,-0.12418 -0.13935,-0.18133 -0.10089,-0.11359 -0.19226,-0.23142 -0.28539,-0.31503 -0.0917,-0.084 -0.16616,-0.16228 -0.2279,-0.20285 -0.0586,-0.0469 -0.0981,-0.0667 -0.0981,-0.0667 l 0.003,-0.0208 0.006,-0.0197"
       style="fill:#cc2731;fill-opacity:1;fill-rule:nonzero;stroke:none;stroke-width:0.0352778"
       id="path2592" />
    <path
       d="m 117.60378,216.55012 c 0,0 0.0384,0.005 0.10583,0.0127 0.0639,0.0166 0.16228,0.0318 0.266,0.0801 0.10195,0.0497 0.22895,0.1023 0.34219,0.19297 0.11289,0.0889 0.22931,0.19649 0.33055,0.31503 0.0893,0.12559 0.16934,0.2607 0.23037,0.39405 0.0621,0.13335 0.0811,0.27199 0.10195,0.38171 0.0201,0.11077 0.0123,0.20602 0.0183,0.26987 3.5e-4,0.066 3.5e-4,0.10407 3.5e-4,0.10407 l -0.0109,0.005 -0.0109,0.003 c 0,0 -0.0236,-0.0303 -0.0642,-0.0836 -0.0335,-0.0564 -0.0917,-0.13441 -0.1397,-0.2293 -0.0462,-0.0956 -0.11959,-0.19333 -0.18274,-0.29951 -0.0646,-0.10654 -0.14534,-0.21308 -0.2353,-0.31292 -0.0762,-0.10971 -0.16369,-0.20813 -0.25506,-0.29668 -0.0914,-0.0864 -0.16969,-0.18203 -0.24977,-0.24942 -0.0783,-0.0681 -0.13899,-0.13864 -0.18838,-0.17815 -0.0476,-0.0452 -0.0748,-0.0705 -0.0748,-0.0705 l 0.007,-0.0201 0.009,-0.018"
       style="fill:#cc2731;fill-opacity:1;fill-rule:nonzero;stroke:none;stroke-width:0.0352778"
       id="path2594" />
    <path
       d="m 118.07192,215.61067 c 0,0 0.0455,-0.013 0.12558,-0.036 0.0409,-0.0102 0.0907,-0.0166 0.14958,-0.0222 0.0593,-0.008 0.1263,-0.009 0.19791,0.001 0.14429,0.0159 0.31538,0.0487 0.48048,0.127 0.16475,0.078 0.32597,0.1845 0.47872,0.30127 0.13864,0.13335 0.266,0.27552 0.37077,0.41946 0.10513,0.14393 0.1711,0.2988 0.22543,0.42862 0.0564,0.12947 0.0716,0.25047 0.0882,0.3295 0.008,0.0818 0.0123,0.12841 0.0123,0.12841 l -0.0109,0.005 -0.0109,0.003 c 0,0 -0.0272,-0.0374 -0.0744,-0.10231 -0.0416,-0.0667 -0.11571,-0.1524 -0.19403,-0.25612 -0.0748,-0.10654 -0.18591,-0.21202 -0.28892,-0.33196 -0.10548,-0.11959 -0.23001,-0.23424 -0.36054,-0.33867 -0.12383,-0.11147 -0.25541,-0.21484 -0.38982,-0.2921 -0.13441,-0.0744 -0.25823,-0.15769 -0.37783,-0.19579 -0.0589,-0.0226 -0.11359,-0.0448 -0.16368,-0.0593 -0.0501,-0.0173 -0.0949,-0.0346 -0.13265,-0.0374 -0.0773,-0.019 -0.12135,-0.0296 -0.12135,-0.0296 l -0.004,-0.0212 -3.5e-4,-0.0205"
       style="fill:#cc2731;fill-opacity:1;fill-rule:nonzero;stroke:none;stroke-width:0.0352778"
       id="path2596" />
    <path
       d="m 111.18146,219.30072 c 0,0 0.0554,0.0614 0.13053,0.1831 0.0688,0.12382 0.16898,0.30127 0.25435,0.52634 0.084,0.22543 0.18838,0.48648 0.26141,0.77999 0.0356,0.14535 0.0737,0.30233 0.0917,0.46849 0.019,0.15628 0.0363,0.31503 0.0515,0.47414 0.0148,0.31891 0.0215,0.63852 0.0198,0.93768 -3.5e-4,0.29951 -0.0353,0.57891 -0.06,0.81774 -0.0254,0.23883 -0.0766,0.43603 -0.11254,0.57326 -0.0377,0.13653 -0.0967,0.21096 -0.10407,0.20708 l -0.007,-0.009 -0.004,-0.0113 c -0.002,-0.004 0.0106,-0.007 0.0148,-0.0455 0.008,-0.0335 0.0106,-0.0878 0.0109,-0.15557 0.007,-0.13617 -0.01,-0.33338 -0.0159,-0.56797 -0.005,-0.23495 -0.0346,-0.50906 -0.0473,-0.80187 -0.0138,-0.29351 -0.0363,-0.60572 -0.0674,-0.91722 -0.008,-0.15628 -0.018,-0.31256 -0.0296,-0.46602 -0.008,-0.14393 -0.0367,-0.28716 -0.0646,-0.43074 -0.0596,-0.28434 -0.1016,-0.55704 -0.15804,-0.78458 -0.055,-0.22789 -0.09,-0.42227 -0.13194,-0.55174 -0.0346,-0.133 -0.0677,-0.2032 -0.0677,-0.2032 l 0.0162,-0.0141 0.0187,-0.009"
       style="fill:#cc2731;fill-opacity:1;fill-rule:nonzero;stroke:none;stroke-width:0.0352778"
       id="path2598" />
    <path
       d="m 108.72119,224.69152 c -0.20285,-0.18556 -0.51753,-0.17145 -0.70309,0.0318 -0.14323,0.15664 -0.23565,0.27446 -0.34219,0.41311 l -0.30304,0.4011 c -0.19614,0.27058 -0.38629,0.54399 -0.56691,0.82515 -0.18415,0.27905 -0.35807,0.5655 -0.52705,0.86043 -0.085,0.1471 -0.16616,0.29809 -0.24413,0.45543 -0.078,0.15981 -0.15381,0.31644 -0.22436,0.52 l -0.0261,0.0847 c -0.008,0.031 -0.0166,0.0561 -0.0243,0.1016 -0.007,0.0441 -0.0155,0.0692 -0.0173,0.14641 -7e-4,0.0328 0,0.0677 0.003,0.0981 l 0.0138,0.0751 c 0.0427,0.16933 0.0843,0.23918 0.12595,0.33161 0.0836,0.16898 0.16933,0.31644 0.25647,0.4639 0.1785,0.29034 0.36124,0.56868 0.5528,0.84103 0.37888,0.54715 0.78705,1.06962 1.22026,1.57621 0.0522,0.061 0.1404,0.0829 0.21696,0.0483 0.0931,-0.042 0.13405,-0.1517 0.0921,-0.24483 l -7.1e-4,-0.001 c -0.27269,-0.60219 -0.55774,-1.19697 -0.84878,-1.78047 -0.14287,-0.2928 -0.28822,-0.58384 -0.42051,-0.87312 -0.067,-0.14252 -0.13229,-0.28752 -0.18168,-0.41875 l -0.0251,-0.0734 0.0131,-0.0321 c 0.0945,-0.22225 0.27552,-0.50906 0.43569,-0.77364 0.16792,-0.26952 0.34607,-0.53834 0.5214,-0.80892 l 0.53587,-0.80927 0.2667,-0.40323 0.25294,-0.37218 0.0243,-0.0356 c 0.13723,-0.20179 0.10937,-0.47837 -0.0758,-0.64735"
       style="fill:#cc2731;fill-opacity:1;fill-rule:nonzero;stroke:none;stroke-width:0.0352778"
       id="path2600" />
    <path
       d="m 106.18824,224.29923 c -0.17956,-0.20778 -0.49389,-0.23107 -0.70167,-0.0512 l -0.0307,0.0265 -0.17392,0.14958 -0.18486,0.16721 -0.37042,0.33726 c -0.24341,0.22895 -0.48542,0.46073 -0.72072,0.70026 -0.47378,0.4819 -0.92922,0.95885 -1.36596,1.53811 -0.055,0.0769 -0.11006,0.1524 -0.16827,0.25365 -0.0275,0.0469 -0.0603,0.11042 -0.0924,0.19403 -0.0476,0.12841 -0.0483,0.25788 -0.0416,0.31574 0.0109,0.13758 0.0328,0.22683 0.0547,0.31997 0.0219,0.0924 0.0466,0.1778 0.0713,0.26281 0.10407,0.33585 0.22084,0.65159 0.34643,0.96591 0.24765,0.62724 0.53234,1.23402 0.84632,1.83092 0.0374,0.0716 0.11888,0.11253 0.20108,0.0952 0.10019,-0.0208 0.16475,-0.11854 0.14429,-0.21837 l -3.6e-4,-0.002 c -0.13546,-0.65369 -0.28293,-1.30386 -0.43568,-1.94415 -0.0737,-0.31962 -0.14852,-0.63994 -0.20602,-0.94898 -0.0145,-0.0765 -0.0282,-0.1531 -0.0377,-0.22366 -0.006,-0.0395 -0.0106,-0.0801 -0.0127,-0.11324 l 0.0113,-0.0155 c 0.0282,-0.0402 0.0734,-0.0984 0.11889,-0.15311 0.39581,-0.45826 0.88088,-0.92463 1.33879,-1.38853 l 0.69709,-0.70168 0.34537,-0.3563 0.17321,-0.17921 0.18309,-0.19862 c 0.16969,-0.18344 0.17816,-0.46884 0.0113,-0.66287"
       style="fill:#cc2731;fill-opacity:1;fill-rule:nonzero;stroke:none;stroke-width:0.0352778"
       id="path2602" />
    <path
       d="m 103.08874,223.10473 c -0.15981,-0.22366 -0.47026,-0.27587 -0.69427,-0.11607 l -0.0328,0.0236 -0.18662,0.13335 -0.20038,0.14958 -0.40005,0.30233 c -0.26423,0.20567 -0.52705,0.41451 -0.78352,0.63147 -0.51752,0.43674 -1.015996,0.86995 -1.504946,1.40476 -0.06174,0.0699 -0.123472,0.14182 -0.190147,0.23213 l -0.05045,0.0741 c -0.01905,0.0296 -0.03986,0.0663 -0.0575,0.0998 -0.02011,0.0363 -0.05186,0.11712 -0.06526,0.17251 -0.0088,0.0455 -0.0194,0.11324 -0.01834,0.14146 -0.0049,0.1457 0.0092,0.23389 0.02117,0.33091 0.0127,0.0949 0.02858,0.18238 0.04515,0.26952 0.0702,0.34537 0.156633,0.67204 0.250825,0.9973 0.186267,0.64982 0.411692,1.282 0.667103,1.90747 0.03034,0.0741 0.107244,0.12277 0.190855,0.1136 0.1016,-0.0106 0.17533,-0.10196 0.1644,-0.20356 l -3.6e-4,-0.001 c -0.0713,-0.66463 -0.15557,-1.32715 -0.245181,-1.97979 -0.04304,-0.32596 -0.08608,-0.65299 -0.112889,-0.96555 -0.0074,-0.0776 -0.01376,-0.15522 -0.01587,-0.22613 -0.0014,-0.0349 -0.0021,-0.0727 -0.0014,-0.10372 l 0.01834,-0.0205 c 0.03528,-0.0413 0.08467,-0.0935 0.13653,-0.14464 0.43956,-0.42051 0.9659,-0.84102 1.46544,-1.26153 l 0.76059,-0.635 0.37711,-0.32385 0.18945,-0.16263 0.20073,-0.18062 c 0.18626,-0.16722 0.22048,-0.45085 0.0723,-0.65899"
       style="fill:#cc2731;fill-opacity:1;fill-rule:nonzero;stroke:none;stroke-width:0.0352778"
       id="path2604" />
    <path
       d="m 101.40069,221.60578 c -0.0494,-0.27059 -0.30903,-0.4498 -0.57926,-0.3997 l -0.0385,0.007 -0.2286,0.042 -0.2473,0.0512 -0.495649,0.10478 c -0.3302,0.0741 -0.660048,0.15205 -0.987778,0.23954 -0.660047,0.17568 -1.303867,0.35736 -1.977673,0.629 -0.08502,0.0349 -0.172861,0.0744 -0.267052,0.12171 -0.05327,0.0293 -0.09349,0.0483 -0.162278,0.0956 -0.04092,0.0212 -0.186267,0.14499 -0.222956,0.21837 -0.09243,0.14746 -0.114653,0.2293 -0.153458,0.32632 -0.0321,0.0907 -0.06032,0.1785 -0.08537,0.26423 -0.09843,0.34396 -0.169686,0.67733 -0.235656,1.01318 -0.131586,0.67027 -0.220839,1.34267 -0.278342,2.02282 -0.0071,0.0801 0.03916,0.1584 0.118181,0.18874 0.09525,0.0363 0.202142,-0.0113 0.238831,-0.10689 l 3.52e-4,-10e-4 c 0.241653,-0.63112 0.4699,-1.26612 0.689681,-1.89442 0.110772,-0.31291 0.223308,-0.62653 0.342547,-0.91934 0.02963,-0.0734 0.05997,-0.14287 0.09031,-0.20814 l 0.04057,-0.0783 0.0508,-0.0219 c 0.05785,-0.024 0.124883,-0.0497 0.197203,-0.0741 0.589138,-0.19403 1.249891,-0.35137 1.888772,-0.5207 l 0.968375,-0.254 0.48436,-0.1337 0.24342,-0.0667 0.2607,-0.0787 c 0.23989,-0.072 0.39229,-0.31432 0.34572,-0.5662"
       style="fill:#cc2731;fill-opacity:1;fill-rule:nonzero;stroke:none;stroke-width:0.0352778"
       id="path2606" />
    <path
       d="m 108.57337,194.11027 c -0.0497,0 -0.11818,-0.0995 -0.14887,-0.16651 -0.24165,-0.52246 0.11218,-1.17898 0.38241,-1.6189 0.35031,-0.5715 0.86748,-1.04034 1.47144,-1.36066 0.0935,-0.0494 0.16475,-0.0695 0.2159,-0.0695 0.11677,0 0.12876,0.10372 0.0603,0.19403 -0.35136,0.46426 -0.72601,0.77047 -1.15887,1.5681 -0.23425,0.43109 -0.4565,0.89923 -0.78917,1.43228 -0.009,0.0148 -0.0208,0.0212 -0.0332,0.0212"
       style="fill:#e95d7b;fill-opacity:1;fill-rule:nonzero;stroke:none;stroke-width:0.0352778"
       id="path2608" />
    <path
       d="m 78.418632,200.72697 c -0.0508,0 -0.134761,-0.0515 -0.182739,-0.0928 -0.437797,-0.37429 -0.389819,-1.11866 -0.328083,-1.63159 0.08043,-0.66499 0.354894,-1.30669 0.770467,-1.84997 0.09243,-0.121 0.168627,-0.16686 0.222602,-0.16686 0.06879,0 0.100189,0.0755 0.08043,0.16474 -0.125942,0.56868 -0.338667,1.00295 -0.399698,1.90853 -0.03316,0.4893 -0.04022,1.00789 -0.119944,1.63089 -0.0035,0.0268 -0.02011,0.037 -0.04304,0.037"
       style="fill:#d85574;fill-opacity:1;fill-rule:nonzero;stroke:none;stroke-width:0.0352778"
       id="path2610" />
    <path
       d="m 99.3694,225.94141 c -0.03634,0 -0.06244,-0.0353 -0.04233,-0.0829 0.0829,-0.19614 0.290336,-0.44697 0.442383,-0.60043 0.197556,-0.19896 0.393697,-0.37535 0.654047,-0.53869 0.0173,-0.0109 0.0318,-0.0155 0.0437,-0.0155 0.0607,0 0.0533,0.12171 0.009,0.15769 -0.1644,0.13441 -0.26388,0.23037 -0.562681,0.49848 -0.153811,0.13829 -0.314678,0.3436 -0.481189,0.5461 -0.02011,0.0247 -0.04304,0.0353 -0.06315,0.0353"
       style="fill:#da495c;fill-opacity:1;fill-rule:nonzero;stroke:none;stroke-width:0.0352778"
       id="path2612" />
    <path
       d="m 96.385958,222.77876 c -0.02822,0 -0.05962,-0.019 -0.03281,-0.0624 0.113242,-0.18239 0.333022,-0.30939 0.499886,-0.38735 0.180975,-0.084 0.395817,-0.13794 0.577144,-0.13794 0.03563,0 0.0702,0.002 0.103012,0.006 0.04833,0.007 0.09384,0.0889 0.03845,0.10795 -0.173214,0.0596 -0.322439,0.0907 -0.642761,0.21802 -0.164394,0.0656 -0.317853,0.15804 -0.521405,0.25118 -0.006,0.003 -0.01376,0.004 -0.02152,0.004"
       style="fill:#da495c;fill-opacity:1;fill-rule:nonzero;stroke:none;stroke-width:0.0352778"
       id="path2614" />
    <path
       d="m 106.16319,227.99846 c -0.0384,0 -0.0691,-0.0462 -0.0536,-0.10795 0.043,-0.16898 0.16157,-0.3937 0.24801,-0.54045 0.0967,-0.16334 0.1912,-0.3302 0.29633,-0.48684 0.0226,-0.0342 0.0956,-0.097 0.13899,-0.097 0.005,0 0.009,7e-4 0.0131,0.002 0.10018,0.0402 0.0131,0.13793 -0.0123,0.17921 -0.0967,0.15875 -0.19685,0.33514 -0.29351,0.49882 -0.0917,0.15664 -0.18309,0.3355 -0.26882,0.49777 -0.0201,0.0385 -0.0455,0.0543 -0.0681,0.0543"
       style="fill:#da495c;fill-opacity:1;fill-rule:nonzero;stroke:none;stroke-width:0.0352778"
       id="path2616" />
    <path
       d="m 102.90071,227.34194 c -0.0413,0 -0.0702,-0.0512 -0.0466,-0.11359 0.0624,-0.16334 0.20637,-0.37254 0.30903,-0.50836 0.1143,-0.15134 0.2279,-0.30585 0.34996,-0.44943 0.0254,-0.03 0.0995,-0.0808 0.14358,-0.0808 0.007,0 0.0134,0.001 0.0187,0.004 0.0945,0.0512 -0.003,0.13829 -0.0328,0.17639 -0.1143,0.14711 -0.23425,0.31009 -0.3489,0.46179 -0.10971,0.14499 -0.22084,0.31256 -0.32456,0.4632 -0.0226,0.0328 -0.0473,0.0466 -0.0684,0.0466"
       style="fill:#da495c;fill-opacity:1;fill-rule:nonzero;stroke:none;stroke-width:0.0352778"
       id="path2618" />
    <path
       d="m 114.4383,198.42968 c -0.0758,0 -0.1083,-0.085 -0.0889,-0.12311 0.37536,-0.72814 0.87313,-1.42382 1.1229,-2.12373 0.18944,-0.53093 0.43144,-1.00859 0.50023,-1.61325 0.0152,-0.13159 0.0833,-0.24589 0.14676,-0.24589 0.0459,0 0.0896,0.0607 0.10795,0.22014 0.0734,0.64417 -0.084,1.50495 -0.31327,2.03941 -0.28257,0.65863 -0.58349,1.15358 -1.36242,1.79599 -0.0445,0.0367 -0.0826,0.0504 -0.11325,0.0504"
       style="fill:#d85574;fill-opacity:1;fill-rule:nonzero;stroke:none;stroke-width:0.0352778"
       id="path2620" />
    <path
       d="m 94.651703,208.48526 c -0.03069,0 -0.06421,-0.0286 -0.06632,-0.0631 -0.02293,-0.4117 0.156634,-0.8696 0.366184,-1.21215 0.188736,-0.30903 0.531636,-0.69568 0.884766,-0.81633 0.02222,-0.008 0.04057,-0.0109 0.05609,-0.0109 0.09984,0 0.06562,0.14181 0.01411,0.19297 -0.278342,0.27516 -0.493536,0.44732 -0.690739,0.78881 -0.190147,0.32985 -0.301625,0.76023 -0.52705,1.10066 -0.0095,0.0141 -0.02293,0.0201 -0.03704,0.0201"
       style="fill:#e95d7b;fill-opacity:1;fill-rule:nonzero;stroke:none;stroke-width:0.0352778"
       id="path2622" />
    <path
       d="m 118.51359,213.96461 c -0.0487,0 -0.10266,-0.0547 -0.11218,-0.15452 -0.006,-0.0639 -0.072,-0.87207 -0.0579,-1.21638 0.0117,-0.28257 0.004,-0.62794 0.19721,-0.86042 0.13229,-0.1584 0.36054,-0.23918 0.56938,-0.23918 0.061,0 0.12065,0.007 0.17568,0.0208 0.11571,0.0293 0,0.18591 -0.10124,0.19861 -0.45932,0.0565 -0.55386,0.55598 -0.55669,0.94192 -0.003,0.40993 0.0438,0.8696 -0.0353,1.22555 -0.0127,0.0568 -0.0444,0.0836 -0.079,0.0836"
       style="fill:#e95d7b;fill-opacity:1;fill-rule:nonzero;stroke:none;stroke-width:0.0352778"
       id="path2624" />
    <path
       d="m 87.226788,202.93395 c -0.0508,0 -0.101953,-0.0409 -0.09843,-0.0963 0.0254,-0.36265 0.170392,-0.90734 0.233186,-1.36454 0.06315,-0.4565 7.06e-4,-0.94121 0.127706,-1.38324 0.01517,-0.0526 0.07267,-0.0857 0.124178,-0.0857 0.03775,0 0.07267,0.0176 0.08572,0.0586 0.235655,0.73731 0.0568,2.32587 -0.407812,2.84269 -0.01764,0.0197 -0.04127,0.0286 -0.06456,0.0286"
       style="fill:#e95d7b;fill-opacity:1;fill-rule:nonzero;stroke:none;stroke-width:0.0352778"
       id="path2626" />
  </g>
</svg>
