<?xml version="1.0" encoding="UTF-8" standalone="no"?>
<svg
   xmlns:dc="http://purl.org/dc/elements/1.1/"
   xmlns:cc="http://creativecommons.org/ns#"
   xmlns:rdf="http://www.w3.org/1999/02/22-rdf-syntax-ns#"
   xmlns:svg="http://www.w3.org/2000/svg"
   xmlns="http://www.w3.org/2000/svg"
   xmlns:sodipodi="http://sodipodi.sourceforge.net/DTD/sodipodi-0.dtd"
   xmlns:inkscape="http://www.inkscape.org/namespaces/inkscape"
   width="210mm"
   height="297mm"
   viewBox="0 0 210 297"
   version="1.1"
   id="svg3442"
   inkscape:version="1.0.2 (e86c8708, 2021-01-15)"
   sodipodi:docname="red_fish.svg">
  <defs
     id="defs3436" />
  <sodipodi:namedview
     id="base"
     pagecolor="#ffffff"
     bordercolor="#666666"
     borderopacity="1.0"
     inkscape:pageopacity="0.0"
     inkscape:pageshadow="2"
     inkscape:zoom="0.35"
     inkscape:cx="400"
     inkscape:cy="560"
     inkscape:document-units="mm"
     inkscape:current-layer="layer1"
     inkscape:document-rotation="0"
     showgrid="false"
     inkscape:window-width="1252"
     inkscape:window-height="1005"
     inkscape:window-x="0"
     inkscape:window-y="23"
     inkscape:window-maximized="0" />
  <metadata
     id="metadata3439">
    <rdf:RDF>
      <cc:Work
         rdf:about="">
        <dc:format>image/svg+xml</dc:format>
        <dc:type
           rdf:resource="http://purl.org/dc/dcmitype/StillImage" />
        <dc:title></dc:title>
      </cc:Work>
    </rdf:RDF>
  </metadata>
  <g
     inkscape:label="Layer 1"
     inkscape:groupmode="layer"
     id="layer1">
    <path
       d="m 98.431314,156.43326 c 0,0 6.965946,-0.48754 7.026276,-0.45014 0.0603,0.0377 2.91924,2.11808 2.77848,2.7178 -0.14076,0.59937 -3.66431,1.04951 -6.26146,0.29986 -2.597146,-0.74965 -3.805057,-2.09903 -3.543296,-2.56752"
       style="fill:#f68a94;fill-opacity:1;fill-rule:nonzero;stroke:none;stroke-width:0.0352778"
       id="path806" />
    <path
       d="m 97.021614,139.02227 c 0,0 3.261786,-1.76213 6.362346,-2.02424 3.10057,-0.26247 5.83847,0.44979 5.83847,0.44979 0,0 -0.3623,3.036 0.28187,3.8608 0.64453,0.82444 -12.482686,-2.28635 -12.482686,-2.28635"
       style="fill:#f68a94;fill-opacity:1;fill-rule:nonzero;stroke:none;stroke-width:0.0352778"
       id="path808" />
    <path
       d="m 116.8128,147.08112 c 3.28154,-2.66135 7.75123,-3.80471 7.87224,-3.11114 0.0402,0.46848 -2.36326,3.29811 -2.33574,4.23545 0.0406,1.36807 2.35585,4.47922 2.0133,5.09763 -0.22119,0.40005 -6.85271,-2.47614 -7.5498,-4.42277 -0.28187,-0.7874 0,-1.79917 0,-1.79917"
       style="fill:#f68a94;fill-opacity:1;fill-rule:nonzero;stroke:none;stroke-width:0.0352778"
       id="path810" />
    <path
       d="m 117.39665,147.38063 c 0.0124,-0.23671 -1.61079,-4.72264 -10.22774,-7.3466 -8.616946,-2.62361 -12.723985,-1.87395 -15.140161,1.87431 -2.415822,3.74827 -5.100108,8.27123 -5.046839,8.74607 0.724959,1.87431 2.067278,3.54824 6.174317,5.0479 4.107392,1.4993 10.388953,2.17381 16.589733,-0.75001 6.20112,-2.92347 7.57025,-5.99722 7.65069,-7.57167"
       style="fill:#dc1e52;fill-opacity:1;fill-rule:nonzero;stroke:none;stroke-width:0.0352778"
       id="path812" />
    <path
       d="m 99.513283,139.62516 c -0.274108,0 -0.532342,0.23636 -0.514703,0.49671 0.01799,0.26812 0.239537,0.47943 0.5334,0.47943 0.274462,0 0.53234,-0.23671 0.51506,-0.49671 -0.018,-0.26811 -0.23954,-0.47943 -0.533757,-0.47943"
       style="fill:#f68a94;fill-opacity:1;fill-rule:nonzero;stroke:none;stroke-width:0.0352778"
       id="path814" />
    <path
       d="m 103.13419,140.57519 c -0.59972,0 -0.58314,0.86678 0.0166,0.86678 0.59936,0 0.58314,-0.86678 -0.0166,-0.86678"
       style="fill:#f68a94;fill-opacity:1;fill-rule:nonzero;stroke:none;stroke-width:0.0352778"
       id="path816" />
    <path
       d="m 104.6649,142.79029 c -0.54257,0 -0.52811,0.78457 0.0148,0.78457 0.54293,0 0.52847,-0.78457 -0.0148,-0.78457"
       style="fill:#f68a94;fill-opacity:1;fill-rule:nonzero;stroke:none;stroke-width:0.0352778"
       id="path818" />
    <path
       d="m 101.20344,143.82957 c -0.45367,0 -0.44132,0.65546 0.0123,0.65546 0.45367,0 0.44132,-0.65546 -0.0123,-0.65546"
       style="fill:#f68a94;fill-opacity:1;fill-rule:nonzero;stroke:none;stroke-width:0.0352778"
       id="path820" />
    <path
       d="m 109.43728,142.40294 c -0.39617,0 -0.76906,0.34148 -0.74401,0.71719 0.0261,0.387 0.34607,0.69251 0.77082,0.69251 0.39652,0 0.7694,-0.34149 0.744,-0.7172 -0.0258,-0.38735 -0.34572,-0.6925 -0.77081,-0.6925"
       style="fill:#f68a94;fill-opacity:1;fill-rule:nonzero;stroke:none;stroke-width:0.0352778"
       id="path822" />
    <path
       d="m 110.5898,145.19411 -0.0942,-0.004 c -0.23037,-0.01 -0.44627,0.23319 -0.43215,0.47484 0.0148,0.248 0.20143,0.46884 0.44767,0.45826 l 0.0942,-0.004 c 0.2279,-0.01 0.44344,-0.21696 0.42863,-0.47061 -0.0155,-0.26211 -0.19932,-0.4445 -0.44415,-0.45438"
       style="fill:#f68a94;fill-opacity:1;fill-rule:nonzero;stroke:none;stroke-width:0.0352778"
       id="path824" />
    <path
       d="m 109.21291,148.25234 c -0.71297,0 -0.69356,1.03047 0.0194,1.03047 0.71297,0 0.69356,-1.03047 -0.0194,-1.03047"
       style="fill:#f68a94;fill-opacity:1;fill-rule:nonzero;stroke:none;stroke-width:0.0352778"
       id="path826" />
    <path
       d="m 107.54674,145.65026 -0.0759,-0.0169 c -0.514,-0.0688 -0.9204,0.48966 -0.54116,0.87736 0.62018,0.63394 1.52788,-0.56938 0.61701,-0.86042"
       style="fill:#f68a94;fill-opacity:1;fill-rule:nonzero;stroke:none;stroke-width:0.0352778"
       id="path828" />
    <path
       d="m 106.74734,151.23826 c -0.48542,0 -0.94191,0.41839 -0.91087,0.87841 0.0317,0.47414 0.42334,0.84808 0.94368,0.84808 0.48507,0 0.94192,-0.41839 0.91088,-0.87842 -0.0318,-0.47413 -0.42369,-0.84807 -0.94369,-0.84807"
       style="fill:#f68a94;fill-opacity:1;fill-rule:nonzero;stroke:none;stroke-width:0.0352778"
       id="path830" />
    <path
       d="m 112.5583,149.74565 c -0.46179,0 -0.44909,0.66781 0.0127,0.66781 0.46179,0 0.44944,-0.66781 -0.0127,-0.66781"
       style="fill:#f68a94;fill-opacity:1;fill-rule:nonzero;stroke:none;stroke-width:0.0352778"
       id="path832" />
    <path
       d="m 114.81185,147.18978 c -0.57539,0 -0.55986,0.83185 0.0159,0.83185 0.57503,0 0.55951,-0.83185 -0.0159,-0.83185"
       style="fill:#f68a94;fill-opacity:1;fill-rule:nonzero;stroke:none;stroke-width:0.0352778"
       id="path834" />
    <path
       d="m 102.33409,152.86738 c -1.11089,0 -1.08091,1.60585 0.0303,1.60585 1.1109,0 1.08056,-1.60585 -0.0303,-1.60585"
       style="fill:#f68a94;fill-opacity:1;fill-rule:nonzero;stroke:none;stroke-width:0.0352778"
       id="path836" />
    <path
       d="m 101.03869,146.83629 c -0.85619,0 -0.8329,1.2379 0.0233,1.2379 0.85619,0 0.83291,-1.2379 -0.0233,-1.2379"
       style="fill:#f68a94;fill-opacity:1;fill-rule:nonzero;stroke:none;stroke-width:0.0352778"
       id="path838" />
    <path
       d="m 100.59807,155.8286 c -0.55068,0 -0.53586,0.79657 0.0152,0.79657 0.55069,0 0.53587,-0.79657 -0.0152,-0.79657"
       style="fill:#f68a94;fill-opacity:1;fill-rule:nonzero;stroke:none;stroke-width:0.0352778"
       id="path840" />
    <path
       d="m 105.26603,154.43936 c -0.76165,0 -0.74083,1.10102 0.0208,1.10102 0.76165,0 0.74084,-1.10102 -0.0208,-1.10102"
       style="fill:#f68a94;fill-opacity:1;fill-rule:nonzero;stroke:none;stroke-width:0.0352778"
       id="path842" />
    <path
       d="m 111.39343,151.13031 c -0.44803,0 -0.86925,0.38593 -0.84067,0.81033 0.0293,0.43744 0.39052,0.78246 0.87065,0.78246 0.44803,0 0.86925,-0.38559 0.84067,-0.81033 -0.0293,-0.43745 -0.39052,-0.78246 -0.87065,-0.78246"
       style="fill:#f68a94;fill-opacity:1;fill-rule:nonzero;stroke:none;stroke-width:0.0352778"
       id="path844" />
    <path
       d="m 114.07807,144.67976 c -1.24778,0 -1.21391,1.80376 0.0339,1.80376 1.24743,0 1.21391,-1.80376 -0.0339,-1.80376"
       style="fill:#f68a94;fill-opacity:1;fill-rule:nonzero;stroke:none;stroke-width:0.0352778"
       id="path846" />
    <path
       d="m 107.11706,140.66515 c -0.19685,-0.20002 -0.52106,-0.22683 -0.7486,-0.0568 -0.25365,0.18873 -0.27763,0.54962 -0.0413,0.762 0.21907,0.19685 0.5595,0.17815 0.77505,-0.0123 0.20567,-0.18204 0.19861,-0.50589 0.0148,-0.69286"
       style="fill:#f68a94;fill-opacity:1;fill-rule:nonzero;stroke:none;stroke-width:0.0352778"
       id="path848" />
    <path
       d="m 95.723039,139.71442 c -0.306212,0 -0.594078,0.26387 -0.574676,0.55421 0.02011,0.29916 0.267053,0.53481 0.595137,0.53481 0.306211,0 0.59443,-0.26352 0.575027,-0.55386 -0.02011,-0.29916 -0.267405,-0.53516 -0.595488,-0.53516"
       style="fill:#f68a94;fill-opacity:1;fill-rule:nonzero;stroke:none;stroke-width:0.0352778"
       id="path850" />
    <path
       d="m 98.457066,142.94022 c -0.431447,0 -0.837141,0.37182 -0.809625,0.78069 0.02822,0.42122 0.376062,0.75389 0.838553,0.75389 0.431447,0 0.836789,-0.37183 0.809625,-0.7807 -0.02822,-0.42157 -0.376414,-0.75388 -0.838553,-0.75388"
       style="fill:#f68a94;fill-opacity:1;fill-rule:nonzero;stroke:none;stroke-width:0.0352778"
       id="path852" />
    <path
       d="m 97.414961,145.97763 c -0.696736,0 -0.677686,1.00718 0.01905,1.00718 0.696736,0 0.678039,-1.00718 -0.01905,-1.00718"
       style="fill:#f68a94;fill-opacity:1;fill-rule:nonzero;stroke:none;stroke-width:0.0352778"
       id="path854" />
    <path
       d="m 98.818664,149.0782 c -1.12642,0 -1.095728,1.62807 0.03069,1.62807 1.126067,0 1.095375,-1.62807 -0.03069,-1.62807"
       style="fill:#f68a94;fill-opacity:1;fill-rule:nonzero;stroke:none;stroke-width:0.0352778"
       id="path856" />
    <path
       d="m 98.824661,153.38526 c -0.664281,0 -0.646289,0.96062 0.01834,0.96062 0.664281,0 0.646289,-0.96062 -0.01834,-0.96062"
       style="fill:#f68a94;fill-opacity:1;fill-rule:nonzero;stroke:none;stroke-width:0.0352778"
       id="path858" />
    <path
       d="m 101.96544,150.26812 c -0.2734,0 -0.53022,0.23565 -0.51294,0.49459 0.018,0.26705 0.23848,0.47766 0.53129,0.47766 0.2734,0 0.53022,-0.23565 0.51294,-0.49459 -0.0176,-0.26705 -0.23848,-0.47766 -0.53129,-0.47766"
       style="fill:#f68a94;fill-opacity:1;fill-rule:nonzero;stroke:none;stroke-width:0.0352778"
       id="path860" />
    <path
       d="m 103.98898,146.18295 c -0.25048,0.004 -0.40711,0.22825 -0.35278,0.44697 l 0.007,0.0261 c 0.0829,0.33196 0.62865,0.30868 0.70873,-0.0116 l 0.006,-0.0261 c 0.0554,-0.22014 -0.12277,-0.43921 -0.369,-0.43533"
       style="fill:#f68a94;fill-opacity:1;fill-rule:nonzero;stroke:none;stroke-width:0.0352778"
       id="path862" />
    <path
       d="m 105.02614,148.29926 c -0.33725,0.006 -0.54751,0.30657 -0.47413,0.60114 l 0.009,0.0349 c 0.11112,0.44627 0.84525,0.41487 0.95285,-0.0155 l 0.009,-0.0353 c 0.0741,-0.29598 -0.16545,-0.59055 -0.49636,-0.58526"
       style="fill:#f68a94;fill-opacity:1;fill-rule:nonzero;stroke:none;stroke-width:0.0352778"
       id="path864" />
    <path
       d="m 111.99209,147.73129 c -0.2667,0 -0.51752,0.22966 -0.50059,0.4826 0.0173,0.26035 0.23248,0.46602 0.51858,0.46602 0.2667,0 0.51753,-0.23001 0.5006,-0.48295 -0.0176,-0.26035 -0.23284,-0.46567 -0.51859,-0.46567"
       style="fill:#f68a94;fill-opacity:1;fill-rule:nonzero;stroke:none;stroke-width:0.0352778"
       id="path866" />
    <path
       d="m 112.39391,142.65552 c -0.29669,0 -0.57538,0.25542 -0.55633,0.53623 0.0194,0.28963 0.25823,0.51787 0.57608,0.51787 0.29634,0 0.57503,-0.25505 0.55633,-0.53622 -0.0198,-0.28928 -0.25858,-0.51788 -0.57608,-0.51788"
       style="fill:#f68a94;fill-opacity:1;fill-rule:nonzero;stroke:none;stroke-width:0.0352778"
       id="path868" />
    <path
       d="m 108.81886,154.47041 -0.0339,-0.0187 c -0.10442,-0.0579 -0.24024,-0.0511 -0.3429,0.006 l -0.0363,0.0201 c -0.34925,0.19332 -0.18238,0.71226 0.22014,0.70591 0.41134,-0.007 0.53834,-0.52141 0.19297,-0.71296"
       style="fill:#f68a94;fill-opacity:1;fill-rule:nonzero;stroke:none;stroke-width:0.0352778"
       id="path870" />
    <path
       d="m 96.104039,145.90637 c -0.850901,-2.7813 -5.487812,-2.42958 -5.969001,0.39617 -0.203553,1.19768 0.531284,2.48074 1.713442,2.9905 2.219325,0.95744 4.873978,-1.06539 4.284839,-3.28471 -0.0092,-0.0342 -0.01905,-0.0684 -0.02928,-0.10196"
       style="fill:#ffffff;fill-opacity:1;fill-rule:nonzero;stroke:none;stroke-width:0.0352778"
       id="path872" />
    <path
       d="m 95.333925,144.78348 c -0.396523,-0.32738 -0.868539,-0.51576 -1.406878,-0.51576 -0.358775,0 -0.735895,0.11818 -1.049161,0.30692 0.485069,0.0751 0.836083,0.45332 0.867127,0.92251 0.03422,0.50941 -0.470958,0.9719 -1.008239,0.9719 -0.300566,0 -0.560211,-0.1143 -0.74683,-0.29668 0.03775,0.46461 0.214842,0.93944 0.599722,1.25694 0.396522,0.32738 0.868186,0.51577 1.406525,0.51577 0.501297,0 1.040695,-0.2279 1.386417,-0.56127 0.336903,-0.32456 0.584906,-0.85196 0.554214,-1.30987 -0.03175,-0.47484 -0.208845,-0.96555 -0.602897,-1.29046"
       style="fill:#333f48;fill-opacity:1;fill-rule:nonzero;stroke:none;stroke-width:0.0352778"
       id="path874" />
    <path
       d="m 118.35726,147.00739 -0.0155,-0.0222 c -0.0381,-0.0945 -0.15663,-0.15205 -0.25682,-0.0921 l -0.0176,0.01 c -0.2219,0.0656 -0.24553,0.36689 -0.0222,0.44662 0.20814,0.0737 0.45826,-0.15064 0.31221,-0.3422"
       style="fill:#dc1e52;fill-opacity:1;fill-rule:nonzero;stroke:none;stroke-width:0.0352778"
       id="path876" />
    <path
       d="m 119.35351,146.39673 -0.031,0.0183 c -0.369,0.21731 0.13441,0.6985 0.37853,0.33972 l 0.0194,-0.0286 c 0.14252,-0.20955 -0.14993,-0.45755 -0.36689,-0.3295"
       style="fill:#dc1e52;fill-opacity:1;fill-rule:nonzero;stroke:none;stroke-width:0.0352778"
       id="path878" />
    <path
       d="m 121.65715,144.87062 c -0.23883,0 -0.43815,0.19896 -0.43392,0.41839 0.004,0.22613 0.2099,0.40393 0.44944,0.40393 0.23883,0 0.43815,-0.19896 0.43391,-0.41839 -0.004,-0.22613 -0.2099,-0.40393 -0.44943,-0.40393"
       style="fill:#dc1e52;fill-opacity:1;fill-rule:nonzero;stroke:none;stroke-width:0.0352778"
       id="path880" />
    <path
       d="m 121.38903,146.68389 c -0.54927,0 -0.53445,0.79411 0.0148,0.79411 0.54928,0 0.53446,-0.79411 -0.0148,-0.79411"
       style="fill:#dc1e52;fill-opacity:1;fill-rule:nonzero;stroke:none;stroke-width:0.0352778"
       id="path882" />
    <path
       d="m 118.75943,148.13946 c -0.47167,0 -0.45897,0.68156 0.0127,0.68156 0.47166,0 0.45861,-0.68156 -0.0127,-0.68156"
       style="fill:#dc1e52;fill-opacity:1;fill-rule:nonzero;stroke:none;stroke-width:0.0352778"
       id="path884" />
    <path
       d="m 121.42149,149.24824 0.002,3.5e-4 -0.0307,-0.018 c -0.3496,-0.20638 -0.75318,0.1845 -0.60043,0.50694 0.0931,0.30268 0.52,0.44062 0.77717,0.19226 0.23813,-0.2293 0.11783,-0.5588 -0.14781,-0.68156"
       style="fill:#dc1e52;fill-opacity:1;fill-rule:nonzero;stroke:none;stroke-width:0.0352778"
       id="path886" />
    <path
       d="m 119.24344,149.73119 c -0.41346,0 -0.40217,0.59725 0.0113,0.59725 0.4131,0 0.40181,-0.59725 -0.0113,-0.59725"
       style="fill:#dc1e52;fill-opacity:1;fill-rule:nonzero;stroke:none;stroke-width:0.0352778"
       id="path888" />
    <path
       d="m 121.81942,151.18816 c -0.47131,0 -0.45861,0.68157 0.0131,0.68157 0.47131,0 0.45861,-0.68157 -0.0131,-0.68157"
       style="fill:#dc1e52;fill-opacity:1;fill-rule:nonzero;stroke:none;stroke-width:0.0352778"
       id="path890" />
    <path
       d="m 123.58931,152.23591 c -0.25682,0 -0.47166,0.21414 -0.46708,0.45015 0.005,0.24341 0.22578,0.43497 0.48366,0.43497 0.25718,0 0.47202,-0.21413 0.46743,-0.45014 -0.005,-0.24342 -0.22613,-0.43498 -0.48401,-0.43498"
       style="fill:#dc1e52;fill-opacity:1;fill-rule:nonzero;stroke:none;stroke-width:0.0352778"
       id="path892" />
    <path
       d="m 120.3173,147.98176 c -0.41346,0 -0.40217,0.59726 0.0109,0.59726 0.41346,0 0.40217,-0.59726 -0.0109,-0.59726"
       style="fill:#dc1e52;fill-opacity:1;fill-rule:nonzero;stroke:none;stroke-width:0.0352778"
       id="path894" />
    <path
       d="m 123.91104,144.01125 c -0.65158,0 -0.63394,0.94156 0.0176,0.94156 0.65158,0 0.63394,-0.94156 -0.0176,-0.94156"
       style="fill:#dc1e52;fill-opacity:1;fill-rule:nonzero;stroke:none;stroke-width:0.0352778"
       id="path896" />
    <path
       d="m 100.40722,157.43586 -0.0243,0.0275 c -0.24059,0.27376 0.13123,0.59479 0.41839,0.37571 l 0.0296,-0.0226 c 0.29139,-0.22189 -0.17957,-0.65828 -0.42369,-0.38064"
       style="fill:#dc1e52;fill-opacity:1;fill-rule:nonzero;stroke:none;stroke-width:0.0352778"
       id="path898" />
    <path
       d="m 103.93818,157.83061 c -0.27835,0 -0.54046,0.23989 -0.52282,0.50412 0.0183,0.272 0.24306,0.48684 0.54187,0.48684 0.27834,0 0.54045,-0.24024 0.52281,-0.50447 -0.0183,-0.272 -0.24306,-0.48649 -0.54186,-0.48649"
       style="fill:#dc1e52;fill-opacity:1;fill-rule:nonzero;stroke:none;stroke-width:0.0352778"
       id="path900" />
    <path
       d="m 106.0365,156.65269 c -0.37924,0 -0.36901,0.54786 0.0102,0.54786 0.37923,0 0.36865,-0.54786 -0.0102,-0.54786"
       style="fill:#dc1e52;fill-opacity:1;fill-rule:nonzero;stroke:none;stroke-width:0.0352778"
       id="path902" />
    <path
       d="m 107.43244,158.16611 c -0.35948,0 -0.3496,0.51999 0.01,0.51999 0.35983,0 0.34995,-0.51999 -0.01,-0.51999"
       style="fill:#dc1e52;fill-opacity:1;fill-rule:nonzero;stroke:none;stroke-width:0.0352778"
       id="path904" />
    <path
       d="m 102.43887,157.84155 c -0.39335,0 -0.38312,0.56938 0.0109,0.56938 0.3937,0 0.38311,-0.56938 -0.0109,-0.56938"
       style="fill:#dc1e52;fill-opacity:1;fill-rule:nonzero;stroke:none;stroke-width:0.0352778"
       id="path906" />
    <path
       d="m 101.95204,137.70358 c -0.27058,0 -0.52494,0.23319 -0.508,0.48966 0.0176,0.26458 0.23636,0.47307 0.52634,0.47307 0.27058,0 0.52529,-0.23318 0.508,-0.48965 -0.018,-0.26459 -0.23636,-0.47308 -0.52634,-0.47308"
       style="fill:#dc1e52;fill-opacity:1;fill-rule:nonzero;stroke:none;stroke-width:0.0352778"
       id="path908" />
    <path
       d="m 105.60646,137.0901 c -0.40816,0 -0.39723,0.5902 0.0113,0.5902 0.40816,0 0.39723,-0.5902 -0.0113,-0.5902"
       style="fill:#dc1e52;fill-opacity:1;fill-rule:nonzero;stroke:none;stroke-width:0.0352778"
       id="path910" />
    <path
       d="m 106.35964,138.87375 c -0.29139,0 -0.28363,0.42157 0.008,0.42157 0.29139,0 0.28363,-0.42157 -0.008,-0.42157"
       style="fill:#dc1e52;fill-opacity:1;fill-rule:nonzero;stroke:none;stroke-width:0.0352778"
       id="path912" />
    <path
       d="m 107.80815,137.62879 c 0.018,0.26882 0.23989,0.48049 0.53481,0.48049 0.27517,0 0.53375,-0.23707 0.51647,-0.49777 -0.007,-0.0998 -0.042,-0.19156 -0.0981,-0.26776 -0.18697,-0.0388 -0.42968,-0.0843 -0.71296,-0.13088 -0.14781,0.091 -0.25153,0.248 -0.24024,0.41592"
       style="fill:#dc1e52;fill-opacity:1;fill-rule:nonzero;stroke:none;stroke-width:0.0352778"
       id="path914" />
    <path
       d="m 104.21299,138.51956 c -0.22825,0 -0.22225,0.3302 0.006,0.3302 0.22825,0 0.22225,-0.3302 -0.006,-0.3302"
       style="fill:#dc1e52;fill-opacity:1;fill-rule:nonzero;stroke:none;stroke-width:0.0352778"
       id="path916" />
    <path
       d="m 108.40011,139.53732 c -0.27235,0 -0.26494,0.3937 0.007,0.3937 0.27234,0 0.26493,-0.3937 -0.007,-0.3937"
       style="fill:#dc1e52;fill-opacity:1;fill-rule:nonzero;stroke:none;stroke-width:0.0352778"
       id="path918" />
  </g>
</svg>
