<?xml version="1.0" encoding="UTF-8" standalone="no"?>
<svg
   xmlns:dc="http://purl.org/dc/elements/1.1/"
   xmlns:cc="http://creativecommons.org/ns#"
   xmlns:rdf="http://www.w3.org/1999/02/22-rdf-syntax-ns#"
   xmlns:svg="http://www.w3.org/2000/svg"
   xmlns="http://www.w3.org/2000/svg"
   xmlns:sodipodi="http://sodipodi.sourceforge.net/DTD/sodipodi-0.dtd"
   xmlns:inkscape="http://www.inkscape.org/namespaces/inkscape"
   width="210mm"
   height="297mm"
   viewBox="0 0 210 297"
   version="1.1"
   id="svg10737"
   inkscape:version="1.0.2 (e86c8708, 2021-01-15)"
   sodipodi:docname="sea_plant8.svg">
  <defs
     id="defs10731" />
  <sodipodi:namedview
     id="base"
     pagecolor="#ffffff"
     bordercolor="#666666"
     borderopacity="1.0"
     inkscape:pageopacity="0.0"
     inkscape:pageshadow="2"
     inkscape:zoom="0.35"
     inkscape:cx="400"
     inkscape:cy="560"
     inkscape:document-units="mm"
     inkscape:current-layer="layer1"
     inkscape:document-rotation="0"
     showgrid="false"
     inkscape:window-width="1252"
     inkscape:window-height="1005"
     inkscape:window-x="0"
     inkscape:window-y="23"
     inkscape:window-maximized="0" />
  <metadata
     id="metadata10734">
    <rdf:RDF>
      <cc:Work
         rdf:about="">
        <dc:format>image/svg+xml</dc:format>
        <dc:type
           rdf:resource="http://purl.org/dc/dcmitype/StillImage" />
        <dc:title></dc:title>
      </cc:Work>
    </rdf:RDF>
  </metadata>
  <g
     inkscape:label="Layer 1"
     inkscape:groupmode="layer"
     id="layer1">
    <path
       d="m 114.54909,194.1908 c -0.24942,-0.24942 -3.15666,-1.20474 -6.47982,-7.10283 -3.04518,-5.40561 -4.81789,-12.62698 -2.57528,-17.61137 2.24331,-4.9844 9.71973,-11.46422 12.04595,-17.36232 2.32586,-5.89809 2.34103,-7.02733 3.5306,-9.80263 1.74448,-4.0707 8.18233,-6.06425 8.93022,-7.64258 0.74753,-1.57833 0.95532,0 -0.54011,1.49542 -1.49507,1.49508 -6.6742,4.70394 -7.35189,6.31332 -0.99695,2.36749 -2.05352,7.78016 -3.36444,10.55017 -2.20133,4.65243 -8.55662,12.17013 -11.04865,16.36536 -3.62973,6.10976 -1.32926,9.42869 2.3675,16.86419 2.83845,5.70865 7.85036,7.97454 7.85036,7.97454 l -3.36444,-0.0413"
       style="fill:#29785a;fill-opacity:1;fill-rule:nonzero;stroke:none;stroke-width:0.0352778"
       id="path910" />
    <path
       d="m 118.43282,193.90011 c 0,0 -2.18087,-0.0416 -2.67935,-0.29104 -0.49847,-0.24942 4.56918,-10.88249 4.0707,-16.94674 -0.49847,-6.06425 -0.33231,-15.28551 2.65854,-18.94064 2.9905,-3.65513 10.30111,-4.40267 12.29466,-5.73194 1.99354,-1.32926 2.05599,-4.65243 2.47156,-4.81823 0.41522,-0.16616 0.16616,4.27848 -1.74449,5.6074 -1.91064,1.32926 -8.44162,2.81622 -10.90365,5.10893 -3.63432,3.38525 -3.03001,14.22611 -2.86597,17.88124 0.27023,6.00217 -1.97273,14.89111 -3.302,18.13102"
       style="fill:#29785a;fill-opacity:1;fill-rule:nonzero;stroke:none;stroke-width:0.0352778"
       id="path912" />
    <path
       d="m 117.99679,124.20251 c 0.29527,-0.56374 2.99049,4.61186 2.6169,9.47913 -0.3743,4.86799 -6.10623,18.31834 -6.72924,23.44244 -0.623,5.12375 3.11539,10.88849 4.3614,16.78094 1.24601,5.89244 -1.24601,17.93381 -1.61996,19.72698 -0.37394,1.79352 -4.11198,-0.51223 -4.11198,-0.51223 0,0 2.86597,-13.06584 2.49202,-18.25414 -0.28539,-3.9624 -3.24873,-12.16942 -3.17746,-17.74155 0.0624,-4.86763 6.60435,-19.15089 7.16491,-23.63399 0.41804,-3.34257 -1.43298,-8.45468 -0.99659,-9.28758"
       style="fill:#34875c;fill-opacity:1;fill-rule:nonzero;stroke:none;stroke-width:0.0352778"
       id="path914" />
    <path
       d="m 126.927,124.1189 c 0,0 -1.58468,15.00681 -5.19218,22.80355 -3.86292,8.34884 -13.58265,17.1958 -14.33019,26.04312 -0.74753,8.84731 7.35224,21.05907 7.35224,21.05907 0,0 3.36445,0 3.36445,-0.37394 0,-0.37395 -8.93445,-14.13757 -8.47337,-20.18666 0.66463,-8.72278 7.39351,-11.2977 13.87298,-26.58321 3.0473,-7.1882 4.9844,-23.09425 3.40607,-22.76193"
       style="fill:#58a77c;fill-opacity:1;fill-rule:nonzero;stroke:none;stroke-width:0.0352778"
       id="path916" />
    <path
       d="m 134.59039,140.81622 c 0.54011,-3.86256 -0.91369,-10.46691 -0.41521,-10.71633 0.49812,-0.24906 2.0768,7.64258 1.49507,11.79654 -0.58138,4.1536 -4.23651,10.96574 -6.72889,15.11935 -2.49202,4.15325 -3.80047,10.21786 -3.96663,13.70683 -0.16616,3.48897 0.95532,7.6842 0.0624,12.8972 -0.88053,5.13927 -6.47982,10.69552 -6.47982,10.69552 l -2.57528,-0.0833 c 0,0 6.05931,-7.31167 6.87423,-11.79618 0.95532,-5.25427 -0.22825,-10.21786 -0.0624,-12.37792 0.16651,-2.1597 2.26377,-9.38741 4.67289,-13.54067 2.40947,-4.1536 6.30485,-9.8425 7.12364,-15.70108"
       style="fill:#58a77c;fill-opacity:1;fill-rule:nonzero;stroke:none;stroke-width:0.0352778"
       id="path918" />
    <path
       d="m 111.70393,196.89061 c -2.30505,-0.71649 -2.74143,-2.86597 -2.6169,-4.17442 0.12453,-1.30846 3.48932,-3.86292 5.17137,-4.11198 1.6824,-0.24941 5.66949,4.42348 5.23346,6.23041 -0.43604,1.80657 -5.81025,2.67053 -7.78793,2.05599"
       style="fill:#924a30;fill-opacity:1;fill-rule:nonzero;stroke:none;stroke-width:0.0352778"
       id="path920" />
    <path
       d="m 123.94674,195.76913 c 0,0 -4.20547,1.12148 -5.76334,1.18392 -1.55751,0.0621 -2.86596,-1.86937 -1.74413,-2.99085 1.12113,-1.12148 4.42348,-2.92806 6.9155,-2.11808 2.49238,0.80963 2.08704,3.6135 0.59197,3.92501"
       style="fill:#a25a3f;fill-opacity:1;fill-rule:nonzero;stroke:none;stroke-width:0.0352778"
       id="path922" />
    <path
       d="m 108.21461,193.35965 c 0.58173,-0.4773 2.72062,-2.11772 3.63467,-0.58102 0.91369,1.5367 0.99695,3.82129 -0.41557,4.44429 -1.41217,0.62301 -4.40902,1.14971 -4.99463,0.10407 -0.29069,-0.51964 -0.0311,-1.09043 0.46743,-2.21227 0.25082,-0.56479 0.85372,-1.38147 1.3081,-1.75507"
       style="fill:#a25a3f;fill-opacity:1;fill-rule:nonzero;stroke:none;stroke-width:0.0352778"
       id="path924" />
    <path
       d="m 114.62811,189.60151 -0.0212,0.002 c -0.20778,0.0176 -0.32843,0.26881 -0.16686,0.42439 0.16475,0.1591 0.40005,0.0226 0.41804,-0.18168 l 0.002,-0.0205 c 0.0102,-0.11748 -0.11853,-0.23354 -0.23177,-0.22402"
       style="fill:#dcba99;fill-opacity:1;fill-rule:nonzero;stroke:none;stroke-width:0.0352778"
       id="path926" />
    <path
       d="m 115.87095,190.2037 c -0.21696,0 -0.42122,0.20109 -0.40746,0.42193 0.0141,0.22789 0.18944,0.40781 0.42192,0.40781 0.21731,0 0.42157,-0.20109 0.40781,-0.42228 -0.0145,-0.22754 -0.18944,-0.40746 -0.42227,-0.40746"
       style="fill:#dcba99;fill-opacity:1;fill-rule:nonzero;stroke:none;stroke-width:0.0352778"
       id="path928" />
    <path
       d="m 117.05557,191.21582 c -0.19826,0 -0.38488,0.1838 -0.37218,0.38559 0.0131,0.20779 0.17286,0.37183 0.38524,0.37183 0.19826,0 0.38488,-0.18345 0.37218,-0.38524 -0.0131,-0.20813 -0.17322,-0.37218 -0.38524,-0.37218"
       style="fill:#dcba99;fill-opacity:1;fill-rule:nonzero;stroke:none;stroke-width:0.0352778"
       id="path930" />
    <path
       d="m 115.88717,192.1013 -0.003,-0.01 c -0.0307,-0.12418 -0.1591,-0.17463 -0.27446,-0.15664 -0.10795,0.018 -0.1972,0.0914 -0.2092,0.20673 -0.0109,0.10901 0.0568,0.24095 0.17604,0.26 l 0.018,0.002 c 0.18309,0.0293 0.34008,-0.11289 0.29245,-0.30268"
       style="fill:#dcba99;fill-opacity:1;fill-rule:nonzero;stroke:none;stroke-width:0.0352778"
       id="path932" />
    <path
       d="m 115.5979,191.93514 0.012,-3.6e-4 0.0229,-0.005 z"
       style="fill:#dcba99;fill-opacity:1;fill-rule:nonzero;stroke:none;stroke-width:0.0352778"
       id="path934" />
    <path
       d="m 114.75299,190.98687 c -0.27446,0 -0.2667,0.42651 0.007,0.42651 0.27446,0 0.26741,-0.42651 -0.007,-0.42651"
       style="fill:#dcba99;fill-opacity:1;fill-rule:nonzero;stroke:none;stroke-width:0.0352778"
       id="path936" />
    <path
       d="m 115.08143,193.26299 c -0.22472,0 -0.43568,0.20814 -0.42157,0.43674 0.0148,0.23566 0.19579,0.42192 0.43674,0.42192 0.22472,0 0.43603,-0.20813 0.42157,-0.43709 -0.0148,-0.23565 -0.19579,-0.42157 -0.43674,-0.42157"
       style="fill:#dcba99;fill-opacity:1;fill-rule:nonzero;stroke:none;stroke-width:0.0352778"
       id="path938" />
    <path
       d="m 117.24537,192.57719 c -0.25929,0 -0.25224,0.40252 0.007,0.40252 0.25965,0 0.25259,-0.40252 -0.007,-0.40252"
       style="fill:#dcba99;fill-opacity:1;fill-rule:nonzero;stroke:none;stroke-width:0.0352778"
       id="path940" />
    <path
       d="m 114.66903,195.6192 c -0.35348,0 -0.34396,0.54892 0.009,0.54892 0.35384,0 0.34432,-0.54892 -0.009,-0.54892"
       style="fill:#dcba99;fill-opacity:1;fill-rule:nonzero;stroke:none;stroke-width:0.0352778"
       id="path942" />
    <path
       d="m 113.09141,195.59168 c -0.28187,0 -0.27446,0.43815 0.008,0.43815 0.28222,0 0.27446,-0.43815 -0.008,-0.43815"
       style="fill:#dcba99;fill-opacity:1;fill-rule:nonzero;stroke:none;stroke-width:0.0352778"
       id="path944" />
    <path
       d="m 123.3516,192.08613 c -0.2152,0 -0.41734,0.19932 -0.40358,0.41839 0.0141,0.22543 0.18768,0.40358 0.41804,0.40358 0.2152,0 0.41734,-0.19897 0.40393,-0.41804 -0.0141,-0.22578 -0.18767,-0.40393 -0.41839,-0.40393"
       style="fill:#dcba99;fill-opacity:1;fill-rule:nonzero;stroke:none;stroke-width:0.0352778"
       id="path946" />
    <path
       d="m 124.80434,193.35718 -0.0229,-0.018 c -0.0818,-0.0649 -0.22119,-0.11042 -0.31539,-0.0353 l -0.0173,0.0134 c -0.0967,0.0769 -0.1517,0.16898 -0.13441,0.29422 0.0176,0.12947 0.12312,0.23107 0.25294,0.24447 0.24765,0.0247 0.46567,-0.31856 0.23707,-0.49883"
       style="fill:#dcba99;fill-opacity:1;fill-rule:nonzero;stroke:none;stroke-width:0.0352778"
       id="path948" />
    <path
       d="m 123.30821,194.11283 -0.0226,0.0406 c -0.15381,0.27552 0.29563,0.51682 0.42122,0.23637 l 0.019,-0.0423 c 0.12453,-0.27693 -0.26494,-0.508 -0.41769,-0.2346"
       style="fill:#dcba99;fill-opacity:1;fill-rule:nonzero;stroke:none;stroke-width:0.0352778"
       id="path950" />
    <path
       d="m 122.95331,193.41433 c -0.11253,-0.10124 -0.24976,-0.10124 -0.38064,-0.0402 -0.0945,0.0444 -0.12242,0.16792 -0.0931,0.26423 -0.008,0.0617 0.0102,0.13158 0.0385,0.18944 -0.01,-0.0342 -0.0198,-0.0688 -0.0296,-0.10266 0.0363,0.32562 0.502,0.32279 0.57715,0.0183 0.03,-0.12171 -0.0215,-0.2473 -0.11219,-0.32915"
       style="fill:#dcba99;fill-opacity:1;fill-rule:nonzero;stroke:none;stroke-width:0.0352778"
       id="path952" />
    <path
       d="m 122.2594,192.03921 -0.0399,-0.0437 c -0.0547,-0.0603 -0.145,-0.0727 -0.21979,-0.054 l -0.0688,0.0169 c -0.32667,0.0808 -0.30021,0.56797 0.0113,0.6477 0.33902,0.0868 0.53622,-0.32597 0.31715,-0.56691"
       style="fill:#dcba99;fill-opacity:1;fill-rule:nonzero;stroke:none;stroke-width:0.0352778"
       id="path954" />
    <path
       d="m 121.48576,194.5905 c -0.30939,-0.0794 -0.43004,0.37077 -0.139,0.4826 0.3108,0.11959 0.46355,-0.39935 0.139,-0.4826"
       style="fill:#dcba99;fill-opacity:1;fill-rule:nonzero;stroke:none;stroke-width:0.0352778"
       id="path956" />
    <path
       d="m 123.84972,195.00995 c -0.28222,0 -0.27481,0.43815 0.007,0.43815 0.28222,0 0.27411,-0.43815 -0.007,-0.43815"
       style="fill:#dcba99;fill-opacity:1;fill-rule:nonzero;stroke:none;stroke-width:0.0352778"
       id="path958" />
    <path
       d="m 120.9834,193.20655 c -0.30515,0 -0.29668,0.47307 0.008,0.47307 0.30444,0 0.29633,-0.47307 -0.008,-0.47307"
       style="fill:#dcba99;fill-opacity:1;fill-rule:nonzero;stroke:none;stroke-width:0.0352778"
       id="path960" />
    <path
       d="m 110.59374,192.81108 c -0.20884,0 -0.40534,0.19333 -0.39229,0.4064 0.0138,0.21908 0.18274,0.39194 0.4064,0.39194 0.2092,0 0.4057,-0.19297 0.39265,-0.40605 -0.0138,-0.21942 -0.18274,-0.39229 -0.40676,-0.39229"
       style="fill:#dcba99;fill-opacity:1;fill-rule:nonzero;stroke:none;stroke-width:0.0352778"
       id="path962" />
    <path
       d="m 111.34587,194.23701 c -0.36866,0 -0.35843,0.57221 0.0102,0.57221 0.36794,0 0.35807,-0.57221 -0.0102,-0.57221"
       style="fill:#dcba99;fill-opacity:1;fill-rule:nonzero;stroke:none;stroke-width:0.0352778"
       id="path964" />
    <path
       d="m 110.26672,195.19163 c -0.31609,0 -0.30727,0.49036 0.008,0.49036 0.31609,0 0.30727,-0.49036 -0.008,-0.49036"
       style="fill:#dcba99;fill-opacity:1;fill-rule:nonzero;stroke:none;stroke-width:0.0352778"
       id="path966" />
    <path
       d="m 109.81375,194.13294 c -0.0631,-0.079 -0.22048,-0.0871 -0.26458,0.0205 l -0.0106,0.0268 c -0.0427,0.10442 0.0371,0.27093 0.17216,0.2159 l 0.024,-0.01 c 0.10301,-0.0423 0.15416,-0.15981 0.079,-0.25365"
       style="fill:#dcba99;fill-opacity:1;fill-rule:nonzero;stroke:none;stroke-width:0.0352778"
       id="path968" />
    <path
       d="m 111.63479,195.57369 c -0.51929,0 -0.50518,0.80609 0.0141,0.80609 0.51858,0 0.50447,-0.80609 -0.0141,-0.80609"
       style="fill:#dcba99;fill-opacity:1;fill-rule:nonzero;stroke:none;stroke-width:0.0352778"
       id="path970" />
    <path
       d="m 110.26989,196.63026 c -0.0677,0 -0.066,0.10512 0.002,0.10512 0.0681,0 0.066,-0.10512 -0.002,-0.10512"
       style="fill:#dcba99;fill-opacity:1;fill-rule:nonzero;stroke:none;stroke-width:0.0352778"
       id="path972" />
    <path
       d="m 109.27083,196.75126 c -0.23319,0 -0.22684,0.36195 0.006,0.36195 0.23318,0 0.22683,-0.36195 -0.006,-0.36195"
       style="fill:#dcba99;fill-opacity:1;fill-rule:nonzero;stroke:none;stroke-width:0.0352778"
       id="path974" />
    <path
       d="m 113.67596,190.15079 c -0.0677,0 -0.066,0.10512 0.002,0.10512 0.0674,0 0.0656,-0.10512 -0.002,-0.10512"
       style="fill:#dcba99;fill-opacity:1;fill-rule:nonzero;stroke:none;stroke-width:0.0352778"
       id="path976" />
    <path
       d="m 114.25381,188.673 c -0.31185,0 -0.30339,0.48472 0.009,0.48472 0.31221,0 0.30374,-0.48472 -0.009,-0.48472"
       style="fill:#dcba99;fill-opacity:1;fill-rule:nonzero;stroke:none;stroke-width:0.0352778"
       id="path980" />
    <path
       d="m 121.05784,192.27663 c -0.0145,-0.24695 -0.3616,-0.32879 -0.46779,-0.12348 -0.0543,0.0367 -0.0963,0.0889 -0.11923,0.16228 l -0.006,0.0198 c -0.0444,0.14217 0.0596,0.29174 0.19508,0.3302 l 0.0215,0.006 c 0.14605,0.0413 0.32562,-0.0582 0.35631,-0.21025 0.0152,-0.0769 0.0251,-0.10407 0.0201,-0.1845"
       style="fill:#dcba99;fill-opacity:1;fill-rule:nonzero;stroke:none;stroke-width:0.0352778"
       id="path982" />
    <path
       d="m 118.03312,193.24888 c -0.35701,0 -0.34748,0.55457 0.0102,0.55457 0.35701,0 0.34714,-0.55457 -0.0102,-0.55457"
       style="fill:#dcba99;fill-opacity:1;fill-rule:nonzero;stroke:none;stroke-width:0.0352778"
       id="path984" />
    <path
       d="m 119.48833,192.78498 c -0.25929,0 -0.25259,0.40252 0.007,0.40252 0.25929,0 0.25223,-0.40252 -0.007,-0.40252"
       style="fill:#dcba99;fill-opacity:1;fill-rule:nonzero;stroke:none;stroke-width:0.0352778"
       id="path986" />
    <path
       d="m 116.77547,194.68151 -7.1e-4,-0.0155 c -0.0191,-0.0868 -0.0988,-0.15028 -0.17991,-0.17392 -0.17322,-0.0501 -0.3683,0.0543 -0.40358,0.23636 -0.0339,0.17322 0.0871,0.375 0.28398,0.36019 0.0272,-0.002 0.12383,-0.0159 0.067,-0.009 -0.0459,0.006 0.0579,-0.007 0.0698,-0.0106 0.0748,-0.0215 0.13265,-0.0773 0.17145,-0.14253 0.0547,-0.0924 0.0406,-0.18062 -0.008,-0.24518"
       style="fill:#dcba99;fill-opacity:1;fill-rule:nonzero;stroke:none;stroke-width:0.0352778"
       id="path988" />
    <path
       d="m 108.27317,193.96008 c -0.29739,0 -0.28928,0.46108 0.008,0.46108 0.29669,0 0.28893,-0.46108 -0.008,-0.46108"
       style="fill:#dcba99;fill-opacity:1;fill-rule:nonzero;stroke:none;stroke-width:0.0352778"
       id="path990" />
  </g>
</svg>
