<?xml version="1.0" encoding="UTF-8" standalone="no"?>
<svg
   xmlns:dc="http://purl.org/dc/elements/1.1/"
   xmlns:cc="http://creativecommons.org/ns#"
   xmlns:rdf="http://www.w3.org/1999/02/22-rdf-syntax-ns#"
   xmlns:svg="http://www.w3.org/2000/svg"
   xmlns="http://www.w3.org/2000/svg"
   xmlns:sodipodi="http://sodipodi.sourceforge.net/DTD/sodipodi-0.dtd"
   xmlns:inkscape="http://www.inkscape.org/namespaces/inkscape"
   width="210mm"
   height="297mm"
   viewBox="0 0 210 297"
   version="1.1"
   id="svg10367"
   inkscape:version="1.0.2 (e86c8708, 2021-01-15)"
   sodipodi:docname="sea_plant7.svg">
  <defs
     id="defs10361" />
  <sodipodi:namedview
     id="base"
     pagecolor="#ffffff"
     bordercolor="#666666"
     borderopacity="1.0"
     inkscape:pageopacity="0.0"
     inkscape:pageshadow="2"
     inkscape:zoom="0.8895229"
     inkscape:cx="485.94798"
     inkscape:cy="595.85116"
     inkscape:document-units="mm"
     inkscape:current-layer="layer1"
     inkscape:document-rotation="0"
     showgrid="false"
     inkscape:window-width="1252"
     inkscape:window-height="1005"
     inkscape:window-x="0"
     inkscape:window-y="23"
     inkscape:window-maximized="0" />
  <metadata
     id="metadata10364">
    <rdf:RDF>
      <cc:Work
         rdf:about="">
        <dc:format>image/svg+xml</dc:format>
        <dc:type
           rdf:resource="http://purl.org/dc/dcmitype/StillImage" />
        <dc:title></dc:title>
      </cc:Work>
    </rdf:RDF>
  </metadata>
  <g
     inkscape:label="Layer 1"
     inkscape:groupmode="layer"
     id="layer1">
    <path
       d="m 168.37167,215.51247 c -0.0293,0.0356 -0.0529,0.067 -0.0734,0.1083 -0.13264,0.26529 0.31115,0.41416 0.36019,0.14429 0.008,-0.0466 0.0141,-0.0875 0.012,-0.13476 -0.006,-0.1397 -0.19826,-0.23989 -0.2988,-0.11783"
       style="fill:#dcba99;fill-opacity:1;fill-rule:nonzero;stroke:none;stroke-width:0.0352778"
       id="path978" />
    <path
       d="m 160.0313,149.51198 c -0.0392,-0.16087 -0.89712,-2.45639 -0.39017,-3.82552 0.50729,-1.36914 0.8195,-1.77201 1.48237,-1.53 0.66287,0.2413 1.131,3.181 0.62371,4.75156 0,0 0.74154,-1.25836 1.44321,-0.77505 0.70203,0.4833 -1.05269,3.53377 -1.05269,3.53377 0,0 1.3455,-1.20826 1.66723,-0.30233 0.32174,0.90594 -1.46262,3.32247 -1.46262,3.32247 0,0 1.02377,-0.87595 1.40406,-0.30198 0.3803,0.57397 -1.46262,3.53342 -1.46262,3.53342 0,0 0.87772,-0.78493 1.31622,0.15134 0.43885,0.93592 -1.55011,3.50344 -1.55011,3.50344 0,0 1.37478,-0.99695 1.3455,0.0903 -0.0293,1.08726 -2.36961,3.62444 -2.36961,3.62444 0,0 1.90147,-1.23825 1.7847,0.0907 -0.11712,1.32892 -3.1302,2.8695 -3.1302,2.8695 0,0 1.98896,-0.7553 2.01825,0.3623 0.0293,1.1176 -3.59799,2.38619 -3.59799,2.38619 0,0 2.51566,-0.72496 2.57422,0.30162 0.0586,1.02694 -3.5687,2.83916 -3.5687,2.83916 0,0 1.87184,-0.54363 2.0186,0.60431 0.14605,1.14758 -3.18876,2.47614 -3.18876,2.47614 0,0 2.36926,-1.08726 2.51566,0.0607 0.1464,1.14759 -3.62726,2.56717 -3.62726,2.56717 0,0 2.36961,-1.02694 2.7499,0.18132 0.38029,1.20792 -3.45193,2.92947 -3.45193,2.92947 0,0 2.86667,-1.44956 3.15948,-0.18133 0.29245,1.26859 -3.53978,3.35245 -3.53978,3.35245 0,0 2.92524,-1.78188 3.10092,-0.0603 0.17533,1.72155 -3.24697,3.68511 -3.24697,3.68511 0,0 2.13502,-1.20826 2.69135,0.42263 0.55562,1.63089 -5.06095,3.92642 -5.06095,3.92642 0,0 4.18288,-1.1176 3.91971,0.78493 -0.26317,1.90288 -7.48841,2.32586 -7.48841,2.32586 l -1.37513,-0.69497 c 0,0 -1.43299,-2.95945 -0.8188,-3.80541 0.61419,-0.84561 2.13537,0.27199 2.13537,0.27199 0,0 -1.28729,-2.68782 -0.5267,-3.35245 0.76094,-0.66463 1.84291,0.81527 1.84291,0.81527 0,0 -1.63795,-2.74849 -0.99448,-3.4731 0.64347,-0.72496 1.81363,0.48331 1.81363,0.48331 0,0 -1.69651,-2.17452 -1.08232,-3.20146 0.61418,-1.02729 1.75542,-0.0603 1.75542,-0.0603 0,0 -1.98931,-2.77883 -1.22908,-3.41312 0.76059,-0.6343 1.6383,0.21131 1.6383,0.21131 0,0 -1.78435,-2.65783 -1.05304,-3.32246 0.73131,-0.66393 1.52118,0.60431 1.52118,0.60431 0,0 -1.98932,-3.11079 -0.90664,-3.77543 1.08197,-0.66428 1.95968,0.57397 1.95968,0.57397 0,0 -1.08232,-3.74509 -0.1464,-4.22839 0.93627,-0.48296 1.69686,1.17792 1.69686,1.17792 0,0 -1.46262,-3.23144 -0.3803,-3.89608 1.08233,-0.66428 1.69651,0.81527 1.69651,0.81527 0,0 -0.90664,-2.83915 -0.11712,-3.26178 0.78987,-0.42263 1.81398,0.78528 1.81398,0.78528 0,0 -1.14123,-4.04706 0.0293,-4.28836 1.16981,-0.24201 1.784,0.57326 1.784,0.57326 0,0 -1.52082,-2.44616 -0.5849,-3.05012 0.93627,-0.60431 1.52117,0.12065 1.55045,0.21132 0.0293,0.0903 -1.55045,-2.29518 -0.87771,-3.32211 0.6731,-1.02694 1.43369,-0.21167 1.43369,-0.21167 0,0 -2.01859,-2.02318 -1.43369,-3.26178 0.58526,-1.23825 1.34585,-0.69462 1.34585,-0.69462 0,0 -2.48673,-2.02353 -1.75542,-3.02013 0.73166,-0.99695 1.6383,0.11042 1.6383,0.11042"
       style="fill:#9fdcab;fill-opacity:1;fill-rule:nonzero;stroke:none;stroke-width:0.0352778"
       id="path1624" />
    <path
       d="m 146.38021,196.58806 c 0,0 3.19828,-5.15479 3.97827,-8.21549 0.77999,-3.06 0.77999,-8.53722 1.87219,-11.75879 1.09185,-3.22121 5.69454,-10.14801 6.78674,-12.56418 1.0922,-2.41618 2.10609,-3.94617 1.94981,-8.45679 -0.15593,-4.51027 -0.85761,-8.93974 -0.31186,-9.26183 0.5461,-0.32244 1.24778,8.45644 1.01388,11.59792 -0.23389,3.14078 -1.63794,5.71818 -2.80811,8.13435 -1.17016,2.41618 -4.91419,8.69809 -5.61622,11.03383 -0.70238,2.33575 -0.85831,7.97349 -1.56034,10.9534 -0.70202,2.98027 -4.1342,9.10096 -4.1342,9.10096 l -1.17016,-0.56338"
       style="fill:#d2373d;fill-opacity:1;fill-rule:nonzero;stroke:none;stroke-width:0.0352778"
       id="path1626" />
    <path
       d="m 154.94213,148.34464 c 0,0 -0.0406,-4.63127 1.7399,-4.30919 1.78046,0.32209 0.32385,4.30919 0.32385,4.30919 0,0 1.41569,-1.00718 1.61854,0.20108 0.20214,1.20826 -1.74025,2.9397 -1.74025,2.9397 0,0 1.69933,-0.9264 1.82068,0.16122 0.12171,1.08726 -2.30611,2.81869 -2.30611,2.81869 0,0 1.33527,-0.64417 1.65877,0.24165 0.32385,0.88583 -2.8321,3.58423 -2.8321,3.58423 0,0 1.82068,-0.96662 2.18475,0.0801 0.36407,1.04739 -2.75132,2.93969 -2.75132,2.93969 0,0 2.06375,-0.64417 2.06375,0.60431 0,1.24813 -2.99437,2.17452 -2.99437,2.17452 0,0 1.94239,-0.20143 1.94239,0.88583 0,1.08761 -3.31823,2.61761 -3.31823,2.61761 0,0 1.78047,-0.72496 1.86161,0.32244 0.0808,1.04704 -3.35844,2.65747 -3.35844,2.65747 0,0 1.8609,-0.7246 1.78011,0.44309 -0.0811,1.16805 -3.43923,2.61762 -3.43923,2.61762 0,0 1.9424,-0.28187 1.78047,0.92639 -0.16192,1.20791 -2.87302,2.41617 -2.87302,2.41617 0,0 1.86161,-0.68474 1.61854,0.60396 -0.24271,1.2887 -3.96522,2.69804 -3.96522,2.69804 0,0 2.34668,-0.44308 1.33527,1.00683 -1.01142,1.44957 -3.27731,1.93287 -3.27731,1.93287 0,0 1.45662,-0.52317 2.34668,0.48331 0.89041,1.00683 -2.87267,3.10056 -2.87267,3.10056 0,0 2.38689,-1.69121 3.35809,-0.44273 0.9712,1.24812 -2.42746,3.98674 -2.42746,3.98674 0,0 1.86125,-1.65136 2.91288,-0.88618 1.05234,0.76518 -2.02283,4.06753 -2.02283,4.06753 0,0 2.2659,-1.44992 2.91324,-0.32209 0.64735,1.12748 -2.48143,3.90631 -2.48143,3.90631 l -2.61656,0.32209 c 0,0 -3.19687,-0.0808 -3.64172,-1.4097 -0.44486,-1.32892 0.97084,-1.28835 0.97084,-1.28835 0,0 -2.95345,-0.40287 -3.07481,-1.65135 -0.12136,-1.24813 1.78012,-1.32891 1.78012,-1.32891 0,0 -2.67053,-0.88583 -2.3869,-2.25496 0.28328,-1.36913 1.86091,-0.52352 1.86091,-0.52352 0,0 -2.42782,-1.77201 -1.57763,-3.02013 0.84949,-1.24848 1.86091,0.28187 1.86091,0.28187 0,0 -1.41605,-2.49697 -0.36407,-3.42336 1.05198,-0.92604 1.78047,0.60431 1.78047,0.60431 0,0 -1.61855,-3.30235 -0.36442,-4.02731 1.25448,-0.72461 1.7399,1.04739 1.7399,1.04739 0,0 -1.37548,-2.69804 -0.20214,-3.86609 1.17334,-1.16769 2.26589,1.12748 2.26589,1.12748 0,0 -0.93063,-2.65783 0.121,-3.54365 1.05234,-0.88583 1.49719,1.04704 1.49719,1.04704 0,0 -1.01141,-3.22192 0.0406,-3.74509 1.05198,-0.52352 1.57798,0.72496 1.57798,0.72496 0,0 -1.45662,-3.18135 -0.526,-3.86609 0.93063,-0.68474 1.49719,0.56374 1.49719,0.56374 0,0 -0.97119,-3.10092 0.0406,-3.82552 1.01142,-0.72496 1.73955,1.40934 1.69933,1.28869 -0.0406,-0.121 -1.25447,-3.0607 -0.24306,-3.70487 1.01177,-0.64417 1.45662,0.68439 1.45662,0.68439 0,0 -1.4157,-2.33574 -0.60643,-3.02013 0.80892,-0.68474 1.6182,0.64417 1.6182,0.64417 0,0 -1.49719,-2.61761 -0.56657,-3.38279 0.93063,-0.76482 1.49719,0.28223 1.49719,0.28223 0,0 -1.49719,-2.29553 -0.80927,-3.0607 0.68756,-0.76518 1.61855,-0.0402 1.61855,-0.0402 0,0 -1.69934,-2.13431 -0.9712,-3.22157 0.72848,-1.08726 1.53776,-0.0402 1.53776,-0.0402 0,0 -2.06375,-2.33575 -0.93063,-3.50379 1.13277,-1.16734 1.82069,0.36301 1.82069,0.36301"
       style="fill:#b4e0d9;fill-opacity:1;fill-rule:nonzero;stroke:none;stroke-width:0.0352778"
       id="path1628" />
    <path
       d="m 145.09292,197.17191 -1.56104,0.22154 c 0,0 -2.3816,-2.56787 -3.64173,-4.7117 -1.25447,-2.13466 -1.37548,-4.18818 -0.28328,-7.08766 0.61031,-1.6189 5.66491,-8.81944 7.76888,-13.24857 2.10396,-4.42983 2.71074,-5.19501 3.96522,-8.81944 1.25448,-3.62444 3.60116,-10.55053 4.16772,-13.40979 0.5662,-2.85927 0.63817,-4.18818 0.89005,-4.18818 0.16193,0 -0.4452,4.91313 -1.13312,7.73183 -0.68756,2.81869 -2.42781,7.81226 -3.39866,10.83275 -0.9712,3.02048 -4.49121,10.02735 -6.3119,13.49022 -1.60796,3.05823 -4.50744,6.67279 -5.05777,8.25571 -0.72849,2.09373 -0.68792,3.74509 1.65876,7.04709 2.34667,3.30235 2.93687,3.8862 2.93687,3.8862"
       style="fill:#d2373d;fill-opacity:1;fill-rule:nonzero;stroke:none;stroke-width:0.0352778"
       id="path1630" />
    <path
       d="m 148.21324,145.12272 c 0,-0.24166 0.27305,-2.89948 -1.01388,-2.6984 -1.28729,0.20179 -0.70203,4.22875 -0.70203,4.22875 0,0 -1.32609,-1.61114 -1.83339,-0.72496 -0.50694,0.88618 1.83339,3.86609 1.83339,3.86609 0,0 -1.40441,-0.88618 -1.91135,0.12065 -0.50694,1.00647 1.32609,2.57704 1.32609,2.57704 0,0 -1.71626,-0.48295 -2.02812,0.52388 -0.31185,1.00647 1.05304,2.89948 1.05304,2.89948 0,0 -1.0922,-1.20827 -1.79387,-0.48366 -0.70203,0.72496 0.66287,3.38279 0.66287,3.38279 0,0 -0.89712,-0.68439 -1.40406,-0.0804 -0.50694,0.60431 0.39017,3.70487 0.39017,3.70487 0,0 -0.78034,-1.36913 -1.71661,-0.48295 -0.93592,0.88547 0.66322,3.94617 0.66322,3.94617 0,0 -0.77999,-1.12747 -1.56034,-0.52352 -0.77963,0.60431 0.31221,3.74509 0.31221,3.74509 0,0 -0.5461,-1.24813 -1.36489,-0.56374 -0.81915,0.68474 0.93591,3.74509 0.93591,3.74509 0,0 -0.93591,-1.36913 -1.55998,-0.52352 -0.62406,0.84596 1.28693,3.54365 1.28693,3.54365 0,0 -1.28693,-1.08726 -1.6383,-0.28187 -0.35101,0.80539 1.71662,3.26179 1.71662,3.26179 0,0 -1.59949,-0.88548 -1.44321,0.44308 0.15593,1.32927 1.6771,2.37632 1.6771,2.37632 0,0 -1.20932,-0.40288 -1.32609,0.6036 -0.11712,1.00683 2.80811,1.93322 2.80811,1.93322 0,0 -1.59914,0.32209 -1.55998,1.36913 0.0388,1.04705 2.92523,1.57057 2.92523,1.57057 0,0 -1.71626,0.3623 -1.56033,1.28834 0.15628,0.9264 2.53541,1.53035 2.53541,1.53035 0,0 -1.98931,-0.0402 -1.83339,1.04705 0.15628,1.08761 2.49626,1.93287 2.49626,1.93287 0,0 -1.28693,-0.48296 -1.36525,0.44309 -0.0776,0.92639 2.65254,4.49015 2.65254,4.49015 l 1.81363,-0.16086 c 0,0 2.08668,-2.59786 1.61854,-3.92642 -0.46813,-1.32892 -1.71626,-0.9264 -1.71626,-0.9264 0,0 1.87219,-1.24812 1.32609,-2.45639 -0.5461,-1.20826 -1.55998,-0.44309 -1.55998,-0.44309 0,0 1.6771,-2.33539 0.77999,-3.26178 -0.89712,-0.92604 -1.79423,0 -1.79423,0 0,0 1.83303,-2.37561 0.97543,-3.50344 -0.85831,-1.12747 -1.91135,-0.12065 -1.91135,-0.12065 0,0 1.52083,-1.81222 1.16981,-2.77847 -0.35066,-0.96697 -1.9498,-0.52388 -1.9498,-0.52388 0,0 1.24813,-1.93287 0.74118,-2.85891 -0.50729,-0.9264 -2.06727,0.48295 -2.06727,0.48295 0,0 2.30117,-1.61043 1.87219,-2.97991 -0.42933,-1.36913 -1.87219,-0.56374 -1.87219,-0.56374 0,0 2.41829,-1.04705 2.06727,-2.37596 -0.35136,-1.32891 -1.75542,-0.56374 -1.75542,-0.56374 0,0 2.76931,-1.40935 2.65254,-2.81869 -0.11748,-1.4097 -1.67746,-0.44309 -1.67746,-0.44309 0,0 2.65218,-0.68474 2.80846,-2.17452 0.15593,-1.49014 -1.56033,-0.72496 -1.56033,-0.72496 0,0 2.53506,-1.20827 2.65218,-2.53718 0.11712,-1.32891 -1.91135,-0.32209 -1.91135,-0.32209 0,0 2.45745,-1.00682 2.41865,-2.49661 -0.0395,-1.49013 -1.44322,-0.36265 -1.44322,-0.36265 0,0 2.22321,-1.28835 2.10609,-2.89948 -0.11677,-1.61079 -1.3261,-0.56374 -1.3261,-0.56374 0,0 1.63795,-0.96626 1.48202,-2.37596 -0.15592,-1.40935 -1.24812,-0.52352 -1.24812,-0.52352 0,0 1.95015,-1.28835 1.67745,-2.33539 -0.2734,-1.0474 -1.52153,-0.24201 -1.52153,-0.24201 0,0 1.40441,-1.89265 1.32609,-3.423 -0.078,-1.53 -1.63794,0.44309 -1.63794,0.44309 l -0.19509,-1.44956"
       style="fill:#9fdcab;fill-opacity:1;fill-rule:nonzero;stroke:none;stroke-width:0.0352778"
       id="path1632" />
    <path
       d="m 147.61846,144.70009 c -0.41981,0 0.57538,5.06377 -0.43886,9.09073 -1.01388,4.02696 -5.31389,13.99399 -6.1722,18.42382 -0.85831,4.42948 0.62442,9.42305 2.18405,12.64426 1.56034,3.22192 2.78906,3.5306 2.88643,7.00723 0.0388,1.38924 -0.21449,5.46664 -0.21449,5.46664 l 1.80375,-0.15099 c 0,0 -0.0487,-2.73826 -0.34113,-5.93972 -0.18662,-2.04434 -1.40406,-4.0774 -3.35457,-7.59072 -1.59914,-2.88149 -2.91747,-6.80649 -1.911,-11.37637 1.37513,-6.24206 5.40209,-15.44391 5.79191,-18.2425 0.32314,-2.3174 0.31221,-9.33238 -0.23389,-9.33238"
       style="fill:#d2373d;fill-opacity:1;fill-rule:nonzero;stroke:none;stroke-width:0.0352778"
       id="path1634" />
    <path
       d="m 152.83392,203.19594 c -0.53163,-0.49107 -2.14383,-1.42663 -3.07904,-1.18392 -0.57714,0.14922 -3.03601,1.27 -2.23696,2.26554 0.28857,0.35948 0.9472,0.23036 1.34055,0.23142 0.7994,0.002 2.04188,0.11783 2.82893,-0.0406 0.82797,-0.16616 1.7526,-0.71261 1.14652,-1.27247"
       style="fill:#a25a3f;fill-opacity:1;fill-rule:nonzero;stroke:none;stroke-width:0.0352778"
       id="path2298" />
    <path
       d="m 150.69009,203.2418 c -0.16721,0 -0.16757,0.26035 0,0.26035 0.16757,0 0.16793,-0.26035 0,-0.26035"
       style="fill:#924a30;fill-opacity:1;fill-rule:nonzero;stroke:none;stroke-width:0.0352778"
       id="path2300" />
    <path
       d="m 152.04864,203.11163 c -0.16757,0 -0.16792,0.26035 0,0.26035 0.16757,0 0.16792,-0.26035 0,-0.26035"
       style="fill:#924a30;fill-opacity:1;fill-rule:nonzero;stroke:none;stroke-width:0.0352778"
       id="path2302" />
    <path
       d="m 151.20233,202.45616 c -0.38241,0 -0.38312,0.59443 0,0.59443 0.38206,0 0.38276,-0.59443 0,-0.59443"
       style="fill:#924a30;fill-opacity:1;fill-rule:nonzero;stroke:none;stroke-width:0.0352778"
       id="path2304" />
    <path
       d="m 150.26782,202.48403 c -0.30515,0 -0.30586,0.47449 0,0.47449 0.30515,0 0.3055,-0.47449 0,-0.47449"
       style="fill:#924a30;fill-opacity:1;fill-rule:nonzero;stroke:none;stroke-width:0.0352778"
       id="path2306" />
    <path
       d="m 152.15201,203.66937 c -0.30516,0 -0.30551,0.47413 0,0.47413 0.30515,0 0.30585,-0.47413 0,-0.47413"
       style="fill:#924a30;fill-opacity:1;fill-rule:nonzero;stroke:none;stroke-width:0.0352778"
       id="path2308" />
    <path
       d="m 151.32792,203.65208 c -0.133,0 -0.26035,0.11712 -0.25436,0.25435 0.006,0.13759 0.11183,0.254 0.25436,0.254 0.13299,0 0.26035,-0.11677 0.25435,-0.254 -0.006,-0.13793 -0.11183,-0.25435 -0.25435,-0.25435"
       style="fill:#924a30;fill-opacity:1;fill-rule:nonzero;stroke:none;stroke-width:0.0352778"
       id="path2310" />
    <path
       d="m 146.88574,209.86803 c -0.35348,-0.32985 -0.81174,-0.60396 -1.07174,-0.75177 -0.65617,-0.37218 -1.40406,-0.24483 -2.1149,-0.16898 -1.08444,0.115 -2.24861,0.54892 -1.62701,1.84714 0.41486,0.86783 1.34514,0.94509 2.1978,0.87912 0.5521,-0.0423 1.10525,-0.0702 1.657,-0.11747 0.48366,-0.0416 1.0287,-0.0275 1.32997,-0.47731 0.29775,-0.44485 -0.0423,-0.90452 -0.37112,-1.21073"
       style="fill:#a25a3f;fill-opacity:1;fill-rule:nonzero;stroke:none;stroke-width:0.0352778"
       id="path2312" />
    <path
       d="m 146.33223,209.70293 -0.005,-0.007 c -0.0677,-0.0896 -0.1644,-0.14675 -0.28117,-0.1143 -0.1016,0.0279 -0.18767,0.13159 -0.18273,0.23989 0.004,0.10019 0.0596,0.18803 0.15275,0.22754 0.12382,0.0522 0.23495,-0.001 0.31115,-0.1016 l 0.005,-0.007 c 0.0448,-0.0593 0.0448,-0.1778 0,-0.23742"
       style="fill:#924a30;fill-opacity:1;fill-rule:nonzero;stroke:none;stroke-width:0.0352778"
       id="path2314" />
    <path
       d="m 146.17948,210.44693 c -0.24801,0 -0.24836,0.38559 0,0.38559 0.24835,0 0.24871,-0.38559 0,-0.38559"
       style="fill:#924a30;fill-opacity:1;fill-rule:nonzero;stroke:none;stroke-width:0.0352778"
       id="path2316" />
    <path
       d="m 146.75909,210.3478 c -0.29422,0 -0.29492,0.4572 0,0.4572 0.29422,0 0.29492,-0.4572 0,-0.4572"
       style="fill:#924a30;fill-opacity:1;fill-rule:nonzero;stroke:none;stroke-width:0.0352778"
       id="path2318" />
    <path
       d="m 145.32999,209.1921 -0.0134,0.002 c -0.13934,0.0265 -0.1397,0.25506 0,0.28152 l 0.0134,0.002 c 0.0938,0.0176 0.18803,-0.0416 0.18803,-0.14323 0,-0.10125 -0.0942,-0.16122 -0.18803,-0.14323"
       style="fill:#924a30;fill-opacity:1;fill-rule:nonzero;stroke:none;stroke-width:0.0352778"
       id="path2320" />
    <path
       d="m 145.17688,210.93412 -0.0138,0.002 c -0.13899,0.0268 -0.13899,0.25506 0,0.28151 l 0.0138,0.002 c 0.0938,0.018 0.18839,-0.0413 0.18839,-0.14287 0,-0.10125 -0.0945,-0.16122 -0.18839,-0.14323"
       style="fill:#924a30;fill-opacity:1;fill-rule:nonzero;stroke:none;stroke-width:0.0352778"
       id="path2322" />
    <path
       d="m 145.66901,210.13367 -0.01,0.002 c -0.10301,0.0198 -0.10301,0.18874 0,0.20814 l 0.01,0.002 c 0.0691,0.0131 0.13899,-0.0307 0.13899,-0.10619 0,-0.0748 -0.0695,-0.11924 -0.13899,-0.10583"
       style="fill:#924a30;fill-opacity:1;fill-rule:nonzero;stroke:none;stroke-width:0.0352778"
       id="path2324" />
    <path
       d="m 144.59304,209.08486 -0.0169,0.002 c -0.11218,0.0145 -0.22295,0.0896 -0.21731,0.21731 0.006,0.13052 0.0963,0.20179 0.21731,0.21731 l 0.0169,0.002 c 0.11394,0.0145 0.22436,-0.11147 0.21942,-0.21942 -0.005,-0.10619 -0.0974,-0.23531 -0.21942,-0.21943"
       style="fill:#924a30;fill-opacity:1;fill-rule:nonzero;stroke:none;stroke-width:0.0352778"
       id="path2326" />
    <path
       d="m 138.17848,208.70703 c -0.24342,-0.18591 -0.54363,-0.29386 -0.84244,-0.36971 -0.73307,-0.18556 -1.4097,-0.31432 -2.17029,-0.23953 -0.48507,0.048 -0.97049,0.1658 -1.391,0.41239 -0.42016,0.24695 -0.77152,0.63218 -0.91193,1.09926 -0.23707,0.7874 0.46496,0.89852 1.06998,0.97649 0.73413,0.0949 1.47284,0.18979 2.21297,0.15734 0.87948,-0.0388 3.4731,-0.62195 2.16535,-1.92052 -0.042,-0.0416 -0.0864,-0.0801 -0.13264,-0.11572"
       style="fill:#a25a3f;fill-opacity:1;fill-rule:nonzero;stroke:none;stroke-width:0.0352778"
       id="path2328" />
    <path
       d="m 137.25067,208.93422 c -0.16792,0 -0.16792,0.26035 0,0.26035 0.16722,0 0.16757,-0.26035 0,-0.26035"
       style="fill:#924a30;fill-opacity:1;fill-rule:nonzero;stroke:none;stroke-width:0.0352778"
       id="path2330" />
    <path
       d="m 136.72186,210.10933 c -0.16792,0 -0.16792,0.26035 0,0.26035 0.16721,0 0.16757,-0.26035 0,-0.26035"
       style="fill:#924a30;fill-opacity:1;fill-rule:nonzero;stroke:none;stroke-width:0.0352778"
       id="path2332" />
    <path
       d="m 135.54323,208.24666 -0.0272,-0.008 c -0.11641,-0.0367 -0.27234,0.0229 -0.32879,0.13406 -0.0519,0.10125 -0.0519,0.19261 0,0.29386 0.0561,0.11007 0.21167,0.17075 0.32879,0.13406 l 0.0272,-0.009 c 0.26775,-0.0843 0.26846,-0.46002 0,-0.54469"
       style="fill:#924a30;fill-opacity:1;fill-rule:nonzero;stroke:none;stroke-width:0.0352778"
       id="path2334" />
    <path
       d="m 136.47668,208.43081 c -0.32632,0 -0.32632,0.50694 0,0.50694 0.32632,0 0.32667,-0.50694 0,-0.50694"
       style="fill:#924a30;fill-opacity:1;fill-rule:nonzero;stroke:none;stroke-width:0.0352778"
       id="path2336" />
    <path
       d="m 137.12473,209.54312 c -0.2226,0 -0.22296,0.34572 0,0.34572 0.22225,0 0.2226,-0.34572 0,-0.34572"
       style="fill:#924a30;fill-opacity:1;fill-rule:nonzero;stroke:none;stroke-width:0.0352778"
       id="path2338" />
    <path
       d="m 137.97457,208.91059 c -0.2219,0 -0.22225,0.34607 0,0.34607 0.2226,0 0.22296,-0.34607 0,-0.34607"
       style="fill:#924a30;fill-opacity:1;fill-rule:nonzero;stroke:none;stroke-width:0.0352778"
       id="path2340" />
    <path
       d="m 135.91117,210.17494 c -0.2226,0 -0.22295,0.34572 0,0.34572 0.22261,0 0.22296,-0.34572 0,-0.34572"
       style="fill:#924a30;fill-opacity:1;fill-rule:nonzero;stroke:none;stroke-width:0.0352778"
       id="path2342" />
    <path
       d="m 138.14179,209.54312 c -0.2226,0 -0.22296,0.34572 0,0.34572 0.22225,0 0.22295,-0.34572 0,-0.34572"
       style="fill:#924a30;fill-opacity:1;fill-rule:nonzero;stroke:none;stroke-width:0.0352778"
       id="path2344" />
    <path
       d="m 145.48874,204.67055 c -0.11113,-0.0963 -0.22578,-0.17745 -0.33937,-0.22966 -0.0981,-0.0448 -0.19333,-0.0681 -0.28893,-0.0825 -0.39546,-0.0593 -0.78775,-0.27763 -1.19274,-0.34854 -0.44838,-0.0783 -0.91123,-0.1009 -1.36102,-0.0219 -0.38064,0.0667 -0.73801,0.22436 -1.11689,0.29739 -0.38135,0.073 -0.76765,0.0815 -1.13242,0.2293 -0.21131,0.085 -0.38029,0.15311 -0.5468,0.31574 -0.0526,0.0511 -0.10513,0.10266 -0.15734,0.15381 -0.24871,0.24271 -0.84879,0.64417 -0.82903,1.02376 0.002,0.0483 0.0187,0.0921 0.0413,0.13335 0.0466,1.46368 2.49203,0.92428 3.35069,1.08303 1.14441,0.21167 3.42406,0.62935 4.3247,-0.38912 0.72214,-0.81668 -0.007,-1.71873 -0.75212,-2.16464"
       style="fill:#a25a3f;fill-opacity:1;fill-rule:nonzero;stroke:none;stroke-width:0.0352778"
       id="path2346" />
    <path
       d="m 140.15333,205.07272 c -0.0988,-0.091 -0.23778,-0.0893 -0.3362,0 l -0.0201,0.018 c -0.0928,0.084 -0.0917,0.254 0,0.33831 0.0914,0.0836 0.24871,0.0988 0.33832,0 l 0.018,-0.0201 c 0.0832,-0.0921 0.0981,-0.24623 0,-0.33619"
       style="fill:#924a30;fill-opacity:1;fill-rule:nonzero;stroke:none;stroke-width:0.0352778"
       id="path2348" />
    <path
       d="m 141.48189,204.61305 -0.009,-0.0166 c -0.0917,-0.17075 -0.36019,-0.17075 -0.45191,0 l -0.009,0.0166 c -0.0974,0.17991 0.0233,0.40957 0.23495,0.40957 0.21166,0 0.33196,-0.22966 0.23495,-0.40957"
       style="fill:#924a30;fill-opacity:1;fill-rule:nonzero;stroke:none;stroke-width:0.0352778"
       id="path2350" />
    <path
       d="m 140.59007,204.57283 c -0.22225,0 -0.22261,0.34572 0,0.34572 0.22225,0 0.2226,-0.34572 0,-0.34572"
       style="fill:#924a30;fill-opacity:1;fill-rule:nonzero;stroke:none;stroke-width:0.0352778"
       id="path2352" />
    <path
       d="m 145.0012,204.90832 c -0.15381,0 -0.30092,0.13512 -0.29422,0.29387 0.007,0.1598 0.12947,0.29421 0.29422,0.29421 0.15381,0 0.30127,-0.13511 0.29386,-0.29421 -0.007,-0.15911 -0.12911,-0.29387 -0.29386,-0.29387"
       style="fill:#924a30;fill-opacity:1;fill-rule:nonzero;stroke:none;stroke-width:0.0352778"
       id="path2354" />
    <path
       d="m 143.51847,205.21206 0.004,0.002 -0.004,-0.002"
       style="fill:#924a30;fill-opacity:1;fill-rule:nonzero;stroke:none;stroke-width:0.0352778"
       id="path2356" />
    <path
       d="m 144.21944,205.1655 -0.006,-0.0141 -0.061,-0.0631 c -0.11854,-0.10407 -0.34149,-0.0346 -0.33162,0.14217 0.002,0.0473 0.01,0.0885 0.0371,0.12912 0.0582,0.0861 0.18591,0.14111 0.28187,0.0737 l 0.0183,-0.0117 c 0.0878,-0.0543 0.11571,-0.17145 0.0614,-0.25611"
       style="fill:#924a30;fill-opacity:1;fill-rule:nonzero;stroke:none;stroke-width:0.0352778"
       id="path2358" />
    <path
       d="m 145.51802,206.00793 c -0.27658,0 -0.27693,0.42968 0,0.42968 0.27658,0 0.27693,-0.42968 0,-0.42968"
       style="fill:#924a30;fill-opacity:1;fill-rule:nonzero;stroke:none;stroke-width:0.0352778"
       id="path2360" />
    <path
       d="m 145.65525,205.37187 c -0.27658,0 -0.27693,0.43004 0,0.43004 0.27622,0 0.27693,-0.43004 0,-0.43004"
       style="fill:#924a30;fill-opacity:1;fill-rule:nonzero;stroke:none;stroke-width:0.0352778"
       id="path2362" />
    <path
       d="m 144.51366,204.58518 c -0.20602,0 -0.20637,0.32067 0,0.32067 0.20602,0 0.20638,-0.32067 0,-0.32067"
       style="fill:#924a30;fill-opacity:1;fill-rule:nonzero;stroke:none;stroke-width:0.0352778"
       id="path2364" />
    <path
       d="m 144.41135,206.85636 c -0.20602,0 -0.20602,0.32032 0,0.32032 0.20603,0 0.20638,-0.32032 0,-0.32032"
       style="fill:#924a30;fill-opacity:1;fill-rule:nonzero;stroke:none;stroke-width:0.0352778"
       id="path2366" />
    <path
       d="m 145.0012,206.27745 c -0.20602,0 -0.20673,0.32068 0,0.32068 0.20602,0 0.20637,-0.32068 0,-0.32068"
       style="fill:#924a30;fill-opacity:1;fill-rule:nonzero;stroke:none;stroke-width:0.0352778"
       id="path2368" />
  </g>
</svg>
