<?xml version="1.0" encoding="UTF-8" standalone="no"?>
<svg
   xmlns:dc="http://purl.org/dc/elements/1.1/"
   xmlns:cc="http://creativecommons.org/ns#"
   xmlns:rdf="http://www.w3.org/1999/02/22-rdf-syntax-ns#"
   xmlns:svg="http://www.w3.org/2000/svg"
   xmlns="http://www.w3.org/2000/svg"
   xmlns:sodipodi="http://sodipodi.sourceforge.net/DTD/sodipodi-0.dtd"
   xmlns:inkscape="http://www.inkscape.org/namespaces/inkscape"
   width="210mm"
   height="297mm"
   viewBox="0 0 210 297"
   version="1.1"
   id="svg10566"
   inkscape:version="1.0.2 (e86c8708, 2021-01-15)"
   sodipodi:docname="sea_shell.svg">
  <defs
     id="defs10560" />
  <sodipodi:namedview
     id="base"
     pagecolor="#ffffff"
     bordercolor="#666666"
     borderopacity="1.0"
     inkscape:pageopacity="0.0"
     inkscape:pageshadow="2"
     inkscape:zoom="0.35"
     inkscape:cx="400"
     inkscape:cy="560"
     inkscape:document-units="mm"
     inkscape:current-layer="layer1"
     inkscape:document-rotation="0"
     showgrid="false"
     inkscape:window-width="1252"
     inkscape:window-height="1005"
     inkscape:window-x="0"
     inkscape:window-y="23"
     inkscape:window-maximized="0" />
  <metadata
     id="metadata10563">
    <rdf:RDF>
      <cc:Work
         rdf:about="">
        <dc:format>image/svg+xml</dc:format>
        <dc:type
           rdf:resource="http://purl.org/dc/dcmitype/StillImage" />
        <dc:title></dc:title>
      </cc:Work>
    </rdf:RDF>
  </metadata>
  <g
     inkscape:label="Layer 1"
     inkscape:groupmode="layer"
     id="layer1">
    <path
       d="m 119.64628,149.55589 c 0,0.18274 0.0543,0.6441 -0.60854,2.28205 -0.52564,1.29865 -1.44533,3.38321 -4.97099,4.2733 -1.44533,1.65171 -4.35787,2.56604 -6.85447,2.45636 -1.86126,0.73159 -5.32131,0.63994 -6.65727,-0.0731 -2.014719,0.53026 -4.970997,-0.36587 -6.197252,-1.90183 -3.285067,-0.85975 -4.336345,-5.50442 -3.941587,-6.60149 l 29.230109,-0.43533"
       style="fill:#95aab9;fill-opacity:1;fill-rule:nonzero;stroke:none;stroke-width:0.0352778"
       id="path434" />
    <path
       d="m 90.395358,151.31029 c -0.07973,-0.28018 -0.1016,-0.54861 -0.08185,-0.80257 0.0053,0.0677 0.01376,0.13642 0.02575,0.20602 0.0056,0.18094 0.02434,0.38128 0.05609,0.59655 m 29.191302,-1.13923 c 7.1e-4,-0.003 10e-4,-0.007 0.002,-0.0102 0.0201,-0.0176 0.0395,-0.0346 0.0575,-0.05 v 0 c 0,0 -0.0205,0.0211 -0.0596,0.0602"
       style="fill:#d0dcdf;fill-opacity:1;fill-rule:nonzero;stroke:none;stroke-width:0.0352778"
       id="path436" />
    <path
       d="m 101.93084,156.50343 c -0.20885,0 -0.42651,-0.01 -0.65299,-0.0317 -1.982614,-0.19085 -2.695578,-0.90413 -2.951695,-1.37622 -0.02752,-0.0659 -0.0508,-0.1174 -0.07161,-0.15201 -0.06738,-0.16965 -0.07161,-0.28222 -0.07161,-0.28222 0,0 -0.710848,0.49431 -1.772003,0.49431 -0.397934,0 -0.845609,-0.0696 -1.32327,-0.26074 -1.751894,-0.70058 -1.576917,-2.04403 -1.576917,-2.04403 0,0 -0.380294,0.11959 -0.883003,0.11959 -0.662869,0 -1.538463,-0.2074 -2.036586,-1.17048 -0.08608,-0.16648 -0.150283,-0.32992 -0.195791,-0.48962 -0.03175,-0.21527 -0.05045,-0.41561 -0.05609,-0.59655 0.04057,0.23633 0.121003,0.48257 0.251883,0.73586 0.498123,0.96312 1.373717,1.17052 2.036234,1.17052 0.503061,0 0.883355,-0.11963 0.883355,-0.11963 0,0 -0.174977,1.34345 1.576917,2.04403 0.477661,0.19114 0.924983,0.26074 1.32327,0.26074 1.061155,0 1.772003,-0.49431 1.772003,-0.49431 0,0 0.05821,1.51832 3.094923,1.81049 0.22648,0.0219 0.44414,0.0317 0.65334,0.0317 2.59257,0 3.84316,-1.55 3.84316,-1.55 0,0 0.46849,0.79332 1.83092,0.79304 0.37147,0 0.80962,-0.059 1.32256,-0.20891 2.39431,-0.70129 3.50379,-2.7449 3.50379,-2.7449 0,0 -0.0466,0.92287 1.37866,0.92287 0.17815,0 0.37959,-0.0145 0.60678,-0.047 1.70391,-0.24338 4.34128,-2.43487 5.17172,-3.15736 -7.1e-4,0.004 -0.001,0.007 -0.002,0.0102 -0.44626,0.44662 -3.29036,3.22901 -5.1696,3.49744 -0.22719,0.0325 -0.42828,0.047 -0.60678,0.047 -1.42487,0 -1.37866,-0.92286 -1.37866,-0.92286 0,0 -1.10948,2.04392 -3.50379,2.74493 -0.51294,0.14993 -0.95109,0.20891 -1.32256,0.20919 -1.36243,0 -1.83092,-0.79336 -1.83092,-0.79336 0,0 -1.25059,1.55004 -3.84351,1.55004"
       style="fill:#758fa1;fill-opacity:1;fill-rule:nonzero;stroke:none;stroke-width:0.0352778"
       id="path438" />
    <path
       d="m 91.525305,147.94581 c 2.803525,-2.97822 4.822825,-5.4974 11.483975,-8.05466 6.5405,-2.51103 11.34922,-0.2377 13.15967,1.3388 1.81046,1.57688 3.67912,8.70133 3.67912,8.70133 0,0 -3.38702,3.09478 -5.43101,3.38695 -2.044,0.29214 -1.98544,-0.87588 -1.98544,-0.87588 0,0 -1.10948,2.04361 -3.50379,2.7449 -2.3943,0.70061 -3.15348,-0.58413 -3.15348,-0.58413 0,0 -1.46014,1.81003 -4.4965,1.51832 -3.036714,-0.29217 -3.094922,-1.81049 -3.094922,-1.81049 0,0 -1.343378,0.93447 -3.095273,0.23357 -1.751894,-0.70058 -1.576917,-2.04403 -1.576917,-2.04403 0,0 -2.043641,0.64273 -2.919589,-1.05089 -0.875947,-1.69376 0.512939,-3.05608 0.934156,-3.50379"
       style="fill:#abc5d0;fill-opacity:1;fill-rule:nonzero;stroke:none;stroke-width:0.0352778"
       id="path440" />
    <path
       d="m 92.707463,152.11946 c -0.0025,0 -0.0049,-6.7e-4 -0.0071,-0.002 -0.04939,-0.0256 0.0762,-0.38968 0.36195,-1.02126 0.289278,-0.62936 0.72778,-1.53236 1.387475,-2.59539 0.332317,-0.52698 0.729897,-1.10313 1.21038,-1.6608 0.464962,-0.5624 0.98672,-1.14625 1.556456,-1.74269 1.140178,-1.18854 2.529417,-2.4088 4.201586,-3.37894 0.83396,-0.48479 1.69404,-0.87919 2.54706,-1.18883 0.42579,-0.15462 0.85196,-0.29503 1.26788,-0.40791 0.41593,-0.1185 0.82374,-0.23206 1.22873,-0.32026 1.41499,-0.3394 2.74919,-0.4936 3.90772,-0.4936 0.15945,0 0.31538,0.003 0.46778,0.009 1.2633,0.0518 2.26519,0.30512 2.92206,0.5376 0.65793,0.23495 0.99907,0.40072 0.98637,0.45336 -0.004,0.0145 -0.0307,0.0215 -0.0794,0.0215 -0.1457,0 -0.48824,-0.0624 -0.99094,-0.16401 -0.62337,-0.12347 -1.50602,-0.26568 -2.59646,-0.26568 -0.0815,0 -0.16404,0.001 -0.248,0.002 -1.20438,0.0285 -2.63596,0.22575 -4.18677,0.64026 -0.38946,0.0952 -0.78351,0.21414 -1.18568,0.33803 -0.40534,0.11779 -0.80504,0.25672 -1.21074,0.40982 -0.80962,0.30551 -1.62242,0.68446 -2.41441,1.14487 -1.58644,0.91998 -2.932635,2.06788 -4.074224,3.19924 -0.570441,0.56695 -1.100666,1.1212 -1.58115,1.6571 -0.487891,0.52106 -0.885825,1.0407 -1.241778,1.53554 -0.702733,0.99208 -1.217083,1.84548 -1.591027,2.4233 -0.3556,0.55767 -0.575028,0.86953 -0.637823,0.86953"
       style="fill:#8caab7;fill-opacity:1;fill-rule:nonzero;stroke:none;stroke-width:0.0352778"
       id="path442" />
    <path
       d="m 98.009714,153.14639 c -0.0035,0 -0.0067,-2.8e-4 -0.0095,-0.002 -0.08819,-0.0375 0.29845,-1.25913 1.362427,-3.01709 1.053389,-1.75645 2.792589,-4.03709 5.166069,-6.10154 0.5969,-0.514 1.1931,-0.98887 1.81857,-1.41429 0.63148,-0.42305 1.27812,-0.75431 1.90677,-1.03046 1.25977,-0.54998 2.45357,-0.87136 3.4671,-1.06042 0.89641,-0.16661 1.64853,-0.22048 2.20839,-0.22048 0.71261,0 1.11442,0.0873 1.10807,0.14277 -0.002,0.12911 -1.25694,0.13945 -3.18911,0.64875 -0.96273,0.25482 -2.09726,0.62276 -3.27836,1.18361 -0.58914,0.28085 -1.19133,0.60854 -1.76566,1.00612 -0.57467,0.40319 -1.15852,0.87422 -1.73319,1.3692 -2.30153,2.00202 -4.06506,4.16098 -5.218287,5.79646 -1.135592,1.59561 -1.705328,2.69903 -1.843264,2.69903"
       style="fill:#8caab7;fill-opacity:1;fill-rule:nonzero;stroke:none;stroke-width:0.0352778"
       id="path444" />
    <path
       d="m 105.62901,154.27278 c -0.10372,0 -0.2353,-1.0353 0.0568,-2.65452 0.14146,-0.81001 0.37782,-1.76223 0.73272,-2.79121 0.18097,-0.5129 0.38488,-1.04771 0.63605,-1.58817 0.24695,-0.54187 0.52988,-1.09361 0.88653,-1.6334 0.1771,-0.26913 0.37501,-0.53481 0.57538,-0.76591 0.19474,-0.24197 0.40358,-0.46454 0.60996,-0.68118 0.41486,-0.43187 0.84243,-0.81883 1.26753,-1.16346 0.85055,-0.68972 1.68345,-1.21955 2.41617,-1.60158 0.73343,-0.381 1.37125,-0.61143 1.83586,-0.701 0.15875,-0.0325 0.2988,-0.0445 0.41204,-0.0445 0.0515,0 0.0974,0.002 0.13688,0.007 0.13265,0.0276 0.19156,0.0564 0.18733,0.0846 -0.004,0.0278 -0.0702,0.0561 -0.17604,0.0819 -0.10866,0.0395 -0.26635,0.0902 -0.46708,0.17956 -0.40075,0.17388 -0.96978,0.47057 -1.63653,0.89958 -0.66534,0.42965 -1.43087,0.9875 -2.2158,1.67637 -0.39229,0.3448 -0.7874,0.7239 -1.17122,1.1388 -0.38312,0.41384 -0.76412,0.86431 -1.08303,1.34553 -0.32456,0.49004 -0.59937,1.01064 -0.8442,1.52259 -0.24906,0.51015 -0.46037,1.01949 -0.65405,1.50745 -0.3817,0.97992 -0.66816,1.88557 -0.87736,2.65423 -0.42756,1.53748 -0.50235,2.52734 -0.62688,2.52759 -3.6e-4,0 -7.1e-4,0 -0.001,0"
       style="fill:#8caab7;fill-opacity:1;fill-rule:nonzero;stroke:none;stroke-width:0.0352778"
       id="path446" />
    <path
       d="m 112.45914,152.27299 c -0.008,0 -0.0145,-0.002 -0.0194,-0.006 -0.0998,-0.0719 0.21696,-0.6459 0.56479,-1.62913 0.3616,-0.97645 0.71191,-2.38894 1.13983,-3.95704 0.39017,-1.5325 0.59231,-2.99297 0.78317,-4.03722 0.18203,-1.04179 0.32914,-1.69087 0.4445,-1.69087 7e-4,0 0.001,0 0.002,0 0.11183,0.009 0.17039,0.67593 0.13546,1.75151 -0.0448,1.0746 -0.15205,2.56053 -0.5655,4.18825 -0.22049,0.79583 -0.43392,1.53349 -0.66534,2.21548 -0.23283,0.67758 -0.48189,1.28048 -0.73872,1.76554 -0.48013,0.9197 -0.95744,1.39955 -1.08126,1.39955"
       style="fill:#8caab7;fill-opacity:1;fill-rule:nonzero;stroke:none;stroke-width:0.0352778"
       id="path448" />
    <path
       d="m 100.36098,158.44797 c -0.0275,0 -0.0607,-0.005 -0.0977,-0.0172 -0.10972,-0.0335 -0.25153,-0.1137 -0.407813,-0.23566 -0.313972,-0.2431 -0.686153,-0.65444 -1.021644,-1.16388 -0.347487,-0.52423 -0.526698,-1.0771 -0.607484,-1.47493 -0.08114,-0.40072 -0.07338,-0.65444 -0.02575,-0.66326 0.0011,0 0.0021,0 0.0035,0 0.01411,0 0.03105,0.0176 0.05045,0.0504 0.0187,0.047 0.04198,0.0977 0.07161,0.15201 0.04057,0.0985 0.08996,0.22931 0.148873,0.38322 0.1397,0.36008 0.341841,0.8508 0.655813,1.3232 0.320675,0.48645 0.640645,0.90068 0.889345,1.17754 0.12383,0.13875 0.22931,0.24306 0.30339,0.31087 0.0744,0.0687 0.11571,0.0907 0.1203,0.11991 0.004,0.0187 -0.0286,0.0377 -0.0829,0.0377"
       style="fill:#7a94a5;fill-opacity:1;fill-rule:nonzero;stroke:none;stroke-width:0.0352778"
       id="path450" />
    <path
       d="m 98.326155,155.09549 c -0.02963,-0.0543 -0.05292,-0.10502 -0.07161,-0.15201 0.02081,0.0346 0.0441,0.0861 0.07161,0.15201"
       style="fill:#607c91;fill-opacity:1;fill-rule:nonzero;stroke:none;stroke-width:0.0352778"
       id="path452" />
    <path
       d="m 94.339766,156.50343 c -0.04692,0 -0.178153,-0.12803 -0.328436,-0.37677 -0.170744,-0.27753 -0.360186,-0.70238 -0.509764,-1.2029 -0.147461,-0.5013 -0.221192,-0.9857 -0.218017,-1.33915 -3.52e-4,-0.34438 0.06632,-0.5468 0.105128,-0.5468 0.0014,0 0.0028,0 0.0039,6.7e-4 0.0448,0.0145 0.05362,0.21801 0.106891,0.53439 0.04974,0.3175 0.14852,0.75117 0.286456,1.22205 0.140406,0.46966 0.288925,0.88692 0.404636,1.18333 0.113242,0.29767 0.194028,0.4797 0.162983,0.51883 -0.0032,0.004 -0.0078,0.006 -0.01376,0.006"
       style="fill:#7a94a5;fill-opacity:1;fill-rule:nonzero;stroke:none;stroke-width:0.0352778"
       id="path454" />
    <path
       d="m 107.28142,158.5556 c -0.0434,0 -0.17886,-0.12664 -0.36513,-0.35415 -0.20849,-0.25439 -0.48048,-0.64107 -0.7313,-1.12959 -0.12383,-0.24529 -0.22755,-0.49361 -0.30798,-0.72718 -0.0751,-0.23661 -0.1337,-0.45505 -0.15698,-0.6434 -0.0533,-0.36767 -0.0173,-0.58459 0.0162,-0.58459 7.1e-4,0 10e-4,4.2e-4 0.002,4.2e-4 0.0427,0.009 0.0744,0.22642 0.16898,0.55203 0.0434,0.1633 0.11395,0.35278 0.19297,0.5599 0.0847,0.20563 0.18521,0.42749 0.30021,0.65609 0.2339,0.45477 0.47202,0.84984 0.64347,1.1424 0.1711,0.2927 0.2734,0.48535 0.24941,0.52243 -0.002,0.004 -0.007,0.006 -0.012,0.006"
       style="fill:#7a94a5;fill-opacity:1;fill-rule:nonzero;stroke:none;stroke-width:0.0352778"
       id="path456" />
    <path
       d="m 113.92916,156.04838 c -0.073,0 -0.22048,-0.0502 -0.40251,-0.18697 -0.25295,-0.18729 -0.55563,-0.53937 -0.79446,-0.99868 -0.24483,-0.45614 -0.37112,-0.92964 -0.41099,-1.27208 -0.0388,-0.34259 0.002,-0.55009 0.0437,-0.55009 3.5e-4,0 7e-4,0 10e-4,0 0.049,0.003 0.0907,0.20323 0.18132,0.50447 0.0924,0.30099 0.23672,0.70845 0.45791,1.12159 0.21625,0.41522 0.45932,0.75353 0.65193,0.97292 0.19121,0.22158 0.33444,0.33059 0.32103,0.38693 -0.003,0.0142 -0.0201,0.0219 -0.049,0.0219"
       style="fill:#7a94a5;fill-opacity:1;fill-rule:nonzero;stroke:none;stroke-width:0.0352778"
       id="path458" />
  </g>
</svg>
