<?xml version="1.0" encoding="UTF-8" standalone="no"?>
<svg
   xmlns:dc="http://purl.org/dc/elements/1.1/"
   xmlns:cc="http://creativecommons.org/ns#"
   xmlns:rdf="http://www.w3.org/1999/02/22-rdf-syntax-ns#"
   xmlns:svg="http://www.w3.org/2000/svg"
   xmlns="http://www.w3.org/2000/svg"
   xmlns:sodipodi="http://sodipodi.sourceforge.net/DTD/sodipodi-0.dtd"
   xmlns:inkscape="http://www.inkscape.org/namespaces/inkscape"
   width="210mm"
   height="297mm"
   viewBox="0 0 210 297"
   version="1.1"
   id="svg9448"
   inkscape:version="1.0.2 (e86c8708, 2021-01-15)"
   sodipodi:docname="sea_plant2.svg">
  <defs
     id="defs9442" />
  <sodipodi:namedview
     id="base"
     pagecolor="#ffffff"
     bordercolor="#666666"
     borderopacity="1.0"
     inkscape:pageopacity="0.0"
     inkscape:pageshadow="2"
     inkscape:zoom="0.35"
     inkscape:cx="400"
     inkscape:cy="560"
     inkscape:document-units="mm"
     inkscape:current-layer="layer1"
     inkscape:document-rotation="0"
     showgrid="false"
     inkscape:window-width="1252"
     inkscape:window-height="1005"
     inkscape:window-x="0"
     inkscape:window-y="23"
     inkscape:window-maximized="0" />
  <metadata
     id="metadata9445">
    <rdf:RDF>
      <cc:Work
         rdf:about="">
        <dc:format>image/svg+xml</dc:format>
        <dc:type
           rdf:resource="http://purl.org/dc/dcmitype/StillImage" />
        <dc:title></dc:title>
      </cc:Work>
    </rdf:RDF>
  </metadata>
  <g
     inkscape:label="Layer 1"
     inkscape:groupmode="layer"
     id="layer1">
    <path
       d="m 82.792981,161.05316 c 0.16951,0.0363 0.343958,0.0444 0.500345,0.003 l 0.05747,0.0755 c -0.178717,-0.0167 -0.368053,-0.0424 -0.557812,-0.0787 z m 12.0154,-3.55893 0.058,0.028 -0.06241,-0.0187 z m 11.751349,-5.60694 c -0.58667,0.80916 -1.31128,1.6608 -2.16429,1.06355 0.82197,-0.54927 1.45591,-1.6655 1.74025,-2.53143 0.0617,-0.1888 -0.18733,-0.32702 -0.31292,-0.19089 -0.63217,0.68256 -0.93733,1.66536 -1.65135,2.24582 0.2787,-0.89189 0.36901,-1.92239 0.5962,-2.7693 0.0529,-0.19763 -0.22896,-0.3313 -0.32244,-0.14224 -0.26882,0.54324 -0.40676,1.13524 -0.53658,1.72903 -0.1143,0.52201 -0.26,1.04885 -0.36406,1.5765 l -0.0141,-9.9e-4 -0.0522,0.008 c -0.81456,-1.10561 -0.55174,-2.84829 -0.17074,-4.08591 0.0596,-0.19403 -0.21802,-0.3139 -0.31221,-0.13822 -0.59196,1.09954 -0.8636,3.1943 -0.0258,4.30982 -0.16969,0.0201 -0.33937,0.0212 -0.50518,-0.0314 -0.39017,-0.12418 -0.5207,-0.50369 -0.61666,-0.88265 -0.0473,-0.18588 -0.33267,-0.1524 -0.32526,0.0462 0.0194,0.51167 0.18133,1.05241 0.64453,1.30073 0.3436,0.1845 0.77646,0.16506 1.1564,0.0497 -1.1123,1.35184 -1.87325,3.00605 -2.5848,4.68066 -0.32808,-0.64453 -0.32279,-1.57375 0.10231,-2.14521 0.10724,-0.14401 0.0102,-0.33761 -0.16863,-0.30371 -0.706968,0.13296 -0.817035,1.21211 -0.62301,2.03867 -0.120294,-0.15699 -0.226481,-0.32992 -0.321378,-0.52462 -0.223308,-0.46041 -0.305153,-0.96657 -0.503766,-1.4333 -0.07726,-0.18274 -0.325614,-0.0737 -0.333728,0.0945 -0.04445,0.92329 0.548216,2.21259 1.367722,2.74782 -0.282578,0.28745 -0.8696,-0.21484 -1.072447,-0.43187 -0.117122,-0.12513 -0.313267,0.004 -0.274109,0.16687 0.09772,0.41204 0.510117,0.71095 0.884414,0.81072 0.193323,0.0515 0.369712,0.0406 0.520702,-0.0222 -0.377827,0.89503 -0.760591,1.77863 -1.195213,2.60628 -0.427566,0.81496 -0.903111,1.57413 -1.420283,2.29055 0.139347,-0.51219 0.358422,-0.99508 0.470253,-1.51789 0.03492,-0.16207 -0.175331,-0.33306 -0.292453,-0.17858 -0.336197,0.44344 -0.530931,1.01007 -0.601134,1.58182 -0.04515,-0.11712 -0.08572,-0.23675 -0.113594,-0.36297 -0.06879,-0.31045 -0.06174,-0.6332 -0.137936,-0.94008 -0.04904,-0.19763 -0.321381,-0.18948 -0.374297,0 -0.151342,0.54183 -0.04727,1.15107 0.19685,1.66398 -0.209903,-0.0258 -0.418395,-0.0642 -0.620184,-0.14566 -0.620571,-0.25122 -0.777804,-0.81111 -0.777275,-1.46445 2.82e-4,-0.18864 -0.28441,-0.23993 -0.322192,-0.0459 -0.138324,0.71205 -0.02685,1.4369 0.601521,1.84728 0.279577,0.18232 0.62918,0.30082 0.98866,0.35553 -0.304447,0.21347 -0.637469,0.1506 -0.990459,0.21802 -0.175683,0.0328 -0.131586,0.2734 0,0.32851 0.305012,0.1276 0.676134,0.0744 0.984462,-0.0787 -0.890729,1.04976 -1.880306,2.00861 -2.945412,2.92378 -0.427849,-2.22609 -0.911684,-4.44362 -0.521582,-6.72002 0.09786,-0.5709 0.262113,-1.11164 0.464008,-1.63696 0.07867,0.32674 0.237702,0.60759 0.519219,0.78697 0.182456,0.11645 0.336797,-0.10431 0.267229,-0.26733 -0.230152,-0.53936 -0.332388,-1.05971 -0.319723,-1.59742 0.05235,-0.11038 0.105551,-0.22076 0.159597,-0.33087 0.192617,0.86322 0.669431,1.73715 1.639288,1.52686 0.211384,-0.0459 0.163054,-0.31542 0,-0.38213 -0.466302,-0.19043 -0.809872,-0.28606 -1.049373,-0.77156 -0.135608,-0.27478 -0.210009,-0.57559 -0.249555,-0.88042 1.01092,0.36904 2.031012,0.3569 2.759851,-0.57782 0.116064,-0.14894 -0.03739,-0.4276 -0.224719,-0.29143 -0.397581,0.28854 -0.794809,0.58346 -1.30302,0.62054 -0.243629,0.0172 -0.48701,-0.0176 -0.725946,-0.0742 0.819291,0.0868 1.572824,-0.84557 1.923838,-1.56062 0.100894,-0.20602 -0.140758,-0.39687 -0.315736,-0.24376 -0.310445,0.27199 -0.551392,0.60674 -0.853511,0.88646 -0.297109,0.2752 -0.560176,0.37747 -0.896126,0.33337 l 0.02618,-0.0532 c 1.151255,-2.37063 1.985222,-4.83983 2.320361,-7.45134 0.01693,0.0602 0.03422,0.12016 0.05327,0.17805 0.138642,0.42485 0.475545,1.20481 1.033992,1.1424 0.185914,-0.0208 0.272345,-0.21276 0.148872,-0.35955 -0.314678,-0.37497 -0.548922,-0.62438 -0.692855,-1.11869 -0.03598,-0.12415 -0.06879,-0.25577 -0.09631,-0.38982 0.03951,0.0388 0.07832,0.0787 0.118181,0.11229 0.589844,0.49706 1.293636,0.14912 1.533525,-0.52282 0.08184,-0.22902 -0.217311,-0.34301 -0.370769,-0.21565 -0.154517,0.12745 -0.359481,0.39726 -0.587023,0.36487 -0.19438,-0.028 -0.377472,-0.29213 -0.48013,-0.43434 -0.03951,-0.0543 -0.0762,-0.11218 -0.111831,-0.17141 0.993775,-0.0568 1.873956,-0.99522 2.361134,-1.7865 0.13018,-0.211 -0.14852,-0.37744 -0.317492,-0.24557 -0.589139,0.46013 -1.010708,1.00623 -1.617839,1.3251 l 0.04022,-0.0452 c 0.326672,-0.37673 0.629355,-0.83827 0.65793,-1.34937 0.01235,-0.22186 -0.290336,-0.27588 -0.397933,-0.10788 -0.23495,0.36752 -0.437092,0.74221 -0.728839,1.071 -0.04163,0.0466 -0.08502,0.09 -0.128764,0.13186 0.195086,-0.79195 0.261408,-1.65872 0.166864,-2.42383 -0.02328,-0.1881 -0.335845,-0.28084 -0.369711,-0.0502 -0.02822,0.19046 -0.05786,0.38213 -0.08855,0.57397 -0.144639,-2.40803 -0.608542,-4.77376 -1.164873,-7.12925 0.779286,0.52458 1.798814,0.80221 2.337506,-0.0843 0.113594,-0.18697 -0.124178,-0.45684 -0.316089,-0.31609 -0.731661,0.53728 -1.641475,0.0833 -2.220736,-0.50482 l 0.06421,-0.0734 c 0.302331,0.18521 0.609248,0.33091 1.022703,0.24942 0.593372,-0.11748 1.111603,-0.57362 1.417461,-1.0795 0.118181,-0.19615 -0.124883,-0.46179 -0.325614,-0.32527 -0.381352,0.2593 -0.744008,0.69533 -1.225902,0.74578 -0.159809,0.0166 -0.308328,-0.0194 -0.452614,-0.0797 0.09102,-0.10901 0.1778,-0.22084 0.254705,-0.34008 0.333375,-0.51823 0.568325,-1.22026 0.570442,-1.83515 7.06e-4,-0.23495 -0.365125,-0.36583 -0.471311,-0.12806 -0.244828,0.54998 -0.350309,1.17052 -0.686506,1.67746 -0.04445,0.0674 -0.09278,0.13194 -0.142169,0.19579 0.0021,-0.44273 0.0039,-0.88512 -0.07691,-1.32256 -0.03704,-0.19932 -0.366677,-0.19932 -0.403472,0 -0.02272,0.12276 -0.03856,0.24553 -0.05013,0.369 -0.514033,-2.03588 -1.026231,-4.07387 -1.392661,-6.1341 0.298908,0.3482 0.734624,0.65935 1.178101,0.43216 0.188913,-0.097 0.115605,-0.35313 -0.05443,-0.41628 -0.438926,-0.16263 -0.691797,-0.34537 -0.935707,-0.76623 -0.09066,-0.15593 -0.175437,-0.32385 -0.245992,-0.49707 0.385445,0.0787 0.833331,-0.0296 1.144764,-0.22401 0.594465,-0.37077 1.07068,-1.09291 1.207558,-1.77765 0.04339,-0.21696 -0.235303,-0.43533 -0.405694,-0.23636 -0.304271,0.35489 -0.483835,0.79975 -0.795797,1.14864 -0.189759,0.21202 -0.631013,0.51894 -0.99702,0.50624 0.375496,-0.30692 0.523804,-1.06116 0.512057,-1.48273 -0.0062,-0.22472 -0.295169,-0.29809 -0.414761,-0.11288 -0.141393,0.21978 -0.210855,0.49494 -0.312279,0.73413 -0.0598,0.1404 -0.116452,0.27728 -0.222673,0.36265 -0.03641,-0.32244 -0.0696,-0.64558 -0.09578,-0.96943 -0.163724,-2.03518 -0.188524,-4.08094 -0.0798,-6.11929 0.205176,0.45121 0.522429,0.83609 0.935567,1.03117 0.176495,0.0829 0.435433,-0.10265 0.297638,-0.29774 -0.371792,-0.52776 -0.821443,-1.07738 -0.946432,-1.70886 0.27933,0.36266 0.66354,0.65829 1.023867,0.77753 0.196674,0.0653 0.334187,-0.20003 0.196921,-0.33867 -0.291571,-0.29386 -0.712858,-0.57856 -0.952606,-0.94862 0.701816,-0.11007 1.267495,-0.47872 1.739618,-1.04846 0.155222,-0.18767 -0.07705,-0.41522 -0.265148,-0.26493 -0.405836,0.3242 -0.771843,0.59972 -1.221211,0.73695 0.242676,-0.3556 0.469935,-0.81492 0.523099,-1.24248 0.02797,-0.22296 -0.281234,-0.30939 -0.420299,-0.17392 -0.218687,0.21272 -0.344488,0.53093 -0.505178,0.7874 -0.06629,0.10548 -0.13462,0.21449 -0.213184,0.31397 0.248461,-2.19004 0.709154,-4.31765 1.163073,-6.46994 0.02258,0.048 0.04561,0.0945 0.06862,0.14005 0.173072,0.34255 0.411197,0.78175 0.797595,0.91299 0.149542,0.0511 0.342159,-0.11854 0.275837,-0.27587 -0.118181,-0.28117 -0.313584,-0.51965 -0.468736,-0.7807 -0.120191,-0.20179 -0.367242,-0.57644 -0.331717,-0.83785 1.334206,-0.1845 1.882775,-1.46897 2.325864,-2.6857 0.09701,-0.2674 -0.284339,-0.38064 -0.428625,-0.18097 -0.341489,0.47272 -0.535517,1.02341 -0.841022,1.51694 -0.246592,0.39899 -0.562469,0.63465 -0.959873,0.75671 0.03651,-0.17321 0.05016,-0.34995 0.06022,-0.48366 0.0357,-0.48613 -0.03461,-0.97331 -0.113842,-1.45203 -0.03485,-0.21202 -0.401426,-0.21625 -0.432435,0 -0.04988,0.34749 -0.05856,0.69991 -0.08047,1.05022 -0.01432,0.22683 0.01034,0.54963 -0.06117,0.80574 -0.225319,-0.2995 -0.393453,-0.69038 -0.543631,-0.98848 -0.248179,-0.49213 -0.443053,-1.00859 -0.687105,-1.50319 -0.09991,-0.20249 -0.397545,-0.0564 -0.351402,0.14817 0.157657,0.69885 0.404883,1.35996 0.751452,1.9879 0.127741,0.23143 0.25012,0.47837 0.414514,0.68051 -0.308822,0.061 -0.641738,0.0423 -0.893374,-0.10971 -0.332105,-0.20109 -0.584165,-0.508 -0.92329,-0.70274 -0.246275,-0.14111 -0.460693,0.17392 -0.290231,0.37571 0.351261,0.41628 0.728592,0.93381 1.281995,1.08585 0.305788,0.0836 0.633906,0.0554 0.938459,-0.0448 -0.685447,2.03835 -1.033004,4.21534 -1.295223,6.34118 -0.0284,0.23072 -0.05362,0.46249 -0.07842,0.69391 -0.185879,-0.32208 -0.267617,-0.78704 -0.331011,-1.05551 -0.107739,-0.45614 -0.146333,-0.94121 -0.299579,-1.38465 -0.078,-0.22648 -0.411339,-0.19085 -0.420582,0.0568 -0.0241,0.63994 0.0539,2.3502 0.722948,2.93158 -0.311609,0.17463 -0.727075,0.21132 -1.028877,0.096 -0.47886,-0.18274 -0.681708,-0.63712 -0.869527,-1.07386 -0.09895,-0.2293 -0.43822,-0.0956 -0.443159,0.11995 -0.03062,1.32609 1.505197,1.98825 2.475477,1.48554 -0.07825,0.11995 -0.156669,0.23989 -0.238795,0.35737 -0.206022,0.29527 -0.523099,0.55315 -0.683225,0.87171 -0.07966,0.1591 0.058,0.42263 0.260985,0.33937 0.283457,-0.11535 0.489903,-0.35595 0.675534,-0.60148 -0.08573,1.43086 -0.105586,2.86526 -0.05733,4.29789 0.02106,0.62371 0.06198,1.24248 0.116558,1.85808 l -0.0332,-0.067 c -0.101565,-0.17815 -0.424709,-0.11112 -0.405412,0.10972 0.04713,0.53622 0.266241,1.02482 0.598064,1.42663 0.01129,0.0886 0.02244,0.17709 0.03443,0.26529 -0.645724,0.0628 -1.692204,-1.45839 -2.043606,-1.62842 -0.130634,-0.0631 -0.337079,-0.0215 -0.366572,0.14922 -0.110807,0.64594 0.97977,1.43792 1.442262,1.73532 0.273544,0.17568 0.583318,0.30091 0.871608,0.31785 -0.05348,0.0963 -0.111901,0.18873 -0.176389,0.27446 -0.312949,0.41734 -0.653203,0.43004 -1.139084,0.45191 -0.244052,0.0109 -0.312561,0.30903 -0.120156,0.44309 0.515232,0.35877 1.219411,0.13652 1.609548,-0.30304 0.04173,-0.0466 0.07962,-0.096 0.116699,-0.14605 0.385304,2.34174 0.943152,4.65032 1.537335,6.98006 0.03778,0.14782 0.07511,0.29528 0.112466,0.44309 -0.06272,-0.0748 -0.121144,-0.15593 -0.175719,-0.24553 -0.195544,-0.32068 -0.325084,-0.68157 -0.554919,-0.98073 -0.112183,-0.14569 -0.441114,-0.1344 -0.408587,0.11078 0.08749,0.66004 0.446052,1.43651 1.029264,1.83338 -0.275907,0.005 -0.620007,-0.12029 -0.768138,-0.18027 -0.376061,-0.15275 -0.671231,-0.39299 -0.992717,-0.63217 -0.167711,-0.12524 -0.446088,0.085 -0.366571,0.28187 0.237172,0.58455 1.345635,1.21955 2.169442,1.19662 -0.557142,0.50553 -1.723637,0.629 -2.292632,0.56797 -0.237843,-0.0261 -0.285962,0.31044 -0.113983,0.42086 0.749935,0.48119 2.113245,0.11501 2.818095,-0.61983 -0.0041,0.24236 -0.04893,0.4752 -0.195686,0.68122 -0.312667,0.4385 -0.761083,0.55562 -1.200679,0.80927 -0.213748,0.12312 -0.135996,0.3997 0.06269,0.48048 0.604697,0.24589 1.311346,-0.30621 1.653788,-0.76799 l 0.0412,-0.0614 c 0.616514,2.7051 1.075831,5.43458 1.026089,8.2247 -0.127705,-0.21142 -0.244122,-0.42873 -0.365125,-0.64357 -0.108302,-0.19153 -0.371475,-0.0547 -0.336902,0.14181 0.0254,0.14111 0.06174,0.28194 0.106539,0.41988 -0.03422,-0.0445 -0.06985,-0.0886 -0.107598,-0.13049 -0.145697,-0.16122 -0.359798,0.0155 -0.331258,0.19293 0.05486,0.33969 0.312561,0.73131 0.645936,0.98076 -0.864235,0.15723 -1.696685,-0.76387 -2.085446,-1.56217 -0.08777,-0.18066 -0.397016,-0.0966 -0.38227,0.10336 0.06713,0.90978 1.102572,1.905 2.077897,2.0719 l -0.06421,0.0373 c -0.479919,0.25054 -1.050996,0.36339 -1.493061,0.68019 -0.207116,0.14855 -0.07758,0.43465 0.16771,0.39825 0.642585,-0.0959 1.459759,-0.35208 2.051368,-0.80324 -0.232834,2.14065 -0.803134,4.2037 -1.627082,6.18987 -0.06971,-0.11536 -0.247332,-0.15519 -0.331682,-0.006 -0.264583,0.46743 -0.307022,1.00694 -0.446334,1.51875 -0.03955,-0.14566 -0.08957,-0.29284 -0.13328,-0.45367 -0.163688,-0.60082 -0.168804,-1.2015 -0.129787,-1.81706 0.01446,-0.22518 -0.29284,-0.22944 -0.364384,-0.0499 -0.192228,0.48412 -0.204611,0.97057 -0.122907,1.48319 0.07676,0.4833 0.297779,0.90664 0.416313,1.37156 -1.136615,-0.51329 -1.697885,-1.63269 -2.033447,-2.84755 -0.04628,-0.16799 -0.336515,-0.14182 -0.314889,0.0427 0.121002,1.04165 0.810859,2.86092 1.963843,3.32589 -0.26677,0.0173 -0.547758,-0.0106 -0.771137,-0.0254 -0.417971,-0.0271 -0.828887,-0.10266 -1.245059,-0.14083 -0.192934,-0.0176 -0.250789,0.2654 -0.09578,0.35359 0.423192,0.24158 0.997691,0.28293 1.473835,0.30223 0.220486,0.009 0.465773,0.0124 0.705133,-0.0165 -0.503802,1.05625 -0.944104,2.12658 -1.117883,3.33029 -0.277389,1.91936 -0.06378,3.93736 0.393453,5.84193 -2.256261,-2.85432 -3.452001,-6.53478 -4.889147,-9.81784 -1.000196,-2.28452 -1.97224,-4.55676 -2.696563,-6.895 0.709436,0.16979 1.678446,-0.0882 2.108835,-0.45999 0.126753,-0.10968 -0.0076,-0.3525 -0.168275,-0.28967 -0.399062,0.15695 -1.567251,0.51361 -2.09737,0.22931 -0.02314,-0.0787 -0.04533,-0.15738 -0.06752,-0.2359 1.366203,-0.32855 1.828377,-2.85588 1.699684,-3.98325 -0.01877,-0.16412 -0.291183,-0.2424 -0.320146,-0.0434 -0.124707,0.85549 -0.272274,2.77771 -1.130512,3.44414 0.422205,-0.79802 0.447005,-1.93573 0.376591,-2.72701 -0.01803,-0.20352 -0.287161,-0.1972 -0.312526,0 -0.09867,0.76937 -0.08269,1.89026 -0.494312,2.64626 -0.443583,-1.70755 -0.734907,-3.45793 -0.79114,-5.28112 -0.04325,-1.40476 -0.01736,-2.80388 0.05666,-4.19911 0.303177,0.46178 0.749371,1.1123 1.270141,1.30351 0.168522,0.0617 0.262502,-0.139 0.206834,-0.26882 -0.172261,-0.40181 -0.629215,-0.72566 -0.899301,-1.06891 -0.1917,-0.24377 -0.401849,-0.53058 -0.525569,-0.83715 0.0092,-0.13723 0.0175,-0.27481 0.02769,-0.41239 0.670525,0.54398 1.701448,0.54292 2.418575,-0.13194 0.138641,-0.13053 -0.03817,-0.34467 -0.198967,-0.25753 -0.823948,0.44591 -1.639182,0.4131 -2.170007,-0.23001 0.0051,-0.061 0.0095,-0.12241 0.01475,-0.18345 1.139508,-0.0737 2.1215,-1.74201 2.307379,-2.6931 0.03955,-0.20285 -0.214983,-0.31503 -0.332776,-0.14005 -0.526556,0.78105 -0.94368,2.07151 -1.926378,2.29834 0.205881,-2.22144 0.50807,-4.43582 0.834954,-6.64774 0.03789,0.0494 0.07856,0.0967 0.124707,0.13829 0.110949,0.10089 0.30787,0.004 0.261162,-0.1517 -0.07638,-0.25541 -0.172403,-0.55915 -0.252624,-0.88053 0.04509,-0.29986 0.08999,-0.60008 0.135466,-0.89958 0.09938,0.17815 0.229024,0.34113 0.397157,0.47836 0.452544,0.36936 1.107934,0.45614 1.619886,0.15628 0.173496,-0.10124 0.04794,-0.32702 -0.127177,-0.30162 -0.46676,0.067 -0.897396,0.0515 -1.268765,-0.28081 -0.213889,-0.19121 -0.34671,-0.44521 -0.416313,-0.71755 0.639268,0.36936 2.395714,-0.49848 2.769305,-0.77329 0.150072,-0.11042 0.06325,-0.33867 -0.127317,-0.30198 -0.277707,0.0533 -2.438859,0.93698 -2.459673,0.58455 -0.0022,-0.0346 -0.0109,-0.0649 -0.02441,-0.0907 1.02168,-0.45191 2.708416,-2.76155 2.860957,-3.26425 0.06297,-0.20744 -0.215123,-0.29422 -0.328506,-0.13865 -0.227648,0.31221 -1.623201,2.25355 -2.418186,2.84798 0.550368,-0.76941 0.992046,-1.63442 1.164696,-2.56117 0.03239,-0.17321 -0.212902,-0.24553 -0.266489,-0.0734 -0.233997,0.74683 -0.598628,1.43545 -1.022667,2.08773 0.423333,-2.85644 0.808108,-5.71747 0.997585,-8.59507 0.335421,0.46637 0.883744,0.8128 1.359994,1.09502 0.960614,0.56868 1.685466,0.52846 2.549348,-0.16757 0.136278,-0.10971 -0.01076,-0.35807 -0.172931,-0.29704 -0.216218,0.0815 -0.400474,0.19438 -0.609918,0.29069 -0.564868,0.26035 -1.028453,0.0617 -1.534054,-0.22437 -0.454872,-0.25788 -1.132875,-0.61736 -1.412628,-1.12818 1.315367,0.72954 3.323025,-0.89041 4.129017,-1.83057 0.125977,-0.14675 -0.03401,-0.39299 -0.216465,-0.28081 -1.046621,0.64382 -2.45304,2.27789 -3.760823,1.64218 0.310904,-0.12558 0.620537,-0.3242 0.715892,-0.39828 0.87877,-0.68333 1.884187,-1.67817 2.159389,-2.794 0.0514,-0.20814 -0.228212,-0.32526 -0.342865,-0.14499 -0.458752,0.72178 -0.883709,1.4104 -1.503292,2.014 -0.283034,0.27623 -0.593372,0.57468 -0.935814,0.774 -0.03941,0.0226 -0.07772,0.0399 -0.115887,0.055 0.377013,-0.51011 0.649181,-1.12254 0.642443,-1.75119 -0.0019,-0.17462 -0.27051,-0.22084 -0.311467,-0.0423 -0.111478,0.48683 -0.294182,0.96449 -0.549275,1.39806 0.01393,-0.39723 0.02508,-0.79446 0.0302,-1.19204 0.02769,-2.28247 0.130492,-4.5974 -0.07676,-6.87775 0.292135,0.41098 0.710248,0.88335 1.207276,0.90099 0.181081,0.006 0.210714,-0.22366 0.08516,-0.31432 -0.640221,-0.4625 -1.114002,-1.02271 -1.420319,-1.69757 -0.0074,-0.054 -0.01408,-0.1076 -0.02191,-0.16122 -0.02688,-0.18098 -0.0568,-0.3616 -0.08819,-0.54187 l 0.05443,0.0215 c 0.158326,0.19615 0.332105,0.37783 0.527897,0.52811 0.471452,0.3616 1.082463,0.55633 1.657667,0.67628 0.179141,0.037 0.277954,-0.19121 0.124002,-0.29387 -0.434482,-0.28892 -0.966118,-0.37535 -1.401022,-0.66675 -0.08505,-0.0571 -0.162066,-0.12135 -0.235938,-0.18838 0.854816,-0.14711 1.665781,-1.04105 2.201263,-1.66405 0.129822,-0.15064 -0.03224,-0.38559 -0.21784,-0.28223 -0.457941,0.25541 -0.79816,0.67628 -1.195317,1.01106 -0.330871,0.2787 -0.624241,0.41346 -0.942587,0.43463 0.79195,-0.48401 1.1424,-1.72121 1.181805,-2.58128 0.0077,-0.16968 -0.251072,-0.20143 -0.293652,-0.0399 -0.206587,0.78705 -0.436845,2.16817 -1.309829,2.4645 -0.04381,-0.0557 -0.08805,-0.11112 -0.132856,-0.16615 0.59175,-0.92746 0.771031,-2.02354 0.656379,-3.14749 -0.01916,-0.18662 -0.275873,-0.18909 -0.292418,0 -0.05401,0.61525 -0.08379,1.23225 -0.260033,1.82845 -0.08819,0.29951 -0.223378,0.5655 -0.367135,0.82762 -0.447146,-2.06763 -1.033251,-4.10422 -1.097598,-6.237468 1.110721,0.779286 2.607804,-0.943328 3.377847,-1.630892 0.135467,-0.121003 -0.03817,-0.334434 -0.19057,-0.246945 -0.811953,0.464609 -1.975415,2.125134 -2.998611,1.541287 1.42942,-0.258234 2.063044,-2.621492 2.375041,-3.760965 0.04025,-0.147461 -0.188913,-0.256116 -0.254812,-0.107597 -0.53026,1.193095 -0.948619,3.2258 -2.403827,3.566584 0.602897,-1.372306 0.806697,-2.72415 0.644348,-4.253795 -0.02078,-0.197203 -0.289383,-0.199319 -0.307834,0 -0.06876,0.729192 -0.02565,1.464028 -0.109149,2.192514 -0.08019,0.702733 -0.311432,1.331383 -0.53206,1.986492 -0.02977,-0.0314 -0.06092,-0.06456 -0.0944,-0.102306 -0.324944,-0.363714 -0.593231,-0.803275 -0.793609,-1.247069 -0.395499,-0.875595 -0.480942,-1.854553 -0.291571,-2.791531 0.03732,-0.185208 -0.208245,-0.245533 -0.277565,-0.07655 -0.352355,0.859014 -0.28,1.836914 0.02247,2.70122 0.235937,0.673805 0.615562,1.140883 1.044434,1.621719 -0.826135,-0.288925 -1.525764,-1.228372 -1.995982,-1.927225 -0.669713,-0.995186 -0.388161,-1.933928 -0.308786,-3.0353 0.01446,-0.202142 -0.301661,-0.240594 -0.350873,-0.04762 -0.322192,1.267884 -0.501333,2.312106 0.289137,3.440289 0.583706,0.833261 1.2434,1.662642 2.238622,1.976261 -0.505213,0.467431 -1.277726,0.585259 -1.952696,0.512939 -0.715081,-0.07655 -1.1442,-0.510822 -1.569156,-1.046691 -0.118251,-0.149225 -0.308963,0.04092 -0.243663,0.187677 0.679944,1.531762 2.921458,1.770945 4.036977,0.601487 -0.08117,2.145945 0.494418,4.192415 0.960755,6.269215 -0.319158,-0.0466 -0.62865,-0.12065 -0.917081,-0.28293 -0.377719,-0.21237 -0.655108,-0.54222 -0.986825,-0.81315 -0.149366,-0.12171 -0.404707,0.0332 -0.285645,0.22084 0.510541,0.80539 1.345777,1.29505 2.283249,1.3014 l 0.0026,0.0116 0.0091,0.0455 c -0.962166,1.08126 -2.565082,0.363 -3.695241,-0.14782 -0.180093,-0.0818 -0.319405,0.15099 -0.155434,0.266 0.795126,0.55844 1.722261,1.01071 2.72094,0.88159 0.413279,-0.0536 0.857144,-0.20108 1.190343,-0.4639 -0.462033,1.41005 -1.973051,2.50013 -3.434892,2.38442 -0.175154,-0.0141 -0.235902,0.24659 -0.08833,0.32667 1.259381,0.68228 2.972858,-0.56479 3.690937,-1.93851 0.309774,2.20945 0.261162,4.4323 0.240489,6.67244 -0.0087,0.93803 -0.03792,1.8729 -0.08393,2.80458 -0.425979,-0.59196 -0.451591,-1.66793 -0.576157,-2.26307 -0.03157,-0.15134 -0.276154,-0.11783 -0.269416,0.0367 0.0357,0.83079 0.04064,2.24155 0.814423,2.78871 -0.0053,0.0924 -0.01005,0.18486 -0.0157,0.27764 l -0.0074,0.0109 c -0.06078,-0.006 -0.122802,0.0124 -0.165383,0.0557 -0.208209,-0.012 -0.419064,-0.0529 -0.569948,-0.0861 -0.419488,-0.0914 -0.726087,-0.33655 -0.956098,-0.69356 -0.391619,-0.60748 -0.473357,-1.31374 -0.624664,-2.00236 -0.04519,-0.20567 -0.338984,-0.145 -0.351119,0.0473 -0.05676,0.91263 0.227788,2.04399 0.90745,2.68958 0.30854,0.29315 0.83245,0.49812 1.340838,0.5274 -0.237314,0.25329 -0.513327,0.45896 -0.889529,0.60642 -0.682837,0.26706 -1.331454,0.30586 -1.93093,-0.16122 -0.153352,-0.11959 -0.38294,0.0258 -0.280846,0.21661 0.407211,0.75988 1.360699,0.72602 2.081142,0.4893 0.359234,-0.11783 0.650134,-0.27375 0.90163,-0.46637 -0.135326,0.24518 -0.294464,0.47731 -0.439174,0.68333 -0.330164,0.47061 -0.842115,0.85408 -1.082463,1.37795 -0.0744,0.16228 0.08848,0.38488 0.267476,0.26741 0.624276,-0.40993 1.318931,-1.24108 1.696932,-2.0955 -0.2038,2.60773 -0.522958,5.20029 -0.891716,7.79885 -0.03627,-0.109 -0.07056,-0.21836 -0.09966,-0.32843 -0.132398,-0.49848 -0.209303,-1.00436 -0.271463,-1.51624 -0.02205,-0.18203 -0.272027,-0.18768 -0.287866,0 -0.06752,0.79904 0.05443,1.75507 0.405553,2.52448 -0.043,0.012 -0.08378,0.0388 -0.114371,0.0868 -0.08378,0.13265 -0.153246,0.2667 -0.217452,0.40005 -0.933344,0 -1.666875,-1.45556 -2.176745,-2.13924 -0.129399,-0.17322 -0.383787,-0.0289 -0.291324,0.17004 0.35359,0.76129 1.27508,2.23167 2.24208,2.44792 -0.162066,0.32561 -0.355424,0.62477 -0.723089,0.85443 -0.592384,0.369 -1.209746,0.54575 -1.905,0.53269 -0.185455,-0.004 -0.220204,0.23001 -0.08805,0.32456 0.601521,0.43074 1.555009,-0.0173 2.106471,-0.34537 0.304412,-0.18098 0.596971,-0.39264 0.800912,-0.68615 0.147743,-0.21273 0.236361,-0.45262 0.321239,-0.69427 l 0.06519,-0.0222 c -0.03048,0.20497 -0.06092,0.40958 -0.09151,0.61419 -0.428449,2.85221 -0.853299,5.71606 -1.116224,8.59085 -0.03154,0.0391 -0.06421,0.0762 -0.09839,0.10971 -0.303424,-0.18486 -0.598064,-0.39934 -0.794703,-0.69321 -0.277953,-0.41522 -0.287055,-0.90981 -0.346181,-1.38783 -0.02092,-0.17109 -0.300813,-0.25435 -0.335421,-0.0455 -0.179669,1.08656 0.268888,1.88031 1.113332,2.37279 -0.37839,0.16192 -0.826135,0.10618 -1.243824,-0.13935 -0.536611,-0.31503 -0.863318,-0.87348 -1.215284,-1.36454 -0.09606,-0.13441 -0.365302,-0.0579 -0.291607,0.12312 0.329107,0.80927 0.910626,1.64359 1.796557,1.8863 0.238689,0.0656 0.487009,0.0882 0.722524,0.0635 -0.62163,0.17357 -1.246435,-0.0984 -1.981765,-0.23142 -0.202565,-0.037 -0.315983,0.21307 -0.140441,0.33231 0.809625,0.55069 1.759903,0.65899 2.530793,0.21661 -0.101847,0.24835 -0.25841,0.47272 -0.466055,0.64805 -0.0568,0.0476 -0.116169,0.0903 -0.176671,0.13088 -0.332951,0.21908 -0.713281,0.35384 -1.040553,0.58209 -0.08915,0.0617 -0.104317,0.15169 -0.07221,0.2233 0.03157,0.0716 0.110808,0.12418 0.212619,0.10937 0.343288,-0.0469 0.711765,-0.19015 1.033816,-0.38806 0.196779,-0.11924 0.376625,-0.25859 0.523381,-0.40958 0.04286,-0.0437 0.07952,-0.0889 0.115464,-0.1337 -0.08735,1.40935 -0.128693,2.82152 -0.101565,4.23616 0.04011,2.10361 0.359128,4.11088 0.865435,6.0688 -1.202196,-0.71716 -1.704764,-1.94278 -1.983564,-3.32384 -0.03859,-0.19085 -0.301907,-0.12707 -0.317923,0.043 -0.14538,1.54696 0.811812,2.95271 2.133353,3.64144 -0.29972,0.41589 -0.816751,0.59298 -1.319072,0.55838 -0.568148,-0.0391 -0.895173,-0.32343 -1.219694,-0.75597 -0.09716,-0.12912 -0.376202,-0.11398 -0.35179,0.0952 0.08185,0.70528 0.790858,1.11979 1.44706,1.18001 0.501614,0.0459 0.981322,-0.0853 1.362322,-0.36862 -0.06615,0.24515 -0.129787,0.49142 -0.192793,0.73766 -0.10788,0.42224 -0.292947,0.83785 -0.36696,1.26478 -0.02935,0.16824 0.187431,0.35302 0.322862,0.18835 0.509764,-0.62121 0.562399,-1.56006 0.736318,-2.34954 0.601628,2.07712 1.400916,4.10711 2.295102,6.14507 0.964212,2.1988 1.881576,4.42352 2.902832,6.59628 0.800806,1.70381 1.683279,3.41203 2.868542,4.88445 -2.429757,-0.89641 -4.523705,-2.78087 -6.318991,-4.56311 -0.540209,-0.53661 -1.053112,-1.09361 -1.542874,-1.66906 0.43367,0.15737 0.865682,0.13476 1.101902,-0.33186 0.06544,-0.12926 -0.0689,-0.27986 -0.202988,-0.20299 -0.41328,0.23675 -0.825606,0.15036 -1.197928,-0.0613 0.688058,-0.0854 1.15122,-1.02263 1.177537,-1.75824 0.0051,-0.14221 -0.209056,-0.2056 -0.274391,-0.0741 -0.175683,0.35387 -0.323955,0.90604 -0.600533,1.21144 0.455436,-0.82684 0.539926,-2.36929 0.409963,-2.86414 -0.05031,-0.19222 -0.305365,-0.132 -0.32452,0.0437 -0.05391,0.49389 -0.12887,2.57708 -0.793327,2.85725 0.03263,-0.33556 0.06336,-0.6714 0.02632,-1.00831 -0.0532,-0.4844 -0.210044,-0.9641 -0.360362,-1.42561 -0.04812,-0.14813 -0.303989,-0.13367 -0.286915,0.0389 0.043,0.43713 0.200519,0.84557 0.268993,1.27772 0.04092,0.25686 0.03888,0.51608 0.02551,0.77541 -0.238266,-0.51827 -0.363396,-1.06715 -0.491419,-1.64317 -0.03447,-0.15642 -0.258516,-0.11119 -0.267194,0.036 -0.01863,0.31182 0.01707,0.63003 0.09465,0.94079 -0.860707,-1.21959 -1.639993,-2.49869 -2.355074,-3.82062 -0.242252,-0.4476 -0.479954,-0.89806 -0.712717,-1.35103 0.953876,0.39853 1.976932,0.86995 2.458579,-0.45794 0.06724,-0.18521 -0.191699,-0.25368 -0.291747,-0.12277 -0.42926,0.5599 -0.826417,0.63003 -1.463887,0.39328 -0.09204,-0.0342 -0.182739,-0.0694 -0.272838,-0.10432 0.906039,-0.28867 1.71069,-1.07209 1.788689,-2.00353 0.01556,-0.18408 -0.254388,-0.24197 -0.339266,-0.092 -0.278377,0.49322 -0.490996,0.97014 -0.976772,1.30144 -0.19251,0.13116 -0.393417,0.2166 -0.599722,0.28331 0.319582,-0.53001 0.433141,-1.25208 0.460834,-1.83099 0.01034,-0.21734 -0.300567,-0.2402 -0.36449,-0.0491 -0.136843,0.40817 -0.228494,0.8315 -0.390949,1.23127 -0.07098,0.17462 -0.148554,0.36092 -0.263348,0.51181 l -0.02233,0.0262 c 0.01693,-0.97797 -0.0012,-1.99358 -0.296686,-2.90653 -0.05994,-0.18496 -0.310057,-0.10517 -0.284022,0.0787 0.111902,0.79018 0.135044,1.57938 0.174731,2.36858 -0.848712,-1.76953 -1.587923,-3.58747 -2.122875,-5.4791 0.38615,0.45974 0.982274,0.9543 1.513381,0.45339 0.117405,-0.11109 -0.0076,-0.28084 -0.147743,-0.25371 -0.290477,0.0561 -0.494559,0.0568 -0.74549,-0.11533 -0.08918,-0.0611 -0.169228,-0.13338 -0.244899,-0.20986 0.08227,-0.0142 0.16563,-0.0364 0.250261,-0.0699 0.524616,-0.20916 0.955675,-0.75103 1.075831,-1.29713 0.04381,-0.20009 -0.206163,-0.29601 -0.320675,-0.13504 -0.416983,0.58522 -0.883885,1.21694 -1.545872,1.01448 -0.01531,-0.0586 -0.03006,-0.1167 -0.04466,-0.17526 0.153529,-0.0226 0.31683,-10e-4 0.461786,-0.0832 0.139312,-0.0791 0.247227,-0.20754 0.341066,-0.33486 0.205317,-0.27838 0.392606,-0.62826 0.452825,-0.97081 0.03016,-0.17074 -0.19431,-0.2879 -0.291747,-0.12323 -0.156527,0.26543 -0.273932,0.55108 -0.446193,0.80797 -0.08544,0.12704 -0.173355,0.26663 -0.326179,0.30978 -0.05443,0.0152 -0.10668,0.0229 -0.157656,0.0296 0.362973,-0.67455 0.373027,-1.56986 0.22546,-2.28639 -0.03722,-0.18027 -0.284727,-0.11924 -0.300143,0.0406 -0.05443,0.55704 -0.0229,1.1635 -0.167005,1.71126 -0.510858,-2.41152 -0.69469,-4.8598 -0.902617,-7.3109 0.07359,0.1076 0.156245,0.20708 0.249837,0.29351 0.389149,0.35948 0.951512,0.37677 1.27508,-0.0759 0.09331,-0.13053 -0.08378,-0.27587 -0.207539,-0.20778 -0.175825,0.0967 -0.34283,0.21307 -0.55245,0.15099 -0.162878,-0.0476 -0.295169,-0.1838 -0.394653,-0.31504 -0.119062,-0.15733 -0.213183,-0.34078 -0.276295,-0.53304 0.206269,0.11112 0.439173,0.14428 0.685835,0.0402 0.371369,-0.15628 0.589386,-0.5281 0.655955,-0.91122 0.02769,-0.16122 -0.185914,-0.27517 -0.27753,-0.11712 -0.215124,0.37182 -0.520912,0.75953 -0.900712,0.63041 0.143756,-0.15945 0.259785,-0.35313 0.330588,-0.50412 0.250119,-0.5341 0.374438,-1.12501 0.450779,-1.70674 0.02163,-0.16439 -0.231669,-0.18203 -0.278236,-0.0378 -0.125659,0.38947 -0.251495,0.7807 -0.410245,1.15782 -0.01859,0.0444 -0.03789,0.0917 -0.05786,0.14147 l 0.0023,-0.01 c 0.09645,-0.40816 0.183973,-0.86254 0.111477,-1.27952 -0.0332,-0.19192 -0.295451,-0.12136 -0.313513,0.0423 -0.04614,0.41628 -0.09878,0.9846 -0.253118,1.46826 -0.01365,-0.13899 -0.02716,-0.27764 -0.04135,-0.41663 -0.190711,-1.83374 -0.477767,-3.67065 -0.552873,-5.51462 0.70873,0.49001 1.598507,0.38347 2.038809,-0.45509 0.07274,-0.13758 -0.117264,-0.24306 -0.206023,-0.11994 -0.441677,0.61277 -1.046621,0.80821 -1.641933,0.38523 0.462068,-0.0109 0.883743,-0.32949 0.906744,-0.83538 0.0069,-0.15098 -0.225566,-0.22119 -0.293228,-0.0794 -0.141112,0.29598 -0.359552,0.56127 -0.703369,0.53657 0.377296,-0.41204 0.514985,-1.22378 0.529731,-1.65735 0.0049,-0.14957 -0.226271,-0.22295 -0.293405,-0.0794 -0.123049,0.26282 -0.189759,0.77399 -0.356623,1.15429 0.01295,-1.82457 0.184397,-3.66148 0.01517,-5.47935 0.04547,0.0706 0.09437,0.13829 0.148555,0.20215 0.173496,0.2039 0.60826,0.48965 0.846808,0.21872 0.06777,-0.0773 0.06378,-0.2032 -0.03351,-0.25788 -0.09536,-0.0536 -0.204611,-0.0392 -0.303036,-0.0882 -0.106786,-0.0529 -0.187819,-0.1531 -0.256999,-0.24729 -0.0835,-0.1143 -0.150601,-0.23884 -0.219251,-0.36266 0.231246,-0.031 0.446793,-0.12065 0.626322,-0.29951 0.285115,-0.28328 0.467571,-0.70767 0.595453,-1.08162 0.05747,-0.16721 -0.178717,-0.24271 -0.268993,-0.11359 -0.194169,0.27728 -0.305929,0.6096 -0.522393,0.87136 -0.105834,0.12806 -0.227542,0.20355 -0.361068,0.24659 0.262678,-0.40569 0.32385,-0.97014 0.230152,-1.42204 -0.03048,-0.14747 -0.228353,-0.0946 -0.243099,0.0332 -0.05648,0.49318 -0.03873,1.08514 -0.432964,1.42451 l -0.02812,0.006 -0.03803,-0.002 -0.02688,0.003 c -0.05472,-0.58879 -0.219675,-1.19345 -0.308681,-1.76248 -0.02741,-0.17463 -0.262113,-0.10548 -0.280705,0.0378 -0.07952,0.61312 0.143052,1.29998 0.285256,1.91981 -0.30674,-0.12171 -0.558235,-0.43921 -0.756426,-0.67627 -0.342688,-0.40993 -0.398639,-0.78141 -0.336373,-1.29822 0.01901,-0.15699 -0.210962,-0.1644 -0.258375,-0.0353 -0.213607,0.58243 -0.107774,1.09819 0.280282,1.57586 0.247509,0.3048 0.549169,0.65193 0.922338,0.80609 -0.185914,0.16334 -0.459423,0.21273 -0.711624,0.17604 -0.396875,-0.0575 -0.550263,-0.27905 -0.713669,-0.61242 -0.05362,-0.10972 -0.256752,-0.0921 -0.275484,0.036 -0.07952,0.54398 0.484505,0.91546 0.961883,0.97719 0.354683,0.0459 0.711483,-0.0483 0.957157,-0.2734 -0.0029,1.84397 -0.10802,3.68265 -0.120826,5.52662 -8.47e-4,0.11007 0.0025,0.22049 0.0034,0.3302 -0.475262,-0.45579 -0.763553,-1.12995 -0.879299,-1.75507 -0.02745,-0.14817 -0.253577,-0.10795 -0.256328,0.0346 -0.01418,0.7493 0.40513,1.60408 1.038225,2.06093 l 0.0018,0.0854 c -0.374121,0.0504 -0.89461,-0.15205 -1.072798,-0.31256 -0.40968,-0.36971 -0.483129,-0.91616 -0.575733,-1.42804 -0.03514,-0.19333 -0.296157,-0.12101 -0.315842,0.043 -0.09193,0.77152 0.334292,1.65981 1.067576,1.96991 0.229835,0.0974 0.566068,0.14957 0.874748,0.11289 -0.02974,0.23706 -0.09437,0.46848 -0.22613,0.66745 -0.2679,0.4057 -0.661847,0.36125 -1.095799,0.35207 -0.157092,-0.003 -0.218969,0.22119 -0.08061,0.29739 0.477485,0.26318 1.088073,0.17216 1.43122,-0.26035 0.06283,-0.0794 0.11243,-0.16721 0.15628,-0.25752 0.09313,1.30845 0.261268,2.61091 0.397264,3.91724 0.04699,0.4505 0.08918,0.9017 0.128587,1.3529 -0.522817,-0.54645 -0.781756,-1.2894 -0.919445,-2.06445 -0.02865,-0.16298 -0.255905,-0.10619 -0.26924,0.0367 -0.08601,0.9084 0.397687,1.92687 1.138943,2.50613 -0.668514,0.45932 -1.422294,-0.17462 -1.615616,-0.88088 -0.03528,-0.12877 -0.249026,-0.14323 -0.275484,0 -0.144004,0.78069 0.68901,1.46261 1.43316,1.46579 -0.25961,0.21413 -0.564868,0.369 -0.899161,0.44309 -0.18743,0.0413 -0.123472,0.29351 0.04216,0.31079 0.319159,0.0346 0.636659,-0.0705 0.909109,-0.25294 -0.187713,0.32667 -0.3937,0.64206 -0.612564,0.96979 -0.07772,0.11641 0.08117,0.28504 0.198438,0.19826 0.467184,-0.34502 0.754909,-0.87277 0.979382,-1.41323 0.206586,2.57704 0.390137,5.1555 0.931827,7.69056 0.01887,0.0882 0.04011,0.17572 0.05983,0.26349 -0.354436,-0.4699 -0.528073,-1.26958 -0.460975,-1.70463 0.02205,-0.14248 -0.183268,-0.26595 -0.256716,-0.10858 -0.179564,0.38417 -0.08904,1.24312 0.216605,1.83155 -0.317358,-0.31683 -0.543771,-0.67758 -0.697265,-1.1176 -0.04837,-0.13931 -0.275061,-0.12665 -0.269416,0.0364 0.01778,0.51291 0.277671,0.95677 0.612281,1.33202 0.166194,0.1863 0.36322,0.38241 0.579191,0.51015 l 0.05895,0.031 c -0.558765,0.10485 -1.184417,0.0262 -1.629375,-0.30152 -0.112325,-0.083 -0.250543,0.0993 -0.148696,0.19223 0.475827,0.43628 1.22548,0.55838 1.87579,0.4378 l -0.0077,0.007 c -0.352213,0.30015 -1.034485,0.10792 -1.450093,0.16288 -0.135467,0.0181 -0.25206,0.23181 -0.08241,0.30374 0.523769,0.22158 1.363416,0.32219 1.843546,-0.0638 l 0.03249,-0.0296 c -0.02533,0.45794 -0.107456,0.88512 -0.303142,1.35188 -0.06216,0.14856 0.156951,0.25079 0.257422,0.14993 0.233857,-0.23428 0.360469,-0.51266 0.425521,-0.80934 0.575345,1.82742 1.324998,3.58814 2.168631,5.3147 -0.368088,-0.19198 -0.743056,-0.37042 -1.078583,-0.62304 -0.601521,-0.45293 -0.835237,-0.9875 -0.993987,-1.70282 -0.03708,-0.1669 -0.266523,-0.113 -0.280705,0.038 -0.120862,1.31092 1.200256,2.2976 2.361107,2.72521 -0.662835,0.60289 -1.931847,0.32356 -2.32403,-0.49569 -0.06629,-0.13861 -0.274391,-0.0638 -0.276578,0.0748 -0.02067,1.27995 2.156072,1.52054 2.929432,0.66121 l 0.01362,0.0267 c -0.462315,0.56017 -1.199021,0.90882 -1.703105,1.4231 -0.119345,0.12168 0.03376,0.3284 0.183832,0.23855 0.495829,-0.29711 1.09086,-0.65486 1.539946,-1.11058 -0.02039,0.38065 -0.07895,0.76236 -0.110384,1.14586 -0.01224,0.14993 0.224895,0.21622 0.289277,0.0779 0.129117,-0.27753 0.212337,-0.58526 0.249555,-0.90124 0.02727,0.0521 0.05429,0.10474 0.08156,0.15695 0.935425,1.77976 1.974744,3.50065 3.167027,5.10921 -0.156704,-0.0176 -0.311291,-0.0719 -0.466196,-0.1524 -0.340113,-0.17706 -0.473216,-0.3937 -0.625898,-0.72457 -0.04646,-0.10019 -0.215406,-0.0981 -0.262255,0 -0.217982,0.45794 0.346322,0.93666 0.699629,1.12709 0.136842,0.0737 0.302366,0.14016 0.472969,0.17751 -0.705697,-0.13617 -1.418449,-0.43077 -1.639182,-1.05519 -0.05652,-0.15942 -0.271357,-0.12594 -0.287197,0.0389 -0.105551,1.09925 1.610502,1.47062 2.579124,1.47944 -0.12566,0.31792 -0.317218,0.60579 -0.589245,0.82589 -0.409117,0.33098 -0.880816,0.39437 -1.370436,0.52529 -0.137971,0.0371 -0.146897,0.25647 0,0.28857 0.957051,0.20782 1.815536,-0.42266 2.224158,-1.2463 -0.0015,0.0437 -5.64e-4,0.0871 -0.004,0.13078 -0.03196,0.40019 -0.220346,0.72249 -0.314749,1.10144 -0.02935,0.11811 0.112466,0.25894 0.226413,0.1735 0.377049,-0.28042 0.521723,-0.72249 0.542149,-1.19087 0.411586,0.48669 0.840034,0.96132 1.287745,1.41993 2.152509,2.20648 4.866957,4.67593 7.974295,5.33149 0.07221,0.0156 0.135749,0.005 0.18923,-0.0206 0.05041,-0.009 0.09878,-0.0317 0.138359,-0.0656 l 0.05553,-0.009 c 1.199585,-0.47237 2.197135,-1.58817 3.043096,-2.56575 0.01905,0.29379 0.08149,0.57848 0.188031,0.82201 0.03634,0.0825 0.134408,0.12802 0.215547,0.1294 0.1524,0.003 0.276578,-0.01 0.418747,-0.0629 0.160161,-0.0595 0.179917,-0.31073 0,-0.36184 -0.07338,-0.0206 -0.146755,-0.0381 -0.220486,-0.0561 -0.100189,-0.35984 -0.11183,-0.77365 -0.02716,-1.16033 0.03104,-0.0384 0.06279,-0.0773 0.09349,-0.11602 0.213784,0.41659 0.65652,0.71148 1.072798,0.46178 0.109714,-0.066 0.13088,-0.27478 0,-0.33404 -0.233892,-0.10556 -0.66675,-0.29352 -0.703087,-0.60579 0.02681,-0.0356 0.05221,-0.0719 0.07867,-0.10764 0.690739,-0.0282 1.297164,-0.39147 1.661231,-1.05265 0.113241,-0.20493 -0.134056,-0.36505 -0.291748,-0.23566 -0.252941,0.20712 -0.475544,0.46108 -0.760589,0.62372 -0.06491,0.037 -0.131586,0.0667 -0.199672,0.0918 0.342547,-0.49636 0.666045,-1.00679 0.963084,-1.5307 0.412044,-0.72637 0.775408,-1.481 1.120068,-2.24582 0.0642,0.41631 0.25083,0.74789 0.65723,0.76842 0.14569,0.007 0.25929,-0.18701 0.17321,-0.31655 -0.19473,-0.29488 -0.32491,-0.48891 -0.35313,-0.86458 -0.012,-0.16302 -0.0106,-0.33017 0.004,-0.49569 0.43356,0.62755 1.16699,1.0965 1.7025,0.3514 0.10125,-0.14178 -0.0674,-0.35842 -0.22083,-0.30095 -0.35278,0.13201 -0.58491,0.17861 -0.87701,-0.11148 -0.1711,-0.17004 -0.29316,-0.37426 -0.40393,-0.58706 0.0367,-0.0853 0.0737,-0.17032 0.11042,-0.25534 0.86783,-0.10654 1.63301,-1.01078 1.97555,-1.79077 0.097,-0.22116 -0.13229,-0.39645 -0.31115,-0.2515 -0.34007,0.27591 -0.57785,0.67705 -0.89041,0.98711 -0.14887,0.14813 -0.2988,0.25852 -0.45649,0.34216 0.65617,-1.45976 1.39735,-2.84413 2.15829,-4.246 0.3489,0.66421 1.32292,1.12184 1.81787,0.42044 0.0974,-0.13783 -0.0639,-0.33969 -0.21167,-0.28815 -0.49459,0.1735 -1.11125,0.0398 -1.2707,-0.54722 0.99553,0.92575 2.45921,0.11299 2.86949,-1.23956 0.0737,-0.24239 -0.23636,-0.33376 -0.3623,-0.15984"
       style="fill:#9fdcab;fill-opacity:1;fill-rule:nonzero;stroke:none;stroke-width:0.0352778"
       id="path2180" />
    <path
       d="m 114.40021,160.38786 c -0.53163,-0.49114 -1.30986,-0.33804 -1.90923,-0.071 -0.54504,0.24267 -3.16442,0.81911 -2.36537,1.815 0.28821,0.35913 0.9472,0.22973 1.3402,0.23083 0.79975,0.002 1.71838,0.0342 2.50507,-0.12429 0.82797,-0.16647 1.03576,-1.29109 0.42933,-1.85056"
       style="fill:#a25a3f;fill-opacity:1;fill-rule:nonzero;stroke:none;stroke-width:0.0352778"
       id="path2238" />
    <path
       d="m 113.29778,161.09588 c -0.16757,0 -0.16792,0.26031 0,0.26031 0.16757,0 0.16757,-0.26031 0,-0.26031"
       style="fill:#924a30;fill-opacity:1;fill-rule:nonzero;stroke:none;stroke-width:0.0352778"
       id="path2240" />
    <path
       d="m 113.80966,160.31014 c -0.38241,0 -0.38276,0.59408 0,0.59408 0.38241,0 0.38312,-0.59408 0,-0.59408"
       style="fill:#924a30;fill-opacity:1;fill-rule:nonzero;stroke:none;stroke-width:0.0352778"
       id="path2242" />
    <path
       d="m 112.94289,160.57539 c -0.30515,0 -0.30586,0.47421 0,0.47421 0.30515,0 0.30586,-0.47421 0,-0.47421"
       style="fill:#924a30;fill-opacity:1;fill-rule:nonzero;stroke:none;stroke-width:0.0352778"
       id="path2244" />
    <path
       d="m 113.93525,161.50613 c -0.13299,0 -0.25999,0.11673 -0.254,0.25438 0.006,0.13755 0.11183,0.25425 0.254,0.25425 0.133,0 0.26071,-0.11712 0.25436,-0.25425 -0.006,-0.13793 -0.11148,-0.25438 -0.25436,-0.25438"
       style="fill:#924a30;fill-opacity:1;fill-rule:nonzero;stroke:none;stroke-width:0.0352778"
       id="path2246" />
    <path
       d="m 119.57017,165.19128 c -0.23601,-0.62865 -1.12077,-0.94231 -1.70815,-1.10712 -0.29739,-0.0832 -0.60043,-0.13724 -0.90311,-0.15696 -0.35278,-0.19469 -0.75918,-0.30659 -1.15358,-0.34325 -0.49319,-0.0451 -1.38748,0.0271 -1.58715,0.6011 -0.16192,0.46507 0.28716,1.25843 0.56127,1.60059 0.41769,0.52144 0.95109,0.61736 1.58679,0.54719 0.8248,-0.0913 1.89089,0.16856 2.67018,-0.11049 0.44485,-0.15974 0.70908,-0.56543 0.53375,-1.03106"
       style="fill:#a25a3f;fill-opacity:1;fill-rule:nonzero;stroke:none;stroke-width:0.0352778"
       id="path2248" />
    <path
       d="m 115.17809,163.97088 c -0.266,0 -0.26635,0.41314 0,0.41314 0.26564,0 0.26635,-0.41314 0,-0.41314"
       style="fill:#924a30;fill-opacity:1;fill-rule:nonzero;stroke:none;stroke-width:0.0352778"
       id="path2250" />
    <path
       d="m 116.27981,164.11531 c -0.36336,0 -0.36371,0.56472 0,0.56472 0.36336,0 0.36407,-0.56472 0,-0.56472"
       style="fill:#924a30;fill-opacity:1;fill-rule:nonzero;stroke:none;stroke-width:0.0352778"
       id="path2252" />
    <path
       d="m 117.69022,164.54319 c -0.3235,0 -0.32385,0.50271 0,0.50271 0.3235,0 0.3242,-0.50271 0,-0.50271"
       style="fill:#924a30;fill-opacity:1;fill-rule:nonzero;stroke:none;stroke-width:0.0352778"
       id="path2254" />
    <path
       d="m 115.26593,164.62436 c -0.33196,0 -0.33267,0.51647 0,0.51647 0.33267,0 0.33302,-0.51647 0,-0.51647"
       style="fill:#924a30;fill-opacity:1;fill-rule:nonzero;stroke:none;stroke-width:0.0352778"
       id="path2256" />
    <path
       d="m 115.88717,169.25235 c -0.34925,-0.28607 -0.96449,-0.33581 -1.38924,-0.43102 -1.49542,-0.33627 -3.11749,-0.059 -4.62562,0.10153 -1.08409,0.11507 -2.24825,0.54902 -1.62701,1.84714 0.41522,0.86787 1.34549,0.9452 2.19781,0.87919 0.86748,-0.0667 1.83373,-0.0791 2.68463,-0.21939 0.55422,-0.0911 4.08235,-1.09153 2.75943,-2.17745"
       style="fill:#a25a3f;fill-opacity:1;fill-rule:nonzero;stroke:none;stroke-width:0.0352778"
       id="path2258" />
    <path
       d="m 110.8301,169.22741 -0.007,-0.009 c -0.0861,-0.11423 -0.2092,-0.18701 -0.35772,-0.14566 -0.12911,0.0353 -0.23883,0.16715 -0.23283,0.3055 0.006,0.12775 0.0759,0.23912 0.19509,0.28928 0.15698,0.0667 0.29845,-0.001 0.39546,-0.1294 l 0.007,-0.009 c 0.0571,-0.0758 0.0571,-0.22641 0,-0.30222"
       style="fill:#924a30;fill-opacity:1;fill-rule:nonzero;stroke:none;stroke-width:0.0352778"
       id="path2260" />
    <path
       d="m 110.02083,170.46379 c -0.248,0 -0.24836,0.38601 0,0.38601 0.248,0 0.24871,-0.38601 0,-0.38601"
       style="fill:#924a30;fill-opacity:1;fill-rule:nonzero;stroke:none;stroke-width:0.0352778"
       id="path2262" />
    <path
       d="m 111.60762,169.32608 c -0.29421,0 -0.29456,0.45724 0,0.45724 0.29422,0 0.29493,-0.45724 0,-0.45724"
       style="fill:#924a30;fill-opacity:1;fill-rule:nonzero;stroke:none;stroke-width:0.0352778"
       id="path2264" />
    <path
       d="m 111.06188,170.17179 -0.0208,0.004 c -0.21413,0.0406 -0.21449,0.39233 0,0.43297 l 0.0208,0.004 c 0.14428,0.0274 0.28963,-0.064 0.28963,-0.22049 0,-0.15557 -0.14499,-0.24779 -0.28963,-0.22049"
       style="fill:#924a30;fill-opacity:1;fill-rule:nonzero;stroke:none;stroke-width:0.0352778"
       id="path2266" />
    <path
       d="m 109.12477,169.55648 -0.0222,0.003 c -0.14817,0.0187 -0.29386,0.11783 -0.28646,0.28611 0.008,0.17141 0.12665,0.26567 0.28646,0.28649 l 0.0222,0.003 c 0.15029,0.0194 0.29563,-0.14704 0.28928,-0.28924 -0.007,-0.14002 -0.12876,-0.31006 -0.28928,-0.28928"
       style="fill:#924a30;fill-opacity:1;fill-rule:nonzero;stroke:none;stroke-width:0.0352778"
       id="path2268" />
    <path
       d="m 104.35134,168.68473 c -0.24271,-0.18545 -0.54293,-0.29379 -0.84173,-0.36971 -0.73307,-0.18521 -1.41005,-0.31433 -2.17029,-0.23908 -0.48507,0.0479 -0.97084,0.16577 -1.391002,0.41201 -0.420158,0.24695 -0.771877,0.63253 -0.91193,1.09926 -0.237067,0.78771 0.464608,0.89891 1.069972,0.97677 0.73413,0.0949 1.47285,0.18947 2.21263,0.15737 0.87947,-0.0391 3.47309,-0.62233 2.16535,-1.92084 -0.0416,-0.0416 -0.0864,-0.0798 -0.133,-0.11578"
       style="fill:#a25a3f;fill-opacity:1;fill-rule:nonzero;stroke:none;stroke-width:0.0352778"
       id="path2270" />
    <path
       d="m 103.42389,168.91199 c -0.16757,0 -0.16793,0.26031 0,0.26031 0.16756,0 0.16792,-0.26031 0,-0.26031"
       style="fill:#924a30;fill-opacity:1;fill-rule:nonzero;stroke:none;stroke-width:0.0352778"
       id="path2272" />
    <path
       d="m 101.71644,168.22436 -0.0268,-0.008 c -0.11677,-0.0371 -0.27234,0.0225 -0.32914,0.13366 -0.0519,0.10157 -0.0519,0.19266 0,0.2938 0.0564,0.11052 0.21166,0.17074 0.32914,0.13409 l 0.0268,-0.009 c 0.26776,-0.0844 0.26846,-0.45971 0,-0.54472"
       style="fill:#924a30;fill-opacity:1;fill-rule:nonzero;stroke:none;stroke-width:0.0352778"
       id="path2274" />
    <path
       d="m 102.65024,168.40886 c -0.32632,0 -0.32667,0.50655 0,0.50655 0.32597,0 0.32668,-0.50655 0,-0.50655"
       style="fill:#924a30;fill-opacity:1;fill-rule:nonzero;stroke:none;stroke-width:0.0352778"
       id="path2276" />
    <path
       d="m 103.2983,169.5212 c -0.22261,0 -0.22296,0.34576 0,0.34576 0.22225,0 0.2226,-0.34576 0,-0.34576"
       style="fill:#924a30;fill-opacity:1;fill-rule:nonzero;stroke:none;stroke-width:0.0352778"
       id="path2278" />
    <path
       d="m 104.14814,168.88871 c -0.22225,0 -0.22296,0.34572 0,0.34572 0.2226,0 0.22295,-0.34572 0,-0.34572"
       style="fill:#924a30;fill-opacity:1;fill-rule:nonzero;stroke:none;stroke-width:0.0352778"
       id="path2280" />
    <path
       d="m 111.32293,164.41901 c -0.24553,-0.11285 -0.47237,-0.11148 -0.73907,-0.0854 -0.50235,0.049 -0.83432,0.16729 -1.3596,0.09 -0.25718,-0.0377 -0.50906,-0.10759 -0.76694,-0.14538 -0.49671,-0.073 -1.00718,-0.0769 -1.50248,0.01 -0.2473,0.0437 -0.49107,0.11035 -0.72425,0.20422 -0.21097,0.0854 -0.3803,0.1535 -0.54646,0.31571 -0.0526,0.0512 -0.10513,0.10265 -0.15769,0.15391 -0.24871,0.24268 -0.55562,0.51717 -0.53587,0.89669 0.0176,0.33874 0.28893,0.60745 0.59584,0.71547 0.2914,0.10266 0.58279,0.0441 0.88265,0.0176 0.79234,-0.0692 1.26189,0.12555 1.98508,0.36259 0.98567,0.32286 2.038,0.20365 3.02895,-0.0744 0.45967,-0.12912 0.93628,-0.3496 0.91934,-0.89669 -0.0176,-0.56762 -0.56797,-1.32966 -1.0795,-1.56422"
       style="fill:#a25a3f;fill-opacity:1;fill-rule:nonzero;stroke:none;stroke-width:0.0352778"
       id="path2282" />
    <path
       d="m 106.32689,165.05045 c -0.0991,-0.0907 -0.23777,-0.0893 -0.33655,0 l -0.0198,0.0181 c -0.0931,0.0839 -0.0917,0.25397 0,0.33828 0.0914,0.0839 0.24835,0.0991 0.33831,0 l 0.018,-0.0201 c 0.0833,-0.092 0.0977,-0.24624 0,-0.33623"
       style="fill:#924a30;fill-opacity:1;fill-rule:nonzero;stroke:none;stroke-width:0.0352778"
       id="path2284" />
    <path
       d="m 107.65545,164.59113 -0.009,-0.0169 c -0.0917,-0.17032 -0.36018,-0.17032 -0.45191,0 l -0.009,0.0169 c -0.097,0.17957 0.0233,0.40958 0.23495,0.40958 0.21167,0 0.33197,-0.23001 0.2353,-0.40958"
       style="fill:#924a30;fill-opacity:1;fill-rule:nonzero;stroke:none;stroke-width:0.0352778"
       id="path2286" />
    <path
       d="m 106.76363,164.55063 c -0.2226,0 -0.22295,0.34562 0,0.34562 0.22225,0 0.22261,-0.34562 0,-0.34562"
       style="fill:#924a30;fill-opacity:1;fill-rule:nonzero;stroke:none;stroke-width:0.0352778"
       id="path2288" />
    <path
       d="m 110.8802,164.58866 c -0.15346,0 -0.30092,0.13519 -0.29387,0.29394 0.007,0.15945 0.12912,0.29421 0.29387,0.29421 0.15381,0 0.30127,-0.13546 0.29421,-0.29421 -0.007,-0.15918 -0.12911,-0.29394 -0.29421,-0.29394"
       style="fill:#924a30;fill-opacity:1;fill-rule:nonzero;stroke:none;stroke-width:0.0352778"
       id="path2290" />
    <path
       d="m 109.69204,165.18976 0.004,0.003 -0.004,-0.003"
       style="fill:#924a30;fill-opacity:1;fill-rule:nonzero;stroke:none;stroke-width:0.0352778"
       id="path2292" />
    <path
       d="m 109.75872,165.26709 -0.006,-0.0141 -0.0607,-0.0632 c -0.11888,-0.10432 -0.34184,-0.0349 -0.33196,0.14154 0.003,0.0479 0.01,0.0889 0.037,0.12939 0.0582,0.0865 0.18591,0.14154 0.28187,0.0737 l 0.0183,-0.012 c 0.0875,-0.0539 0.11536,-0.17103 0.0614,-0.25534"
       style="fill:#924a30;fill-opacity:1;fill-rule:nonzero;stroke:none;stroke-width:0.0352778"
       id="path2294" />
    <path
       d="m 110.2071,164.50862 c -0.27658,0 -0.27693,0.42965 0,0.42965 0.27657,0 0.27693,-0.42965 0,-0.42965"
       style="fill:#924a30;fill-opacity:1;fill-rule:nonzero;stroke:none;stroke-width:0.0352778"
       id="path2296" />
  </g>
</svg>
