<?xml version="1.0" encoding="UTF-8" standalone="no"?>
<svg
   xmlns:dc="http://purl.org/dc/elements/1.1/"
   xmlns:cc="http://creativecommons.org/ns#"
   xmlns:rdf="http://www.w3.org/1999/02/22-rdf-syntax-ns#"
   xmlns:svg="http://www.w3.org/2000/svg"
   xmlns="http://www.w3.org/2000/svg"
   xmlns:sodipodi="http://sodipodi.sourceforge.net/DTD/sodipodi-0.dtd"
   xmlns:inkscape="http://www.inkscape.org/namespaces/inkscape"
   width="210mm"
   height="297mm"
   viewBox="0 0 210 297"
   version="1.1"
   id="svg9918"
   inkscape:version="1.0.2 (e86c8708, 2021-01-15)"
   sodipodi:docname="sea_plant4.svg">
  <defs
     id="defs9912" />
  <sodipodi:namedview
     id="base"
     pagecolor="#ffffff"
     bordercolor="#666666"
     borderopacity="1.0"
     inkscape:pageopacity="0.0"
     inkscape:pageshadow="2"
     inkscape:zoom="0.35"
     inkscape:cx="400"
     inkscape:cy="560"
     inkscape:document-units="mm"
     inkscape:current-layer="layer1"
     inkscape:document-rotation="0"
     showgrid="false"
     inkscape:window-width="1252"
     inkscape:window-height="1005"
     inkscape:window-x="0"
     inkscape:window-y="23"
     inkscape:window-maximized="0" />
  <metadata
     id="metadata9915">
    <rdf:RDF>
      <cc:Work
         rdf:about="">
        <dc:format>image/svg+xml</dc:format>
        <dc:type
           rdf:resource="http://purl.org/dc/dcmitype/StillImage" />
        <dc:title></dc:title>
      </cc:Work>
    </rdf:RDF>
  </metadata>
  <g
     inkscape:label="Layer 1"
     inkscape:groupmode="layer"
     id="layer1">
    <path
       d="m 111.73963,202.28644 c -0.55527,-0.98883 -0.34396,-1.88524 0.12595,-2.85644 0.0483,-0.10019 0.1023,-0.19544 0.15416,-0.2921 0.37535,1.6189 0.87912,3.21451 1.35714,4.79707 -0.63324,-0.45438 -1.25413,-0.96661 -1.63725,-1.64853 z m 39.51782,-18.85668 c -1.79634,-0.0476 -4.75509,0.33338 -5.57248,2.26554 -0.37006,0.121 -0.73307,0.26317 -1.08373,0.43921 -1.27635,0.63923 -2.21968,1.70074 -3.09951,2.79753 -1.02517,1.27811 -2.01859,2.47685 -3.35915,3.44523 -1.38888,1.00365 -2.94111,1.75224 -4.52755,2.38583 -0.71755,0.28681 -1.36207,0.49354 -2.11137,0.74436 0.75812,-1.08338 1.70286,-1.85102 2.6416,-2.77636 0.44944,-0.44309 0.88406,-0.9017 1.30457,-1.3723 3.56905,-3.43994 4.96676,-2.15618 6.63399,-4.8066 0.0289,-0.0459 0.10618,-0.28575 0.0716,-0.24201 -1.90147,2.39642 -3.85939,2.43735 -5.38515,3.45052 0.0317,-0.0413 0.0653,-0.0815 0.0967,-0.12312 0.75741,-1.00718 1.40194,-2.08985 2.12478,-3.12067 0.87312,-1.24495 1.81222,-2.14524 3.07446,-2.98379 0.0699,-0.0462 0.45967,-0.39123 0.37359,-0.35948 -1.65488,0.61171 -3.19828,2.38971 -4.19277,3.91795 0.0974,-0.58491 0.11325,-1.18851 0.21308,-1.77271 0.17886,-1.04916 0.64171,-1.89371 1.46544,-2.57175 l -0.0339,-0.0427 c -1.8482,0.95991 -1.74483,3.14184 -2.01647,4.96112 -0.28505,0.44132 -0.56551,0.86959 -0.85161,1.25941 -1.00436,1.36843 -2.1209,2.65501 -3.36127,3.81459 -0.99307,0.92816 -2.04611,1.76636 -2.78306,2.92629 l -0.0282,0.0804 c -1.84044,0.60008 -3.7338,1.15218 -5.54849,1.83939 0.56515,-0.58879 1.05516,-1.2566 1.56104,-1.89548 0.82268,-1.03858 1.69051,-2.06833 2.35514,-3.21909 0.10266,-0.1778 0.20285,-0.35243 0.30304,-0.52317 l 0.0109,-0.019 c 0.19297,-0.3302 0.38382,-0.647 0.5842,-0.95109 0.91651,0.34219 1.69898,0.7821 2.64795,0.3048 0.96943,-0.48719 1.86831,-1.40088 2.64865,-2.13396 0.0483,-0.0455 -0.018,-0.13088 -0.0737,-0.0921 -0.65969,0.4572 -1.26753,0.96026 -1.89971,1.4538 -0.61665,0.48118 -1.05903,0.84278 -1.97238,0.71896 -0.40604,-0.055 -0.86077,-0.24695 -1.26082,-0.38629 0.47519,-0.70027 1.01458,-1.33209 1.77694,-1.89936 1.17193,-0.87136 2.44157,-1.59138 3.58704,-2.50049 l -0.0187,-0.031 c -2.10714,1.11054 -4.55471,2.528 -5.82753,4.6235 0.16898,-0.89641 0.30515,-1.78576 0.65052,-2.65818 0.4692,-1.18533 1.20191,-2.02953 2.05811,-2.94781 0.0395,-0.0423 -0.0187,-0.1143 -0.0625,-0.0776 -1.72861,1.44533 -2.96968,4.13209 -3.02436,6.3179 -0.65899,1.09925 -1.35467,2.12301 -2.17805,3.13337 -0.84914,1.0414 -1.64359,2.25707 -2.70051,3.11115 -2.0066,0.82479 -3.8855,1.85843 -5.44513,3.36479 0.55421,-1.0227 0.97473,-2.11314 1.40018,-3.20005 0.21449,-0.54927 0.44414,-1.08973 0.67874,-1.62771 0.73307,-2.00025 2.13854,-3.53272 3.64208,-4.63268 1.58962,-1.16311 2.73262,-1.71838 4.28695,-2.92735 0.10866,-0.0843 0.63007,-0.52882 0.50659,-0.45262 -1.30175,0.80187 -3.26037,1.94346 -4.52684,2.86703 0.21025,-0.62406 0.40605,-1.30246 0.78599,-1.81293 0.43391,-0.58208 1.16346,-1.21708 1.87219,-1.6069 0.0519,-0.0282 -0.28681,0.0674 -0.34537,0.0924 -1.55293,0.66781 -2.1336,2.13007 -2.67723,3.59622 -0.36654,0.2734 -0.72778,0.54962 -1.07738,0.83008 -0.54046,0.43392 -0.95003,0.95779 -1.31304,1.53882 0.15875,-0.32738 0.31891,-0.65405 0.48295,-0.98037 0.76306,-1.51694 1.50566,-3.04271 2.03729,-4.65878 0.47413,-1.43969 0.95285,-3.12632 0.71649,-4.64997 -0.0145,-0.0928 -0.14993,-0.58843 -0.14746,-0.49706 0.054,2.22991 -0.43427,3.77472 -1.01988,5.40279 -0.60395,1.67958 -1.41182,3.28436 -2.20345,4.88139 -0.1404,0.28363 -0.27552,0.56973 -0.40852,0.85725 -0.0423,-1.22379 -0.55844,-2.43876 -0.8583,-3.62656 -0.59197,-2.34597 -0.37289,-5.40032 1.95333,-6.65586 0.055,-0.0296 0.0141,-0.11112 -0.0427,-0.097 -1.92052,0.47837 -2.34244,2.82681 -2.37666,4.50144 -0.0247,1.21709 0.1591,2.27824 0.53199,3.43429 0.21837,0.67699 0.40957,1.35361 0.44908,2.0694 0.0251,0.4632 -0.0399,0.91334 -0.1016,1.36596 -1.01035,2.3188 -1.88136,4.7057 -3.10691,6.91303 -0.20602,0.24483 -0.4064,0.49706 -0.59726,0.76447 -0.97895,1.37301 -1.50177,2.91782 -1.82421,4.56142 -0.14852,0.75741 -0.31432,1.53634 -0.46496,2.32163 -0.20779,-1.75049 -0.70591,-3.50273 -1.16946,-5.07471 -0.60607,-2.0567 -1.31127,-4.10281 -1.76353,-6.1969 0.42615,-0.68086 0.92039,-1.29963 1.4171,-1.92828 1.54976,-0.97402 2.83351,-2.56187 4.57765,-3.12843 0.15628,-0.0508 0.68192,-0.37395 0.52458,-0.3228 -0.94968,0.30727 -2.29094,1.034 -3.06987,1.63725 -0.52,0.40287 -1.06222,0.79622 -1.57092,1.22343 0.0935,-0.12206 0.18662,-0.24553 0.27869,-0.37112 0.768,-1.04669 1.41535,-2.18123 1.8923,-3.3909 0.4438,-1.12466 1.02658,-2.52448 1.05516,-3.7398 0.003,-0.12524 -0.0113,-0.5842 -0.048,-0.47766 -0.27693,0.80363 -0.50094,2.12407 -0.79057,2.93793 -0.31786,0.89253 -0.74048,1.75684 -1.20474,2.58234 -0.81386,1.44603 -1.92229,2.59926 -2.89207,3.92712 -0.0967,0.13194 -0.1965,0.27199 -0.29739,0.41804 -0.1965,-1.0414 -0.32279,-2.09585 -0.33514,-3.17041 -0.0212,-1.83904 0.35278,-3.55142 1.09996,-5.22747 0.58879,-1.31974 1.37513,-3.38208 1.41393,-4.86374 0.004,-0.16863 -0.23036,0.49565 -0.27058,0.65652 -0.43991,1.75471 -1.25095,3.25966 -1.90853,4.92865 -0.52281,1.32857 -0.76376,2.74109 -0.77787,4.16596 -0.0131,1.36348 0.16228,2.7058 0.43709,4.03154 -0.57503,0.92675 -1.0601,2.0186 -0.88018,3.02754 0.25224,1.41358 1.48273,2.28106 2.57104,3.06105 1.00401,3.36233 2.02989,7.13035 0.51189,10.4701 -1.26013,2.77248 -1.81117,5.79578 -1.15112,8.83144 0.0504,0.23177 0.37642,0.15098 0.38947,-0.0596 0.11112,-1.76813 -0.18345,-3.49991 0.10795,-5.2698 0.26811,-1.62877 1.14758,-2.96651 1.60796,-4.52085 0.17674,-0.59619 0.27552,-1.2132 0.3182,-1.84114 0.14394,-0.63289 0.25295,-1.27565 0.35419,-1.91982 0.79516,-1.83515 2.32834,-3.34574 3.50803,-4.95335 0.17674,-0.24095 0.35665,-0.48013 0.54186,-0.71614 1.55187,-1.01565 3.12173,-0.8629 4.95935,-0.81033 1.4598,0.042 3.16901,-0.33161 4.34411,-1.23755 0.0459,-0.0349 0.41592,-0.28857 0.35172,-0.26176 -0.81845,0.34431 -1.97203,0.90664 -2.85292,1.08162 -1.11583,0.22119 -2.2419,0.18591 -3.37185,0.15487 -0.93803,-0.0254 -2.0701,0.01 -2.93793,0.4759 0.5013,-0.57856 1.05057,-1.11267 1.69228,-1.54023 1.20015,-0.8001 2.49907,-0.90488 3.89502,-1.02623 2.68675,-0.23354 5.37492,-0.44309 8.06344,-0.65264 2.11243,-0.16404 4.59458,-0.15699 6.3634,-1.48449 0.0653,-0.0487 0.008,-0.13935 -0.0649,-0.10654 -2.67053,1.19592 -5.49134,1.26506 -8.36612,1.48202 -1.27776,0.0963 -2.36044,0.14464 -3.63891,0.2346 0.80857,-0.68298 1.44463,-1.33068 2.34703,-1.88842 0.0289,0.0504 0.52917,-0.6791 2.9457,-1.07209 1.07068,-0.17428 2.16076,-0.19509 3.2385,-0.3168 1.15111,-0.12982 2.25954,-0.34008 3.42336,-0.27622 0.0956,0.005 0.0931,-0.14464 -0.002,-0.14923 -2.42182,-0.12382 -5.07542,0.0684 -7.46408,0.48825 -0.11289,0.0197 -0.22436,0.0459 -0.33478,0.0758 0.13829,-0.12312 0.27904,-0.242 0.42756,-0.34889 0.84596,-0.60784 1.78435,-0.85867 2.75061,-1.19451 0.0783,-0.0272 0.0667,-0.15416 -0.0229,-0.14887 -1.52647,0.084 -2.71603,1.06609 -3.88796,2.06833 -0.59443,0.28787 -1.1684,0.64559 -1.70604,0.99096 -0.77258,0.49706 -1.04034,0.6424 -2.27753,1.85137 -0.037,0.002 -0.0744,0.006 -0.11148,0.008 -1.2767,0.0857 -2.61373,0.0617 -3.86679,0.34431 -2.21651,0.50059 -3.67348,2.33045 -4.94242,4.07776 -0.76412,1.05198 -1.61855,2.03447 -2.37984,3.08575 -0.15487,0.21378 -0.30939,0.43674 -0.45403,0.66851 0.28223,-1.82174 0.61348,-3.62726 1.5748,-5.25427 1.50848,-2.55341 4.08588,-4.28202 6.75358,-5.45465 0.0427,0.0208 0.0938,0.0229 0.14641,-0.0148 0.0497,-0.0349 0.0956,-0.0744 0.14358,-0.11077 3.163,-1.34373 6.66503,-2.13431 9.87072,-3.45299 l 0.073,0.0166 c 2.42747,0.0459 4.79955,-1.06256 7.07673,-1.77623 1.16522,-0.36513 2.34032,-0.77788 3.53518,-1.0347 1.46474,-0.31503 2.75238,-0.0829 4.17019,0.30057 0.0356,0.01 0.054,-0.0402 0.0236,-0.0589 -2.05,-1.2633 -4.40549,-0.48436 -6.51934,0.14958 -1.3469,0.40393 -2.68922,0.82338 -4.02555,1.26083 -1.18074,0.38629 -2.32692,0.74577 -3.55176,0.8068 2.00307,-0.89747 3.86574,-2.04435 5.42325,-3.71934 0.62406,-0.67133 1.18145,-1.41605 1.7847,-2.11455 2.06728,-1.53387 4.69759,-0.62724 6.97548,-1.65558 0.11677,-0.0526 0.0275,-0.2286 -0.0878,-0.19862 -1.52012,0.3937 -3.02401,0.35701 -4.55966,0.59973 -0.52493,0.0825 -1.05904,0.21307 -1.5494,0.42756 0.22366,-0.2159 0.45473,-0.42368 0.70485,-0.61171 1.44392,-1.08691 3.29072,-1.59597 5.02462,-1.87149 0.32208,-0.0512 3.30694,-0.43709 3.25825,-0.59302 -0.12206,-0.39017 -5.14667,0.53587 -5.99898,0.77223 0.53622,-0.64417 1.1049,-1.1236 1.98402,-1.43298 1.02129,-0.35984 2.47544,-0.47661 3.53554,-0.61489 0.13158,-0.0173 -0.2413,-0.0822 -0.37959,-0.0854"
       style="fill:#dd7959;fill-opacity:1;fill-rule:nonzero;stroke:none;stroke-width:0.0352778"
       id="path1636" />
  </g>
</svg>
