<?xml version="1.0" encoding="UTF-8" standalone="no"?>
<svg
   xmlns:dc="http://purl.org/dc/elements/1.1/"
   xmlns:cc="http://creativecommons.org/ns#"
   xmlns:rdf="http://www.w3.org/1999/02/22-rdf-syntax-ns#"
   xmlns:svg="http://www.w3.org/2000/svg"
   xmlns="http://www.w3.org/2000/svg"
   xmlns:sodipodi="http://sodipodi.sourceforge.net/DTD/sodipodi-0.dtd"
   xmlns:inkscape="http://www.inkscape.org/namespaces/inkscape"
   width="210mm"
   height="297mm"
   viewBox="0 0 210 297"
   version="1.1"
   id="svg9339"
   inkscape:version="1.0.2 (e86c8708, 2021-01-15)"
   sodipodi:docname="sea_plant.svg">
  <defs
     id="defs9333" />
  <sodipodi:namedview
     id="base"
     pagecolor="#ffffff"
     bordercolor="#666666"
     borderopacity="1.0"
     inkscape:pageopacity="0.0"
     inkscape:pageshadow="2"
     inkscape:zoom="0.35"
     inkscape:cx="400"
     inkscape:cy="560"
     inkscape:document-units="mm"
     inkscape:current-layer="layer1"
     inkscape:document-rotation="0"
     showgrid="false"
     inkscape:window-width="1252"
     inkscape:window-height="1005"
     inkscape:window-x="0"
     inkscape:window-y="23"
     inkscape:window-maximized="0" />
  <metadata
     id="metadata9336">
    <rdf:RDF>
      <cc:Work
         rdf:about="">
        <dc:format>image/svg+xml</dc:format>
        <dc:type
           rdf:resource="http://purl.org/dc/dcmitype/StillImage" />
        <dc:title></dc:title>
      </cc:Work>
    </rdf:RDF>
  </metadata>
  <g
     inkscape:label="Layer 1"
     inkscape:groupmode="layer"
     id="layer1">
    <path
       d="m 101.6955,180.16517 c -1.988965,-2.19322 -3.037773,-4.79284 -3.58987,-7.69091 -0.71755,-3.76414 0.225425,-7.31626 1.274939,-10.91812 1.909581,-6.5532 2.796121,-13.43413 2.137481,-20.25121 -0.34149,-3.53942 -0.95497,-7.51381 -2.801409,-10.6172 -0.238831,-0.40181 -0.914753,-0.14111 -0.769408,0.32455 1.053394,3.3708 2.091967,6.58601 2.452157,10.12649 0.3623,3.56694 0.28857,7.17409 -0.11924,10.73397 -0.416981,3.63855 -1.305981,7.13423 -2.299051,10.65036 -0.95638,3.38526 -1.550811,6.72959 -0.869244,10.22562 0.303741,1.55787 0.770466,3.08787 1.420636,4.53672 0.583494,1.29964 1.381831,2.80247 2.656769,3.53554 0.42016,0.24166 0.82127,-0.30833 0.50624,-0.65581"
       style="fill:#599592;fill-opacity:1;fill-rule:nonzero;stroke:none;stroke-width:0.0352778"
       id="path2088" />
    <path
       d="m 102.63353,180.30064 c 1.64077,-3.11115 1.50601,-6.55179 1.40794,-9.96704 -0.0519,-1.80763 -0.10336,-3.6523 0.26105,-5.43313 0.37395,-1.82597 1.30211,-3.40501 2.34033,-4.93007 2.19569,-3.22544 4.55472,-6.13304 5.71324,-9.92893 0.57397,-1.8803 0.95074,-3.80788 1.29117,-5.74146 0.3429,-1.94592 0.80468,-3.90419 0.92992,-5.87904 0.29386,-4.63762 -1.06857,-9.18527 -1.03188,-13.81725 0.004,-0.47413 -0.69462,-0.46319 -0.72884,0 -0.29809,4.03966 0.70027,7.97349 0.78705,11.99621 0.0444,2.05352 -0.33196,4.00932 -0.68298,6.02086 -0.33831,1.9364 -0.65757,3.8795 -1.15146,5.78415 -0.51012,1.96744 -1.24778,3.85268 -2.30541,5.59188 -0.96379,1.58503 -2.11772,3.04588 -3.19228,4.55471 -1.02447,1.43863 -2.05423,2.94393 -2.65254,4.61822 -0.54469,1.52505 -0.69391,3.17182 -0.72249,4.78084 -0.0702,3.91795 0.73766,8.21408 -1.1049,11.85757 -0.28187,0.55739 0.54822,1.05022 0.84208,0.49248"
       style="fill:#599592;fill-opacity:1;fill-rule:nonzero;stroke:none;stroke-width:0.0352778"
       id="path2090" />
    <path
       d="m 100.50805,180.41917 c -6.06884,-2.01083 -10.69799,-9.38142 -9.107668,-15.72754 0.466372,-1.86196 1.399117,-3.55318 2.195336,-5.28532 0.721078,-1.56739 1.217437,-3.15418 1.613606,-4.82988 0.704497,-2.97956 1.581503,-6.57225 0.618067,-9.58709 -0.610659,-1.91029 -2.047875,-3.36656 -3.139723,-5.00027 -1.313039,-1.96392 -1.13418,-4.19841 -1.859491,-6.35423 -0.137937,-0.41064 -0.868892,-0.37642 -0.807156,0.109 0.2286,1.81046 0.295628,3.74686 1.020586,5.44548 0.77082,1.80552 2.261659,3.18276 3.220861,4.88068 1.805517,3.19335 0.591962,7.43303 -0.252236,10.75055 -0.497064,1.95228 -1.259769,3.72992 -2.123016,5.54532 -0.795514,1.67287 -1.570567,3.38278 -1.815395,5.23593 -0.418042,3.16371 0.462139,6.41949 2.0701,9.14258 1.833386,3.10445 4.621036,5.57777 8.119179,6.57014 0.57891,0.16439 0.81069,-0.70873 0.24695,-0.89535"
       style="fill:#599592;fill-opacity:1;fill-rule:nonzero;stroke:none;stroke-width:0.0352778"
       id="path2092" />
    <path
       d="m 102.08567,181.21398 c 3.23109,-3.58881 6.47347,-7.59496 7.61929,-12.39591 0.6089,-2.55094 -0.0843,-5.42078 1.00789,-7.83414 1.09855,-2.4264 3.31576,-3.87032 4.9597,-5.85822 0.30198,-0.36548 -0.14922,-0.80822 -0.51505,-0.51541 -1.83515,1.46685 -3.74439,3.2833 -4.91384,5.3407 -1.30034,2.28776 -0.84385,4.77838 -1.27459,7.26475 -0.90241,5.21159 -4.1469,9.45092 -7.57767,13.30396 -0.41875,0.47025 0.27023,1.16558 0.69427,0.69427"
       style="fill:#599592;fill-opacity:1;fill-rule:nonzero;stroke:none;stroke-width:0.0352778"
       id="path2094" />
    <path
       d="m 101.63235,180.94587 c 1.2633,-3.44594 1.13383,-7.36953 1.05092,-10.98127 -0.0423,-1.83797 -0.17391,-3.70276 -0.0187,-5.53755 0.16298,-1.92688 0.6985,-3.79201 1.31268,-5.61764 1.21744,-3.62232 2.40771,-7.11341 2.67865,-10.95869 0.28151,-3.9938 -0.1771,-7.99465 -0.72849,-11.94576 -0.33655,-2.41229 -0.7172,-4.81824 -1.01671,-7.23583 -0.28786,-2.32374 -0.39617,-4.66125 -0.66534,-6.98429 -0.0653,-0.56374 -0.82126,-0.56938 -0.88194,0 -0.41981,3.93241 0.43109,8.07544 0.9966,11.95776 0.5969,4.10033 1.20191,8.22607 1.12853,12.38109 -0.0713,4.04706 -1.08197,7.73465 -2.40135,11.52631 -0.57292,1.64606 -1.12466,3.30693 -1.43264,5.02637 -0.32949,1.83833 -0.31785,3.67383 -0.27587,5.53368 0.0956,4.2171 0.26494,8.41974 -0.88618,12.52149 -0.20849,0.74295 0.8816,1.01812 1.13983,0.31433"
       style="fill:#4fab62;fill-opacity:1;fill-rule:nonzero;stroke:none;stroke-width:0.0352778"
       id="path2096" />
    <path
       d="m 101.2203,180.21562 c -1.379356,-0.44733 -2.499073,-1.70145 -3.411004,-2.76896 -1.265414,-1.48131 -2.345972,-3.12243 -3.349978,-4.7886 -1.811161,-3.00567 -4.278841,-6.72677 -3.522486,-10.38543 0.420158,-2.03306 1.502128,-3.85198 2.341739,-5.7277 0.969434,-2.16535 1.562453,-4.42419 2.020711,-6.74723 0.503767,-2.5534 0.835025,-5.14032 1.06927,-7.73148 0.2286,-2.52483 0.463903,-5.10857 0.398992,-7.6454 -0.07373,-2.90336 -0.726723,-5.75345 -1.44392,-8.55486 -0.754239,-2.94781 -1.497894,-5.8741 -2.090561,-8.86036 -0.09031,-0.45403 -0.826206,-0.35172 -0.807509,0.10936 0.229306,5.58764 2.788709,10.81722 3.15454,16.40311 0.177447,2.71003 -0.103012,5.48675 -0.353131,8.1855 -0.258233,2.78306 -0.63112,5.55907 -1.201561,8.29698 -0.509411,2.4444 -1.206853,4.73146 -2.302581,6.97759 -0.883356,1.81116 -1.852789,3.62762 -2.125486,5.6508 -0.497064,3.69323 1.752953,7.27569 3.564467,10.33074 1.114425,1.87925 2.329392,3.72004 3.75038,5.38374 1.068564,1.25095 2.347737,2.58904 3.992388,3.01837 0.74401,0.19403 1.04069,-0.91087 0.31573,-1.14617"
       style="fill:#4fab62;fill-opacity:1;fill-rule:nonzero;stroke:none;stroke-width:0.0352778"
       id="path2098" />
    <path
       d="m 101.77381,179.80745 c 2.30999,-4.50391 3.53272,-9.56627 5.15232,-14.34112 1.60549,-4.73181 3.41383,-9.68869 6.44525,-13.71953 2.67829,-3.55988 6.38599,-6.38916 8.08814,-10.62249 2.03306,-5.05496 -0.96379,-9.54899 -2.83845,-14.10335 -2.25108,-5.46806 -3.72075,-11.30159 -1.90359,-17.10161 0.1464,-0.46743 -0.57362,-0.78317 -0.8001,-0.33691 -2.27365,4.47993 -1.02023,10.11697 0.50095,14.63217 0.76588,2.27259 1.73672,4.43406 2.74637,6.60541 1.09961,2.36538 2.19146,4.91702 1.92123,7.58649 -0.49213,4.86339 -4.92619,8.22431 -7.84613,11.72033 -3.16795,3.79201 -5.12763,8.47867 -6.78321,13.08771 -1.93146,5.37704 -3.6696,10.83204 -5.54355,16.23025 -0.17428,0.502 0.61736,0.83749 0.86077,0.36265"
       style="fill:#4fab62;fill-opacity:1;fill-rule:nonzero;stroke:none;stroke-width:0.0352778"
       id="path2100" />
    <path
       d="m 105.7662,180.3973 c -0.54257,-0.26388 -1.27353,-0.23848 -1.77624,0.1277 -0.20814,0.15134 -0.45579,0.46461 -0.46884,0.73872 -0.0201,0.42227 0.47802,0.48436 0.80751,0.48436 0.47766,-3.5e-4 1.94486,-0.28645 1.72438,-1.05868 -0.037,-0.12877 -0.1457,-0.22331 -0.28681,-0.2921"
       style="fill:#dcba99;fill-opacity:1;fill-rule:nonzero;stroke:none;stroke-width:0.0352778"
       id="path2102" />
    <path
       d="m 101.50958,181.24749 c -0.44309,-1.03681 -2.087031,-0.042 -2.610553,0.39829 -0.05045,0.042 -0.09984,0.0861 -0.135114,0.14181 -0.04692,0.0741 -0.06456,0.16263 -0.08114,0.24871 -0.0187,0.0967 -0.03739,0.19826 -0.0088,0.29316 0.09984,0.33408 0.923219,0.18486 1.16205,0.15663 0.607487,-0.0716 2.076807,-0.29527 1.673577,-1.2386"
       style="fill:#dcba99;fill-opacity:1;fill-rule:nonzero;stroke:none;stroke-width:0.0352778"
       id="path2104" />
    <path
       d="m 97.655485,181.35756 c -0.04798,-0.043 -0.119239,-0.043 -0.180269,-0.0483 -0.103011,-0.008 -0.206728,0.0236 -0.310092,7e-4 -0.07161,-0.0159 -0.136172,-0.0473 -0.209197,-0.06 -0.263172,-0.0462 -0.512233,0.0367 -0.741892,0.16193 -0.324908,0.0543 -0.668161,0.18309 -0.601133,0.4646 0.04198,0.17675 0.201436,0.21661 0.363714,0.22084 0.390525,0.009 0.8255,-0.0423 1.21285,-0.0952 0.220839,-0.0303 0.794103,-0.35066 0.466019,-0.64452"
       style="fill:#dcba99;fill-opacity:1;fill-rule:nonzero;stroke:none;stroke-width:0.0352778"
       id="path2106" />
    <path
       d="m 98.201585,183.26044 c -0.04586,-0.13017 -0.165452,-0.14287 -0.283633,-0.14217 -0.198614,7.1e-4 -0.396875,0.0152 -0.594078,0.0374 l -0.05715,-0.0141 c -0.277636,-0.018 -0.614186,0.18274 -0.584553,0.49601 0.03634,0.38633 0.424392,0.33232 0.691798,0.22966 0.218722,-0.0833 0.462491,-0.16757 0.666397,-0.28293 0.113242,-0.0639 0.210608,-0.18415 0.161219,-0.32385"
       style="fill:#dcba99;fill-opacity:1;fill-rule:nonzero;stroke:none;stroke-width:0.0352778"
       id="path2108" />
    <path
       d="m 104.2101,182.59722 c -0.34361,0.002 -0.7613,0.0526 -1.00613,0.31891 -0.14146,0.15381 -0.0497,0.43991 0.17886,0.4318 0.28328,-0.0106 0.54011,-0.11642 0.82727,-0.10689 0.41381,0.013 0.41557,-0.64629 0,-0.64382"
       style="fill:#dcba99;fill-opacity:1;fill-rule:nonzero;stroke:none;stroke-width:0.0352778"
       id="path2110" />
  </g>
</svg>
