<?xml version="1.0" encoding="UTF-8" standalone="no"?>
<svg
   xmlns:dc="http://purl.org/dc/elements/1.1/"
   xmlns:cc="http://creativecommons.org/ns#"
   xmlns:rdf="http://www.w3.org/1999/02/22-rdf-syntax-ns#"
   xmlns:svg="http://www.w3.org/2000/svg"
   xmlns="http://www.w3.org/2000/svg"
   xmlns:sodipodi="http://sodipodi.sourceforge.net/DTD/sodipodi-0.dtd"
   xmlns:inkscape="http://www.inkscape.org/namespaces/inkscape"
   width="210mm"
   height="297mm"
   viewBox="0 0 210 297"
   version="1.1"
   id="svg9753"
   inkscape:version="1.0.2 (e86c8708, 2021-01-15)"
   sodipodi:docname="sea_plant3.svg">
  <defs
     id="defs9747" />
  <sodipodi:namedview
     id="base"
     pagecolor="#ffffff"
     bordercolor="#666666"
     borderopacity="1.0"
     inkscape:pageopacity="0.0"
     inkscape:pageshadow="2"
     inkscape:zoom="0.35"
     inkscape:cx="400"
     inkscape:cy="560"
     inkscape:document-units="mm"
     inkscape:current-layer="layer1"
     inkscape:document-rotation="0"
     showgrid="false"
     inkscape:window-width="1252"
     inkscape:window-height="1005"
     inkscape:window-x="0"
     inkscape:window-y="23"
     inkscape:window-maximized="0" />
  <metadata
     id="metadata9750">
    <rdf:RDF>
      <cc:Work
         rdf:about="">
        <dc:format>image/svg+xml</dc:format>
        <dc:type
           rdf:resource="http://purl.org/dc/dcmitype/StillImage" />
        <dc:title></dc:title>
      </cc:Work>
    </rdf:RDF>
  </metadata>
  <g
     inkscape:label="Layer 1"
     inkscape:groupmode="layer"
     id="layer1">
    <path
       d="m 120.63868,122.08567 c -0.70591,-0.35102 -1.65841,0.37218 -2.0514,0.96661 -0.56797,0.86007 -0.49248,2.14947 -0.62936,3.14537 -0.7433,0.78563 -1.48837,1.5695 -2.24755,2.33644 0.0713,-0.59407 0.0706,-1.16381 -0.11606,-1.73813 -0.17815,-0.54822 -0.44591,-1.07456 -1.00259,-1.2887 -0.64665,-0.24941 -0.90841,0.5528 -0.91864,1.21673 -0.0162,1.05869 0.84561,1.71309 1.42875,2.41688 -0.87136,0.8576 -1.76741,1.68557 -2.70474,2.46239 0.0991,-0.72284 0.11676,-1.41111 -0.10901,-2.10538 -0.20003,-0.61524 -0.50024,-1.20579 -1.12501,-1.44603 -0.72567,-0.2794 -1.01953,0.62018 -1.03047,1.36525 -0.0183,1.19027 0.9525,1.92546 1.60691,2.71639 -0.91581,0.71825 -1.87502,1.38288 -2.89349,1.97449 0.36654,-0.85442 0.64947,-1.65911 0.57503,-2.55764 -0.0533,-0.64487 -0.2099,-1.28869 -0.76235,-1.66617 -0.64206,-0.43885 -1.13453,0.36936 -1.31657,1.09185 -0.31538,1.24954 0.62019,2.24579 1.04493,3.24027 0.0219,0.0508 0.0755,0.0677 0.13123,0.079 -0.31926,0.17815 -0.64241,0.35172 -0.97402,0.5147 -1.13629,0.5588 -2.36608,0.88971 -3.53977,1.35749 -0.0857,0.0339 -0.17039,0.0706 -0.25541,0.10583 0.37183,-0.88229 0.64946,-1.72261 0.57256,-2.655 -0.0582,-0.70097 -0.2286,-1.40159 -0.82973,-1.81257 -0.69815,-0.47696 -1.23402,0.40216 -1.43228,1.1878 -0.34255,1.35819 0.67345,2.44157 1.13629,3.52284 -0.88194,0.4071 -1.73284,0.88547 -2.56293,1.38641 -0.59443,0.35948 -1.182507,0.73519 -1.761416,1.12678 0.0635,-1.02412 0.06174,-1.96357 -0.34925,-2.86668 -0.291747,-0.64064 -0.688622,-1.24213 -1.393472,-1.42557 -0.818092,-0.21343 -1.025525,0.79551 -0.946503,1.60196 0.136525,1.39489 1.460853,2.07116 2.261306,2.933 l 0.03457,0.0243 c -1.194858,0.8315 -2.337858,1.74025 -3.3782,2.75061 -0.08925,0.0864 -0.174625,0.17603 -0.262114,0.26388 -0.03493,0.0106 -0.06985,0.0219 -0.08925,0.018 -0.186972,-1.04246 -0.419805,-1.98403 -1.063978,-2.78448 -0.455789,-0.56691 -1.010355,-1.06786 -1.776589,-1.07209 -0.890058,-0.006 -0.854075,1.05622 -0.575027,1.84291 0.482952,1.36102 2.004836,1.7011 3.036358,2.35973 0.03034,0.0194 0.06456,0.0208 0.09948,0.0148 -1.199091,1.26894 -2.233789,2.68217 -3.077633,4.20193 -0.367947,-0.87876 -0.69462,-1.75683 -1.427339,-2.32445 -0.575028,-0.4452 -1.547636,-0.84596 -2.294114,-0.67275 -0.867128,0.20144 -0.600781,1.59915 0.05397,2.11738 0.912989,0.72249 2.203803,1.14476 3.321756,1.52929 -0.673806,1.3215 -1.205442,2.71639 -1.582914,4.15925 -0.33655,-0.77576 -0.73025,-1.57057 -1.333853,-2.03835 -0.575028,-0.44485 -1.48837,-1.02129 -2.17417,-0.46002 -0.689328,0.56338 -0.60078,1.59914 0.05398,2.11737 0.879122,0.69532 2.108906,1.11266 3.197225,1.48625 -0.36195,1.83021 -0.340077,3.62691 -0.0021,5.36078 -0.772231,-0.5672 -1.634067,-1.198 -2.513542,-1.30524 -0.721431,-0.0885 -1.800931,-0.11642 -2.103261,0.71613 -0.303742,0.83672 0.301977,1.68159 1.129241,1.79173 1.164873,0.15529 2.505076,-0.14954 3.669948,-0.39236 0.383822,1.51282 1.005417,2.973 1.816806,4.3615 -0.901348,-0.24914 -1.894064,-0.50878 -2.727678,-0.30371 -0.706262,0.1735 -1.725084,0.53082 -1.712031,1.41676 0.0134,0.89034 0.879475,1.46473 1.692275,1.27384 1.115836,-0.26208 2.232731,-0.99314 3.217334,-1.62345 0.104422,0.16193 0.210961,0.32272 0.320322,0.4826 0.814211,1.18495 1.758597,2.22 2.794706,3.16576 -0.799748,-0.12594 -1.726495,-0.26458 -2.76719,-0.1936 -0.725663,0.0497 -1.978025,0.86208 -1.835502,1.73672 0.143227,0.87838 1.433689,1.23568 2.2098,0.92812 1.080205,-0.42859 2.099733,-1.18431 2.991555,-1.94345 0.606778,0.51788 1.240367,1.01036 1.894417,1.48826 1.273175,0.92936 3.027887,2.58026 4.745567,2.16864 0.29245,-0.0699 0.23495,-0.54572 -0.072,-0.53026 -1.62807,0.0829 -3.216624,-1.42738 -4.450641,-2.32407 -0.557742,-0.40502 -1.099609,-0.82518 -1.623836,-1.26256 0.320675,-0.18672 0.724605,-0.46221 0.950383,-0.63902 0.424392,-0.33154 0.881592,-0.65331 1.255183,-1.04344 0.525287,-0.54928 0.984603,-1.55043 0.29457,-2.17315 -1.373717,-1.24023 -2.772481,1.89368 -3.042356,3.24707 -0.0053,0.0504 -0.0049,0.0948 -0.0042,0.13889 -0.995539,-0.8847 -1.908175,-1.85304 -2.681817,-2.96651 -0.1651,-0.23742 -0.324203,-0.47692 -0.476956,-0.71822 0.339725,-0.0932 0.808214,-0.12527 1.11372,-0.29877 0.468136,-0.26595 0.967669,-0.51717 1.394178,-0.84885 0.600075,-0.46591 1.200855,-1.3892 0.6096,-2.10675 -1.12395,-1.36247 -2.887134,1.33064 -3.449814,2.70827 -0.817034,-1.3892 -1.431925,-2.84085 -1.801637,-4.34096 0.329848,0.047 0.721431,0.15102 1.031523,0.10308 0.532341,-0.0821 1.088319,-0.13974 1.604786,-0.2981 0.726722,-0.22296 1.616075,-0.87242 1.318331,-1.75295 -0.553156,-1.63301 -3.049412,0.13052 -4.112331,1.22724 -0.322439,-1.67915 -0.335845,-3.41552 0.01411,-5.18894 l -0.0056,0.0526 c 0.295275,0.20284 0.627592,0.58102 0.969787,0.71896 0.499533,0.20143 1.006827,0.43674 1.531761,0.56479 0.738011,0.18027 1.834797,0.0769 2.028825,-0.8322 0.383469,-1.79458 -3.092803,-1.40899 -4.424539,-0.97014 0.04233,-0.18168 0.08714,-0.36371 0.13723,-0.54645 0.395464,-1.44145 0.934862,-2.82716 1.611137,-4.13703 0.258586,0.20885 0.540808,0.49707 0.831144,0.61384 0.499181,0.20143 1.006475,0.43638 1.531408,0.5648 0.738364,0.17991 1.834798,0.0769 2.028826,-0.83221 0.34678,-1.62136 -2.457451,-1.46297 -3.984273,-1.09361 0.791634,-1.38959 1.743428,-2.68393 2.848681,-3.85692 0.156633,0.21767 0.322086,0.44803 0.513997,0.5842 0.438856,0.31186 0.877711,0.65793 1.358547,0.90452 0.676275,0.34678 1.766712,0.50095 2.166762,-0.33831 0.654403,-1.37301 -1.617487,-1.90429 -3.210631,-1.97944 0.1143,-0.10759 0.227894,-0.2166 0.345017,-0.32243 0.860777,-0.7747 1.78188,-1.4919 2.740378,-2.15724 0.09842,0.25012 0.200377,0.51858 0.352072,0.69885 0.333375,0.39652 0.658989,0.82515 1.045985,1.16981 0.54434,0.48472 1.51377,0.88512 2.07186,0.18803 0.93169,-1.16346 -1.13876,-2.21403 -2.595028,-2.6416 0.682978,-0.44273 1.379708,-0.86219 2.083858,-1.25765 0.51611,-0.28963 1.04775,-0.53869 1.58715,-0.76659 0.008,0.26388 0.0145,0.54399 0.0945,0.76024 0.17992,0.48578 0.34149,0.99942 0.58914,1.4545 0.34854,0.63994 1.12536,1.34444 1.8863,0.87701 1.31375,-0.8068 -0.43674,-2.58586 -1.67463,-3.45228 1.28693,-0.49813 2.59397,-0.94016 3.82199,-1.58574 0.1524,-0.0801 0.3048,-0.1651 0.4572,-0.24836 0.007,0.19121 0.024,0.38171 0.0811,0.53658 0.16581,0.44662 0.31432,0.91898 0.54187,1.33738 0.32032,0.58843 1.03469,1.23578 1.73425,0.80645 1.1998,-0.73695 -0.38029,-2.35585 -1.51729,-3.15842 0.93168,-0.54998 1.85349,-1.16134 2.74743,-1.82421 0.0826,0.27869 0.14781,0.61806 0.29633,0.84137 0.26353,0.39688 0.51682,0.82233 0.83467,1.17722 0.44697,0.49918 1.29117,0.9652 1.87325,0.38629 1.0661,-1.06045 -1.18427,-2.37102 -2.45533,-2.82081 0.98637,-0.76517 1.93146,-1.5935 2.80988,-2.47191 0.0561,0.20884 0.11394,0.43074 0.21872,0.58808 0.23495,0.35348 0.46037,0.73272 0.74365,1.04916 0.39864,0.4445 1.15076,0.86007 1.6697,0.34396 0.93451,-0.92957 -0.9906,-2.07504 -2.13219,-2.49379 0.83362,-0.87842 1.59632,-1.80234 2.26484,-2.76013 1.56774,-0.87948 4.06611,-3.57011 2.29164,-4.45241"
       style="fill:#b4e0d9;fill-opacity:1;fill-rule:nonzero;stroke:none;stroke-width:0.0352778"
       id="path2030" />
    <path
       d="m 113.986,142.72952 c -0.18909,-1.22696 -2.85186,-0.4886 -3.92254,0.29951 -0.0346,0.0307 -0.0667,0.0614 -0.0984,0.0921 -0.0367,-0.6925 -0.10937,-1.38394 -0.2152,-2.07116 -0.15452,-1.00576 -0.39511,-1.98225 -0.68651,-2.94498 0.57574,-0.043 1.42452,-0.13441 1.77624,-0.25612 1.36772,-0.47272 2.11455,-1.28552 1.72403,-2.08351 -0.5461,-1.11513 -2.86809,0.38347 -3.65513,1.45415 -0.0289,0.0483 -0.0554,0.096 -0.0808,0.14288 -0.19579,-0.59161 -0.40675,-1.17934 -0.62865,-1.76601 -0.33973,-0.89676 -0.69921,-1.80128 -1.00048,-2.72168 0.52776,-0.043 1.24107,-0.12418 1.54764,-0.23001 1.26788,-0.4385 1.96038,-1.19204 1.59808,-1.93181 -0.50588,-1.03399 -2.65889,0.35525 -3.38878,1.34832 l -0.002,0.005 c -0.19156,-0.6851 -0.33937,-1.37972 -0.41099,-2.08809 -0.0547,-0.54222 -0.0854,-1.10243 -0.0903,-1.67041 0.52352,0.0773 1.34444,0.17075 1.6951,0.13018 1.31903,-0.15205 2.14983,-0.73237 1.95792,-1.52506 -0.26812,-1.10737 -2.64584,-0.22543 -3.56341,0.57856 l -0.0815,0.09 c 0.0448,-1.39629 0.25506,-2.8074 0.68051,-4.07105 0.0226,-0.0674 0.0473,-0.133 0.0709,-0.19967 0.47943,0.22613 1.20227,0.53869 1.53917,0.60042 1.30598,0.24095 2.27013,-0.0709 2.31881,-0.88441 0.0677,-1.13171 -2.43593,-0.99166 -3.55776,-0.49918 0.4572,-1.10631 1.02093,-2.16994 1.55786,-3.2445 0.47766,0.22719 1.24284,0.56127 1.59244,0.62583 1.30598,0.24059 2.27013,-0.0713 2.31881,-0.88477 0.0674,-1.12395 -2.40312,-0.99342 -3.53554,-0.50835 0.23954,-0.50236 0.46461,-1.01071 0.66463,-1.52929 0.1457,-0.15029 0.23425,-0.32562 0.44768,-0.42792 0.25259,-0.12136 0.54504,-0.14393 0.81703,-0.19438 0.84208,-0.15664 1.58221,-0.64241 1.85738,-1.48237 0.061,-0.18592 0.097,-0.38277 0.0744,-0.5768 -0.0286,-0.24271 -0.1344,-0.43709 -0.29386,-0.57714 -0.14887,-0.13053 -0.34466,-0.21308 -0.56833,-0.24165 -0.29033,-0.0378 -0.58631,0.0208 -0.86148,0.12065 -1.25024,0.45367 -1.63371,1.68874 -1.87854,3.01096 l -0.006,0.0441 c -0.41805,0.63042 -0.80434,1.29364 -1.16735,1.97415 -0.39193,-0.66005 -0.95179,-1.40265 -1.69545,-2.09198 -0.56338,-0.52281 -1.28834,-0.81138 -1.84749,-0.26317 -0.56198,0.55139 -0.0131,1.50672 0.60042,1.90218 0.83573,0.53904 1.7459,0.68509 2.70722,0.90346 -0.59408,1.15923 -1.12324,2.35903 -1.60972,3.53625 l -0.0296,0.0759 c -0.39335,-0.67416 -0.9659,-1.44216 -1.73178,-2.1523 -0.56374,-0.52247 -1.2887,-0.81139 -1.84785,-0.26282 -0.56198,0.55139 -0.0131,1.50707 0.60042,1.90218 0.86925,0.56056 1.81857,0.69603 2.82223,0.92992 -0.53658,1.52471 -0.69568,3.14043 -0.7359,4.75333 -0.57079,-0.52317 -1.3335,-1.0795 -2.2606,-1.52753 -0.6918,-0.33443 -1.46932,-0.39864 -1.84326,0.28963 -0.37606,0.69144 0.42827,1.44463 1.131,1.64324 0.99413,0.28046 1.94099,0.133 2.96828,0.0624 -0.006,1.48802 0.17885,2.88467 0.55844,4.29295 -0.68333,-0.40075 -1.57515,-0.7948 -2.60985,-1.03963 -0.75529,-0.17886 -1.53634,-0.072 -1.75507,0.68862 -0.21942,0.76412 0.73801,1.33138 1.47426,1.37372 1.06433,0.061 1.98226,-0.30727 3.00532,-0.60466 0.0667,0.22472 0.13793,0.45049 0.21413,0.67733 0.45967,1.36102 1.01459,2.68746 1.46862,4.04848 -0.72249,-0.41134 -1.6443,-0.80998 -2.70899,-1.06222 -0.81491,-0.19261 -1.65735,-0.0776 -1.893,0.74295 -0.23707,0.82409 0.79587,1.43546 1.58997,1.48132 1.12677,0.0649 2.1015,-0.31715 3.18064,-0.63465 0.11289,0.36512 0.22014,0.73201 0.31115,1.10419 0.31539,1.29011 0.51541,2.61338 0.5708,3.94159 -0.56974,-0.61489 -1.3395,-1.28094 -2.29412,-1.84644 -0.72037,-0.42686 -1.55857,-0.56832 -2.02812,0.14464 -0.47201,0.71614 0.33197,1.60761 1.07633,1.88771 1.0668,0.40182 2.12125,0.32209 3.25896,0.34255 0.007,0.57327 -0.0113,1.14688 -0.0632,1.71838 -0.0847,0.93345 -0.28151,1.82245 -0.55174,2.68817 -0.4445,-0.6089 -1.02482,-1.26012 -1.74837,-1.8609 -0.64417,-0.53517 -1.44991,-0.8061 -2.02565,-0.17604 -0.57855,0.63324 0.0751,1.63971 0.76588,2.03376 0.86607,0.49354 1.78012,0.62195 2.74497,0.77964 -0.33161,0.90946 -0.73413,1.79846 -1.16241,2.69029 -0.19402,0.40463 -0.39969,0.79833 -0.61207,1.18639 -0.3242,-0.68721 -0.77717,-1.44357 -1.38253,-2.17664 -0.53375,-0.64523 -1.27459,-1.06186 -1.95792,-0.54998 -0.68615,0.514 -0.23107,1.62525 0.3743,2.14101 0.76376,0.64981 1.645,0.94615 2.57034,1.2834 -0.66181,1.12678 -1.39559,2.20028 -2.18581,3.26708 -0.26988,0.36442 -0.54222,0.73512 -0.80575,1.11368 -0.34537,-0.82335 -0.87806,-1.77902 -1.63548,-2.70012 -0.5588,-0.68016 -1.33244,-1.12113 -2.04011,-0.58808 -0.711553,0.53551 -0.231775,1.70285 0.401461,2.24684 0.880529,0.75706 1.907119,1.06285 2.980619,1.47323 -0.70203,1.05767 -1.30775,2.18225 -1.58574,3.41976 -0.0102,0.0455 -0.0183,0.0918 -0.0282,0.13765 -0.48119,-0.76838 -1.14688,-1.69802 -2.046462,-2.45498 -0.673453,-0.56733 -1.704975,-0.93253 -2.304344,-0.27947 -0.601839,0.65582 0.365125,2.17978 1.086555,2.59927 1.03117,0.59972 2.008717,0.46468 3.166891,0.67095 -0.18733,1.23296 -0.16299,2.51643 -0.10972,3.77652 -0.39052,-0.69631 -0.84913,-1.49366 -1.534229,-2.25213 -0.487539,-0.53975 -1.900767,-1.02168 -2.499783,-0.36862 -0.601839,0.65539 -0.08502,1.89053 0.636411,2.31027 1.021644,0.59408 2.271183,0.92992 3.436051,1.1624 0.008,0.17293 0.0155,0.34548 0.0222,0.51647 0.0533,1.33424 0.0956,3.11891 1.10208,4.12683 0.33655,0.33651 0.81703,-0.16302 0.51576,-0.51608 -0.84032,-0.98573 -0.79305,-2.71861 -0.8195,-3.95538 0.30656,0.1101 0.65299,0.21622 0.877,0.27132 0.52282,0.12845 1.05833,0.28924 1.59632,0.34107 0.75636,0.0735 1.82704,-0.1845 1.89018,-1.11192 0.12418,-1.82743 -3.13302,-1.02514 -4.39314,-0.40323 -0.048,-1.23116 -0.10689,-2.50154 0.0716,-3.71753 0.55844,0.23357 1.39841,0.55315 1.78505,0.60716 1.49719,0.20878 2.57105,-0.19445 2.57387,-1.12405 0.004,-1.29854 -2.85962,-1.00433 -4.09011,-0.37995 -0.0367,0.0233 -0.0709,0.047 -0.10548,0.0703 0.024,-0.0931 0.0483,-0.18659 0.0759,-0.27905 0.30586,-1.0269 0.83538,-1.96674 1.43898,-2.86068 0.50271,0.33197 1.33103,0.84173 1.71979,0.97127 1.4344,0.47763 2.56364,0.27683 2.73544,-0.6368 0.23671,-1.25705 -2.54212,-1.50082 -3.89079,-1.13495 0.31045,-0.42542 0.62795,-0.84275 0.93487,-1.25692 0.67274,-0.90663 1.27564,-1.8422 1.82597,-2.81093 0.41346,0.28293 1.42558,0.91793 1.86196,1.0601 1.37584,0.44838 2.46204,0.25082 2.63173,-0.6216 0.23777,-1.21849 -2.51813,-1.42451 -3.79201,-1.04528 -0.1965,0.0787 -0.36548,0.16863 -0.49812,0.24377 0.32349,-0.58878 0.629,-1.18956 0.91722,-1.80516 0.39934,-0.85337 0.77364,-1.69863 1.08303,-2.56434 0.44591,0.19685 1.58362,0.64346 2.04576,0.70273 1.43474,0.1845 2.46521,-0.21167 2.47015,-1.10031 0.006,-1.24108 -2.73968,-0.93063 -3.92078,-0.32138 -0.1912,0.12241 -0.3496,0.25153 -0.46884,0.35348 0.26353,-0.79128 0.46884,-1.60267 0.58561,-2.45569 0.10936,-0.79763 0.1524,-1.59914 0.14499,-2.40065 0.56127,0.12876 1.36737,0.2861 1.73038,0.27517 1.44639,-0.0437 2.40171,-0.59726 2.2666,-1.47532"
       style="fill:#9fdcab;fill-opacity:1;fill-rule:nonzero;stroke:none;stroke-width:0.0352778"
       id="path2032" />
    <path
       d="m 137.1949,154.3405 c 0.7186,-0.38418 1.26929,-1.34938 1.43862,-2.13572 0.15134,-0.70273 0.23107,-1.96568 -0.56691,-2.18511 -0.78952,-0.21696 -1.24107,0.58808 -1.42416,1.27141 -0.18804,0.70238 -0.26318,1.82845 -0.14605,2.63243 0.0116,0.079 0.0332,0.15487 0.0635,0.22296 -0.32103,0.41028 -0.61278,0.83432 -0.90488,1.25659 -0.09,-0.44803 -0.35666,-0.89323 -0.60995,-1.21073 -0.35913,-0.44979 -1.16488,-1.27741 -1.78718,-0.77258 -0.63006,0.51117 -0.20002,1.4933 0.24519,1.899 0.36159,0.32914 0.97719,0.7112 1.47284,1.02552 -0.21554,0.2794 -0.44273,0.55175 -0.69497,0.81139 -0.7493,0.76973 -1.58115,1.46011 -2.48426,2.04153 -0.0353,-0.5945 -0.17568,-1.30101 -0.33161,-1.68907 -0.2226,-0.5546 -0.54469,-1.29191 -1.14688,-1.55367 -0.87771,-0.38135 -1.25413,0.67804 -1.10173,1.36737 0.20073,0.9084 0.89535,1.80619 1.54058,2.47371 -1.48272,0.75421 -3.10762,1.1187 -4.7505,1.39979 0.22295,-0.79304 0.18873,-1.68945 -0.0713,-2.45925 -0.19474,-0.57601 -0.6089,-1.3003 -1.31833,-1.21101 -1.67676,0.21127 -0.55104,2.7675 0.1344,3.87491 -0.67098,0.10654 -1.33949,0.21195 -1.99707,0.33969 -1.07492,0.20782 -2.15653,0.45226 -3.22968,0.74192 0.0575,-0.23011 0.12629,-0.45586 0.14711,-0.52997 0.0882,-0.31324 0.1785,-0.59436 0.1785,-0.92605 3.5e-4,-0.2081 -0.0469,-0.49209 -0.13758,-0.78426 -0.22931,-0.7397 -0.73907,-1.53126 -1.47355,-1.27797 -0.79693,0.27478 -1.05516,1.23112 -0.85232,1.97086 0.15417,0.56198 0.47555,1.1085 0.7299,1.62814 0.0483,0.0991 0.0924,0.19541 0.14005,0.28431 -1.59243,0.48962 -3.15348,1.09086 -4.63373,1.83649 0.0769,-0.21371 0.13617,-0.43131 0.18133,-0.65179 0.96802,-0.15875 2.1463,-0.46108 2.86561,-1.16251 0.37465,-0.36506 0.62089,-0.93874 0.33972,-1.38603 -0.37606,-0.59863 -1.26012,-0.52215 -1.85137,-0.23992 -0.5327,0.25368 -0.88195,0.71053 -1.22097,1.17408 -0.009,-1.36631 -0.21237,-2.77951 0.12594,-4.0947 0.10125,-0.39303 0.25577,-0.76591 0.45085,-1.1218 0.0783,0.0183 0.15346,0.0388 0.2152,0.0706 0.36512,0.18831 0.72178,0.44768 1.03611,0.71046 0.20743,0.17364 0.40075,0.36544 0.62583,0.51537 0.42545,0.28332 0.89499,0.33101 1.2647,-0.0593 0.56868,-0.59902 0.11466,-1.49889 -0.49142,-1.87883 -0.0543,-0.0339 -0.10971,-0.0639 -0.1658,-0.0892 -0.3302,-0.14781 -0.69215,-0.20426 -1.04952,-0.23989 -0.11324,-0.0116 -0.57079,0.0455 -0.82267,0.055 0.91052,-1.15429 2.19357,-2.12442 3.32105,-3.02119 0.0335,0.32809 0.11394,0.64559 0.23636,0.95956 0.12418,0.31926 0.242,0.71649 0.49142,0.9592 0.3817,0.37148 1.45732,0.64029 1.75965,0.0688 0.33091,-0.62512 -0.16686,-1.43933 -0.58349,-1.88453 -0.26458,-0.28223 -0.61771,-0.61807 -1.00683,-0.84067 0.90664,-0.77611 1.80446,-1.62172 2.64901,-2.51848 0.42439,0.85725 0.91581,1.91311 1.82739,2.10432 0.29104,0.061 0.63747,-0.13547 0.61736,-0.47026 -0.0462,-0.76764 -0.11853,-1.59138 -0.5267,-2.26483 -0.23213,-0.38312 -0.48683,-0.53905 -0.78458,-0.64347 0.52141,-0.623 1.01036,-1.264 1.4531,-1.9177 0.1023,-0.15099 0.20037,-0.30303 0.29492,-0.45755 0.54716,0.57679 1.46791,0.97014 2.13819,0.99695 0.91404,0.0374 1.51271,-0.63147 0.94015,-1.47144 -0.50165,-0.7366 -1.4471,-1.10631 -2.32022,-1.0287 0.24377,-0.6096 0.42263,-1.24424 0.5147,-1.90958 0.14146,-1.02129 0.10901,-2.04188 0.0138,-3.05964 0.133,0.11006 0.27023,0.21801 0.40675,0.33196 0.29845,0.24977 0.68757,0.69074 1.10526,0.74789 0.70555,0.097 1.01035,-0.58455 0.74718,-1.16664 -0.33338,-0.73519 -1.22308,-1.31586 -1.99849,-1.45133 -0.14816,-0.0261 -0.29527,-0.0307 -0.44168,-0.0268 -0.0169,-0.12911 -0.0335,-0.25858 -0.0501,-0.38805 -0.12453,-0.9645 -0.19262,-1.92793 -0.27623,-2.89631 -0.0377,-0.43674 -0.0868,-0.87453 -0.1083,-1.31092 0.32315,0.22719 0.66217,0.46073 0.99413,0.65934 0.58738,0.35101 1.47638,0.38171 1.77588,-0.35666 0.26776,-0.65934 -0.3249,-1.25624 -0.88441,-1.51271 -0.49777,-0.22789 -1.19063,-0.31679 -1.80058,-0.23213 0.0229,-0.11112 0.0497,-0.22189 0.0825,-0.33231 0.43709,-1.46227 1.44851,-2.52942 2.51495,-3.54613 0.40746,-0.12453 0.86502,-0.16192 1.25695,-0.31891 0.3489,-0.13899 0.64065,-0.36301 0.90876,-0.62971 0.90311,-0.89852 1.0989,-1.93886 0.50518,-2.43028 -0.64241,-0.53093 -2.08104,0.41451 -2.61938,0.89605 -0.60396,0.5394 -1.12924,1.51871 -1.14406,2.33398 l 10e-4,0.018 c -0.55068,0.54187 -1.0481,1.13736 -1.4545,1.79106 -0.31362,0.50482 -0.54046,1.01494 -0.69427,1.5374 -0.19967,-0.37641 -0.4706,-0.7239 -0.7433,-1.016 -0.40287,-0.43109 -1.20791,-0.86677 -1.62772,-0.20002 -0.43674,0.69285 0.16934,1.46614 0.63253,1.95051 0.37853,0.39546 0.92816,0.78845 1.48767,0.7814 -0.0212,0.40322 -0.0113,0.81562 0.0261,1.24248 0.0928,1.06433 0.20673,2.12231 0.32597,3.181 -0.50941,-0.44732 -1.20721,-0.76729 -1.72508,-1.02976 -0.87489,-0.44415 -1.55328,-0.0765 -1.19486,0.9839 0.37324,1.1056 1.58185,1.63406 2.66171,1.73919 0.15875,0.0155 0.30868,0.019 0.45332,0.0183 0.008,0.0699 0.0162,0.1397 0.024,0.2099 0.19614,1.70709 0.24694,3.46992 -0.39265,5.08953 -0.26317,-1.18463 -1.05304,-2.61197 -2.10961,-2.80741 -0.33055,-0.12771 -0.67627,-0.13617 -0.92674,0.13652 -0.55175,0.60008 0.23283,1.81646 0.56021,2.33716 0.23036,0.36583 0.4826,0.74542 0.81033,1.03258 0.32244,0.28187 0.66851,0.35278 1.05057,0.50623 l 0.0293,0.006 c -0.54187,0.96026 -1.2319,1.87501 -1.98931,2.7372 l -0.006,-0.002 c -0.0536,-0.0183 -0.10478,-0.0416 -0.15558,-0.0649 -0.0938,-0.43357 -0.23001,-0.85972 -0.36794,-1.28023 -0.14464,-0.44027 -0.28293,-1.12113 -0.63077,-1.46544 -0.55245,-0.54716 -1.22414,-0.0868 -1.29787,0.57996 -0.10301,0.93134 0.62724,1.89936 1.24389,2.52483 0.17639,0.17851 0.34432,0.29951 0.51894,0.39582 l 0.009,0.0219 v 0.0416 c -0.77928,0.82021 -1.59949,1.58644 -2.38125,2.29306 -0.16439,0.14852 -0.33267,0.29457 -0.50235,0.43921 -0.17357,-1.22132 -0.88442,-3.52672 -2.13078,-2.74885 -0.56303,0.35172 -0.54822,1.10208 -0.33514,1.65453 0.29351,0.76059 1.0414,1.26188 1.65806,1.76777 -1.16946,0.95567 -2.37067,1.90394 -3.31717,3.06564 -0.003,-0.54751 -0.14253,-1.52012 -0.62371,-2.2733 -0.38982,-0.61031 -1.57904,-1.01494 -1.93534,0.0427 -0.0847,0.25012 -0.0526,0.52494 0.0109,0.78141 0.14076,0.5655 0.42863,1.0795 0.76518,1.55045 0.16369,0.22896 0.33514,0.4692 0.53163,0.67099 0.0684,0.0702 0.32915,0.2099 0.48966,0.31609 -1.00965,1.75644 -0.65546,3.75034 -0.70344,5.6836 -0.0822,-0.18179 -0.17074,-0.36093 -0.27023,-0.53344 -0.20955,-0.36258 -0.46425,-0.69881 -0.77823,-0.97677 -0.56832,-0.50313 -1.56245,-0.88057 -2.11313,-0.13271 -0.58844,0.79943 0.0303,1.56146 0.70343,2.03842 0.38453,0.27298 0.80751,0.49167 1.23684,0.68474 0.18521,0.0828 0.37254,0.16055 0.56198,0.23343 0.18062,0.0696 0.34678,0.0784 0.52246,0.10735 -0.0833,0.44013 -0.21378,0.87271 -0.41169,1.29466 -0.80257,0.45226 -1.57621,0.95279 -2.31316,1.50524 -0.0208,-0.0405 -0.0497,-0.0776 -0.0896,-0.10788 -0.0166,-0.25827 -0.0557,-0.51608 -0.0917,-0.77502 -0.0783,-0.56734 -0.0892,-1.20661 -0.35419,-1.72766 -0.30092,-0.59256 -1.17087,-1.36906 -1.89406,-1.03103 -0.80116,0.37426 -0.29951,1.67347 -0.0427,2.23118 0.38453,0.8351 0.94756,1.56005 1.77412,1.95943 -0.48013,0.39575 -0.94298,0.81481 -1.38465,1.26256 -0.68439,0.69384 -1.39242,1.48343 -1.98226,2.34622 -0.0268,-0.12622 -0.06,-0.25245 -0.10195,-0.37811 l -0.0138,-0.0423 c -0.0162,-0.0466 -0.0332,-0.0927 -0.0512,-0.13906 l -0.005,-0.012 c -0.17392,-0.4451 -0.42334,-0.8643 -0.68086,-1.18882 -0.43039,-0.54226 -1.45521,-1.36384 -2.20733,-0.98034 -0.71614,0.36478 -0.37218,1.49751 -0.11642,2.04365 0.4572,0.97687 1.53705,1.45838 2.43346,1.96878 -0.44168,0.91694 -0.70379,1.89551 -0.64911,2.91539 0.0226,0.41949 0.68227,0.56236 0.77294,0.10446 0.0219,-0.12457 0.0487,-0.24832 0.0797,-0.37084 0.0201,-0.0864 -0.008,-0.15766 -0.0589,-0.20532 0.0349,-0.53234 0.16192,-1.05297 0.35595,-1.55677 0.048,0.0836 0.0995,0.16549 0.15381,0.24624 0.0586,0.1119 0.11642,0.22256 0.16898,0.3302 0.25506,0.52599 0.49319,1.10987 0.93134,1.51377 0.44097,0.40707 1.57056,0.85121 1.94486,0.15917 0.41346,-0.76415 0.0162,-1.88574 -0.46919,-2.51192 -0.43745,-0.5636 -1.16417,-1.07375 -1.90712,-1.29741 0.65511,-0.98683 1.49013,-1.87759 2.26131,-2.62862 0.1651,-0.16122 0.33478,-0.31637 0.50623,-0.4699 -0.0321,1.31657 1.0541,2.89638 2.31317,2.84484 0.25929,-0.0106 0.37994,-0.17459 0.43638,-0.40598 0.13406,-0.54998 0.0857,-1.10712 -0.0797,-1.63449 -0.072,-0.22931 -0.1658,-0.45254 -0.27693,-0.6671 -0.24059,-0.46606 -0.53269,-0.95388 -0.93733,-1.30211 1.55822,-1.1176 3.28436,-1.99457 5.06378,-2.72771 0.70837,-0.29199 1.43016,-0.54776 2.16076,-0.77929 -0.19756,0.54681 -0.13864,1.21504 0.0501,1.73719 0.21379,0.59115 0.94933,1.80079 1.69299,1.66687 0.7821,-0.14111 0.63676,-1.62002 0.49741,-2.18655 -0.12382,-0.50408 -0.41345,-0.92466 -0.71402,-1.3396 -0.0649,-0.0896 -0.12418,-0.18091 -0.18274,-0.27009 1.5046,-0.4065 3.03706,-0.71794 4.56847,-0.97659 0.22261,-0.0369 0.44591,-0.074 0.66887,-0.11039 -0.13864,0.514 -0.11571,1.12254 -0.0148,1.57731 0.11854,0.53548 0.5267,1.62662 1.22943,1.5773 1.14265,-0.0805 0.73801,-2.21481 0.12524,-3.38007 1.64394,-0.28882 3.27096,-0.65444 4.77661,-1.37749 -0.0533,0.55026 0.096,1.17711 0.26317,1.61357 0.19544,0.50902 0.7934,1.63611 1.46297,1.32359 0.69639,-0.32452 0.52035,-1.48689 0.30445,-2.14066 -0.0332,-0.10156 -0.073,-0.1954 -0.10619,-0.28151 -0.19967,-0.52353 -0.58808,-0.88872 -0.84984,-1.10699 1.07104,-0.66435 2.05846,-1.47782 2.92594,-2.38869 0.17004,-0.17886 0.34572,-0.36579 0.52035,-0.56018 0.1076,0.34989 0.22119,0.65652 0.4191,0.94012 0.3235,0.46313 1.40159,1.02415 1.93781,0.66778 0.54151,-0.35938 -0.079,-1.50488 -0.36654,-1.92469 -0.24941,-0.36477 -0.64064,-0.67557 -1.07597,-0.8195 0.34396,-0.49777 0.62689,-1.02659 0.77505,-1.57833 l 0.004,-0.0247"
       style="fill:#9fdcab;fill-opacity:1;fill-rule:nonzero;stroke:none;stroke-width:0.0352778"
       id="path2034" />
    <path
       d="m 119.70417,183.00362 c -0.18556,-0.38061 -0.68262,-0.43988 -0.81209,-0.85467 -0.19227,-0.61419 -0.30621,-1.33103 -0.69321,-1.88888 -0.4572,-0.66008 -1.21356,-1.12462 -1.8789,-1.54616 -0.80362,-0.50905 -1.61254,-1.01314 -2.39818,-1.53994 -1.09502,-0.73367 -2.17417,-1.76872 -3.556,-1.86503 -0.98566,-0.0692 -1.95756,0.2607 -2.89631,0.51565 -0.77646,0.21096 -1.60443,0.43297 -2.1911,1.01988 -0.63923,0.6397 -0.45685,1.50647 0.48331,1.83554 -0.22896,0.22257 -0.37994,0.49184 -0.40041,0.82339 -0.0501,0.80891 0.57927,1.7399 1.37443,2.23738 0.23777,0.14884 0.50129,0.2461 0.73589,0.37702 0.1771,0.80962 0.54504,1.72021 1.17793,2.11144 1.04281,0.64382 2.6737,0.479 3.83575,0.43215 1.08973,-0.0438 2.17452,-0.17074 3.26355,-0.21978 0.80433,-0.0357 4.82811,0.35525 3.95534,-1.43799"
       style="fill:#29785a;fill-opacity:1;fill-rule:nonzero;stroke:none;stroke-width:0.0352778"
       id="path2036" />
    <path
       d="m 109.61825,184.28174 c 0.10302,-0.13614 0.85479,-0.90301 -0.91581,-3.59269 -1.03046,-1.56517 -2.64759,-3.77748 -2.16111,-5.89799 0.0116,-0.0508 0.03,-0.0925 0.0515,-0.12912 -0.01,-0.21237 -0.0251,-0.42375 -0.0505,-0.63471 -0.0744,-0.6167 -0.23565,-1.26397 -0.59443,-1.74805 -0.24447,-0.3302 -0.56867,-0.57009 -0.90028,-0.79195 -0.32844,-0.32841 -0.66005,-0.89147 -1.70251,-0.88939 -0.31785,8.1e-4 -0.63747,-2.9e-4 -0.95462,0.004 -0.0575,-0.002 -0.11536,-0.003 -0.17392,-0.004 -0.629,-0.0102 -1.25694,0.0364 -1.87007,0.20465 -0.766588,0.21096 -1.496132,0.53439 -2.291293,0.59683 -0.06385,0.005 -0.128412,0.008 -0.193323,0.009 -0.09313,8.5e-4 -0.186266,-0.003 -0.280811,-0.0113 -0.845961,-0.0772 -2.561519,-0.51153 -3.478742,-0.46249 -0.916869,0.0495 -1.334558,-0.10541 -1.91135,0.55813 l -0.05292,0.0649 c -0.269522,0.21661 -0.519288,0.50271 -0.742244,0.88166 -0.722842,1.22933 -1.246717,2.71569 -2.604206,2.97847 -0.666044,0.0154 -1.564216,-0.0911 -1.961444,0.28953 -0.05468,0.0527 -0.110067,0.1035 -0.164748,0.15462 -0.255058,0.18411 -0.481894,0.45505 -0.678038,0.86459 -0.525992,1.09745 -0.282928,2.6417 -0.910167,3.64712 -0.297392,0.33542 -0.638175,0.65899 -0.88265,1.04591 -0.0949,0.12556 -0.18415,0.26074 -0.26282,0.4166 -0.283633,0.55989 -0.420158,1.14653 -0.413103,1.79462 0.0056,0.52214 -0.03422,1.69693 0.608542,1.75009 0.45967,0.0382 2.850092,-0.66573 8.730898,-0.29697 0.630414,0.0396 5.543198,1.15359 6.557081,0.68227 0.730608,-0.33983 1.354668,-0.86568 2.159358,-0.95881 0.7553,-0.0872 1.52788,-0.16235 2.28706,-0.15311 1.30245,0.0154 2.59468,0.21827 3.8996,0.2056 0.60043,-0.006 1.42522,-0.006 1.85702,-0.57823"
       style="fill:#53a777;fill-opacity:1;fill-rule:nonzero;stroke:none;stroke-width:0.0352778"
       id="path2038" />
    <path
       d="m 103.4457,172.79607 -0.0279,0.009 c -0.18697,0.0642 -0.34678,0.24377 -0.33408,0.45268 0.0127,0.21594 0.14535,0.37388 0.34713,0.44306 l 0.0282,0.009 c 0.29598,0.10157 0.59796,-0.17568 0.59337,-0.46563 -0.004,-0.29668 -0.31256,-0.5497 -0.60678,-0.44841"
       style="fill:#9fdcab;fill-opacity:1;fill-rule:nonzero;stroke:none;stroke-width:0.0352778"
       id="path2040" />
    <path
       d="m 104.85928,175.81013 c -0.19967,0 -0.38841,0.18313 -0.37606,0.38707 0.0123,0.20919 0.17321,0.37634 0.38735,0.37634 0.19967,0 0.38806,-0.18341 0.37606,-0.38735 -0.0123,-0.2092 -0.17321,-0.37606 -0.38735,-0.37606"
       style="fill:#9fdcab;fill-opacity:1;fill-rule:nonzero;stroke:none;stroke-width:0.0352778"
       id="path2042" />
    <path
       d="m 105.65691,173.38341 c -0.15522,0 -0.30198,0.1422 -0.29245,0.30095 0.01,0.1626 0.13441,0.29242 0.30127,0.29242 0.15522,0 0.30198,-0.14207 0.29245,-0.30096 -0.01,-0.16263 -0.13476,-0.29241 -0.30127,-0.29241"
       style="fill:#9fdcab;fill-opacity:1;fill-rule:nonzero;stroke:none;stroke-width:0.0352778"
       id="path2044" />
    <path
       d="m 102.46921,177.70493 c -0.57573,0 -0.56303,0.89433 0.0131,0.89433 0.57573,0 0.56303,-0.89433 -0.0131,-0.89433"
       style="fill:#9fdcab;fill-opacity:1;fill-rule:nonzero;stroke:none;stroke-width:0.0352778"
       id="path2046" />
    <path
       d="m 106.14622,180.12118 c -0.46179,0 -0.45156,0.71713 0.0102,0.71713 0.46178,0 0.45155,-0.71713 -0.0102,-0.71713"
       style="fill:#9fdcab;fill-opacity:1;fill-rule:nonzero;stroke:none;stroke-width:0.0352778"
       id="path2048" />
    <path
       d="m 102.53307,175.31278 c -0.34255,0 -0.33514,0.53234 0.008,0.53234 0.34254,0 0.33514,-0.53234 -0.008,-0.53234"
       style="fill:#9fdcab;fill-opacity:1;fill-rule:nonzero;stroke:none;stroke-width:0.0352778"
       id="path2050" />
    <path
       d="m 101.06269,182.16232 c -0.35737,0 -0.34961,0.55562 0.008,0.55562 0.35772,0 0.3496,-0.55562 -0.008,-0.55562"
       style="fill:#9fdcab;fill-opacity:1;fill-rule:nonzero;stroke:none;stroke-width:0.0352778"
       id="path2052" />
    <path
       d="m 104.61551,177.90845 c -0.39229,0 -0.38347,0.60925 0.009,0.60925 0.39229,0 0.38347,-0.60925 -0.009,-0.60925"
       style="fill:#9fdcab;fill-opacity:1;fill-rule:nonzero;stroke:none;stroke-width:0.0352778"
       id="path2054" />
    <path
       d="m 103.82741,182.37081 c -0.0169,-0.11575 -0.0307,-0.1983 -0.0836,-0.30731 l -0.036,-0.0701 c -0.17216,-0.33732 -0.71191,-0.31404 -0.87877,0.0127 -0.0374,0.0733 -0.0825,0.15134 -0.0945,0.23318 -0.0222,0.15586 -0.0138,0.28787 0.0624,0.4269 0.0829,0.1513 0.24413,0.2395 0.40923,0.25922 0.15345,0.0181 0.28786,-0.019 0.40886,-0.11575 0.12242,-0.097 0.23637,-0.27188 0.21238,-0.43878"
       style="fill:#9fdcab;fill-opacity:1;fill-rule:nonzero;stroke:none;stroke-width:0.0352778"
       id="path2056" />
    <path
       d="m 108.04557,182.65194 c -0.43709,0 -0.42757,0.67881 0.01,0.67881 0.43674,0 0.42721,-0.67881 -0.01,-0.67881"
       style="fill:#9fdcab;fill-opacity:1;fill-rule:nonzero;stroke:none;stroke-width:0.0352778"
       id="path2058" />
    <path
       d="m 103.57411,180.05655 c -0.38735,0 -0.37888,0.60152 0.009,0.60152 0.387,0 0.37889,-0.60152 -0.009,-0.60152"
       style="fill:#9fdcab;fill-opacity:1;fill-rule:nonzero;stroke:none;stroke-width:0.0352778"
       id="path2060" />
    <path
       d="m 110.17212,176.285 -0.0148,-0.0568 c -0.0222,-0.0861 -0.14958,-0.0807 -0.17145,0.002 l -0.0148,0.0572 c -0.043,0.16534 0.24554,0.16894 0.20109,-0.003"
       style="fill:#9fdcab;fill-opacity:1;fill-rule:nonzero;stroke:none;stroke-width:0.0352778"
       id="path2062" />
    <path
       d="m 112.39532,176.55703 c -0.39723,0 -0.38841,0.61694 0.009,0.61694 0.39723,0 0.38876,-0.61694 -0.009,-0.61694"
       style="fill:#9fdcab;fill-opacity:1;fill-rule:nonzero;stroke:none;stroke-width:0.0352778"
       id="path2064" />
    <path
       d="m 112.82289,178.55516 c -0.50624,0 -0.4953,0.78631 0.0113,0.78631 0.50659,0 0.4953,-0.78631 -0.0113,-0.78631"
       style="fill:#9fdcab;fill-opacity:1;fill-rule:nonzero;stroke:none;stroke-width:0.0352778"
       id="path2066" />
    <path
       d="m 109.56146,177.6185 c -0.16087,-0.0911 -0.35701,-0.0271 -0.45226,0.12527 -0.1076,0.17255 -0.001,0.44733 0.20531,0.4844 0.13723,0.0242 0.26035,-0.008 0.34678,-0.12389 0.11818,-0.15766 0.073,-0.38806 -0.0998,-0.48578"
       style="fill:#9fdcab;fill-opacity:1;fill-rule:nonzero;stroke:none;stroke-width:0.0352778"
       id="path2068" />
    <path
       d="m 115.3957,178.1149 c -0.52141,0 -0.50977,0.80959 0.0116,0.80959 0.52105,0 0.50976,-0.80959 -0.0116,-0.80959"
       style="fill:#9fdcab;fill-opacity:1;fill-rule:nonzero;stroke:none;stroke-width:0.0352778"
       id="path2070" />
    <path
       d="m 117.66229,181.19715 c -0.19967,0.0116 -0.3944,0.1753 -0.37994,0.39081 l 0.002,0.0307 c 0.0134,0.19995 0.17462,0.3908 0.38911,0.37814 0.22155,-0.0131 0.36336,-0.17392 0.37783,-0.38943 l 0.002,-0.0307 c 0.0134,-0.20133 -0.19473,-0.39123 -0.39123,-0.37952"
       style="fill:#9fdcab;fill-opacity:1;fill-rule:nonzero;stroke:none;stroke-width:0.0352778"
       id="path2072" />
    <path
       d="m 115.37418,183.11662 -0.0286,0.007 c -0.29915,0.0706 -0.28151,0.52779 0.008,0.5963 l 0.0289,0.007 c 0.19967,0.0473 0.39899,-0.10308 0.39581,-0.31076 -0.003,-0.21096 -0.20567,-0.34614 -0.40463,-0.29915"
       style="fill:#9fdcab;fill-opacity:1;fill-rule:nonzero;stroke:none;stroke-width:0.0352778"
       id="path2074" />
    <path
       d="m 116.8054,180.07913 c -0.4371,0 -0.42722,0.67885 0.01,0.67885 0.4371,0 0.42722,-0.67885 -0.01,-0.67885"
       style="fill:#9fdcab;fill-opacity:1;fill-rule:nonzero;stroke:none;stroke-width:0.0352778"
       id="path2076" />
    <path
       d="m 96.53302,172.45239 c -0.05433,-0.12375 -0.194733,-0.23495 -0.338666,-0.22077 -0.06915,0.007 -0.130175,0.0179 -0.194028,0.0434 -0.213078,0.0857 -0.342195,0.29668 -0.242359,0.52377 0.09066,0.20644 0.352073,0.30099 0.549628,0.17639 0.05609,-0.0349 0.110773,-0.0706 0.155575,-0.12058 0.09948,-0.11215 0.131234,-0.26279 0.06985,-0.40224"
       style="fill:#9fdcab;fill-opacity:1;fill-rule:nonzero;stroke:none;stroke-width:0.0352778"
       id="path2078" />
    <path
       d="m 101.96968,171.0537 c -0.19191,-0.18662 -0.51929,-0.13907 -0.65299,0.0938 l -0.0275,0.0479 c -0.0854,0.14883 -0.0614,0.36833 0.0699,0.48549 0.13547,0.12097 0.32703,0.14743 0.48719,0.0557 l 0.0487,-0.0278 c 0.23389,-0.13409 0.26317,-0.47198 0.0748,-0.6551"
       style="fill:#9fdcab;fill-opacity:1;fill-rule:nonzero;stroke:none;stroke-width:0.0352778"
       id="path2080" />
    <path
       d="m 100.4933,172.77663 -0.0155,-0.0145 c -0.12418,-0.11285 -0.29845,-0.10512 -0.42051,0.006 l -0.0162,0.0145 c -0.203903,0.18591 -0.0363,0.55922 0.23389,0.54363 0.26494,-0.0158 0.43392,-0.35416 0.21837,-0.54998"
       style="fill:#9fdcab;fill-opacity:1;fill-rule:nonzero;stroke:none;stroke-width:0.0352778"
       id="path2082" />
    <path
       d="m 104.0038,171.30449 c -0.2981,0 -0.2914,0.46316 0.007,0.46316 0.2981,0 0.29139,-0.46316 -0.007,-0.46316"
       style="fill:#9fdcab;fill-opacity:1;fill-rule:nonzero;stroke:none;stroke-width:0.0352778"
       id="path2084" />
  </g>
</svg>
