<?xml version="1.0" encoding="UTF-8" standalone="no"?>
<svg
   xmlns:dc="http://purl.org/dc/elements/1.1/"
   xmlns:cc="http://creativecommons.org/ns#"
   xmlns:rdf="http://www.w3.org/1999/02/22-rdf-syntax-ns#"
   xmlns:svg="http://www.w3.org/2000/svg"
   xmlns="http://www.w3.org/2000/svg"
   xmlns:sodipodi="http://sodipodi.sourceforge.net/DTD/sodipodi-0.dtd"
   xmlns:inkscape="http://www.inkscape.org/namespaces/inkscape"
   width="210mm"
   height="297mm"
   viewBox="0 0 210 297"
   version="1.1"
   id="svg4078"
   inkscape:version="1.0.2 (e86c8708, 2021-01-15)"
   sodipodi:docname="sea_dragon.svg">
  <defs
     id="defs4072" />
  <sodipodi:namedview
     id="base"
     pagecolor="#ffffff"
     bordercolor="#666666"
     borderopacity="1.0"
     inkscape:pageopacity="0.0"
     inkscape:pageshadow="2"
     inkscape:zoom="0.35"
     inkscape:cx="400"
     inkscape:cy="560"
     inkscape:document-units="mm"
     inkscape:current-layer="layer1"
     inkscape:document-rotation="0"
     showgrid="false"
     inkscape:window-width="1252"
     inkscape:window-height="1005"
     inkscape:window-x="0"
     inkscape:window-y="23"
     inkscape:window-maximized="0" />
  <metadata
     id="metadata4075">
    <rdf:RDF>
      <cc:Work
         rdf:about="">
        <dc:format>image/svg+xml</dc:format>
        <dc:type
           rdf:resource="http://purl.org/dc/dcmitype/StillImage" />
        <dc:title></dc:title>
      </cc:Work>
    </rdf:RDF>
  </metadata>
  <g
     inkscape:label="Layer 1"
     inkscape:groupmode="layer"
     id="layer1">
    <path
       d="m 152.47886,107.31528 1.58044,-4.26649 c 0.139,-0.28223 -0.1531,-0.58209 -0.43885,-0.45085 -1.05798,0.48542 -2.91994,1.2199 -4.69583,1.33103 -1.72155,0.10759 -2.79964,-0.33655 -3.35174,-0.66922 -0.20602,-0.12418 -0.47096,0.009 -0.49953,0.24729 -0.0974,0.80751 -0.40182,2.26237 -1.35396,3.13655 -0.92216,0.84702 -2.46698,1.45239 -3.2445,1.7205 -0.21625,0.0744 -0.29281,0.3362 -0.15487,0.51858 0.37465,0.49636 0.92287,1.49296 0.7687,2.93829 -0.13123,1.23084 -0.65722,1.91311 -1.06962,2.26695 -0.18803,0.16157 -0.14993,0.45932 0.0755,0.56162 0.653,0.29633 1.63936,0.90946 1.9177,1.98508 0.3101,1.19874 -0.28045,2.56575 -0.61065,3.19828 -0.0945,0.18098 -0.005,0.40358 0.18873,0.46814 0.68086,0.22754 2.04294,0.82973 2.32481,2.07081 0.31503,1.385 -0.6925,2.39254 -1.21567,2.80952 -0.14676,0.11712 -0.17181,0.3302 -0.0505,0.47307 0.40146,0.47132 1.11266,1.52753 0.67874,2.70616 -0.40322,1.09432 -1.22131,1.41217 -1.69968,1.50319 -0.1905,0.0363 -0.30939,0.22437 -0.2607,0.41204 0.15169,0.58561 0.36547,1.73144 -0.0127,2.54141 -0.38206,0.8188 -0.88794,1.22026 -1.19592,1.40159 -0.14499,0.0854 -0.20002,0.26811 -0.13159,0.42228 0.18557,0.41663 0.49142,1.23966 0.52988,2.20627 0.0339,0.84702 -0.14993,1.39135 -0.30057,1.6891 -0.0815,0.16086 -0.0257,0.35489 0.13053,0.4452 0.39828,0.23001 1.12465,0.72955 1.87007,1.6436 0.79164,0.97084 1.91347,0.81456 2.0948,0.7814 l 0.0526,-0.005 0.44062,-0.009 c 0.30939,-0.006 0.44591,-0.39229 0.20814,-0.58949 -0.90593,-0.75072 -2.3555,-2.13078 -2.62114,-3.45899 -0.39194,-1.95898 2.91042,-8.05992 4.19806,-10.97068 1.28728,-2.91042 -3.75038,-8.95527 -2.35092,-12.87357 1.27988,-3.58422 6.54227,-5.57566 7.42915,-5.88892 0.0822,-0.0293 0.73202,-0.21731 0.77047,-0.29563"
       style="fill:#a4b121;fill-opacity:1;fill-rule:nonzero;stroke:none;stroke-width:0.0352778"
       id="path606" />
    <path
       d="m 147.12651,109.12009 -0.007,-0.001 c 0,0 -0.003,-0.0236 -0.009,-0.0681 -0.008,-0.0444 -0.0102,-0.10795 -0.03,-0.18908 -0.0152,-0.0811 -0.0286,-0.17851 -0.0571,-0.28999 -0.0222,-0.11112 -0.0607,-0.23495 -0.0903,-0.37147 -0.061,-0.27235 -0.14746,-0.58703 -0.25329,-0.91969 -0.0921,-0.33585 -0.20885,-0.68827 -0.31785,-1.04211 -0.0593,-0.17533 -0.11819,-0.35066 -0.17639,-0.52317 -0.0582,-0.17251 -0.11395,-0.34325 -0.1771,-0.50412 -0.115,-0.32702 -0.23071,-0.629 -0.33161,-0.889 -0.0508,-0.12947 -0.0981,-0.24836 -0.14005,-0.35454 -0.0399,-0.1076 -0.0773,-0.20038 -0.11395,-0.27376 -0.0324,-0.0762 -0.0575,-0.13617 -0.0751,-0.17709 -0.0166,-0.042 -0.0254,-0.0646 -0.0254,-0.0646 l 0.0212,-0.0205 0.0247,-0.0113 c 0,0 0.0166,0.0169 0.0483,0.049 0.0311,0.0328 0.0766,0.0811 0.13441,0.14252 0.0568,0.0628 0.12382,0.14076 0.19473,0.23424 0.0716,0.0935 0.15664,0.19756 0.23001,0.32174 0.1577,0.24235 0.32421,0.53728 0.46849,0.86712 0.0741,0.1644 0.14076,0.33761 0.20955,0.51365 0.0688,0.17639 0.12524,0.35948 0.18027,0.54292 0.1083,0.36725 0.19685,0.74013 0.25859,1.09397 0.0536,0.3556 0.0896,0.68897 0.10689,0.97649 0.0127,0.14287 0.005,0.27657 0.001,0.3937 -0.001,0.11712 -0.0138,0.22013 -0.0201,0.30339 -0.008,0.0836 -0.0268,0.14957 -0.0335,0.19332 -0.009,0.0437 -0.0134,0.0674 -0.0134,0.0674 l -0.007,3.5e-4"
       style="fill:#8f9d24;fill-opacity:1;fill-rule:nonzero;stroke:none;stroke-width:0.0352778"
       id="path608" />
    <path
       d="m 144.37132,110.52027 c 0,0 -0.0624,-0.0353 -0.16898,-0.0871 -0.0543,-0.0251 -0.1203,-0.055 -0.19579,-0.0893 -0.0776,-0.0321 -0.16792,-0.0614 -0.25929,-0.10513 -0.18733,-0.0811 -0.40746,-0.17074 -0.6477,-0.25964 -0.23495,-0.0995 -0.48684,-0.20285 -0.73555,-0.31327 -0.12558,-0.0526 -0.25012,-0.10725 -0.37077,-0.1651 -0.12135,-0.0575 -0.24094,-0.11395 -0.3563,-0.16828 -0.23001,-0.11147 -0.44133,-0.2233 -0.62089,-0.32385 -0.18097,-0.096 -0.32597,-0.19579 -0.43145,-0.25047 -0.0519,-0.0324 -0.0924,-0.0561 -0.11994,-0.0688 l -0.0438,-0.0233 v -0.0296 l 0.006,-0.0261 c 0,0 0.0183,-7.1e-4 0.0529,-0.003 0.008,-3.6e-4 0.018,-7.1e-4 0.0282,-7.1e-4 0.0328,0 0.073,0.002 0.1203,0.006 0.12524,0.0141 0.30304,0.0321 0.50729,0.0822 0.20532,0.0473 0.43957,0.11571 0.68404,0.20461 0.121,0.0476 0.24589,0.0967 0.37289,0.14676 0.12629,0.0515 0.25329,0.10724 0.37712,0.17074 0.25117,0.11677 0.49459,0.25189 0.72002,0.38418 0.22048,0.14181 0.42227,0.28187 0.59266,0.40534 0.0864,0.0607 0.15522,0.13335 0.22084,0.18803 0.0614,0.0614 0.11536,0.11501 0.15946,0.15875 0.0794,0.10054 0.11853,0.15769 0.11853,0.15769 l -0.005,0.006 -0.006,0.004"
       style="fill:#8f9d24;fill-opacity:1;fill-rule:nonzero;stroke:none;stroke-width:0.0352778"
       id="path610" />
    <path
       d="m 144.28842,114.26818 c 0,0 -0.0624,-0.0258 -0.17533,-0.0275 -0.007,-3.5e-4 -0.0138,-10e-4 -0.0208,-10e-4 0.006,-0.0367 0.012,-0.0727 0.0187,-0.10901 0.0102,0.005 0.0201,0.01 0.0296,0.0141 0.054,0.0279 0.0942,0.0575 0.11924,0.0783 l 0.0367,0.0339 -0.004,0.006 -0.005,0.005"
       style="fill:#e2e7ac;fill-opacity:1;fill-rule:nonzero;stroke:none;stroke-width:0.0352778"
       id="path612" />
    <path
       d="m 140.99735,114.46538 c -0.0688,0 -0.13476,-7e-4 -0.19791,-0.002 -0.19649,-3.6e-4 -0.36406,-0.0208 -0.47942,-0.024 -0.0586,-0.005 -0.10442,-0.008 -0.13547,-0.0106 l -0.048,-0.004 -0.01,-0.0275 -0.003,-0.0268 0.0441,-0.0236 c 0.0296,-0.0134 0.0723,-0.0332 0.12735,-0.0579 0.11077,-0.0413 0.26811,-0.10901 0.46179,-0.15946 0.19297,-0.0543 0.42016,-0.10583 0.66569,-0.14393 0.12347,-0.0159 0.25047,-0.0325 0.37994,-0.049 0.12982,-0.0152 0.26212,-0.0258 0.39476,-0.03 0.133,-0.008 0.26599,-0.0113 0.39758,-0.0113 0.13088,0 0.26,0.004 0.38488,0.009 0.25083,0.0219 0.48507,0.0504 0.6858,0.0864 0.10054,0.0152 0.19121,0.0473 0.27129,0.0727 0.0663,0.0215 0.12488,0.0437 0.17427,0.0663 -0.007,0.0363 -0.0131,0.0723 -0.0187,0.10901 -0.0233,-0.002 -0.0487,-0.002 -0.0762,-0.002 -0.0325,0 -0.0674,0.001 -0.10477,0.003 -0.078,0.001 -0.16722,0.0173 -0.26317,0.0198 -0.19227,0.0102 -0.41769,0.0342 -0.65864,0.0688 -0.24165,0.0222 -0.49918,0.0519 -0.75777,0.072 -0.12911,0.0141 -0.25823,0.0247 -0.38629,0.0318 -0.1277,0.007 -0.25365,0.0148 -0.37535,0.0219 -0.16616,0.008 -0.32562,0.0113 -0.47273,0.0113"
       style="fill:#8f9d24;fill-opacity:1;fill-rule:nonzero;stroke:none;stroke-width:0.0352778"
       id="path614" />
    <path
       d="m 145.15731,119.65439 c -0.0303,-0.0804 -0.0607,-0.16016 -0.0907,-0.2406 0.0741,0.0127 0.14252,0.031 0.20531,0.042 0.0776,0.0155 0.14535,0.0289 0.20109,0.0402 0.11218,0.0268 0.17638,0.042 0.17638,0.042 l 10e-4,0.007 -7e-4,0.007 c 0,0 -0.0642,0.0159 -0.17639,0.0441 -0.0564,0.0106 -0.12524,0.0233 -0.20355,0.0378 -0.0356,0.005 -0.073,0.013 -0.11254,0.0205"
       style="fill:#e2e7ac;fill-opacity:1;fill-rule:nonzero;stroke:none;stroke-width:0.0352778"
       id="path616" />
    <path
       d="m 141.60695,119.93308 -0.0148,-0.025 -0.008,-0.0261 0.0374,-0.03 c 0.0254,-0.019 0.0621,-0.0469 0.10936,-0.0822 0.048,-0.0339 0.1083,-0.0723 0.17956,-0.11324 0.0706,-0.043 0.1524,-0.0875 0.24659,-0.12348 0.18486,-0.0836 0.4124,-0.14852 0.65899,-0.19579 0.12347,-0.0176 0.25189,-0.0377 0.38171,-0.049 0.13017,-0.0148 0.26176,-0.0169 0.3937,-0.0169 0.0159,0 0.0317,-3.5e-4 0.0476,-3.5e-4 0.24659,0 0.49001,0.019 0.71685,0.0399 0.23989,0.0346 0.46355,0.067 0.65546,0.0949 0.0187,0.002 0.037,0.005 0.0554,0.008 0.03,0.0804 0.0603,0.16017 0.0907,0.2406 -0.048,0.009 -0.0991,0.0169 -0.15205,0.0205 -0.19332,0.0176 -0.41839,0.0377 -0.65969,0.0596 -0.23742,0.01 -0.49036,0.0205 -0.74295,0.031 -0.12453,0.01 -0.24977,0.0123 -0.37148,0.018 -0.12241,0.002 -0.24095,0.0123 -0.35666,0.0201 -0.22965,0.0187 -0.44555,0.0314 -0.63112,0.054 -0.0931,0.0102 -0.17921,0.0198 -0.25576,0.0279 -0.078,0.007 -0.1464,0.0134 -0.20073,0.0254 -0.0568,0.007 -0.1016,0.0134 -0.13194,0.0173 l -0.048,0.005"
       style="fill:#8f9d24;fill-opacity:1;fill-rule:nonzero;stroke:none;stroke-width:0.0352778"
       id="path618" />
    <path
       d="m 147.56361,126.30601 c 0,0 -0.0769,-0.0152 -0.21132,-0.0416 -0.0674,-0.0124 -0.14675,-0.03 -0.23989,-0.0445 -0.0935,-0.0159 -0.19896,-0.0279 -0.3122,-0.0501 -0.0282,-0.006 -0.0571,-0.0109 -0.0864,-0.0166 0.0289,-0.0903 0.0529,-0.18309 0.0716,-0.27834 0.0314,0.0123 0.0617,0.0247 0.0917,0.0367 0.11042,0.0402 0.20532,0.0984 0.29175,0.13935 0.0861,0.0441 0.15945,0.0871 0.21978,0.11959 0.115,0.0783 0.18097,0.12276 0.18097,0.12276 l -0.002,0.007 -0.004,0.006"
       style="fill:#e2e7ac;fill-opacity:1;fill-rule:nonzero;stroke:none;stroke-width:0.0352778"
       id="path620" />
    <path
       d="m 146.71376,126.15326 c -0.20602,-0.0381 -0.44097,-0.0737 -0.69003,-0.10795 -0.28293,-0.0473 -0.5842,-0.0974 -0.88547,-0.14746 -0.15099,-0.0236 -0.30127,-0.0473 -0.44909,-0.0751 -0.14746,-0.0286 -0.2928,-0.0508 -0.43391,-0.0751 -0.28117,-0.0469 -0.54328,-0.0981 -0.76871,-0.13864 -0.22577,-0.0395 -0.41486,-0.0836 -0.54927,-0.10266 -0.067,-0.012 -0.11995,-0.0212 -0.15628,-0.0275 -0.0363,-0.007 -0.0561,-0.0116 -0.0561,-0.0116 l -0.006,-0.0286 0.002,-0.0272 c 0,0 0.019,-0.005 0.0547,-0.0159 0.0363,-0.01 0.0896,-0.0236 0.15769,-0.0413 0.13617,-0.0254 0.33408,-0.0702 0.57185,-0.0811 0.10195,-0.007 0.21131,-0.0109 0.32632,-0.0109 0.1524,0 0.31468,0.006 0.4826,0.0187 0.1464,0.0166 0.29845,0.0307 0.45156,0.0508 0.15275,0.0208 0.30797,0.0455 0.46108,0.0797 0.30832,0.0571 0.61136,0.13935 0.89358,0.22154 0.2413,0.0829 0.46708,0.16334 0.66499,0.24201 -0.0187,0.0952 -0.0427,0.18803 -0.0716,0.27834"
       style="fill:#8f9d24;fill-opacity:1;fill-rule:nonzero;stroke:none;stroke-width:0.0352778"
       id="path622" />
    <path
       d="m 143.85768,131.8217 c 0,0 -0.03,-0.0385 -0.0843,-0.096 -0.0293,-0.0286 -0.0603,-0.0642 -0.1023,-0.10054 -0.0423,-0.0353 -0.091,-0.0762 -0.14182,-0.11889 -0.0988,-0.0903 -0.22719,-0.18415 -0.36442,-0.28081 -0.13547,-0.0998 -0.28011,-0.20426 -0.42757,-0.30586 -0.0737,-0.0504 -0.14852,-0.0984 -0.21942,-0.15028 -0.0723,-0.0505 -0.14394,-0.0984 -0.21414,-0.14323 -0.139,-0.0914 -0.26952,-0.17709 -0.38276,-0.25153 -0.1136,-0.0723 -0.2085,-0.13829 -0.27905,-0.17639 -0.0353,-0.0212 -0.0631,-0.0377 -0.0818,-0.049 l -0.0293,-0.0183 0.002,-0.0219 0.007,-0.0194 0.0346,-0.001 c 0.0229,0 0.0564,0 0.0991,0 0.084,0.007 0.2092,0.0134 0.34784,0.055 0.14146,0.0353 0.29845,0.0974 0.45931,0.17745 0.0787,0.0427 0.15911,0.0882 0.24025,0.13617 0.079,0.0501 0.15945,0.1016 0.23353,0.16193 0.15452,0.11147 0.29387,0.24271 0.42087,0.3683 0.11783,0.13652 0.22507,0.26458 0.3055,0.38558 0.0441,0.0564 0.0688,0.12242 0.0974,0.17322 0.0265,0.0529 0.0434,0.10301 0.06,0.14146 0.0219,0.084 0.0293,0.13018 0.0293,0.13018 l -0.005,0.002 -0.005,0.001"
       style="fill:#8f9d24;fill-opacity:1;fill-rule:nonzero;stroke:none;stroke-width:0.0352778"
       id="path624" />
    <path
       d="m 141.91775,135.19284 c 0,0 -0.0303,-0.007 -0.0836,-0.0205 -0.0247,-0.008 -0.0564,-0.0152 -0.0914,-0.0243 -0.0342,-0.0109 -0.0783,-0.0134 -0.11783,-0.0293 -0.0833,-0.0265 -0.18132,-0.0543 -0.28751,-0.0804 -0.10301,-0.0342 -0.21237,-0.0699 -0.31962,-0.11218 -0.0543,-0.019 -0.1083,-0.0395 -0.1598,-0.0639 -0.0519,-0.0236 -0.10302,-0.0466 -0.15205,-0.0688 -0.0981,-0.0469 -0.18697,-0.0984 -0.26212,-0.14641 -0.0758,-0.0451 -0.13511,-0.0977 -0.17921,-0.12735 l -0.0501,-0.0399 -0.0176,-0.0152 0.004,-0.0215 0.006,-0.0194 0.0229,-0.005 0.066,-0.01 c 0.0367,-0.001 0.0857,-0.006 0.14181,-0.006 0.0272,0 0.0561,10e-4 0.0861,0.005 0.0924,0.007 0.1972,0.0251 0.30621,0.055 0.0536,0.0173 0.10901,0.0349 0.1651,0.0529 0.0557,0.0194 0.11183,0.0409 0.16545,0.0681 0.11042,0.0476 0.21555,0.10759 0.31256,0.16651 0.0935,0.0674 0.17851,0.13299 0.25012,0.19191 0.0363,0.0286 0.0639,0.0631 0.09,0.0917 l 0.0646,0.0762 c 0.03,0.0476 0.0473,0.0744 0.0473,0.0744 l -0.003,0.005 -0.004,0.004"
       style="fill:#8f9d24;fill-opacity:1;fill-rule:nonzero;stroke:none;stroke-width:0.0352778"
       id="path626" />
    <path
       d="m 162.78279,114.22514 c -0.11924,-0.0441 -0.71049,0.26494 -1.27846,0.22648 -0.81527,-0.055 -5.23029,-0.8576 -5.28708,-2.0835 0,0 -0.0441,-3.75144 -2.56294,-5.22076 -2.58268,-1.50672 -5.09481,-1.75719 -7.93361,-0.37783 -2.39078,1.16135 -3.72357,3.80401 -3.80789,6.44419 -0.1464,4.58682 3.98286,7.91599 3.31788,12.5723 -0.39159,2.74249 -1.76319,3.49814 -3.44206,6.84248 -1.68451,3.35456 -1.31162,5.9182 0.0557,7.76605 1.03541,1.39912 3.55424,2.60244 6.07307,1.59491 2.51848,-1.00718 3.18629,-3.06141 2.93864,-4.57553 -0.25188,-1.53917 -1.23155,-3.14854 -3.07869,-3.06423 -1.84714,0.0836 -2.84304,1.78717 -2.43487,2.99438 0.46778,1.38324 2.09126,1.01459 2.21086,0.67169 0.0921,-0.26353 -1.17546,0.1397 -1.34303,-0.53199 -0.16792,-0.67134 0.50377,-1.73496 1.62313,-1.56704 1.11937,0.16792 1.46897,1.651 1.04916,2.46274 -0.41945,0.81174 -0.99307,1.93111 -2.98026,1.59526 -1.9872,-0.33584 -2.35092,-1.84714 -2.18299,-2.96651 0.16792,-1.11971 0.79763,-2.95239 3.19052,-3.72215 2.28071,-0.73378 4.58047,-1.65065 5.709,-2.63067 1.59526,-1.38536 2.30893,-3.06458 2.18299,-5.41514 -0.0889,-1.65735 -1.48343,-4.24003 -3.30235,-5.33118 -0.0931,-0.0561 -0.18697,-0.11077 -0.28117,-0.16474 l 0.0293,-0.004 c -0.79904,-0.43956 -2.24966,-1.35467 -2.16605,-1.62595 0.18944,-0.61313 1.8549,0.68968 4.20194,-0.61313 2.34703,-1.30246 2.49837,-2.68182 3.02859,-2.83492 0.52952,-0.15311 4.68877,0.86219 4.99639,1.19803 0.5581,0.60889 0.29175,1.07386 0.78352,1.0354 0.27023,-0.0208 -0.0783,-0.59019 0.0476,-1.39171 0.13229,-0.84278 1.05974,-1.1303 0.64311,-1.2834"
       style="fill:#725b94;fill-opacity:1;fill-rule:nonzero;stroke:none;stroke-width:0.0352778"
       id="path628" />
    <path
       d="m 147.53256,122.98708 c 0.11959,0.0543 -0.52458,3.9049 -1.90747,4.99992 -1.29751,-0.50306 -0.53551,-1.71767 -1.11901,-1.97273 -0.58349,-0.25541 -1.60443,0.51047 -1.91452,0.31009 -0.3101,-0.20073 0.38276,-1.25836 -0.12771,-1.65947 -0.51082,-0.40111 -2.73509,-0.47378 -2.97251,-1.98719 0,0 2.69875,0.83855 4.4129,0.80221 1.7138,-0.0367 3.02648,-0.76623 3.62832,-0.49283"
       style="fill:#b68ece;fill-opacity:1;fill-rule:nonzero;stroke:none;stroke-width:0.0352778"
       id="path630" />
    <path
       d="m 147.49552,123.02765 7.1e-4,-0.0113 -0.006,0.002 -0.002,-0.004 -0.0109,0.006 c -0.003,-0.0109 -0.11747,-0.009 -0.31467,0.037 -0.19897,0.0448 -0.47943,0.13018 -0.82621,0.22825 -0.69144,0.19297 -1.66194,0.44203 -2.75661,0.42228 -1.0929,-0.01 -2.07362,-0.20744 -2.76683,-0.39053 -0.34714,-0.0921 -0.62407,-0.18203 -0.8121,-0.25153 -0.18909,-0.0677 -0.28716,-0.11747 -0.29492,-0.10654 -0.019,0.0272 0.37465,0.26917 1.07103,0.48225 0.69251,0.21696 1.68487,0.43921 2.80177,0.44909 1.12112,0.0198 2.11137,-0.25577 2.79576,-0.48119 0.34431,-0.11466 0.61736,-0.21837 0.80751,-0.28364 0.0339,-0.0116 0.0617,-0.0208 0.0903,-0.03 -0.11712,0.0526 -0.28011,0.12841 -0.48331,0.21837 -0.42015,0.18944 -1.00577,0.4385 -1.66617,0.67451 -0.66075,0.23636 -1.27282,0.4064 -1.71944,0.51576 -0.44661,0.11218 -0.72848,0.16051 -0.72425,0.1912 0.002,0.0194 0.29175,0.0162 0.75036,-0.0646 0.45861,-0.078 1.08585,-0.23107 1.75472,-0.47026 0.91158,-0.32244 1.65664,-0.71155 2.03164,-0.94262 -0.10195,0.0783 -0.22965,0.17533 -0.38205,0.2861 -0.40817,0.30057 -0.98178,0.70309 -1.6376,1.11302 -0.65581,0.40993 -1.26929,0.74789 -1.71944,0.98178 -0.44873,0.23671 -0.73413,0.37041 -0.72249,0.39793 0.007,0.0194 0.31151,-0.0727 0.77858,-0.28152 0.46814,-0.20566 1.0982,-0.52916 1.76037,-0.94332 0.98037,-0.60854 1.74272,-1.24601 2.05316,-1.55963 -0.0519,0.0822 -0.11818,0.18591 -0.20073,0.30656 -0.20778,0.3115 -0.50906,0.73272 -0.88794,1.15711 -0.375,0.42827 -0.76906,0.76094 -1.06997,0.97931 -0.0766,0.0529 -0.1457,0.10125 -0.20638,0.14358 -0.0628,0.0395 -0.11677,0.0734 -0.16122,0.10125 -0.0885,0.0572 -0.13547,0.0945 -0.13017,0.10583 0.005,0.0116 0.0621,-0.004 0.16227,-0.0423 0.0494,-0.0201 0.11148,-0.0423 0.17957,-0.0759 0.067,-0.0367 0.14287,-0.0783 0.22683,-0.12453 0.32844,-0.19614 0.75107,-0.52634 1.13524,-0.96555 0.43533,-0.48613 0.74295,-0.97684 0.9204,-1.32045 -0.0261,0.0734 -0.0543,0.15276 -0.0857,0.24095 -0.1531,0.43109 -0.36477,1.02623 -0.6297,1.66934 -0.26776,0.64171 -0.54646,1.2058 -0.79128,1.58574 -0.24025,0.38382 -0.45297,0.56938 -0.43357,0.59408 0.01,0.0169 0.26317,-0.14252 0.53975,-0.52035 0.27975,-0.37289 0.58314,-0.94015 0.85372,-1.58926 0.52776,-1.28694 0.77506,-2.39043 0.72849,-2.43029"
       style="fill:#725b94;fill-opacity:1;fill-rule:nonzero;stroke:none;stroke-width:0.0352778"
       id="path632" />
    <path
       d="m 148.617,118.62146 c -0.50976,1.52893 1.39947,4.78578 1.00753,7.41644 -0.39193,2.63067 -3.06599,4.15255 -5.3033,7.33214 -2.89031,4.10774 -0.88336,7.21924 2.1149,6.65903 -0.16651,-0.007 -0.34184,-0.0219 -0.53375,-0.0543 -1.9872,-0.33584 -2.35092,-1.84714 -2.18299,-2.96651 0.16792,-1.11971 0.79763,-2.95239 3.19052,-3.72215 2.28071,-0.73378 4.58047,-1.65065 5.709,-2.63067 1.59526,-1.38536 2.30893,-3.06458 2.18299,-5.41514 -0.0889,-1.65735 -1.48343,-4.24003 -3.30235,-5.33118 -0.0931,-0.0561 -0.18697,-0.11077 -0.28117,-0.16474 l 0.0293,-0.004 c -0.79904,-0.43956 -2.24966,-1.35467 -2.16605,-1.62595 l 0.0342,-0.0684 c -0.19862,0.0547 -0.37959,0.21696 -0.49883,0.57503"
       style="fill:#a4b121;fill-opacity:1;fill-rule:nonzero;stroke:none;stroke-width:0.0352778"
       id="path634" />
    <path
       d="m 153.26661,110.0352 c -0.27975,-0.16122 -0.60148,-0.24271 -0.93874,-0.20603 -0.77188,0.0836 -1.38712,0.74719 -1.53211,1.49049 -0.0988,0.50553 -0.0215,1.04422 0.21625,1.50142 0.44909,0.86396 1.48378,1.44357 2.35902,0.78881 0.26494,-0.19861 0.46567,-0.47448 0.60819,-0.77328 0.25048,-0.52494 0.32562,-1.1423 0.15593,-1.69863 -0.1397,-0.45791 -0.45826,-0.86607 -0.86854,-1.10278"
       style="fill:#ffffff;fill-opacity:1;fill-rule:nonzero;stroke:none;stroke-width:0.0352778"
       id="path636" />
    <path
       d="m 152.63937,111.18525 c -0.19932,0.23566 -0.33761,0.52776 -0.37041,0.83503 -0.0444,0.41628 0.11747,0.86783 0.46849,1.11231 0.45578,0.31714 0.88018,0.16016 1.17898,-0.17886 0.0208,-0.0392 0.0441,-0.0773 0.0628,-0.11712 0.24413,-0.51118 0.31962,-1.10879 0.16722,-1.65383 -0.37712,-0.53692 -1.07879,-0.50376 -1.50707,0.002"
       style="fill:#333f48;fill-opacity:1;fill-rule:nonzero;stroke:none;stroke-width:0.0352778"
       id="path638" />
    <path
       d="m 152.93288,111.26357 c -0.22436,-0.0152 -0.45367,0.22895 -0.45861,0.514 -0.005,0.29421 0.16052,0.53763 0.40146,0.55386 0.22472,0.0155 0.45368,-0.2286 0.45897,-0.514 0.005,-0.29386 -0.16052,-0.53728 -0.40182,-0.55386"
       style="fill:#ffffff;fill-opacity:1;fill-rule:nonzero;stroke:none;stroke-width:0.0352778"
       id="path640" />
    <path
       d="m 148.60289,118.59359 c -0.50941,1.52894 1.39947,4.78543 1.00753,7.41609 -0.39193,2.63067 -3.06599,4.15255 -5.30331,7.33249 -2.8903,4.10774 -0.86924,7.24747 2.12902,6.6869 -0.16651,-0.007 -0.34184,-0.0219 -0.53375,-0.0543 -1.9872,-0.33584 -2.36467,-1.87501 -2.19675,-2.99473 0.16757,-1.11936 0.79728,-2.95239 3.19017,-3.72216 2.28106,-0.73342 4.58082,-1.65029 5.70935,-2.63031 1.59491,-1.38536 2.30858,-3.06458 2.18264,-5.41549 -0.0889,-1.65735 -1.48308,-4.23968 -3.30235,-5.33118 -0.0931,-0.0557 -0.18662,-0.11077 -0.28081,-0.16474 l 0.0289,-0.003 c -0.79869,-0.43956 -2.24966,-1.35467 -2.16605,-1.62631 l 0.0342,-0.0684 c -0.19826,0.0547 -0.37924,0.21695 -0.49883,0.57538"
       style="fill:#a4b121;fill-opacity:1;fill-rule:nonzero;stroke:none;stroke-width:0.0352778"
       id="path642" />
    <path
       d="m 151.48544,119.88087 c -0.0931,-0.0557 -0.18662,-0.11077 -0.28081,-0.16474 l 0.0289,-0.003 c -0.13158,-0.0723 -0.28187,-0.15875 -0.43885,-0.25188 h -2.26836 c 0.0134,0.18521 0.0406,0.3817 0.0783,0.58772 h 3.13585 c -0.0847,-0.0582 -0.16863,-0.11641 -0.25506,-0.16792"
       style="fill:#725b94;fill-opacity:1;fill-rule:nonzero;stroke:none;stroke-width:0.0352778"
       id="path644" />
    <path
       d="m 152.54448,120.72048 h -3.79307 c 0.0469,0.1905 0.0988,0.387 0.15275,0.58773 h 4.16737 c -0.16793,-0.20743 -0.3422,-0.40322 -0.52705,-0.58773"
       style="fill:#725b94;fill-opacity:1;fill-rule:nonzero;stroke:none;stroke-width:0.0352778"
       id="path646" />
    <path
       d="m 153.56365,121.9799 h -4.4764 c 0.0526,0.19332 0.10548,0.38947 0.15628,0.58773 h 4.67572 c -0.10971,-0.19862 -0.2293,-0.39547 -0.3556,-0.58773"
       style="fill:#725b94;fill-opacity:1;fill-rule:nonzero;stroke:none;stroke-width:0.0352778"
       id="path648" />
    <path
       d="m 154.25545,123.23896 h -4.84999 c 0.0434,0.19544 0.0836,0.39159 0.11818,0.58773 h 4.96817 c -0.0674,-0.19332 -0.14852,-0.39017 -0.23636,-0.58773"
       style="fill:#725b94;fill-opacity:1;fill-rule:nonzero;stroke:none;stroke-width:0.0352778"
       id="path650" />
    <path
       d="m 154.69078,124.49838 h -5.06942 c 0.0208,0.1972 0.0339,0.39335 0.0392,0.58773 h 5.12939 c -0.0166,-0.18697 -0.0526,-0.38276 -0.0991,-0.58773"
       style="fill:#725b94;fill-opacity:1;fill-rule:nonzero;stroke:none;stroke-width:0.0352778"
       id="path652" />
    <path
       d="m 154.81601,125.7578 h -5.17525 c -0.008,0.0847 -0.0176,0.16863 -0.0303,0.25188 -0.0169,0.1143 -0.0399,0.22578 -0.0649,0.33585 l 5.24969,0.008 c 0.0141,-0.19085 0.0201,-0.39511 0.0208,-0.59619"
       style="fill:#725b94;fill-opacity:1;fill-rule:nonzero;stroke:none;stroke-width:0.0352778"
       id="path654" />
    <path
       d="m 154.71723,127.01721 h -5.38338 c -0.0801,0.20038 -0.17322,0.39617 -0.2794,0.58773 h 5.5372 c 0.0512,-0.19014 0.0914,-0.38664 0.12558,-0.58773"
       style="fill:#725b94;fill-opacity:1;fill-rule:nonzero;stroke:none;stroke-width:0.0352778"
       id="path656" />
    <path
       d="m 154.3694,128.27663 h -5.74182 c -0.1404,0.19685 -0.29139,0.39229 -0.45226,0.58773 l 5.91115,0.0116 c 0.10477,-0.19015 0.20038,-0.39723 0.28293,-0.59937"
       style="fill:#725b94;fill-opacity:1;fill-rule:nonzero;stroke:none;stroke-width:0.0352778"
       id="path658" />
    <path
       d="m 153.66525,129.53605 h -6.07448 c -0.17498,0.19297 -0.35631,0.38805 -0.54328,0.58773 l 6.11858,0.008 c 0.18027,-0.19015 0.34819,-0.3937 0.49918,-0.59584"
       style="fill:#725b94;fill-opacity:1;fill-rule:nonzero;stroke:none;stroke-width:0.0352778"
       id="path660" />
    <path
       d="m 152.44923,130.79511 h -6.03003 c -0.17675,0.1905 -0.35631,0.38629 -0.53658,0.58773 l 5.65609,0.0127 c 0.34043,-0.19226 0.65264,-0.40111 0.91052,-0.60043"
       style="fill:#725b94;fill-opacity:1;fill-rule:nonzero;stroke:none;stroke-width:0.0352778"
       id="path662" />
    <path
       d="m 150.17205,132.07393 -4.87151,-0.0194 c -0.15875,0.18979 -0.3168,0.38559 -0.47414,0.58773 l 3.90067,0.0159 c 0.50623,-0.18838 0.98389,-0.381 1.44498,-0.5842"
       style="fill:#725b94;fill-opacity:1;fill-rule:nonzero;stroke:none;stroke-width:0.0352778"
       id="path664" />
    <path
       d="m 146.78714,133.327 -2.4765,-0.013 -0.0205,0.0268 c -0.133,0.18909 -0.24765,0.37641 -0.36019,0.56091 l 1.65524,0.019 c 0.3309,-0.22648 0.74683,-0.43285 1.20191,-0.59372"
       style="fill:#725b94;fill-opacity:1;fill-rule:nonzero;stroke:none;stroke-width:0.0352778"
       id="path666" />
    <path
       d="m 144.83134,134.57336 h -1.27176 c -0.0991,0.19932 -0.1778,0.39547 -0.25365,0.58773 l 1.07421,0.007 c 0.12347,-0.19932 0.28081,-0.40429 0.4512,-0.59479"
       style="fill:#725b94;fill-opacity:1;fill-rule:nonzero;stroke:none;stroke-width:0.0352778"
       id="path668" />
    <path
       d="m 144.03971,135.83278 h -0.95709 c -0.0543,0.20144 -0.0945,0.39687 -0.12347,0.58773 h 0.8823 c 0.0497,-0.18839 0.11712,-0.38629 0.19826,-0.58773"
       style="fill:#725b94;fill-opacity:1;fill-rule:nonzero;stroke:none;stroke-width:0.0352778"
       id="path670" />
    <path
       d="m 143.7081,137.0922 h -0.80328 c -3.5e-4,0.20425 0.0141,0.4004 0.0434,0.58772 h 0.74084 c -0.0145,-0.20073 -0.003,-0.39864 0.019,-0.58772"
       style="fill:#725b94;fill-opacity:1;fill-rule:nonzero;stroke:none;stroke-width:0.0352778"
       id="path672" />
    <path
       d="m 143.80934,138.35161 h -0.73801 c 0.084,0.21343 0.19368,0.40958 0.31927,0.58738 h 0.71578 c -0.13088,-0.18415 -0.22789,-0.38277 -0.29704,-0.58738"
       style="fill:#725b94;fill-opacity:1;fill-rule:nonzero;stroke:none;stroke-width:0.0352778"
       id="path674" />
    <path
       d="m 146.42237,140.02942 c -0.16686,-0.007 -0.34184,-0.0219 -0.53411,-0.0543 -0.4011,-0.0677 -0.73271,-0.18521 -1.0107,-0.33585 h -0.73943 c 0.59091,0.45509 1.43299,0.60396 2.28424,0.39017"
       style="fill:#725b94;fill-opacity:1;fill-rule:nonzero;stroke:none;stroke-width:0.0352778"
       id="path676" />
  </g>
</svg>
