<?xml version="1.0" encoding="UTF-8" standalone="no"?>
<svg
   xmlns:dc="http://purl.org/dc/elements/1.1/"
   xmlns:cc="http://creativecommons.org/ns#"
   xmlns:rdf="http://www.w3.org/1999/02/22-rdf-syntax-ns#"
   xmlns:svg="http://www.w3.org/2000/svg"
   xmlns="http://www.w3.org/2000/svg"
   xmlns:sodipodi="http://sodipodi.sourceforge.net/DTD/sodipodi-0.dtd"
   xmlns:inkscape="http://www.inkscape.org/namespaces/inkscape"
   width="210mm"
   height="297mm"
   viewBox="0 0 210 297"
   version="1.1"
   id="svg10107"
   inkscape:version="1.0.2 (e86c8708, 2021-01-15)"
   sodipodi:docname="sea_plant6.svg">
  <defs
     id="defs10101" />
  <sodipodi:namedview
     id="base"
     pagecolor="#ffffff"
     bordercolor="#666666"
     borderopacity="1.0"
     inkscape:pageopacity="0.0"
     inkscape:pageshadow="2"
     inkscape:zoom="0.35"
     inkscape:cx="400"
     inkscape:cy="560"
     inkscape:document-units="mm"
     inkscape:current-layer="layer1"
     inkscape:document-rotation="0"
     showgrid="false"
     inkscape:window-width="1252"
     inkscape:window-height="1005"
     inkscape:window-x="0"
     inkscape:window-y="23"
     inkscape:window-maximized="0" />
  <metadata
     id="metadata10104">
    <rdf:RDF>
      <cc:Work
         rdf:about="">
        <dc:format>image/svg+xml</dc:format>
        <dc:type
           rdf:resource="http://purl.org/dc/dcmitype/StillImage" />
        <dc:title></dc:title>
      </cc:Work>
    </rdf:RDF>
  </metadata>
  <g
     inkscape:label="Layer 1"
     inkscape:groupmode="layer"
     id="layer1">
    <path
       d="m 62.72869,206.82293 c 0,0 1.462617,4.95406 0.170039,8.27863 -1.292578,3.32458 -6.535562,4.98264 -8.302978,8.52559 -1.76777,3.54259 1.123597,6.99699 2.432403,9.38283 1.308805,2.38583 -1.29787,4.59175 -3.452637,7.10282 -2.154767,2.51108 -0.542925,6.33378 -0.542925,6.33378 l -2.153003,2.08879 c 0,0 -1.513769,-2.63983 -1.502833,-5.17348 0.01129,-2.53436 5.842,-6.60647 5.605992,-9.19198 -0.236361,-2.58516 -4.018492,-5.06236 -4.917017,-6.9402 -0.898878,-1.87748 2.087033,-5.90691 6.469592,-8.80039 4.382559,-2.89384 4.997098,-6.67632 6.193367,-11.60639"
       style="fill:#519551;fill-opacity:1;fill-rule:nonzero;stroke:none;stroke-width:0.0352778"
       id="path222" />
    <path
       d="m 57.616234,197.51771 c 0,0 0.810684,3.12737 -0.830439,6.06248 -1.641122,2.93476 -5.292725,3.55001 -8.081434,4.97805 -2.789061,1.4284 -3.600803,3.26743 -2.204155,4.40337 1.396647,1.13595 7.34695,2.68958 7.931856,5.6642 0.584905,2.97498 -0.717903,3.8668 -3.755673,5.66632 -3.038122,1.79917 -4.200525,3.67101 -2.726972,6.09106 1.473553,2.42006 8.347428,4.90538 10.024181,8.00136 1.676753,3.09668 1.253772,5.54496 1.253772,5.54496 l -2.292703,1.10878 c 0,0 1.936045,-4.35328 -1.683102,-6.37399 -3.619148,-2.02001 -10.343798,-5.63704 -11.44764,-7.76887 -1.103842,-2.13149 -0.559858,-3.92078 2.604206,-6.32813 3.164417,-2.407 4.526139,-2.75802 4.639028,-4.95406 0.112536,-2.19569 -4.433712,-4.30318 -7.106356,-5.91538 -2.672645,-1.61255 -2.417939,-3.25014 0.248355,-4.9156 2.666295,-1.66512 8.566504,-2.76367 9.995254,-4.26332 1.42875,-1.49966 2.378075,-6.48089 3.431822,-7.00123"
       style="fill:#59b93c;fill-opacity:1;fill-rule:nonzero;stroke:none;stroke-width:0.0352778"
       id="path224" />
    <path
       d="m 85.910778,185.00927 c 0.14358,-0.26776 1.090789,5.08811 0.08749,8.26135 -1.003301,3.17358 -4.12362,4.95547 -5.724526,8.11071 -1.601258,3.15454 -1.129947,13.29196 -2.447219,17.56269 -1.317273,4.27038 -8.289573,10.11343 -9.473143,12.08687 -1.183569,1.97309 -4.597753,9.71797 -5.108575,13.4165 -0.510822,3.69817 -2.347031,-0.69921 -2.347031,-0.69921 0,0 2.58445,-11.19329 5.401734,-14.41238 2.817636,-3.2191 6.141156,-4.32506 7.95267,-8.49242 1.811514,-4.16807 2.424289,-17.03952 3.67665,-20.58388 1.252009,-3.54401 5.108223,-3.9049 6.111523,-7.07814 1.0033,-3.17394 1.309158,-7.12611 1.870428,-8.17209"
       style="fill:#519551;fill-opacity:1;fill-rule:nonzero;stroke:none;stroke-width:0.0352778"
       id="path226" />
    <path
       d="m 71.977113,187.66215 c 0.242711,-0.16368 0.140758,5.5245 -0.942975,8.25853 -1.083734,2.73368 -4.799895,4.07494 -5.123039,7.28416 -0.323145,3.20887 2.976386,7.59354 3.001786,11.19187 0.0254,3.59834 -0.642761,5.57319 -2.939345,7.52652 -2.296583,1.95333 -5.290608,3.12773 -4.462286,6.99876 0.828322,3.87103 4.173714,7.20866 4.551539,10.35191 0.377825,3.14325 -0.818797,8.07297 -0.818797,8.07297 l -1.496484,-1.89618 c 0,0 0.773642,-2.4818 -0.610305,-6.57367 -1.383595,-4.09222 -5.880453,-8.09166 -6.545792,-11.50584 -0.665339,-3.41454 0.681214,-4.93113 3.901369,-5.95278 3.220156,-1.02164 5.426781,-1.3028 6.100587,-4.54448 0.673805,-3.24203 -2.192867,-7.64223 -2.856089,-11.47904 -0.663575,-3.83646 0.288219,-4.69582 2.378075,-6.48053 2.089503,-1.78505 3.349978,-2.47438 3.977922,-4.66866 0.627945,-2.19463 1.284464,-6.17961 1.883834,-6.58354"
       style="fill:#59b93c;fill-opacity:1;fill-rule:nonzero;stroke:none;stroke-width:0.0352778"
       id="path228" />
    <path
       d="m 65.864532,247.08757 c -0.03034,-0.0677 -0.06138,-0.13476 -0.09207,-0.19931 -2.20592,-4.63445 -7.985126,-5.33753 -12.217754,-3.28437 -1.590675,0.77188 -2.875491,2.10256 -3.857625,3.55071 -0.700264,1.03152 -2.185106,2.96439 -1.162755,4.18465 0.711905,0.84942 2.087739,0.44591 3.044825,0.39229 3.057878,-0.17074 6.129514,-0.17004 9.188098,-0.0183 1.224491,0.0603 3.710516,0.61104 4.840111,-0.25647 1.344083,-1.03188 0.866775,-3.00461 0.257175,-4.36916"
       style="fill:#924a30;fill-opacity:1;fill-rule:nonzero;stroke:none;stroke-width:0.0352778"
       id="path230" />
    <path
       d="m 60.144945,250.19378 c -0.251883,-0.0526 -0.326319,0.34043 -0.07444,0.39264 0.252236,0.0526 0.326673,-0.34043 0.07444,-0.39264"
       style="fill:#e1c292;fill-opacity:1;fill-rule:nonzero;stroke:none;stroke-width:0.0352778"
       id="path232" />
    <path
       d="m 64.045257,245.6239 -0.02611,-0.004 c -0.3429,-0.0547 -0.432505,0.44132 -0.09984,0.52669 l 0.02575,0.007 c 0.334433,0.0857 0.445206,-0.47414 0.100189,-0.52917"
       style="fill:#e1c292;fill-opacity:1;fill-rule:nonzero;stroke:none;stroke-width:0.0352778"
       id="path234" />
    <path
       d="m 63.908026,247.45976 -0.03104,-0.0346 c -0.09842,-0.1083 -0.28187,-0.0201 -0.305859,0.10619 -0.02469,0.12982 0.113595,0.27129 0.245887,0.21096 l 0.04127,-0.0191 c 0.113594,-0.0519 0.13088,-0.17357 0.04974,-0.26352"
       style="fill:#e1c292;fill-opacity:1;fill-rule:nonzero;stroke:none;stroke-width:0.0352778"
       id="path236" />
    <path
       d="m 62.204462,250.36629 -0.0441,-0.001 c -0.226131,-0.008 -0.287867,0.35666 -0.0829,0.43709 l 0.04128,0.0159 c 0.357364,0.14076 0.483306,-0.43709 0.08572,-0.45156"
       style="fill:#e1c292;fill-opacity:1;fill-rule:nonzero;stroke:none;stroke-width:0.0352778"
       id="path238" />
    <path
       d="m 61.244907,246.46386 c -0.2286,-0.0476 -0.296334,0.30833 -0.06773,0.3556 0.2286,0.0476 0.295981,-0.30868 0.06773,-0.3556"
       style="fill:#e1c292;fill-opacity:1;fill-rule:nonzero;stroke:none;stroke-width:0.0352778"
       id="path240" />
    <path
       d="m 58.273106,250.81855 c -0.252236,-0.0522 -0.326672,0.34043 -0.07444,0.393 0.251884,0.0522 0.32632,-0.34043 0.07444,-0.393"
       style="fill:#e1c292;fill-opacity:1;fill-rule:nonzero;stroke:none;stroke-width:0.0352778"
       id="path242" />
    <path
       d="m 62.675068,247.89402 c -0.179917,-0.0339 -0.283986,0.19509 -0.153106,0.31609 l 0.0095,0.008 c 0.04163,0.0388 0.105128,0.0483 0.157692,0.03 l 0.01305,-0.004 c 0.170391,-0.0593 0.148872,-0.31679 -0.02716,-0.35031"
       style="fill:#e1c292;fill-opacity:1;fill-rule:nonzero;stroke:none;stroke-width:0.0352778"
       id="path244" />
    <path
       d="m 60.005951,246.26913 c -0.328436,-0.0681 -0.42545,0.44379 -0.09737,0.51188 0.328436,0.0681 0.425803,-0.44344 0.09737,-0.51188"
       style="fill:#e1c292;fill-opacity:1;fill-rule:nonzero;stroke:none;stroke-width:0.0352778"
       id="path246" />
    <path
       d="m 65.176262,247.97834 c -0.322791,-0.0674 -0.418394,0.43603 -0.0956,0.50306 0.322791,0.067 0.418394,-0.43603 0.0956,-0.50306"
       style="fill:#e1c292;fill-opacity:1;fill-rule:nonzero;stroke:none;stroke-width:0.0352778"
       id="path248" />
    <path
       d="m 63.73834,249.96801 -0.02646,-0.003 c -0.210961,-0.0229 -0.258939,0.25823 -0.06068,0.31997 l 0.02575,0.008 c 0.201436,0.0628 0.276225,-0.30127 0.06138,-0.32455"
       style="fill:#e1c292;fill-opacity:1;fill-rule:nonzero;stroke:none;stroke-width:0.0352778"
       id="path250" />
    <path
       d="m 61.472801,249.15238 c -0.05327,-0.14605 -0.273755,-0.18591 -0.341489,0 -0.106891,0.29281 0.319264,0.3683 0.35172,0.0942 0.0042,-0.0346 0,-0.0663 -0.01023,-0.0942"
       style="fill:#e1c292;fill-opacity:1;fill-rule:nonzero;stroke:none;stroke-width:0.0352778"
       id="path252" />
    <path
       d="m 65.349829,250.33948 c -0.429683,-0.0893 -0.556683,0.58032 -0.127,0.66957 0.429683,0.0893 0.556683,-0.57996 0.127,-0.66957"
       style="fill:#e1c292;fill-opacity:1;fill-rule:nonzero;stroke:none;stroke-width:0.0352778"
       id="path254" />
    <path
       d="m 59.64894,248.28843 c -0.122767,0.0102 -0.234597,0.0875 -0.245181,0.25083 -0.01623,0.25646 0.333728,0.39475 0.506236,0.20849 0.196498,-0.21096 -0.01199,-0.47943 -0.261055,-0.45932"
       style="fill:#e1c292;fill-opacity:1;fill-rule:nonzero;stroke:none;stroke-width:0.0352778"
       id="path256" />
  </g>
</svg>
