<?xml version="1.0" encoding="UTF-8" standalone="no"?>
<svg
   xmlns:dc="http://purl.org/dc/elements/1.1/"
   xmlns:cc="http://creativecommons.org/ns#"
   xmlns:rdf="http://www.w3.org/1999/02/22-rdf-syntax-ns#"
   xmlns:svg="http://www.w3.org/2000/svg"
   xmlns="http://www.w3.org/2000/svg"
   xmlns:sodipodi="http://sodipodi.sourceforge.net/DTD/sodipodi-0.dtd"
   xmlns:inkscape="http://www.inkscape.org/namespaces/inkscape"
   width="210mm"
   height="297mm"
   viewBox="0 0 210 297"
   version="1.1"
   id="svg11476"
   inkscape:version="1.0.2 (e86c8708, 2021-01-15)"
   sodipodi:docname="sea_shell2.svg">
  <defs
     id="defs11470" />
  <sodipodi:namedview
     id="base"
     pagecolor="#ffffff"
     bordercolor="#666666"
     borderopacity="1.0"
     inkscape:pageopacity="0.0"
     inkscape:pageshadow="2"
     inkscape:zoom="0.35"
     inkscape:cx="400"
     inkscape:cy="560"
     inkscape:document-units="mm"
     inkscape:current-layer="layer1"
     inkscape:document-rotation="0"
     showgrid="false"
     inkscape:window-width="1252"
     inkscape:window-height="1005"
     inkscape:window-x="0"
     inkscape:window-y="23"
     inkscape:window-maximized="0" />
  <metadata
     id="metadata11473">
    <rdf:RDF>
      <cc:Work
         rdf:about="">
        <dc:format>image/svg+xml</dc:format>
        <dc:type
           rdf:resource="http://purl.org/dc/dcmitype/StillImage" />
        <dc:title></dc:title>
      </cc:Work>
    </rdf:RDF>
  </metadata>
  <g
     inkscape:label="Layer 1"
     inkscape:groupmode="layer"
     id="layer1">
    <path
       d="m 90.77445,222.82596 c 0,0 -7.115528,2.93977 -7.9375,4.88004 -0.8255,1.94028 8.819445,5.29167 12.523612,4.7625 3.704167,-0.52916 9.405058,-2.46944 10.230558,-3.46893 0.82197,-0.99935 0.99836,-4.29218 -2.00025,-5.87968 -2.99861,-1.5875 -10.936114,-0.64671 -12.81642,-0.29393"
       style="fill:#333f48;fill-opacity:1;fill-rule:nonzero;stroke:none;stroke-width:0.0352778"
       id="path572" />
    <path
       d="m 95.900312,226.82762 c -0.4445,-1.47711 -1.74625,-2.70164 -3.425473,-2.91673 -1.774472,-0.22835 -3.548944,0.6762 -4.318,2.3078 -0.705556,1.49116 -0.41275,3.39725 0.705556,4.60802 1.912055,2.06551 5.192889,1.3849 6.621639,-0.889 0.627944,-0.99631 0.716139,-2.11113 0.416278,-3.11009"
       style="fill:#ffffff;fill-opacity:1;fill-rule:nonzero;stroke:none;stroke-width:0.0352778"
       id="path574" />
    <path
       d="m 92.785284,225.99542 c -0.543278,-0.48161 -1.188861,-0.75957 -1.929695,-0.75957 -0.373944,-0.007 -0.719667,0.0765 -1.037167,0.25192 -0.335138,0.11494 -0.620888,0.30646 -0.864305,0.57492 -0.257528,0.25009 -0.440972,0.54406 -0.543278,0.88167 -0.01764,0.0332 -0.02822,0.0681 -0.04233,0.10223 0.165805,-0.0828 0.345722,-0.13476 0.525639,-0.13476 0.694972,0 1.217083,0.53703 1.259416,1.21818 0.02117,0.3084 -0.134055,0.66421 -0.345722,0.88303 -0.218722,0.22504 -0.557389,0.37857 -0.871361,0.37857 -0.127,0 -0.246944,-0.0233 -0.359833,-0.0568 0.119944,0.20627 0.264583,0.39645 0.4445,0.55767 0.546805,0.48189 1.192389,0.75942 1.929694,0.75942 0.373945,0.008 0.719667,-0.0758 1.040695,-0.25146 0.331611,-0.11493 0.620889,-0.30691 0.860778,-0.57506 0.261055,-0.24969 0.440972,-0.54363 0.543277,-0.88113 0.165806,-0.32562 0.236361,-0.67522 0.215195,-1.04786 -0.04233,-0.69991 -0.28575,-1.42197 -0.8255,-1.90101"
       style="fill:#333f48;fill-opacity:1;fill-rule:nonzero;stroke:none;stroke-width:0.0352778"
       id="path576" />
    <path
       d="m 104.3317,226.36545 c -0.44803,-1.47712 -1.74625,-2.70126 -3.42547,-2.91677 -1.774474,-0.22793 -3.548946,0.67621 -4.318002,2.3078 -0.705555,1.4913 -0.41275,3.39729 0.705556,4.60844 1.912056,2.06513 5.192886,1.38466 6.621636,-0.88938 0.62795,-0.99632 0.71614,-2.11103 0.41628,-3.11009"
       style="fill:#ffffff;fill-opacity:1;fill-rule:nonzero;stroke:none;stroke-width:0.0352778"
       id="path578" />
    <path
       d="m 101.27312,225.47493 c -0.54328,-0.48214 -1.18886,-0.75985 -1.926169,-0.75985 -0.373945,-0.007 -0.719667,0.0762 -1.040695,0.25164 -0.331611,0.11493 -0.620889,0.30688 -0.860778,0.57534 -0.261055,0.2497 -0.440972,0.54363 -0.543277,0.88124 -0.04233,0.0772 -0.07408,0.15586 -0.102306,0.23594 l 0.0071,-0.007 c 0.215194,-0.22476 0.553861,-0.37857 0.867833,-0.37857 0.6985,0 1.220611,0.53732 1.262945,1.21807 0.02117,0.30868 -0.137584,0.66435 -0.345723,0.88304 -0.218722,0.22504 -0.557389,0.37896 -0.871361,0.37896 -0.328083,0 -0.613833,-0.12182 -0.832555,-0.31832 0.134055,0.35455 0.335138,0.68087 0.624416,0.93663 0.543278,0.48193 1.188861,0.75985 1.929695,0.75985 0.370417,0.007 0.719665,-0.0764 1.037165,-0.25174 0.33514,-0.11508 0.62089,-0.30664 0.8643,-0.57507 0.25753,-0.25012 0.44098,-0.54405 0.54328,-0.88166 0.16228,-0.32551 0.23636,-0.67483 0.2152,-1.04733 -0.0423,-0.69991 -0.28575,-1.42211 -0.82903,-1.90087"
       style="fill:#333f48;fill-opacity:1;fill-rule:nonzero;stroke:none;stroke-width:0.0352778"
       id="path580" />
    <path
       d="m 77.721672,228.70578 c 0,-0.1323 4.363861,-0.66146 6.614583,-0.26459 1.594556,0.2811 2.822223,1.89618 2.822223,1.89618 0,0 1.188861,-0.70555 3.129139,-0.48507 1.478139,0.16757 2.6035,1.36702 2.6035,1.36702 0,0 0.79375,-0.88195 2.776361,-1.10243 1.986139,-0.22049 3.086806,0.48507 3.086806,0.48507 0,0 0.310445,-0.83785 2.116666,-1.36702 1.80975,-0.52916 2.33892,0 2.33892,0 0,0 2.55764,-2.82222 3.26319,-2.77812 0.70556,0.0441 0.88195,2.91041 -0.66322,4.54201 -1.54164,1.6316 -2.59997,1.71979 -2.59997,1.71979 0,0 -0.75142,0.79375 -2.25072,1.10243 -1.49931,0.30868 -2.910421,-0.13229 -2.910421,-0.13229 0,0 -0.705556,1.01424 -2.952751,1.14653 -2.250722,0.13229 -3.175,-0.88194 -3.175,-0.88194 0,0 -1.058333,0.83784 -3.263195,0.44097 -1.883833,-0.33945 -2.691694,-1.49931 -2.691694,-1.49931 0,0 -3.481917,0.17639 -5.55625,-1.23472 -2.070806,-1.41111 -2.688167,-1.98438 -2.688167,-2.95451"
       style="fill:#95aab9;fill-opacity:1;fill-rule:nonzero;stroke:none;stroke-width:0.0352778"
       id="path582" />
    <path
       d="m 77.457088,228.97036 c -0.0388,0.1827 4.452056,0.44097 6.790973,-0.61736 2.335389,-1.05834 2.116667,-1.71979 2.116667,-1.71979 0,0 0.747889,0.30868 1.894417,-0.44098 1.146527,-0.74965 1.322916,-1.36701 1.322916,-1.36701 0,0 0.970139,0.57326 2.250723,0.0441 1.277055,-0.52917 1.763889,-1.32292 1.763889,-1.32292 0,0 1.100666,0.79375 2.293055,0.52917 1.188862,-0.26459 1.852084,-0.88195 1.852084,-0.88195 0,0 0.617361,0.97014 1.806222,0.97014 1.192386,0 2.074336,-0.57326 2.074336,-0.57326 0,0 0.39511,0.92604 1.54164,1.19062 1.14652,0.26459 1.89794,0 1.89794,0 0,0 -0.22225,1.85209 1.54164,1.94028 -0.5715,-3.08681 -1.60867,-3.99094 -2.62467,-4.5642 -0.52916,-1.27882 -2.53294,-2.71184 -4.23333,-2.75594 -1.167695,-0.70555 -3.81,-0.73794 -4.914195,-0.39687 -1.125361,-0.57327 -3.947584,-0.24268 -4.409722,0.77156 -2.293056,-0.22049 -3.85939,0.94823 -4.169834,1.89618 -2.247195,0.17639 -4.004028,1.62415 -4.152195,2.74133 -1.146528,0.0882 -4.201583,2.44023 -4.642556,4.5569"
       style="fill:#c4d5e2;fill-opacity:1;fill-rule:nonzero;stroke:none;stroke-width:0.0352778"
       id="path584" />
    <path
       d="m 104.04595,222.28949 c 0.0776,-0.0848 0.58208,0.32409 0.87136,1.03364 0.30692,0.70337 0.23636,1.35325 0.11995,1.34761 -0.11289,6.7e-4 -0.22578,-0.5515 -0.50095,-1.18678 -0.26105,-0.64135 -0.57503,-1.11372 -0.49036,-1.19447"
       style="fill:#9bb3bd;fill-opacity:1;fill-rule:nonzero;stroke:none;stroke-width:0.0352778"
       id="path586" />
    <path
       d="m 99.68209,219.42317 c 0.03175,-0.041 0.271639,0.0828 0.5715,0.38336 0.30339,0.29821 0.64911,0.77763 0.92428,1.35929 0.56091,1.16872 0.58561,2.24441 0.47272,2.24829 -0.11642,0.014 -0.3175,-0.96876 -0.85019,-2.06982 -0.26106,-0.55097 -0.54328,-1.02129 -0.77259,-1.34899 -0.225776,-0.32836 -0.388054,-0.52528 -0.34572,-0.57213"
       style="fill:#9bb3bd;fill-opacity:1;fill-rule:nonzero;stroke:none;stroke-width:0.0352778"
       id="path588" />
    <path
       d="m 94.676173,218.9822 c 0.02117,-0.0441 0.313972,0.0299 0.719666,0.28042 0.405695,0.24761 0.917223,0.67772 1.361723,1.25511 0.448028,0.57118 0.740833,1.16777 0.889,1.62183 0.155222,0.45501 0.123472,0.77858 0.0635,0.77459 -0.05644,-0.002 -0.123472,-0.26169 -0.335139,-0.66244 -0.204611,-0.39864 -0.522111,-0.93913 -0.945445,-1.4785 -0.419805,-0.545 -0.867833,-0.97758 -1.2065,-1.27289 -0.342194,-0.29587 -0.578555,-0.45999 -0.546805,-0.51812"
       style="fill:#9bb3bd;fill-opacity:1;fill-rule:nonzero;stroke:none;stroke-width:0.0352778"
       id="path590" />
    <path
       d="m 90.464006,219.88633 c 0.0035,-0.054 0.321028,-0.0405 0.712611,0.20641 0.395111,0.23456 0.85725,0.65511 1.294695,1.17532 0.440972,0.51897 0.776111,1.04044 0.970138,1.44723 0.09878,0.202 0.15875,0.37991 0.179917,0.51001 0.02117,0.13201 0,0.21139 -0.02469,0.21072 -0.03175,9.5e-4 -0.0635,-0.0583 -0.127,-0.15533 -0.0635,-0.0991 -0.15875,-0.24307 -0.282223,-0.41727 -0.250472,-0.34932 -0.606777,-0.82585 -1.033639,-1.32648 -0.423333,-0.50204 -0.829027,-0.93172 -1.150055,-1.20537 -0.313972,-0.28335 -0.550333,-0.38312 -0.53975,-0.44524"
       style="fill:#9bb3bd;fill-opacity:1;fill-rule:nonzero;stroke:none;stroke-width:0.0352778"
       id="path592" />
    <path
       d="m 86.209506,221.73841 c -0.0035,-0.0264 0.05997,-0.06 0.194027,-0.0751 0.130528,-0.001 0.321028,0.0271 0.525639,0.11878 0.419806,0.17113 0.906639,0.53841 1.375834,1.00584 0.934861,0.94188 1.382889,1.94342 1.277055,1.99319 -0.102305,0.0547 -0.680861,-0.80147 -1.573389,-1.70039 -0.448027,-0.44661 -0.874889,-0.82338 -1.213555,-1.03681 -0.169334,-0.11441 -0.310445,-0.17434 -0.41275,-0.2201 -0.102306,-0.0314 -0.169334,-0.0558 -0.172861,-0.0854"
       style="fill:#9bb3bd;fill-opacity:1;fill-rule:nonzero;stroke:none;stroke-width:0.0352778"
       id="path594" />
    <path
       d="m 82.219589,224.47244 c 0,-0.0487 0.268111,-0.10379 0.6985,-0.0385 0.426861,0.0638 1.001889,0.25326 1.566333,0.57958 0.567972,0.31958 1.023056,0.69 1.329972,0.97786 0.306917,0.29327 0.465667,0.48578 0.437445,0.53139 -0.08819,0.11628 -0.903111,-0.53484 -1.975556,-1.14653 -0.536222,-0.31019 -1.04775,-0.52504 -1.42875,-0.65581 -0.381,-0.13201 -0.631472,-0.18203 -0.627944,-0.24804"
       style="fill:#9bb3bd;fill-opacity:1;fill-rule:nonzero;stroke:none;stroke-width:0.0352778"
       id="path596" />
    <path
       d="m 85.941394,232.73446 c -0.02117,0 -0.03528,-0.006 -0.04233,-0.0158 -0.03175,-0.0493 0.04939,-0.16965 0.162278,-0.3659 0.119944,-0.19427 0.275167,-0.4688 0.440972,-0.77858 0.335139,-0.61351 0.546806,-1.12667 0.652639,-1.12667 0,0 0,0 0.0035,0 0.127,0.0134 0.07408,0.66242 -0.289278,1.32292 -0.176389,0.33154 -0.388056,0.60674 -0.582083,0.77361 -0.148167,0.1301 -0.278695,0.19046 -0.345723,0.19046"
       style="fill:#7e97a8;fill-opacity:1;fill-rule:nonzero;stroke:none;stroke-width:0.0352778"
       id="path598" />
    <path
       d="m 92.0127,233.87506 c -0.01058,0 -0.02117,-0.004 -0.02822,-0.01 -0.0388,-0.043 0.01411,-0.17325 0.08467,-0.40531 0.08114,-0.23039 0.186972,-0.54472 0.306917,-0.89228 0.250472,-0.69702 0.405694,-1.26005 0.511527,-1.26005 0.0035,0 0.0035,0 0.0035,0 0.123472,6.7e-4 0.144639,0.66668 -0.119944,1.39594 -0.127,0.36587 -0.28575,0.68115 -0.437445,0.89281 -0.127,0.18094 -0.261055,0.2788 -0.321028,0.2788"
       style="fill:#7e97a8;fill-opacity:1;fill-rule:nonzero;stroke:none;stroke-width:0.0352778"
       id="path600" />
    <path
       d="m 98.115756,233.65098 c -0.01058,0 -0.01764,-0.002 -0.02117,-0.006 -0.08467,-0.0741 0.229305,-0.6339 0.377472,-1.42765 0.169333,-0.78603 0.208139,-1.45316 0.328083,-1.46085 v 0 c 0.112889,0 0.261056,0.69948 0.08114,1.54795 -0.09172,0.4251 -0.254,0.7958 -0.423333,1.03254 -0.144639,0.2092 -0.282222,0.31433 -0.342195,0.31433"
       style="fill:#7e97a8;fill-opacity:1;fill-rule:nonzero;stroke:none;stroke-width:0.0352778"
       id="path602" />
    <path
       d="m 103.19576,232.63219 c -0.004,0 -0.007,-6.7e-4 -0.0106,-0.002 -0.11289,-0.043 0.0706,-0.74965 0.10936,-1.62708 0.0176,-0.43847 0.004,-0.83563 -0.0176,-1.12349 -0.0212,-0.29009 -0.0529,-0.46084 -0.004,-0.49072 0.004,-0.002 0.0106,-0.004 0.0141,-0.004 0.06,0 0.18697,0.15946 0.27517,0.43466 0.1023,0.29721 0.16933,0.72799 0.14816,1.20258 -0.0423,0.92922 -0.40216,1.60969 -0.51505,1.60969"
       style="fill:#7e97a8;fill-opacity:1;fill-rule:nonzero;stroke:none;stroke-width:0.0352778"
       id="path604" />
  </g>
</svg>
