<?xml version="1.0" encoding="UTF-8" standalone="no"?>
<svg
   xmlns:dc="http://purl.org/dc/elements/1.1/"
   xmlns:cc="http://creativecommons.org/ns#"
   xmlns:rdf="http://www.w3.org/1999/02/22-rdf-syntax-ns#"
   xmlns:svg="http://www.w3.org/2000/svg"
   xmlns="http://www.w3.org/2000/svg"
   xmlns:sodipodi="http://sodipodi.sourceforge.net/DTD/sodipodi-0.dtd"
   xmlns:inkscape="http://www.inkscape.org/namespaces/inkscape"
   width="210mm"
   height="297mm"
   viewBox="0 0 210 297"
   version="1.1"
   id="svg11309"
   inkscape:version="1.0.2 (e86c8708, 2021-01-15)"
   sodipodi:docname="sea_plant9.svg">
  <defs
     id="defs11303" />
  <sodipodi:namedview
     id="base"
     pagecolor="#ffffff"
     bordercolor="#666666"
     borderopacity="1.0"
     inkscape:pageopacity="0.0"
     inkscape:pageshadow="2"
     inkscape:zoom="0.35"
     inkscape:cx="400"
     inkscape:cy="560"
     inkscape:document-units="mm"
     inkscape:current-layer="layer1"
     inkscape:document-rotation="0"
     showgrid="false"
     inkscape:window-width="1252"
     inkscape:window-height="1005"
     inkscape:window-x="0"
     inkscape:window-y="23"
     inkscape:window-maximized="0" />
  <metadata
     id="metadata11306">
    <rdf:RDF>
      <cc:Work
         rdf:about="">
        <dc:format>image/svg+xml</dc:format>
        <dc:type
           rdf:resource="http://purl.org/dc/dcmitype/StillImage" />
        <dc:title></dc:title>
      </cc:Work>
    </rdf:RDF>
  </metadata>
  <g
     inkscape:label="Layer 1"
     inkscape:groupmode="layer"
     id="layer1">
    <path
       d="m 123.29488,124.88766 c -0.5468,0 -0.52916,0.84596 0.0141,0.84596 0.54328,0 0.52917,-0.84596 -0.0141,-0.84596"
       style="fill:#f7974b;fill-opacity:1;fill-rule:nonzero;stroke:none;stroke-width:0.0352778"
       id="path388" />
    <path
       d="m 124.02513,127.23751 c -0.42333,0 -0.41275,0.65969 0.0141,0.65969 0.42334,0 0.41275,-0.65969 -0.0141,-0.65969"
       style="fill:#f7974b;fill-opacity:1;fill-rule:nonzero;stroke:none;stroke-width:0.0352778"
       id="path390" />
    <path
       d="m 105.96997,187.53535 c -0.2152,-2.25743 -0.77964,-4.50321 -0.8255,-6.82131 0.0776,-0.57432 0.16933,-1.14829 0.27163,-1.72191 0.28223,-1.56951 0.62089,-3.17147 0.58562,-4.75121 -0.0141,-0.66499 -0.22225,-1.19133 -0.79728,-1.21603 -0.23989,-0.0102 -0.46567,0.11501 -0.57503,-0.20425 -0.0282,-0.0797 -0.0388,-0.16581 -0.0388,-0.25506 0.54328,-1.8408 1.34762,-3.54436 2.03906,-5.31707 0.36689,-0.93874 0.99836,-2.68429 0.0811,-3.25543 -0.1905,-0.11748 -0.40217,-0.20814 -0.52917,-0.41805 -0.16933,-0.27728 -0.13758,-0.70202 -0.004,-1.04704 0.53975,-1.38536 1.59809,-2.44546 2.13784,-3.90984 0.26105,-0.71543 0.83961,-2.11843 0.62089,-2.86596 -0.16934,-0.57362 -0.59267,-0.36971 -0.99836,-0.58032 0.0635,-0.39688 0.13758,-0.79269 0.23283,-1.18357 0.29986,-1.24249 0.91017,-2.16182 1.49225,-3.23639 0.58208,-1.06856 1.03011,-2.62854 0.39158,-3.6576 -0.34925,-0.55738 -0.52211,-0.7948 -0.26811,-1.61642 0.5327,-1.74202 1.6122,-3.181 2.11314,-4.92902 0.12347,-0.43709 0.20461,-0.90416 0.13758,-1.33491 -0.16227,-1.03505 -0.89958,-0.73413 -1.44639,-1.17369 l -0.0388,-0.0317 c -0.82197,-0.7246 -0.16581,-2.16147 0.25753,-3.09986 0.39864,-0.88547 0.76552,-1.78893 1.10419,-2.70757 0.75847,-2.05987 -0.84667,-2.57245 -2.1343,-1.88136 -2.47298,1.32503 -3.52778,4.16384 -4.32153,7.12435 -0.18345,0.31997 -0.41275,0.56938 -0.70556,0.58984 -0.0388,-0.002 -0.0776,-0.004 -0.11641,-0.005 -0.0423,-0.006 -0.0847,-0.0152 -0.127,-0.03 -0.76906,-0.2734 -1.524,0.13123 -1.83092,1.20474 -0.13758,0.47448 -0.15875,0.9726 -0.17639,1.4612 -0.0318,0.82938 0.25047,4.92196 -0.51506,5.10893 -0.254,0.0617 -0.50094,-0.0399 -0.75847,0.0349 -0.42333,0.12348 -0.64558,0.54787 -0.82197,1.02094 -0.423334,1.14865 0.127,2.14419 0.36689,3.1489 0.29986,1.23648 0.23283,2.6603 -0.14111,3.95464 -0.0564,0.19685 -0.12347,0.39793 -0.24342,0.55033 -0.32103,0.40711 -0.934861,0.28998 -1.326444,0.74754 -0.398639,0.46496 -0.617361,1.15358 -0.659694,1.79246 -0.09172,1.36066 0.522111,2.62361 0.656166,3.93735 0.102306,1.0153 0.225778,3.32 -0.9525,3.36974 -0.243416,0.0106 -0.469194,0.10371 -0.673805,0.29633 -0.776112,0.73096 -0.896056,2.15653 -0.769056,3.17853 0.151694,1.21003 0.620889,2.2733 0.959556,3.38455 0.172861,0.56303 0.345722,1.18815 0.352777,1.82033 0.0071,0.86819 -1.086555,1.50354 -1.386416,2.37455 -0.335139,0.96873 -0.236361,1.97132 0.02469,2.8642 0.373945,1.27 1.160639,2.19111 1.654528,3.36374 0.268111,0.635 0.560917,1.55257 0.109361,2.25072 -0.508,0.78917 -0.779639,1.61431 -0.448028,2.51742 0.232834,0.63959 0.673806,1.09855 1.125362,1.50002 0.737305,0.65651 1.823863,1.2774 1.453453,2.71885 -0.26106,1.02941 0.0106,1.50989 0.508,2.21192 0.69144,0.97437 1.68627,1.64994 2.29658,2.69028 0.16228,0.27835 0.38453,0.55563 0.67733,0.51894 0.40217,-0.0505 0.70556,-0.66463 0.9137,-1.06539 1.17122,-2.24508 1.30175,-4.95617 1.06539,-7.42068"
       style="fill:#519551;fill-opacity:1;fill-rule:nonzero;stroke:none;stroke-width:0.0352778"
       id="path2112" />
    <path
       d="m 109.01797,133.76919 c -1.12184,1.46227 -1.63689,3.40254 -2.07787,5.16608 -0.56444,2.27683 -0.94191,4.59811 -1.31233,6.91303 -0.381,2.36785 -0.73378,4.7431 -1.2065,7.09472 -0.40922,2.03729 -0.86783,4.06435 -1.3088,6.09494 -0.90312,4.17054 -1.73214,8.32873 -1.97556,12.59593 -0.28575,5.04755 -0.35983,10.10885 -0.24694,15.1631 0.0494,2.153 0.13405,4.30353 0.32455,6.44877 0.10936,1.2372 0.23636,2.46557 0.56092,3.66466 0.0917,0.33443 0.61383,0.19262 0.52211,-0.14358 -0.27164,-0.99025 -0.28222,-2.11526 -0.35983,-3.13231 -0.13406,-1.79811 -0.20462,-3.60257 -0.26459,-5.40456 -0.15875,-4.81612 -0.11994,-9.64001 0.0564,-14.45507 0.0847,-2.24261 0.17286,-4.48345 0.49741,-6.70595 0.3175,-2.14948 0.74436,-4.28202 1.19592,-6.40645 0.89253,-4.21111 1.84503,-8.39646 2.54,-12.64708 0.77611,-4.73075 1.37583,-9.63048 3.52072,-13.97565 0.15522,-0.31715 -0.25753,-0.5401 -0.46566,-0.27058"
       style="fill:#5e873c;fill-opacity:1;fill-rule:nonzero;stroke:none;stroke-width:0.0352778"
       id="path2114" />
    <path
       d="m 100.68888,188.6018 c -0.867832,-1.66758 -2.003776,-3.2191 -2.758721,-4.98793 -0.119944,-0.46531 -0.229305,-0.93451 -0.328083,-1.40829 -0.271639,-1.29469 -0.511528,-2.63207 -1.030111,-3.83575 -0.218722,-0.50659 -0.53975,-0.84631 -0.991306,-0.68686 -0.186972,0.0674 -0.324555,0.23425 -0.504472,0.0222 -0.04586,-0.0526 -0.08114,-0.11536 -0.109361,-0.1838 -0.155222,-1.58468 -0.07056,-3.14431 -0.08819,-4.7237 -0.01058,-0.83573 -0.07055,-2.37454 -0.9525,-2.528 -0.183444,-0.0314 -0.373944,-0.0349 -0.536222,-0.15663 -0.218722,-0.16087 -0.328083,-0.49672 -0.331611,-0.80363 -0.01411,-1.23367 0.469194,-2.37878 0.426861,-3.67242 -0.02117,-0.63182 -0.01411,-1.89124 -0.416278,-2.39712 -0.306916,-0.38877 -0.5715,-0.0998 -0.945444,-0.13512 -0.07761,-0.32491 -0.141111,-0.65264 -0.1905,-0.98284 -0.15875,-1.04881 0.02822,-1.94627 0.141111,-2.95345 0.112889,-1.00224 -0.02822,-2.34209 -0.843139,-2.93406 -0.437445,-0.32032 -0.645583,-0.44873 -0.709083,-1.15887 -0.130528,-1.50566 0.250472,-2.94887 0.09172,-4.44818 -0.04233,-0.37535 -0.127,-0.75953 -0.310445,-1.06962 -0.448028,-0.74542 -0.92075,-0.28398 -1.478139,-0.45155 l -0.0388,-0.0123 c -0.85725,-0.30163 -0.800806,-1.61078 -0.769056,-2.46415 0.03175,-0.80504 0.03175,-1.61502 0.0071,-2.42606 -0.05997,-1.81998 -1.453445,-1.7145 -2.229556,-0.78105 -1.488722,1.78894 -1.411111,4.29931 -1.100667,6.82308 -0.04233,0.30339 -0.141111,0.56727 -0.359833,0.6731 l -0.09172,0.0339 c -0.03175,0.008 -0.06703,0.0137 -0.105834,0.0152 -0.677333,0.0303 -1.132416,0.57644 -1.033639,1.49755 0.04233,0.40745 0.179917,0.79727 0.321028,1.17863 0.232834,0.64734 1.725084,3.70557 1.192389,4.08869 -0.172861,0.1263 -0.395111,0.12559 -0.5715,0.26282 -0.28575,0.22648 -0.324555,0.62265 -0.310444,1.04105 0.03175,1.01494 0.762,1.60972 1.262944,2.30681 0.613834,0.85761 1.005417,1.97274 1.121834,3.08504 0.01764,0.16898 0.02822,0.34467 -0.01764,0.49918 -0.119945,0.41275 -0.627945,0.5133 -0.786695,0.98778 -0.162278,0.4819 -0.112889,1.07844 0.05292,1.58362 0.352778,1.07456 1.217083,1.8542 1.728611,2.82293 0.395111,0.74895 1.210028,2.48214 0.3175,2.88784 -0.179917,0.0836 -0.328083,0.22578 -0.423333,0.4378 -0.370417,0.80398 -0.02117,1.93816 0.398639,2.68358 0.493889,0.88265 1.181805,1.55469 1.792111,2.30328 0.306917,0.37959 0.635,0.8054 0.836083,1.29046 0.275167,0.66499 -0.366889,1.49367 -0.328083,2.25743 0.04586,0.84914 0.437444,1.58856 0.913694,2.19392 0.680862,0.86078 1.573389,1.32363 2.321278,2.07116 0.402167,0.40499 0.913695,1.01883 0.783167,1.69651 -0.144639,0.76553 -0.09525,1.48379 0.440972,2.07575 0.377473,0.4191 0.860778,0.63429 1.3335,0.80257 0.772584,0.2741 0.02117,1.33103 0.186973,2.55411 0.119944,0.87312 2.794,2.6289 3.393722,3.01307 0.836083,0.53376 1.248838,1.07386 2.113148,0.79693 0.254,-0.0819 0.1658,-0.36866 0.37747,-0.48684 0.2928,-0.16545 0.59266,-1.88665 0.62794,-2.26024 0.20109,-2.08986 -0.54328,-4.21605 -1.49225,-6.03744"
       style="fill:#519551;fill-opacity:1;fill-rule:nonzero;stroke:none;stroke-width:0.0352778"
       id="path2116" />
    <path
       d="m 86.246159,146.27199 c -0.451556,1.5173 -0.215195,3.22474 0.0071,4.76462 0.28575,1.98966 0.740834,3.95287 1.192389,5.91044 0.839611,3.62902 1.527528,7.26122 2.166056,10.9287 0.606778,3.47557 1.287639,6.89822 2.427111,10.24184 1.326445,3.88444 2.818695,7.71349 4.441473,11.48327 0.709083,1.64465 1.442861,3.27484 2.261305,4.86904 0.472723,0.92358 1.305287,2.05493 1.933217,2.88079 0.20814,0.27305 0.54328,0.0473 0.33161,-0.22966 -0.49741,-0.6544 -1.054799,-1.77271 -1.41816,-2.50472 -0.656167,-1.31869 -1.259417,-2.66453 -1.859139,-4.00862 -1.640417,-3.67488 -3.122084,-7.42138 -4.501445,-11.20281 -0.617361,-1.69968 -1.23825,-3.40113 -1.675694,-5.15726 -0.423334,-1.68275 -0.754945,-3.38808 -1.061861,-5.09517 -0.627945,-3.48015 -1.164167,-6.97124 -1.940278,-10.42352 -0.917223,-4.0887 -1.993195,-8.16434 -1.774473,-12.38568 0.01411,-0.30903 -0.4445,-0.35489 -0.529166,-0.0713"
       style="fill:#5e873c;fill-opacity:1;fill-rule:nonzero;stroke:none;stroke-width:0.0352778"
       id="path2118" />
    <path
       d="m 104.34719,191.00668 c 1.05128,-0.90205 2.25072,-1.6517 3.24908,-2.6543 0.21167,-0.28469 0.41275,-0.57573 0.61031,-0.87242 0.53975,-0.81033 1.06891,-1.65911 1.7533,-2.33962 0.28928,-0.28681 0.60325,-0.43039 0.86431,-0.19826 0.11289,0.0981 0.15875,0.24871 0.34219,0.15416 0.0459,-0.024 0.0847,-0.0568 0.12347,-0.0963 0.53975,-1.0407 0.90664,-2.12972 1.35467,-3.20393 0.23636,-0.56833 0.69497,-1.60408 1.34056,-1.46685 0.13405,0.0282 0.26458,0.078 0.40922,0.0392 0.19403,-0.0505 0.35983,-0.25012 0.4445,-0.45861 0.34925,-0.83891 0.33161,-1.75402 0.71614,-2.62644 0.18697,-0.42615 0.52564,-1.28905 0.93839,-1.5247 0.3175,-0.18133 0.41627,0.0882 0.68439,0.16722 0.14111,-0.20144 0.27516,-0.40782 0.39864,-0.61984 0.39511,-0.6738 0.51505,-1.33738 0.71261,-2.05704 0.19755,-0.71579 0.65969,-1.59315 1.37583,-1.77553 0.39158,-0.0981 0.56797,-0.12947 0.80433,-0.59761 0.50095,-0.99236 0.635,-2.08386 1.15711,-3.06423 0.13053,-0.24553 0.29281,-0.48507 0.50448,-0.64629 0.508,-0.38699 0.70555,0.0579 1.13241,0.0956 l 0.0318,0.002 c 0.66675,0.0282 0.98425,-0.8823 1.19592,-1.47426 0.20108,-0.55845 0.41981,-1.11231 0.65969,-1.65947 0.53975,-1.22731 1.46403,-0.77435 1.7392,0.0762 0.52564,1.62983 -0.21167,3.32493 -1.11478,4.96394 -0.0564,0.21907 -0.06,0.42686 0.06,0.55845 l 0.0529,0.0487 0.0706,0.0392 c 0.45155,0.20602 0.61383,0.70344 0.29633,1.30598 -0.14111,0.2667 -0.3422,0.49565 -0.54328,0.71826 -0.33514,0.37853 -2.19428,2.05987 -1.93322,2.46768 0.0847,0.13405 0.23636,0.19402 0.3175,0.33584 0.13405,0.23283 0.0529,0.51506 -0.0706,0.79693 -0.29986,0.68509 -0.96308,0.89111 -1.49577,1.23084 -0.65264,0.41804 -1.22767,1.0728 -1.60867,1.80128 -0.06,0.11113 -0.11642,0.22825 -0.127,0.34608 -0.0318,0.31432 0.28928,0.52175 0.26811,0.8897 -0.0212,0.37395 -0.21872,0.7687 -0.46919,1.06857 -0.53623,0.63782 -1.34056,0.93345 -1.95439,1.45556 -0.47625,0.40357 -1.50637,1.36595 -1.00895,1.88701 0.10231,0.10689 0.16228,0.24412 0.17286,0.41521 0.0317,0.65088 -0.51858,1.32962 -1.00894,1.72509 -0.57856,0.46813 -1.23472,0.73836 -1.85209,1.08408 -0.31397,0.17498 -0.65616,0.37642 -0.9278,0.65229 -0.37042,0.37959 -0.15875,1.12113 -0.39511,1.6323 -0.26106,0.56833 -0.73025,0.96697 -1.22414,1.24954 -0.6985,0.40217 -1.43581,0.47378 -2.15195,0.78105 -0.38452,0.16616 -0.90311,0.44591 -0.99836,0.94439 -0.10936,0.56338 -0.34219,1.04069 -0.86783,1.29893 -0.37394,0.18238 -0.762,0.19755 -1.13242,0.18309 -0.60325,-0.0236 -1.34408,-0.20885 -1.78858,0.58173 -0.32103,0.56444 -0.64558,0.66075 -1.16064,0.75847 -0.71967,0.13617 -1.44286,0.0127 -2.14842,0.21308 -0.1905,0.054 -0.40569,0.0808 -0.51858,-0.0582 -0.15875,-0.19332 -0.0318,-0.59161 0.0459,-0.85619 0.43745,-1.48308 1.52753,-2.73297 2.67406,-3.71793"
       style="fill:#519551;fill-opacity:1;fill-rule:nonzero;stroke:none;stroke-width:0.0352778"
       id="path2120" />
    <path
       d="m 125.34452,165.93582 c -0.45508,1.15923 -0.93133,2.26872 -1.56986,3.34504 -0.7373,1.24884 -1.5628,2.44334 -2.38125,3.63891 -1.52753,2.22461 -2.94922,4.50109 -4.36386,6.79661 -1.35467,2.1964 -2.76578,4.30636 -4.47675,6.24382 -1.9685,2.22744 -4.00403,4.39808 -6.1207,6.48688 -1.40758,1.39311 -2.82575,2.909 -4.42736,4.08728 -0.27869,0.20426 -0.0459,0.61912 0.27164,0.46602 0.56092,-0.27235 1.04775,-0.69921 1.524,-1.09785 0.82197,-0.69109 1.6122,-1.41605 2.38125,-2.16499 2.11667,-2.05776 4.15572,-4.19947 6.09953,-6.41809 0.89606,-1.02129 1.79211,-2.04576 2.59292,-3.14466 0.79375,-1.08762 1.51694,-2.22391 2.23308,-3.36374 1.43933,-2.29799 2.83633,-4.60939 4.38503,-6.84071 0.97014,-1.40476 1.97203,-2.79294 2.8575,-4.25697 0.66675,-1.10314 1.45344,-2.38795 1.52047,-3.70629 0.0176,-0.3242 -0.42333,-0.33372 -0.52564,-0.0713"
       style="fill:#5e873c;fill-opacity:1;fill-rule:nonzero;stroke:none;stroke-width:0.0352778"
       id="path2122" />
    <path
       d="m 101.96594,148.19039 c 0.68086,-0.54786 1.40405,-1.08973 1.85914,-1.85278 0.45155,-0.75283 0.5715,-1.70286 0.1905,-2.51213 -0.24695,-0.53376 -0.61736,-0.74472 -1.09361,-1.0407 -0.57856,-0.35948 -0.34925,-0.95532 -0.26812,-1.51765 0.067,-0.45014 0.13053,-0.90064 0.17639,-1.35326 0.18345,-1.82033 -0.0882,-3.59445 -1.28058,-5.0486 -0.39864,-0.48789 -1.21356,-1.0982 -1.718028,-0.37183 -1.217084,1.75613 -1.040695,3.88056 -1.012473,5.89739 0.0071,0.52105 0.09525,1.19098 -0.144639,1.67958 -0.07408,0.1471 -0.08467,0.1471 -0.208138,0.19155 -0.116417,0.0434 -0.352778,-0.0261 -0.479778,-0.0173 -0.723195,0.049 -1.340556,0.53728 -1.640417,1.18851 -0.638528,1.39982 0.313972,2.68957 0.599722,4.0333 0.148167,0.68369 0.144639,1.47356 -0.08819,2.1396 -0.218722,0.62759 -0.740834,0.51823 -1.294695,0.69639 -1.100666,0.35348 -1.569861,1.4351 -1.538111,2.52659 0.02822,1.08973 0.585611,2.08633 0.575028,3.17006 -0.0035,0.37959 -0.08114,0.73131 -0.455083,0.89747 -0.557389,0.24624 -1.093612,0.34219 -1.569862,0.75318 -1.943805,1.67675 -0.945444,4.50674 -0.578555,6.59694 0.112889,0.65652 0.127,1.31728 -0.0635,1.96215 -0.01058,0.0363 -0.02469,0.0752 -0.05644,0.096 -0.02822,0.0187 -0.0635,0.0183 -0.09878,0.0173 -1.171222,-0.0321 -2.218972,0.30726 -2.564694,1.56986 -0.208139,0.75071 -0.05292,1.56633 0.282222,2.26942 0.47625,1.00083 1.499306,1.72755 1.767417,2.8201 0.15875,0.6537 -0.07056,1.31727 -0.236361,1.94522 -0.169334,0.61983 -0.324556,1.26012 -0.296334,1.90782 0.03881,0.82832 0.324556,1.62243 1.001889,2.13607 0.313973,0.23918 0.670278,0.41593 1.026584,0.58667 0.169333,0.0815 0.359833,0.18874 0.391583,0.37394 0.09525,0.59867 -1.001889,1.50249 -1.284111,2.01154 -0.34925,0.62901 -0.518583,1.42346 -0.1905,2.06375 0.292806,0.56833 0.906639,0.89112 1.506361,1.11161 0.980722,0.36124 1.816806,0.76164 2.663473,1.38253 0.529166,0.387 1.04775,0.87948 0.73025,1.57763 -0.282223,0.61947 -0.6985,1.20191 -0.737306,1.90535 -0.02822,0.59302 0.197556,1.15393 0.631472,1.55681 0.208139,0.19191 0.437445,0.34854 0.680861,0.4766 0.03881,0.0328 0.07761,0.0663 0.116417,0.0984 0.172861,0.16228 0.356306,0.31821 0.536222,0.47378 0.596195,0.51506 1.23825,1.01883 1.749778,1.62067 0.508006,0.59831 0.881946,1.29857 1.248836,1.9879 0.10231,0.19156 0.20814,0.38629 0.35631,0.54257 0.28927,0.29457 0.66322,0.34149 1.00189,0.11007 0.28222,-0.19368 0.37041,-0.49777 0.39863,-0.82409 0.0212,-0.25929 0.0353,-0.52 0.0494,-0.78035 l 0.0141,-0.073 c 0.26812,-1.19945 0.4692,-2.41582 0.67734,-3.63079 0.13405,-0.79763 0.72672,-5.28496 -1.24531,-4.06541 -0.13405,0.0825 -0.24694,0.19473 -0.37394,0.2854 -0.13053,0.0907 -0.28575,0.16051 -0.44097,0.1404 -0.50095,-0.066 -0.40217,-1.20579 -0.43392,-1.55822 -0.06,-0.67663 -0.22931,-1.36137 -0.27164,-2.03411 -0.0741,-1.11337 -0.39511,-2.25884 -1.361726,-2.92771 -0.430389,-0.29598 -0.970139,-0.38064 -1.481667,-0.28116 -0.130527,0.0265 -0.268111,0.0649 -0.398638,0.0296 -0.204612,-0.0543 -0.317501,-0.2667 -0.395112,-0.46425 -0.490361,-1.26612 -0.1905,-2.52977 0.03881,-3.81459 0.162278,-0.90205 0.529167,-2.3428 -0.656167,-2.72697 -0.321028,-0.10478 -0.66675,-0.11183 -0.998361,-0.1898 -0.09878,-0.0233 -0.211667,-0.0656 -0.243417,-0.16263 -0.01764,-0.0519 -0.0071,-0.10865 0.0035,-0.16228 0.331611,-1.58256 1.594556,-2.75131 2.039056,-4.29048 0.144639,-0.49742 0.324555,-1.41922 -0.123472,-1.82069 -0.137584,-0.12276 -0.324556,-0.16898 -0.497417,-0.23248 -0.493889,-0.18168 -0.518583,-0.60148 -0.518583,-1.06891 l 0.0035,-0.072 c 0.0071,-0.38911 0.754945,-1.0862 0.987778,-1.36631 0.430389,-0.51752 0.896056,-1.00788 1.358195,-1.49824 0.934861,-0.99166 3.160891,-2.75414 2.381251,-4.31942 -0.27164,-0.55068 -0.769057,-0.56585 -1.25589,-0.82232 -0.994834,-0.52352 0.1905,-1.61996 0.62089,-2.12513 0.82903,-0.96767 1.55928,-2.02742 2.08139,-3.19335 0.47272,-1.06186 0.91017,-2.19004 -0.41628,-2.72732 -0.9913,-0.40147 -0.27869,-1.4471 0.26459,-1.88349"
       style="fill:#59b93c;fill-opacity:1;fill-rule:nonzero;stroke:none;stroke-width:0.0352778"
       id="path2124" />
    <path
       d="m 100.65008,140.11072 c 0.16227,1.9357 -0.34925,3.88479 -0.906643,5.72065 -0.592666,1.93816 -1.217083,3.86997 -1.8415,5.79755 -1.277056,3.95288 -2.705806,7.86589 -3.77825,11.88297 -0.970139,3.63361 -1.661584,7.43867 -1.305278,11.21057 0.172861,1.8288 0.592667,3.62268 1.312333,5.31495 0.737306,1.73002 1.746251,3.35033 2.670528,4.9851 1.023056,1.81399 2.039056,3.6449 2.836334,5.57213 0.821976,1.98861 1.605136,4.11656 1.933226,6.23958 0.0494,0.3242 0.57502,0.24342 0.56797,-0.0769 -0.0811,-3.68476 -2.05317,-7.27463 -3.778252,-10.45033 -0.881944,-1.61714 -1.816805,-3.20181 -2.691694,-4.82106 -0.927806,-1.71027 -1.601612,-3.48474 -1.933223,-5.40597 -0.652639,-3.77472 -0.08114,-7.6641 0.832556,-11.34533 0.98425,-3.98251 2.370667,-7.85742 3.644195,-11.75315 0.709083,-2.16994 1.389944,-4.35046 2.070808,-6.52992 0.635,-2.04928 1.2065,-4.17865 0.95955,-6.34083 -0.0423,-0.37288 -0.62794,-0.38523 -0.59266,0"
       style="fill:#659542;fill-opacity:1;fill-rule:nonzero;stroke:none;stroke-width:0.0352778"
       id="path2126" />
    <path
       d="m 122.06369,140.01301 c -0.11995,-0.3616 -0.53622,-0.44909 -1.15358,-0.22755 -1.49931,0.54046 -2.67406,1.88384 -3.64067,3.18065 -0.68792,0.92851 -1.83445,3.60892 -3.29495,2.78553 -0.0776,-0.0448 -0.15169,-0.10125 -0.22577,-0.15804 -0.19756,0 -0.381,0.0497 -0.58562,0.25294 -1.64747,1.64712 -0.96308,4.3942 -1.5628,6.45231 -0.0635,0.2099 -0.11289,0.50694 -0.3175,0.61277 -0.83256,0.43215 -1.37583,0.52952 -1.51695,1.64888 -0.11994,0.95568 0.15523,1.92511 0.28575,2.8628 0.0988,0.71931 0.50448,2.08103 -0.10583,2.65606 -0.254,0.24095 -0.61383,0.14323 -0.9278,0.18133 -0.32456,0.0406 -0.62089,0.17498 -0.82903,0.46073 -0.70556,0.97895 -0.0247,2.17663 0.49741,3.04588 0.63148,1.04881 1.25589,2.02459 1.5487,3.25967 0.0282,0.12065 0.0529,0.25082 0.0106,0.36653 -0.22225,0.60678 -1.66864,-0.25329 -1.90147,1.03188 -0.0811,0.46037 0.0494,0.93239 0.19756,1.3723 0.33161,0.96979 0.762,1.89583 1.10066,2.86244 0.29986,0.84949 0.79728,1.95933 0.54328,2.88749 -0.0494,0.16898 -0.15169,0.34748 -0.31397,0.36512 -0.25753,0.0282 -0.4692,-0.33231 -0.71261,-0.40604 -0.38453,-0.11466 -0.81492,0.0582 -1.0795,0.36724 -0.40217,0.47272 -0.43392,1.19521 -0.44803,1.80163 -0.0318,1.07174 0.0882,2.14101 -0.0176,3.21063 -0.10231,1.03929 -0.36336,2.05635 -0.75494,3.01237 -0.0247,0.0572 -0.0494,0.11642 -0.0952,0.15593 -0.1517,0.13018 -0.41981,-0.10795 -0.57856,-0.12206 -0.22578,-0.0201 -0.49742,0.0473 -0.66322,0.23248 -0.24342,0.27481 -0.30339,0.67486 -0.39511,1.028 -0.13406,0.52705 -0.27164,1.05233 -0.40923,1.57868 -0.25752,0.98672 -0.52211,1.97061 -0.77258,2.95874 -0.56797,2.2352 -1.30175,4.51133 -1.42522,6.83895 -0.0247,0.46108 0.46214,0.67734 0.8008,0.4946 0.83609,-0.45508 1.18887,-1.23261 1.76742,-1.9498 0.67381,-0.84103 1.43933,-1.61079 2.20839,-2.3488 1.9685,-1.88136 4.15219,-3.46251 6.14186,-5.3026 0.86078,-0.79446 1.78858,-1.96709 1.22767,-3.26426 l -0.0106,-0.0229 -0.0106,-0.0201 c -0.11994,-0.25577 -0.29633,-0.47943 -0.51858,-0.63536 l -0.06,-0.0381 c -0.22578,-0.26282 -0.3422,-0.5976 -0.32809,-0.95814 0.0564,-1.46897 1.69686,-2.39466 2.56822,-3.29424 0.60678,-0.629 1.14653,-1.30387 1.64042,-2.03941 0.0952,-0.14146 0.21167,-0.29316 0.32809,-0.45226 0.3175,-0.61595 0.53975,-1.26294 0.508,-1.8923 -0.0494,-1.04069 -0.83609,-0.96238 -1.53106,-0.94333 -0.16228,-1.46614 0.66675,-2.88396 1.26294,-4.13032 0.32456,-0.67416 1.89795,-4.54096 -0.007,-4.05836 -0.30692,0.0787 -0.79022,0.36442 -1.03364,-0.012 -0.11995,-0.18591 -0.12347,-0.43145 -0.0917,-0.65546 0.16933,-1.26612 3.22086,-4.20794 1.87325,-5.43948 -0.45509,-0.41734 -1.13595,-0.29845 -1.30881,-1.07209 -0.1658,-0.75036 0.58914,-1.41359 0.93486,-1.98226 0.48684,-0.79904 1.92617,-2.4511 1.12184,-3.39796 -0.22578,-0.26388 -0.50448,-0.36759 -0.81139,-0.46284 -0.15522,-0.0473 -0.3175,-0.14923 -0.3422,-0.31821 -0.0106,-0.0801 0.0106,-0.16087 0.0353,-0.23707 0.40922,-1.27105 1.44639,-2.1537 2.13431,-3.23638 0.68086,-1.06892 0.067,-1.51553 -0.67381,-2.16359 -1.89089,-1.65417 0.89253,-4.20969 1.55928,-5.73228 0.18697,-0.4318 0.23283,-0.76518 0.15875,-0.99095"
       style="fill:#59b93c;fill-opacity:1;fill-rule:nonzero;stroke:none;stroke-width:0.0352778"
       id="path2128" />
    <path
       d="m 103.50405,196.74285 c 0.95955,-2.79153 2.49414,-5.3788 3.86997,-7.97877 1.79917,-3.39726 3.53131,-6.84777 4.85775,-10.46163 2.73756,-7.46513 1.47108,-15.49294 2.70933,-23.20714 0.31398,-1.96426 0.76553,-3.91124 1.41112,-5.79437 0.69497,-2.02459 1.66864,-3.86574 2.64936,-5.75804 0.0635,-0.12347 -0.0988,-0.26811 -0.20109,-0.15522 -1.18886,1.32821 -1.98966,3.00002 -2.65289,4.6415 -0.68086,1.68768 -1.15711,3.46498 -1.52047,5.24651 -0.71261,3.51472 -0.90664,7.09048 -1.00189,10.66729 -0.11289,4.17548 -0.12347,8.39117 -1.24883,12.44671 -1.08303,3.89361 -2.97039,7.59319 -4.84717,11.15307 -1.56633,2.96615 -3.36197,5.89738 -4.46616,9.07979 -0.0952,0.27658 0.34572,0.39617 0.44097,0.1203"
       style="fill:#659542;fill-opacity:1;fill-rule:nonzero;stroke:none;stroke-width:0.0352778"
       id="path2130" />
    <path
       d="m 98.829743,199.30331 c -0.02822,-0.23565 -0.194028,-0.43956 -0.402167,-0.56021 -0.243417,-0.14464 -0.504472,-0.13017 -0.765528,-0.20285 -0.275166,-0.0751 -0.508,-0.25682 -0.790222,-0.30515 -0.486833,-0.084 -1.023056,0.0896 -1.404056,0.39652 -0.22225,0.17886 -0.405694,0.37113 -0.670278,0.49213 -0.254,0.11818 -0.522111,0.14958 -0.723194,0.37324 -0.194028,0.21096 -0.268111,0.52034 -0.176389,0.79092 -0.130528,0.23742 -0.204611,0.50377 -0.137583,0.7239 0.15875,0.5267 0.850194,0.66182 1.322916,0.67134 0.624417,0.013 1.231195,-0.18097 1.852084,-0.21025 0.388056,-0.0187 0.867833,0.0515 1.273528,-0.042 0.09172,-0.005 0.176389,-0.0191 0.250472,-0.0469 0.906639,-0.34361 0.451556,-1.42523 0.370417,-2.08069"
       style="fill:#924a30;fill-opacity:1;fill-rule:nonzero;stroke:none;stroke-width:0.0352778"
       id="path2132" />
    <path
       d="m 96.561381,198.72017 -0.02117,0.003 c -0.09878,0.0134 -0.09878,0.18661 0,0.20037 l 0.02117,0.003 c 0.172862,0.0233 0.176389,-0.23072 0,-0.20673"
       style="fill:#e1c292;fill-opacity:1;fill-rule:nonzero;stroke:none;stroke-width:0.0352778"
       id="path2134" />
    <path
       d="m 98.215909,198.86622 c -0.169333,0 -0.169333,0.26035 0,0.26035 0.165806,0 0.165806,-0.26035 0,-0.26035"
       style="fill:#e1c292;fill-opacity:1;fill-rule:nonzero;stroke:none;stroke-width:0.0352778"
       id="path2136" />
    <path
       d="m 98.046576,199.54003 c -0.08467,0 -0.165806,0.0741 -0.15875,0.16122 0.0035,0.0871 0.07056,0.16086 0.15875,0.16086 0.08467,0 0.165806,-0.0741 0.162278,-0.16086 -0.0035,-0.0875 -0.07056,-0.16122 -0.162278,-0.16122"
       style="fill:#e1c292;fill-opacity:1;fill-rule:nonzero;stroke:none;stroke-width:0.0352778"
       id="path2138" />
    <path
       d="m 97.05527,199.24193 c -0.239889,0 -0.243416,0.375 0,0.375 0.239889,0 0.239889,-0.375 0,-0.375"
       style="fill:#e1c292;fill-opacity:1;fill-rule:nonzero;stroke:none;stroke-width:0.0352778"
       id="path2140" />
    <path
       d="m 98.406409,200.241 c -0.04939,0 -0.102305,0.0215 -0.137583,0.0568 -0.05292,0.0522 -0.05997,0.11748 -0.04939,0.18733 l 0.0035,0.0166 c 0.01411,0.078 0.105833,0.14287 0.183444,0.13935 0.07761,-0.004 0.169334,-0.0557 0.183445,-0.13935 v -0.0166 c 0.02117,-0.12171 -0.04939,-0.24412 -0.183445,-0.24412"
       style="fill:#e1c292;fill-opacity:1;fill-rule:nonzero;stroke:none;stroke-width:0.0352778"
       id="path2142" />
    <path
       d="m 111.36394,198.11057 c -0.52917,-0.38523 -1.37584,-0.64558 -1.72156,-0.76941 -0.30691,-0.11112 -0.55739,-0.28257 -0.83608,-0.42686 -0.61031,-0.31891 -1.18181,-0.37147 -1.91911,-0.39617 -0.62795,-0.0212 -1.24178,-0.0737 -1.79564,-0.27517 -0.32456,-0.0441 -0.64911,-0.14075 -0.98072,-0.115 -0.70556,0.0547 -1.28059,0.29245 -1.82739,0.57503 -0.381,0.0423 -0.77611,0.10195 -1.06186,0.25752 -0.40217,0.21943 -0.67381,0.59091 -0.64559,0.9525 -0.1023,0.15311 -0.19402,0.31715 -0.30339,0.45897 -0.24341,0.31185 -0.500941,0.77928 -0.26458,1.17052 0.23636,0.38946 0.80081,0.3182 1.20297,0.29104 0.06,0.0145 0.12348,0.0233 0.18698,0.0261 1.30527,0.0564 2.62113,0.0808 3.937,0.066 0.34219,0.0257 0.69497,0.0307 1.04069,0.012 1.04422,0.0197 2.08492,-0.0596 3.11856,-0.20038 0.22225,0.0102 0.45155,-7.1e-4 0.65969,-0.0208 0.52917,-0.0501 1.18181,-0.11535 1.47814,-0.47483 0.37042,-0.4498 0.14817,-0.82868 -0.26811,-1.13101"
       style="fill:#924a30;fill-opacity:1;fill-rule:nonzero;stroke:none;stroke-width:0.0352778"
       id="path2144" />
    <path
       d="m 101.85305,197.35069 c -0.28928,0 -0.28928,0.45332 0,0.45332 0.2928,0 0.2928,-0.45332 0,-0.45332"
       style="fill:#e1c292;fill-opacity:1;fill-rule:nonzero;stroke:none;stroke-width:0.0352778"
       id="path2146" />
    <path
       d="m 104.4883,196.50825 c -0.29633,0 -0.29986,0.46214 0,0.46214 0.29633,0 0.29633,-0.46214 0,-0.46214"
       style="fill:#e1c292;fill-opacity:1;fill-rule:nonzero;stroke:none;stroke-width:0.0352778"
       id="path2148" />
    <path
       d="m 103.32413,197.308 c -0.23283,0 -0.23636,0.36371 0,0.36371 0.23284,0 0.23284,-0.36371 0,-0.36371"
       style="fill:#e1c292;fill-opacity:1;fill-rule:nonzero;stroke:none;stroke-width:0.0352778"
       id="path2150" />
    <path
       d="m 106.30158,196.83704 c -0.17286,0 -0.17286,0.26706 0,0.26706 0.17286,0 0.17286,-0.26706 0,-0.26706"
       style="fill:#e1c292;fill-opacity:1;fill-rule:nonzero;stroke:none;stroke-width:0.0352778"
       id="path2152" />
    <path
       d="m 102.91138,196.62679 c -0.15875,0 -0.15875,0.24624 0,0.24624 0.15875,0 0.15875,-0.24624 0,-0.24624"
       style="fill:#e1c292;fill-opacity:1;fill-rule:nonzero;stroke:none;stroke-width:0.0352778"
       id="path2154" />
    <path
       d="m 107.9561,197.29565 c -0.32808,0 -0.32808,0.50836 0,0.50836 0.32809,0 0.32809,-0.50836 0,-0.50836"
       style="fill:#e1c292;fill-opacity:1;fill-rule:nonzero;stroke:none;stroke-width:0.0352778"
       id="path2156" />
    <path
       d="m 105.43727,196.93511 c -0.17992,0 -0.17992,0.27835 0,0.27835 0.17992,0 0.17992,-0.27835 0,-0.27835"
       style="fill:#e1c292;fill-opacity:1;fill-rule:nonzero;stroke:none;stroke-width:0.0352778"
       id="path2158" />
    <path
       d="m 114.27083,195.13701 c -0.17639,-0.62301 -0.9137,-0.5207 -1.37584,-0.75318 -0.53975,-0.27235 -0.99483,-0.67381 -1.63689,-0.65335 -0.47625,0.0155 -1.0548,0.25435 -1.40052,0.62865 -0.28575,0.0713 -0.54681,0.19121 -0.70556,0.32879 -0.38453,0.33091 -0.32808,0.83079 0.0423,1.13312 0.48684,0.3997 1.19239,0.47237 1.79917,0.45297 0.40217,-0.0127 0.79728,-0.0706 1.19592,-0.0833 0.37041,-0.0116 0.74083,0.0141 1.11125,-0.0519 0.47625,-0.085 1.143,-0.39653 0.97014,-1.00189"
       style="fill:#924a30;fill-opacity:1;fill-rule:nonzero;stroke:none;stroke-width:0.0352778"
       id="path2160" />
    <path
       d="m 109.90344,194.95709 c -0.27164,0 -0.27164,0.41875 0,0.41875 0.26811,0 0.26811,-0.41875 0,-0.41875"
       style="fill:#e1c292;fill-opacity:1;fill-rule:nonzero;stroke:none;stroke-width:0.0352778"
       id="path2162" />
    <path
       d="m 111.01116,194.04093 c -0.24694,0 -0.24694,0.38664 0,0.38664 0.25047,0 0.25047,-0.38664 0,-0.38664"
       style="fill:#e1c292;fill-opacity:1;fill-rule:nonzero;stroke:none;stroke-width:0.0352778"
       id="path2164" />
    <path
       d="m 111.94602,194.33691 c -0.13405,0 -0.13405,0.21025 0,0.21025 0.13758,0 0.13758,-0.21025 0,-0.21025"
       style="fill:#e1c292;fill-opacity:1;fill-rule:nonzero;stroke:none;stroke-width:0.0352778"
       id="path2166" />
    <path
       d="m 111.36041,194.91723 c -0.14817,0 -0.14817,0.22718 0,0.22718 0.14464,0 0.14464,-0.22718 0,-0.22718"
       style="fill:#e1c292;fill-opacity:1;fill-rule:nonzero;stroke:none;stroke-width:0.0352778"
       id="path2168" />
    <path
       d="m 110.21388,194.43357 c -0.14464,0 -0.14464,0.22719 0,0.22719 0.14817,0 0.14817,-0.22719 0,-0.22719"
       style="fill:#e1c292;fill-opacity:1;fill-rule:nonzero;stroke:none;stroke-width:0.0352778"
       id="path2170" />
    <path
       d="m 116.51802,198.30813 c -0.0247,-0.13829 -0.16228,-0.26565 -0.29633,-0.29704 -0.26459,-0.0621 -0.5327,-0.0847 -0.80434,-0.0769 -0.2928,0.009 -0.56797,0.11324 -0.86077,0.1016 -0.2152,-0.008 -0.42686,-0.0289 -0.64206,-0.0166 -0.37747,0.0215 -0.89253,0.0935 -1.08655,0.4692 -0.28928,0.56338 0.39863,1.00188 0.84313,1.15534 0.98778,0.33902 3.11503,0.10866 2.84692,-1.33561"
       style="fill:#924a30;fill-opacity:1;fill-rule:nonzero;stroke:none;stroke-width:0.0352778"
       id="path2172" />
    <path
       d="m 113.62524,198.19312 c -0.22577,0 -0.22577,0.35031 0,0.35031 0.22578,0 0.22578,-0.35031 0,-0.35031"
       style="fill:#e1c292;fill-opacity:1;fill-rule:nonzero;stroke:none;stroke-width:0.0352778"
       id="path2174" />
    <path
       d="m 113.42063,198.93925 c -0.19403,0 -0.19403,0.30268 0,0.30268 0.19756,0 0.19756,-0.30268 0,-0.30268"
       style="fill:#e1c292;fill-opacity:1;fill-rule:nonzero;stroke:none;stroke-width:0.0352778"
       id="path2176" />
    <path
       d="m 114.19322,199.22641 -0.0282,0.0159 c -0.0776,0.0441 -0.0882,0.1524 -0.0282,0.21449 0.0635,0.0617 0.16933,0.048 0.2152,-0.0275 l 0.0141,-0.0279 c 0.067,-0.11042 -0.0635,-0.23918 -0.17286,-0.17497"
       style="fill:#e1c292;fill-opacity:1;fill-rule:nonzero;stroke:none;stroke-width:0.0352778"
       id="path2178" />
  </g>
</svg>
