<?xml version="1.0" encoding="UTF-8" standalone="no"?>
<svg
   xmlns:dc="http://purl.org/dc/elements/1.1/"
   xmlns:cc="http://creativecommons.org/ns#"
   xmlns:rdf="http://www.w3.org/1999/02/22-rdf-syntax-ns#"
   xmlns:svg="http://www.w3.org/2000/svg"
   xmlns="http://www.w3.org/2000/svg"
   xmlns:sodipodi="http://sodipodi.sourceforge.net/DTD/sodipodi-0.dtd"
   xmlns:inkscape="http://www.inkscape.org/namespaces/inkscape"
   width="210mm"
   height="297mm"
   viewBox="0 0 210 297"
   version="1.1"
   id="svg9984"
   inkscape:version="1.0.2 (e86c8708, 2021-01-15)"
   sodipodi:docname="sea_plant5.svg">
  <defs
     id="defs9978" />
  <sodipodi:namedview
     id="base"
     pagecolor="#ffffff"
     bordercolor="#666666"
     borderopacity="1.0"
     inkscape:pageopacity="0.0"
     inkscape:pageshadow="2"
     inkscape:zoom="0.35"
     inkscape:cx="400"
     inkscape:cy="560"
     inkscape:document-units="mm"
     inkscape:current-layer="layer1"
     inkscape:document-rotation="0"
     showgrid="false"
     inkscape:window-width="1252"
     inkscape:window-height="1005"
     inkscape:window-x="0"
     inkscape:window-y="23"
     inkscape:window-maximized="0" />
  <metadata
     id="metadata9981">
    <rdf:RDF>
      <cc:Work
         rdf:about="">
        <dc:format>image/svg+xml</dc:format>
        <dc:type
           rdf:resource="http://purl.org/dc/dcmitype/StillImage" />
        <dc:title></dc:title>
      </cc:Work>
    </rdf:RDF>
  </metadata>
  <g
     inkscape:label="Layer 1"
     inkscape:groupmode="layer"
     id="layer1">
    <path
       d="m 98.153499,166.75495 c -0.0042,-0.061 -0.01023,-0.12488 -0.0187,-0.19614 -0.01411,-0.11677 -0.140758,-0.1524 -0.205317,-0.055 -0.3048,0.46072 -0.819502,0.68368 -1.174044,1.09819 -0.251178,0.29316 -0.453672,0.63289 -0.597959,0.99801 -0.244122,0.61736 -0.306916,1.27176 -0.202141,1.91664 -0.0053,0.0501 -0.01023,0.10054 -0.01552,0.14852 -0.02117,0.18803 -0.02928,0.39688 0.09207,0.54998 0.03034,0.0381 0.08819,0.0459 0.13088,0.0339 0.117122,-0.0328 0.201789,-0.14499 0.28822,-0.23036 0.119944,-0.11854 0.239536,-0.23954 0.354189,-0.36337 0.12453,-0.13476 0.27305,-0.30233 0.344311,-0.48965 0.770466,-0.96697 1.373716,-2.1075 1.004005,-3.41066"
       style="fill:#599592;fill-opacity:1;fill-rule:nonzero;stroke:none;stroke-width:0.0352778"
       id="path258" />
    <path
       d="m 104.30947,167.63019 c -0.57009,-0.55068 -1.2894,-0.70943 -2.04223,-0.58278 -0.76623,0.12947 -1.73884,0.48295 -2.287057,1.10913 -0.04092,0.024 -0.08326,0.0441 -0.124178,0.0691 -0.11042,0.0684 -0.07373,0.23601 0.03845,0.27411 1.483435,0.5013 3.091045,0.24589 4.392085,-0.65087 0.0688,-0.0476 0.0871,-0.15699 0.0229,-0.21873"
       style="fill:#599592;fill-opacity:1;fill-rule:nonzero;stroke:none;stroke-width:0.0352778"
       id="path260" />
    <path
       d="m 99.225591,173.54134 c -0.53975,-0.54257 -1.135592,-1.38853 -1.915936,-1.51906 -0.378884,-0.0635 -0.815975,-0.0289 -1.193448,0.0349 -0.143933,0.0243 -0.28963,0.0536 -0.429683,0.0984 -0.130528,0.0409 -0.257528,0.0928 -0.379942,0.15522 -0.04586,0.0194 -0.08431,0.0487 -0.117475,0.085 l -0.06985,0.0332 -0.0011,0.001 c -0.02893,-0.0265 -0.07726,-0.0293 -0.104069,0.003 l -0.02293,0.0279 c -0.03669,0.0438 -0.03351,0.1203 0.02046,0.14923 l 0.01976,0.007 0.02117,0.0879 c 0.284692,0.63288 0.680156,1.17863 1.358195,1.31057 0.914047,0.17744 1.866195,0.0437 2.753783,-0.21132 0.107245,-0.0307 0.140759,-0.18309 0.06103,-0.26317"
       style="fill:#599592;fill-opacity:1;fill-rule:nonzero;stroke:none;stroke-width:0.0352778"
       id="path262" />
    <path
       d="m 95.539063,179.96331 c -0.790928,-0.7807 -1.889125,-0.97226 -2.934053,-0.82021 -0.498475,0.0727 -0.985661,0.21978 -1.445683,0.43497 -0.335139,0.15699 -0.990248,0.40746 -1.132417,0.79199 -0.02893,0.0787 0.04657,0.14005 0.109361,0.1464 l 0.0035,3.5e-4 c 0.128058,0.0956 0.262114,0.17498 0.399697,0.24519 0.131233,0.1143 0.309739,0.1852 0.499181,0.26035 0.593372,0.236 1.224491,0.36653 1.858786,0.36865 0.747536,0.003 2.138539,-0.16193 2.544233,-0.98249 l 0.01376,0.002 c 0.100541,0.007 0.136877,-0.13088 0.08502,-0.20038 0.05927,-0.0667 0.07444,-0.1718 -0.0014,-0.24659"
       style="fill:#599592;fill-opacity:1;fill-rule:nonzero;stroke:none;stroke-width:0.0352778"
       id="path264" />
    <path
       d="m 100.42574,187.15574 -0.0452,0.01 c -1.206505,-1.50566 -3.126674,-2.11808 -4.742396,-0.88865 -0.08749,0.067 -0.102659,0.1845 -0.02822,0.26988 0.547159,0.62759 1.356078,0.9525 2.124781,1.15817 0.9398,0.25082 1.843617,-0.0699 2.766485,-0.27658 0.16968,-0.0381 0.0917,-0.30621 -0.0755,-0.2727"
       style="fill:#599592;fill-opacity:1;fill-rule:nonzero;stroke:none;stroke-width:0.0352778"
       id="path266" />
    <path
       d="m 105.69236,190.25348 c 0.012,-0.10548 -0.06,-0.20143 -0.16757,-0.17145 -0.45402,0.127 -0.88512,0.12383 -1.34902,0.10725 -0.0688,-0.002 -0.13723,-0.005 -0.20496,-0.005 -0.10125,-0.004 -0.20215,-0.006 -0.30339,-0.002 -0.53058,0.0233 -1.04987,0.20143 -1.49508,0.50906 -0.41522,0.28716 -0.76058,0.68685 -1.02164,1.13171 -0.18415,0.31432 -0.55069,0.95567 -0.45932,1.33703 0.01,0.0423 0.043,0.0635 0.0797,0.0744 0.0289,0.0272 0.0639,0.0469 0.10301,0.0437 1.32539,-0.11078 2.49026,-0.21379 3.63538,-0.99166 0.22719,-0.15417 0.65475,-0.57891 0.87806,-1.01318 0.18521,-0.29139 0.26635,-0.68933 0.3048,-1.01953"
       style="fill:#599592;fill-opacity:1;fill-rule:nonzero;stroke:none;stroke-width:0.0352778"
       id="path268" />
    <path
       d="m 95.974391,193.90897 c -0.02117,-0.11924 -0.1778,-0.1711 -0.246592,-0.0632 -0.875242,1.37054 -2.196042,2.95381 -1.8542,4.72969 l -0.04692,0.048 c -0.127,0.14499 0.104422,0.37923 0.23883,0.23953 0.727075,-0.75565 1.795992,-1.19627 2.28847,-2.18475 0.518936,-1.04069 -0.199673,-1.76318 -0.379589,-2.7693"
       style="fill:#599592;fill-opacity:1;fill-rule:nonzero;stroke:none;stroke-width:0.0352778"
       id="path270" />
    <path
       d="m 91.280682,205.3499 c -0.02328,-0.0427 -0.04269,-0.0864 -0.06385,-0.12947 0.06562,-0.5147 0.07585,-1.05727 0.02611,-1.59773 -0.0046,-0.17109 -0.01799,-0.33937 -0.04304,-0.50094 0.03986,-0.28716 0.03704,-0.5715 -0.03034,-0.82127 -0.210255,-0.78034 -0.678744,-1.52823 -1.166636,-2.14242 -0.08043,-0.10125 -0.1905,-0.0448 -0.238125,0.0476 -0.02858,0.007 -0.05468,0.0236 -0.06209,0.0653 -0.184855,1.01283 -0.306564,2.34985 -0.128058,3.3722 0.132644,0.75918 0.662516,1.54835 1.237544,2.0447 0.03598,0.0402 0.06985,0.0829 0.10795,0.12065 l 0.05539,0.0102 c 0.03986,0.0519 0.127,0.054 0.144992,-0.0275 l 0.0053,-0.0279 c 0.03704,-0.0469 0.05362,-0.1136 0.03281,-0.17322 l 0.0032,-0.0159 c 0.09525,-0.007 0.182386,-0.10936 0.118886,-0.22437"
       style="fill:#599592;fill-opacity:1;fill-rule:nonzero;stroke:none;stroke-width:0.0352778"
       id="path272" />
    <path
       d="m 95.213449,209.47952 c 0.149931,-0.34784 0.288925,-0.70415 0.468136,-1.0347 -0.02328,-0.0494 -0.06703,-0.0857 -0.132644,-0.0832 -1.071739,0.0363 -2.437695,-0.0123 -3.397603,0.58137 -0.567267,0.35137 -0.951089,1.01103 -1.12007,1.70145 -0.08184,0.237 -0.13335,0.49139 -0.147108,0.76299 l 0.006,0.0403 c -0.0025,0.0455 -0.0039,0.0911 -0.0025,0.13727 0.0046,0.13158 0.182033,0.12731 0.193322,0.001 -0.01023,0.11286 0.954264,0.1965 1.055511,0.19622 0.362303,-0.001 0.722136,-0.0745 1.06045,-0.21068 0.653345,-0.26282 1.322917,-0.79128 1.69157,-1.42766 0.122414,-0.21138 0.22613,-0.43642 0.324908,-0.66463"
       style="fill:#599592;fill-opacity:1;fill-rule:nonzero;stroke:none;stroke-width:0.0352778"
       id="path274" />
    <path
       d="m 90.955774,216.64863 c 0.13335,-1.03751 -0.103364,-2.08594 -0.728134,-2.91429 -0.248355,-0.32907 -0.571852,-0.68432 -0.963436,-0.81249 -0.07338,-0.024 -0.150283,-0.0385 -0.2286,-0.0486 -0.455789,-0.16577 -0.952147,-0.16786 -1.393825,0.0737 -0.03986,-0.008 -0.07373,0.007 -0.100189,0.0314 -0.02893,0.006 -0.06209,0.0212 -0.120297,0.0479 -0.09137,0.0423 -0.119239,0.17075 -0.02434,0.23111 1.423106,0.9084 1.32962,3.94613 3.444876,3.75348 0.189794,-0.0172 0.220838,-0.26843 0.113947,-0.36227"
       style="fill:#599592;fill-opacity:1;fill-rule:nonzero;stroke:none;stroke-width:0.0352778"
       id="path276" />
    <path
       d="m 90.459415,220.23 c -0.479777,-0.0708 -1.030816,-0.092 -1.505302,0.0336 -0.623006,0.1651 -1.119364,0.64519 -1.778706,0.68255 -0.120297,0.007 -0.181681,0.13614 -0.127706,0.24628 0.418748,0.85548 1.229078,1.41069 2.130425,1.51733 0.583495,0.0688 1.172987,-0.0325 1.726495,-0.22931 0.351367,-0.12498 0.829381,-0.25301 1.00965,-0.61774 0.05256,0.014 0.112536,-0.0113 0.102658,-0.0837 -0.11183,-0.83468 -0.786341,-1.43507 -1.557514,-1.54905"
       style="fill:#599592;fill-opacity:1;fill-rule:nonzero;stroke:none;stroke-width:0.0352778"
       id="path278" />
    <path
       d="m 108.04504,165.66981 c -0.031,-0.0399 -0.072,-0.0741 -0.12065,-0.0914 -0.57927,-0.2032 -1.01001,-0.68368 -1.58151,-0.89465 -0.46355,-0.17074 -0.96202,-0.2039 -1.44744,-0.14534 -0.44944,0.0543 -1.57868,0.16228 -1.78471,0.73942 l -0.0586,0.0437 c -0.0395,0.0346 -0.0131,0.0896 0.0265,0.10442 -0.004,0.049 -0.001,0.10089 0.008,0.15593 0.13229,0.80292 1.31798,0.99942 1.91629,1.05762 0.47202,0.0459 0.95003,0.0102 1.41393,-0.0949 0.26353,-0.06 0.52141,-0.14676 0.77082,-0.25436 0.0949,-0.0409 0.67487,-0.41028 0.74013,-0.39264 l 0.0384,0.0141 c 0.17251,0.0716 0.17533,-0.11606 0.079,-0.242"
       style="fill:#599592;fill-opacity:1;fill-rule:nonzero;stroke:none;stroke-width:0.0352778"
       id="path280" />
    <path
       d="m 95.921474,176.43059 c 0.439914,-0.75918 0.989189,-1.54376 1.724378,-1.79881 -0.04339,-0.0903 -0.128411,-0.16405 -0.244122,-0.17745 -0.899936,-0.10478 -1.822803,-0.33902 -2.597503,0.29422 -0.454025,0.37147 -0.694267,0.90099 -0.715786,1.47566 -0.05292,0.0293 -0.103717,0.061 -0.158045,0.0885 -0.237419,0.121 -0.196144,0.5013 0.01058,0.62442 0.507647,0.30198 1.151114,0.005 1.619955,-0.26635 0.124178,-0.072 0.24377,-0.15381 0.360539,-0.24024"
       style="fill:#599592;fill-opacity:1;fill-rule:nonzero;stroke:none;stroke-width:0.0352778"
       id="path282" />
    <path
       d="m 106.13474,159.82569 c -0.47589,0.10548 -0.93662,0.248 -1.34514,0.53234 -0.72354,0.50342 -1.30245,1.27741 -1.76036,2.09586 -0.23001,0.80715 -0.29739,1.68028 -0.35278,2.52483 -0.0363,0.14075 -0.0818,0.27834 -0.14464,0.41275 -0.0522,0.11042 -0.11535,0.21484 -0.1852,0.31467 -0.69991,0.47132 -1.3843,0.96979 -2.05352,1.49049 0.36018,-0.66357 0.56162,-1.41146 0.54539,-2.19498 -0.0208,-0.99942 -0.40922,-2.33222 -1.20791,-2.95028 -0.23742,-0.1831 -0.478367,-0.19191 -0.680156,-0.0935 l -0.08643,-0.001 c -0.06456,0.0328 -0.121003,0.0716 -0.173567,0.11219 -0.05151,0.0328 -0.09913,0.0744 -0.143933,0.11994 -0.532342,0.42439 -0.560211,1.19168 -0.350661,1.92687 0.154516,0.54293 0.42545,1.03646 0.663222,1.54199 0.148872,0.44556 0.300919,0.88936 0.431094,1.34162 0.05891,0.2794 0.112889,0.56374 0.178153,0.85584 -0.380294,0.31185 -0.756355,0.62971 -1.126772,0.95356 -0.786342,0.68721 -1.550459,1.40299 -2.290586,2.14559 l -0.07161,0.0713 c 0.175683,-0.67557 0.166511,-1.4224 0.04551,-2.08844 -0.248356,-1.36772 -1.016,-2.62396 -2.12337,-3.38173 -0.105127,-0.072 -0.210961,0.0321 -0.221544,0.1404 l -0.0018,0.0106 c -0.310092,0.42615 -0.601839,0.86889 -0.823383,1.33561 -0.12947,0.23037 -0.219781,0.47378 -0.274814,0.72567 -0.1397,0.502 -0.180622,1.03258 -0.0628,1.60055 0.12947,0.62724 0.424745,1.18957 0.82162,1.67076 0.236714,0.28645 0.508,0.54222 0.767644,0.80468 0.181328,0.18345 0.365831,0.42439 0.577498,0.58949 -0.201437,0.26388 -0.384528,0.54117 -0.531637,0.84208 -0.197555,0.40288 -0.3302,0.80328 -0.41275,1.20016 -0.08008,0.31503 -0.134055,0.63746 -0.161219,0.96237 -0.300919,-0.72954 -0.75565,-1.36736 -1.464381,-1.74131 -0.510116,-0.26917 -1.07315,-0.32279 -1.62948,-0.20567 -0.31362,0.0663 -0.614892,0.18274 -0.906992,0.31785 -0.403578,0.18698 -1.050572,0.70979 -1.487664,0.68051 -0.03316,-0.002 -0.0575,0.0145 -0.07408,0.0385 -0.06773,0.0303 -0.106539,0.12276 -0.08784,0.19579 0.270933,1.05974 0.713669,2.56928 1.818217,2.94605 0.523522,0.17815 1.078441,0.0896 1.605844,-0.0166 0.105128,-0.0215 0.217311,-0.0473 0.332317,-0.0748 0.302331,-0.0392 0.596547,-0.10513 0.861131,-0.19685 0.415219,-0.0794 0.830791,-0.11572 1.192036,-0.0325 0.391936,1.48449 1.402997,2.65289 2.299405,3.83787 0.413456,0.54645 0.837142,1.08797 1.257653,1.63266 -0.594077,-0.37465 -1.259064,-0.53023 -1.939572,-0.51365 -0.480483,-0.0339 -0.966258,0.012 -1.427692,0.139 -1.139825,0.31326 -2.689225,1.06433 -3.196167,2.274 -0.02187,0.0526 -0.0095,0.0981 0.01764,0.12841 0.01129,0.0342 0.02963,0.0656 0.06209,0.0815 0.206375,0.10019 0.437797,0.19156 0.684036,0.26812 1.039989,0.58808 2.401359,1.02799 3.516842,0.83855 1.334911,-0.22719 2.12337,-1.42134 2.786945,-2.55658 0.577144,0.76411 1.137003,1.54199 1.641828,2.35726 0.484364,0.78281 0.909105,1.61113 1.201205,2.49661 l 0.0141,0.048 c 0.21978,1.07845 0.30762,2.20451 0.19332,3.29354 -0.0162,0.15487 -0.0437,0.30868 -0.0762,0.46108 -0.084,-0.3556 -0.18979,-0.6925 -0.32949,-1.00859 -0.0762,-0.23707 -0.1584,-0.47131 -0.25294,-0.69921 -0.289983,-0.70097 -0.844903,-1.15993 -1.476022,-1.51059 -0.867481,-0.4826 -1.951214,-0.39511 -2.917472,-0.0402 -0.489303,0.15522 -0.956734,0.40958 -1.354667,0.70379 -0.105481,0.078 -0.09278,0.21449 0.0046,0.29034 0.771878,0.60113 1.606197,2.1403 2.62255,2.81552 l 0.05856,0.0501 c 0.637822,0.47202 1.565628,0.54116 2.415823,0.5521 0.291747,0.0183 0.578898,0.0243 0.859718,0.0289 -0.0734,0.1905 -0.15029,0.37888 -0.22649,0.56515 -0.0381,0.0935 -0.078,0.18626 -0.11853,0.27869 -1.136646,2.01366 -3.434287,2.80529 -5.215463,4.07247 -0.282222,0.20073 -0.570089,0.40852 -0.854075,0.62477 0.17145,-0.43639 0.277989,-0.94897 0.358775,-1.27 0.227542,-0.89923 0.340431,-1.84362 0.312561,-2.77495 -0.02716,-0.9264 -0.256822,-1.98014 -0.799747,-2.72803 -0.149225,-0.20532 -0.337608,-0.38665 -0.552097,-0.51682 -0.101953,-0.0621 -0.209903,-0.11254 -0.322439,-0.14887 -0.162983,-0.0522 -0.372886,-0.0945 -0.542219,-0.049 -0.112889,0.0303 -0.08749,-0.0321 -0.130175,0.10407 -0.07479,0.23954 -0.0078,0.57185 -0.05539,0.83079 -0.06209,0.33585 -0.167569,0.6604 -0.26423,0.98637 -0.325614,1.09784 -0.711906,2.35726 -0.518583,3.51719 0.172155,1.01177 0.688975,2.43276 1.745544,2.67653 -0.33655,0.2988 -0.653344,0.61842 -0.928511,0.96908 -0.621242,0.79057 -0.921103,1.73708 -1.113367,2.73332 -0.0949,0.49354 -0.178153,0.99201 -0.254353,1.4926 -0.364066,-0.80186 -1.015647,-1.5247 -1.651,-1.91417 -1.190625,-0.72954 -2.729794,-0.42757 -3.902781,0.21837 -0.04762,-7.1e-4 -0.09066,0.0586 -0.05997,0.10619 0.566914,0.87947 1.298223,2.06339 2.206978,2.58092 0.480131,0.2734 1.020939,0.37006 1.558925,0.41769 0.52952,0.0469 1.098198,0.0988 1.647473,0.0868 -0.13582,1.19345 -0.219075,2.4003 -0.248003,3.60994 -0.123472,-0.27231 -0.259997,-0.53266 -0.38735,-0.77078 -0.37077,-0.69145 -0.861836,-1.27494 -1.531056,-1.65065 -1.2192,-0.68404 -3.064933,-0.79798 -4.361392,-0.19156 -0.0762,0.0261 -0.154517,0.049 -0.227542,0.079 l -0.02893,0.0247 c 0.744008,0.50764 1.111603,1.30916 1.484489,2.20514 0.286808,0.68972 0.696736,1.32472 1.191683,1.88034 0.09737,0.0744 0.196497,0.14648 0.299156,0.21209 0.743655,0.47692 1.619603,0.71642 2.487789,0.69247 0.330553,-0.009 0.751064,-0.0558 1.083028,-0.22479 0.04762,1.49161 0.178505,2.9767 0.394405,4.43689 -0.869597,-1.16265 -2.041172,-1.77684 -3.613503,-1.72819 -0.542219,0.0169 -1.159933,0.16302 -1.716617,0.42196 -0.610658,0.24472 -1.056216,0.68954 -1.575153,1.11827 -0.06138,0.0504 -0.09842,0.13864 -0.04974,0.21593 0.419805,0.66919 0.838553,1.23539 1.523294,1.61354 0.722489,0.39895 1.533878,0.68763 2.341739,0.79692 1.087614,0.14746 2.575984,-0.0885 3.322462,-1.05473 0.04304,0.2293 0.08537,0.45818 0.132644,0.68569 l 0.02999,0.0617 c 0.05256,0.40996 0.131939,0.81774 0.200731,1.22523 0.185914,1.10215 0.34678,2.21089 0.446264,3.3256 0.188383,2.10372 0.128411,4.21929 -0.439561,6.25616 -0.05962,0.21527 0.245533,0.30166 0.319264,0.10446 0.04904,0.009 0.100188,-0.009 0.126647,-0.0688 1.008592,-2.28631 1.00083,-5.08744 0.625475,-7.57879 0.554214,0.30977 1.197328,0.50807 1.799872,0.39479 0.6985,-0.13159 1.48837,-0.5165 2.052461,-0.9634 1.226609,-0.9719 2.367492,-2.38979 2.444751,-4.0725 0.0032,-0.0701 -0.05786,-0.16193 -0.127706,-0.17117 -0.277636,-0.0373 -0.557389,-0.0634 -0.837495,-0.0785 -0.566561,-0.15282 -1.115836,-0.34438 -1.732491,-0.30977 -0.726017,0.0412 -1.440039,0.28497 -2.058459,0.68858 -0.813858,0.53125 -1.570567,1.42985 -1.923697,2.4317 -0.225425,-1.12254 -0.459317,-2.24261 -0.640292,-3.37495 -0.01023,-0.0626 -0.01799,-0.1257 -0.02787,-0.1881 1.41993,0.22186 3.355975,0.31115 4.516967,-0.64975 0.98178,-0.81291 1.304572,-2.09585 1.473553,-3.35319 0.100541,-0.25231 0.223308,-0.48754 0.439561,-0.67663 0.123119,-0.10802 0.0053,-0.29393 -0.124178,-0.30204 -1.598789,-0.098 -3.264959,-0.0677 -4.571648,1.04743 -0.921102,0.78563 -1.479197,1.88309 -1.863019,3.04271 -0.03986,-0.29807 -0.07726,-0.59613 -0.112536,-0.89461 -0.149225,-2.62792 -0.06138,-5.24722 0.124178,-7.88035 0.345722,0.1083 0.762,0.0519 1.106663,-0.0342 0.871009,-0.21731 1.766359,-0.50095 2.522362,-1.022 0.733072,-0.50553 1.323975,-1.20368 1.845733,-1.93851 0.236361,-0.33338 0.464609,-0.6731 0.684036,-1.01847 0.109361,-0.1711 0.232481,-0.31962 0.197556,-0.50765 0.01164,-0.13864 -0.06809,-0.27023 -0.212372,-0.30021 -0.398286,-0.28082 -1.24072,-0.32879 -1.562453,-0.36442 -1.141236,-0.12736 -2.369961,0.13299 -3.210278,1.02799 -0.565856,0.60184 -0.93592,1.37336 -1.214614,2.17911 0.01834,-0.21273 0.03563,-0.42545 0.05433,-0.63818 0.111477,-1.24954 0.324202,-2.38795 1.125714,-3.3602 0.671689,-0.81492 1.535994,-1.47462 2.380897,-2.07222 0.267406,-0.18944 0.540456,-0.36513 0.816328,-0.53552 0.484716,1.34479 2.224617,2.01401 3.4671,2.12513 1.539177,0.13794 3.018017,-0.48965 4.098927,-1.64041 0.0483,-0.0515 0.0564,-0.16157 -0.004,-0.2092 -0.98248,-0.77964 -2.02494,-1.8609 -3.30658,-1.9819 -0.542225,-0.0512 -1.084092,0.0462 -1.613611,0.21872 0.457905,-0.27905 0.892527,-0.59584 1.268236,-0.9966 2.025655,-2.15759 1.949455,-5.41055 0.943685,-8.08284 1.41958,-0.0688 2.98979,-0.57221 4.064,-1.58715 0.51505,-0.48648 0.81597,-1.15641 0.93803,-1.86867 0.0713,-0.41345 0.23495,-1.25941 -0.16721,-1.53917 -0.42369,-0.29492 -1.34585,-0.11147 -1.80411,-0.0346 -0.67733,0.1136 -1.29187,0.38735 -1.8041,0.87454 -0.94615,0.89993 -1.34479,2.24261 -1.47109,3.55741 -0.0995,-0.22472 -0.20461,-0.44485 -0.31644,-0.65793 -0.539399,-1.02905 -1.196271,-1.97415 -1.895476,-2.88502 1.154288,0.16969 2.253546,0.41099 3.345396,-0.27869 0.76517,-0.48296 1.28834,-1.26365 1.52223,-2.15054 0.0744,-0.22648 0.12983,-0.46213 0.15276,-0.70908 0.008,-0.0896 -0.084,-0.16933 -0.16263,-0.16616 -1.17969,0.0515 -2.5079,0.0762 -3.572234,0.6858 -0.73272,0.41981 -1.453798,1.155 -1.759303,2.0126 -0.3175,-0.39829 -0.639586,-0.79199 -0.961672,-1.18463 -0.346781,-0.42333 -0.696384,-0.8576 -1.026937,-1.30845 1.102784,0.17639 2.268714,0.03 3.075165,-0.87595 0.360891,-0.40534 0.594077,-0.92286 0.742244,-1.45238 0.216958,-0.77612 0.103717,-1.73073 0.439917,-2.45146 0.0547,-0.11677 -0.0402,-0.24588 -0.160517,-0.21378 -1.323622,0.35348 -2.844447,-0.0268 -3.877381,1.14018 -0.713316,0.80574 -0.83185,2.03411 -0.72143,3.12773 -0.741539,-1.14265 -1.300692,-2.39431 -1.357137,-3.82341 -0.01976,-0.49777 0.04304,-0.96238 0.168275,-1.39947 0.394759,-1.01106 1.195564,-1.79811 1.908176,-2.56399 0.744361,-0.79939 1.524,-1.56316 2.332214,-2.29059 0.379589,-0.34148 0.766939,-0.67486 1.159933,-1.00047 0.07973,0.1785 0.159103,0.35666 0.238478,0.53516 0.206029,0.48719 0.429329,0.96661 0.612429,1.46509 0.13405,0.36442 0.23318,0.75635 0.36336,1.12994 0.14076,0.25542 0.29633,0.50024 0.47872,0.72602 0.81879,1.01318 1.91946,1.06927 2.96897,0.70873 0.0751,-1.11372 -0.0607,-2.18228 -0.88653,-3.08222 -0.94438,-1.0294 -2.28847,-1.44004 -3.593746,-1.63265 0.404636,-0.33056 0.815276,-0.65264 1.232966,-0.96309 0.48224,-0.35877 0.98989,-0.68227 1.49295,-1.01176 0.51365,-0.17851 1.0227,-0.48155 1.50954,-0.78529 0.55351,-0.27869 1.08302,-0.61383 1.55822,-1.01706 0.23389,-0.22295 0.45014,-0.47166 0.63958,-0.75988 0.86607,-1.31374 0.58702,-2.59856 -0.0455,-3.85692"
       style="fill:#4fab62;fill-opacity:1;fill-rule:nonzero;stroke:none;stroke-width:0.0352778"
       id="path284" />
    <path
       d="m 90.262918,229.57932 c -0.32773,0.097 -0.643466,0.11934 -0.953911,-0.0518 -0.173214,-0.0956 -0.401461,0.11603 -0.277636,0.30413 0.322792,0.491 1.063272,0.61736 1.45415,0.13642 0.141817,-0.17416 -0.0018,-0.45363 -0.222603,-0.38872"
       style="fill:#7f5b49;fill-opacity:1;fill-rule:nonzero;stroke:none;stroke-width:0.0352778"
       id="path286" />
    <path
       d="m 93.875363,229.0897 c -0.270228,-0.15808 -0.527403,-0.11148 -0.817033,-0.0479 -0.277989,0.0606 -0.562328,0.12168 -0.803981,0.28579 -0.234245,0.15903 -0.201789,0.58593 0.09137,0.65197 0.285398,0.0638 0.559153,0.0175 0.844198,-0.0273 0.289277,-0.0455 0.5588,-0.0867 0.758472,-0.33471 0.13088,-0.16235 0.115005,-0.41811 -0.07303,-0.52779"
       style="fill:#7f5b49;fill-opacity:1;fill-rule:nonzero;stroke:none;stroke-width:0.0352778"
       id="path288" />
    <path
       d="m 95.270599,230.86445 c -0.08502,-0.19607 -0.263525,-0.26621 -0.457905,-0.22779 -0.139348,0.0274 -0.274462,0.11963 -0.401814,0.18592 -0.118887,0.061 -0.222956,0.14855 -0.339725,0.20739 -0.121003,0.0615 -0.157692,0.24487 -0.105834,0.36449 0.05997,0.13822 0.188031,0.19114 0.325967,0.16193 0.07232,-0.0152 0.15875,-0.005 0.233892,-0.0183 0.05715,-0.0103 0.113594,-0.023 0.170039,-0.0346 0.14993,-0.0305 0.287866,-0.0547 0.426508,-0.12707 0.169686,-0.0889 0.222955,-0.34258 0.148872,-0.51195"
       style="fill:#7f5b49;fill-opacity:1;fill-rule:nonzero;stroke:none;stroke-width:0.0352778"
       id="path290" />
    <path
       d="m 88.302885,230.20948 c -0.195086,-0.17885 -0.392642,-0.19872 -0.639939,-0.15917 -0.102659,0.0165 -0.225778,0.0586 -0.306564,0.12707 -0.08643,0.0733 -0.183445,0.24832 -0.132292,0.37179 0.05256,0.12693 0.1016,0.20878 0.221545,0.26776 0.07796,0.038 0.164041,0.066 0.248708,0.0769 0.120297,0.0158 0.221897,0.0226 0.341842,-0.004 0.111125,-0.024 0.190853,-0.093 0.275166,-0.16965 0.134762,-0.12277 0.121356,-0.3919 -0.0085,-0.51111"
       style="fill:#7f5b49;fill-opacity:1;fill-rule:nonzero;stroke:none;stroke-width:0.0352778"
       id="path292" />
    <path
       d="m 89.947182,228.14919 c -0.154517,-0.23248 -0.351719,-0.31641 -0.618772,-0.32343 -0.258586,-0.007 -0.525639,0.0575 -0.731309,0.22434 -0.132644,0.1083 -0.216605,0.35524 -0.05115,0.49004 0.227189,0.18478 0.471311,0.26416 0.75953,0.26776 0.278695,0.003 0.485775,-0.0943 0.646995,-0.33489 0.05786,-0.0864 0.05115,-0.23838 -0.0053,-0.32382"
       style="fill:#7f5b49;fill-opacity:1;fill-rule:nonzero;stroke:none;stroke-width:0.0352778"
       id="path294" />
    <path
       d="m 95.479091,227.60418 c -0.367595,0.0398 -0.367595,0.60329 0.0099,0.61377 0.419452,0.0117 0.827969,0.0812 1.24213,0.14291 0.200025,0.03 0.547511,-0.0158 0.567267,-0.29739 0.04939,-0.69854 -1.474259,-0.49735 -1.819275,-0.45929"
       style="fill:#7f5b49;fill-opacity:1;fill-rule:nonzero;stroke:none;stroke-width:0.0352778"
       id="path296" />
    <path
       d="m 92.545391,231.08924 c -0.05856,-0.4046 -0.477309,-0.42926 -0.78352,-0.40118 -0.345369,0.0319 -0.741186,0.0897 -1.047397,0.26709 -0.297745,0.17184 -0.19932,0.64562 0.103011,0.736 0.418042,0.12485 1.835856,0.14637 1.727906,-0.60191"
       style="fill:#7f5b49;fill-opacity:1;fill-rule:nonzero;stroke:none;stroke-width:0.0352778"
       id="path298" />
  </g>
</svg>
