<?xml version="1.0" encoding="UTF-8" standalone="no"?>
<svg
   xmlns:dc="http://purl.org/dc/elements/1.1/"
   xmlns:cc="http://creativecommons.org/ns#"
   xmlns:rdf="http://www.w3.org/1999/02/22-rdf-syntax-ns#"
   xmlns:svg="http://www.w3.org/2000/svg"
   xmlns="http://www.w3.org/2000/svg"
   xmlns:sodipodi="http://sodipodi.sourceforge.net/DTD/sodipodi-0.dtd"
   xmlns:inkscape="http://www.inkscape.org/namespaces/inkscape"
   width="210mm"
   height="297mm"
   viewBox="0 0 210 297"
   version="1.1"
   id="svg5562"
   inkscape:version="1.0.2 (e86c8708, 2021-01-15)"
   sodipodi:docname="squid.svg">
  <defs
     id="defs5556" />
  <sodipodi:namedview
     id="base"
     pagecolor="#ffffff"
     bordercolor="#666666"
     borderopacity="1.0"
     inkscape:pageopacity="0.0"
     inkscape:pageshadow="2"
     inkscape:zoom="0.35"
     inkscape:cx="400"
     inkscape:cy="560"
     inkscape:document-units="mm"
     inkscape:current-layer="layer1"
     inkscape:document-rotation="0"
     showgrid="false"
     inkscape:window-width="1252"
     inkscape:window-height="1005"
     inkscape:window-x="0"
     inkscape:window-y="23"
     inkscape:window-maximized="0" />
  <metadata
     id="metadata5559">
    <rdf:RDF>
      <cc:Work
         rdf:about="">
        <dc:format>image/svg+xml</dc:format>
        <dc:type
           rdf:resource="http://purl.org/dc/dcmitype/StillImage" />
        <dc:title></dc:title>
      </cc:Work>
    </rdf:RDF>
  </metadata>
  <g
     inkscape:label="Layer 1"
     inkscape:groupmode="layer"
     id="layer1">
    <path
       d="m 157.55224,79.099041 c 0,0 0.26317,-2.284589 0.95356,-1.652411 0.53446,0.489656 3.45228,7.188553 4.699,10.220678 1.23119,2.995437 3.49885,7.542037 3.5821,9.531351 0.084,1.989667 -6.87246,4.004031 -12.23927,3.472391 -5.36681,-0.53199 3.00461,-21.572009 3.00461,-21.572009"
       style="fill:#acc7d9;fill-opacity:1;fill-rule:nonzero;stroke:none;stroke-width:0.0352778"
       id="path1910" />
    <path
       d="m 158.23945,80.036725 c 0,0 0.74577,-3.044826 -0.17886,-2.73297 -0.71614,0.241653 -6.41032,5.113514 -8.76935,7.43832 -2.32939,2.295878 -6.26674,5.621161 -7.07531,7.441142 -0.80857,1.819628 5.45783,6.486878 11.05147,8.144933 5.59365,1.6577 4.97205,-20.291425 4.97205,-20.291425"
       style="fill:#acc7d9;fill-opacity:1;fill-rule:nonzero;stroke:none;stroke-width:0.0352778"
       id="path1912" />
    <path
       d="m 153.31608,126.42665 c 0,0 3.99345,3.01414 5.33048,5.64939 2.04152,4.02378 3.20886,9.16622 3.06811,11.44058 -0.14006,2.27471 0.26387,6.15033 -2.75344,8.90129 -2.73896,2.49626 -5.48992,2.30752 -7.36212,0.99836 -1.49965,-1.04881 -1.07209,-4.0901 0.44204,-5.02214 1.63653,-1.00754 3.35421,0.0173 3.63819,0.62406 0.28434,0.60643 -1.17757,-0.52634 -2.32657,0.1651 -1.59667,0.96026 -0.96237,3.08751 0.81175,3.12279 1.77411,0.0353 5.0292,-2.77954 5.37386,-5.16149 0.84843,-5.85788 -1.24354,-9.43751 -2.55235,-12.41637 -1.30916,-2.9785 -4.92936,-6.90104 -5.31848,-7.00758 -0.38946,-0.10654 1.64853,-1.29399 1.64853,-1.29399"
       style="fill:#95b1c2;fill-opacity:1;fill-rule:nonzero;stroke:none;stroke-width:0.0352778"
       id="path1914" />
    <path
       d="m 148.9614,128.63822 c 0,0 -0.1584,5.54566 -2.55729,9.12107 -2.39854,3.57505 -5.99546,5.77038 -6.50981,9.26888 -0.5147,3.4985 1.81469,6.85377 4.89585,4.82283 3.08151,-2.03059 3.23462,-3.18947 3.568,-3.13761 0.33302,0.0515 -0.0991,2.65465 -2.61374,4.13209 -1.37618,0.80821 -4.36527,1.26929 -6.27097,-0.5387 -1.905,-1.80763 -2.89419,-5.89879 -0.22049,-9.64353 2.6737,-3.74438 6.21841,-8.94045 6.91515,-11.055 0.69674,-2.11455 1.07245,-3.17218 1.07245,-3.17218 l 1.72085,0.20215"
       style="fill:#95b1c2;fill-opacity:1;fill-rule:nonzero;stroke:none;stroke-width:0.0352778"
       id="path1916" />
    <path
       d="m 143.16102,128.84459 c 0,0 -2.63243,2.46909 -6.40327,2.40136 -4.25873,-0.0769 -5.89174,-4.61927 -6.87211,-7.98971 -0.98107,-3.37079 -2.97533,-8.11565 -5.92137,-8.80287 -2.9457,-0.68685 -6.87176,0.16193 -7.52123,1.58257 -1.11795,2.44475 0.76659,4.03824 0.4946,4.48486 -0.27235,0.44626 -1.85702,-0.78105 -2.24579,-2.46909 -0.31115,-1.35185 0.23742,-3.49532 2.94076,-4.6348 2.70369,-1.13947 6.88411,-1.16134 9.03711,0.0635 2.56681,1.46015 4.36739,3.82376 5.46629,7.80239 1.09855,3.97898 2.06163,7.4422 5.0031,7.74136 2.94146,0.29915 5.81624,-2.03624 5.81624,-2.03624 l 0.20567,1.85667"
       style="fill:#95b1c2;fill-opacity:1;fill-rule:nonzero;stroke:none;stroke-width:0.0352778"
       id="path1918" />
    <path
       d="m 145.15351,126.53601 -2.41688,2.39113 c 0,0 -3.78425,-1.24037 -5.00627,-2.91253 -1.22202,-1.67217 -3.88126,-5.5873 -3.5119,-10.58369 0.36936,-4.99604 1.94733,-8.67057 2.22814,-11.85651 0.28117,-3.18593 -1.00012,-5.487456 -0.74118,-6.058604 0.25858,-0.571147 2.16252,1.495778 2.4257,4.239684 0.26352,2.74426 -1.84715,10.82463 -1.63548,13.58794 0.21167,2.76366 1.83303,7.06967 3.41806,8.60496 1.58574,1.53564 4.65632,2.92594 5.23981,2.58762"
       style="fill:#95b1c2;fill-opacity:1;fill-rule:nonzero;stroke:none;stroke-width:0.0352778"
       id="path1920" />
    <path
       d="m 143.90397,116.13013 c 0,0 10.27183,-0.19086 10.801,0.8382 0.52917,1.0287 -2.22215,6.08612 -1.24601,7.40586 0.97578,1.31904 2.11596,0.84808 4.64114,1.89865 2.74497,1.14159 2.91642,2.9785 7.28028,3.22474 4.36386,0.24589 10.12931,-3.00919 12.11474,-3.91865 1.98544,-0.90982 4.12539,-1.22943 4.87716,-0.12947 0.75141,1.10031 -1.06504,3.85586 -1.94769,4.23545 -0.883,0.37959 1.44533,-2.89913 0.40569,-3.33093 -1.03963,-0.43145 -1.88454,-0.003 -4.27002,1.51941 -2.78871,1.78012 -8.82332,4.09928 -11.85404,4.05977 -3.03107,-0.0395 -5.79332,-2.44722 -8.39258,-3.52637 -2.59962,-1.07914 -3.562,-1.21602 -3.562,-1.21602 0,0 2.25672,3.4484 2.36079,6.10835 0.10407,2.65959 0.0748,6.57754 1.54411,9.00006 1.46861,2.42253 3.21028,4.45382 6.3627,3.80789 3.15277,-0.64559 4.73921,-2.49308 4.49897,-4.15326 -0.24094,-1.66052 -2.08068,-2.58198 -3.18311,-2.01471 -1.10243,0.56656 -1.70639,1.07245 -1.98543,0.90946 -0.27905,-0.16333 0.9719,-2.28388 2.35408,-2.63243 1.38183,-0.34854 3.8294,0.40005 4.56883,2.05458 0.73977,1.65488 0.82409,4.20405 -0.5461,5.60529 -1.36984,1.40158 -3.90808,2.42817 -6.01345,2.56328 -2.10503,0.13476 -5.39045,-1.15852 -7.24959,-3.79836 -1.85949,-2.63983 -2.72238,-5.40173 -2.74814,-7.61894 -0.025,-2.21721 -1.03857,-8.47019 -1.4799,-8.29874 -0.44168,0.17145 -0.78317,4.27778 -0.25259,7.04356 0.53023,2.76578 1.23825,6.52745 0.37359,8.4776 -0.86465,1.9498 -5.50262,3.62338 -6.7571,5.41902 -1.11654,1.59808 -1.92441,3.83963 0.13476,4.572 1.19098,0.42333 1.87254,1.31657 1.87254,1.31657 0,0 -3.35527,-0.0801 -3.97898,-1.34797 -0.62441,-1.26823 -1.19909,-3.0353 0.93557,-5.44371 2.13501,-2.40806 5.36575,-3.49074 5.89915,-5.32589 0.5334,-1.8355 -0.762,-8.52875 -1.00612,-10.46621 -0.24377,-1.93745 -0.21484,-4.26614 -0.21484,-4.26614 0,0 -1.01248,3.55953 -2.93547,5.07788 -1.92334,1.51871 -9.23431,2.10079 -9.66576,3.15913 -0.4318,1.05798 3.19793,3.34539 3.16654,5.45218 -0.0314,2.10679 -2.546,5.23981 -4.24921,6.58989 -1.70321,1.34973 -5.0165,2.49625 -5.24122,2.22179 -0.22472,-0.27481 4.45876,-2.76719 5.27755,-3.88514 0.8188,-1.1183 2.63032,-2.69099 1.94063,-4.8454 -0.68968,-2.15406 -3.6583,-4.83659 -3.28471,-6.11611 0.37324,-1.27917 4.6923,-1.77165 6.95537,-2.6289 2.26271,-0.85725 5.54073,-1.84468 5.43489,-4.65208 -3.50238,3.9945 -10.31487,4.54095 -14.19507,4.58505 -3.87985,0.0441 -6.92715,0.1898 -8.72808,2.7051 -1.80093,2.51495 -4.2171,4.53814 -7.42068,5.57248 -3.20357,1.03434 -4.58364,1.54905 -4.53566,0.88336 0.0476,-0.66605 6.0078,-3.06212 7.71031,-4.46758 1.70251,-1.40512 1.55399,-4.72969 4.42207,-5.9817 2.19322,-0.95779 5.69348,-0.92534 8.2109,-0.89288 0.77541,0.01 1.45733,0.0197 1.97944,7e-4 2.2165,-0.0808 5.65714,0.21273 7.57731,-1.58291 1.91947,-1.79599 3.56024,-8.63318 3.6001,-10.0196 0.0395,-1.38641 -1.08832,-3.09209 -0.54222,-3.81917 l 0.18556,0.072"
       style="fill:#acc7d9;fill-opacity:1;fill-rule:nonzero;stroke:none;stroke-width:0.0352778"
       id="path1922" />
    <path
       d="m 152.28245,121.85994 c -1.3141,-0.63711 -3.12809,0.19297 -3.12879,1.81963 -3.5e-4,0.89853 0.63606,1.75119 1.48555,2.04259 0.87524,0.30021 2.00201,0.0268 2.534,-0.76377 0.54963,-0.81633 0.33937,-2.04611 -0.34608,-2.71498 -0.16545,-0.16192 -0.34925,-0.28892 -0.54468,-0.38347"
       style="fill:#c5ecec;fill-opacity:1;fill-rule:nonzero;stroke:none;stroke-width:0.0352778"
       id="path1924" />
    <path
       d="m 152.16074,122.09807 c -1.14794,-0.55633 -2.73262,0.16827 -2.73333,1.58962 0,0.78457 0.55528,1.52964 1.29787,1.78399 0.76483,0.26247 1.74872,0.0236 2.21368,-0.6671 0.48014,-0.71296 0.29634,-1.78717 -0.30233,-2.37172 -0.14428,-0.14112 -0.30515,-0.25224 -0.47589,-0.33479"
       style="fill:#ffffff;fill-opacity:1;fill-rule:nonzero;stroke:none;stroke-width:0.0352778"
       id="path1926" />
    <path
       d="m 146.42069,121.50152 c -1.3141,-0.63712 -3.12808,0.19262 -3.12879,1.81963 -3.5e-4,0.89852 0.63536,1.75119 1.48555,2.04258 0.87524,0.30022 2.00166,0.0268 2.534,-0.76376 0.54963,-0.81633 0.33938,-2.04611 -0.34607,-2.71533 -0.16545,-0.16157 -0.34996,-0.28822 -0.54469,-0.38312"
       style="fill:#c5ecec;fill-opacity:1;fill-rule:nonzero;stroke:none;stroke-width:0.0352778"
       id="path1928" />
    <path
       d="m 146.29193,121.70296 c -1.14724,-0.55669 -2.73262,0.16827 -2.73297,1.58961 -3.6e-4,0.78458 0.55562,1.52965 1.29787,1.784 0.76447,0.26212 1.74872,0.0236 2.21368,-0.6671 0.48013,-0.71296 0.29633,-1.78717 -0.30233,-2.37173 -0.14464,-0.14111 -0.30551,-0.25223 -0.47625,-0.33478"
       style="fill:#ffffff;fill-opacity:1;fill-rule:nonzero;stroke:none;stroke-width:0.0352778"
       id="path1930" />
    <path
       d="m 149.09686,121.05032 c -1.43898,-0.0819 -4.56071,-0.54787 -5.45465,-2.21298 -0.89429,-1.66546 -1.00506,-5.30401 1.86902,-12.98187 3.65795,-9.771942 10.91142,-29.130271 12.85699,-28.558418 1.94521,0.571853 -0.46179,21.768154 -1.05869,28.537958 -0.59725,6.76946 -0.4699,12.60017 -2.86315,14.30902 -2.25107,1.60761 -3.62443,1.00436 -5.34952,0.90629"
       style="fill:#c5e5e6;fill-opacity:1;fill-rule:nonzero;stroke:none;stroke-width:0.0352778"
       id="path1932" />
    <path
       d="m 144.28709,125.78177 c 1.18181,0.65053 2.47438,1.04423 3.79518,1.12854 0.66428,0.0455 1.33068,0.03 1.98861,-0.0653 0.65687,-0.0977 1.30598,-0.26988 1.92299,-0.55139 0.036,-0.0169 0.0794,-0.001 0.0967,0.0353 0.0148,0.0318 0.004,0.0695 -0.0233,0.0896 -0.56621,0.40957 -1.23049,0.68756 -1.91735,0.84455 -0.68721,0.16228 -1.44215,0.15522 -2.14312,0.11818 -0.7045,-0.0349 -1.3402,-0.18838 -1.99955,-0.43674 -0.65863,-0.25012 -1.30845,-0.53799 -1.83444,-1.00542 -0.0406,-0.0356 -0.0437,-0.0974 -0.008,-0.13793 0.0307,-0.0346 0.0811,-0.0423 0.11994,-0.0208 l 0.002,0.001"
       style="fill:#ffffff;fill-opacity:1;fill-rule:nonzero;stroke:none;stroke-width:0.0352778"
       id="path1934" />
    <path
       d="m 151.4319,123.55257 c 0,0.48295 -0.34255,0.87419 -0.76482,0.87419 -0.42263,0 -0.76518,-0.39124 -0.76518,-0.87419 0,-0.4826 0.34255,-0.87418 0.76518,-0.87418 0.42227,0 0.76482,0.39158 0.76482,0.87418"
       style="fill:#333f48;fill-opacity:1;fill-rule:nonzero;stroke:none;stroke-width:0.0352778"
       id="path1936" />
    <path
       d="m 150.61804,123.26859 c 0,0.18273 -0.12982,0.33125 -0.28998,0.33125 -0.15981,0 -0.28963,-0.14852 -0.28963,-0.33125 0,-0.1831 0.12982,-0.33162 0.28963,-0.33162 0.16016,0 0.28998,0.14852 0.28998,0.33162"
       style="fill:#ffffff;fill-opacity:1;fill-rule:nonzero;stroke:none;stroke-width:0.0352778"
       id="path1938" />
    <path
       d="m 146.92234,123.22131 c 0,0.4826 -0.34255,0.87419 -0.76482,0.87419 -0.42263,0 -0.76482,-0.39159 -0.76482,-0.87419 0,-0.48295 0.34219,-0.87418 0.76482,-0.87418 0.42227,0 0.76482,0.39123 0.76482,0.87418"
       style="fill:#333f48;fill-opacity:1;fill-rule:nonzero;stroke:none;stroke-width:0.0352778"
       id="path1940" />
    <path
       d="m 146.10883,122.93697 c 0,0.1831 -0.12982,0.33162 -0.28998,0.33162 -0.16016,0 -0.28998,-0.14852 -0.28998,-0.33162 0,-0.18273 0.12982,-0.33125 0.28998,-0.33125 0.16016,0 0.28998,0.14852 0.28998,0.33125"
       style="fill:#ffffff;fill-opacity:1;fill-rule:nonzero;stroke:none;stroke-width:0.0352778"
       id="path1942" />
    <path
       d="m 144.66809,117.63649 c -0.10971,0 -0.21555,-0.0487 -0.27058,-0.15946 -0.58738,-1.18145 -0.39652,-2.73403 -0.28469,-4.01602 0.13335,-1.52435 0.43391,-3.02542 0.85337,-4.4958 0.78951,-2.76931 1.81222,-5.82683 3.49814,-8.17033 0.0191,-0.0265 0.0441,-0.0374 0.0695,-0.0374 0.0624,0 0.127,0.0663 0.11253,0.13406 -0.59478,2.76084 -2.04963,5.29554 -2.8007,8.03557 -0.40816,1.48837 -0.70591,3.01801 -0.80751,4.55965 -0.0836,1.26894 0.23848,2.65183 -0.008,3.88232 -0.0328,0.16404 -0.20179,0.26741 -0.36195,0.26741"
       style="fill:#d8ebee;fill-opacity:1;fill-rule:nonzero;stroke:none;stroke-width:0.0352778"
       id="path1944" />
    <path
       d="m 120.85277,135.54173 c -0.0822,0 -0.17145,-0.0653 -0.16228,-0.16228 0.12523,-1.30987 1.18568,-2.69875 3.29988,-2.96087 0.0134,-0.002 0.0272,-0.002 0.0409,-0.002 0.25824,0 0.51682,0.28681 -0.09,0.39582 -0.85761,0.15381 -1.22097,0.37959 -1.75155,0.88406 -0.4773,0.45367 -0.92815,1.22061 -1.2259,1.78188 -0.0236,0.0445 -0.0663,0.0639 -0.11112,0.0639"
       style="fill:#bed7e4;fill-opacity:1;fill-rule:nonzero;stroke:none;stroke-width:0.0352778"
       id="path1946" />
    <path
       d="m 134.04948,137.63723 c -0.0399,0 -0.0833,-0.009 -0.10901,-0.0254 -0.34043,-0.21202 -0.38735,-0.78 -0.29104,-1.1176 0.0624,-0.22014 0.42968,-0.71755 0.74824,-0.71755 0.0339,0 0.0667,0.006 0.0988,0.0176 l 0.0487,0.0642 c -3.5e-4,0.13864 -0.0776,0.17392 -0.16651,0.27305 -0.12136,0.13547 -0.30268,0.30868 -0.35772,0.4826 -0.11324,0.35807 0.06,0.60325 0.12242,0.96979 0.006,0.037 -0.0406,0.0533 -0.0938,0.0533"
       style="fill:#bed7e4;fill-opacity:1;fill-rule:nonzero;stroke:none;stroke-width:0.0352778"
       id="path1948" />
    <path
       d="m 138.29057,148.62378 c -0.0536,0 -0.11641,-0.0554 -0.15028,-0.13476 -0.77541,-1.81222 0.50377,-4.56212 1.74731,-5.90303 0.0222,-0.0236 0.0466,-0.0339 0.0702,-0.0339 0.073,0 0.13758,0.097 0.0945,0.19191 -0.38664,0.84772 -0.92039,1.56633 -1.26223,2.401 -0.45332,1.10667 -0.40147,2.11808 -0.40147,3.28613 0,0.13864 -0.0448,0.19261 -0.0981,0.19261"
       style="fill:#afc9d5;fill-opacity:1;fill-rule:nonzero;stroke:none;stroke-width:0.0352778"
       id="path1950" />
    <path
       d="m 156.75849,145.26746 c -0.0487,0 -0.133,-0.0339 -0.26741,-0.12383 -0.8837,-0.59196 -1.20544,-1.05233 -1.67393,-1.89618 -0.54504,-0.98107 -1.19133,-2.20839 -1.0354,-3.32775 0.007,-0.0522 0.0536,-0.0833 0.0991,-0.0833 0.0353,0 0.0702,0.0187 0.0857,0.0607 0.75424,2.03482 1.18039,3.44946 2.75378,5.11281 0.0769,0.0811 0.14993,0.25753 0.0381,0.25753"
       style="fill:#bed7e4;fill-opacity:1;fill-rule:nonzero;stroke:none;stroke-width:0.0352778"
       id="path1952" />
    <path
       d="m 164.35239,131.43222 c -1.57904,-3.6e-4 -3.19723,-0.88406 -4.32788,-1.89442 -0.11466,-0.10266 -0.008,-0.25435 0.11571,-0.25435 0.0226,0 0.0455,0.005 0.0681,0.0162 0.84632,0.42263 1.5487,1.06151 2.45569,1.37725 0.49248,0.17145 0.96414,0.23177 1.43475,0.23177 0.62688,0 1.2513,-0.10724 1.91805,-0.20143 0.008,-0.001 0.0159,-0.001 0.024,-0.001 0.14958,0 0.25541,0.19932 0.096,0.2861 -0.56904,0.30798 -1.1737,0.44027 -1.78435,0.44027"
       style="fill:#bed7e4;fill-opacity:1;fill-rule:nonzero;stroke:none;stroke-width:0.0352778"
       id="path1954" />
    <path
       d="m 142.74192,153.63535 c -0.0289,0 -0.0621,-0.0148 -0.0928,-0.0462 -0.56726,-0.58067 -0.44732,-1.95509 0.0279,-2.5534 0.009,-0.0113 0.0208,-0.0162 0.0321,-0.0162 0.0268,0 0.054,0.025 0.0554,0.0526 0.0205,0.41064 -0.12629,1.00436 -0.11465,1.4157 0.0116,0.40957 0.22048,0.66252 0.16933,1.06962 -0.006,0.0505 -0.0377,0.078 -0.0773,0.078"
       style="fill:#bed7e4;fill-opacity:1;fill-rule:nonzero;stroke:none;stroke-width:0.0352778"
       id="path1956" />
    <path
       d="m 150.46388,95.482042 c -0.0843,0 -0.13865,-0.138641 -0.12983,-0.198261 0.2533,-1.696861 1.05446,-3.367617 1.69898,-4.949825 0.59408,-1.457678 1.1811,-3.19405 2.08139,-4.490509 0.0522,-0.07549 0.10442,-0.108303 0.14781,-0.108303 0.079,0 0.12912,0.109362 0.0984,0.271992 -0.29563,1.552575 -0.98354,3.124553 -1.60902,4.571648 -0.67663,1.566333 -1.27,3.322814 -2.15336,4.791428 -0.0494,0.08184 -0.0952,0.11183 -0.1344,0.11183"
       style="fill:#d8ebee;fill-opacity:1;fill-rule:nonzero;stroke:none;stroke-width:0.0352778"
       id="path1958" />
  </g>
</svg>
