<?xml version="1.0" encoding="UTF-8" standalone="no"?>
<svg
   xmlns:dc="http://purl.org/dc/elements/1.1/"
   xmlns:cc="http://creativecommons.org/ns#"
   xmlns:rdf="http://www.w3.org/1999/02/22-rdf-syntax-ns#"
   xmlns:svg="http://www.w3.org/2000/svg"
   xmlns="http://www.w3.org/2000/svg"
   xmlns:sodipodi="http://sodipodi.sourceforge.net/DTD/sodipodi-0.dtd"
   xmlns:inkscape="http://www.inkscape.org/namespaces/inkscape"
   width="210mm"
   height="297mm"
   viewBox="0 0 210 297"
   version="1.1"
   id="svg8358"
   inkscape:version="1.0.2 (e86c8708, 2021-01-15)"
   sodipodi:docname="starfish2.svg">
  <defs
     id="defs8352" />
  <sodipodi:namedview
     id="base"
     pagecolor="#ffffff"
     bordercolor="#666666"
     borderopacity="1.0"
     inkscape:pageopacity="0.0"
     inkscape:pageshadow="2"
     inkscape:zoom="0.35"
     inkscape:cx="400"
     inkscape:cy="560"
     inkscape:document-units="mm"
     inkscape:current-layer="layer1"
     inkscape:document-rotation="0"
     showgrid="false"
     inkscape:window-width="1252"
     inkscape:window-height="1005"
     inkscape:window-x="291"
     inkscape:window-y="23"
     inkscape:window-maximized="0" />
  <metadata
     id="metadata8355">
    <rdf:RDF>
      <cc:Work
         rdf:about="">
        <dc:format>image/svg+xml</dc:format>
        <dc:type
           rdf:resource="http://purl.org/dc/dcmitype/StillImage" />
        <dc:title></dc:title>
      </cc:Work>
    </rdf:RDF>
  </metadata>
  <g
     inkscape:label="Layer 1"
     inkscape:groupmode="layer"
     id="layer1">
    <path
       d="m 78.31916,77.821101 c 0,0 1.326445,-0.929216 3.051528,3.053292 1.725083,3.982509 0.73025,12.611101 2.056695,14.203893 1.329972,1.592792 16.428862,-4.048831 17.458977,-0.265995 0.59972,2.211564 -13.807727,5.243689 -14.072311,6.969479 -0.264583,1.72579 15.663331,9.49113 13.010446,12.94271 -2.656417,3.45123 -15.000112,-9.69045 -17.921112,-8.49559 -2.921001,1.1945 -2.786945,17.38947 -7.168445,17.12418 -4.381501,-0.26564 1.192389,-17.78811 -0.264584,-20.17783 -1.4605,-2.38901 -15.79739,3.45193 -16.594667,-0.53058 -0.797278,-3.982505 14.403917,-3.31893 17.190862,-6.239224 2.786944,-2.920295 -0.994834,-17.787762 3.252611,-18.584335"
       style="fill:#f36220;fill-opacity:1;fill-rule:nonzero;stroke:none;stroke-width:0.0352778"
       id="path330" />
    <path
       d="m 83.349771,97.292319 c -0.758472,-0.323497 -1.411111,0.275872 -1.654527,0.957439 -0.144639,0.414867 -0.165806,0.865364 -0.134056,1.30422 0.02822,0.361597 0.09172,0.731662 0.282222,1.039632 0.282223,0.45015 0.860778,0.61243 1.347611,0.41099 0.670278,-0.27693 0.892528,-1.00436 0.966612,-1.661936 0.04233,-0.350309 0.05292,-0.709436 -0.02822,-1.052336 -0.102305,-0.428978 -0.366888,-0.821267 -0.779639,-0.998009"
       style="fill:#ffffff;fill-opacity:1;fill-rule:nonzero;stroke:none;stroke-width:0.0352778"
       id="path332" />
    <path
       d="m 82.661855,98.095594 c -0.843139,-0.181328 -1.160639,1.083028 -0.977195,1.677459 0.123473,0.405697 0.532695,0.815267 0.980723,0.642407 0.426861,-0.16369 0.680861,-0.720724 0.719666,-1.145468 0.03881,-0.410634 -0.08819,-0.839964 -0.455083,-1.064331 -0.09525,-0.05609 -0.183445,-0.09172 -0.268111,-0.110067"
       style="fill:#333f48;fill-opacity:1;fill-rule:nonzero;stroke:none;stroke-width:0.0352778"
       id="path334" />
    <path
       d="m 83.056966,98.291033 c -0.282222,0 -0.546806,0.259645 -0.525639,0.545747 0.01764,0.29457 0.243417,0.52705 0.543278,0.52705 0.282222,0 0.546805,-0.259997 0.529167,-0.545747 -0.02117,-0.294569 -0.246945,-0.52705 -0.546806,-0.52705"
       style="fill:#ffffff;fill-opacity:1;fill-rule:nonzero;stroke:none;stroke-width:0.0352778"
       id="path336" />
    <path
       d="m 77.68416,97.416497 c 0.758472,-0.323497 1.411111,0.276225 1.654528,0.957792 0.144639,0.414866 0.165805,0.865011 0.134055,1.303866 -0.02469,0.361955 -0.09172,0.732015 -0.282222,1.039985 -0.282222,0.45015 -0.860778,0.61278 -1.347611,0.41099 -0.66675,-0.27728 -0.892528,-1.00401 -0.966611,-1.661936 -0.03881,-0.350308 -0.05292,-0.709083 0.02822,-1.052689 0.102306,-0.428977 0.366889,-0.821266 0.779639,-0.998008"
       style="fill:#ffffff;fill-opacity:1;fill-rule:nonzero;stroke:none;stroke-width:0.0352778"
       id="path338" />
    <path
       d="m 78.199216,98.220125 c 0.843139,-0.181328 1.160639,1.08338 0.977194,1.677458 -0.123472,0.405697 -0.532694,0.815267 -0.98425,0.642407 -0.423333,-0.16333 -0.677333,-0.720723 -0.716139,-1.145468 -0.0388,-0.41028 0.08819,-0.839964 0.455083,-1.063978 0.09172,-0.05609 0.183445,-0.09208 0.268112,-0.110419"
       style="fill:#333f48;fill-opacity:1;fill-rule:nonzero;stroke:none;stroke-width:0.0352778"
       id="path340" />
    <path
       d="m 78.798938,98.400394 c 0.282222,0 0.543278,0.259998 0.525639,0.545748 -0.01764,0.294569 -0.243417,0.526697 -0.543278,0.526697 -0.282222,0 -0.546806,-0.259645 -0.529167,-0.545747 0.01764,-0.29457 0.246945,-0.526698 0.546806,-0.526698"
       style="fill:#ffffff;fill-opacity:1;fill-rule:nonzero;stroke:none;stroke-width:0.0352778"
       id="path342" />
    <path
       d="m 78.555521,102.79424 c 0.472722,0.0917 0.970139,0.11395 1.446389,0.0864 0.47625,-0.0335 0.948972,-0.10795 1.397,-0.26246 0.22225,-0.0797 0.451556,-0.14993 0.659695,-0.26318 l 0.324555,-0.15381 c 0.102306,-0.0635 0.204611,-0.12382 0.310445,-0.18309 0.215194,-0.11042 0.402166,-0.27129 0.610305,-0.40146 0.204611,-0.13899 0.384528,-0.30692 0.596195,-0.45014 l 0.01764,-0.012 c 0.07761,-0.0536 0.186972,-0.0335 0.239889,0.0459 0.04233,0.0624 0.0388,0.14323 -0.0035,0.20073 -0.155222,0.21061 -0.324556,0.41487 -0.500945,0.61348 -0.197555,0.17639 -0.377472,0.38136 -0.60325,0.52776 -0.423333,0.33725 -0.924277,0.56868 -1.439333,0.74542 -0.518583,0.16439 -1.072445,0.22789 -1.612195,0.19473 -0.543277,-0.031 -1.068916,-0.16192 -1.552222,-0.42368 -0.07056,-0.0374 -0.09878,-0.12454 -0.05997,-0.19439 0.03175,-0.0572 0.09525,-0.085 0.155222,-0.0734 l 0.01411,0.003"
       style="fill:#52423b;fill-opacity:1;fill-rule:nonzero;stroke:none;stroke-width:0.0352778"
       id="path344" />
    <path
       d="m 78.312105,79.32711 c -0.366889,0 -0.356306,0.572205 0.01058,0.572205 0.370417,0 0.359833,-0.572205 -0.01058,-0.572205"
       style="fill:#f7974b;fill-opacity:1;fill-rule:nonzero;stroke:none;stroke-width:0.0352778"
       id="path346" />
    <path
       d="m 80.040716,80.059124 c -0.282223,0 -0.271639,0.435328 0.0071,0.435328 0.282223,0 0.271639,-0.435328 -0.0071,-0.435328"
       style="fill:#f7974b;fill-opacity:1;fill-rule:nonzero;stroke:none;stroke-width:0.0352778"
       id="path348" />
    <path
       d="m 77.71591,81.295257 c -0.310444,0 -0.303389,0.485422 0.01058,0.485422 0.310445,0 0.303389,-0.485422 -0.01058,-0.485422"
       style="fill:#f7974b;fill-opacity:1;fill-rule:nonzero;stroke:none;stroke-width:0.0352778"
       id="path350" />
    <path
       d="m 77.514827,85.19063 c -0.423334,0 -0.41275,0.659341 0.01411,0.659341 0.423333,0 0.41275,-0.659341 -0.01411,-0.659341"
       style="fill:#f7974b;fill-opacity:1;fill-rule:nonzero;stroke:none;stroke-width:0.0352778"
       id="path352" />
    <path
       d="m 80.368799,81.494224 c -0.567972,0 -0.553861,0.883708 0.01411,0.883708 0.5715,0 0.553861,-0.883708 -0.01411,-0.883708"
       style="fill:#f7974b;fill-opacity:1;fill-rule:nonzero;stroke:none;stroke-width:0.0352778"
       id="path354" />
    <path
       d="m 80.63691,84.408521 c -0.321028,0 -0.310444,0.49777 0.0071,0.49777 0.321028,0 0.313972,-0.49777 -0.0071,-0.49777"
       style="fill:#f7974b;fill-opacity:1;fill-rule:nonzero;stroke:none;stroke-width:0.0352778"
       id="path356" />
    <path
       d="m 78.647243,83.273988 c -0.331611,0 -0.321027,0.510469 0.0071,0.510469 0.328083,0 0.321028,-0.510469 -0.0071,-0.510469"
       style="fill:#f7974b;fill-opacity:1;fill-rule:nonzero;stroke:none;stroke-width:0.0352778"
       id="path358" />
    <path
       d="m 81.363632,89.409499 c -0.635,0 -0.617361,0.982839 0.01764,0.982839 0.631473,0 0.613834,-0.982839 -0.01764,-0.982839"
       style="fill:#f7974b;fill-opacity:1;fill-rule:nonzero;stroke:none;stroke-width:0.0352778"
       id="path360" />
    <path
       d="m 78.248604,89.813783 c -0.370416,0 -0.359833,0.572205 0.0071,0.572205 0.370417,0 0.359833,-0.572205 -0.0071,-0.572205"
       style="fill:#f7974b;fill-opacity:1;fill-rule:nonzero;stroke:none;stroke-width:0.0352778"
       id="path362" />
    <path
       d="m 72.868743,98.677678 c -0.493889,0 -0.479778,0.765175 0.01411,0.765175 0.493889,0 0.479778,-0.765175 -0.01411,-0.765175"
       style="fill:#f7974b;fill-opacity:1;fill-rule:nonzero;stroke:none;stroke-width:0.0352778"
       id="path364" />
    <path
       d="m 59.593714,101.05716 c -0.677333,0 -0.659694,1.05128 0.01764,1.05128 0.677334,0 0.656167,-1.05128 -0.01764,-1.05128"
       style="fill:#f7974b;fill-opacity:1;fill-rule:nonzero;stroke:none;stroke-width:0.0352778"
       id="path366" />
    <path
       d="m 63.777659,99.897231 c -0.462139,0 -0.448028,0.715789 0.01058,0.715789 0.462139,0 0.448028,-0.715789 -0.01058,-0.715789"
       style="fill:#f7974b;fill-opacity:1;fill-rule:nonzero;stroke:none;stroke-width:0.0352778"
       id="path368" />
    <path
       d="m 64.574937,101.71756 c -0.426861,0 -0.416278,0.65935 0.01058,0.65935 0.423334,0 0.41275,-0.65935 -0.01058,-0.65935"
       style="fill:#f7974b;fill-opacity:1;fill-rule:nonzero;stroke:none;stroke-width:0.0352778"
       id="path370" />
    <path
       d="m 67.827548,99.567736 c -0.373944,0 -0.363361,0.578204 0.01058,0.578204 0.370416,0 0.359833,-0.578204 -0.01058,-0.578204"
       style="fill:#f7974b;fill-opacity:1;fill-rule:nonzero;stroke:none;stroke-width:0.0352778"
       id="path372" />
    <path
       d="m 60.556798,102.45205 -0.05292,0.012 c -0.225778,0.0504 -0.268111,0.30621 -0.186972,0.48295 l 0.02822,0.0579 c 0.127,0.28293 0.564445,0.19861 0.663222,-0.0564 0.112889,-0.29528 -0.155222,-0.56268 -0.451555,-0.49636"
       style="fill:#f7974b;fill-opacity:1;fill-rule:nonzero;stroke:none;stroke-width:0.0352778"
       id="path374" />
    <path
       d="m 70.021826,101.06387 -0.03881,-0.0138 c -0.172861,-0.0621 -0.352778,0.13829 -0.292806,0.30198 l 0.01411,0.0388 c 0.06703,0.18168 0.296334,0.25577 0.437445,0.1076 0.148166,-0.1517 0.05644,-0.36901 -0.119945,-0.43462"
       style="fill:#f7974b;fill-opacity:1;fill-rule:nonzero;stroke:none;stroke-width:0.0352778"
       id="path376" />
    <path
       d="m 76.184854,116.27811 c -0.649111,0 -0.631472,1.00754 0.01764,1.00754 0.649111,0 0.631473,-1.00754 -0.01764,-1.00754"
       style="fill:#f7974b;fill-opacity:1;fill-rule:nonzero;stroke:none;stroke-width:0.0352778"
       id="path378" />
    <path
       d="m 78.544938,113.7166 c -0.486834,0 -0.472722,0.75423 0.01411,0.75423 0.483306,0 0.469194,-0.75423 -0.01411,-0.75423"
       style="fill:#f7974b;fill-opacity:1;fill-rule:nonzero;stroke:none;stroke-width:0.0352778"
       id="path380" />
    <path
       d="m 75.659215,112.44307 c -0.289277,0 -0.278694,0.44767 0.0071,0.44767 0.289278,0 0.282222,-0.44767 -0.0071,-0.44767"
       style="fill:#f7974b;fill-opacity:1;fill-rule:nonzero;stroke:none;stroke-width:0.0352778"
       id="path382" />
    <path
       d="m 76.050799,104.76415 c -0.687917,0 -0.670278,1.07033 0.02117,1.07033 0.687917,0 0.670278,-1.07033 -0.02117,-1.07033"
       style="fill:#f7974b;fill-opacity:1;fill-rule:nonzero;stroke:none;stroke-width:0.0352778"
       id="path384" />
    <path
       d="m 77.299632,110.36803 c -0.395111,0.11571 -0.201083,0.75988 0.162278,0.62195 0.15875,-0.06 0.268111,-0.1831 0.239889,-0.36266 -0.02822,-0.18838 -0.218722,-0.31362 -0.402167,-0.25929"
       style="fill:#f7974b;fill-opacity:1;fill-rule:nonzero;stroke:none;stroke-width:0.0352778"
       id="path386" />
    <path
       d="m 74.329243,119.54484 c -0.546805,0 -0.529167,0.84596 0.01411,0.84596 0.543278,0 0.529167,-0.84596 -0.01411,-0.84596"
       style="fill:#f7974b;fill-opacity:1;fill-rule:nonzero;stroke:none;stroke-width:0.0352778"
       id="path388" />
    <path
       d="m 75.059493,121.89469 c -0.423333,0 -0.41275,0.65969 0.01411,0.65969 0.423334,0 0.41275,-0.65969 -0.01411,-0.65969"
       style="fill:#f7974b;fill-opacity:1;fill-rule:nonzero;stroke:none;stroke-width:0.0352778"
       id="path390" />
    <path
       d="m 87.801827,104.40961 c -0.635,0 -0.617361,0.98319 0.01764,0.98319 0.631472,0 0.613834,-0.98319 -0.01764,-0.98319"
       style="fill:#f7974b;fill-opacity:1;fill-rule:nonzero;stroke:none;stroke-width:0.0352778"
       id="path392" />
    <path
       d="m 85.515827,106.27157 c -0.416278,0 -0.405694,0.64453 0.01058,0.64453 0.41275,0 0.402166,-0.64453 -0.01058,-0.64453"
       style="fill:#f7974b;fill-opacity:1;fill-rule:nonzero;stroke:none;stroke-width:0.0352778"
       id="path394" />
    <path
       d="m 96.095633,109.91153 c -0.331611,0 -0.642055,0.30586 -0.620889,0.64241 0.02117,0.34678 0.289278,0.62054 0.642056,0.62054 0.331611,0 0.642056,-0.30621 0.620889,-0.64276 -0.02117,-0.34643 -0.289278,-0.62019 -0.642056,-0.62019"
       style="fill:#f7974b;fill-opacity:1;fill-rule:nonzero;stroke:none;stroke-width:0.0352778"
       id="path396" />
    <path
       d="m 92.144522,107.83438 c -0.493889,0 -0.479778,0.76411 0.01411,0.76411 0.490361,0 0.47625,-0.76411 -0.01411,-0.76411"
       style="fill:#f7974b;fill-opacity:1;fill-rule:nonzero;stroke:none;stroke-width:0.0352778"
       id="path398" />
    <path
       d="m 89.265855,108.6948 c -0.328083,0 -0.321028,0.51012 0.0071,0.51012 0.331611,0 0.321028,-0.51012 -0.0071,-0.51012"
       style="fill:#f7974b;fill-opacity:1;fill-rule:nonzero;stroke:none;stroke-width:0.0352778"
       id="path400" />
    <path
       d="m 93.710855,111.41931 c -0.321027,0 -0.313972,0.50376 0.01058,0.50376 0.324555,0 0.313972,-0.50376 -0.01058,-0.50376"
       style="fill:#f7974b;fill-opacity:1;fill-rule:nonzero;stroke:none;stroke-width:0.0352778"
       id="path402" />
    <path
       d="m 98.617995,113.19484 c -0.313973,0 -0.610306,0.29069 -0.589139,0.61066 0.02117,0.3302 0.271639,0.59019 0.610305,0.59019 0.313973,0 0.610306,-0.29104 0.589139,-0.61101 -0.02117,-0.32985 -0.275166,-0.58984 -0.610305,-0.58984"
       style="fill:#f7974b;fill-opacity:1;fill-rule:nonzero;stroke:none;stroke-width:0.0352778"
       id="path404" />
    <path
       d="m 88.507383,95.678714 -0.02117,0.03951 c -0.127,0.224366 0.134056,0.459669 0.34925,0.338314 l 0.04233,-0.02258 c 0.370416,-0.210256 -0.148167,-0.746831 -0.370417,-0.355247"
       style="fill:#f7974b;fill-opacity:1;fill-rule:nonzero;stroke:none;stroke-width:0.0352778"
       id="path406" />
    <path
       d="m 88.796661,98.180967 c -0.296334,0 -0.543278,0.264936 -0.53975,0.557036 0.0071,0.301272 0.261055,0.538339 0.557389,0.538339 0.296333,0 0.543277,-0.265289 0.53975,-0.557389 -0.0071,-0.301273 -0.261056,-0.537986 -0.557389,-0.537986"
       style="fill:#f7974b;fill-opacity:1;fill-rule:nonzero;stroke:none;stroke-width:0.0352778"
       id="path408" />
    <path
       d="m 94.374078,94.367791 c -0.575028,0 -0.557389,0.889706 0.01411,0.889706 0.575028,0 0.557389,-0.889706 -0.01411,-0.889706"
       style="fill:#f7974b;fill-opacity:1;fill-rule:nonzero;stroke:none;stroke-width:0.0352778"
       id="path410" />
    <path
       d="m 91.721189,96.659789 c -0.356306,0 -0.345723,0.553508 0.01058,0.553508 0.356306,0 0.345722,-0.553508 -0.01058,-0.553508"
       style="fill:#f7974b;fill-opacity:1;fill-rule:nonzero;stroke:none;stroke-width:0.0352778"
       id="path412" />
    <path
       d="m 99.746884,94.194225 c -0.624417,0 -0.606778,0.970844 0.01764,0.970844 0.624416,0 0.610306,-0.970844 -0.01764,-0.970844"
       style="fill:#f7974b;fill-opacity:1;fill-rule:nonzero;stroke:none;stroke-width:0.0352778"
       id="path414" />
    <path
       d="m 95.033772,96.230458 c -0.652639,0 -0.635,1.013883 0.01764,1.013883 0.656167,0 0.638528,-1.013883 -0.01764,-1.013883"
       style="fill:#f7974b;fill-opacity:1;fill-rule:nonzero;stroke:none;stroke-width:0.0352778"
       id="path416" />
    <path
       d="m 97.161022,94.084511 c -0.423333,0 -0.41275,0.659694 0.01411,0.659694 0.423334,0 0.41275,-0.659694 -0.01411,-0.659694"
       style="fill:#f7974b;fill-opacity:1;fill-rule:nonzero;stroke:none;stroke-width:0.0352778"
       id="path418" />
    <path
       d="m 98.159384,95.738686 c -0.261056,0 -0.254,0.404636 0.0071,0.404636 0.261056,0 0.254,-0.404636 -0.0071,-0.404636"
       style="fill:#f7974b;fill-opacity:1;fill-rule:nonzero;stroke:none;stroke-width:0.0352778"
       id="path420" />
    <path
       d="m 79.575049,86.272246 c -0.225778,0 -0.22225,0.354542 0.0071,0.354542 0.229305,0 0.22225,-0.354542 -0.0071,-0.354542"
       style="fill:#f7974b;fill-opacity:1;fill-rule:nonzero;stroke:none;stroke-width:0.0352778"
       id="path422" />
    <path
       d="m 66.501104,100.73226 c -0.239889,0 -0.232834,0.37323 0.0071,0.37323 0.239889,0 0.232834,-0.37323 -0.0071,-0.37323"
       style="fill:#f7974b;fill-opacity:1;fill-rule:nonzero;stroke:none;stroke-width:0.0352778"
       id="path424" />
    <path
       d="m 75.341715,109.50372 c -0.409222,0 -0.398638,0.63677 0.01058,0.63677 0.409222,0 0.398639,-0.63677 -0.01058,-0.63677"
       style="fill:#f7974b;fill-opacity:1;fill-rule:nonzero;stroke:none;stroke-width:0.0352778"
       id="path426" />
    <path
       d="m 74.068188,116.63689 c -0.275167,0 -0.268112,0.42298 0.0071,0.42298 0.271639,0 0.264583,-0.42298 -0.0071,-0.42298"
       style="fill:#f7974b;fill-opacity:1;fill-rule:nonzero;stroke:none;stroke-width:0.0352778"
       id="path428" />
    <path
       d="m 94.349383,109.33298 c -0.02117,0.0462 -0.04233,0.0928 -0.05644,0.14111 -0.04939,0.15699 0.06703,0.31538 0.211667,0.35983 0.151694,0.0452 0.264583,-0.01 0.373944,-0.10654 0.370417,-0.32173 -0.328083,-0.84384 -0.529167,-0.3944"
       style="fill:#f7974b;fill-opacity:1;fill-rule:nonzero;stroke:none;stroke-width:0.0352778"
       id="path430" />
    <path
       d="m 90.235994,105.80379 -0.07408,0.0529 c -0.264584,0.18838 0.08467,0.54327 0.278694,0.27163 l 0.05292,-0.0737 c 0.109361,-0.1524 -0.109361,-0.35524 -0.257528,-0.25082"
       style="fill:#f7974b;fill-opacity:1;fill-rule:nonzero;stroke:none;stroke-width:0.0352778"
       id="path432" />
  </g>
</svg>
