<?xml version="1.0" encoding="UTF-8" standalone="no"?>
<svg
   xmlns:dc="http://purl.org/dc/elements/1.1/"
   xmlns:cc="http://creativecommons.org/ns#"
   xmlns:rdf="http://www.w3.org/1999/02/22-rdf-syntax-ns#"
   xmlns:svg="http://www.w3.org/2000/svg"
   xmlns="http://www.w3.org/2000/svg"
   xmlns:sodipodi="http://sodipodi.sourceforge.net/DTD/sodipodi-0.dtd"
   xmlns:inkscape="http://www.inkscape.org/namespaces/inkscape"
   width="210mm"
   height="297mm"
   viewBox="0 0 210 297"
   version="1.1"
   id="svg3294"
   inkscape:version="1.0.2 (e86c8708, 2021-01-15)"
   sodipodi:docname="yellow_fish.svg">
  <defs
     id="defs3288" />
  <sodipodi:namedview
     id="base"
     pagecolor="#ffffff"
     bordercolor="#666666"
     borderopacity="1.0"
     inkscape:pageopacity="0.0"
     inkscape:pageshadow="2"
     inkscape:zoom="0.35"
     inkscape:cx="400"
     inkscape:cy="560"
     inkscape:document-units="mm"
     inkscape:current-layer="layer1"
     inkscape:document-rotation="0"
     showgrid="false"
     inkscape:window-width="1252"
     inkscape:window-height="1005"
     inkscape:window-x="3018"
     inkscape:window-y="154"
     inkscape:window-maximized="0" />
  <metadata
     id="metadata3291">
    <rdf:RDF>
      <cc:Work
         rdf:about="">
        <dc:format>image/svg+xml</dc:format>
        <dc:type
           rdf:resource="http://purl.org/dc/dcmitype/StillImage" />
        <dc:title></dc:title>
      </cc:Work>
    </rdf:RDF>
  </metadata>
  <g
     inkscape:label="Layer 1"
     inkscape:groupmode="layer"
     id="layer1">
    <path
       d="m 99.341217,121.45743 c 0,0 -4.04452,-2.64971 -5.43909,-2.64971 -1.3946,0 -1.74322,2.92876 -1.63865,4.11409 0.10446,1.18533 0.6973,3.59128 1.95241,3.55635 1.25526,-0.0349 5.12533,-3.6957 5.12533,-3.6957 v -1.32503"
       style="fill:#27418e;fill-opacity:1;fill-rule:nonzero;stroke:none;stroke-width:0.0352778"
       id="path688" />
    <path
       d="m 112.90401,109.63796 c 0,0 -11.22687,-1.74307 -14.016143,0.34855 -2.78917,2.09232 -0.13931,10.11131 -0.34865,11.99374 -0.2092,1.88277 14.364793,-12.34229 14.364793,-12.34229"
       style="fill:#27418e;fill-opacity:1;fill-rule:nonzero;stroke:none;stroke-width:0.0352778"
       id="path690" />
    <path
       d="m 112.86909,133.77855 c 0,0 -11.22666,1.74343 -14.016113,-0.34855 -2.78927,-2.09197 -0.13945,-10.11096 -0.34847,-11.99374 -0.2092,-1.88277 14.364583,12.34229 14.364583,12.34229"
       style="fill:#27418e;fill-opacity:1;fill-rule:nonzero;stroke:none;stroke-width:0.0352778"
       id="path692" />
    <path
       d="m 125.45549,122.25929 c 0,0 -2.51036,-1.74307 -3.06846,-3.62585 -0.55774,-1.88277 -0.69709,-5.11351 -3.04447,-7.13599 -2.81234,-2.42217 -6.27592,-2.74249 -11.45928,-1.44109 -6.67053,1.67534 -9.274353,7.94949 -9.134723,11.29665 0.13931,3.3468 0.83672,8.92528 6.624353,11.2963 5.78768,2.37066 11.01725,1.18533 15.1317,-2.37102 4.1141,-3.556 5.09023,-6.83366 4.95088,-8.019"
       style="fill:#fbc53b;fill-opacity:1;fill-rule:nonzero;stroke:none;stroke-width:0.0352778"
       id="path694" />
    <path
       d="m 106.31906,112.12893 c 0,0 -0.036,0.0741 -0.10336,0.21272 -0.0684,0.13723 -0.16863,0.33867 -0.29633,0.59479 -0.0639,0.127 -0.14253,0.26317 -0.21132,0.42015 -0.0621,0.15981 -0.12947,0.33232 -0.20143,0.51718 -0.0727,0.18273 -0.14993,0.37712 -0.23143,0.58208 -0.0748,0.20708 -0.13229,0.43321 -0.20708,0.66216 -0.0663,0.23213 -0.15346,0.46743 -0.21272,0.72002 -0.055,0.254 -0.11183,0.51612 -0.17004,0.78529 -0.0279,0.13476 -0.0649,0.26917 -0.0868,0.40887 -0.0191,0.14005 -0.0381,0.28186 -0.0575,0.42509 -0.036,0.28716 -0.0896,0.57715 -0.11677,0.87595 -0.0402,0.59972 -0.1023,1.21708 -0.079,1.84997 -0.0176,0.63112 0.0497,1.27211 0.0769,1.91417 0.13194,1.28058 0.3436,2.55587 0.62194,3.73874 0.27693,1.18251 0.58562,2.28141 0.91652,3.20146 0.0825,0.23036 0.15522,0.45332 0.22331,0.66639 0.0769,0.20991 0.14958,0.40923 0.21766,0.5962 0.13688,0.37465 0.25577,0.70273 0.36971,0.96555 0.21026,0.53587 0.3302,0.84173 0.3302,0.84173 l -0.009,0.009 -0.012,10e-4 c 0,0 -0.16722,-0.28363 -0.45967,-0.78069 -0.14711,-0.24871 -0.30656,-0.56022 -0.49036,-0.91829 -0.0921,-0.17885 -0.1905,-0.36971 -0.29457,-0.57044 -0.0956,-0.20426 -0.19473,-0.42051 -0.2921,-0.6484 -0.40605,-0.90594 -0.80504,-1.99567 -1.18075,-3.18523 -0.33972,-1.19945 -0.61383,-2.50825 -0.75882,-3.83928 -0.0462,-0.66746 -0.11536,-1.33562 -0.084,-1.99708 -0.008,-0.6611 0.0702,-1.30881 0.1277,-1.93569 0.0399,-0.31256 0.10901,-0.61595 0.16228,-0.9144 0.0289,-0.14852 0.0575,-0.29563 0.0857,-0.44133 0.0314,-0.14428 0.0794,-0.28398 0.11782,-0.42333 0.0822,-0.27622 0.16193,-0.54539 0.23954,-0.80574 0.084,-0.25788 0.1972,-0.49672 0.28963,-0.73025 0.0981,-0.23143 0.18239,-0.45685 0.28504,-0.66111 0.11148,-0.19967 0.21732,-0.38911 0.3168,-0.56762 0.10054,-0.17604 0.19438,-0.34114 0.28116,-0.49389 0.0935,-0.14816 0.19368,-0.27622 0.27517,-0.39652 0.17145,-0.23389 0.30656,-0.41769 0.39864,-0.54293 0.0928,-0.12347 0.14217,-0.18944 0.14217,-0.18944 l 0.0483,0.0127 0.0286,0.0399"
       style="fill:#27418e;fill-opacity:1;fill-rule:nonzero;stroke:none;stroke-width:0.0352778"
       id="path696" />
    <path
       d="m 102.6029,114.92681 c 0,0 -0.0247,0.0557 -0.0713,0.16051 -0.0473,0.10301 -0.11684,0.254 -0.20542,0.44627 -0.0451,0.0949 -0.10019,0.19649 -0.14803,0.31326 -0.0427,0.11924 -0.0887,0.24765 -0.13822,0.38524 -0.0503,0.13546 -0.10389,0.2801 -0.16026,0.43215 -0.0519,0.1531 -0.0908,0.32032 -0.14302,0.4893 -0.21664,0.67381 -0.343,1.49155 -0.44401,2.36185 -0.0272,0.43956 -0.0713,0.89147 -0.052,1.35537 -0.0114,0.46249 0.038,0.93239 0.0555,1.4037 0.0961,0.93945 0.24447,1.87713 0.4422,2.74885 0.19199,0.87277 0.40859,1.68557 0.64372,2.36749 0.059,0.17004 0.10961,0.33584 0.15617,0.49459 0.0533,0.15628 0.10372,0.30445 0.15099,0.4438 0.0949,0.27905 0.17745,0.52317 0.25753,0.71931 0.14429,0.40076 0.22684,0.63006 0.22684,0.63006 l -0.009,0.008 -0.0113,0.002 c 0,0 -0.12983,-0.20673 -0.35702,-0.56868 -0.11288,-0.18203 -0.236,-0.41028 -0.37782,-0.67239 -0.0715,-0.13124 -0.14746,-0.27094 -0.22765,-0.41805 -0.0746,-0.14993 -0.15131,-0.30868 -0.22518,-0.47695 -0.31005,-0.66711 -0.61669,-1.47109 -0.90773,-2.35056 -0.25933,-0.8883 -0.47018,-1.85985 -0.57905,-2.84974 -0.0369,-0.49671 -0.088,-0.99342 -0.0632,-1.48625 -0.004,-0.49213 0.0565,-0.97473 0.10132,-1.44145 0.1513,-0.92675 0.37204,-1.78259 0.69507,-2.46204 0.0754,-0.17145 0.14097,-0.33796 0.22074,-0.48824 0.0864,-0.14676 0.16841,-0.28611 0.24557,-0.41734 0.0778,-0.12912 0.15091,-0.25012 0.21829,-0.36195 0.0721,-0.1083 0.14909,-0.20179 0.21167,-0.28963 0.13243,-0.16969 0.23661,-0.30339 0.30759,-0.39441 0.0721,-0.0893 0.11021,-0.13687 0.11021,-0.13687 l 0.0466,0.0166 0.0303,0.0356"
       style="fill:#27418e;fill-opacity:1;fill-rule:nonzero;stroke:none;stroke-width:0.0352778"
       id="path698" />
    <path
       d="m 109.84367,110.4684 c 0,0 -0.0353,0.0836 -0.1016,0.24024 -0.0674,0.15523 -0.16616,0.38277 -0.2921,0.67275 -0.0624,0.14393 -0.14323,0.2981 -0.20673,0.4766 -0.0607,0.17921 -0.12594,0.3736 -0.19579,0.58068 -0.0713,0.20602 -0.14676,0.42474 -0.22613,0.6551 -0.0625,0.23601 -0.12842,0.48402 -0.19685,0.7426 -0.29669,1.02623 -0.47237,2.26342 -0.59902,3.58528 -0.0353,0.66534 -0.0875,1.35114 -0.0589,2.05176 -0.0117,0.69991 0.061,1.4104 0.0931,2.1216 0.1404,1.41923 0.3563,2.83351 0.63535,4.14867 0.27587,1.31551 0.58244,2.53859 0.90593,3.56976 0.0808,0.25788 0.15205,0.50694 0.21873,0.74471 0.0741,0.23566 0.14464,0.45897 0.21096,0.66852 0.13264,0.42016 0.24765,0.7874 0.35701,1.08408 0.20179,0.60184 0.31679,0.9458 0.31679,0.9458 l -0.009,0.009 h -0.012 c 0,0 -0.16369,-0.3242 -0.44979,-0.89182 -0.14288,-0.28434 -0.29916,-0.63712 -0.47943,-1.04175 -0.0907,-0.2025 -0.18697,-0.4184 -0.28857,-0.64559 -0.0942,-0.23001 -0.19227,-0.47307 -0.28787,-0.72848 -0.39828,-1.01777 -0.7941,-2.23203 -1.16734,-3.55247 -0.33937,-1.32892 -0.61595,-2.77213 -0.76835,-4.2351 -0.0511,-0.73343 -0.12524,-1.46685 -0.10054,-2.19357 -0.0134,-0.72567 0.0543,-1.43863 0.10618,-2.12796 0.17533,-1.37231 0.44239,-2.64513 0.84385,-3.67806 0.0938,-0.26 0.17886,-0.51047 0.27375,-0.74295 0.10937,-0.22648 0.21343,-0.44133 0.31151,-0.64347 0.0988,-0.20038 0.19085,-0.3877 0.27622,-0.56127 0.0885,-0.17145 0.19156,-0.31785 0.27164,-0.45649 0.1711,-0.26988 0.30551,-0.4819 0.39723,-0.62654 0.0928,-0.14287 0.14182,-0.21942 0.14182,-0.21942 l 0.0501,0.008 0.03,0.0392"
       style="fill:#27418e;fill-opacity:1;fill-rule:nonzero;stroke:none;stroke-width:0.0352778"
       id="path700" />
    <path
       d="m 114.16696,110.2592 c 0,0 -0.0353,0.0836 -0.1016,0.24025 -0.0677,0.15522 -0.16651,0.38276 -0.29245,0.67274 -0.0628,0.14394 -0.14288,0.29845 -0.20779,0.47661 -0.0607,0.17956 -0.1263,0.37359 -0.1965,0.58067 -0.0713,0.20567 -0.14711,0.42474 -0.22719,0.65546 -0.0688,0.23389 -0.12664,0.48472 -0.19826,0.74189 -0.29951,1.02588 -0.4759,2.26307 -0.60572,3.58493 -0.0349,0.66569 -0.0889,1.35114 -0.0603,2.05246 -0.0116,0.69991 0.0607,1.41005 0.0931,2.12161 0.14111,1.41922 0.35878,2.83351 0.63959,4.14866 0.27799,1.31551 0.58631,2.53824 0.91122,3.56941 0.0811,0.25788 0.15311,0.50694 0.21978,0.74507 0.0744,0.2353 0.14535,0.45861 0.21167,0.66851 0.133,0.42016 0.24871,0.78705 0.35807,1.08409 0.20179,0.60183 0.3175,0.94579 0.3175,0.94579 l -0.01,0.009 h -0.012 c 0,0 -0.16369,-0.32421 -0.45015,-0.89183 -0.14322,-0.28434 -0.2995,-0.63711 -0.48048,-1.0421 -0.0907,-0.20214 -0.18732,-0.41804 -0.28892,-0.64523 -0.0949,-0.22966 -0.19297,-0.47273 -0.28893,-0.72849 -0.3997,-1.01706 -0.79728,-2.23132 -1.17298,-3.55141 -0.34079,-1.32892 -0.61948,-2.77213 -0.77259,-4.23581 -0.0512,-0.73377 -0.12523,-1.46755 -0.10054,-2.19427 -0.0134,-0.72637 0.0564,-1.43969 0.10795,-2.12902 0.17815,-1.37266 0.44626,-2.64548 0.85055,-3.67771 0.0945,-0.25999 0.17886,-0.51082 0.27516,-0.74259 0.11007,-0.22649 0.21414,-0.44133 0.31221,-0.64347 0.0991,-0.20003 0.19156,-0.38735 0.27729,-0.56092 0.0896,-0.17074 0.19191,-0.31785 0.27234,-0.45579 0.1711,-0.27022 0.30586,-0.48224 0.39758,-0.62688 0.0928,-0.14323 0.14217,-0.21908 0.14217,-0.21908 l 0.0501,0.008 0.0296,0.0391"
       style="fill:#27418e;fill-opacity:1;fill-rule:nonzero;stroke:none;stroke-width:0.0352778"
       id="path702" />
    <path
       d="m 125.45549,122.25929 c 0,0 -0.0363,-0.0254 -0.0952,-0.0684 -0.28081,0.40428 -0.59019,0.78845 -0.93556,1.13876 -0.37783,0.37112 -0.79728,0.6978 -1.25307,0.96555 -0.46002,0.26388 -0.96379,0.43533 -1.48413,0.54575 l -0.01,0.002 c -0.0713,0.0152 -0.11924,0.0832 -0.10866,0.15628 0.0113,0.0759 0.0818,0.12876 0.15805,0.11747 0.55809,-0.0811 1.11125,-0.23248 1.62172,-0.48436 0.50623,-0.25612 0.97755,-0.57891 1.40547,-0.95003 0.236,-0.21131 0.4572,-0.43815 0.66886,-0.6731 0.0469,-0.30127 0.055,-0.55457 0.0321,-0.75001"
       style="fill:#27418e;fill-opacity:1;fill-rule:nonzero;stroke:none;stroke-width:0.0352778"
       id="path704" />
    <path
       d="m 119.84386,117.14684 c -0.42616,-0.27552 -0.94121,-0.4057 -1.4598,-0.30657 -0.93204,0.1778 -1.5434,1.06257 -1.62277,1.97133 -0.0727,0.83396 0.31573,1.6383 1.07032,2.02741 1.33209,0.68651 2.98768,-0.31997 3.04165,-1.81046 0.0275,-0.76305 -0.40498,-1.47813 -1.0294,-1.88171"
       style="fill:#ffffff;fill-opacity:1;fill-rule:nonzero;stroke:none;stroke-width:0.0352778"
       id="path706" />
    <path
       d="m 119.20639,117.8464 c -0.26811,-0.23778 -0.58738,-0.37465 -0.95144,-0.37465 -0.30163,0 -0.61913,0.13546 -0.85126,0.33514 0.0748,-0.0258 0.15276,-0.0441 0.23248,-0.0441 0.43992,0 0.77118,0.34008 0.79799,0.77082 0.0261,0.41804 -0.36019,0.79798 -0.77047,0.79798 -0.32279,0 -0.58596,-0.1838 -0.71437,-0.45155 0.0296,0.32984 0.1471,0.66392 0.4011,0.88864 0.26812,0.23778 0.58738,0.37465 0.95145,0.37465 0.33866,0 0.70379,-0.16545 0.93768,-0.40746 0.22789,-0.236 0.39546,-0.61912 0.37465,-0.95179 -0.0215,-0.34502 -0.14111,-0.70132 -0.40781,-0.93768"
       style="fill:#333f48;fill-opacity:1;fill-rule:nonzero;stroke:none;stroke-width:0.0352778"
       id="path708" />
  </g>
</svg>
